<?xml version="1.0" encoding="UTF-8" standalone="no"?>
<svg
   xmlns:dc="http://purl.org/dc/elements/1.1/"
   xmlns:cc="http://creativecommons.org/ns#"
   xmlns:rdf="http://www.w3.org/1999/02/22-rdf-syntax-ns#"
   xmlns:svg="http://www.w3.org/2000/svg"
   xmlns="http://www.w3.org/2000/svg"
   xmlns:sodipodi="http://sodipodi.sourceforge.net/DTD/sodipodi-0.dtd"
   xmlns:inkscape="http://www.inkscape.org/namespaces/inkscape"
   version="1.1"
   viewBox="0 0 643.20471 359.29919"
   fill="none"
   stroke="none"
   stroke-linecap="square"
   stroke-miterlimit="10"
   id="svg135"
   sodipodi:docname="all-stop.svg"
   width="643.20471"
   height="359.29919"
   inkscape:version="1.0.1 (3bc2e813f5, 2020-09-07)">
  <metadata
     id="metadata141">
    <rdf:RDF>
      <cc:Work
         rdf:about="">
        <dc:format>image/svg+xml</dc:format>
        <dc:type
           rdf:resource="http://purl.org/dc/dcmitype/StillImage" />
        <dc:title></dc:title>
      </cc:Work>
    </rdf:RDF>
  </metadata>
  <defs
     id="defs139" />
  <sodipodi:namedview
     pagecolor="#ffffff"
     bordercolor="#666666"
     borderopacity="1"
     objecttolerance="10"
     gridtolerance="10"
     guidetolerance="10"
     inkscape:pageopacity="0"
     inkscape:pageshadow="2"
     inkscape:window-width="1364"
     inkscape:window-height="747"
     id="namedview137"
     showgrid="false"
     inkscape:zoom="1.0685185"
     inkscape:cx="328.49213"
     inkscape:cy="171.88195"
     inkscape:window-x="0"
     inkscape:window-y="19"
     inkscape:window-maximized="0"
     inkscape:current-layer="svg135" />
  <clipPath
     id="p.0">
    <path
       d="M 0,0 H 720 V 540 H 0 Z"
       clip-rule="nonzero"
       id="path2" />
  </clipPath>
  <path
     fill="#000000"
     fill-opacity="0"
     d="M -31.507874,-23.248032 H 688.49213 V 516.75197 H -31.507874 Z"
     fill-rule="evenodd"
     id="path5" />
  <path
     fill="#cfe2f3"
     d="M 0.5,0.5 H 642.7047 V 167.77559 H 0.5 Z"
     fill-rule="evenodd"
     id="path7" />
  <path
     stroke="#000000"
     stroke-width="1"
     stroke-linejoin="round"
     stroke-linecap="butt"
     d="M 0.5,0.5 H 642.7047 V 167.77559 H 0.5 Z"
     fill-rule="evenodd"
     id="path9" />
  <path
     fill="#000000"
     d="M 255.68048,24.86 V 13.406875 h 3.95313 q 1.32812,0 2.03125,0.15625 0.98437,0.234375 1.6875,0.828125 0.90625,0.765625 1.34375,1.953125 0.45312,1.1875 0.45312,2.71875 0,1.3125 -0.3125,2.328125 -0.29687,1 -0.78125,1.65625 -0.46875,0.65625 -1.03125,1.046875 -0.5625,0.375 -1.375,0.578125 -0.79687,0.1875 -1.82812,0.1875 z m 1.51563,-1.359375 h 2.45312 q 1.125,0 1.76563,-0.203125 0.65625,-0.21875 1.03125,-0.59375 0.54687,-0.546875 0.84375,-1.453125 0.29687,-0.90625 0.29687,-2.203125 0,-1.796875 -0.59375,-2.765625 -0.57812,-0.96875 -1.42187,-1.296875 -0.60938,-0.234375 -1.96875,-0.234375 h -2.40625 z m 15.53906,-1.3125 1.45312,0.171875 q -0.34375,1.28125 -1.28125,1.984375 -0.92187,0.703125 -2.35937,0.703125 -1.82813,0 -2.89063,-1.125 -1.0625,-1.125 -1.0625,-3.140625 0,-2.09375 1.07813,-3.25 1.07812,-1.15625 2.79687,-1.15625 1.65625,0 2.70313,1.140625 1.0625,1.125 1.0625,3.171875 0,0.125 0,0.375 h -6.1875 q 0.0781,1.375 0.76562,2.109375 0.70313,0.71875 1.73438,0.71875 0.78125,0 1.32812,-0.40625 0.54688,-0.40625 0.85938,-1.296875 z m -4.60938,-2.28125 h 4.625 q -0.0937,-1.046875 -0.53125,-1.5625 -0.67187,-0.8125 -1.73437,-0.8125 -0.96875,0 -1.64063,0.65625 -0.65625,0.640625 -0.71875,1.71875 z M 277.25861,24.86 h -1.3125 V 13.406875 h 1.40625 V 17.485 q 0.89062,-1.109375 2.28125,-1.109375 0.76562,0 1.4375,0.3125 0.6875,0.296875 1.125,0.859375 0.45312,0.5625 0.70312,1.359375 0.25,0.78125 0.25,1.671875 0,2.140625 -1.0625,3.3125 -1.04687,1.15625 -2.53125,1.15625 -1.46875,0 -2.29687,-1.234375 z m -0.0156,-4.21875 q 0,1.5 0.40625,2.15625 0.65625,1.09375 1.79688,1.09375 0.92187,0 1.59375,-0.796875 0.67187,-0.8125 0.67187,-2.390625 0,-1.625 -0.65625,-2.390625 -0.64062,-0.78125 -1.54687,-0.78125 -0.92188,0 -1.59375,0.796875 -0.67188,0.796875 -0.67188,2.3125 z M 290.2977,24.86 v -1.21875 q -0.96875,1.40625 -2.64063,1.40625 -0.73437,0 -1.375,-0.28125 -0.625,-0.28125 -0.9375,-0.703125 -0.3125,-0.4375 -0.4375,-1.046875 -0.0781,-0.421875 -0.0781,-1.3125 v -5.140625 h 1.40625 v 4.59375 q 0,1.109375 0.0781,1.484375 0.14063,0.5625 0.5625,0.875 0.4375,0.3125 1.0625,0.3125 0.64063,0 1.1875,-0.3125 0.5625,-0.328125 0.78125,-0.890625 0.23438,-0.5625 0.23438,-1.625 v -4.4375 h 1.40625 V 24.86 Z m 3.19531,0.6875 1.375,0.203125 q 0.0781,0.640625 0.46875,0.921875 0.53125,0.390625 1.4375,0.390625 0.96875,0 1.5,-0.390625 0.53125,-0.390625 0.71875,-1.09375 0.10938,-0.421875 0.10938,-1.8125 -0.92188,1.09375 -2.29688,1.09375 -1.71875,0 -2.65625,-1.234375 -0.9375,-1.234375 -0.9375,-2.96875 0,-1.1875 0.42188,-2.1875 0.4375,-1 1.25,-1.546875 0.82812,-0.546875 1.92187,-0.546875 1.46875,0 2.42188,1.1875 v -1 h 1.29687 V 23.735 q 0,1.9375 -0.39062,2.75 -0.39063,0.8125 -1.25,1.28125 -0.85938,0.46875 -2.10938,0.46875 -1.48437,0 -2.40625,-0.671875 -0.90625,-0.671875 -0.875,-2.015625 z m 1.17188,-4.984375 q 0,1.625 0.64062,2.375 0.65625,0.75 1.625,0.75 0.96875,0 1.625,-0.734375 0.65625,-0.75 0.65625,-2.34375 0,-1.53125 -0.67187,-2.296875 -0.67188,-0.78125 -1.625,-0.78125 -0.9375,0 -1.59375,0.765625 -0.65625,0.765625 -0.65625,2.265625 z m 7.72656,4.984375 1.375,0.203125 q 0.0781,0.640625 0.46875,0.921875 0.53125,0.390625 1.4375,0.390625 0.96875,0 1.5,-0.390625 0.53125,-0.390625 0.71875,-1.09375 0.10937,-0.421875 0.10937,-1.8125 -0.92187,1.09375 -2.29687,1.09375 -1.71875,0 -2.65625,-1.234375 -0.9375,-1.234375 -0.9375,-2.96875 0,-1.1875 0.42187,-2.1875 0.4375,-1 1.25,-1.546875 0.82813,-0.546875 1.92188,-0.546875 1.46875,0 2.42187,1.1875 v -1 h 1.29688 V 23.735 q 0,1.9375 -0.39063,2.75 -0.39062,0.8125 -1.25,1.28125 -0.85937,0.46875 -2.10937,0.46875 -1.48438,0 -2.40625,-0.671875 -0.90625,-0.671875 -0.875,-2.015625 z m 1.17187,-4.984375 q 0,1.625 0.64063,2.375 0.65625,0.75 1.625,0.75 0.96875,0 1.625,-0.734375 0.65625,-0.75 0.65625,-2.34375 0,-1.53125 -0.67188,-2.296875 -0.67187,-0.78125 -1.625,-0.78125 -0.9375,0 -1.59375,0.765625 -0.65625,0.765625 -0.65625,2.265625 z m 13.66407,1.625 1.45312,0.171875 q -0.34375,1.28125 -1.28125,1.984375 -0.92187,0.703125 -2.35937,0.703125 -1.82813,0 -2.89063,-1.125 -1.0625,-1.125 -1.0625,-3.140625 0,-2.09375 1.07813,-3.25 1.07812,-1.15625 2.79687,-1.15625 1.65625,0 2.70313,1.140625 1.0625,1.125 1.0625,3.171875 0,0.125 0,0.375 h -6.1875 q 0.0781,1.375 0.76562,2.109375 0.70313,0.71875 1.73438,0.71875 0.78125,0 1.32812,-0.40625 0.54688,-0.40625 0.85938,-1.296875 z m -4.60938,-2.28125 h 4.625 q -0.0937,-1.046875 -0.53125,-1.5625 -0.67187,-0.8125 -1.73437,-0.8125 -0.96875,0 -1.64063,0.65625 -0.65625,0.640625 -0.71875,1.71875 z M 325.82895,24.86 v -1.046875 q -0.78125,1.234375 -2.3125,1.234375 -1,0 -1.82813,-0.546875 -0.82812,-0.546875 -1.29687,-1.53125 -0.45313,-0.984375 -0.45313,-2.25 0,-1.25 0.40625,-2.25 0.42188,-1.015625 1.25,-1.546875 0.82813,-0.546875 1.85938,-0.546875 0.75,0 1.32812,0.3125 0.59375,0.3125 0.95313,0.828125 v -4.109375 h 1.40625 V 24.86 Z m -4.4375,-4.140625 q 0,1.59375 0.67187,2.390625 0.67188,0.78125 1.57813,0.78125 0.92187,0 1.5625,-0.75 0.65625,-0.765625 0.65625,-2.3125 0,-1.703125 -0.65625,-2.5 -0.65625,-0.796875 -1.625,-0.796875 -0.9375,0 -1.5625,0.765625 -0.625,0.765625 -0.625,2.421875 z M 333.7977,28.0475 V 16.563125 h 1.28125 v 1.078125 q 0.45312,-0.640625 1.01562,-0.953125 0.57813,-0.3125 1.39063,-0.3125 1.0625,0 1.875,0.546875 0.8125,0.546875 1.21875,1.546875 0.42187,0.984375 0.42187,2.171875 0,1.28125 -0.46875,2.296875 -0.45312,1.015625 -1.32812,1.5625 -0.85938,0.546875 -1.82813,0.546875 -0.70312,0 -1.26562,-0.296875 -0.54688,-0.296875 -0.90625,-0.75 V 28.0475 Z m 1.26562,-7.296875 q 0,1.609375 0.64063,2.375 0.65625,0.765625 1.57812,0.765625 0.9375,0 1.60938,-0.796875 0.67187,-0.796875 0.67187,-2.453125 0,-1.59375 -0.65625,-2.375 -0.65625,-0.796875 -1.5625,-0.796875 -0.89062,0 -1.59375,0.84375 -0.6875,0.84375 -0.6875,2.4375 z M 342.68051,24.86 v -8.296875 h 1.26563 v 1.25 q 0.48437,-0.875 0.89062,-1.15625 0.40625,-0.28125 0.90625,-0.28125 0.70313,0 1.4375,0.453125 l -0.48437,1.296875 q -0.51563,-0.296875 -1.03125,-0.296875 -0.45313,0 -0.82813,0.28125 -0.35937,0.265625 -0.51562,0.765625 -0.23438,0.75 -0.23438,1.640625 V 24.86 Z m 4.8125,-4.15625 q 0,-2.296875 1.28125,-3.40625 1.07813,-0.921875 2.60938,-0.921875 1.71875,0 2.79687,1.125 1.09375,1.109375 1.09375,3.09375 0,1.59375 -0.48437,2.515625 -0.48438,0.921875 -1.40625,1.4375 -0.90625,0.5 -2,0.5 -1.73438,0 -2.8125,-1.109375 -1.07813,-1.125 -1.07813,-3.234375 z m 1.45313,0 q 0,1.59375 0.6875,2.390625 0.70312,0.796875 1.75,0.796875 1.04687,0 1.73437,-0.796875 0.70313,-0.796875 0.70313,-2.4375 0,-1.53125 -0.70313,-2.328125 -0.6875,-0.796875 -1.73437,-0.796875 -1.04688,0 -1.75,0.796875 -0.6875,0.78125 -0.6875,2.375 z m 13.38281,1.109375 1.39062,0.1875 Q 363.4852,23.4225 362.5477,24.235 q -0.92188,0.8125 -2.28125,0.8125 -1.70313,0 -2.75,-1.109375 -1.03125,-1.125 -1.03125,-3.203125 0,-1.34375 0.4375,-2.34375 0.45312,-1.015625 1.35937,-1.515625 0.92188,-0.5 1.98438,-0.5 1.35937,0 2.21875,0.6875 0.85937,0.671875 1.09375,1.9375 l -1.35938,0.203125 q -0.20312,-0.828125 -0.70312,-1.25 -0.48438,-0.421875 -1.1875,-0.421875 -1.0625,0 -1.73438,0.765625 -0.65625,0.75 -0.65625,2.40625 0,1.671875 0.64063,2.4375 0.64062,0.75 1.67187,0.75 0.82813,0 1.375,-0.5 0.5625,-0.515625 0.70313,-1.578125 z m 8.26562,0.375 1.45313,0.171875 q -0.34375,1.28125 -1.28125,1.984375 -0.92188,0.703125 -2.35938,0.703125 -1.82812,0 -2.89062,-1.125 -1.0625,-1.125 -1.0625,-3.140625 0,-2.09375 1.07812,-3.25 1.07813,-1.15625 2.79688,-1.15625 1.65625,0 2.70312,1.140625 1.0625,1.125 1.0625,3.171875 0,0.125 0,0.375 h -6.1875 q 0.0781,1.375 0.76563,2.109375 0.70312,0.71875 1.73437,0.71875 0.78125,0 1.32813,-0.40625 0.54687,-0.40625 0.85937,-1.296875 z m -4.60937,-2.28125 h 4.625 q -0.0937,-1.046875 -0.53125,-1.5625 -0.67188,-0.8125 -1.73438,-0.8125 -0.96875,0 -1.64062,0.65625 -0.65625,0.640625 -0.71875,1.71875 z m 7.27344,2.46875 1.39062,-0.21875 q 0.10938,0.84375 0.64063,1.296875 0.54687,0.4375 1.5,0.4375 0.96875,0 1.4375,-0.390625 0.46875,-0.40625 0.46875,-0.9375 0,-0.46875 -0.40625,-0.75 -0.29688,-0.1875 -1.4375,-0.46875 -1.54688,-0.390625 -2.15625,-0.671875 -0.59375,-0.296875 -0.90625,-0.796875 -0.29688,-0.5 -0.29688,-1.109375 0,-0.5625 0.25,-1.03125 0.25,-0.46875 0.6875,-0.78125 0.32813,-0.25 0.89063,-0.40625 0.57812,-0.171875 1.21875,-0.171875 0.98437,0 1.71875,0.28125 0.73437,0.28125 1.07812,0.765625 0.35938,0.46875 0.5,1.28125 l -1.375,0.1875 q -0.0937,-0.640625 -0.54687,-1 -0.45313,-0.359375 -1.26563,-0.359375 -0.96875,0 -1.39062,0.328125 -0.40625,0.3125 -0.40625,0.734375 0,0.28125 0.17187,0.5 0.17188,0.21875 0.53125,0.375 0.21875,0.07813 1.25,0.359375 1.48438,0.390625 2.07813,0.65625 0.59375,0.25 0.92187,0.734375 0.34375,0.484375 0.34375,1.203125 0,0.703125 -0.42187,1.328125 -0.40625,0.609375 -1.1875,0.953125 -0.76563,0.34375 -1.73438,0.34375 -1.625,0 -2.46875,-0.671875 -0.84375,-0.671875 -1.07812,-2 z m 8,0 1.39062,-0.21875 q 0.10938,0.84375 0.64063,1.296875 0.54687,0.4375 1.5,0.4375 0.96875,0 1.4375,-0.390625 0.46875,-0.40625 0.46875,-0.9375 0,-0.46875 -0.40625,-0.75 -0.29688,-0.1875 -1.4375,-0.46875 -1.54688,-0.390625 -2.15625,-0.671875 -0.59375,-0.296875 -0.90625,-0.796875 -0.29688,-0.5 -0.29688,-1.109375 0,-0.5625 0.25,-1.03125 0.25,-0.46875 0.6875,-0.78125 0.32813,-0.25 0.89063,-0.40625 0.57812,-0.171875 1.21875,-0.171875 0.98437,0 1.71875,0.28125 0.73437,0.28125 1.07812,0.765625 0.35938,0.46875 0.5,1.28125 l -1.375,0.1875 q -0.0937,-0.640625 -0.54687,-1 -0.45313,-0.359375 -1.26563,-0.359375 -0.96875,0 -1.39062,0.328125 -0.40625,0.3125 -0.40625,0.734375 0,0.28125 0.17187,0.5 0.17188,0.21875 0.53125,0.375 0.21875,0.07813 1.25,0.359375 1.48438,0.390625 2.07813,0.65625 0.59375,0.25 0.92187,0.734375 0.34375,0.484375 0.34375,1.203125 0,0.703125 -0.42187,1.328125 -0.40625,0.609375 -1.1875,0.953125 -0.76563,0.34375 -1.73438,0.34375 -1.625,0 -2.46875,-0.671875 -0.84375,-0.671875 -1.07812,-2 z"
     fill-rule="nonzero"
     id="path11" />
  <path
     fill="#d9ead3"
     d="M 8.759841,35.604988 H 618.9803 l 12.39374,12.3937 -12.39374,12.3937 H 8.759841 l 12.393703,-12.3937 z"
     fill-rule="evenodd"
     id="path13" />
  <path
     stroke="#000000"
     stroke-width="1"
     stroke-linejoin="round"
     stroke-linecap="butt"
     d="M 8.759841,35.604988 H 618.9803 l 12.39374,12.3937 -12.39374,12.3937 H 8.759841 l 12.393703,-12.3937 z"
     fill-rule="evenodd"
     id="path15" />
  <path
     fill="#000000"
     d="M 550.09753,53.858688 V 43.749313 h -3.78125 v -1.34375 h 9.07813 v 1.34375 h -3.78125 v 10.109375 z m 6.67969,0 V 42.405563 h 1.40625 v 4.109375 q 0.98437,-1.140625 2.48437,-1.140625 0.92188,0 1.59375,0.359375 0.6875,0.359375 0.96875,1 0.29688,0.640625 0.29688,1.859375 v 5.265625 h -1.40625 v -5.265625 q 0,-1.046875 -0.45313,-1.53125 -0.45312,-0.484375 -1.29687,-0.484375 -0.625,0 -1.17188,0.328125 -0.54687,0.328125 -0.78125,0.890625 -0.23437,0.546875 -0.23437,1.515625 v 4.546875 z m 8.88281,0 v -8.296875 h 1.26563 v 1.25 q 0.48437,-0.875 0.89062,-1.15625 0.40625,-0.28125 0.90625,-0.28125 0.70313,0 1.4375,0.453125 l -0.48437,1.296875 q -0.51563,-0.296875 -1.03125,-0.296875 -0.45313,0 -0.82813,0.28125 -0.35937,0.265625 -0.51562,0.765625 -0.23438,0.75 -0.23438,1.640625 v 4.34375 z m 11.01563,-2.671875 1.45312,0.171875 q -0.34375,1.28125 -1.28125,1.984375 -0.92187,0.703125 -2.35937,0.703125 -1.82813,0 -2.89063,-1.125 -1.0625,-1.125 -1.0625,-3.140625 0,-2.09375 1.07813,-3.25 1.07812,-1.15625 2.79687,-1.15625 1.65625,0 2.70313,1.140625 1.0625,1.125 1.0625,3.171875 0,0.125 0,0.375 h -6.1875 q 0.0781,1.375 0.76562,2.109375 0.70313,0.71875 1.73438,0.71875 0.78125,0 1.32812,-0.40625 0.54688,-0.40625 0.85938,-1.296875 z m -4.60938,-2.28125 h 4.625 q -0.0937,-1.046875 -0.53125,-1.5625 -0.67187,-0.8125 -1.73437,-0.8125 -0.96875,0 -1.64063,0.65625 -0.65625,0.640625 -0.71875,1.71875 z m 13.24219,3.921875 q -0.78125,0.671875 -1.5,0.953125 -0.71875,0.265625 -1.54688,0.265625 -1.375,0 -2.10937,-0.671875 -0.73438,-0.671875 -0.73438,-1.703125 0,-0.609375 0.28125,-1.109375 0.28125,-0.515625 0.71875,-0.8125 0.45313,-0.3125 1.01563,-0.46875 0.42187,-0.109375 1.25,-0.203125 1.70312,-0.203125 2.51562,-0.484375 0,-0.296875 0,-0.375 0,-0.859375 -0.39062,-1.203125 -0.54688,-0.484375 -1.60938,-0.484375 -0.98437,0 -1.46875,0.359375 -0.46875,0.34375 -0.6875,1.21875 l -1.375,-0.1875 q 0.1875,-0.875 0.60938,-1.421875 0.4375,-0.546875 1.25,-0.828125 0.8125,-0.296875 1.875,-0.296875 1.0625,0 1.71875,0.25 0.67187,0.25 0.98437,0.625 0.3125,0.375 0.4375,0.953125 0.0781,0.359375 0.0781,1.296875 v 1.875 q 0,1.96875 0.0781,2.484375 0.0937,0.515625 0.35938,1 h -1.46875 q -0.21875,-0.4375 -0.28125,-1.03125 z m -0.10938,-3.140625 q -0.76562,0.3125 -2.29687,0.53125 -0.875,0.125 -1.23438,0.28125 -0.35937,0.15625 -0.5625,0.46875 -0.1875,0.296875 -0.1875,0.65625 0,0.5625 0.42188,0.9375 0.4375,0.375 1.25,0.375 0.8125,0 1.4375,-0.34375 0.64062,-0.359375 0.9375,-0.984375 0.23437,-0.46875 0.23437,-1.40625 z m 8.97657,4.171875 v -1.046875 q -0.78125,1.234375 -2.3125,1.234375 -1,0 -1.82813,-0.546875 -0.82812,-0.546875 -1.29687,-1.53125 -0.45313,-0.984375 -0.45313,-2.25 0,-1.25 0.40625,-2.25 0.42188,-1.015625 1.25,-1.546875 0.82813,-0.546875 1.85938,-0.546875 0.75,0 1.32812,0.3125 0.59375,0.3125 0.95313,0.828125 v -4.109375 h 1.40625 v 11.453125 z m -4.4375,-4.140625 q 0,1.59375 0.67187,2.390625 0.67188,0.78125 1.57813,0.78125 0.92187,0 1.5625,-0.75 0.65625,-0.765625 0.65625,-2.3125 0,-1.703125 -0.65625,-2.5 -0.65625,-0.796875 -1.625,-0.796875 -0.9375,0 -1.5625,0.765625 -0.625,0.765625 -0.625,2.421875 z m 17.3125,4.140625 h -1.40625 v -8.96875 q -0.51563,0.484375 -1.34375,0.96875 -0.8125,0.484375 -1.46875,0.734375 v -1.359375 q 1.17187,-0.5625 2.04687,-1.34375 0.89063,-0.796875 1.26563,-1.53125 h 0.90625 z"
     fill-rule="nonzero"
     id="path17" />
  <path
     fill="#d9ead3"
     d="M 10.295276,71.744098 H 620.51574 l 12.39368,12.3937 -12.39368,12.3937 H 10.295276 l 12.3937,-12.3937 z"
     fill-rule="evenodd"
     id="path19" />
  <path
     stroke="#000000"
     stroke-width="1"
     stroke-linejoin="round"
     stroke-linecap="butt"
     d="M 10.295276,71.744098 H 620.51574 l 12.39368,12.3937 -12.39368,12.3937 H 10.295276 l 12.3937,-12.3937 z"
     fill-rule="evenodd"
     id="path21" />
  <path
     fill="#000000"
     d="m 551.63293,89.997798 v -10.10938 h -3.78125 v -1.34375 h 9.07813 v 1.34375 h -3.78125 v 10.10938 z m 6.67969,0 v -11.45313 h 1.40625 v 4.10938 q 0.98437,-1.14063 2.48437,-1.14063 0.92188,0 1.59375,0.35938 0.6875,0.35937 0.96875,1 0.29688,0.64062 0.29688,1.85937 v 5.26563 h -1.40625 v -5.26563 q 0,-1.04687 -0.45313,-1.53125 -0.45312,-0.48437 -1.29687,-0.48437 -0.625,0 -1.17188,0.32812 -0.54687,0.32813 -0.78125,0.89063 -0.23437,0.54687 -0.23437,1.51562 v 4.54688 z m 8.88281,0 v -8.29688 h 1.26563 v 1.25 q 0.48437,-0.875 0.89062,-1.15625 0.40625,-0.28125 0.90625,-0.28125 0.70313,0 1.4375,0.45313 l -0.48437,1.29687 q -0.51563,-0.29687 -1.03125,-0.29687 -0.45313,0 -0.82813,0.28125 -0.35937,0.26562 -0.51562,0.76562 -0.23438,0.75 -0.23438,1.64063 v 4.34375 z m 11.01563,-2.67188 1.45312,0.17188 q -0.34375,1.28125 -1.28125,1.98437 -0.92187,0.70313 -2.35937,0.70313 -1.82813,0 -2.89063,-1.125 -1.0625,-1.125 -1.0625,-3.14063 0,-2.09375 1.07813,-3.25 1.07812,-1.15625 2.79687,-1.15625 1.65625,0 2.70313,1.14063 1.0625,1.125 1.0625,3.17187 0,0.125 0,0.375 h -6.1875 q 0.0781,1.375 0.76562,2.10938 0.70313,0.71875 1.73438,0.71875 0.78125,0 1.32812,-0.40625 0.54688,-0.40625 0.85938,-1.29688 z m -4.60938,-2.28125 h 4.625 q -0.0937,-1.04687 -0.53125,-1.5625 -0.67187,-0.8125 -1.73437,-0.8125 -0.96875,0 -1.64063,0.65625 -0.65625,0.64063 -0.71875,1.71875 z m 13.24219,3.92188 q -0.78125,0.67187 -1.5,0.95312 -0.71875,0.26563 -1.54688,0.26563 -1.375,0 -2.10937,-0.67188 -0.73438,-0.67187 -0.73438,-1.70312 0,-0.60938 0.28125,-1.10938 0.28125,-0.51562 0.71875,-0.8125 0.45313,-0.3125 1.01563,-0.46875 0.42187,-0.10937 1.25,-0.20312 1.70312,-0.20313 2.51562,-0.48438 0,-0.29687 0,-0.375 0,-0.85937 -0.39062,-1.20312 -0.54688,-0.48438 -1.60938,-0.48438 -0.98437,0 -1.46875,0.35938 -0.46875,0.34375 -0.6875,1.21875 l -1.375,-0.1875 q 0.1875,-0.875 0.60938,-1.42188 0.4375,-0.54687 1.25,-0.82812 0.8125,-0.29688 1.875,-0.29688 1.0625,0 1.71875,0.25 0.67187,0.25 0.98437,0.625 0.3125,0.375 0.4375,0.95313 0.0781,0.35937 0.0781,1.29687 v 1.875 q 0,1.96875 0.0781,2.48438 0.0937,0.51562 0.35938,1 h -1.46875 q -0.21875,-0.4375 -0.28125,-1.03125 z m -0.10938,-3.14063 q -0.76562,0.3125 -2.29687,0.53125 -0.875,0.125 -1.23438,0.28125 -0.35937,0.15625 -0.5625,0.46875 -0.1875,0.29688 -0.1875,0.65625 0,0.5625 0.42188,0.9375 0.4375,0.375 1.25,0.375 0.8125,0 1.4375,-0.34375 0.64062,-0.35937 0.9375,-0.98437 0.23437,-0.46875 0.23437,-1.40625 z m 8.97657,4.17188 v -1.04688 q -0.78125,1.23438 -2.3125,1.23438 -1,0 -1.82813,-0.54688 -0.82812,-0.54687 -1.29687,-1.53125 -0.45313,-0.98437 -0.45313,-2.25 0,-1.25 0.40625,-2.25 0.42188,-1.01562 1.25,-1.54687 0.82813,-0.54688 1.85938,-0.54688 0.75,0 1.32812,0.3125 0.59375,0.3125 0.95313,0.82813 v -4.10938 h 1.40625 v 11.45313 z m -4.4375,-4.14063 q 0,1.59375 0.67187,2.39063 0.67188,0.78125 1.57813,0.78125 0.92187,0 1.5625,-0.75 0.65625,-0.76563 0.65625,-2.3125 0,-1.70313 -0.65625,-2.5 -0.65625,-0.79688 -1.625,-0.79688 -0.9375,0 -1.5625,0.76563 -0.625,0.76562 -0.625,2.42187 z m 19.40625,2.78125 v 1.35938 h -7.57813 q -0.0156,-0.51563 0.17188,-0.98438 0.28125,-0.76562 0.92187,-1.51562 0.64063,-0.75 1.84375,-1.73438 1.85938,-1.53125 2.51563,-2.42187 0.65625,-0.90625 0.65625,-1.70313 0,-0.82812 -0.59375,-1.40625 -0.59375,-0.57812 -1.5625,-0.57812 -1.01563,0 -1.625,0.60937 -0.60938,0.60938 -0.60938,1.6875 l -1.45312,-0.14062 q 0.15625,-1.625 1.125,-2.46875 0.96875,-0.84375 2.59375,-0.84375 1.65625,0 2.60937,0.92187 0.96875,0.90625 0.96875,2.25 0,0.6875 -0.28125,1.35938 -0.28125,0.65625 -0.9375,1.39062 -0.65625,0.73438 -2.17187,2.01563 -1.26563,1.0625 -1.625,1.45312 -0.35938,0.375 -0.59375,0.75 z"
     fill-rule="nonzero"
     id="path23" />
  <path
     fill="#d9ead3"
     d="M 10.295276,107.88321 H 620.51574 l 12.39368,12.39369 -12.39368,12.39371 H 10.295276 l 12.3937,-12.39371 z"
     fill-rule="evenodd"
     id="path25" />
  <path
     stroke="#000000"
     stroke-width="1"
     stroke-linejoin="round"
     stroke-linecap="butt"
     d="M 10.295276,107.88321 H 620.51574 l 12.39368,12.39369 -12.39368,12.39371 H 10.295276 l 12.3937,-12.39371 z"
     fill-rule="evenodd"
     id="path27" />
  <path
     fill="#000000"
     d="m 551.63293,126.1369 v -10.10938 h -3.78125 v -1.34375 h 9.07813 v 1.34375 h -3.78125 v 10.10938 z m 6.67969,0 v -11.45313 h 1.40625 v 4.10938 q 0.98437,-1.14063 2.48437,-1.14063 0.92188,0 1.59375,0.35938 0.6875,0.35937 0.96875,1 0.29688,0.64062 0.29688,1.85937 v 5.26563 h -1.40625 v -5.26563 q 0,-1.04687 -0.45313,-1.53125 -0.45312,-0.48437 -1.29687,-0.48437 -0.625,0 -1.17188,0.32812 -0.54687,0.32813 -0.78125,0.89063 -0.23437,0.54687 -0.23437,1.51562 v 4.54688 z m 8.88281,0 v -8.29688 h 1.26563 v 1.25 q 0.48437,-0.875 0.89062,-1.15625 0.40625,-0.28125 0.90625,-0.28125 0.70313,0 1.4375,0.45313 l -0.48437,1.29687 q -0.51563,-0.29687 -1.03125,-0.29687 -0.45313,0 -0.82813,0.28125 -0.35937,0.26562 -0.51562,0.76562 -0.23438,0.75 -0.23438,1.64063 v 4.34375 z m 11.01563,-2.67188 1.45312,0.17188 q -0.34375,1.28125 -1.28125,1.98437 -0.92187,0.70313 -2.35937,0.70313 -1.82813,0 -2.89063,-1.125 -1.0625,-1.125 -1.0625,-3.14063 0,-2.09375 1.07813,-3.25 1.07812,-1.15625 2.79687,-1.15625 1.65625,0 2.70313,1.14063 1.0625,1.125 1.0625,3.17187 0,0.125 0,0.375 h -6.1875 q 0.0781,1.375 0.76562,2.10938 0.70313,0.71875 1.73438,0.71875 0.78125,0 1.32812,-0.40625 0.54688,-0.40625 0.85938,-1.29688 z m -4.60938,-2.28125 h 4.625 q -0.0937,-1.04687 -0.53125,-1.5625 -0.67187,-0.8125 -1.73437,-0.8125 -0.96875,0 -1.64063,0.65625 -0.65625,0.64063 -0.71875,1.71875 z m 13.24219,3.92188 q -0.78125,0.67187 -1.5,0.95312 -0.71875,0.26563 -1.54688,0.26563 -1.375,0 -2.10937,-0.67188 -0.73438,-0.67187 -0.73438,-1.70312 0,-0.60938 0.28125,-1.10938 0.28125,-0.51562 0.71875,-0.8125 0.45313,-0.3125 1.01563,-0.46875 0.42187,-0.10937 1.25,-0.20312 1.70312,-0.20313 2.51562,-0.48438 0,-0.29687 0,-0.375 0,-0.85937 -0.39062,-1.20312 -0.54688,-0.48438 -1.60938,-0.48438 -0.98437,0 -1.46875,0.35938 -0.46875,0.34375 -0.6875,1.21875 l -1.375,-0.1875 q 0.1875,-0.875 0.60938,-1.42188 0.4375,-0.54687 1.25,-0.82812 0.8125,-0.29688 1.875,-0.29688 1.0625,0 1.71875,0.25 0.67187,0.25 0.98437,0.625 0.3125,0.375 0.4375,0.95313 0.0781,0.35937 0.0781,1.29687 v 1.875 q 0,1.96875 0.0781,2.48438 0.0937,0.51562 0.35938,1 h -1.46875 q -0.21875,-0.4375 -0.28125,-1.03125 z m -0.10938,-3.14063 q -0.76562,0.3125 -2.29687,0.53125 -0.875,0.125 -1.23438,0.28125 -0.35937,0.15625 -0.5625,0.46875 -0.1875,0.29688 -0.1875,0.65625 0,0.5625 0.42188,0.9375 0.4375,0.375 1.25,0.375 0.8125,0 1.4375,-0.34375 0.64062,-0.35937 0.9375,-0.98437 0.23437,-0.46875 0.23437,-1.40625 z m 8.97657,4.17188 v -1.04688 q -0.78125,1.23438 -2.3125,1.23438 -1,0 -1.82813,-0.54688 -0.82812,-0.54687 -1.29687,-1.53125 -0.45313,-0.98437 -0.45313,-2.25 0,-1.25 0.40625,-2.25 0.42188,-1.01562 1.25,-1.54687 0.82813,-0.54688 1.85938,-0.54688 0.75,0 1.32812,0.3125 0.59375,0.3125 0.95313,0.82813 v -4.10938 h 1.40625 v 11.45313 z m -4.4375,-4.14063 q 0,1.59375 0.67187,2.39063 0.67188,0.78125 1.57813,0.78125 0.92187,0 1.5625,-0.75 0.65625,-0.76563 0.65625,-2.3125 0,-1.70313 -0.65625,-2.5 -0.65625,-0.79688 -1.625,-0.79688 -0.9375,0 -1.5625,0.76563 -0.625,0.76562 -0.625,2.42187 z m 12.01562,1.10938 1.40625,-0.1875 q 0.25,1.20312 0.82813,1.73437 0.57812,0.51563 1.42187,0.51563 0.98438,0 1.67188,-0.6875 0.6875,-0.6875 0.6875,-1.70313 0,-0.96875 -0.64063,-1.59375 -0.625,-0.625 -1.60937,-0.625 -0.39063,0 -0.98438,0.15625 l 0.15625,-1.23437 q 0.14063,0.0156 0.21875,0.0156 0.90625,0 1.625,-0.46875 0.71875,-0.46875 0.71875,-1.45312 0,-0.76563 -0.53125,-1.26563 -0.51562,-0.51562 -1.34375,-0.51562 -0.82812,0 -1.375,0.51562 -0.54687,0.51563 -0.70312,1.54688 l -1.40625,-0.25 q 0.26562,-1.42188 1.17187,-2.1875 0.92188,-0.78125 2.28125,-0.78125 0.9375,0 1.71875,0.40625 0.79688,0.39062 1.20313,1.09375 0.42187,0.6875 0.42187,1.46875 0,0.75 -0.40625,1.35937 -0.39062,0.60938 -1.17187,0.96875 1.01562,0.23438 1.57812,0.96875 0.5625,0.73438 0.5625,1.84375 0,1.5 -1.09375,2.54688 -1.09375,1.04687 -2.76562,1.04687 -1.5,0 -2.5,-0.89062 -1,-0.90625 -1.14063,-2.34375 z"
     fill-rule="nonzero"
     id="path29" />
  <path
     fill="#cfe2f3"
     d="m 0.5,314.89369 h 642.2047 v 43.90552 H 0.5 Z"
     fill-rule="evenodd"
     id="path31" />
  <path
     stroke="#000000"
     stroke-width="1"
     stroke-linejoin="round"
     stroke-linecap="butt"
     d="m 0.5,314.89369 h 642.2047 v 43.90552 H 0.5 Z"
     fill-rule="evenodd"
     id="path33" />
  <path
     fill="#000000"
     d="m 287.70003,342.70647 v -11.45313 h 3.95312 q 1.32813,0 2.03125,0.15625 0.98438,0.23438 1.6875,0.82813 0.90625,0.76562 1.34375,1.95312 0.45313,1.1875 0.45313,2.71875 0,1.3125 -0.3125,2.32813 -0.29688,1 -0.78125,1.65625 -0.46875,0.65625 -1.03125,1.04687 -0.5625,0.375 -1.375,0.57813 -0.79688,0.1875 -1.82813,0.1875 z m 1.51562,-1.35938 h 2.45313 q 1.125,0 1.76562,-0.20312 0.65625,-0.21875 1.03125,-0.59375 0.54688,-0.54688 0.84375,-1.45313 0.29688,-0.90625 0.29688,-2.20312 0,-1.79688 -0.59375,-2.76563 -0.57813,-0.96875 -1.42188,-1.29687 -0.60937,-0.23438 -1.96875,-0.23438 h -2.40625 z m 15.53907,-1.3125 1.45312,0.17188 q -0.34375,1.28125 -1.28125,1.98437 -0.92187,0.70313 -2.35937,0.70313 -1.82813,0 -2.89063,-1.125 -1.0625,-1.125 -1.0625,-3.14063 0,-2.09375 1.07813,-3.25 1.07812,-1.15625 2.79687,-1.15625 1.65625,0 2.70313,1.14063 1.0625,1.125 1.0625,3.17187 0,0.125 0,0.375 h -6.1875 q 0.0781,1.375 0.76562,2.10938 0.70313,0.71875 1.73438,0.71875 0.78125,0 1.32812,-0.40625 0.54688,-0.40625 0.85938,-1.29688 z m -4.60938,-2.28125 h 4.625 q -0.0937,-1.04687 -0.53125,-1.5625 -0.67187,-0.8125 -1.73437,-0.8125 -0.96875,0 -1.64063,0.65625 -0.65625,0.64063 -0.71875,1.71875 z m 9.13281,4.95313 h -1.3125 v -11.45313 h 1.40625 v 4.07813 q 0.89063,-1.10938 2.28125,-1.10938 0.76563,0 1.4375,0.3125 0.6875,0.29688 1.125,0.85938 0.45313,0.5625 0.70313,1.35937 0.25,0.78125 0.25,1.67188 0,2.14062 -1.0625,3.3125 -1.04688,1.15625 -2.53125,1.15625 -1.46875,0 -2.29688,-1.23438 z m -0.0156,-4.21875 q 0,1.5 0.40625,2.15625 0.65625,1.09375 1.79687,1.09375 0.92188,0 1.59375,-0.79688 0.67188,-0.8125 0.67188,-2.39062 0,-1.625 -0.65625,-2.39063 -0.64063,-0.78125 -1.54688,-0.78125 -0.92187,0 -1.59375,0.79688 -0.67187,0.79687 -0.67187,2.3125 z m 13.05469,4.21875 v -1.21875 q -0.96875,1.40625 -2.64063,1.40625 -0.73437,0 -1.375,-0.28125 -0.625,-0.28125 -0.9375,-0.70313 -0.3125,-0.4375 -0.4375,-1.04687 -0.0781,-0.42188 -0.0781,-1.3125 v -5.14063 h 1.40625 v 4.59375 q 0,1.10938 0.0781,1.48438 0.14063,0.5625 0.5625,0.875 0.4375,0.3125 1.0625,0.3125 0.64063,0 1.1875,-0.3125 0.5625,-0.32813 0.78125,-0.89063 0.23438,-0.5625 0.23438,-1.625 v -4.4375 h 1.40625 v 8.29688 z m 3.19531,0.6875 1.375,0.20312 q 0.0781,0.64063 0.46875,0.92188 0.53125,0.39062 1.4375,0.39062 0.96875,0 1.5,-0.39062 0.53125,-0.39063 0.71875,-1.09375 0.10937,-0.42188 0.10937,-1.8125 -0.92187,1.09375 -2.29687,1.09375 -1.71875,0 -2.65625,-1.23438 -0.9375,-1.23437 -0.9375,-2.96875 0,-1.1875 0.42187,-2.1875 0.4375,-1 1.25,-1.54687 0.82813,-0.54688 1.92188,-0.54688 1.46875,0 2.42187,1.1875 v -1 h 1.29688 v 7.17188 q 0,1.9375 -0.39063,2.75 -0.39062,0.8125 -1.25,1.28125 -0.85937,0.46875 -2.10937,0.46875 -1.48438,0 -2.40625,-0.67188 -0.90625,-0.67187 -0.875,-2.01562 z m 1.17187,-4.98438 q 0,1.625 0.64063,2.375 0.65625,0.75 1.625,0.75 0.96875,0 1.625,-0.73437 0.65625,-0.75 0.65625,-2.34375 0,-1.53125 -0.67188,-2.29688 -0.67187,-0.78125 -1.625,-0.78125 -0.9375,0 -1.59375,0.76563 -0.65625,0.76562 -0.65625,2.26562 z m 7.72657,4.98438 1.375,0.20312 q 0.0781,0.64063 0.46875,0.92188 0.53125,0.39062 1.4375,0.39062 0.96875,0 1.5,-0.39062 0.53125,-0.39063 0.71875,-1.09375 0.10937,-0.42188 0.10937,-1.8125 -0.92187,1.09375 -2.29687,1.09375 -1.71875,0 -2.65625,-1.23438 -0.9375,-1.23437 -0.9375,-2.96875 0,-1.1875 0.42187,-2.1875 0.4375,-1 1.25,-1.54687 0.82813,-0.54688 1.92188,-0.54688 1.46875,0 2.42187,1.1875 v -1 h 1.29688 v 7.17188 q 0,1.9375 -0.39063,2.75 -0.39062,0.8125 -1.25,1.28125 -0.85937,0.46875 -2.10937,0.46875 -1.48438,0 -2.40625,-0.67188 -0.90625,-0.67187 -0.875,-2.01562 z m 1.17187,-4.98438 q 0,1.625 0.64063,2.375 0.65625,0.75 1.625,0.75 0.96875,0 1.625,-0.73437 0.65625,-0.75 0.65625,-2.34375 0,-1.53125 -0.67188,-2.29688 -0.67187,-0.78125 -1.625,-0.78125 -0.9375,0 -1.59375,0.76563 -0.65625,0.76562 -0.65625,2.26562 z m 13.66406,1.625 1.45313,0.17188 q -0.34375,1.28125 -1.28125,1.98437 -0.92188,0.70313 -2.35938,0.70313 -1.82812,0 -2.89062,-1.125 -1.0625,-1.125 -1.0625,-3.14063 0,-2.09375 1.07812,-3.25 1.07813,-1.15625 2.79688,-1.15625 1.65625,0 2.70312,1.14063 1.0625,1.125 1.0625,3.17187 0,0.125 0,0.375 h -6.1875 q 0.0781,1.375 0.76563,2.10938 0.70312,0.71875 1.73437,0.71875 0.78125,0 1.32813,-0.40625 0.54687,-0.40625 0.85937,-1.29688 z m -4.60937,-2.28125 h 4.625 q -0.0937,-1.04687 -0.53125,-1.5625 -0.67188,-0.8125 -1.73438,-0.8125 -0.96875,0 -1.64062,0.65625 -0.65625,0.64063 -0.71875,1.71875 z m 7.82031,4.95313 v -8.29688 h 1.26563 v 1.25 q 0.48437,-0.875 0.89062,-1.15625 0.40625,-0.28125 0.90625,-0.28125 0.70313,0 1.4375,0.45313 l -0.48437,1.29687 q -0.51563,-0.29687 -1.03125,-0.29687 -0.45313,0 -0.82813,0.28125 -0.35937,0.26562 -0.51562,0.76562 -0.23438,0.75 -0.23438,1.64063 v 4.34375 z"
     fill-rule="nonzero"
     id="path35" />
  <path
     fill="#000000"
     fill-opacity="0"
     d="M 89.295276,60.384513 V 314.36877"
     fill-rule="evenodd"
     id="path37" />
  <path
     stroke="#000000"
     stroke-width="1"
     stroke-linejoin="round"
     stroke-linecap="butt"
     d="M 89.295276,60.384513 V 308.36877"
     fill-rule="evenodd"
     id="path39" />
  <path
     fill="#000000"
     stroke="#000000"
     stroke-width="1"
     stroke-linecap="butt"
     d="m 87.643546,308.36877 1.65173,4.53812 1.65173,-4.53812 z"
     fill-rule="evenodd"
     id="path41" />
  <path
     fill="#000000"
     fill-opacity="0"
     d="M 89.295276,167.76509 V 314.37926 H 49.043306 V 167.76509 Z"
     fill-rule="evenodd"
     id="path43" />
  <path
     fill="#000000"
     d="m 67.419646,226.45108 0.21875,1.39062 q -0.84375,0.10938 -1.296875,0.64063 -0.4375,0.54687 -0.4375,1.5 0,0.96875 0.390625,1.4375 0.40625,0.46875 0.9375,0.46875 0.46875,0 0.75,-0.40625 0.1875,-0.29688 0.46875,-1.4375 0.39063,-1.54688 0.67188,-2.15625 0.29687,-0.59375 0.79687,-0.90625 0.5,-0.29688 1.10938,-0.29688 0.5625,0 1.03125,0.25 0.46875,0.25 0.78125,0.6875 0.25,0.32813 0.40625,0.89063 0.17187,0.57812 0.17187,1.21875 0,0.98437 -0.28125,1.71875 -0.28125,0.73437 -0.76562,1.07812 -0.46875,0.3594 -1.28125,0.50002 l -0.1875,-1.37502 q 0.64062,-0.0937 1,-0.54687 0.35937,-0.45313 0.35937,-1.26563 0,-0.96875 -0.32812,-1.39062 -0.3125,-0.40625 -0.73438,-0.40625 -0.28125,0 -0.5,0.17187 -0.21875,0.17188 -0.375,0.53125 -0.0781,0.21875 -0.35937,1.25 -0.39063,1.48438 -0.65625,2.07813 -0.25,0.59375 -0.73438,0.92189 -0.484375,0.34375 -1.203125,0.34375 -0.703125,0 -1.328125,-0.42187 -0.609375,-0.40627 -0.953125,-1.18752 -0.34375,-0.76563 -0.34375,-1.73438 0,-1.625 0.671875,-2.46875 0.671875,-0.84375 2,-1.07812 z m -1.21875,11.62501 -1.25,0.20313 q -0.125,-0.59375 -0.125,-1.0625 0,-0.76563 0.234375,-1.1875 0.25,-0.42188 0.640625,-0.59375 0.40625,-0.17188 1.671875,-0.17188 h 4.765625 v -1.03125 h 1.09375 v 1.03125 h 2.0625 l 0.84375,1.40625 h -2.90625 v 1.40625 h -1.09375 v -1.40625 h -4.84375 q -0.609375,0 -0.78125,0.0625 -0.171875,0.0781 -0.28125,0.25 -0.09375,0.17188 -0.09375,0.48438 0,0.23437 0.0625,0.60937 z m 2.89063,0.85157 q 2.29687,0 3.40625,1.28125 0.92187,1.07812 0.92187,2.60937 0,1.71875 -1.125,2.79688 -1.10937,1.09375 -3.09375,1.09375 -1.59375,0 -2.515625,-0.48438 -0.921875,-0.48437 -1.4375,-1.40625 -0.5,-0.90625 -0.5,-2 0,-1.73437 1.109375,-2.8125 1.125,-1.07812 3.23438,-1.07812 z m 0,1.45312 q -1.593755,0 -2.39063,0.6875 -0.796875,0.70313 -0.796875,1.75 0,1.04688 0.796875,1.73438 0.796875,0.70312 2.4375,0.70312 1.53125,0 2.32813,-0.70312 0.79687,-0.6875 0.79687,-1.73438 0,-1.04687 -0.79687,-1.75 -0.78125,-0.6875 -2.375,-0.6875 z m -7.343755,7.97656 h 11.484375 v 1.28125 h -1.07812 q 0.64062,0.45313 0.95312,1.01563 0.3125,0.57812 0.3125,1.39062 0,1.0625 -0.54687,1.875 -0.54688,0.8125 -1.54688,1.21875 -0.98437,0.42188 -2.17187,0.42188 -1.281255,0 -2.29688,-0.46875 -1.015625,-0.45313 -1.5625,-1.32813 -0.546875,-0.85937 -0.546875,-1.82812 0,-0.70313 0.296875,-1.26563 0.296875,-0.54687 0.75,-0.90625 h -4.046875 z m 7.296875,1.26563 q -1.609375,0 -2.375,0.64062 -0.765625,0.65625 -0.765625,1.57813 0,0.9375 0.796875,1.60937 0.796875,0.67188 2.45313,0.67188 1.59375,0 2.375,-0.65625 0.79687,-0.65625 0.79687,-1.5625 0,-0.89063 -0.84375,-1.59375 -0.84375,-0.6875 -2.4375,-0.6875 z"
     fill-rule="nonzero"
     id="path45" />
  <path
     fill="#f4cccc"
     d="m 89.295276,35.604988 h 57.826784 v 24.7874 H 89.295276 Z"
     fill-rule="evenodd"
     id="path47" />
  <path
     stroke="#000000"
     stroke-width="1"
     stroke-linejoin="round"
     stroke-linecap="butt"
     d="m 89.295276,35.604988 h 57.826784 v 24.7874 H 89.295276 Z"
     fill-rule="evenodd"
     id="path49" />
  <path
     fill="#f4cccc"
     d="m 89.295276,71.744098 h 57.826784 v 24.7874 H 89.295276 Z"
     fill-rule="evenodd"
     id="path51" />
  <path
     stroke="#000000"
     stroke-width="1"
     stroke-linejoin="round"
     stroke-linecap="butt"
     d="m 89.295276,71.744098 h 57.826784 v 24.7874 H 89.295276 Z"
     fill-rule="evenodd"
     id="path53" />
  <path
     fill="#f4cccc"
     d="m 89.295276,107.88321 h 57.826784 v 24.7874 H 89.295276 Z"
     fill-rule="evenodd"
     id="path55" />
  <path
     stroke="#000000"
     stroke-width="1"
     stroke-linejoin="round"
     stroke-linecap="butt"
     d="m 89.295276,107.88321 h 57.826784 v 24.7874 H 89.295276 Z"
     fill-rule="evenodd"
     id="path57" />
  <path
     fill="#000000"
     fill-opacity="0"
     d="M 147.12206,60.650918 V 314.63517"
     fill-rule="evenodd"
     id="path59" />
  <path
     stroke="#000000"
     stroke-width="1"
     stroke-linejoin="round"
     stroke-linecap="butt"
     d="M 147.12206,66.650918 V 314.63517"
     fill-rule="evenodd"
     id="path61" />
  <path
     fill="#000000"
     stroke="#000000"
     stroke-width="1"
     stroke-linecap="butt"
     d="m 148.77378,66.650918 -1.65172,-4.538094 -1.65173,4.538094 z"
     fill-rule="evenodd"
     id="path63" />
  <path
     fill="#000000"
     fill-opacity="0"
     d="m 147.12206,315.41337 v -148.6929 h 40.25197 v 148.6929 z"
     fill-rule="evenodd"
     id="path65" />
  <path
     fill="#000000"
     d="m 171.48206,266.69585 h -8.29688 v -1.26563 h 1.25 q -0.875,-0.48437 -1.15625,-0.89062 -0.28125,-0.40625 -0.28125,-0.90625 0,-0.70313 0.45313,-1.4375 l 1.29687,0.48437 q -0.29687,0.51563 -0.29687,1.03125 0,0.45313 0.28125,0.82813 0.26562,0.35937 0.76562,0.51562 0.75,0.23438 1.64063,0.23438 h 4.34375 z m -2.67188,-11.01563 0.17188,-1.45312 q 1.28125,0.34375 1.98437,1.28125 0.70313,0.92187 0.70313,2.35937 0,1.82813 -1.125,2.89063 -1.125,1.0625 -3.14063,1.0625 -2.09375,0 -3.25,-1.07813 -1.15625,-1.07812 -1.15625,-2.79687 0,-1.65625 1.14063,-2.70313 1.125,-1.0625 3.17187,-1.0625 0.125,0 0.375,0 v 6.1875 q 1.375,-0.0781 2.10938,-0.76562 0.71875,-0.70313 0.71875,-1.73438 0,-0.78125 -0.40625,-1.32812 -0.40625,-0.54688 -1.29688,-0.85938 z m -2.28125,4.60938 v -4.625 q -1.04687,0.0937 -1.5625,0.53125 -0.8125,0.67187 -0.8125,1.73437 0,0.96875 0.65625,1.64063 0.64063,0.65625 1.71875,0.71875 z m 2.46875,-7.27344 -0.21875,-1.39062 q 0.84375,-0.10938 1.29688,-0.64063 0.4375,-0.54687 0.4375,-1.5 0,-0.96875 -0.39063,-1.4375 -0.40625,-0.46875 -0.9375,-0.46875 -0.46875,0 -0.75,0.40625 -0.1875,0.29688 -0.46875,1.4375 -0.39062,1.54688 -0.67187,2.15625 -0.29688,0.59375 -0.79688,0.90625 -0.5,0.29688 -1.10937,0.29688 -0.5625,0 -1.03125,-0.25 -0.46875,-0.25 -0.78125,-0.6875 -0.25,-0.32813 -0.40625,-0.89063 -0.17188,-0.57812 -0.17188,-1.21875 0,-0.98437 0.28125,-1.71875 0.28125,-0.73437 0.76563,-1.07812 0.46875,-0.35938 1.28125,-0.5 l 0.1875,1.375 q -0.64063,0.0937 -1,0.54687 -0.35938,0.45313 -0.35938,1.26563 0,0.96875 0.32813,1.39062 0.3125,0.40625 0.73437,0.40625 0.28125,0 0.5,-0.17187 0.21875,-0.17188 0.375,-0.53125 0.0781,-0.21875 0.35938,-1.25 0.39062,-1.48438 0.65625,-2.07813 0.25,-0.59375 0.73437,-0.92187 0.48438,-0.34375 1.20313,-0.34375 0.70312,0 1.32812,0.42187 0.60938,0.40625 0.95313,1.1875 0.34375,0.76563 0.34375,1.73438 0,1.625 -0.67188,2.46875 -0.67187,0.84375 -2,1.07812 z m 2.48438,-14 h -1.21875 q 1.40625,0.96875 1.40625,2.64063 0,0.73437 -0.28125,1.375 -0.28125,0.625 -0.70313,0.9375 -0.4375,0.3125 -1.04687,0.4375 -0.42188,0.0781 -1.3125,0.0781 h -5.14063 v -1.40625 h 4.59375 q 1.10938,0 1.48438,-0.0781 0.5625,-0.14063 0.875,-0.5625 0.3125,-0.4375 0.3125,-1.0625 0,-0.64063 -0.3125,-1.1875 -0.32813,-0.5625 -0.89063,-0.78125 -0.5625,-0.23438 -1.625,-0.23438 h -4.4375 v -1.40625 h 8.29688 z m 0,-3.46094 h -8.29688 v -1.25 h 1.15625 q -0.60937,-0.39062 -0.96875,-1.03125 -0.375,-0.65626 -0.375,-1.48439 0,-0.92187 0.39063,-1.51562 0.375,-0.59375 1.0625,-0.82813 -1.45313,-0.98437 -1.45313,-2.5625 0,-1.23437 0.6875,-1.89062 0.67188,-0.67188 2.09375,-0.67188 h 5.70313 v 1.39063 h -5.23438 q -0.84375,0 -1.20312,0.14062 -0.375,0.14063 -0.59375,0.5 -0.23438,0.35938 -0.23438,0.84375 0,0.875 0.57813,1.45313 0.57812,0.57812 1.85937,0.57812 h 4.82813 v 1.40625 h -5.39063 q -0.9375,0 -1.40625,0.34375 -0.46875,0.34375 -0.46875,1.125 0,0.59375 0.3125,1.09377 0.3125,0.5 0.92188,0.73437 0.59375,0.21875 1.71875,0.21875 h 4.3125 z m -2.67188,-19.00001 0.17188,-1.45313 q 1.28125,0.34375 1.98437,1.28125 0.70313,0.92188 0.70313,2.35938 0,1.82812 -1.125,2.89062 -1.125,1.0625 -3.14063,1.0625 -2.09375,0 -3.25,-1.07812 -1.15625,-1.07813 -1.15625,-2.79688 0,-1.65625 1.14063,-2.70312 1.125,-1.0625 3.17187,-1.0625 0.125,0 0.375,0 v 6.1875 q 1.375,-0.0781 2.10938,-0.76563 0.71875,-0.70312 0.71875,-1.73437 0,-0.78125 -0.40625,-1.32813 -0.40625,-0.54687 -1.29688,-0.85937 z m -2.28125,4.60937 v -4.625 q -1.04687,0.0937 -1.5625,0.53125 -0.8125,0.67188 -0.8125,1.73438 0,0.96875 0.65625,1.64062 0.64063,0.65625 1.71875,0.71875 z"
     fill-rule="nonzero"
     id="path67" />
  <path
     fill="#f4cccc"
     d="m 227.62598,35.604988 h 57.82678 v 24.7874 h -57.82678 z"
     fill-rule="evenodd"
     id="path69" />
  <path
     stroke="#000000"
     stroke-width="1"
     stroke-linejoin="round"
     stroke-linecap="butt"
     d="m 227.62598,35.604988 h 57.82678 v 24.7874 h -57.82678 z"
     fill-rule="evenodd"
     id="path71" />
  <path
     fill="#f4cccc"
     d="m 227.62598,71.744098 h 57.82678 v 24.7874 h -57.82678 z"
     fill-rule="evenodd"
     id="path73" />
  <path
     stroke="#000000"
     stroke-width="1"
     stroke-linejoin="round"
     stroke-linecap="butt"
     d="m 227.62598,71.744098 h 57.82678 v 24.7874 h -57.82678 z"
     fill-rule="evenodd"
     id="path75" />
  <path
     fill="#f4cccc"
     d="m 227.62598,107.88321 h 57.82678 v 24.7874 h -57.82678 z"
     fill-rule="evenodd"
     id="path77" />
  <path
     stroke="#000000"
     stroke-width="1"
     stroke-linejoin="round"
     stroke-linecap="butt"
     d="m 227.62598,107.88321 h 57.82678 v 24.7874 h -57.82678 z"
     fill-rule="evenodd"
     id="path79" />
  <path
     fill="#000000"
     fill-opacity="0"
     d="M 227.6496,97.555118 227.6181,313.83858"
     fill-rule="evenodd"
     id="path81" />
  <path
     stroke="#000000"
     stroke-width="1"
     stroke-linejoin="round"
     stroke-linecap="butt"
     d="M 227.6496,97.555118 227.619,307.83858"
     fill-rule="evenodd"
     id="path83" />
  <path
     fill="#000000"
     stroke="#000000"
     stroke-width="1"
     stroke-linecap="butt"
     d="m 225.96726,307.83833 1.65106,4.53836 1.65241,-4.53787 z"
     fill-rule="evenodd"
     id="path85" />
  <path
     fill="#000000"
     fill-opacity="0"
     d="M 227.62598,167.24278 V 313.85695 H 187.37403 V 167.24278 Z"
     fill-rule="evenodd"
     id="path87" />
  <path
     fill="#000000"
     d="m 205.75037,225.92877 0.21875,1.39062 q -0.84375,0.10938 -1.29688,0.64063 -0.4375,0.54687 -0.4375,1.5 0,0.96875 0.39063,1.4375 0.40625,0.46875 0.9375,0.46875 0.46875,0 0.75,-0.40625 0.1875,-0.29688 0.46875,-1.4375 0.39062,-1.54688 0.67187,-2.15625 0.29688,-0.59375 0.79688,-0.90625 0.5,-0.29688 1.10937,-0.29688 0.5625,0 1.03125,0.25 0.46875,0.25 0.78125,0.6875 0.25,0.32813 0.40625,0.89063 0.17188,0.57812 0.17188,1.21875 0,0.98437 -0.28125,1.71875 -0.28125,0.73437 -0.76563,1.07812 -0.46875,0.35938 -1.28125,0.5 l -0.1875,-1.375 q 0.64063,-0.0937 1,-0.54687 0.35938,-0.45313 0.35938,-1.26563 0,-0.96875 -0.32813,-1.39062 -0.3125,-0.40625 -0.73437,-0.40625 -0.28125,0 -0.5,0.17187 -0.21875,0.17188 -0.375,0.53125 -0.0781,0.21875 -0.35938,1.25 -0.39062,1.48438 -0.65625,2.07813 -0.25,0.59375 -0.73437,0.92187 -0.48438,0.34374 -1.20313,0.34374 -0.70312,0 -1.32812,-0.42186 -0.60938,-0.40625 -0.95313,-1.1875 -0.34375,-0.76563 -0.34375,-1.73438 0,-1.625 0.67188,-2.46875 0.67187,-0.84375 2,-1.07812 z m -1.21875,11.62498 -1.25,0.20313 q -0.125,-0.59375 -0.125,-1.0625 0,-0.76563 0.23437,-1.1875 0.25,-0.42188 0.64063,-0.59375 0.40625,-0.17188 1.67187,-0.17188 h 4.76563 V 233.71 h 1.09375 v 1.03125 h 2.0625 l 0.84375,1.40625 h -2.90625 v 1.40625 h -1.09375 v -1.40625 h -4.84375 q -0.60938,0 -0.78125,0.0625 -0.17188,0.0781 -0.28125,0.25 -0.0937,0.17188 -0.0937,0.48438 0,0.23437 0.0625,0.60937 z m 2.89062,0.85157 q 2.29688,0 3.40625,1.28125 0.92188,1.07812 0.92188,2.60937 0,1.71875 -1.125,2.79688 -1.10938,1.09375 -3.09375,1.09375 -1.59375,0 -2.51563,-0.48438 -0.92187,-0.48437 -1.4375,-1.40625 -0.5,-0.90625 -0.5,-2 0,-1.73437 1.10938,-2.8125 1.125,-1.07812 3.23437,-1.07812 z m 0,1.45312 q -1.59375,0 -2.39062,0.6875 -0.79688,0.70313 -0.79688,1.75 0,1.04688 0.79688,1.73438 0.79687,0.70312 2.4375,0.70312 1.53125,0 2.32812,-0.70312 0.79688,-0.6875 0.79688,-1.73438 0,-1.04687 -0.79688,-1.75 -0.78125,-0.6875 -2.375,-0.6875 z m -7.34375,7.97656 h 11.48438 v 1.28125 h -1.07813 q 0.64063,0.45313 0.95313,1.01563 0.3125,0.57812 0.3125,1.39062 0,1.0625 -0.54688,1.875 -0.54687,0.8125 -1.54687,1.21875 -0.98438,0.42188 -2.17188,0.42188 -1.28125,0 -2.29687,-0.46875 -1.01563,-0.45313 -1.5625,-1.32813 -0.54688,-0.85937 -0.54688,-1.82812 0,-0.70313 0.29688,-1.26563 0.29687,-0.54687 0.75,-0.90625 h -4.04688 z m 7.29688,1.26563 q -1.60938,0 -2.375,0.64062 -0.76563,0.65625 -0.76563,1.57813 0,0.9375 0.79688,1.60937 0.79687,0.67188 2.45312,0.67188 1.59375,0 2.375,-0.65625 0.79688,-0.65625 0.79688,-1.5625 0,-0.89063 -0.84375,-1.59375 -0.84375,-0.6875 -2.4375,-0.6875 z"
     fill-rule="nonzero"
     id="path89" />
  <path
     fill="#000000"
     fill-opacity="0"
     d="m 285.47113,95.489498 -0.0315,218.614182"
     fill-rule="evenodd"
     id="path91" />
  <path
     stroke="#000000"
     stroke-width="1"
     stroke-linejoin="round"
     stroke-linecap="butt"
     d="m 285.47028,101.4895 -0.0306,212.61418"
     fill-rule="evenodd"
     id="path93" />
  <path
     fill="#000000"
     stroke="#000000"
     stroke-width="1"
     stroke-linecap="butt"
     d="m 287.12201,101.48974 -1.65109,-4.538342 -1.65238,4.537872 z"
     fill-rule="evenodd"
     id="path95" />
  <path
     fill="#000000"
     fill-opacity="0"
     d="m 285.45276,314.89107 v -148.6929 h 40.25195 v 148.6929 z"
     fill-rule="evenodd"
     id="path97" />
  <path
     fill="#000000"
     d="m 309.81275,266.17354 h -8.29687 v -1.26563 h 1.25 q -0.875,-0.48437 -1.15625,-0.89062 -0.28125,-0.40625 -0.28125,-0.90625 0,-0.70313 0.45312,-1.4375 l 1.29688,0.48437 q -0.29688,0.51563 -0.29688,1.03125 0,0.45313 0.28125,0.82813 0.26563,0.35937 0.76563,0.51562 0.75,0.23438 1.64062,0.23438 h 4.34375 z m -2.67187,-11.01563 0.17187,-1.45312 q 1.28125,0.34375 1.98438,1.28125 0.70312,0.92187 0.70312,2.35937 0,1.82813 -1.125,2.89063 -1.125,1.0625 -3.14062,1.0625 -2.09375,0 -3.25,-1.07813 -1.15625,-1.07812 -1.15625,-2.79687 0,-1.65625 1.14062,-2.70313 1.125,-1.0625 3.17188,-1.0625 0.125,0 0.375,0 v 6.1875 q 1.375,-0.0781 2.10937,-0.76562 0.71875,-0.70313 0.71875,-1.73438 0,-0.78125 -0.40625,-1.32812 -0.40625,-0.54688 -1.29687,-0.85938 z m -2.28125,4.60938 v -4.625 q -1.04688,0.0937 -1.5625,0.53125 -0.8125,0.67187 -0.8125,1.73437 0,0.96875 0.65625,1.64063 0.64062,0.65625 1.71875,0.71875 z m 2.46875,-7.27344 -0.21875,-1.39062 q 0.84375,-0.10938 1.29687,-0.64063 0.4375,-0.54687 0.4375,-1.5 0,-0.96875 -0.39062,-1.4375 -0.40625,-0.46875 -0.9375,-0.46875 -0.46875,0 -0.75,0.40625 -0.1875,0.29688 -0.46875,1.4375 -0.39063,1.54688 -0.67188,2.15625 -0.29687,0.59375 -0.79687,0.90625 -0.5,0.29688 -1.10938,0.29688 -0.5625,0 -1.03125,-0.25 -0.46875,-0.25 -0.78125,-0.6875 -0.25,-0.32813 -0.40625,-0.89063 -0.17187,-0.57812 -0.17187,-1.21875 0,-0.98437 0.28125,-1.71875 0.28125,-0.73437 0.76562,-1.07812 0.46875,-0.35938 1.28125,-0.5 l 0.1875,1.375 q -0.64062,0.0937 -1,0.54687 -0.35937,0.45313 -0.35937,1.26563 0,0.96875 0.32812,1.39062 0.3125,0.40625 0.73438,0.40625 0.28125,0 0.5,-0.17187 0.21875,-0.17188 0.375,-0.53125 0.0781,-0.21875 0.35937,-1.25 0.39063,-1.48438 0.65625,-2.07813 0.25,-0.59375 0.73438,-0.92187 0.48437,-0.34375 1.20312,-0.34375 0.70313,0 1.32813,0.42187 0.60937,0.40625 0.95312,1.1875 0.34375,0.76563 0.34375,1.73438 0,1.625 -0.67187,2.46875 -0.67188,0.84375 -2,1.07812 z m 2.48437,-14 H 308.594 q 1.40625,0.96875 1.40625,2.64063 0,0.73437 -0.28125,1.375 -0.28125,0.625 -0.70312,0.9375 -0.4375,0.3125 -1.04688,0.4375 -0.42187,0.0781 -1.3125,0.0781 h -5.14062 v -1.40625 h 4.59375 q 1.10937,0 1.48437,-0.0781 0.5625,-0.14063 0.875,-0.5625 0.3125,-0.4375 0.3125,-1.0625 0,-0.64063 -0.3125,-1.1875 -0.32812,-0.5625 -0.89062,-0.78125 -0.5625,-0.23438 -1.625,-0.23438 h -4.4375 v -1.40625 h 8.29687 z m 0,-3.46094 h -8.29687 v -1.25 h 1.15625 q -0.60938,-0.39062 -0.96875,-1.03126 -0.375,-0.65625 -0.375,-1.48438 0,-0.92187 0.39062,-1.51562 0.375,-0.59375 1.0625,-0.82813 -1.45312,-0.98437 -1.45312,-2.5625 0,-1.23437 0.6875,-1.89062 0.67187,-0.67188 2.09375,-0.67188 h 5.70312 v 1.39063 h -5.23437 q -0.84375,0 -1.20313,0.14062 -0.375,0.14063 -0.59375,0.5 -0.23437,0.35938 -0.23437,0.84375 0,0.875 0.57812,1.45313 0.57813,0.57812 1.85938,0.57812 h 4.82812 v 1.40625 h -5.39062 q -0.9375,0 -1.40625,0.34375 -0.46875,0.34375 -0.46875,1.125 0,0.59375 0.3125,1.09375 0.3125,0.50002 0.92187,0.73439 0.59375,0.21875 1.71875,0.21875 h 4.3125 z m -2.67187,-19.00001 0.17187,-1.45313 q 1.28125,0.34375 1.98438,1.28125 0.70312,0.92188 0.70312,2.35938 0,1.82812 -1.125,2.89062 -1.125,1.0625 -3.14062,1.0625 -2.09375,0 -3.25,-1.07812 -1.15625,-1.07813 -1.15625,-2.79688 0,-1.65625 1.14062,-2.70312 1.125,-1.0625 3.17188,-1.0625 0.125,0 0.375,0 v 6.1875 q 1.375,-0.0781 2.10937,-0.76563 0.71875,-0.70312 0.71875,-1.73437 0,-0.78125 -0.40625,-1.32813 -0.40625,-0.54687 -1.29687,-0.85937 z m -2.28125,4.60937 v -4.625 q -1.04688,0.0937 -1.5625,0.53125 -0.8125,0.67188 -0.8125,1.73438 0,0.96875 0.65625,1.64062 0.64062,0.65625 1.71875,0.71875 z"
     fill-rule="nonzero"
     id="path99" />
  <path
     fill="#f4cccc"
     d="m 406.20865,35.604988 h 57.82678 v 24.7874 h -57.82678 z"
     fill-rule="evenodd"
     id="path101" />
  <path
     stroke="#000000"
     stroke-width="1"
     stroke-linejoin="round"
     stroke-linecap="butt"
     d="m 406.20865,35.604988 h 57.82678 v 24.7874 h -57.82678 z"
     fill-rule="evenodd"
     id="path103" />
  <path
     fill="#f4cccc"
     d="m 406.20865,71.744098 h 57.82678 v 24.7874 h -57.82678 z"
     fill-rule="evenodd"
     id="path105" />
  <path
     stroke="#000000"
     stroke-width="1"
     stroke-linejoin="round"
     stroke-linecap="butt"
     d="m 406.20865,71.744098 h 57.82678 v 24.7874 h -57.82678 z"
     fill-rule="evenodd"
     id="path107" />
  <path
     fill="#f4cccc"
     d="m 406.20865,107.88321 h 57.82678 v 24.7874 h -57.82678 z"
     fill-rule="evenodd"
     id="path109" />
  <path
     stroke="#000000"
     stroke-width="1"
     stroke-linejoin="round"
     stroke-linecap="butt"
     d="m 406.20865,107.88321 h 57.82678 v 24.7874 h -57.82678 z"
     fill-rule="evenodd"
     id="path111" />
  <path
     fill="#000000"
     fill-opacity="0"
     d="M 406.20865,120.2769 V 313.8517"
     fill-rule="evenodd"
     id="path113" />
  <path
     stroke="#000000"
     stroke-width="1"
     stroke-linejoin="round"
     stroke-linecap="butt"
     d="M 406.20865,120.2769 V 307.8517"
     fill-rule="evenodd"
     id="path115" />
  <path
     fill="#000000"
     stroke="#000000"
     stroke-width="1"
     stroke-linecap="butt"
     d="m 404.55693,307.8517 1.65173,4.53812 1.65174,-4.53812 z"
     fill-rule="evenodd"
     id="path117" />
  <path
     fill="#000000"
     fill-opacity="0"
     d="M 406.20865,167.24278 V 313.85695 H 365.9567 V 167.24278 Z"
     fill-rule="evenodd"
     id="path119" />
  <path
     fill="#000000"
     d="m 384.33303,225.92877 0.21875,1.39062 q -0.84375,0.10938 -1.29688,0.64063 -0.4375,0.54687 -0.4375,1.5 0,0.96875 0.39063,1.4375 0.40625,0.46875 0.9375,0.46875 0.46875,0 0.75,-0.40625 0.1875,-0.29688 0.46875,-1.4375 0.39062,-1.54688 0.67187,-2.15625 0.29688,-0.59375 0.79688,-0.90625 0.5,-0.29688 1.10937,-0.29688 0.5625,0 1.03125,0.25 0.46875,0.25 0.78125,0.6875 0.25,0.32813 0.40625,0.89063 0.17188,0.57812 0.17188,1.21875 0,0.98437 -0.28125,1.71875 -0.28125,0.73437 -0.76563,1.07812 -0.46875,0.35938 -1.28125,0.5 l -0.1875,-1.375 q 0.64063,-0.0937 1,-0.54687 0.35938,-0.45313 0.35938,-1.26563 0,-0.96875 -0.32813,-1.39062 -0.3125,-0.40625 -0.73437,-0.40625 -0.28125,0 -0.5,0.17187 -0.21875,0.17188 -0.375,0.53125 -0.0781,0.21875 -0.35938,1.25 -0.39062,1.48438 -0.65625,2.07813 -0.25,0.59375 -0.73437,0.92187 -0.48438,0.34374 -1.20313,0.34374 -0.70312,0 -1.32812,-0.42186 -0.60938,-0.40625 -0.95313,-1.1875 -0.34375,-0.76563 -0.34375,-1.73438 0,-1.625 0.67188,-2.46875 0.67187,-0.84375 2,-1.07812 z m -1.21875,11.62498 -1.25,0.20313 q -0.125,-0.59375 -0.125,-1.0625 0,-0.76563 0.23437,-1.1875 0.25,-0.42188 0.64063,-0.59375 0.40625,-0.17188 1.67187,-0.17188 h 4.76563 V 233.71 h 1.09375 v 1.03125 h 2.0625 l 0.84375,1.40625 h -2.90625 v 1.40625 h -1.09375 v -1.40625 h -4.84375 q -0.60938,0 -0.78125,0.0625 -0.17188,0.0781 -0.28125,0.25 -0.0937,0.17188 -0.0937,0.48438 0,0.23437 0.0625,0.60937 z m 2.89062,0.85157 q 2.29688,0 3.40625,1.28125 0.92188,1.07812 0.92188,2.60937 0,1.71875 -1.125,2.79688 -1.10938,1.09375 -3.09375,1.09375 -1.59375,0 -2.51563,-0.48438 -0.92187,-0.48437 -1.4375,-1.40625 -0.5,-0.90625 -0.5,-2 0,-1.73437 1.10938,-2.8125 1.125,-1.07812 3.23437,-1.07812 z m 0,1.45312 q -1.59375,0 -2.39062,0.6875 -0.79688,0.70313 -0.79688,1.75 0,1.04688 0.79688,1.73438 0.79687,0.70312 2.4375,0.70312 1.53125,0 2.32812,-0.70312 0.79688,-0.6875 0.79688,-1.73438 0,-1.04687 -0.79688,-1.75 -0.78125,-0.6875 -2.375,-0.6875 z m -7.34375,7.97656 h 11.48438 v 1.28125 h -1.07813 q 0.64063,0.45313 0.95313,1.01563 0.3125,0.57812 0.3125,1.39062 0,1.0625 -0.54688,1.875 -0.54687,0.8125 -1.54687,1.21875 -0.98438,0.42188 -2.17188,0.42188 -1.28125,0 -2.29687,-0.46875 -1.01563,-0.45313 -1.5625,-1.32813 -0.54688,-0.85937 -0.54688,-1.82812 0,-0.70313 0.29688,-1.26563 0.29687,-0.54687 0.75,-0.90625 h -4.04688 z m 7.29688,1.26563 q -1.60938,0 -2.375,0.64062 -0.76563,0.65625 -0.76563,1.57813 0,0.9375 0.79688,1.60937 0.79687,0.67188 2.45312,0.67188 1.59375,0 2.375,-0.65625 0.79688,-0.65625 0.79688,-1.5625 0,-0.89063 -0.84375,-1.59375 -0.84375,-0.6875 -2.4375,-0.6875 z"
     fill-rule="nonzero"
     id="path121" />
  <path
     fill="#000000"
     fill-opacity="0"
     d="m 464.35041,134.89371 -0.31497,179.2126"
     fill-rule="evenodd"
     id="path123" />
  <path
     stroke="#000000"
     stroke-width="1"
     stroke-linejoin="round"
     stroke-linecap="butt"
     d="m 464.33985,140.89369 -0.30441,173.21262"
     fill-rule="evenodd"
     id="path125" />
  <path
     fill="#000000"
     stroke="#000000"
     stroke-width="1"
     stroke-linecap="butt"
     d="m 465.99158,140.89659 -1.64374,-4.54099 -1.65973,4.53519 z"
     fill-rule="evenodd"
     id="path127" />
  <path
     fill="#000000"
     fill-opacity="0"
     d="m 464.03543,314.89107 v -148.6929 h 40.25198 v 148.6929 z"
     fill-rule="evenodd"
     id="path129" />
  <path
     fill="#000000"
     d="m 488.39543,266.17354 h -8.29688 v -1.26563 h 1.25 q -0.875,-0.48437 -1.15625,-0.89062 -0.28125,-0.40625 -0.28125,-0.90625 0,-0.70313 0.45313,-1.4375 l 1.29687,0.48437 q -0.29687,0.51563 -0.29687,1.03125 0,0.45313 0.28125,0.82813 0.26562,0.35937 0.76562,0.51562 0.75,0.23438 1.64063,0.23438 h 4.34375 z m -2.67188,-11.01563 0.17188,-1.45312 q 1.28125,0.34375 1.98437,1.28125 0.70313,0.92187 0.70313,2.35937 0,1.82813 -1.125,2.89063 -1.125,1.0625 -3.14063,1.0625 -2.09375,0 -3.25,-1.07813 -1.15625,-1.07812 -1.15625,-2.79687 0,-1.65625 1.14063,-2.70313 1.125,-1.0625 3.17187,-1.0625 0.125,0 0.375,0 v 6.1875 q 1.375,-0.0781 2.10938,-0.76562 0.71875,-0.70313 0.71875,-1.73438 0,-0.78125 -0.40625,-1.32812 -0.40625,-0.54688 -1.29688,-0.85938 z m -2.28125,4.60938 v -4.625 q -1.04687,0.0937 -1.5625,0.53125 -0.8125,0.67187 -0.8125,1.73437 0,0.96875 0.65625,1.64063 0.64063,0.65625 1.71875,0.71875 z m 2.46875,-7.27344 -0.21875,-1.39062 q 0.84375,-0.10938 1.29688,-0.64063 0.4375,-0.54687 0.4375,-1.5 0,-0.96875 -0.39063,-1.4375 -0.40625,-0.46875 -0.9375,-0.46875 -0.46875,0 -0.75,0.40625 -0.1875,0.29688 -0.46875,1.4375 -0.39062,1.54688 -0.67187,2.15625 -0.29688,0.59375 -0.79688,0.90625 -0.5,0.29688 -1.10937,0.29688 -0.5625,0 -1.03125,-0.25 -0.46875,-0.25 -0.78125,-0.6875 -0.25,-0.32813 -0.40625,-0.89063 -0.17188,-0.57812 -0.17188,-1.21875 0,-0.98437 0.28125,-1.71875 0.28125,-0.73437 0.76563,-1.07812 0.46875,-0.35938 1.28125,-0.5 l 0.1875,1.375 q -0.64063,0.0937 -1,0.54687 -0.35938,0.45313 -0.35938,1.26563 0,0.96875 0.32813,1.39062 0.3125,0.40625 0.73437,0.40625 0.28125,0 0.5,-0.17187 0.21875,-0.17188 0.375,-0.53125 0.0781,-0.21875 0.35938,-1.25 0.39062,-1.48438 0.65625,-2.07813 0.25,-0.59375 0.73437,-0.92187 0.48438,-0.34375 1.20313,-0.34375 0.70312,0 1.32812,0.42187 0.60938,0.40625 0.95313,1.1875 0.34375,0.76563 0.34375,1.73438 0,1.625 -0.67188,2.46875 -0.67187,0.84375 -2,1.07812 z m 2.48438,-14 h -1.21875 q 1.40625,0.96875 1.40625,2.64063 0,0.73437 -0.28125,1.375 -0.28125,0.625 -0.70313,0.9375 -0.4375,0.3125 -1.04687,0.4375 -0.42188,0.0781 -1.3125,0.0781 h -5.14063 v -1.40625 h 4.59375 q 1.10938,0 1.48438,-0.0781 0.5625,-0.14063 0.875,-0.5625 0.3125,-0.4375 0.3125,-1.0625 0,-0.64063 -0.3125,-1.1875 -0.32813,-0.5625 -0.89063,-0.78125 -0.5625,-0.23438 -1.625,-0.23438 h -4.4375 v -1.40625 h 8.29688 z m 0,-3.46094 h -8.29688 v -1.25 h 1.15625 q -0.60937,-0.39062 -0.96875,-1.03126 -0.375,-0.65625 -0.375,-1.48438 0,-0.92187 0.39063,-1.51562 0.375,-0.59375 1.0625,-0.82813 -1.45313,-0.98437 -1.45313,-2.5625 0,-1.23437 0.6875,-1.89062 0.67188,-0.67188 2.09375,-0.67188 h 5.70313 v 1.39063 h -5.23438 q -0.84375,0 -1.20312,0.14062 -0.375,0.14063 -0.59375,0.5 -0.23438,0.35938 -0.23438,0.84375 0,0.875 0.57813,1.45313 0.57812,0.57812 1.85937,0.57812 h 4.82813 v 1.40625 h -5.39063 q -0.9375,0 -1.40625,0.34375 -0.46875,0.34375 -0.46875,1.125 0,0.59375 0.3125,1.09375 0.3125,0.50002 0.92188,0.73439 0.59375,0.21875 1.71875,0.21875 h 4.3125 z m -2.67188,-19.00001 0.17188,-1.45313 q 1.28125,0.34375 1.98437,1.28125 0.70313,0.92188 0.70313,2.35938 0,1.82812 -1.125,2.89062 -1.125,1.0625 -3.14063,1.0625 -2.09375,0 -3.25,-1.07812 -1.15625,-1.07813 -1.15625,-2.79688 0,-1.65625 1.14063,-2.70312 1.125,-1.0625 3.17187,-1.0625 0.125,0 0.375,0 v 6.1875 q 1.375,-0.0781 2.10938,-0.76563 0.71875,-0.70312 0.71875,-1.73437 0,-0.78125 -0.40625,-1.32813 -0.40625,-0.54687 -1.29688,-0.85937 z m -2.28125,4.60937 v -4.625 q -1.04687,0.0937 -1.5625,0.53125 -0.8125,0.67188 -0.8125,1.73438 0,0.96875 0.65625,1.64062 0.64063,0.65625 1.71875,0.71875 z"
     fill-rule="nonzero"
     id="path131" />
</svg>
