<?xml version="1.0" encoding="UTF-8" standalone="no"?>
<svg
   xmlns:dc="http://purl.org/dc/elements/1.1/"
   xmlns:cc="http://creativecommons.org/ns#"
   xmlns:rdf="http://www.w3.org/1999/02/22-rdf-syntax-ns#"
   xmlns:svg="http://www.w3.org/2000/svg"
   xmlns="http://www.w3.org/2000/svg"
   xmlns:sodipodi="http://sodipodi.sourceforge.net/DTD/sodipodi-0.dtd"
   xmlns:inkscape="http://www.inkscape.org/namespaces/inkscape"
   version="1.1"
   viewBox="0 0 1005.9396 410.02069"
   fill="none"
   stroke="none"
   stroke-linecap="square"
   stroke-miterlimit="10"
   id="svg169"
   sodipodi:docname="bufferbloat.svg"
   width="1005.9396"
   height="410.02069"
   inkscape:version="1.0.1 (3bc2e813f5, 2020-09-07)">
  <metadata
     id="metadata175">
    <rdf:RDF>
      <cc:Work
         rdf:about="">
        <dc:format>image/svg+xml</dc:format>
        <dc:type
           rdf:resource="http://purl.org/dc/dcmitype/StillImage" />
      </cc:Work>
    </rdf:RDF>
  </metadata>
  <defs
     id="defs173" />
  <sodipodi:namedview
     pagecolor="#ffffff"
     bordercolor="#666666"
     borderopacity="1"
     objecttolerance="10"
     gridtolerance="10"
     guidetolerance="10"
     inkscape:pageopacity="0"
     inkscape:pageshadow="2"
     inkscape:window-width="1759"
     inkscape:window-height="883"
     id="namedview171"
     showgrid="false"
     inkscape:zoom="0.75130208"
     inkscape:cx="244.61874"
     inkscape:cy="285.30315"
     inkscape:window-x="3286"
     inkscape:window-y="19"
     inkscape:window-maximized="0"
     inkscape:current-layer="svg169" />
  <clipPath
     id="p.0">
    <path
       d="M 0,0 H 1024 V 768 H 0 Z"
       clip-rule="nonzero"
       id="path2" />
  </clipPath>
  <path
     fill="#000000"
     fill-opacity="0"
     d="M -8.4973755,-98.696849 H 1015.5026 V 669.30315 H -8.4973755 Z"
     fill-rule="evenodd"
     id="path5" />
  <path
     fill="#9fc5e8"
     d="m 250.22964,29.948471 v 0 c 0,16.26395 95.45856,29.44847 213.21262,29.44847 117.75409,0 213.21259,-13.18452 213.21259,-29.44847 V 372.9413 c 0,16.26392 -95.4585,29.44846 -213.21259,29.44846 -117.75406,0 -213.21262,-13.18454 -213.21262,-29.44846 z"
     fill-rule="evenodd"
     id="path7" />
  <path
     fill="#c5dcf1"
     d="m 250.22964,29.948471 v 0 C 250.22964,13.684521 345.6882,0.5 463.44226,0.5 c 117.75409,0 213.21259,13.184521 213.21259,29.448471 v 0 c 0,16.26395 -95.4585,29.44847 -213.21259,29.44847 -117.75406,0 -213.21262,-13.18452 -213.21262,-29.44847 z"
     fill-rule="evenodd"
     id="path9" />
  <path
     fill="#000000"
     fill-opacity="0"
     d="m 676.65482,29.948471 v 0 c 0,16.26395 -95.4585,29.44847 -213.21259,29.44847 -117.75406,0 -213.21262,-13.18452 -213.21262,-29.44847 v 0 C 250.22961,13.684521 345.68817,0.5 463.44223,0.5 581.19632,0.5 676.65482,13.684521 676.65482,29.948471 V 372.9413 c 0,16.26392 -95.4585,29.44846 -213.21259,29.44846 -117.75406,0 -213.21262,-13.18454 -213.21262,-29.44846 V 29.948471"
     fill-rule="evenodd"
     id="path11" />
  <path
     stroke="#000000"
     stroke-width="1"
     stroke-linejoin="round"
     stroke-linecap="butt"
     d="m 676.65482,29.948471 v 0 c 0,16.26395 -95.4585,29.44847 -213.21259,29.44847 -117.75406,0 -213.21262,-13.18452 -213.21262,-29.44847 v 0 C 250.22961,13.684521 345.68817,0.5 463.44223,0.5 581.19632,0.5 676.65482,13.684521 676.65482,29.948471 V 372.9413 c 0,16.26392 -95.4585,29.44846 -213.21259,29.44846 -117.75406,0 -213.21262,-13.18454 -213.21262,-29.44846 V 29.948471"
     fill-rule="evenodd"
     id="path13" />
  <path
     fill="#76a5af"
     d="m 867.44352,341.03805 v 0 c -0.81104,0 -1.46851,2.62991 -1.46851,5.87402 0,3.24414 0.65747,5.87403 1.46851,5.87403 H 660.23881 c -0.81104,0 -1.46851,-2.62989 -1.46851,-5.87403 0,-3.24411 0.65747,-5.87402 1.46851,-5.87402 z"
     fill-rule="evenodd"
     id="path15" />
  <path
     fill="#acc9cf"
     d="m 867.44352,341.03805 v 0 c 0.81104,0 1.46851,2.62991 1.46851,5.87402 0,3.24414 -0.65747,5.87403 -1.46851,5.87403 v 0 c -0.81104,0 -1.46851,-2.62989 -1.46851,-5.87403 0,-3.24411 0.65747,-5.87402 1.46851,-5.87402 z"
     fill-rule="evenodd"
     id="path17" />
  <path
     fill="#000000"
     fill-opacity="0"
     d="m 867.44352,352.78609 v 0 c -0.81104,0 -1.46851,-2.62988 -1.46851,-5.87402 0,-3.24411 0.65747,-5.87403 1.46851,-5.87403 v 0 c 0.81104,0 1.46851,2.62992 1.46851,5.87403 0,3.24414 -0.65747,5.87402 -1.46851,5.87402 H 660.23881 c -0.81104,0 -1.46851,-2.62988 -1.46851,-5.87402 0,-3.24411 0.65747,-5.87403 1.46851,-5.87403 h 207.20471"
     fill-rule="evenodd"
     id="path19" />
  <path
     stroke="#000000"
     stroke-width="1"
     stroke-linejoin="round"
     stroke-linecap="butt"
     d="m 867.44352,352.78609 v 0 c -0.81104,0 -1.46851,-2.62988 -1.46851,-5.87402 0,-3.24411 0.65747,-5.87403 1.46851,-5.87403 v 0 c 0.81104,0 1.46851,2.62992 1.46851,5.87403 0,3.24414 -0.65747,5.87402 -1.46851,5.87402 H 660.23881 c -0.81104,0 -1.46851,-2.62988 -1.46851,-5.87402 0,-3.24411 0.65747,-5.87403 1.46851,-5.87403 h 207.20471"
     fill-rule="evenodd"
     id="path21" />
  <path
     fill="#ff9900"
     d="m 166.44751,203.06432 v 0 c 9.91937,0 17.96063,-32.16501 17.96063,-71.84253 0,-39.677539 -8.04126,-71.842529 -17.96063,-71.842529 H 297.2034 c 9.9194,0 17.96063,32.16499 17.96063,71.842529 0,39.67752 -8.04123,71.84253 -17.96063,71.84253 z"
     fill-rule="evenodd"
     id="path23" />
  <path
     fill="#ffc166"
     d="m 166.44751,203.06432 v 0 c -9.91939,0 -17.96063,-32.16501 -17.96063,-71.84253 0,-39.677539 8.04124,-71.842529 17.96063,-71.842529 v 0 c 9.91937,0 17.96063,32.16499 17.96063,71.842529 0,39.67752 -8.04126,71.84253 -17.96063,71.84253 z"
     fill-rule="evenodd"
     id="path25" />
  <path
     fill="#000000"
     fill-opacity="0"
     d="m 166.44751,59.379261 v 0 c 9.91937,0 17.96063,32.16499 17.96063,71.842529 0,39.67752 -8.04126,71.84253 -17.96063,71.84253 v 0 c -9.91939,0 -17.96063,-32.16501 -17.96063,-71.84253 0,-39.677539 8.04124,-71.842529 17.96063,-71.842529 H 297.2034 c 9.9194,0 17.96063,32.16499 17.96063,71.842529 0,39.67752 -8.04123,71.84253 -17.96063,71.84253 H 166.44751"
     fill-rule="evenodd"
     id="path27" />
  <path
     stroke="#000000"
     stroke-width="1"
     stroke-linejoin="round"
     stroke-linecap="butt"
     d="m 166.44751,59.379261 v 0 c 9.91937,0 17.96063,32.16499 17.96063,71.842529 0,39.67752 -8.04126,71.84253 -17.96063,71.84253 v 0 c -9.91939,0 -17.96063,-32.16501 -17.96063,-71.84253 0,-39.677539 8.04124,-71.842529 17.96063,-71.842529 H 297.2034 c 9.9194,0 17.96063,32.16499 17.96063,71.842529 0,39.67752 -8.04123,71.84253 -17.96063,71.84253 H 166.44751"
     fill-rule="evenodd"
     id="path29" />
  <path
     fill="#fff2cc"
     d="M 0.5,92.702111 H 5.3149605 V 169.74148 H 0.5 Z m 9.629921,0 h 9.62992 v 77.039369 h -9.62992 z m 14.444881,0 H 97.507874 V 54.182431 L 174.54724,131.2218 97.507874,208.26117 V 169.74148 H 24.574802 Z"
     fill-rule="evenodd"
     id="path31" />
  <path
     stroke="#000000"
     stroke-width="1"
     stroke-linejoin="round"
     stroke-linecap="butt"
     d="M 0.5,92.702111 H 5.3149605 V 169.74148 H 0.5 Z m 9.629921,0 h 9.62992 v 77.039369 h -9.62992 z m 14.444881,0 H 97.507874 V 54.182431 L 174.54724,131.2218 97.507874,208.26117 V 169.74148 H 24.574802 Z"
     fill-rule="evenodd"
     id="path33" />
  <path
     fill="#000000"
     d="m 34.637303,108.23804 v -1.60938 h 1.40625 v 1.60938 z m 0,9.84375 v -8.29688 h 1.40625 v 8.29688 z m 3.554687,0 v -8.29688 h 1.265625 v 1.17188 q 0.90625,-1.35938 2.640625,-1.35938 0.75,0 1.375,0.26563 0.625,0.26562 0.9375,0.70312 0.3125,0.4375 0.4375,1.04688 0.07813,0.39062 0.07813,1.35937 v 5.10938 h -1.40625 v -5.04688 q 0,-0.85937 -0.171875,-1.28125 -0.15625,-0.4375 -0.578125,-0.6875 -0.40625,-0.25 -0.96875,-0.25 -0.90625,0 -1.5625,0.57813 -0.640625,0.5625 -0.640625,2.15625 v 4.53125 z m 8.898438,3.1875 v -11.48438 h 1.28125 v 1.07813 q 0.453125,-0.64063 1.015625,-0.95313 0.578125,-0.3125 1.390625,-0.3125 1.0625,0 1.875,0.54688 0.8125,0.54687 1.21875,1.54687 0.421875,0.98438 0.421875,2.17188 0,1.28125 -0.46875,2.29687 -0.453125,1.01563 -1.328125,1.5625 -0.859375,0.54688 -1.828125,0.54688 -0.703125,0 -1.265625,-0.29688 -0.546875,-0.29687 -0.90625,-0.75 v 4.04688 z m 1.265625,-7.29688 q 0,1.60938 0.640625,2.375 0.65625,0.76563 1.578125,0.76563 0.9375,0 1.609375,-0.79688 0.671875,-0.79687 0.671875,-2.45312 0,-1.59375 -0.65625,-2.375 -0.65625,-0.79688 -1.5625,-0.79688 -0.890625,0 -1.59375,0.84375 -0.6875,0.84375 -0.6875,2.4375 z m 13.070315,4.10938 v -1.21875 q -0.96875,1.40625 -2.640625,1.40625 -0.734375,0 -1.375,-0.28125 -0.625,-0.28125 -0.9375,-0.70313 -0.3125,-0.4375 -0.4375,-1.04687 -0.07813,-0.42188 -0.07813,-1.3125 v -5.14063 h 1.40625 v 4.59375 q 0,1.10938 0.07813,1.48438 0.140625,0.5625 0.5625,0.875 0.4375,0.3125 1.0625,0.3125 0.640625,0 1.1875,-0.3125 0.5625,-0.32813 0.78125,-0.89063 0.234375,-0.5625 0.234375,-1.625 v -4.4375 h 1.40625 v 8.29688 z m 6.523437,-1.26563 0.203125,1.25 q -0.59375,0.125 -1.0625,0.125 -0.765625,0 -1.1875,-0.23437 -0.421875,-0.25 -0.59375,-0.64063 -0.171875,-0.40625 -0.171875,-1.67187 v -4.76563 h -1.03125 v -1.09375 h 1.03125 v -2.0625 l 1.40625,-0.84375 v 2.90625 h 1.40625 v 1.09375 h -1.40625 v 4.84375 q 0,0.60938 0.0625,0.78125 0.07813,0.17188 0.25,0.28125 0.171875,0.0937 0.484375,0.0937 0.234375,0 0.609375,-0.0625 z"
     fill-rule="nonzero"
     id="path35" />
  <path
     fill="#000000"
     d="m 34.965428,137.08179 v -7.20313 h -1.234375 v -1.09375 h 1.234375 v -0.89062 q 0,-0.82813 0.15625,-1.23438 0.203125,-0.54687 0.703125,-0.89062 0.515625,-0.34375 1.4375,-0.34375 0.59375,0 1.3125,0.14062 l -0.203125,1.23438 q -0.4375,-0.0781 -0.828125,-0.0781 -0.640625,0 -0.90625,0.28125 -0.265625,0.26563 -0.265625,1.01563 v 0.76562 h 1.609375 v 1.09375 h -1.609375 v 7.20313 z m 4.101562,0 v -8.29688 h 1.265625 v 1.25 q 0.484375,-0.875 0.890625,-1.15625 0.40625,-0.28125 0.90625,-0.28125 0.703125,0 1.4375,0.45313 l -0.484375,1.29687 q -0.515625,-0.29687 -1.03125,-0.29687 -0.453125,0 -0.828125,0.28125 -0.359375,0.26562 -0.515625,0.76562 -0.234375,0.75 -0.234375,1.64063 v 4.34375 z m 4.8125,-4.15625 q 0,-2.29688 1.28125,-3.40625 1.078125,-0.92188 2.609375,-0.92188 1.71875,0 2.796875,1.125 1.09375,1.10938 1.09375,3.09375 0,1.59375 -0.484375,2.51563 -0.484375,0.92187 -1.40625,1.4375 -0.90625,0.5 -2,0.5 -1.734375,0 -2.8125,-1.10938 -1.078125,-1.125 -1.078125,-3.23437 z m 1.453125,0 q 0,1.59375 0.6875,2.39062 0.703125,0.79688 1.75,0.79688 1.046875,0 1.734375,-0.79688 0.703125,-0.79687 0.703125,-2.4375 0,-1.53125 -0.703125,-2.32812 -0.6875,-0.79688 -1.734375,-0.79688 -1.046875,0 -1.75,0.79688 -0.6875,0.78125 -0.6875,2.375 z m 7.976563,4.15625 v -8.29688 h 1.25 v 1.15625 q 0.390625,-0.60937 1.031253,-0.96875 0.65625,-0.375 1.484375,-0.375 0.921875,0 1.515625,0.39063 0.59375,0.375 0.828125,1.0625 0.984375,-1.45313 2.5625,-1.45313 1.234375,0 1.890625,0.6875 0.671875,0.67188 0.671875,2.09375 v 5.70313 h -1.390625 v -5.23438 q 0,-0.84375 -0.140625,-1.20312 -0.140625,-0.375 -0.5,-0.59375 -0.359375,-0.23438 -0.84375,-0.23438 -0.875,0 -1.453125,0.57813 -0.578125,0.57812 -0.578125,1.85937 v 4.82813 h -1.40625 v -5.39063 q 0,-0.9375 -0.34375,-1.40625 -0.34375,-0.46875 -1.125,-0.46875 -0.59375,0 -1.09375,0.3125 -0.500003,0.3125 -0.734378,0.92188 -0.21875,0.59375 -0.21875,1.71875 v 4.3125 z m 17.77344,0 v -8.29688 h 1.25 v 1.15625 q 0.390625,-0.60937 1.03125,-0.96875 0.65625,-0.375 1.484375,-0.375 0.921875,0 1.515625,0.39063 0.59375,0.375 0.828125,1.0625 0.984375,-1.45313 2.5625,-1.45313 1.234375,0 1.890625,0.6875 0.671875,0.67188 0.671875,2.09375 v 5.70313 h -1.390625 v -5.23438 q 0,-0.84375 -0.140625,-1.20312 -0.140625,-0.375 -0.5,-0.59375 -0.359375,-0.23438 -0.84375,-0.23438 -0.875,0 -1.453125,0.57813 -0.578125,0.57812 -0.578125,1.85937 v 4.82813 h -1.40625 v -5.39063 q 0,-0.9375 -0.34375,-1.40625 -0.34375,-0.46875 -1.125,-0.46875 -0.59375,0 -1.09375,0.3125 -0.5,0.3125 -0.734375,0.92188 -0.21875,0.59375 -0.21875,1.71875 v 4.3125 z m 18.765625,0 v -1.21875 q -0.96875,1.40625 -2.640625,1.40625 -0.734375,0 -1.375,-0.28125 -0.625,-0.28125 -0.9375,-0.70313 -0.3125,-0.4375 -0.4375,-1.04687 -0.07813,-0.42188 -0.07813,-1.3125 v -5.14063 h 1.40625 v 4.59375 q 0,1.10938 0.07813,1.48438 0.140625,0.5625 0.5625,0.875 0.4375,0.3125 1.0625,0.3125 0.640625,0 1.1875,-0.3125 0.5625,-0.32813 0.78125,-0.89063 0.234375,-0.5625 0.234375,-1.625 v -4.4375 h 1.40625 v 8.29688 z m 3.429691,0 v -11.45313 h 1.40625 v 11.45313 z m 6.648431,-1.26563 0.203125,1.25 q -0.593745,0.125 -1.062495,0.125 -0.76563,0 -1.1875,-0.23437 -0.42188,-0.25 -0.59375,-0.64063 -0.17188,-0.40625 -0.17188,-1.67187 v -4.76563 h -1.03125 v -1.09375 h 1.03125 v -2.0625 l 1.40625,-0.84375 v 2.90625 h 1.40625 v 1.09375 h -1.40625 v 4.84375 q 0,0.60938 0.0625,0.78125 0.0781,0.17188 0.25,0.28125 0.17188,0.0937 0.48438,0.0937 0.23437,0 0.60937,-0.0625 z m 1.382815,-8.57812 v -1.60938 h 1.40625 v 1.60938 z m 0,9.84375 v -8.29688 h 1.40625 v 8.29688 z m 3.55468,3.1875 v -11.48438 h 1.28125 v 1.07813 q 0.45313,-0.64063 1.01563,-0.95313 0.57812,-0.3125 1.39062,-0.3125 1.0625,0 1.875,0.54688 0.8125,0.54687 1.21875,1.54687 0.42188,0.98438 0.42188,2.17188 0,1.28125 -0.46875,2.29687 -0.45313,1.01563 -1.32813,1.5625 -0.85937,0.54688 -1.82812,0.54688 -0.70313,0 -1.26563,-0.29688 -0.54687,-0.29687 -0.90625,-0.75 v 4.04688 z m 1.26563,-7.29688 q 0,1.60938 0.64062,2.375 0.65625,0.76563 1.57813,0.76563 0.9375,0 1.60937,-0.79688 0.67188,-0.79687 0.67188,-2.45312 0,-1.59375 -0.65625,-2.375 -0.65625,-0.79688 -1.5625,-0.79688 -0.89063,0 -1.59375,0.84375 -0.6875,0.84375 -0.6875,2.4375 z m 7.60156,4.10938 v -11.45313 h 1.40625 v 11.45313 z m 9.25781,-2.67188 1.45312,0.17188 q -0.34375,1.28125 -1.28125,1.98437 -0.92187,0.70313 -2.35937,0.70313 -1.82812,0 -2.89062,-1.125 -1.0625,-1.125 -1.0625,-3.14063 0,-2.09375 1.07812,-3.25 1.07813,-1.15625 2.79687,-1.15625 1.65625,0 2.70313,1.14063 1.0625,1.125 1.0625,3.17187 0,0.125 0,0.375 h -6.1875 q 0.0781,1.375 0.76563,2.10938 0.70312,0.71875 1.73437,0.71875 0.78125,0 1.32812,-0.40625 0.54688,-0.40625 0.85938,-1.29688 z m -4.60937,-2.28125 h 4.62499 q -0.0937,-1.04687 -0.53125,-1.5625 -0.67187,-0.8125 -1.73437,-0.8125 -0.96875,0 -1.64062,0.65625 -0.65625,0.64063 -0.71875,1.71875 z"
     fill-rule="nonzero"
     id="path37" />
  <path
     fill="#000000"
     d="m 34.074803,153.59742 1.390625,-0.21875 q 0.109375,0.84375 0.640625,1.29687 0.546875,0.4375 1.5,0.4375 0.96875,0 1.4375,-0.39062 0.46875,-0.40625 0.46875,-0.9375 0,-0.46875 -0.40625,-0.75 -0.296875,-0.1875 -1.4375,-0.46875 -1.546875,-0.39063 -2.15625,-0.67188 -0.59375,-0.29687 -0.90625,-0.79687 -0.296875,-0.5 -0.296875,-1.10938 0,-0.5625 0.25,-1.03125 0.25,-0.46875 0.6875,-0.78125 0.328125,-0.25 0.890625,-0.40625 0.578125,-0.17187 1.21875,-0.17187 0.984375,0 1.71875,0.28125 0.734375,0.28125 1.078125,0.76562 0.359375,0.46875 0.5,1.28125 l -1.375,0.1875 q -0.09375,-0.64062 -0.546875,-1 -0.453125,-0.35937 -1.265625,-0.35937 -0.96875,0 -1.390625,0.32812 -0.40625,0.3125 -0.40625,0.73438 0,0.28125 0.171875,0.5 0.171875,0.21875 0.53125,0.375 0.21875,0.0781 1.25,0.35937 1.484375,0.39063 2.078125,0.65625 0.59375,0.25 0.921875,0.73438 0.34375,0.48437 0.34375,1.20312 0,0.70313 -0.421875,1.32813 -0.40625,0.60937 -1.1875,0.95312 -0.765625,0.34375 -1.734375,0.34375 -1.625,0 -2.46875,-0.67187 -0.84375,-0.67188 -1.078125,-2 z m 8.03125,-1.67188 q 0,-2.29687 1.28125,-3.40625 1.078125,-0.92187 2.609375,-0.92187 1.71875,0 2.796875,1.125 1.09375,1.10937 1.09375,3.09375 0,1.59375 -0.484375,2.51562 -0.484375,0.92188 -1.40625,1.4375 -0.90625,0.5 -2,0.5 -1.734375,0 -2.8125,-1.10937 -1.078125,-1.125 -1.078125,-3.23438 z m 1.453125,0 q 0,1.59375 0.6875,2.39063 0.703125,0.79687 1.75,0.79687 1.046875,0 1.734375,-0.79687 0.703125,-0.79688 0.703125,-2.4375 0,-1.53125 -0.703125,-2.32813 -0.6875,-0.79687 -1.734375,-0.79687 -1.046875,0 -1.75,0.79687 -0.6875,0.78125 -0.6875,2.375 z m 13.414065,4.15625 v -1.21875 q -0.96875,1.40625 -2.640628,1.40625 -0.734375,0 -1.375,-0.28125 -0.625,-0.28125 -0.9375,-0.70312 -0.3125,-0.4375 -0.4375,-1.04688 -0.07813,-0.42187 -0.07813,-1.3125 v -5.14062 h 1.40625 v 4.59375 q 0,1.10937 0.07813,1.48437 0.140625,0.5625 0.5625,0.875 0.4375,0.3125 1.0625,0.3125 0.640625,0 1.187503,-0.3125 0.5625,-0.32812 0.78125,-0.89062 0.234375,-0.5625 0.234375,-1.625 v -4.4375 h 1.40625 v 8.29687 z m 3.445312,0 v -8.29687 h 1.265625 v 1.25 q 0.484375,-0.875 0.890625,-1.15625 0.40625,-0.28125 0.90625,-0.28125 0.703125,0 1.4375,0.45312 l -0.484375,1.29688 q -0.515625,-0.29688 -1.03125,-0.29688 -0.453125,0 -0.828125,0.28125 -0.359375,0.26563 -0.515625,0.76563 -0.234375,0.75 -0.234375,1.64062 v 4.34375 z m 10.75,-3.04687 1.390625,0.1875 q -0.234375,1.42187 -1.171875,2.23437 -0.921875,0.8125 -2.28125,0.8125 -1.703125,0 -2.75,-1.10937 -1.03125,-1.125 -1.03125,-3.20313 0,-1.34375 0.4375,-2.34375 0.453125,-1.01562 1.359375,-1.51562 0.921875,-0.5 1.984375,-0.5 1.359375,0 2.21875,0.6875 0.859375,0.67187 1.09375,1.9375 l -1.359375,0.20312 q -0.203125,-0.82812 -0.703125,-1.25 -0.484375,-0.42187 -1.1875,-0.42187 -1.0625,0 -1.734375,0.76562 -0.65625,0.75 -0.65625,2.40625 0,1.67188 0.640625,2.4375 0.640625,0.75 1.671875,0.75 0.828125,0 1.375,-0.5 0.5625,-0.51562 0.703125,-1.57812 z m 8.265625,0.375 1.453125,0.17187 q -0.34375,1.28125 -1.28125,1.98438 -0.921875,0.70312 -2.359375,0.70312 -1.828125,0 -2.890625,-1.125 -1.0625,-1.125 -1.0625,-3.14062 0,-2.09375 1.078125,-3.25 1.078125,-1.15625 2.796875,-1.15625 1.65625,0 2.703125,1.14062 1.0625,1.125 1.0625,3.17188 0,0.125 0,0.375 h -6.1875 q 0.07813,1.375 0.765625,2.10937 0.703125,0.71875 1.734375,0.71875 0.78125,0 1.328125,-0.40625 0.546875,-0.40625 0.859375,-1.29687 z m -4.609375,-2.28125 h 4.625 q -0.09375,-1.04688 -0.53125,-1.5625 -0.671875,-0.8125 -1.734375,-0.8125 -0.96875,0 -1.640625,0.65625 -0.65625,0.64062 -0.71875,1.71875 z m 7.273438,2.46875 1.390625,-0.21875 q 0.109375,0.84375 0.640625,1.29687 0.546875,0.4375 1.5,0.4375 0.96875,0 1.4375,-0.39062 0.46875,-0.40625 0.46875,-0.9375 0,-0.46875 -0.40625,-0.75 -0.296875,-0.1875 -1.4375,-0.46875 -1.546875,-0.39063 -2.15625,-0.67188 -0.59375,-0.29687 -0.90625,-0.79687 -0.296875,-0.5 -0.296875,-1.10938 0,-0.5625 0.25,-1.03125 0.25,-0.46875 0.6875,-0.78125 0.328125,-0.25 0.890625,-0.40625 0.578125,-0.17187 1.21875,-0.17187 0.984375,0 1.71875,0.28125 0.734375,0.28125 1.078125,0.76562 0.359375,0.46875 0.5,1.28125 l -1.375,0.1875 q -0.09375,-0.64062 -0.546875,-1 -0.453125,-0.35937 -1.265625,-0.35937 -0.96875,0 -1.390625,0.32812 -0.40625,0.3125 -0.40625,0.73438 0,0.28125 0.171875,0.5 0.171875,0.21875 0.53125,0.375 0.21875,0.0781 1.25,0.35937 1.484375,0.39063 2.078125,0.65625 0.59375,0.25 0.921875,0.73438 0.34375,0.48437 0.34375,1.20312 0,0.70313 -0.421875,1.32813 -0.40625,0.60937 -1.1875,0.95312 -0.765625,0.34375 -1.734375,0.34375 -1.625,0 -2.46875,-0.67187 -0.84375,-0.67188 -1.078125,-2 z"
     fill-rule="nonzero"
     id="path39" />
  <path
     fill="#cfe2f3"
     d="m 884.26379,343.97505 h 23.79529 v -2.93701 l 5.87396,5.87402 -5.87396,5.87403 v -2.93702 h -23.79529 z"
     fill-rule="evenodd"
     id="path41" />
  <path
     stroke="#000000"
     stroke-width="1"
     stroke-linejoin="round"
     stroke-linecap="butt"
     d="m 884.26379,343.97505 h 23.79529 v -2.93701 l 5.87396,5.87402 -5.87396,5.87403 v -2.93702 h -23.79529 z"
     fill-rule="evenodd"
     id="path43" />
  <path
     fill="#000000"
     fill-opacity="0"
     d="m 249.20602,248.99935 c 25.68216,-16.05032 59.54852,-25.58292 88.97113,-18.40683 8.94736,2.18222 10.42432,15.44257 17.38321,21.47507 7.98886,6.92529 19.10175,10.62793 29.65616,11.24933 30.96686,1.82324 55.35452,-41.18381 85.90289,-35.79264 21.55276,3.80362 30.82965,34.96265 52.15487,39.88449 12.07178,2.78617 27.22419,2.72882 36.81366,-5.11548 8.07612,-6.60638 14.31128,-17.38458 24.54328,-19.42782 12.29089,-2.45438 22.71722,10.8735 34.76904,14.31497 9.13135,2.60751 17.77313,-6.69965 26.59052,-10.22574 10.0083,-4.00226 21.03381,-5.41022 30.67718,-10.22571"
     fill-rule="evenodd"
     id="path45" />
  <path
     stroke="#000000"
     stroke-width="1"
     stroke-linejoin="round"
     stroke-linecap="butt"
     d="m 249.20602,248.99935 c 25.68216,-16.05032 59.54852,-25.58292 88.97113,-18.40683 8.94736,2.18222 10.42432,15.44257 17.38321,21.47507 7.98886,6.92529 19.10175,10.62793 29.65616,11.24933 30.96686,1.82324 55.35452,-41.18381 85.90289,-35.79264 21.55276,3.80362 30.82965,34.96265 52.15487,39.88449 12.07178,2.78617 27.22419,2.72882 36.81366,-5.11548 8.07612,-6.60638 14.31128,-17.38458 24.54328,-19.42782 12.29089,-2.45438 22.71722,10.8735 34.76904,14.31497 9.13135,2.60751 17.77313,-6.69965 26.59052,-10.22574 10.0083,-4.00226 21.03381,-5.41022 30.67718,-10.22571"
     fill-rule="evenodd"
     id="path47" />
  <path
     fill="#000000"
     fill-opacity="0"
     d="m 184.78083,116.05712 c 12.44208,-5.59758 27.26163,-14.38544 39.8819,-9.2021 16.78636,6.89444 30.21107,28.80945 48.06559,25.56431 12.77106,-2.32119 22.98841,-17.46898 35.79267,-15.33859 11.9259,1.98425 21.71567,14.49817 33.74542,13.29396 21.50058,-2.15227 54.76441,-12.16934 64.4278,7.15749 6.46057,12.92114 -3.66806,31.14422 -14.31757,40.90551 -8.44373,7.73948 -22.87128,10.02689 -27.61154,20.45408 -3.74826,8.24496 5.83954,17.1557 9.20471,25.5643 4.35284,10.87649 5.11285,23.05645 5.11285,34.77163"
     fill-rule="evenodd"
     id="path49" />
  <path
     stroke="#000000"
     stroke-width="1"
     stroke-linejoin="round"
     stroke-linecap="butt"
     d="m 184.78083,116.05712 c 12.44208,-5.59758 27.26163,-14.38544 39.8819,-9.2021 16.78636,6.89444 30.21107,28.80945 48.06559,25.56431 12.77106,-2.32119 22.98841,-17.46898 35.79267,-15.33859 11.9259,1.98425 21.71567,14.49817 33.74542,13.29396 21.50058,-2.15227 54.76441,-12.16934 64.4278,7.15749 6.46057,12.92114 -3.66806,31.14422 -14.31757,40.90551 -8.44373,7.73948 -22.87128,10.02689 -27.61154,20.45408 -3.74826,8.24496 5.83954,17.1557 9.20471,25.5643 4.35284,10.87649 5.11285,23.05645 5.11285,34.77163"
     fill-rule="evenodd"
     id="path51" />
  <path
     fill="#000000"
     fill-opacity="0"
     d="m 298.29266,197.86745 c 3.20508,6.41019 9.20471,12.26364 9.20471,19.43045 0,4.74777 -5.11285,8.5462 -5.11285,13.29398"
     fill-rule="evenodd"
     id="path53" />
  <path
     stroke="#000000"
     stroke-width="1"
     stroke-linejoin="round"
     stroke-linecap="butt"
     d="m 298.29266,197.86745 c 3.20508,6.41019 9.20471,12.26364 9.20471,19.43045 0,4.74777 -5.11285,8.5462 -5.11285,13.29398"
     fill-rule="evenodd"
     id="path55" />
  <path
     fill="#000000"
     fill-opacity="0"
     d="m 918.01202,356.37665 c 0,5.15808 -3.11346,15.33859 2.04462,15.33859"
     fill-rule="evenodd"
     id="path57" />
  <path
     stroke="#000000"
     stroke-width="1"
     stroke-linejoin="round"
     stroke-linecap="butt"
     d="m 918.01202,356.37665 c 0,5.15808 -3.11346,15.33859 2.04462,15.33859"
     fill-rule="evenodd"
     id="path59" />
  <path
     fill="#000000"
     fill-opacity="0"
     d="m 920.05645,372.73885 c -2.75189,3.66876 -5.77692,8.09106 -10.22577,9.20471"
     fill-rule="evenodd"
     id="path61" />
  <path
     stroke="#000000"
     stroke-width="1"
     stroke-linejoin="round"
     stroke-linecap="butt"
     d="m 920.05645,372.73885 c -2.75189,3.66876 -5.77692,8.09106 -10.22577,9.20471"
     fill-rule="evenodd"
     id="path63" />
  <path
     fill="#000000"
     fill-opacity="0"
     d="m 910.85168,390.12468 c 3.06824,1.53281 3.06824,1.53281 6.13647,3.06561"
     fill-rule="evenodd"
     id="path65" />
  <path
     stroke="#000000"
     stroke-width="1"
     stroke-linejoin="round"
     stroke-linecap="butt"
     d="m 910.85168,390.12468 c 3.06824,1.53281 3.06824,1.53281 6.13647,3.06561"
     fill-rule="evenodd"
     id="path67" />
  <path
     fill="#000000"
     fill-opacity="0"
     d="m 916.98815,389.10105 c 5.11292,3.06824 5.11292,3.06824 10.22577,6.13647"
     fill-rule="evenodd"
     id="path69" />
  <path
     stroke="#000000"
     stroke-width="1"
     stroke-linejoin="round"
     stroke-linecap="butt"
     d="m 916.98815,389.10105 c 5.11292,3.06824 5.11292,3.06824 10.22577,6.13647"
     fill-rule="evenodd"
     id="path71" />
  <path
     fill="#000000"
     fill-opacity="0"
     d="m 920.05645,409.55248 c -4.09058,-1.53281 -4.09058,-1.53281 -8.18115,-3.06561"
     fill-rule="evenodd"
     id="path73" />
  <path
     stroke="#000000"
     stroke-width="1"
     stroke-linejoin="round"
     stroke-linecap="butt"
     d="m 920.05645,409.55248 c -4.09058,-1.53281 -4.09058,-1.53281 -8.18115,-3.06561"
     fill-rule="evenodd"
     id="path75" />
  <path
     fill="#000000"
     fill-opacity="0"
     d="m 918.01182,396.25853 c -1.53418,5.62466 -1.53418,5.62466 -3.0683,11.24933"
     fill-rule="evenodd"
     id="path77" />
  <path
     stroke="#000000"
     stroke-width="1"
     stroke-linejoin="round"
     stroke-linecap="butt"
     d="m 918.01182,396.25853 c -1.53418,5.62466 -1.53418,5.62466 -3.0683,11.24933"
     fill-rule="evenodd"
     id="path79" />
  <path
     fill="#cccccc"
     d="m 692.00982,252.57745 c 3.53009,0 6.39172,-2.86169 6.39172,-6.39175 h -6.39172 c 1.76501,0 3.19586,-1.43082 3.19586,-3.19587 0,-1.76501 -1.43085,-3.19586 -3.19586,-3.19586 h 6.39172 v -83.09251 0 c 0,-3.53006 2.8617,-6.39174 6.39179,-6.39174 h 141.11023 c 3.53003,0 6.39172,2.86168 6.39172,6.39174 0,3.53004 -2.86169,6.39174 -6.39172,6.39174 h -6.39173 v 83.0925 c 0,3.53006 -2.86169,6.39175 -6.39178,6.39175 z m 19.17523,-95.87599 v 0 c 0,3.53004 -2.86169,6.39174 -6.39172,6.39174 -1.76508,0 -3.19592,-1.43085 -3.19592,-3.19589 0,-1.76502 1.43084,-3.19585 3.19592,-3.19585 z"
     fill-rule="evenodd"
     id="path81" />
  <path
     fill="#a3a3a3"
     d="m 711.18505,156.70145 v 0 c 0,3.53004 -2.86169,6.39174 -6.39172,6.39174 -1.76508,0 -3.19593,-1.43085 -3.19593,-3.19589 0,-1.76502 1.43085,-3.19585 3.19593,-3.19585 z m -12.78351,89.48424 c 0,3.53006 -2.86163,6.39175 -6.39172,6.39175 -3.53003,0 -6.39173,-2.86169 -6.39173,-6.39175 0,-3.53006 2.8617,-6.39172 6.39173,-6.39172 v 0 c 1.76501,0 3.19586,1.43084 3.19586,3.19586 0,1.76504 -1.43085,3.19586 -3.19586,3.19586 z"
     fill-rule="evenodd"
     id="path83" />
  <path
     fill="#000000"
     fill-opacity="0"
     d="m 698.40152,239.79395 v -83.09251 0 c 0,-3.53006 2.86169,-6.39174 6.39178,-6.39174 h 141.11023 c 3.53003,0 6.39173,2.86168 6.39173,6.39174 0,3.53004 -2.8617,6.39173 -6.39173,6.39173 h -6.39172 v 83.0925 c 0,3.53006 -2.86169,6.39176 -6.39178,6.39176 H 692.0098 c -3.53003,0 -6.39173,-2.8617 -6.39173,-6.39176 0,-3.53005 2.8617,-6.39172 6.39173,-6.39172 z m 6.39178,-89.48425 v 0 c 3.53003,0 6.39173,2.86168 6.39173,6.39174 0,3.53004 -2.8617,6.39174 -6.39173,6.39174 -1.76507,0 -3.19592,-1.43085 -3.19592,-3.19589 0,-1.76502 1.43085,-3.19585 3.19592,-3.19585 h 6.39173 m 128.32678,6.39174 h -134.7185 m -12.78351,76.70077 v 0 c 1.76501,0 3.19586,1.43085 3.19586,3.19586 0,1.76505 -1.43085,3.19587 -3.19586,3.19587 h 6.39172 m -6.39172,6.39175 c 3.53009,0 6.39172,-2.86169 6.39172,-6.39175 v -6.39173"
     fill-rule="evenodd"
     id="path85" />
  <path
     stroke="#000000"
     stroke-width="1"
     stroke-linejoin="round"
     stroke-linecap="butt"
     d="m 698.40152,239.79395 v -83.09251 0 c 0,-3.53006 2.86169,-6.39174 6.39178,-6.39174 h 141.11023 c 3.53003,0 6.39173,2.86168 6.39173,6.39174 0,3.53004 -2.8617,6.39173 -6.39173,6.39173 h -6.39172 v 83.0925 c 0,3.53006 -2.86169,6.39176 -6.39178,6.39176 H 692.0098 c -3.53003,0 -6.39173,-2.8617 -6.39173,-6.39176 0,-3.53005 2.8617,-6.39172 6.39173,-6.39172 z m 6.39178,-89.48425 v 0 c 3.53003,0 6.39173,2.86168 6.39173,6.39174 0,3.53004 -2.8617,6.39174 -6.39173,6.39174 -1.76507,0 -3.19592,-1.43085 -3.19592,-3.19589 0,-1.76502 1.43085,-3.19585 3.19592,-3.19585 h 6.39173 m 128.32678,6.39174 h -134.7185 m -12.78351,76.70077 v 0 c 1.76501,0 3.19586,1.43085 3.19586,3.19586 0,1.76505 -1.43085,3.19587 -3.19586,3.19587 h 6.39172 m -6.39172,6.39175 c 3.53009,0 6.39172,-2.86169 6.39172,-6.39175 v -6.39173"
     fill-rule="evenodd"
     id="path87" />
  <path
     fill="#000000"
     d="m 725.49172,184.71569 q 0,-2.6875 1.48437,-3.96875 1.25,-1.07813 3.04688,-1.07813 2,0 3.26562,1.3125 1.26563,1.29688 1.26563,3.60938 0,1.85937 -0.5625,2.9375 -0.5625,1.0625 -1.64063,1.65625 -1.0625,0.59375 -2.32812,0.59375 -2.03125,0 -3.28125,-1.29688 -1.25,-1.3125 -1.25,-3.76562 z m 1.6875,0 q 0,1.85937 0.79687,2.79687 0.8125,0.92188 2.04688,0.92188 1.21875,0 2.03125,-0.92188 0.8125,-0.9375 0.8125,-2.84375 0,-1.79687 -0.8125,-2.71875 -0.8125,-0.92187 -2.03125,-0.92187 -1.23438,0 -2.04688,0.92187 -0.79687,0.90625 -0.79687,2.76563 z m 15.62573,4.84375 v -1.42188 q -1.125,1.64063 -3.0625,1.64063 -0.85937,0 -1.60937,-0.32813 -0.73438,-0.32812 -1.09375,-0.82812 -0.35938,-0.5 -0.5,-1.21875 -0.10938,-0.46875 -0.10938,-1.53125 v -5.98438 h 1.64063 v 5.35938 q 0,1.28125 0.10937,1.73437 0.15625,0.64063 0.65625,1.01563 0.5,0.375 1.23438,0.375 0.73437,0 1.375,-0.375 0.65625,-0.39063 0.92187,-1.03125 0.26563,-0.65625 0.26563,-1.89063 v -5.1875 h 1.64062 v 9.67188 z m 7.62573,-1.46875 0.23438,1.45312 q -0.6875,0.14063 -1.23438,0.14063 -0.89062,0 -1.39062,-0.28125 -0.48438,-0.28125 -0.6875,-0.73438 -0.20313,-0.46875 -0.20313,-1.9375 v -5.57812 h -1.20312 v -1.26563 h 1.20312 v -2.39062 l 1.625,-0.98438 v 3.375 h 1.65625 v 1.26563 h -1.65625 v 5.67187 q 0,0.6875 0.0781,0.89063 0.0937,0.20312 0.28125,0.32812 0.20312,0.10938 0.57812,0.10938 0.26563,0 0.71875,-0.0625 z m 1.60517,5.17187 v -13.375 h 1.48437 v 1.25 q 0.53125,-0.73437 1.1875,-1.09375 0.67188,-0.375 1.625,-0.375 1.23438,0 2.17188,0.64063 0.95312,0.625 1.4375,1.79687 0.48437,1.15625 0.48437,2.54688 0,1.48437 -0.53125,2.67187 -0.53125,1.1875 -1.54687,1.82813 -1.01563,0.625 -2.14063,0.625 -0.8125,0 -1.46875,-0.34375 -0.65625,-0.34375 -1.0625,-0.875 v 4.70312 z m 1.48437,-8.48437 q 0,1.85937 0.75,2.76562 0.76563,0.89063 1.82813,0.89063 1.09375,0 1.875,-0.92188 0.78125,-0.9375 0.78125,-2.875 0,-1.84375 -0.76563,-2.76562 -0.75,-0.92188 -1.8125,-0.92188 -1.04687,0 -1.85937,0.98438 -0.79688,0.96875 -0.79688,2.84375 z m 15.21948,4.78125 v -1.42188 q -1.125,1.64063 -3.0625,1.64063 -0.85937,0 -1.60937,-0.32813 -0.73438,-0.32812 -1.09375,-0.82812 -0.35938,-0.5 -0.5,-1.21875 -0.10938,-0.46875 -0.10938,-1.53125 v -5.98438 h 1.64063 v 5.35938 q 0,1.28125 0.10937,1.73437 0.15625,0.64063 0.65625,1.01563 0.5,0.375 1.23438,0.375 0.73437,0 1.375,-0.375 0.65625,-0.39063 0.92187,-1.03125 0.26563,-0.65625 0.26563,-1.89063 v -5.1875 h 1.64062 v 9.67188 z m 7.62574,-1.46875 0.23437,1.45312 q -0.6875,0.14063 -1.23437,0.14063 -0.89063,0 -1.39063,-0.28125 -0.48437,-0.28125 -0.6875,-0.73438 -0.20312,-0.46875 -0.20312,-1.9375 v -5.57812 h -1.20313 v -1.26563 h 1.20313 v -2.39062 l 1.625,-0.98438 v 3.375 h 1.65625 v 1.26563 h -1.65625 v 5.67187 q 0,0.6875 0.0781,0.89063 0.0937,0.20312 0.28125,0.32812 0.20313,0.10938 0.57813,0.10938 0.26562,0 0.71875,-0.0625 z m 13.41345,-1.64063 1.6875,0.20313 q -0.40625,1.48437 -1.48438,2.3125 -1.07812,0.8125 -2.76562,0.8125 -2.125,0 -3.375,-1.29688 -1.23438,-1.3125 -1.23438,-3.67187 0,-2.45313 1.25,-3.79688 1.26563,-1.34375 3.26563,-1.34375 1.9375,0 3.15625,1.32813 1.23437,1.3125 1.23437,3.70312 0,0.15625 0,0.4375 h -7.21875 q 0.0937,1.59375 0.90625,2.45313 0.8125,0.84375 2.01563,0.84375 0.90625,0 1.54687,-0.46875 0.64063,-0.48438 1.01563,-1.51563 z m -5.39063,-2.65625 h 5.40625 q -0.10937,-1.21875 -0.625,-1.82812 -0.78125,-0.95313 -2.03125,-0.95313 -1.125,0 -1.90625,0.76563 -0.76562,0.75 -0.84375,2.01562 z m 9.14136,5.76563 v -9.67188 h 1.46875 v 1.375 q 1.0625,-1.59375 3.07813,-1.59375 0.875,0 1.60937,0.3125 0.73438,0.3125 1.09375,0.82813 0.375,0.5 0.51563,1.20312 0.0937,0.45313 0.0937,1.59375 v 5.95313 h -1.64063 v -5.89063 q 0,-1 -0.20312,-1.48437 -0.1875,-0.5 -0.67188,-0.79688 -0.48437,-0.29687 -1.14062,-0.29687 -1.04688,0 -1.8125,0.67187 -0.75,0.65625 -0.75,2.51563 v 5.28125 z m 16.64136,0 v -1.21875 q -0.90625,1.4375 -2.70313,1.4375 -1.15625,0 -2.125,-0.64063 -0.96875,-0.64062 -1.5,-1.78125 -0.53125,-1.14062 -0.53125,-2.625 0,-1.45312 0.48438,-2.625 0.48437,-1.1875 1.4375,-1.8125 0.96875,-0.625 2.17187,-0.625 0.875,0 1.54688,0.375 0.6875,0.35938 1.10937,0.95313 v -4.79688 h 1.64063 v 13.35938 z m -5.17188,-4.82813 q 0,1.85938 0.78125,2.78125 0.78125,0.92188 1.84375,0.92188 1.07813,0 1.82813,-0.875 0.75,-0.89063 0.75,-2.6875 0,-1.98438 -0.76563,-2.90625 -0.76562,-0.9375 -1.89062,-0.9375 -1.07813,0 -1.8125,0.89062 -0.73438,0.89063 -0.73438,2.8125 z"
     fill-rule="nonzero"
     id="path89" />
  <path
     fill="#000000"
     d="m 723.24562,211.55945 -2.96875,-9.67188 H 721.98 l 1.53125,5.57813 0.57812,2.07812 q 0.0469,-0.15625 0.5,-2 l 1.54688,-5.65625 h 1.6875 l 1.4375,5.60938 0.48437,1.84375 0.5625,-1.85938 1.65625,-5.59375 h 1.59375 l -3.03125,9.67188 h -1.70312 l -1.53125,-5.79688 -0.375,-1.64062 -1.95313,7.4375 z m 11.69171,-11.46875 v -1.89063 h 1.64063 v 1.89063 z m 0,11.46875 v -9.67188 h 1.64063 v 9.67188 z m 7.72296,-1.46875 0.23438,1.45312 q -0.6875,0.14063 -1.23438,0.14063 -0.89062,0 -1.39062,-0.28125 -0.48438,-0.28125 -0.6875,-0.73438 -0.20313,-0.46875 -0.20313,-1.9375 v -5.57812 h -1.20312 v -1.26563 h 1.20312 v -2.39062 l 1.625,-0.98438 v 3.375 h 1.65625 v 1.26563 h -1.65625 v 5.67187 q 0,0.6875 0.0781,0.89063 0.0937,0.20312 0.28125,0.32812 0.20312,0.10938 0.57812,0.10938 0.26563,0 0.71875,-0.0625 z m 1.60517,1.46875 v -13.35938 h 1.64062 v 4.79688 q 1.14063,-1.32813 2.89063,-1.32813 1.07812,0 1.85937,0.42188 0.79688,0.42187 1.14063,1.17187 0.34375,0.75 0.34375,2.17188 v 6.125 h -1.64063 v -6.125 q 0,-1.23438 -0.53125,-1.79688 -0.53125,-0.5625 -1.51562,-0.5625 -0.71875,0 -1.35938,0.39063 -0.64062,0.375 -0.92187,1.01562 -0.26563,0.64063 -0.26563,1.78125 v 5.29688 z m 21.87152,-1.1875 q -0.92188,0.76562 -1.76563,1.09375 -0.82812,0.3125 -1.79687,0.3125 -1.59375,0 -2.45313,-0.78125 -0.85937,-0.78125 -0.85937,-1.98438 0,-0.71875 0.32812,-1.29687 0.32813,-0.59375 0.84375,-0.9375 0.53125,-0.35938 1.1875,-0.54688 0.46875,-0.125 1.45313,-0.25 1.98437,-0.23437 2.92187,-0.5625 0.0156,-0.34375 0.0156,-0.42187 0,-1 -0.46875,-1.42188 -0.625,-0.54687 -1.875,-0.54687 -1.15625,0 -1.70313,0.40625 -0.54687,0.40625 -0.8125,1.42187 l -1.60937,-0.21875 q 0.21875,-1.01562 0.71875,-1.64062 0.5,-0.64063 1.45312,-0.98438 0.95313,-0.34375 2.1875,-0.34375 1.25,0 2.01563,0.29688 0.78125,0.28125 1.14062,0.73437 0.375,0.4375 0.51563,1.10938 0.0781,0.42187 0.0781,1.51562 v 2.1875 q 0,2.28125 0.10938,2.89063 0.10937,0.59375 0.40625,1.15625 h -1.70313 q -0.26562,-0.51563 -0.32812,-1.1875 z m -0.14063,-3.67188 q -0.89062,0.375 -2.67187,0.625 -1.01563,0.14063 -1.4375,0.32813 -0.42188,0.1875 -0.65625,0.53125 -0.21875,0.34375 -0.21875,0.78125 0,0.65625 0.5,1.09375 0.5,0.4375 1.45312,0.4375 0.9375,0 1.67188,-0.40625 0.75,-0.42188 1.09375,-1.14063 0.26562,-0.5625 0.26562,-1.64062 z m 8.7309,1.96875 1.625,-0.25 q 0.125,0.96875 0.75,1.5 0.625,0.51563 1.75,0.51563 1.125,0 1.67187,-0.45313 0.54688,-0.46875 0.54688,-1.09375 0,-0.54687 -0.48438,-0.875 -0.32812,-0.21875 -1.67187,-0.54687 -1.8125,-0.46875 -2.51563,-0.79688 -0.6875,-0.32812 -1.04687,-0.90625 -0.35938,-0.59375 -0.35938,-1.3125 0,-0.64062 0.29688,-1.1875 0.29687,-0.5625 0.8125,-0.92187 0.375,-0.28125 1.03125,-0.46875 0.67187,-0.20313 1.42187,-0.20313 1.14063,0 2,0.32813 0.85938,0.32812 1.26563,0.89062 0.42187,0.5625 0.57812,1.5 l -1.60937,0.21875 q -0.10938,-0.75 -0.64063,-1.17187 -0.51562,-0.42188 -1.46875,-0.42188 -1.14062,0 -1.625,0.375 -0.46875,0.375 -0.46875,0.875 0,0.3125 0.1875,0.57813 0.20313,0.26562 0.64063,0.4375 0.23437,0.0937 1.4375,0.42187 1.75,0.45313 2.4375,0.75 0.6875,0.29688 1.07812,0.85938 0.39063,0.5625 0.39063,1.40625 0,0.82812 -0.48438,1.54687 -0.46875,0.71875 -1.375,1.125 -0.90625,0.39063 -2.04687,0.39063 -1.875,0 -2.875,-0.78125 -0.98438,-0.78125 -1.25,-2.32813 z m 9.98437,2.89063 v -9.67188 h 1.46875 v 1.35938 q 0.45313,-0.71875 1.20313,-1.14063 0.76562,-0.4375 1.71875,-0.4375 1.07812,0 1.76562,0.45313 0.6875,0.4375 0.96875,1.23437 1.15625,-1.6875 2.98438,-1.6875 1.45312,0 2.21875,0.79688 0.78125,0.79687 0.78125,2.45312 v 6.64063 h -1.64063 v -6.09375 q 0,-0.98438 -0.15625,-1.40625 -0.15625,-0.4375 -0.57812,-0.70313 -0.42188,-0.26562 -0.98438,-0.26562 -1.01562,0 -1.6875,0.6875 -0.67187,0.67187 -0.67187,2.15625 v 5.625 h -1.64063 v -6.28125 q 0,-1.09375 -0.40625,-1.64063 -0.40625,-0.54687 -1.3125,-0.54687 -0.6875,0 -1.28125,0.35937 -0.59375,0.35938 -0.85937,1.0625 -0.25,0.70313 -0.25,2.03125 v 5.01563 z m 21.85327,-1.1875 q -0.92187,0.76562 -1.76562,1.09375 -0.82813,0.3125 -1.79688,0.3125 -1.59375,0 -2.45312,-0.78125 -0.85938,-0.78125 -0.85938,-1.98438 0,-0.71875 0.32813,-1.29687 0.32812,-0.59375 0.84375,-0.9375 0.53125,-0.35938 1.1875,-0.54688 0.46875,-0.125 1.45312,-0.25 1.98438,-0.23437 2.92188,-0.5625 0.0156,-0.34375 0.0156,-0.42187 0,-1 -0.46875,-1.42188 -0.625,-0.54687 -1.875,-0.54687 -1.15625,0 -1.70312,0.40625 -0.54688,0.40625 -0.8125,1.42187 l -1.60938,-0.21875 q 0.21875,-1.01562 0.71875,-1.64062 0.5,-0.64063 1.45313,-0.98438 0.95312,-0.34375 2.1875,-0.34375 1.25,0 2.01562,0.29688 0.78125,0.28125 1.14063,0.73437 0.375,0.4375 0.51562,1.10938 0.0781,0.42187 0.0781,1.51562 v 2.1875 q 0,2.28125 0.10937,2.89063 0.10938,0.59375 0.40625,1.15625 h -1.70312 q -0.26563,-0.51563 -0.32813,-1.1875 z m -0.14062,-3.67188 q -0.89063,0.375 -2.67188,0.625 -1.01562,0.14063 -1.4375,0.32813 -0.42187,0.1875 -0.65625,0.53125 -0.21875,0.34375 -0.21875,0.78125 0,0.65625 0.5,1.09375 0.5,0.4375 1.45313,0.4375 0.9375,0 1.67187,-0.40625 0.75,-0.42188 1.09375,-1.14063 0.26563,-0.5625 0.26563,-1.64062 z m 4.15698,4.85938 v -13.35938 h 1.64063 v 13.35938 z m 4.14484,0 v -13.35938 h 1.64062 v 13.35938 z"
     fill-rule="nonzero"
     id="path91" />
  <path
     fill="#000000"
     d="m 742.28372,230.01255 1.60938,0.21875 q -0.26563,1.65625 -1.35938,2.60938 -1.07812,0.9375 -2.67187,0.9375 -1.98438,0 -3.1875,-1.29688 -1.20313,-1.29687 -1.20313,-3.71875 0,-1.57812 0.51563,-2.75 0.51562,-1.17187 1.57812,-1.75 1.0625,-0.59375 2.3125,-0.59375 1.57813,0 2.57813,0.79688 1,0.79687 1.28125,2.26562 l -1.59375,0.23438 q -0.23438,-0.96875 -0.8125,-1.45313 -0.57813,-0.5 -1.39063,-0.5 -1.23437,0 -2.01562,0.89063 -0.78125,0.89062 -0.78125,2.8125 0,1.95312 0.75,2.84375 0.75,0.875 1.95312,0.875 0.96875,0 1.60938,-0.59375 0.65625,-0.59375 0.82812,-1.82813 z m 9.32813,2.35938 q -0.92188,0.76562 -1.76563,1.09375 -0.82812,0.3125 -1.79687,0.3125 -1.59375,0 -2.45313,-0.78125 -0.85937,-0.78125 -0.85937,-1.98438 0,-0.71875 0.32812,-1.29687 0.32813,-0.59375 0.84375,-0.9375 0.53125,-0.35938 1.1875,-0.54688 0.46875,-0.125 1.45313,-0.25 1.98437,-0.23437 2.92187,-0.5625 0.0156,-0.34375 0.0156,-0.42187 0,-1 -0.46875,-1.42188 -0.625,-0.54687 -1.875,-0.54687 -1.15625,0 -1.70313,0.40625 -0.54687,0.40625 -0.8125,1.42187 l -1.60937,-0.21875 q 0.21875,-1.01562 0.71875,-1.64062 0.5,-0.64063 1.45312,-0.98438 0.95313,-0.34375 2.1875,-0.34375 1.25,0 2.01563,0.29688 0.78125,0.28125 1.14062,0.73437 0.375,0.4375 0.51563,1.10938 0.0781,0.42187 0.0781,1.51562 v 2.1875 q 0,2.28125 0.10938,2.89063 0.10937,0.59375 0.40625,1.15625 h -1.70313 q -0.26562,-0.51563 -0.32812,-1.1875 z m -0.14063,-3.67188 q -0.89062,0.375 -2.67187,0.625 -1.01563,0.14063 -1.4375,0.32813 -0.42188,0.1875 -0.65625,0.53125 -0.21875,0.34375 -0.21875,0.78125 0,0.65625 0.5,1.09375 0.5,0.4375 1.45312,0.4375 0.9375,0 1.67188,-0.40625 0.75,-0.42188 1.09375,-1.14063 0.26562,-0.5625 0.26562,-1.64062 z m 4.20386,8.5625 v -13.375 h 1.48437 v 1.25 q 0.53125,-0.73437 1.1875,-1.09375 0.67188,-0.375 1.625,-0.375 1.23438,0 2.17188,0.64063 0.95312,0.625 1.4375,1.79687 0.48437,1.15625 0.48437,2.54688 0,1.48437 -0.53125,2.67187 -0.53125,1.1875 -1.54687,1.82813 -1.01563,0.625 -2.14063,0.625 -0.8125,0 -1.46875,-0.34375 -0.65625,-0.34375 -1.0625,-0.875 v 4.70312 z m 1.48437,-8.48437 q 0,1.85937 0.75,2.76562 0.76563,0.89063 1.82813,0.89063 1.09375,0 1.875,-0.92188 0.78125,-0.9375 0.78125,-2.875 0,-1.84375 -0.76563,-2.76562 -0.75,-0.92188 -1.8125,-0.92188 -1.04687,0 -1.85937,0.98438 -0.79688,0.96875 -0.79688,2.84375 z m 15.2038,3.59375 q -0.92188,0.76562 -1.76563,1.09375 -0.82812,0.3125 -1.79687,0.3125 -1.59375,0 -2.45313,-0.78125 -0.85937,-0.78125 -0.85937,-1.98438 0,-0.71875 0.32812,-1.29687 0.32813,-0.59375 0.84375,-0.9375 0.53125,-0.35938 1.1875,-0.54688 0.46875,-0.125 1.45313,-0.25 1.98437,-0.23437 2.92187,-0.5625 0.0156,-0.34375 0.0156,-0.42187 0,-1 -0.46875,-1.42188 -0.625,-0.54687 -1.875,-0.54687 -1.15625,0 -1.70313,0.40625 -0.54687,0.40625 -0.8125,1.42187 l -1.60937,-0.21875 q 0.21875,-1.01562 0.71875,-1.64062 0.5,-0.64063 1.45312,-0.98438 0.95313,-0.34375 2.1875,-0.34375 1.25,0 2.01563,0.29688 0.78125,0.28125 1.14062,0.73437 0.375,0.4375 0.51563,1.10938 0.0781,0.42187 0.0781,1.51562 v 2.1875 q 0,2.28125 0.10938,2.89063 0.10937,0.59375 0.40625,1.15625 h -1.70313 q -0.26562,-0.51563 -0.32812,-1.1875 z m -0.14063,-3.67188 q -0.89062,0.375 -2.67187,0.625 -1.01563,0.14063 -1.4375,0.32813 -0.42188,0.1875 -0.65625,0.53125 -0.21875,0.34375 -0.21875,0.78125 0,0.65625 0.5,1.09375 0.5,0.4375 1.45312,0.4375 0.9375,0 1.67188,-0.40625 0.75,-0.42188 1.09375,-1.14063 0.26562,-0.5625 0.26562,-1.64062 z m 10.51636,1.3125 1.60938,0.21875 q -0.26563,1.65625 -1.35938,2.60938 -1.07812,0.9375 -2.67187,0.9375 -1.98438,0 -3.1875,-1.29688 -1.20313,-1.29687 -1.20313,-3.71875 0,-1.57812 0.51563,-2.75 0.51562,-1.17187 1.57812,-1.75 1.0625,-0.59375 2.3125,-0.59375 1.57813,0 2.57813,0.79688 1,0.79687 1.28125,2.26562 l -1.59375,0.23438 q -0.23438,-0.96875 -0.8125,-1.45313 -0.57813,-0.5 -1.39063,-0.5 -1.23437,0 -2.01562,0.89063 -0.78125,0.89062 -0.78125,2.8125 0,1.95312 0.75,2.84375 0.75,0.875 1.95312,0.875 0.96875,0 1.60938,-0.59375 0.65625,-0.59375 0.82812,-1.82813 z m 3.01563,-7.92187 v -1.89063 h 1.64062 v 1.89063 z m 0,11.46875 v -9.67188 h 1.64062 v 9.67188 z m 7.72296,-1.46875 0.23437,1.45312 q -0.6875,0.14063 -1.23437,0.14063 -0.89063,0 -1.39063,-0.28125 -0.48437,-0.28125 -0.6875,-0.73438 -0.20312,-0.46875 -0.20312,-1.9375 v -5.57812 h -1.20313 v -1.26563 h 1.20313 v -2.39062 l 1.625,-0.98438 v 3.375 h 1.65625 v 1.26563 h -1.65625 v 5.67187 q 0,0.6875 0.0781,0.89063 0.0937,0.20312 0.28125,0.32812 0.20313,0.10938 0.57813,0.10938 0.26562,0 0.71875,-0.0625 z m 1.52704,5.1875 -0.1875,-1.53125 q 0.54687,0.14062 0.9375,0.14062 0.54687,0 0.875,-0.1875 0.32812,-0.17187 0.54687,-0.5 0.15625,-0.25 0.5,-1.21875 0.0469,-0.14062 0.14063,-0.40625 l -3.67188,-9.6875 h 1.76563 l 2.01562,5.59375 q 0.39063,1.07813 0.70313,2.25 0.28125,-1.125 0.67187,-2.20312 l 2.07813,-5.64063 h 1.64062 l -3.6875,9.82813 q -0.59375,1.60937 -0.92187,2.20312 -0.4375,0.8125 -1,1.1875 -0.5625,0.375 -1.34375,0.375 -0.48438,0 -1.0625,-0.20312 z"
     fill-rule="nonzero"
     id="path93" />
  <path
     fill="#000000"
     fill-opacity="0"
     d="m 768.95666,252.57745 -5.10236,88.47241"
     fill-rule="evenodd"
     id="path95" />
  <path
     stroke="#000000"
     stroke-width="1"
     stroke-linejoin="round"
     stroke-linecap="butt"
     d="m 768.95666,252.57745 -4.75684,82.48239"
     fill-rule="evenodd"
     id="path97" />
  <path
     fill="#000000"
     stroke="#000000"
     stroke-width="1"
     stroke-linecap="butt"
     d="m 762.55078,334.96471 1.3877,4.62567 1.91027,-4.43545 z"
     fill-rule="evenodd"
     id="path99" />
  <path
     fill="#cccccc"
     d="m 804.40618,128.99344 c 3.53003,0 6.39172,-2.86168 6.39172,-6.39174 h -6.39172 c 1.76501,0 3.19586,-1.43083 3.19586,-3.19586 0,-1.76503 -1.43085,-3.19586 -3.19586,-3.19586 h 6.39172 v -83.092529 0 c 0,-3.53006 2.86164,-6.39173 6.39173,-6.39173 h 141.11023 c 3.53003,0 6.39172,2.86167 6.39172,6.39173 0,3.53006 -2.86169,6.39174 -6.39172,6.39174 h -6.39173 V 122.6017 c 0,3.53006 -2.86169,6.39174 -6.39172,6.39174 z m 19.17517,-95.875989 v 0 c 0,3.53006 -2.86169,6.39174 -6.39172,6.39174 -1.76502,0 -3.19587,-1.43085 -3.19587,-3.19586 0,-1.76503 1.43085,-3.19588 3.19587,-3.19588 z"
     fill-rule="evenodd"
     id="path101" />
  <path
     fill="#a3a3a3"
     d="m 823.58136,33.117451 v 0 c 0,3.53006 -2.86169,6.39174 -6.39172,6.39174 -1.76502,0 -3.19587,-1.43085 -3.19587,-3.19586 0,-1.76503 1.43085,-3.19588 3.19587,-3.19588 z M 810.79791,122.6017 c 0,3.53006 -2.86169,6.39174 -6.39172,6.39174 -3.53009,0 -6.39172,-2.86168 -6.39172,-6.39174 0,-3.53006 2.86163,-6.39172 6.39172,-6.39172 v 0 c 1.76501,0 3.19586,1.43083 3.19586,3.19586 0,1.76503 -1.43085,3.19586 -3.19586,3.19586 z"
     fill-rule="evenodd"
     id="path103" />
  <path
     fill="#000000"
     fill-opacity="0"
     d="m 810.79792,116.20998 v -83.092529 0 c 0,-3.53006 2.86163,-6.39173 6.39172,-6.39173 h 141.11023 c 3.53003,0 6.39173,2.86167 6.39173,6.39173 0,3.53006 -2.8617,6.39174 -6.39173,6.39174 h -6.39172 V 122.6017 c 0,3.53006 -2.86169,6.39174 -6.39172,6.39174 H 804.4062 c -3.53009,0 -6.39173,-2.86168 -6.39173,-6.39174 0,-3.53006 2.86164,-6.39172 6.39173,-6.39172 z m 6.39172,-89.484259 v 0 c 3.53003,0 6.39173,2.86167 6.39173,6.39173 0,3.53006 -2.8617,6.39174 -6.39173,6.39174 -1.76501,0 -3.19586,-1.43085 -3.19586,-3.19586 0,-1.76503 1.43085,-3.19588 3.19586,-3.19588 h 6.39173 m 128.32678,6.39174 H 817.18965 M 804.4062,116.20998 v 0 c 1.76501,0 3.19586,1.43083 3.19586,3.19586 0,1.76503 -1.43085,3.19586 -3.19586,3.19586 h 6.39172 m -6.39172,6.39174 c 3.53003,0 6.39172,-2.86168 6.39172,-6.39174 v -6.39172"
     fill-rule="evenodd"
     id="path105" />
  <path
     stroke="#000000"
     stroke-width="1"
     stroke-linejoin="round"
     stroke-linecap="butt"
     d="m 810.79792,116.20998 v -83.092529 0 c 0,-3.53006 2.86163,-6.39173 6.39172,-6.39173 h 141.11023 c 3.53003,0 6.39173,2.86167 6.39173,6.39173 0,3.53006 -2.8617,6.39174 -6.39173,6.39174 h -6.39172 V 122.6017 c 0,3.53006 -2.86169,6.39174 -6.39172,6.39174 H 804.4062 c -3.53009,0 -6.39173,-2.86168 -6.39173,-6.39174 0,-3.53006 2.86164,-6.39172 6.39173,-6.39172 z m 6.39172,-89.484259 v 0 c 3.53003,0 6.39173,2.86167 6.39173,6.39173 0,3.53006 -2.8617,6.39174 -6.39173,6.39174 -1.76501,0 -3.19586,-1.43085 -3.19586,-3.19586 0,-1.76503 1.43085,-3.19588 3.19586,-3.19588 h 6.39173 m 128.32678,6.39174 H 817.18965 M 804.4062,116.20998 v 0 c 1.76501,0 3.19586,1.43083 3.19586,3.19586 0,1.76503 -1.43085,3.19586 -3.19586,3.19586 h 6.39172 m -6.39172,6.39174 c 3.53003,0 6.39172,-2.86168 6.39172,-6.39174 v -6.39172"
     fill-rule="evenodd"
     id="path107" />
  <path
     fill="#000000"
     d="m 838.67517,91.678561 v -13.375 h 1.48437 v 1.25 q 0.53125,-0.73438 1.1875,-1.09375 0.67188,-0.375 1.625,-0.375 1.23438,0 2.17188,0.64062 0.95312,0.625 1.4375,1.79688 0.48437,1.15625 0.48437,2.54687 0,1.48438 -0.53125,2.67188 -0.53125,1.1875 -1.54687,1.82812 -1.01563,0.625 -2.14063,0.625 -0.8125,0 -1.46875,-0.34375 -0.65625,-0.34375 -1.0625,-0.875 v 4.70313 z m 1.48437,-8.48438 q 0,1.85938 0.75,2.76563 0.76563,0.89062 1.82813,0.89062 1.09375,0 1.875,-0.92187 0.78125,-0.9375 0.78125,-2.875 0,-1.84375 -0.76563,-2.76563 -0.75,-0.92187 -1.8125,-0.92187 -1.04687,0 -1.85937,0.98437 -0.79688,0.96875 -0.79688,2.84375 z m 8.8913,-6.6875 v -1.89062 h 1.64063 v 1.89062 z m 0,11.46875 v -9.67187 h 1.64063 v 9.67187 z m 4.14484,3.70313 v -13.375 h 1.48437 v 1.25 q 0.53125,-0.73438 1.1875,-1.09375 0.67188,-0.375 1.625,-0.375 1.23438,0 2.17188,0.64062 0.95312,0.625 1.4375,1.79688 0.48437,1.15625 0.48437,2.54687 0,1.48438 -0.53125,2.67188 -0.53125,1.1875 -1.54687,1.82812 -1.01563,0.625 -2.14063,0.625 -0.8125,0 -1.46875,-0.34375 -0.65625,-0.34375 -1.0625,-0.875 v 4.70313 z m 1.48437,-8.48438 q 0,1.85938 0.75,2.76563 0.76563,0.89062 1.82813,0.89062 1.09375,0 1.875,-0.92187 0.78125,-0.9375 0.78125,-2.875 0,-1.84375 -0.76563,-2.76563 -0.75,-0.92187 -1.8125,-0.92187 -1.04687,0 -1.85937,0.98437 -0.79688,0.96875 -0.79688,2.84375 z m 15.51636,1.67188 1.6875,0.20312 q -0.40625,1.48438 -1.48438,2.3125 -1.07812,0.8125 -2.76562,0.8125 -2.125,0 -3.375,-1.29687 -1.23438,-1.3125 -1.23438,-3.67188 0,-2.45312 1.25,-3.79687 1.26563,-1.34375 3.26563,-1.34375 1.9375,0 3.15625,1.32812 1.23437,1.3125 1.23437,3.70313 0,0.15625 0,0.4375 h -7.21875 q 0.0937,1.59375 0.90625,2.45312 0.8125,0.84375 2.01563,0.84375 0.90625,0 1.54687,-0.46875 0.64063,-0.48437 1.01563,-1.51562 z m -5.39063,-2.65625 h 5.40625 q -0.10937,-1.21875 -0.625,-1.82813 -0.78125,-0.95312 -2.03125,-0.95312 -1.125,0 -1.90625,0.76562 -0.76562,0.75 -0.84375,2.01563 z m 15.82465,5.76562 h -1.51562 v -13.35937 h 1.64062 v 4.76562 q 1.04688,-1.29687 2.65625,-1.29687 0.89063,0 1.6875,0.35937 0.79688,0.35938 1.3125,1.01563 0.51563,0.64062 0.79688,1.5625 0.29687,0.92187 0.29687,1.96875 0,2.48437 -1.23437,3.84375 -1.21875,1.35937 -2.95313,1.35937 -1.70312,0 -2.6875,-1.4375 z m -0.0156,-4.90625 q 0,1.73438 0.48437,2.51563 0.76563,1.26562 2.09375,1.26562 1.07813,0 1.85938,-0.9375 0.78125,-0.9375 0.78125,-2.78125 0,-1.89062 -0.75,-2.79687 -0.75,-0.90625 -1.82813,-0.90625 -1.0625,0 -1.85937,0.9375 -0.78125,0.9375 -0.78125,2.70312 z m 15.21948,4.90625 v -1.42187 q -1.125,1.64062 -3.0625,1.64062 -0.85938,0 -1.60938,-0.32812 -0.73437,-0.32813 -1.09375,-0.82813 -0.35937,-0.5 -0.5,-1.21875 -0.10937,-0.46875 -0.10937,-1.53125 v -5.98437 h 1.64062 v 5.35937 q 0,1.28125 0.10938,1.73438 0.15625,0.64062 0.65625,1.01562 0.5,0.375 1.23437,0.375 0.73438,0 1.375,-0.375 0.65625,-0.39062 0.92188,-1.03125 0.26562,-0.65625 0.26562,-1.89062 v -5.1875 h 1.64063 v 9.67187 z m 4.43823,0 v -8.40625 h -1.45313 v -1.26562 h 1.45313 v -1.03125 q 0,-0.96875 0.17187,-1.45313 0.23438,-0.64062 0.82813,-1.03125 0.59375,-0.39062 1.67187,-0.39062 0.6875,0 1.53125,0.15625 l -0.25,1.4375 q -0.5,-0.0937 -0.95312,-0.0937 -0.75,0 -1.0625,0.32812 -0.3125,0.3125 -0.3125,1.1875 v 0.89063 h 1.89062 v 1.26562 h -1.89062 v 8.40625 z m 4.84607,0 v -8.40625 h -1.45313 v -1.26562 h 1.45313 v -1.03125 q 0,-0.96875 0.17187,-1.45313 0.23438,-0.64062 0.82813,-1.03125 0.59375,-0.39062 1.67187,-0.39062 0.6875,0 1.53125,0.15625 l -0.25,1.4375 q -0.5,-0.0937 -0.95312,-0.0937 -0.75,0 -1.0625,0.32812 -0.3125,0.3125 -0.3125,1.1875 v 0.89063 h 1.89062 v 1.26562 h -1.89062 v 8.40625 z m 11.41766,-3.10937 1.6875,0.20312 q -0.40625,1.48438 -1.48437,2.3125 -1.07813,0.8125 -2.76563,0.8125 -2.125,0 -3.375,-1.29687 -1.23437,-1.3125 -1.23437,-3.67188 0,-2.45312 1.25,-3.79687 1.26562,-1.34375 3.26562,-1.34375 1.9375,0 3.15625,1.32812 1.23438,1.3125 1.23438,3.70313 0,0.15625 0,0.4375 h -7.21875 q 0.0937,1.59375 0.90625,2.45312 0.8125,0.84375 2.01562,0.84375 0.90625,0 1.54688,-0.46875 0.64062,-0.48437 1.01562,-1.51562 z m -5.39062,-2.65625 h 5.40625 q -0.10938,-1.21875 -0.625,-1.82813 -0.78125,-0.95312 -2.03125,-0.95312 -1.125,0 -1.90625,0.76562 -0.76563,0.75 -0.84375,2.01563 z m 9.12573,5.76562 v -9.67187 h 1.46875 v 1.46875 q 0.5625,-1.03125 1.03125,-1.35938 0.48438,-0.32812 1.0625,-0.32812 0.82813,0 1.6875,0.53125 l -0.5625,1.51562 q -0.60937,-0.35937 -1.20312,-0.35937 -0.54688,0 -0.96875,0.32812 -0.42188,0.32813 -0.60938,0.89063 -0.28125,0.875 -0.28125,1.92187 v 5.0625 z"
     fill-rule="nonzero"
     id="path109" />
  <path
     fill="#000000"
     fill-opacity="0"
     d="M 810.79792,77.859581 464.97114,31.182421"
     fill-rule="evenodd"
     id="path111" />
  <path
     stroke="#000000"
     stroke-width="1"
     stroke-linejoin="round"
     stroke-linecap="butt"
     d="m 810.79792,77.859581 -339.8807,-45.8746"
     fill-rule="evenodd"
     id="path113" />
  <path
     fill="#000000"
     stroke="#000000"
     stroke-width="1"
     stroke-linecap="butt"
     d="m 471.13815,30.348091 -4.71826,1.02988 4.2764,2.24389 z"
     fill-rule="evenodd"
     id="path115" />
  <path
     fill="#cccccc"
     d="m 66.723754,371.4265 c 3.530052,0 6.391732,-2.86166 6.391732,-6.39172 h -6.391732 c 1.76503,0 3.195863,-1.43085 3.195863,-3.19587 0,-1.76504 -1.430832,-3.19586 -3.195863,-3.19586 h 6.391732 v -83.09253 0 c 0,-3.53006 2.861678,-6.39172 6.391732,-6.39172 H 220.61744 c 3.53006,0 6.39174,2.86166 6.39174,6.39172 0,3.53006 -2.86168,6.39173 -6.39174,6.39173 h -6.39172 v 83.09253 c 0,3.53006 -2.86168,6.39172 -6.39174,6.39172 z m 19.175195,-95.87598 v 0 c 0,3.53006 -2.861671,6.39172 -6.391732,6.39172 -1.76503,0 -3.19587,-1.43081 -3.19587,-3.19586 0,-1.76501 1.43084,-3.19586 3.19587,-3.19586 z"
     fill-rule="evenodd"
     id="path117" />
  <path
     fill="#a3a3a3"
     d="m 85.898949,275.55053 v 0 c 0,3.53006 -2.861671,6.39172 -6.391732,6.39172 -1.76503,0 -3.19587,-1.43081 -3.19587,-3.19586 0,-1.76501 1.43084,-3.19586 3.19587,-3.19586 z m -12.783463,89.48425 c 0,3.53006 -2.861679,6.39172 -6.391731,6.39172 -3.53006,0 -6.391732,-2.86166 -6.391732,-6.39172 0,-3.53006 2.861672,-6.39172 6.391732,-6.39172 v 0 c 1.76503,0 3.195862,1.43081 3.195862,3.19586 0,1.76501 -1.430832,3.19586 -3.195862,3.19586 z"
     fill-rule="evenodd"
     id="path119" />
  <path
     fill="#000000"
     fill-opacity="0"
     d="m 73.115484,358.64305 v -83.09253 0 c 0,-3.53006 2.861679,-6.39172 6.391731,-6.39172 H 220.61744 c 3.53006,0 6.39174,2.86166 6.39174,6.39172 0,3.53006 -2.86168,6.39172 -6.39174,6.39172 h -6.39172 v 83.09253 c 0,3.53006 -2.86168,6.39173 -6.39174,6.39173 H 66.723753 c -3.53006,0 -6.391732,-2.86167 -6.391732,-6.39173 0,-3.53006 2.861672,-6.39172 6.391732,-6.39172 z m 6.391731,-89.48425 v 0 c 3.530061,0 6.391733,2.86166 6.391733,6.39172 0,3.53006 -2.861672,6.39173 -6.391733,6.39173 -1.765029,0 -3.195869,-1.43082 -3.195869,-3.19586 0,-1.76502 1.43084,-3.19587 3.195869,-3.19587 h 6.391733 m 128.326772,6.39173 H 79.507227 m -12.783462,76.7008 v 0 c 1.765029,0 3.19586,1.43082 3.19586,3.19586 0,1.76502 -1.430831,3.19587 -3.19586,3.19587 h 6.391731 m -6.391731,6.39172 c 3.530052,0 6.391731,-2.86166 6.391731,-6.39172 v -6.39173"
     fill-rule="evenodd"
     id="path121" />
  <path
     stroke="#000000"
     stroke-width="1"
     stroke-linejoin="round"
     stroke-linecap="butt"
     d="m 73.115484,358.64305 v -83.09253 0 c 0,-3.53006 2.861679,-6.39172 6.391731,-6.39172 H 220.61744 c 3.53006,0 6.39174,2.86166 6.39174,6.39172 0,3.53006 -2.86168,6.39172 -6.39174,6.39172 h -6.39172 v 83.09253 c 0,3.53006 -2.86168,6.39173 -6.39174,6.39173 H 66.723753 c -3.53006,0 -6.391732,-2.86167 -6.391732,-6.39173 0,-3.53006 2.861672,-6.39172 6.391732,-6.39172 z m 6.391731,-89.48425 v 0 c 3.530061,0 6.391733,2.86166 6.391733,6.39172 0,3.53006 -2.861672,6.39173 -6.391733,6.39173 -1.765029,0 -3.195869,-1.43082 -3.195869,-3.19586 0,-1.76502 1.43084,-3.19587 3.195869,-3.19587 h 6.391733 m 128.326772,6.39173 H 79.507227 m -12.783462,76.7008 v 0 c 1.765029,0 3.19586,1.43082 3.19586,3.19586 0,1.76502 -1.430831,3.19587 -3.19586,3.19587 h 6.391731 m -6.391731,6.39172 c 3.530052,0 6.391731,-2.86166 6.391731,-6.39172 v -6.39173"
     fill-rule="evenodd"
     id="path123" />
  <path
     fill="#000000"
     d="m 84.613405,316.5179 1.625,-0.25 q 0.125,0.96875 0.75,1.5 0.625,0.51562 1.75,0.51562 1.125,0 1.671875,-0.45312 0.546875,-0.46875 0.546875,-1.09375 0,-0.54688 -0.484375,-0.875 -0.328125,-0.21875 -1.671875,-0.54688 -1.8125,-0.46875 -2.515625,-0.79687 -0.6875,-0.32813 -1.046875,-0.90625 -0.359375,-0.59375 -0.359375,-1.3125 0,-0.64063 0.296875,-1.1875 0.296875,-0.5625 0.8125,-0.92188 0.375,-0.28125 1.03125,-0.46875 0.671875,-0.20312 1.421875,-0.20312 1.140625,0 2,0.32812 0.859375,0.32813 1.265625,0.89063 0.42188,0.5625 0.57813,1.5 l -1.60938,0.21875 q -0.109375,-0.75 -0.640625,-1.17188 -0.515625,-0.42187 -1.46875,-0.42187 -1.140625,0 -1.625,0.375 -0.46875,0.375 -0.46875,0.875 0,0.3125 0.1875,0.57812 0.203125,0.26563 0.640625,0.4375 0.234375,0.0937 1.4375,0.42188 1.75,0.45312 2.4375,0.75 0.6875,0.29687 1.07813,0.85937 0.39062,0.5625 0.39062,1.40625 0,0.82813 -0.48437,1.54688 -0.46875,0.71875 -1.375005,1.125 -0.90625,0.39062 -2.046875,0.39062 -1.875,0 -2.875,-0.78125 -0.984375,-0.78125 -1.25,-2.32812 z m 13.5625,1.42187 0.23438,1.45313 q -0.6875,0.14062 -1.23438,0.14062 -0.89062,0 -1.39062,-0.28125 -0.48438,-0.28125 -0.6875,-0.73437 -0.20313,-0.46875 -0.20313,-1.9375 v -5.57813 h -1.20312 v -1.26562 h 1.20312 v -2.39063 l 1.625,-0.98437 v 3.375 h 1.65625 v 1.26562 h -1.65625 v 5.67188 q 0,0.6875 0.0781,0.89062 0.0937,0.20313 0.28125,0.32813 0.20312,0.10937 0.57812,0.10937 0.26563,0 0.71875,-0.0625 z m 7.917675,0.28125 q -0.92188,0.76563 -1.76563,1.09375 -0.82812,0.3125 -1.79687,0.3125 -1.59375,0 -2.45313,-0.78125 -0.859365,-0.78125 -0.859365,-1.98437 0,-0.71875 0.32812,-1.29688 0.32813,-0.59375 0.843745,-0.9375 0.53125,-0.35937 1.1875,-0.54687 0.46875,-0.125 1.45313,-0.25 1.98437,-0.23438 2.92187,-0.5625 0.0156,-0.34375 0.0156,-0.42188 0,-1 -0.46875,-1.42187 -0.625,-0.54688 -1.875,-0.54688 -1.15625,0 -1.70313,0.40625 -0.54687,0.40625 -0.8125,1.42188 l -1.609365,-0.21875 q 0.21875,-1.01563 0.718745,-1.64063 0.5,-0.64062 1.45312,-0.98437 0.95313,-0.34375 2.1875,-0.34375 1.25,0 2.01563,0.29687 0.78125,0.28125 1.14062,0.73438 0.375,0.4375 0.51563,1.10937 0.0781,0.42188 0.0781,1.51563 v 2.1875 q 0,2.28125 0.10938,2.89062 0.10937,0.59375 0.40625,1.15625 h -1.70313 q -0.26562,-0.51562 -0.32812,-1.1875 z m -0.14063,-3.67187 q -0.89062,0.375 -2.67187,0.625 -1.01563,0.14062 -1.4375,0.32812 -0.42188,0.1875 -0.65625,0.53125 -0.21875,0.34375 -0.21875,0.78125 0,0.65625 0.5,1.09375 0.5,0.4375 1.45312,0.4375 0.9375,0 1.67188,-0.40625 0.75,-0.42187 1.09375,-1.14062 0.26562,-0.5625 0.26562,-1.64063 z m 4.15697,4.85937 v -13.35937 h 1.64063 v 13.35937 z m 4.14482,0 v -13.35937 h 1.64063 v 13.35937 z m 10.8167,-3.10937 1.6875,0.20312 q -0.40625,1.48438 -1.48438,2.3125 -1.07812,0.8125 -2.76562,0.8125 -2.125,0 -3.375,-1.29687 -1.23438,-1.3125 -1.23438,-3.67188 0,-2.45312 1.25,-3.79687 1.26563,-1.34375 3.26563,-1.34375 1.9375,0 3.15625,1.32812 1.23437,1.3125 1.23437,3.70313 0,0.15625 0,0.4375 h -7.21875 q 0.0937,1.59375 0.90625,2.45312 0.8125,0.84375 2.01563,0.84375 0.90625,0 1.54687,-0.46875 0.64063,-0.48437 1.01563,-1.51562 z m -5.39063,-2.65625 h 5.40625 q -0.10937,-1.21875 -0.625,-1.82813 -0.78125,-0.95312 -2.03125,-0.95312 -1.125,0 -1.90625,0.76562 -0.76562,0.75 -0.84375,2.01563 z m 15.40697,5.76562 v -1.21875 q -0.90625,1.4375 -2.70313,1.4375 -1.15625,0 -2.125,-0.64062 -0.96875,-0.64063 -1.5,-1.78125 -0.53125,-1.14063 -0.53125,-2.625 0,-1.45313 0.48438,-2.625 0.48437,-1.1875 1.4375,-1.8125 0.96875,-0.625 2.17187,-0.625 0.875,0 1.54688,0.375 0.6875,0.35937 1.10937,0.95312 v -4.79687 h 1.64063 v 13.35937 z m -5.17188,-4.82812 q 0,1.85937 0.78125,2.78125 0.78125,0.92187 1.84375,0.92187 1.07813,0 1.82813,-0.875 0.75,-0.89062 0.75,-2.6875 0,-1.98437 -0.76563,-2.90625 -0.76562,-0.9375 -1.89062,-0.9375 -1.07813,0 -1.8125,0.89063 -0.73438,0.89062 -0.73438,2.8125 z m 15.96528,4.82812 h -1.51563 v -13.35937 h 1.64063 v 4.76562 q 1.04687,-1.29687 2.65625,-1.29687 0.89062,0 1.6875,0.35937 0.79687,0.35938 1.3125,1.01563 0.51562,0.64062 0.79687,1.5625 0.29688,0.92187 0.29688,1.96875 0,2.48437 -1.23438,3.84375 -1.21875,1.35937 -2.95312,1.35937 -1.70313,0 -2.6875,-1.4375 z m -0.0156,-4.90625 q 0,1.73438 0.48438,2.51563 0.76562,1.26562 2.09375,1.26562 1.07812,0 1.85937,-0.9375 0.78125,-0.9375 0.78125,-2.78125 0,-1.89062 -0.75,-2.79687 -0.75,-0.90625 -1.82812,-0.90625 -1.0625,0 -1.85938,0.9375 -0.78125,0.9375 -0.78125,2.70312 z m 8.84447,4.90625 v -13.35937 h 1.64062 v 13.35937 z m 3.58232,-4.84375 q 0,-2.6875 1.48437,-3.96875 1.25,-1.07812 3.04688,-1.07812 2,0 3.26562,1.3125 1.26563,1.29687 1.26563,3.60937 0,1.85938 -0.5625,2.9375 -0.5625,1.0625 -1.64063,1.65625 -1.0625,0.59375 -2.32812,0.59375 -2.03125,0 -3.28125,-1.29687 -1.25,-1.3125 -1.25,-3.76563 z m 1.6875,0 q 0,1.85938 0.79687,2.79688 0.8125,0.92187 2.04688,0.92187 1.21875,0 2.03125,-0.92187 0.8125,-0.9375 0.8125,-2.84375 0,-1.79688 -0.8125,-2.71875 -0.8125,-0.92188 -2.03125,-0.92188 -1.23438,0 -2.04688,0.92188 -0.79687,0.90625 -0.79687,2.76562 z m 15.61009,3.65625 q -0.92187,0.76563 -1.76562,1.09375 -0.82813,0.3125 -1.79688,0.3125 -1.59375,0 -2.45312,-0.78125 -0.85938,-0.78125 -0.85938,-1.98437 0,-0.71875 0.32813,-1.29688 0.32812,-0.59375 0.84375,-0.9375 0.53125,-0.35937 1.1875,-0.54687 0.46875,-0.125 1.45312,-0.25 1.98438,-0.23438 2.92188,-0.5625 0.0156,-0.34375 0.0156,-0.42188 0,-1 -0.46875,-1.42187 -0.625,-0.54688 -1.875,-0.54688 -1.15625,0 -1.70312,0.40625 -0.54688,0.40625 -0.8125,1.42188 l -1.60938,-0.21875 q 0.21875,-1.01563 0.71875,-1.64063 0.5,-0.64062 1.45313,-0.98437 0.95312,-0.34375 2.1875,-0.34375 1.25,0 2.01562,0.29687 0.78125,0.28125 1.14063,0.73438 0.375,0.4375 0.51562,1.10937 0.0781,0.42188 0.0781,1.51563 v 2.1875 q 0,2.28125 0.10937,2.89062 0.10938,0.59375 0.40625,1.15625 h -1.70312 q -0.26563,-0.51562 -0.32813,-1.1875 z m -0.14062,-3.67187 q -0.89063,0.375 -2.67188,0.625 -1.01562,0.14062 -1.4375,0.32812 -0.42187,0.1875 -0.65625,0.53125 -0.21875,0.34375 -0.21875,0.78125 0,0.65625 0.5,1.09375 0.5,0.4375 1.45313,0.4375 0.9375,0 1.67187,-0.40625 0.75,-0.42187 1.09375,-1.14062 0.26563,-0.5625 0.26563,-1.64063 z m 7.78196,3.39062 0.23438,1.45313 q -0.6875,0.14062 -1.23438,0.14062 -0.89062,0 -1.39062,-0.28125 -0.48438,-0.28125 -0.6875,-0.73437 -0.20313,-0.46875 -0.20313,-1.9375 v -5.57813 h -1.20312 v -1.26562 h 1.20312 v -2.39063 l 1.625,-0.98437 v 3.375 h 1.65625 v 1.26562 h -1.65625 v 5.67188 q 0,0.6875 0.0781,0.89062 0.0937,0.20313 0.28125,0.32813 0.20312,0.10937 0.57812,0.10937 0.26563,0 0.71875,-0.0625 z m 6.78849,-10 v -1.89062 h 1.64062 v 1.89062 z m 0,11.46875 v -9.67187 h 1.64062 v 9.67187 z m 4.14482,0 v -9.67187 h 1.46875 v 1.375 q 1.0625,-1.59375 3.07812,-1.59375 0.875,0 1.60938,0.3125 0.73437,0.3125 1.09375,0.82812 0.375,0.5 0.51562,1.20313 0.0937,0.45312 0.0937,1.59375 v 5.95312 h -1.64062 v -5.89062 q 0,-1 -0.20313,-1.48438 -0.1875,-0.5 -0.67187,-0.79687 -0.48438,-0.29688 -1.14063,-0.29688 -1.04687,0 -1.8125,0.67188 -0.75,0.65625 -0.75,2.51562 v 5.28125 z"
     fill-rule="nonzero"
     id="path125" />
  <path
     fill="#000000"
     d="m 109.23948,339.93978 0.23437,1.45313 q -0.6875,0.14062 -1.23437,0.14062 -0.89063,0 -1.39063,-0.28125 -0.48437,-0.28125 -0.6875,-0.73437 -0.20312,-0.46875 -0.20312,-1.9375 v -5.57813 h -1.20313 v -1.26562 h 1.20313 v -2.39063 l 1.625,-0.98437 v 3.375 h 1.65625 v 1.26562 h -1.65625 v 5.67188 q 0,0.6875 0.0781,0.89062 0.0937,0.20313 0.28125,0.32813 0.20313,0.10937 0.57813,0.10937 0.26562,0 0.71875,-0.0625 z m 1.60517,1.46875 v -13.35937 h 1.64063 v 4.79687 q 1.14062,-1.32812 2.89062,-1.32812 1.07813,0 1.85938,0.42187 0.79687,0.42188 1.14062,1.17188 0.34375,0.75 0.34375,2.17187 v 6.125 h -1.64062 v -6.125 q 0,-1.23437 -0.53125,-1.79687 -0.53125,-0.5625 -1.51563,-0.5625 -0.71875,0 -1.35937,0.39062 -0.64063,0.375 -0.92188,1.01563 -0.26562,0.64062 -0.26562,1.78125 v 5.29687 z m 17.00073,-3.10937 1.6875,0.20312 q -0.40625,1.48438 -1.48438,2.3125 -1.07812,0.8125 -2.76562,0.8125 -2.125,0 -3.375,-1.29687 -1.23438,-1.3125 -1.23438,-3.67188 0,-2.45312 1.25,-3.79687 1.26563,-1.34375 3.26563,-1.34375 1.9375,0 3.15625,1.32812 1.23437,1.3125 1.23437,3.70313 0,0.15625 0,0.4375 H 122.361 q 0.0937,1.59375 0.90625,2.45312 0.8125,0.84375 2.01563,0.84375 0.90625,0 1.54687,-0.46875 0.64063,-0.48437 1.01563,-1.51562 z m -5.39063,-2.65625 h 5.40625 q -0.10937,-1.21875 -0.625,-1.82813 -0.78125,-0.95312 -2.03125,-0.95312 -1.125,0 -1.90625,0.76562 -0.76562,0.75 -0.84375,2.01563 z m 15.82463,5.76562 h -1.5156 v -13.35937 h 1.6406 v 4.76562 q 1.04688,-1.29687 2.65625,-1.29687 0.89063,0 1.6875,0.35937 0.79688,0.35938 1.3125,1.01563 0.51563,0.64062 0.79688,1.5625 0.29687,0.92187 0.29687,1.96875 0,2.48437 -1.23437,3.84375 -1.21875,1.35937 -2.95313,1.35937 -1.70312,0 -2.6875,-1.4375 z m -0.0156,-4.90625 q 0,1.73438 0.48437,2.51563 0.76563,1.26562 2.09375,1.26562 1.07813,0 1.85938,-0.9375 0.78125,-0.9375 0.78125,-2.78125 0,-1.89062 -0.75,-2.79687 -0.75,-0.90625 -1.82813,-0.90625 -1.0625,0 -1.85937,0.9375 -0.78125,0.9375 -0.78125,2.70312 z m 15.21947,4.90625 v -1.42187 q -1.125,1.64062 -3.0625,1.64062 -0.85938,0 -1.60938,-0.32812 -0.73437,-0.32813 -1.09375,-0.82813 -0.35937,-0.5 -0.5,-1.21875 -0.10937,-0.46875 -0.10937,-1.53125 v -5.98437 h 1.64062 v 5.35937 q 0,1.28125 0.10938,1.73438 0.15625,0.64062 0.65625,1.01562 0.5,0.375 1.23437,0.375 0.73438,0 1.375,-0.375 0.65625,-0.39062 0.92188,-1.03125 0.26562,-0.65625 0.26562,-1.89062 v -5.1875 h 1.64063 v 9.67187 z m 4.43821,0 v -8.40625 h -1.45312 v -1.26562 h 1.45312 v -1.03125 q 0,-0.96875 0.17188,-1.45313 0.23437,-0.64062 0.82812,-1.03125 0.59375,-0.39062 1.67188,-0.39062 0.6875,0 1.53125,0.15625 l -0.25,1.4375 q -0.5,-0.0937 -0.95313,-0.0937 -0.75,0 -1.0625,0.32812 -0.3125,0.3125 -0.3125,1.1875 v 0.89063 h 1.89063 v 1.26562 h -1.89063 v 8.40625 z m 4.84607,0 v -8.40625 h -1.45312 v -1.26562 h 1.45312 v -1.03125 q 0,-0.96875 0.17188,-1.45313 0.23437,-0.64062 0.82812,-1.03125 0.59375,-0.39062 1.67188,-0.39062 0.6875,0 1.53125,0.15625 l -0.25,1.4375 q -0.5,-0.0937 -0.95313,-0.0937 -0.75,0 -1.0625,0.32812 -0.3125,0.3125 -0.3125,1.1875 v 0.89063 h 1.89063 v 1.26562 h -1.89063 v 8.40625 z m 11.41768,-3.10937 1.6875,0.20312 q -0.40625,1.48438 -1.48437,2.3125 -1.07813,0.8125 -2.76563,0.8125 -2.125,0 -3.375,-1.29687 -1.23437,-1.3125 -1.23437,-3.67188 0,-2.45312 1.25,-3.79687 1.26562,-1.34375 3.26562,-1.34375 1.9375,0 3.15625,1.32812 1.23438,1.3125 1.23438,3.70313 0,0.15625 0,0.4375 h -7.21875 q 0.0937,1.59375 0.90625,2.45312 0.8125,0.84375 2.01562,0.84375 0.90625,0 1.54688,-0.46875 0.64062,-0.48437 1.01562,-1.51562 z m -5.39062,-2.65625 h 5.40625 q -0.10938,-1.21875 -0.625,-1.82813 -0.78125,-0.95312 -2.03125,-0.95312 -1.125,0 -1.90625,0.76562 -0.76563,0.75 -0.84375,2.01563 z m 9.12571,5.76562 v -9.67187 h 1.46875 v 1.46875 q 0.5625,-1.03125 1.03125,-1.35938 0.48438,-0.32812 1.0625,-0.32812 0.82813,0 1.6875,0.53125 l -0.5625,1.51562 q -0.60937,-0.35937 -1.20312,-0.35937 -0.54688,0 -0.96875,0.32812 -0.42188,0.32813 -0.60938,0.89063 -0.28125,0.875 -0.28125,1.92187 v 5.0625 z"
     fill-rule="nonzero"
     id="path127" />
  <path
     fill="#000000"
     fill-opacity="0"
     d="m 214.22572,320.29265 174.04726,10.51968"
     fill-rule="evenodd"
     id="path129" />
  <path
     stroke="#000000"
     stroke-width="1"
     stroke-linejoin="round"
     stroke-linecap="butt"
     d="M 214.22572,320.29265 382.2839,330.45033"
     fill-rule="evenodd"
     id="path131" />
  <path
     fill="#000000"
     stroke="#000000"
     stroke-width="1"
     stroke-linecap="butt"
     d="m 382.18422,332.09908 4.62949,-1.37494 -4.43018,-1.92251 z"
     fill-rule="evenodd"
     id="path133" />
  <path
     fill="#cccccc"
     d="m 486.66602,197.86745 c 3.53006,0 6.39172,-2.86166 6.39172,-6.39172 h -6.39172 c 1.76501,0 3.19586,-1.43085 3.19586,-3.19587 0,-1.76504 -1.43085,-3.19586 -3.19586,-3.19586 h 6.39172 v -83.09253 0 c 0,-3.530059 2.8617,-6.391739 6.39173,-6.391739 H 640.5597 c 3.53009,0 6.39172,2.86168 6.39172,6.391739 0,3.53006 -2.86163,6.39173 -6.39172,6.39173 h -6.39173 v 83.09253 c 0,3.53006 -2.86169,6.39172 -6.39172,6.39172 z m 19.17517,-95.87598 v 0 c 0,3.53006 -2.86166,6.39172 -6.39172,6.39172 -1.76502,0 -3.19587,-1.43083 -3.19587,-3.19586 0,-1.76503 1.43085,-3.19586 3.19587,-3.19586 z"
     fill-rule="evenodd"
     id="path135" />
  <path
     fill="#a3a3a3"
     d="m 505.84118,101.99147 v 0 c 0,3.53006 -2.86166,6.39172 -6.39172,6.39172 -1.76502,0 -3.19587,-1.43083 -3.19587,-3.19586 0,-1.76503 1.43085,-3.19586 3.19587,-3.19586 z m -12.78345,89.48425 c 0,3.53006 -2.86166,6.39172 -6.39172,6.39172 -3.53006,0 -6.39172,-2.86166 -6.39172,-6.39172 0,-3.53006 2.86166,-6.39172 6.39172,-6.39172 v 0 c 1.76501,0 3.19586,1.43081 3.19586,3.19586 0,1.76501 -1.43085,3.19586 -3.19586,3.19586 z"
     fill-rule="evenodd"
     id="path137" />
  <path
     fill="#000000"
     fill-opacity="0"
     d="m 493.05772,185.084 v -83.09253 0 c 0,-3.530059 2.86169,-6.391739 6.39172,-6.391739 h 141.11023 c 3.53009,0 6.39173,2.86168 6.39173,6.391739 0,3.53006 -2.86164,6.39172 -6.39173,6.39172 h -6.39172 v 83.09253 c 0,3.53006 -2.86169,6.39173 -6.39172,6.39173 H 486.666 c -3.53006,0 -6.39173,-2.86167 -6.39173,-6.39173 0,-3.53006 2.86167,-6.39172 6.39173,-6.39172 z m 6.39172,-89.484269 v 0 c 3.53006,0 6.39173,2.86168 6.39173,6.391739 0,3.53006 -2.86167,6.39172 -6.39173,6.39172 -1.76501,0 -3.19586,-1.43083 -3.19586,-3.19586 0,-1.76503 1.43085,-3.19586 3.19586,-3.19586 h 6.39173 m 128.32678,6.39172 H 499.44945 M 486.666,185.084 v 0 c 1.76501,0 3.19586,1.43082 3.19586,3.19586 0,1.76501 -1.43085,3.19586 -3.19586,3.19586 h 6.39172 m -6.39172,6.39173 c 3.53006,0 6.39172,-2.86167 6.39172,-6.39173 V 185.084"
     fill-rule="evenodd"
     id="path139" />
  <path
     stroke="#000000"
     stroke-width="1"
     stroke-linejoin="round"
     stroke-linecap="butt"
     d="m 493.05772,185.084 v -83.09253 0 c 0,-3.530059 2.86169,-6.391739 6.39172,-6.391739 h 141.11023 c 3.53009,0 6.39173,2.86168 6.39173,6.391739 0,3.53006 -2.86164,6.39172 -6.39173,6.39172 h -6.39172 v 83.09253 c 0,3.53006 -2.86169,6.39173 -6.39172,6.39173 H 486.666 c -3.53006,0 -6.39173,-2.86167 -6.39173,-6.39173 0,-3.53006 2.86167,-6.39172 6.39173,-6.39172 z m 6.39172,-89.484269 v 0 c 3.53006,0 6.39173,2.86168 6.39173,6.391739 0,3.53006 -2.86167,6.39172 -6.39173,6.39172 -1.76501,0 -3.19586,-1.43083 -3.19586,-3.19586 0,-1.76503 1.43085,-3.19586 3.19586,-3.19586 h 6.39173 m 128.32678,6.39172 H 499.44945 M 486.666,185.084 v 0 c 1.76501,0 3.19586,1.43082 3.19586,3.19586 0,1.76501 -1.43085,3.19586 -3.19586,3.19586 h 6.39172 m -6.39172,6.39173 c 3.53006,0 6.39172,-2.86167 6.39172,-6.39173 V 185.084"
     fill-rule="evenodd"
     id="path141" />
  <path
     fill="#000000"
     d="m 523.87272,145.38071 v -1.89063 h 1.64062 v 1.89063 z m 0,11.46875 v -9.67188 h 1.64062 v 9.67188 z m 4.14478,0 v -9.67188 h 1.46875 v 1.375 q 1.0625,-1.59375 3.07812,-1.59375 0.875,0 1.60938,0.3125 0.73437,0.3125 1.09375,0.82813 0.375,0.5 0.51562,1.20312 0.0937,0.45313 0.0937,1.59375 v 5.95313 h -1.64062 v -5.89063 q 0,-1 -0.20313,-1.48437 -0.1875,-0.5 -0.67187,-0.79688 -0.48438,-0.29687 -1.14063,-0.29687 -1.04687,0 -1.8125,0.67187 -0.75,0.65625 -0.75,2.51563 v 5.28125 z m 10.37573,3.70311 v -13.37499 h 1.48437 v 1.25 q 0.53125,-0.73437 1.1875,-1.09375 0.67188,-0.375 1.625,-0.375 1.23438,0 2.17188,0.64063 0.95312,0.625 1.4375,1.79687 0.48437,1.15625 0.48437,2.54688 0,1.48437 -0.53125,2.67187 -0.53125,1.1875 -1.54687,1.82813 -1.01563,0.625 -2.14063,0.625 -0.8125,0 -1.46875,-0.34375 -0.65625,-0.34375 -1.0625,-0.875 v 4.70311 z m 1.48437,-8.48436 q 0,1.85937 0.75,2.76562 0.76563,0.89063 1.82813,0.89063 1.09375,0 1.875,-0.92188 0.78125,-0.9375 0.78125,-2.875 0,-1.84375 -0.76563,-2.76562 -0.75,-0.92188 -1.8125,-0.92188 -1.04687,0 -1.85937,0.98438 -0.79688,0.96875 -0.79688,2.84375 z m 15.21948,4.78125 v -1.42188 q -1.125,1.64063 -3.0625,1.64063 -0.85937,0 -1.60937,-0.32813 -0.73438,-0.32812 -1.09375,-0.82812 -0.35938,-0.5 -0.5,-1.21875 -0.10938,-0.46875 -0.10938,-1.53125 v -5.98438 h 1.64063 v 5.35938 q 0,1.28125 0.10937,1.73437 0.15625,0.64063 0.65625,1.01563 0.5,0.375 1.23438,0.375 0.73437,0 1.375,-0.375 0.65625,-0.39063 0.92187,-1.03125 0.26563,-0.65625 0.26563,-1.89063 v -5.1875 h 1.64062 v 9.67188 z m 7.62574,-1.46875 0.23437,1.45312 q -0.6875,0.14063 -1.23437,0.14063 -0.89063,0 -1.39063,-0.28125 -0.48437,-0.28125 -0.6875,-0.73438 -0.20312,-0.46875 -0.20312,-1.9375 v -5.57812 h -1.20313 v -1.26563 h 1.20313 v -2.39062 l 1.625,-0.98438 v 3.375 h 1.65625 v 1.26563 h -1.65625 v 5.67187 q 0,0.6875 0.0781,0.89063 0.0937,0.20312 0.28125,0.32812 0.20313,0.10938 0.57813,0.10938 0.26562,0 0.71875,-0.0625 z m 13.05407,1.46875 v -1.21875 q -0.90625,1.4375 -2.70312,1.4375 -1.15625,0 -2.125,-0.64063 -0.96875,-0.64062 -1.5,-1.78125 -0.53125,-1.14062 -0.53125,-2.625 0,-1.45312 0.48437,-2.625 0.48438,-1.1875 1.4375,-1.8125 0.96875,-0.625 2.17188,-0.625 0.875,0 1.54687,0.375 0.6875,0.35938 1.10938,0.95313 v -4.79688 h 1.64062 v 13.35938 z m -5.17187,-4.82813 q 0,1.85938 0.78125,2.78125 0.78125,0.92188 1.84375,0.92188 1.07812,0 1.82812,-0.875 0.75,-0.89063 0.75,-2.6875 0,-1.98438 -0.76562,-2.90625 -0.76563,-0.9375 -1.89063,-0.9375 -1.07812,0 -1.8125,0.89062 -0.73437,0.89063 -0.73437,2.8125 z m 15.59448,3.64063 q -0.92187,0.76562 -1.76562,1.09375 -0.82813,0.3125 -1.79688,0.3125 -1.59375,0 -2.45312,-0.78125 -0.85938,-0.78125 -0.85938,-1.98438 0,-0.71875 0.32813,-1.29687 0.32812,-0.59375 0.84375,-0.9375 0.53125,-0.35938 1.1875,-0.54688 0.46875,-0.125 1.45312,-0.25 1.98438,-0.23437 2.92188,-0.5625 0.0156,-0.34375 0.0156,-0.42187 0,-1 -0.46875,-1.42188 -0.625,-0.54687 -1.875,-0.54687 -1.15625,0 -1.70312,0.40625 -0.54688,0.40625 -0.8125,1.42187 l -1.60938,-0.21875 q 0.21875,-1.01562 0.71875,-1.64062 0.5,-0.64063 1.45313,-0.98438 0.95312,-0.34375 2.1875,-0.34375 1.25,0 2.01562,0.29688 0.78125,0.28125 1.14063,0.73437 0.375,0.4375 0.51562,1.10938 0.0781,0.42187 0.0781,1.51562 v 2.1875 q 0,2.28125 0.10937,2.89063 0.10938,0.59375 0.40625,1.15625 h -1.70312 q -0.26563,-0.51563 -0.32813,-1.1875 z m -0.14062,-3.67188 q -0.89063,0.375 -2.67188,0.625 -1.01562,0.14063 -1.4375,0.32813 -0.42187,0.1875 -0.65625,0.53125 -0.21875,0.34375 -0.21875,0.78125 0,0.65625 0.5,1.09375 0.5,0.4375 1.45313,0.4375 0.9375,0 1.67187,-0.40625 0.75,-0.42188 1.09375,-1.14063 0.26563,-0.5625 0.26563,-1.64062 z m 7.78198,3.39063 0.23437,1.45312 q -0.6875,0.14063 -1.23437,0.14063 -0.89063,0 -1.39063,-0.28125 -0.48437,-0.28125 -0.6875,-0.73438 -0.20312,-0.46875 -0.20312,-1.9375 v -5.57812 h -1.20313 v -1.26563 h 1.20313 v -2.39062 l 1.625,-0.98438 v 3.375 h 1.65625 v 1.26563 h -1.65625 v 5.67187 q 0,0.6875 0.0781,0.89063 0.0937,0.20312 0.28125,0.32812 0.20313,0.10938 0.57813,0.10938 0.26562,0 0.71875,-0.0625 z m 7.91766,0.28125 q -0.92187,0.76562 -1.76562,1.09375 -0.82813,0.3125 -1.79688,0.3125 -1.59375,0 -2.45312,-0.78125 -0.85938,-0.78125 -0.85938,-1.98438 0,-0.71875 0.32813,-1.29687 0.32812,-0.59375 0.84375,-0.9375 0.53125,-0.35938 1.1875,-0.54688 0.46875,-0.125 1.45312,-0.25 1.98438,-0.23437 2.92188,-0.5625 0.0156,-0.34375 0.0156,-0.42187 0,-1 -0.46875,-1.42188 -0.625,-0.54687 -1.875,-0.54687 -1.15625,0 -1.70312,0.40625 -0.54688,0.40625 -0.8125,1.42187 l -1.60938,-0.21875 q 0.21875,-1.01562 0.71875,-1.64062 0.5,-0.64063 1.45313,-0.98438 0.95312,-0.34375 2.1875,-0.34375 1.25,0 2.01562,0.29688 0.78125,0.28125 1.14063,0.73437 0.375,0.4375 0.51562,1.10938 0.0781,0.42187 0.0781,1.51562 v 2.1875 q 0,2.28125 0.10937,2.89063 0.10938,0.59375 0.40625,1.15625 h -1.70312 q -0.26563,-0.51563 -0.32813,-1.1875 z m -0.14062,-3.67188 q -0.89063,0.375 -2.67188,0.625 -1.01562,0.14063 -1.4375,0.32813 -0.42187,0.1875 -0.65625,0.53125 -0.21875,0.34375 -0.21875,0.78125 0,0.65625 0.5,1.09375 0.5,0.4375 1.45313,0.4375 0.9375,0 1.67187,-0.40625 0.75,-0.42188 1.09375,-1.14063 0.26563,-0.5625 0.26563,-1.64062 z"
     fill-rule="nonzero"
     id="path143" />
  <path
     fill="#000000"
     fill-opacity="0"
     d="M 493.05772,146.7336 377.02623,156.96982"
     fill-rule="evenodd"
     id="path145" />
  <path
     stroke="#000000"
     stroke-width="1"
     stroke-linejoin="round"
     stroke-linecap="butt"
     d="M 493.05772,146.7336 383.003,156.44254"
     fill-rule="evenodd"
     id="path147" />
  <path
     fill="#000000"
     stroke="#000000"
     stroke-width="1"
     stroke-linecap="butt"
     d="m 382.85788,154.7972 -4.3754,2.04414 4.66571,1.24654 z"
     fill-rule="evenodd"
     id="path149" />
  <path
     fill="#cccccc"
     d="m 845.15417,284.54461 c 3.53009,0 6.39178,-2.86166 6.39178,-6.39172 h -6.39178 c 1.76508,0 3.19586,-1.43085 3.19586,-3.19587 0,-1.76501 -1.43078,-3.19586 -3.19586,-3.19586 h 6.39178 v -83.09253 0 c 0,-3.53006 2.86164,-6.39172 6.39173,-6.39172 h 141.11024 c 3.52998,0 6.39168,2.86166 6.39168,6.39172 0,3.53006 -2.8617,6.39176 -6.39168,6.39176 h -6.3917 v 83.0925 c 0,3.53006 -2.86173,6.39172 -6.39176,6.39172 z m 19.17523,-95.87598 v 0 c 0,3.53006 -2.86169,6.39175 -6.39172,6.39175 -1.76508,0 -3.19586,-1.43084 -3.19586,-3.19589 0,-1.76501 1.43078,-3.19586 3.19586,-3.19586 z"
     fill-rule="evenodd"
     id="path151" />
  <path
     fill="#a3a3a3"
     d="m 864.32942,188.66863 v 0 c 0,3.53006 -2.86169,6.39175 -6.39172,6.39175 -1.76508,0 -3.19587,-1.43084 -3.19587,-3.19589 0,-1.76501 1.43079,-3.19586 3.19587,-3.19586 z m -12.78345,89.48425 c 0,3.53006 -2.86169,6.39172 -6.39178,6.39172 -3.53003,0 -6.39173,-2.86166 -6.39173,-6.39172 0,-3.53006 2.8617,-6.39172 6.39173,-6.39172 v 0 c 1.76507,0 3.19586,1.43084 3.19586,3.19586 0,1.76501 -1.43079,3.19586 -3.19586,3.19586 z"
     fill-rule="evenodd"
     id="path153" />
  <path
     fill="#000000"
     fill-opacity="0"
     d="m 851.54595,271.76115 v -83.09253 0 c 0,-3.53006 2.86163,-6.39172 6.39172,-6.39172 h 141.11025 c 3.52998,0 6.39168,2.86166 6.39168,6.39172 0,3.53006 -2.8617,6.39175 -6.39168,6.39175 h -6.3917 v 83.0925 c 0,3.53006 -2.86173,6.39173 -6.39176,6.39173 H 845.15417 c -3.53003,0 -6.39173,-2.86167 -6.39173,-6.39173 0,-3.53006 2.8617,-6.39172 6.39173,-6.39172 z m 6.39172,-89.48425 v 0 c 3.53003,0 6.39173,2.86166 6.39173,6.39172 0,3.53006 -2.8617,6.39176 -6.39173,6.39176 -1.76507,0 -3.19586,-1.43085 -3.19586,-3.19589 0,-1.76502 1.43079,-3.19587 3.19586,-3.19587 h 6.39173 m 128.32682,6.39176 H 857.93768 m -12.78351,76.70077 v 0 c 1.76507,0 3.19586,1.43085 3.19586,3.19586 0,1.76502 -1.43079,3.19587 -3.19586,3.19587 h 6.39178 m -6.39178,6.39172 c 3.53009,0 6.39178,-2.86166 6.39178,-6.39172 v -6.39173"
     fill-rule="evenodd"
     id="path155" />
  <path
     stroke="#000000"
     stroke-width="1"
     stroke-linejoin="round"
     stroke-linecap="butt"
     d="m 851.54595,271.76115 v -83.09253 0 c 0,-3.53006 2.86163,-6.39172 6.39172,-6.39172 h 141.11025 c 3.52998,0 6.39168,2.86166 6.39168,6.39172 0,3.53006 -2.8617,6.39175 -6.39168,6.39175 h -6.3917 v 83.0925 c 0,3.53006 -2.86173,6.39173 -6.39176,6.39173 H 845.15417 c -3.53003,0 -6.39173,-2.86167 -6.39173,-6.39173 0,-3.53006 2.8617,-6.39172 6.39173,-6.39172 z m 6.39172,-89.48425 v 0 c 3.53003,0 6.39173,2.86166 6.39173,6.39172 0,3.53006 -2.8617,6.39176 -6.39173,6.39176 -1.76507,0 -3.19586,-1.43085 -3.19586,-3.19589 0,-1.76502 1.43079,-3.19587 3.19586,-3.19587 h 6.39173 m 128.32682,6.39176 H 857.93768 m -12.78351,76.70077 v 0 c 1.76507,0 3.19586,1.43085 3.19586,3.19586 0,1.76502 -1.43079,3.19587 -3.19586,3.19587 h 6.39178 m -6.39178,6.39172 c 3.53009,0 6.39178,-2.86166 6.39178,-6.39172 v -6.39173"
     fill-rule="evenodd"
     id="path157" />
  <path
     fill="#000000"
     d="m 876.04442,238.68288 q 0,-2.6875 1.48437,-3.96875 1.25,-1.07813 3.04688,-1.07813 2,0 3.26562,1.3125 1.26563,1.29688 1.26563,3.60938 0,1.85937 -0.5625,2.9375 -0.5625,1.0625 -1.64063,1.65625 -1.0625,0.59375 -2.32812,0.59375 -2.03125,0 -3.28125,-1.29688 -1.25,-1.3125 -1.25,-3.76562 z m 1.6875,0 q 0,1.85937 0.79687,2.79687 0.8125,0.92188 2.04688,0.92188 1.21875,0 2.03125,-0.92188 0.8125,-0.9375 0.8125,-2.84375 0,-1.79687 -0.8125,-2.71875 -0.8125,-0.92187 -2.03125,-0.92187 -1.23438,0 -2.04688,0.92187 -0.79687,0.90625 -0.79687,2.76563 z m 15.62573,4.84375 v -1.42188 q -1.125,1.64063 -3.0625,1.64063 -0.85937,0 -1.60937,-0.32813 -0.73438,-0.32812 -1.09375,-0.82812 -0.35938,-0.5 -0.5,-1.21875 -0.10938,-0.46875 -0.10938,-1.53125 v -5.98438 h 1.64063 v 5.35938 q 0,1.28125 0.10937,1.73437 0.15625,0.64063 0.65625,1.01563 0.5,0.375 1.23438,0.375 0.73437,0 1.375,-0.375 0.65625,-0.39063 0.92187,-1.03125 0.26563,-0.65625 0.26563,-1.89063 v -5.1875 h 1.64062 v 9.67188 z m 7.62567,-1.46875 0.23438,1.45312 q -0.6875,0.14063 -1.23438,0.14063 -0.89062,0 -1.39062,-0.28125 -0.48438,-0.28125 -0.6875,-0.73438 -0.20313,-0.46875 -0.20313,-1.9375 v -5.57812 h -1.20312 v -1.26563 h 1.20312 v -2.39062 l 1.625,-0.98438 v 3.375 h 1.65625 v 1.26563 h -1.65625 v 5.67187 q 0,0.6875 0.0781,0.89063 0.0937,0.20312 0.28125,0.32812 0.20312,0.10938 0.57812,0.10938 0.26563,0 0.71875,-0.0625 z m 1.60523,5.17187 v -13.375 h 1.48437 v 1.25 q 0.53125,-0.73437 1.1875,-1.09375 0.67188,-0.375 1.625,-0.375 1.23438,0 2.17188,0.64063 0.95312,0.625 1.4375,1.79687 0.48437,1.15625 0.48437,2.54688 0,1.48437 -0.53125,2.67187 -0.53125,1.1875 -1.54687,1.82813 -1.01563,0.625 -2.14063,0.625 -0.8125,0 -1.46875,-0.34375 -0.65625,-0.34375 -1.0625,-0.875 v 4.70312 z m 1.48437,-8.48437 q 0,1.85937 0.75,2.76562 0.76563,0.89063 1.82813,0.89063 1.09375,0 1.875,-0.92188 0.78125,-0.9375 0.78125,-2.875 0,-1.84375 -0.76563,-2.76562 -0.75,-0.92188 -1.8125,-0.92188 -1.04687,0 -1.85937,0.98438 -0.79688,0.96875 -0.79688,2.84375 z m 15.21948,4.78125 v -1.42188 q -1.125,1.64063 -3.0625,1.64063 -0.85943,0 -1.60943,-0.32813 -0.73438,-0.32812 -1.09375,-0.82812 -0.35938,-0.5 -0.5,-1.21875 -0.10938,-0.46875 -0.10938,-1.53125 v -5.98438 h 1.64063 v 5.35938 q 0,1.28125 0.10937,1.73437 0.15625,0.64063 0.65625,1.01563 0.50007,0.375 1.23444,0.375 0.73437,0 1.375,-0.375 0.65625,-0.39063 0.92187,-1.03125 0.26563,-0.65625 0.26563,-1.89063 v -5.1875 h 1.64062 v 9.67188 z m 7.62568,-1.46875 0.23437,1.45312 q -0.6875,0.14063 -1.23437,0.14063 -0.89063,0 -1.39063,-0.28125 -0.48437,-0.28125 -0.6875,-0.73438 -0.20312,-0.46875 -0.20312,-1.9375 v -5.57812 h -1.20313 v -1.26563 h 1.20313 v -2.39062 l 1.625,-0.98438 v 3.375 h 1.65625 v 1.26563 h -1.65625 v 5.67187 q 0,0.6875 0.0781,0.89063 0.0937,0.20312 0.28125,0.32812 0.20313,0.10938 0.57813,0.10938 0.26562,0 0.71875,-0.0625 z m 13.05413,1.46875 v -1.21875 q -0.90625,1.4375 -2.70312,1.4375 -1.15625,0 -2.125,-0.64063 -0.96875,-0.64062 -1.5,-1.78125 -0.53125,-1.14062 -0.53125,-2.625 0,-1.45312 0.48437,-2.625 0.48438,-1.1875 1.4375,-1.8125 0.96875,-0.625 2.17188,-0.625 0.875,0 1.54687,0.375 0.6875,0.35938 1.10938,0.95313 v -4.79688 h 1.64062 v 13.35938 z m -5.17187,-4.82813 q 0,1.85938 0.78125,2.78125 0.78125,0.92188 1.84375,0.92188 1.07812,0 1.82812,-0.875 0.75,-0.89063 0.75,-2.6875 0,-1.98438 -0.76562,-2.90625 -0.76563,-0.9375 -1.89063,-0.9375 -1.07812,0 -1.8125,0.89062 -0.73437,0.89063 -0.73437,2.8125 z m 15.59448,3.64063 q -0.92187,0.76562 -1.76562,1.09375 -0.82813,0.3125 -1.79688,0.3125 -1.59375,0 -2.45312,-0.78125 -0.85938,-0.78125 -0.85938,-1.98438 0,-0.71875 0.32813,-1.29687 0.32812,-0.59375 0.84375,-0.9375 0.53125,-0.35938 1.1875,-0.54688 0.46875,-0.125 1.45312,-0.25 1.98438,-0.23437 2.92188,-0.5625 0.0156,-0.34375 0.0156,-0.42187 0,-1 -0.46875,-1.42188 -0.625,-0.54687 -1.875,-0.54687 -1.15625,0 -1.70312,0.40625 -0.54688,0.40625 -0.8125,1.42187 l -1.60938,-0.21875 q 0.21875,-1.01562 0.71875,-1.64062 0.5,-0.64063 1.45313,-0.98438 0.95312,-0.34375 2.1875,-0.34375 1.25,0 2.01562,0.29688 0.78125,0.28125 1.14063,0.73437 0.375,0.4375 0.51562,1.10938 0.0781,0.42187 0.0781,1.51562 v 2.1875 q 0,2.28125 0.10937,2.89063 0.10938,0.59375 0.40625,1.15625 h -1.70312 q -0.26563,-0.51563 -0.32813,-1.1875 z m -0.14062,-3.67188 q -0.89063,0.375 -2.67188,0.625 -1.01562,0.14063 -1.4375,0.32813 -0.42187,0.1875 -0.65625,0.53125 -0.21875,0.34375 -0.21875,0.78125 0,0.65625 0.5,1.09375 0.5,0.4375 1.45313,0.4375 0.9375,0 1.67187,-0.40625 0.75,-0.42188 1.09375,-1.14063 0.26563,-0.5625 0.26563,-1.64062 z m 7.78192,3.39063 0.23437,1.45312 q -0.6875,0.14063 -1.23437,0.14063 -0.89063,0 -1.39063,-0.28125 -0.48437,-0.28125 -0.6875,-0.73438 -0.20312,-0.46875 -0.20312,-1.9375 v -5.57812 h -1.20313 v -1.26563 h 1.20313 v -2.39062 l 1.625,-0.98438 v 3.375 h 1.65625 v 1.26563 h -1.65625 v 5.67187 q 0,0.6875 0.0781,0.89063 0.0937,0.20312 0.28125,0.32812 0.20313,0.10938 0.57813,0.10938 0.26562,0 0.71875,-0.0625 z m 7.91772,0.28125 q -0.92187,0.76562 -1.76562,1.09375 -0.82813,0.3125 -1.79688,0.3125 -1.59375,0 -2.45312,-0.78125 -0.85938,-0.78125 -0.85938,-1.98438 0,-0.71875 0.32813,-1.29687 0.32812,-0.59375 0.84375,-0.9375 0.53125,-0.35938 1.1875,-0.54688 0.46875,-0.125 1.45312,-0.25 1.98438,-0.23437 2.92188,-0.5625 0.0156,-0.34375 0.0156,-0.42187 0,-1 -0.46875,-1.42188 -0.625,-0.54687 -1.875,-0.54687 -1.15625,0 -1.70312,0.40625 -0.54688,0.40625 -0.8125,1.42187 l -1.60938,-0.21875 q 0.21875,-1.01562 0.71875,-1.64062 0.5,-0.64063 1.45313,-0.98438 0.95312,-0.34375 2.1875,-0.34375 1.25,0 2.01562,0.29688 0.78125,0.28125 1.14063,0.73437 0.375,0.4375 0.51562,1.10938 0.0781,0.42187 0.0781,1.51562 v 2.1875 q 0,2.28125 0.10937,2.89063 0.10938,0.59375 0.40625,1.15625 h -1.70312 q -0.26563,-0.51563 -0.32813,-1.1875 z m -0.14062,-3.67188 q -0.89063,0.375 -2.67188,0.625 -1.01562,0.14063 -1.4375,0.32813 -0.42187,0.1875 -0.65625,0.53125 -0.21875,0.34375 -0.21875,0.78125 0,0.65625 0.5,1.09375 0.5,0.4375 1.45313,0.4375 0.9375,0 1.67187,-0.40625 0.75,-0.42188 1.09375,-1.14063 0.26563,-0.5625 0.26563,-1.64062 z"
     fill-rule="nonzero"
     id="path159" />
  <path
     fill="#000000"
     fill-opacity="0"
     d="m 922.10107,284.54461 5.10236,81.0394"
     fill-rule="evenodd"
     id="path161" />
  <path
     stroke="#000000"
     stroke-width="1"
     stroke-linejoin="round"
     stroke-linecap="butt"
     d="m 922.10107,284.54461 4.72528,75.05124"
     fill-rule="evenodd"
     id="path163" />
  <path
     fill="#000000"
     stroke="#000000"
     stroke-width="1"
     stroke-linecap="butt"
     d="m 925.17792,359.69963 1.93365,4.42535 1.36329,-4.63293 z"
     fill-rule="evenodd"
     id="path165" />
</svg>
