<?xml version="1.0" encoding="UTF-8" standalone="no"?>
<svg
   xmlns:dc="http://purl.org/dc/elements/1.1/"
   xmlns:cc="http://creativecommons.org/ns#"
   xmlns:rdf="http://www.w3.org/1999/02/22-rdf-syntax-ns#"
   xmlns:svg="http://www.w3.org/2000/svg"
   xmlns="http://www.w3.org/2000/svg"
   xmlns:sodipodi="http://sodipodi.sourceforge.net/DTD/sodipodi-0.dtd"
   xmlns:inkscape="http://www.inkscape.org/namespaces/inkscape"
   inkscape:version="1.0 (4035a4fb49, 2020-05-01)"
   height="440.91864"
   width="771.72833"
   sodipodi:docname="cpu-context-switch.svg"
   id="svg99"
   stroke-miterlimit="10"
   stroke-linecap="square"
   stroke="none"
   fill="none"
   viewBox="0 0 771.72833 440.91864"
   version="1.1">
  <metadata
     id="metadata105">
    <rdf:RDF>
      <cc:Work
         rdf:about="">
        <dc:format>image/svg+xml</dc:format>
        <dc:type
           rdf:resource="http://purl.org/dc/dcmitype/StillImage" />
        <dc:title></dc:title>
      </cc:Work>
    </rdf:RDF>
  </metadata>
  <defs
     id="defs103" />
  <sodipodi:namedview
     inkscape:current-layer="svg99"
     inkscape:window-maximized="0"
     inkscape:window-y="19"
     inkscape:window-x="3286"
     inkscape:cy="345.76045"
     inkscape:cx="664.00816"
     inkscape:zoom="1.0625016"
     showgrid="false"
     id="namedview101"
     inkscape:window-height="1059"
     inkscape:window-width="1918"
     inkscape:pageshadow="2"
     inkscape:pageopacity="0"
     guidetolerance="10"
     gridtolerance="10"
     objecttolerance="10"
     borderopacity="1"
     bordercolor="#666666"
     pagecolor="#ffffff" />
  <clipPath
     id="p.0">
    <path
       id="path2"
       clip-rule="nonzero"
       d="M 0,0 H 1024 V 768 H 0 Z" />
  </clipPath>
  <path
     fill="#000000"
     fill-opacity="0"
     d="m -37.33727,-41.072178 h 1024 V 726.92782 h -1024 z"
     fill-rule="evenodd"
     id="path5" />
  <g
     transform="translate(-37.33727,-41.072178)"
     id="g198">
    <path
       id="path7"
       fill-rule="evenodd"
       d="m 37.83727,41.572178 h 319.91525 l 38.00601,38.00601 V 269.60367 H 37.837272 Z"
       fill="#d9ead3" />
    <path
       id="path9"
       fill-rule="evenodd"
       d="m 37.83727,41.572178 h 319.91525 l 38.00601,38.00601 V 269.60367 H 37.837272 Z"
       stroke-linecap="butt"
       stroke-linejoin="round"
       stroke-width="1"
       stroke="#000000" />
    <path
       id="path11"
       fill-rule="nonzero"
       d="M 48.27477,87.49518 V 74.135805 h 5.046875 q 1.328125,0 2.03125,0.125 0.96875,0.171875 1.640625,0.640625 0.671875,0.453125 1.078125,1.28125 0.40625,0.828125 0.40625,1.828125 0,1.703125 -1.09375,2.890625 -1.078125,1.171875 -3.921875,1.171875 h -3.421875 v 5.421875 z m 1.765625,-7 h 3.453125 q 1.71875,0 2.4375,-0.640625 0.71875,-0.640625 0.71875,-1.796875 0,-0.84375 -0.421875,-1.4375 -0.421875,-0.59375 -1.125,-0.78125 -0.4375,-0.125 -1.640625,-0.125 h -3.421875 z m 10.974823,7 V 74.135805 h 1.765625 V 87.49518 Z m 4.886433,0 V 74.135805 h 4.609375 q 1.546875,0 2.375,0.203125 1.140625,0.25 1.953125,0.953125 1.0625,0.890625 1.578125,2.28125 0.53125,1.390625 0.53125,3.171875 0,1.515625 -0.359375,2.703125 -0.359375,1.171875 -0.921875,1.9375 -0.546875,0.765625 -1.203125,1.21875 -0.65625,0.4375 -1.59375,0.671875 -0.9375,0.21875 -2.140625,0.21875 z m 1.765625,-1.578125 h 2.859375 q 1.3125,0 2.0625,-0.234375 0.75,-0.25 1.203125,-0.703125 0.625,-0.625 0.96875,-1.6875 0.359375,-1.0625 0.359375,-2.578125 0,-2.09375 -0.6875,-3.21875 -0.6875,-1.125 -1.671875,-1.5 -0.703125,-0.28125 -2.28125,-0.28125 h -2.8125 z m 24.84375,0 v 1.578125 h -8.828125 q -0.01563,-0.59375 0.1875,-1.140625 0.34375,-0.90625 1.078125,-1.78125 0.75,-0.875 2.15625,-2.015625 2.171875,-1.78125 2.9375,-2.828125 0.765625,-1.046875 0.765625,-1.96875 0,-0.984375 -0.703125,-1.640625 -0.6875,-0.671875 -1.8125,-0.671875 -1.1875,0 -1.90625,0.71875 -0.703125,0.703125 -0.703125,1.953125 l -1.6875,-0.171875 q 0.171875,-1.890625 1.296875,-2.875 1.140625,-0.984375 3.03125,-0.984375 1.921875,0 3.046875,1.0625 1.125,1.0625 1.125,2.640625 0,0.796875 -0.328125,1.578125 -0.328125,0.78125 -1.09375,1.640625 -0.75,0.84375 -2.53125,2.34375 -1.46875,1.234375 -1.890625,1.6875 -0.421875,0.4375 -0.6875,0.875 z m 10.375714,0 v 1.578125 h -8.828122 q -0.01563,-0.59375 0.1875,-1.140625 0.34375,-0.90625 1.078125,-1.78125 0.75,-0.875 2.15625,-2.015625 2.171875,-1.78125 2.937497,-2.828125 0.76563,-1.046875 0.76563,-1.96875 0,-0.984375 -0.70313,-1.640625 -0.687497,-0.671875 -1.812497,-0.671875 -1.1875,0 -1.90625,0.71875 -0.703125,0.703125 -0.703125,1.953125 l -1.6875,-0.171875 q 0.171875,-1.890625 1.296875,-2.875 1.140625,-0.984375 3.03125,-0.984375 1.921877,0 3.046877,1.0625 1.125,1.0625 1.125,2.640625 0,0.796875 -0.32813,1.578125 -0.32812,0.78125 -1.09375,1.640625 -0.75,0.84375 -2.531247,2.34375 -1.46875,1.234375 -1.890625,1.6875 -0.421875,0.4375 -0.6875,0.875 z m 1.76634,-5.015625 q 0,-2.359375 0.48438,-3.796875 0.48437,-1.453125 1.4375,-2.234375 0.96875,-0.78125 2.42187,-0.78125 1.07813,0 1.89063,0.4375 0.8125,0.421875 1.32812,1.25 0.53125,0.8125 0.82813,1.984375 0.3125,1.15625 0.3125,3.140625 0,2.359375 -0.48438,3.8125 -0.48437,1.4375 -1.45312,2.234375 -0.95313,0.78125 -2.42188,0.78125 -1.92187,0 -3.03125,-1.390625 -1.3125,-1.671875 -1.3125,-5.4375 z m 1.67188,0 q 0,3.296875 0.76562,4.390625 0.78125,1.078125 1.90625,1.078125 1.14063,0 1.90625,-1.09375 0.76563,-1.09375 0.76563,-4.375 0,-3.296875 -0.76563,-4.375 -0.76562,-1.078125 -1.92187,-1.078125 -1.125,0 -1.79688,0.953125 -0.85937,1.21875 -0.85937,4.5 z m 13.95384,6.59375 v -3.203125 h -5.79687 v -1.5 l 6.09375,-8.65625 h 1.34375 v 8.65625 h 1.79687 v 1.5 h -1.79687 v 3.203125 z m 0,-4.703125 V 76.77643 l -4.1875,6.015625 z"
       fill="#000000" />
    <path
       id="path13"
       fill-rule="nonzero"
       d="m 49.352894,98.3858 v 1.90625 h -1.765625 v -1.515625 q 0,-1.21875 0.296875,-1.765625 0.390625,-0.71875 1.21875,-1.09375 l 0.390625,0.640625 q -0.5,0.203125 -0.734375,0.625 -0.234375,0.40625 -0.265625,1.203125 z m 2.828125,0 v 1.90625 h -1.765625 v -1.515625 q 0,-1.21875 0.296875,-1.765625 0.375,-0.71875 1.203125,-1.09375 l 0.40625,0.640625 q -0.5,0.203125 -0.734375,0.625 -0.234375,0.40625 -0.265625,1.203125 z m 2.493927,11.10938 v -8.40625 H 53.221821 V 99.8233 h 1.453125 v -1.03125 q 0,-0.96875 0.171875,-1.453125 0.234375,-0.640625 0.828125,-1.03125 0.59375,-0.390625 1.671875,-0.390625 0.6875,0 1.53125,0.15625 l -0.25,1.4375 q -0.5,-0.09375 -0.953125,-0.09375 -0.75,0 -1.0625,0.328125 -0.3125,0.3125 -0.3125,1.1875 V 99.8233 h 1.890625 v 1.26563 h -1.890625 v 8.40625 z M 59.467625,98.026425 V 96.1358 h 1.640625 v 1.890625 z m 0,11.468755 V 99.8233 h 1.640625 v 9.67188 z m 4.129196,0 V 99.8233 h 1.468754 v 1.46875 q 0.5625,-1.03125 1.03125,-1.359375 0.484375,-0.328125 1.0625,-0.328125 0.828125,0 1.6875,0.53125 l -0.5625,1.51563 q -0.609375,-0.35938 -1.203125,-0.35938 -0.546875,0 -0.96875,0.32813 -0.421875,0.32812 -0.609375,0.89062 -0.28125,0.875 -0.28125,1.92188 v 5.0625 z m 12.853306,-3.10938 1.6875,0.20313 q -0.40625,1.48437 -1.484375,2.3125 -1.078125,0.8125 -2.765625,0.8125 -2.125,0 -3.375,-1.29688 -1.234375,-1.3125 -1.234375,-3.67187 0,-2.45313 1.25,-3.79688 1.265625,-1.34375 3.265625,-1.34375 1.9375,0 3.15625,1.32813 1.234375,1.3125 1.234375,3.70312 0,0.15625 0,0.4375 h -7.21875 q 0.09375,1.59375 0.90625,2.45313 0.8125,0.84375 2.015625,0.84375 0.90625,0 1.546875,-0.46875 0.640625,-0.48438 1.015625,-1.51563 z m -5.390625,-2.65625 h 5.40625 q -0.109375,-1.21875 -0.625,-1.82812 -0.78125,-0.95313 -2.03125,-0.95313 -1.125,0 -1.90625,0.76563 -0.765625,0.75 -0.84375,2.01562 z m 9.531967,5.76563 v -8.40625 H 79.138344 V 99.8233 h 1.453125 v -1.03125 q 0,-0.96875 0.171875,-1.453125 0.234375,-0.640625 0.828125,-1.03125 0.59375,-0.390625 1.671875,-0.390625 0.6875,0 1.53125,0.15625 l -0.25,1.4375 q -0.5,-0.09375 -0.953125,-0.09375 -0.75,0 -1.0625,0.328125 -0.3125,0.3125 -0.3125,1.1875 V 99.8233 h 1.890625 v 1.26563 h -1.890625 v 8.40625 z m 4.183304,-4.84375 q 0,-2.6875 1.484375,-3.96875 1.25,-1.07813 3.046875,-1.07813 2,0 3.265625,1.3125 1.265625,1.29688 1.265625,3.60938 0,1.85937 -0.5625,2.9375 -0.5625,1.0625 -1.640625,1.65625 -1.0625,0.59375 -2.328125,0.59375 -2.03125,0 -3.28125,-1.29688 -1.25,-1.3125 -1.25,-3.76562 z m 1.6875,0 q 0,1.85937 0.796875,2.79687 0.8125,0.92188 2.046875,0.92188 1.21875,0 2.03125,-0.92188 0.8125,-0.9375 0.8125,-2.84375 0,-1.79687 -0.8125,-2.71875 -0.8125,-0.92187 -2.03125,-0.92187 -1.234375,0 -2.046875,0.92187 -0.796875,0.90625 -0.796875,2.76563 z m 8.203842,4.84375 3.53125,-5.03125 -3.265625,-4.64063 h 2.046875 l 1.484375,2.26563 q 0.421875,0.64062 0.671875,1.07812 0.40625,-0.59375 0.734375,-1.0625 l 1.64062,-2.28125 h 1.95313 l -3.34375,4.54688 3.59375,5.125 h -2.01563 l -1.98437,-3 -0.515625,-0.8125 -2.546875,3.8125 z M 104.65049,97.901425 V 96.0108 h 1.75 v 1.5 q 0,1.21875 -0.28125,1.75 -0.39063,0.75 -1.21875,1.10938 l -0.40625,-0.64063 q 0.5,-0.203125 0.73437,-0.625 0.25,-0.4375 0.28125,-1.203125 z m 2.8125,0 V 96.0108 h 1.76562 v 1.5 q 0,1.21875 -0.28125,1.75 -0.39062,0.75 -1.21875,1.10938 l -0.40625,-0.64063 q 0.5,-0.203125 0.73438,-0.625 0.25,-0.4375 0.26562,-1.203125 z"
       fill="#000000" />
    <path
       id="path15"
       fill-rule="evenodd"
       d="M 617.67194,210.80052 H 795.6247 V 388.75329 H 617.67194 Z"
       fill="#a4c2f4" />
    <path
       id="path17"
       fill-rule="evenodd"
       d="M 617.67194,210.80052 H 795.6247 V 388.75329 H 617.67194 Z"
       stroke-linecap="butt"
       stroke-linejoin="round"
       stroke-width="1"
       stroke="#000000" />
    <path
       id="path19"
       fill-rule="evenodd"
       d="M 617.67194,336.0735 H 795.6247 v 51.1181 H 617.67194 Z"
       fill-opacity="0"
       fill="#000000" />
    <path
       id="path21"
       fill-rule="nonzero"
       d="m 696.0434,364.20505 2.15625,0.54688 q -0.67187,2.64062 -2.4375,4.03125 -1.75,1.39062 -4.28125,1.39062 -2.625,0 -4.26562,-1.0625 -1.64063,-1.07812 -2.5,-3.09375 -0.85938,-2.03125 -0.85938,-4.35937 0,-2.53125 0.96875,-4.40625 0.96875,-1.89063 2.75,-2.875 1.79688,-0.98438 3.9375,-0.98438 2.4375,0 4.09375,1.25 1.65625,1.23438 2.3125,3.48438 l -2.10937,0.5 q -0.5625,-1.78125 -1.64063,-2.57813 -1.07812,-0.8125 -2.70312,-0.8125 -1.85938,0 -3.125,0.90625 -1.25,0.89063 -1.76563,2.40625 -0.5,1.5 -0.5,3.10938 0,2.0625 0.59375,3.60937 0.60938,1.53125 1.875,2.29688 1.28125,0.76562 2.76563,0.76562 1.79687,0 3.04687,-1.03125 1.25,-1.04687 1.6875,-3.09375 z m 4.79913,5.6875 V 353.6738 h 6.10938 q 1.625,0 2.46875,0.15625 1.20312,0.20313 2,0.76563 0.8125,0.54687 1.29687,1.5625 0.5,1 0.5,2.20312 0,2.07813 -1.3125,3.51563 -1.3125,1.42187 -4.76562,1.42187 h -4.15625 v 6.59375 z m 2.14063,-8.5 h 4.20312 q 2.07813,0 2.95313,-0.78125 0.875,-0.78125 0.875,-2.17187 0,-1.03125 -0.51563,-1.75 -0.51562,-0.71875 -1.35937,-0.95313 -0.54688,-0.14062 -2,-0.14062 h -4.15625 z m 23.61151,-7.71875 h 2.14062 v 9.375 q 0,2.4375 -0.54687,3.875 -0.54688,1.4375 -2,2.34375 -1.4375,0.90625 -3.78125,0.90625 -2.28125,0 -3.73438,-0.78125 -1.45312,-0.79687 -2.07812,-2.28125 -0.60938,-1.48437 -0.60938,-4.0625 v -9.375 h 2.14063 v 9.35938 q 0,2.10937 0.39062,3.10937 0.40625,1 1.35938,1.54688 0.95312,0.54687 2.34375,0.54687 2.35937,0 3.35937,-1.07812 1.01563,-1.07813 1.01563,-4.125 z"
       fill="#000000" />
    <path
       id="path23"
       fill-rule="evenodd"
       d="M 617.7008,265.22964 H 488.33071 V 147.05642 H 358.96062"
       fill-opacity="0"
       fill="#000000" />
    <path
       id="path25"
       fill-rule="evenodd"
       d="M 617.7008,265.22964 H 488.33071 V 147.05642 H 370.96062"
       stroke-linecap="butt"
       stroke-linejoin="round"
       stroke-width="2"
       stroke="#000000" />
    <path
       id="path27"
       fill-rule="evenodd"
       d="m 370.96063,143.75296 -9.0762,3.30347 9.0762,3.30346 z"
       stroke-linecap="butt"
       stroke-width="2"
       stroke="#000000"
       fill="#000000" />
    <path
       id="path29"
       fill-rule="evenodd"
       d="m 512,221.79002 h 96.81891 v 32.72441 H 512 Z"
       fill-opacity="0"
       fill="#000000" />
    <path
       id="path31"
       fill-rule="nonzero"
       d="m 521.0781,248.71002 5.17187,-6.95313 -4.5625,-6.40625 h 2.10938 l 2.42187,3.4375 q 0.75,1.0625 1.07813,1.625 0.4375,-0.71875 1.04687,-1.51562 l 2.6875,-3.54688 h 1.92188 l -4.6875,6.29688 5.0625,7.0625 h -2.1875 l -3.35938,-4.76563 q -0.28125,-0.40625 -0.59375,-0.89062 -0.4375,0.73437 -0.625,1 l -3.35937,4.65625 z m 13.20923,-4.29688 1.65625,-0.14062 q 0.125,1 0.54687,1.64062 0.4375,0.64063 1.34375,1.04688 0.92188,0.39062 2.0625,0.39062 1,0 1.78125,-0.29687 0.78125,-0.29688 1.15625,-0.8125 0.375,-0.53125 0.375,-1.15625 0,-0.625 -0.375,-1.09375 -0.35937,-0.46875 -1.1875,-0.79688 -0.54687,-0.20312 -2.39062,-0.64062 -1.82813,-0.45313 -2.5625,-0.84375 -0.96875,-0.5 -1.4375,-1.23438 -0.46875,-0.75 -0.46875,-1.67187 0,-1 0.57812,-1.875 0.57813,-0.89063 1.67188,-1.34375 1.10937,-0.45313 2.45312,-0.45313 1.48438,0 2.60938,0.48438 1.14062,0.46875 1.75,1.40625 0.60937,0.92187 0.65625,2.09375 l -1.6875,0.125 q -0.14063,-1.26563 -0.9375,-1.90625 -0.78125,-0.65625 -2.3125,-0.65625 -1.60938,0 -2.34375,0.59375 -0.73438,0.59375 -0.73438,1.42187 0,0.71875 0.53125,1.17188 0.5,0.46875 2.65625,0.96875 2.15625,0.48437 2.95313,0.84375 1.17187,0.53125 1.71875,1.35937 0.5625,0.82813 0.5625,1.90625 0,1.0625 -0.60938,2.01563 -0.60937,0.9375 -1.75,1.46875 -1.14062,0.51562 -2.57812,0.51562 -1.8125,0 -3.04688,-0.53125 -1.21875,-0.53125 -1.92187,-1.59375 -0.6875,-1.0625 -0.71875,-2.40625 z m 11.56854,4.29688 5.125,-13.35938 h 1.90625 l 5.46875,13.35938 h -2.01562 l -1.54688,-4.04688 h -5.59375 l -1.46875,4.04688 z m 3.85938,-5.48438 h 4.53125 l -1.40625,-3.70312 q -0.625,-1.6875 -0.9375,-2.76563 -0.26563,1.28125 -0.71875,2.54688 z m 12.48004,5.48438 -5.17188,-13.35938 h 1.92188 l 3.46875,9.70313 q 0.42187,1.17187 0.70312,2.1875 0.3125,-1.09375 0.71875,-2.1875 l 3.60938,-9.70313 h 1.79687 l -5.23437,13.35938 z m 8.66229,0 v -13.35938 h 9.65625 v 1.57813 h -7.875 v 4.09375 h 7.375 v 1.5625 h -7.375 v 4.54687 h 8.1875 v 1.57813 z"
       fill="#000000" />
    <path
       id="path33"
       fill-rule="evenodd"
       d="m 489.32285,310.76642 h 129.19687 v 32.7244 H 489.32285 Z"
       fill-opacity="0"
       fill="#000000" />
    <path
       id="path35"
       fill-rule="nonzero"
       d="m 515.2978,337.6864 5.17188,-6.95313 -4.5625,-6.40625 h 2.10937 l 2.42188,3.4375 q 0.75,1.0625 1.07812,1.625 0.4375,-0.71875 1.04688,-1.51562 l 2.6875,-3.54688 h 1.92187 l -4.6875,6.29688 5.0625,7.0625 h -2.1875 l -3.35937,-4.76563 q -0.28125,-0.40625 -0.59375,-0.89062 -0.4375,0.73437 -0.625,1 l -3.35938,4.65625 z m 13.83417,0 v -13.35938 h 5.92187 q 1.78125,0 2.70313,0.35938 0.9375,0.35937 1.48437,1.28125 0.5625,0.90625 0.5625,2.01562 0,1.40625 -0.92187,2.39063 -0.92188,0.96875 -2.84375,1.23437 0.70312,0.34375 1.07812,0.67188 0.76563,0.70312 1.45313,1.76562 l 2.32812,3.64063 h -2.21875 l -1.76562,-2.78125 q -0.78125,-1.20313 -1.28125,-1.82813 -0.5,-0.64062 -0.90625,-0.89062 -0.39063,-0.26563 -0.79688,-0.35938 -0.29687,-0.0781 -0.98437,-0.0781 h -2.04688 v 5.9375 z m 1.76562,-7.45313 h 3.79688 q 1.21875,0 1.89062,-0.25 0.6875,-0.26562 1.04688,-0.8125 0.35937,-0.54687 0.35937,-1.1875 0,-0.95312 -0.6875,-1.5625 -0.6875,-0.60937 -2.1875,-0.60937 h -4.21875 z m 11.08234,3.15625 1.65625,-0.14062 q 0.125,1 0.54687,1.64062 0.4375,0.64063 1.34375,1.04688 0.92188,0.39062 2.0625,0.39062 1,0 1.78125,-0.29687 0.78125,-0.29688 1.15625,-0.8125 0.375,-0.53125 0.375,-1.15625 0,-0.625 -0.375,-1.09375 -0.35937,-0.46875 -1.1875,-0.79688 -0.54687,-0.20312 -2.39062,-0.64062 -1.82813,-0.45313 -2.5625,-0.84375 -0.96875,-0.5 -1.4375,-1.23438 -0.46875,-0.75 -0.46875,-1.67187 0,-1 0.57812,-1.875 0.57813,-0.89063 1.67188,-1.34375 1.10937,-0.45313 2.45312,-0.45313 1.48438,0 2.60938,0.48438 1.14062,0.46875 1.75,1.40625 0.60937,0.92187 0.65625,2.09375 l -1.6875,0.125 q -0.14063,-1.26563 -0.9375,-1.90625 -0.78125,-0.65625 -2.3125,-0.65625 -1.60938,0 -2.34375,0.59375 -0.73438,0.59375 -0.73438,1.42187 0,0.71875 0.53125,1.17188 0.5,0.46875 2.65625,0.96875 2.15625,0.48437 2.95313,0.84375 1.17187,0.53125 1.71875,1.35937 0.5625,0.82813 0.5625,1.90625 0,1.0625 -0.60938,2.01563 -0.60937,0.9375 -1.75,1.46875 -1.14062,0.51562 -2.57812,0.51562 -1.8125,0 -3.04688,-0.53125 -1.21875,-0.53125 -1.92187,-1.59375 -0.6875,-1.0625 -0.71875,-2.40625 z m 16.4436,4.29688 v -11.78125 h -4.40625 v -1.57813 h 10.57813 v 1.57813 h -4.40625 v 11.78125 z m 7.12122,-6.5 q 0,-3.32813 1.78125,-5.20313 1.78125,-1.89062 4.60937,-1.89062 1.84375,0 3.32813,0.89062 1.48437,0.875 2.26562,2.46875 0.78125,1.57813 0.78125,3.57813 0,2.03125 -0.82812,3.64062 -0.8125,1.59375 -2.3125,2.42188 -1.5,0.82812 -3.25,0.82812 -1.875,0 -3.35938,-0.90625 -1.48437,-0.92187 -2.25,-2.5 -0.76562,-1.57812 -0.76562,-3.32812 z m 1.8125,0.0156 q 0,2.42188 1.29687,3.8125 1.29688,1.39063 3.26563,1.39063 2,0 3.28125,-1.40625 1.28125,-1.40625 1.28125,-3.98438 0,-1.625 -0.54688,-2.84375 -0.54687,-1.21875 -1.60937,-1.875 -1.0625,-0.67187 -2.375,-0.67187 -1.89063,0 -3.25,1.29687 -1.34375,1.28125 -1.34375,4.28125 z m 13.26141,6.48438 V 324.327 h 5.92188 q 1.78125,0 2.70312,0.35938 0.9375,0.35937 1.48438,1.28125 0.5625,0.90625 0.5625,2.01562 0,1.40625 -0.92188,2.39063 -0.92187,0.96875 -2.84375,1.23437 0.70313,0.34375 1.07813,0.67188 0.76562,0.70312 1.45312,1.76562 l 2.32813,3.64063 h -2.21875 l -1.76563,-2.78125 q -0.78125,-1.20313 -1.28125,-1.82813 -0.5,-0.64062 -0.90625,-0.89062 -0.39062,-0.26563 -0.79687,-0.35938 -0.29688,-0.0781 -0.98438,-0.0781 h -2.04687 v 5.9375 z m 1.76563,-7.45313 h 3.79687 q 1.21875,0 1.89063,-0.25 0.6875,-0.26562 1.04687,-0.8125 0.35938,-0.54687 0.35938,-1.1875 0,-0.95312 -0.6875,-1.5625 -0.6875,-0.60937 -2.1875,-0.60937 h -4.21875 z"
       fill="#000000" />
    <path
       id="path37"
       fill-rule="evenodd"
       d="M 220.91339,83.314964 H 358.96063 V 116.03937 H 220.91339 Z"
       fill="#cfe2f3" />
    <path
       id="path39"
       fill-rule="evenodd"
       d="M 220.91339,83.314964 H 358.96063 V 116.03937 H 220.91339 Z"
       stroke-linecap="butt"
       stroke-linejoin="round"
       stroke-width="1"
       stroke="#000000" />
    <path
       id="path41"
       fill-rule="nonzero"
       d="M 231.27277,106.59717 V 93.237795 h 1.78125 v 11.781255 h 6.5625 v 1.57812 z m 11.39654,0 -3.53125,-13.359375 h 1.8125 l 2.03125,8.765625 q 0.32813,1.375 0.5625,2.71875 0.5,-2.14062 0.59375,-2.46875 l 2.54688,-9.015625 h 2.125 l 1.92187,6.765625 q 0.71875,2.51563 1.03125,4.71875 0.26563,-1.26562 0.67188,-2.89062 l 2.09375,-8.593755 h 1.78125 l -3.67188,13.359375 h -1.70312 l -2.8125,-10.171875 q -0.35938,-1.28125 -0.42188,-1.5625 -0.20312,0.90625 -0.39062,1.5625 l -2.82813,10.171875 z m 15.28052,0 V 93.237795 h 5.04688 q 1.32812,0 2.03125,0.125 0.96875,0.171875 1.64062,0.640625 0.67188,0.453125 1.07813,1.28125 0.40625,0.828125 0.40625,1.828125 0,1.703125 -1.09375,2.890625 -1.07813,1.17188 -3.92188,1.17188 h -3.42187 v 5.42187 z m 1.76563,-7 h 3.45312 q 1.71875,0 2.4375,-0.640625 0.71875,-0.640625 0.71875,-1.796875 0,-0.84375 -0.42187,-1.4375 -0.42188,-0.59375 -1.125,-0.78125 -0.4375,-0.125 -1.64063,-0.125 h -3.42187 z m 23.47714,5.42188 v 1.57812 h -8.82812 q -0.0156,-0.59375 0.1875,-1.14062 0.34375,-0.90625 1.07812,-1.78125 0.75,-0.875 2.15625,-2.01563 2.17188,-1.78125 2.9375,-2.828125 0.76563,-1.046875 0.76563,-1.96875 0,-0.984375 -0.70313,-1.640625 -0.6875,-0.671875 -1.8125,-0.671875 -1.1875,0 -1.90625,0.71875 -0.70312,0.703125 -0.70312,1.953125 l -1.6875,-0.171875 q 0.17187,-1.890625 1.29687,-2.875 1.14063,-0.984375 3.03125,-0.984375 1.92188,0 3.04688,1.0625 1.125,1.0625 1.125,2.640625 0,0.796875 -0.32813,1.578125 -0.32812,0.78125 -1.09375,1.64063 -0.75,0.84375 -2.53125,2.34375 -1.46875,1.23437 -1.89062,1.6875 -0.42188,0.4375 -0.6875,0.875 z m 10.37573,0 v 1.57812 h -8.82812 q -0.0156,-0.59375 0.1875,-1.14062 0.34375,-0.90625 1.07812,-1.78125 0.75,-0.875 2.15625,-2.01563 2.17188,-1.78125 2.9375,-2.828125 0.76563,-1.046875 0.76563,-1.96875 0,-0.984375 -0.70313,-1.640625 -0.6875,-0.671875 -1.8125,-0.671875 -1.1875,0 -1.90625,0.71875 -0.70312,0.703125 -0.70312,1.953125 l -1.6875,-0.171875 q 0.17187,-1.890625 1.29687,-2.875 1.14063,-0.984375 3.03125,-0.984375 1.92188,0 3.04688,1.0625 1.125,1.0625 1.125,2.640625 0,0.796875 -0.32813,1.578125 -0.32812,0.78125 -1.09375,1.64063 -0.75,0.84375 -2.53125,2.34375 -1.46875,1.23437 -1.89062,1.6875 -0.42188,0.4375 -0.6875,0.875 z m 1.76633,-5.01563 q 0,-2.359375 0.48437,-3.796875 0.48438,-1.453125 1.4375,-2.234375 0.96875,-0.78125 2.42188,-0.78125 1.07812,0 1.89062,0.4375 0.8125,0.421875 1.32813,1.25 0.53125,0.8125 0.82812,1.984375 0.3125,1.15625 0.3125,3.140625 0,2.35938 -0.48437,3.8125 -0.48438,1.4375 -1.45313,2.23438 -0.95312,0.78125 -2.42187,0.78125 -1.92188,0 -3.03125,-1.39063 -1.3125,-1.67187 -1.3125,-5.4375 z m 1.67187,0 q 0,3.29688 0.76563,4.39063 0.78125,1.07812 1.90625,1.07812 1.14062,0 1.90625,-1.09375 0.76562,-1.09375 0.76562,-4.375 0,-3.296875 -0.76562,-4.375 -0.76563,-1.078125 -1.92188,-1.078125 -1.125,0 -1.79687,0.953125 -0.85938,1.21875 -0.85938,4.5 z m 13.95386,6.59375 v -3.20312 h -5.79687 v -1.5 l 6.09375,-8.656255 h 1.34375 v 8.656255 h 1.79687 v 1.5 h -1.79687 v 3.20312 z m 0,-4.70312 v -6.01563 l -4.1875,6.01563 z"
       fill="#000000" />
    <path
       id="path43"
       fill-rule="evenodd"
       d="m 220.91339,130.69423 h 138.04724 v 32.72441 H 220.91339 Z"
       fill="#cfe2f3" />
    <path
       id="path45"
       fill-rule="evenodd"
       d="m 220.91339,130.69423 h 138.04724 v 32.72441 H 220.91339 Z"
       stroke-linecap="butt"
       stroke-linejoin="round"
       stroke-width="1"
       stroke="#000000" />
    <path
       id="path47"
       fill-rule="nonzero"
       d="m 231.27277,153.97643 v -13.35938 h 1.78125 v 11.78125 h 6.5625 v 1.57813 z m 11.39654,0 -3.53125,-13.35938 h 1.8125 l 2.03125,8.76563 q 0.32813,1.375 0.5625,2.71875 0.5,-2.14063 0.59375,-2.46875 l 2.54688,-9.01563 h 2.125 l 1.92187,6.76563 q 0.71875,2.51562 1.03125,4.71875 0.26563,-1.26563 0.67188,-2.89063 l 2.09375,-8.59375 h 1.78125 l -3.67188,13.35938 h -1.70312 l -2.8125,-10.17188 q -0.35938,-1.28125 -0.42188,-1.5625 -0.20312,0.90625 -0.39062,1.5625 l -2.82813,10.17188 z m 15.28052,0 v -13.35938 h 5.04688 q 1.32812,0 2.03125,0.125 0.96875,0.17188 1.64062,0.64063 0.67188,0.45312 1.07813,1.28125 0.40625,0.82812 0.40625,1.82812 0,1.70313 -1.09375,2.89063 -1.07813,1.17187 -3.92188,1.17187 h -3.42187 v 5.42188 z m 1.76563,-7 h 3.45312 q 1.71875,0 2.4375,-0.64063 0.71875,-0.64062 0.71875,-1.79687 0,-0.84375 -0.42187,-1.4375 -0.42188,-0.59375 -1.125,-0.78125 -0.4375,-0.125 -1.64063,-0.125 h -3.42187 z m 23.47714,5.42187 v 1.57813 h -8.82812 q -0.0156,-0.59375 0.1875,-1.14063 0.34375,-0.90625 1.07812,-1.78125 0.75,-0.875 2.15625,-2.01562 2.17188,-1.78125 2.9375,-2.82813 0.76563,-1.04687 0.76563,-1.96875 0,-0.98437 -0.70313,-1.64062 -0.6875,-0.67188 -1.8125,-0.67188 -1.1875,0 -1.90625,0.71875 -0.70312,0.70313 -0.70312,1.95313 l -1.6875,-0.17188 q 0.17187,-1.89062 1.29687,-2.875 1.14063,-0.98437 3.03125,-0.98437 1.92188,0 3.04688,1.0625 1.125,1.0625 1.125,2.64062 0,0.79688 -0.32813,1.57813 -0.32812,0.78125 -1.09375,1.64062 -0.75,0.84375 -2.53125,2.34375 -1.46875,1.23438 -1.89062,1.6875 -0.42188,0.4375 -0.6875,0.875 z m 10.37573,0 v 1.57813 h -8.82812 q -0.0156,-0.59375 0.1875,-1.14063 0.34375,-0.90625 1.07812,-1.78125 0.75,-0.875 2.15625,-2.01562 2.17188,-1.78125 2.9375,-2.82813 0.76563,-1.04687 0.76563,-1.96875 0,-0.98437 -0.70313,-1.64062 -0.6875,-0.67188 -1.8125,-0.67188 -1.1875,0 -1.90625,0.71875 -0.70312,0.70313 -0.70312,1.95313 l -1.6875,-0.17188 q 0.17187,-1.89062 1.29687,-2.875 1.14063,-0.98437 3.03125,-0.98437 1.92188,0 3.04688,1.0625 1.125,1.0625 1.125,2.64062 0,0.79688 -0.32813,1.57813 -0.32812,0.78125 -1.09375,1.64062 -0.75,0.84375 -2.53125,2.34375 -1.46875,1.23438 -1.89062,1.6875 -0.42188,0.4375 -0.6875,0.875 z m 1.76633,-5.01562 q 0,-2.35938 0.48437,-3.79688 0.48438,-1.45312 1.4375,-2.23437 0.96875,-0.78125 2.42188,-0.78125 1.07812,0 1.89062,0.4375 0.8125,0.42187 1.32813,1.25 0.53125,0.8125 0.82812,1.98437 0.3125,1.15625 0.3125,3.14063 0,2.35937 -0.48437,3.8125 -0.48438,1.4375 -1.45313,2.23437 -0.95312,0.78125 -2.42187,0.78125 -1.92188,0 -3.03125,-1.39062 -1.3125,-1.67188 -1.3125,-5.4375 z m 1.67187,0 q 0,3.29687 0.76563,4.39062 0.78125,1.07813 1.90625,1.07813 1.14062,0 1.90625,-1.09375 0.76562,-1.09375 0.76562,-4.375 0,-3.29688 -0.76562,-4.375 -0.76563,-1.07813 -1.92188,-1.07813 -1.125,0 -1.79687,0.95313 -0.85938,1.21875 -0.85938,4.5 z m 8.70386,3.09375 1.71875,-0.14063 q 0.1875,1.25 0.875,1.89063 0.70313,0.625 1.6875,0.625 1.1875,0 2,-0.89063 0.82813,-0.89062 0.82813,-2.35937 0,-1.40625 -0.79688,-2.21875 -0.78125,-0.8125 -2.0625,-0.8125 -0.78125,0 -1.42187,0.35937 -0.64063,0.35938 -1,0.9375 l -1.54688,-0.20312 1.29688,-6.85938 h 6.64062 v 1.5625 h -5.32812 l -0.71875,3.59375 q 1.20312,-0.84375 2.51562,-0.84375 1.75,0 2.95313,1.21875 1.20312,1.20313 1.20312,3.10938 0,1.8125 -1.04687,3.14062 -1.29688,1.625 -3.51563,1.625 -1.8125,0 -2.96875,-1.01562 -1.15625,-1.03125 -1.3125,-2.71875 z"
       fill="#000000" />
    <path
       id="path49"
       fill-rule="evenodd"
       d="m 220.91339,178.0748 h 138.04724 v 32.72441 H 220.91339 Z"
       fill="#cfe2f3" />
    <path
       id="path51"
       fill-rule="evenodd"
       d="m 220.91339,178.0748 h 138.04724 v 32.72441 H 220.91339 Z"
       stroke-linecap="butt"
       stroke-linejoin="round"
       stroke-width="1"
       stroke="#000000" />
    <path
       id="path53"
       fill-rule="nonzero"
       d="m 231.27277,201.35701 v -13.35938 h 1.78125 v 11.78125 h 6.5625 v 1.57813 z m 11.39654,0 -3.53125,-13.35938 h 1.8125 l 2.03125,8.76563 q 0.32813,1.375 0.5625,2.71875 0.5,-2.14063 0.59375,-2.46875 l 2.54688,-9.01563 h 2.125 l 1.92187,6.76563 q 0.71875,2.51562 1.03125,4.71875 0.26563,-1.26563 0.67188,-2.89063 l 2.09375,-8.59375 h 1.78125 l -3.67188,13.35938 h -1.70312 l -2.8125,-10.17188 q -0.35938,-1.28125 -0.42188,-1.5625 -0.20312,0.90625 -0.39062,1.5625 l -2.82813,10.17188 z m 15.28052,0 v -13.35938 h 5.04688 q 1.32812,0 2.03125,0.125 0.96875,0.17188 1.64062,0.64063 0.67188,0.45312 1.07813,1.28125 0.40625,0.82812 0.40625,1.82812 0,1.70313 -1.09375,2.89063 -1.07813,1.17187 -3.92188,1.17187 h -3.42187 v 5.42188 z m 1.76563,-7 h 3.45312 q 1.71875,0 2.4375,-0.64063 0.71875,-0.64062 0.71875,-1.79687 0,-0.84375 -0.42187,-1.4375 -0.42188,-0.59375 -1.125,-0.78125 -0.4375,-0.125 -1.64063,-0.125 h -3.42187 z m 23.47714,5.42187 v 1.57813 h -8.82812 q -0.0156,-0.59375 0.1875,-1.14063 0.34375,-0.90625 1.07812,-1.78125 0.75,-0.875 2.15625,-2.01562 2.17188,-1.78125 2.9375,-2.82813 0.76563,-1.04687 0.76563,-1.96875 0,-0.98437 -0.70313,-1.64062 -0.6875,-0.67188 -1.8125,-0.67188 -1.1875,0 -1.90625,0.71875 -0.70312,0.70313 -0.70312,1.95313 l -1.6875,-0.17188 q 0.17187,-1.89062 1.29687,-2.875 1.14063,-0.98437 3.03125,-0.98437 1.92188,0 3.04688,1.0625 1.125,1.0625 1.125,2.64062 0,0.79688 -0.32813,1.57813 -0.32812,0.78125 -1.09375,1.64062 -0.75,0.84375 -2.53125,2.34375 -1.46875,1.23438 -1.89062,1.6875 -0.42188,0.4375 -0.6875,0.875 z m 10.37573,0 v 1.57813 h -8.82812 q -0.0156,-0.59375 0.1875,-1.14063 0.34375,-0.90625 1.07812,-1.78125 0.75,-0.875 2.15625,-2.01562 2.17188,-1.78125 2.9375,-2.82813 0.76563,-1.04687 0.76563,-1.96875 0,-0.98437 -0.70313,-1.64062 -0.6875,-0.67188 -1.8125,-0.67188 -1.1875,0 -1.90625,0.71875 -0.70312,0.70313 -0.70312,1.95313 l -1.6875,-0.17188 q 0.17187,-1.89062 1.29687,-2.875 1.14063,-0.98437 3.03125,-0.98437 1.92188,0 3.04688,1.0625 1.125,1.0625 1.125,2.64062 0,0.79688 -0.32813,1.57813 -0.32812,0.78125 -1.09375,1.64062 -0.75,0.84375 -2.53125,2.34375 -1.46875,1.23438 -1.89062,1.6875 -0.42188,0.4375 -0.6875,0.875 z m 1.76633,-5.01562 q 0,-2.35938 0.48437,-3.79688 0.48438,-1.45312 1.4375,-2.23437 0.96875,-0.78125 2.42188,-0.78125 1.07812,0 1.89062,0.4375 0.8125,0.42187 1.32813,1.25 0.53125,0.8125 0.82812,1.98437 0.3125,1.15625 0.3125,3.14063 0,2.35937 -0.48437,3.8125 -0.48438,1.4375 -1.45313,2.23437 -0.95312,0.78125 -2.42187,0.78125 -1.92188,0 -3.03125,-1.39062 -1.3125,-1.67188 -1.3125,-5.4375 z m 1.67187,0 q 0,3.29687 0.76563,4.39062 0.78125,1.07813 1.90625,1.07813 1.14062,0 1.90625,-1.09375 0.76562,-1.09375 0.76562,-4.375 0,-3.29688 -0.76562,-4.375 -0.76563,-1.07813 -1.92188,-1.07813 -1.125,0 -1.79687,0.95313 -0.85938,1.21875 -0.85938,4.5 z m 8.81324,-5.01563 v -1.57812 h 8.64062 v 1.28125 q -1.28125,1.35937 -2.53125,3.60937 -1.25,2.25 -1.9375,4.625 -0.48437,1.67188 -0.625,3.67188 h -1.6875 q 0.0312,-1.57813 0.625,-3.8125 0.59375,-2.23438 1.6875,-4.29688 1.10938,-2.07812 2.35938,-3.5 z"
       fill="#000000" />
    <path
       id="path55"
       fill-rule="evenodd"
       d="m 37.83727,336.0735 h 333.68454 l 24.23672,24.23672 v 121.1806 H 37.837275 Z"
       fill="#d9ead3" />
    <path
       id="path57"
       fill-rule="evenodd"
       d="m 37.83727,336.0735 h 333.68454 l 24.23672,24.23672 v 121.1806 H 37.837275 Z"
       stroke-linecap="butt"
       stroke-linejoin="round"
       stroke-width="1"
       stroke="#000000" />
    <path
       id="path59"
       fill-rule="nonzero"
       d="m 48.27477,375.11185 v -13.35938 h 5.046875 q 1.328125,0 2.03125,0.125 0.96875,0.17188 1.640625,0.64063 0.671875,0.45312 1.078125,1.28125 0.40625,0.82812 0.40625,1.82812 0,1.70313 -1.09375,2.89063 -1.078125,1.17187 -3.921875,1.17187 h -3.421875 v 5.42188 z m 1.765625,-7 h 3.453125 q 1.71875,0 2.4375,-0.64063 0.71875,-0.64062 0.71875,-1.79687 0,-0.84375 -0.421875,-1.4375 -0.421875,-0.59375 -1.125,-0.78125 -0.4375,-0.125 -1.640625,-0.125 h -3.421875 z m 10.974823,7 v -13.35938 h 1.765625 v 13.35938 z m 4.886433,0 v -13.35938 h 4.609375 q 1.546875,0 2.375,0.20313 1.140625,0.25 1.953125,0.95312 1.0625,0.89063 1.578125,2.28125 0.53125,1.39063 0.53125,3.17188 0,1.51562 -0.359375,2.70312 -0.359375,1.17188 -0.921875,1.9375 -0.546875,0.76563 -1.203125,1.21875 -0.65625,0.4375 -1.59375,0.67188 -0.9375,0.21875 -2.140625,0.21875 z m 1.765625,-1.57813 h 2.859375 q 1.3125,0 2.0625,-0.23437 0.75,-0.25 1.203125,-0.70313 0.625,-0.625 0.96875,-1.6875 0.359375,-1.0625 0.359375,-2.57812 0,-2.09375 -0.6875,-3.21875 -0.6875,-1.125 -1.671875,-1.5 -0.703125,-0.28125 -2.28125,-0.28125 h -2.8125 z m 24.84375,0 v 1.57813 h -8.828125 q -0.01563,-0.59375 0.1875,-1.14063 0.34375,-0.90625 1.078125,-1.78125 0.75,-0.875 2.15625,-2.01562 2.171875,-1.78125 2.9375,-2.82813 0.765625,-1.04687 0.765625,-1.96875 0,-0.98437 -0.703125,-1.64062 -0.6875,-0.67188 -1.8125,-0.67188 -1.1875,0 -1.90625,0.71875 -0.703125,0.70313 -0.703125,1.95313 l -1.6875,-0.17188 q 0.171875,-1.89062 1.296875,-2.875 1.140625,-0.98437 3.03125,-0.98437 1.921875,0 3.046875,1.0625 1.125,1.0625 1.125,2.64062 0,0.79688 -0.328125,1.57813 -0.328125,0.78125 -1.09375,1.64062 -0.75,0.84375 -2.53125,2.34375 -1.46875,1.23438 -1.890625,1.6875 -0.421875,0.4375 -0.6875,0.875 z m 10.375714,0 v 1.57813 h -8.828122 q -0.01563,-0.59375 0.1875,-1.14063 0.34375,-0.90625 1.078125,-1.78125 0.75,-0.875 2.15625,-2.01562 2.171875,-1.78125 2.937497,-2.82813 0.76563,-1.04687 0.76563,-1.96875 0,-0.98437 -0.70313,-1.64062 -0.687497,-0.67188 -1.812497,-0.67188 -1.1875,0 -1.90625,0.71875 -0.703125,0.70313 -0.703125,1.95313 l -1.6875,-0.17188 q 0.171875,-1.89062 1.296875,-2.875 1.140625,-0.98437 3.03125,-0.98437 1.921877,0 3.046877,1.0625 1.125,1.0625 1.125,2.64062 0,0.79688 -0.32813,1.57813 -0.32812,0.78125 -1.09375,1.64062 -0.75,0.84375 -2.531247,2.34375 -1.46875,1.23438 -1.890625,1.6875 -0.421875,0.4375 -0.6875,0.875 z m 1.76634,-1.95312 1.64063,-0.21875 q 0.28125,1.40625 0.95312,2.01562 0.6875,0.60938 1.65625,0.60938 1.15625,0 1.95313,-0.79688 0.79687,-0.79687 0.79687,-1.98437 0,-1.125 -0.73437,-1.85938 -0.73438,-0.73437 -1.875,-0.73437 -0.46875,0 -1.15625,0.17187 l 0.1875,-1.4375 q 0.15625,0.0156 0.26562,0.0156 1.04688,0 1.875,-0.54688 0.84375,-0.54687 0.84375,-1.67187 0,-0.90625 -0.60937,-1.5 -0.60938,-0.59375 -1.57813,-0.59375 -0.95312,0 -1.59375,0.60937 -0.64062,0.59375 -0.8125,1.79688 l -1.64062,-0.29688 q 0.29687,-1.64062 1.35937,-2.54687 1.0625,-0.90625 2.65625,-0.90625 1.09375,0 2,0.46875 0.92188,0.46875 1.40625,1.28125 0.5,0.8125 0.5,1.71875 0,0.85937 -0.46875,1.57812 -0.46875,0.70313 -1.375,1.125 1.1875,0.28125 1.84375,1.14063 0.65625,0.85937 0.65625,2.15625 0,1.73437 -1.28125,2.95312 -1.26562,1.21875 -3.21875,1.21875 -1.76562,0 -2.92187,-1.04687 -1.15625,-1.04688 -1.32813,-2.71875 z m 10.4851,-8.07813 v -1.57812 h 8.64062 v 1.28125 q -1.28125,1.35937 -2.53125,3.60937 -1.25,2.25 -1.9375,4.625 -0.48437,1.67188 -0.625,3.67188 h -1.6875 q 0.0312,-1.57813 0.625,-3.8125 0.59375,-2.23438 1.6875,-4.29688 1.10938,-2.07812 2.35938,-3.5 z"
       fill="#000000" />
    <path
       id="path61"
       fill-rule="nonzero"
       d="m 49.352894,386.00247 v 1.90625 h -1.765625 v -1.51562 q 0,-1.21875 0.296875,-1.76563 0.390625,-0.71875 1.21875,-1.09375 l 0.390625,0.64063 q -0.5,0.20312 -0.734375,0.625 -0.234375,0.40625 -0.265625,1.20312 z m 2.828125,0 v 1.90625 h -1.765625 v -1.51562 q 0,-1.21875 0.296875,-1.76563 0.375,-0.71875 1.203125,-1.09375 l 0.40625,0.64063 q -0.5,0.20312 -0.734375,0.625 -0.234375,0.40625 -0.265625,1.20312 z m 2.103302,11.10938 v -9.67188 h 1.46875 v 1.375 q 1.0625,-1.59375 3.078125,-1.59375 0.875,0 1.609375,0.3125 0.734375,0.3125 1.09375,0.82813 0.375,0.5 0.515625,1.20312 0.09375,0.45313 0.09375,1.59375 v 5.95313 h -1.640625 v -5.89063 q 0,-1 -0.203125,-1.48437 -0.1875,-0.5 -0.671875,-0.79688 -0.484375,-0.29687 -1.140625,-0.29687 -1.046875,0 -1.8125,0.67187 -0.75,0.65625 -0.75,2.51563 v 5.28125 z m 9.766346,-4.84375 q 0,-2.6875 1.484375,-3.96875 1.25,-1.07813 3.046875,-1.07813 2,0 3.265625,1.3125 1.265625,1.29688 1.265625,3.60938 0,1.85937 -0.5625,2.9375 -0.5625,1.0625 -1.640625,1.65625 -1.0625,0.59375 -2.328125,0.59375 -2.03125,0 -3.28125,-1.29688 -1.25,-1.3125 -1.25,-3.76562 z m 1.6875,0 q 0,1.85937 0.796875,2.79687 0.8125,0.92188 2.046875,0.92188 1.21875,0 2.03125,-0.92188 0.8125,-0.9375 0.8125,-2.84375 0,-1.79687 -0.8125,-2.71875 -0.8125,-0.92187 -2.03125,-0.92187 -1.234375,0 -2.046875,0.92187 -0.796875,0.90625 -0.796875,2.76563 z m 15.563217,4.84375 v -1.21875 q -0.90625,1.4375 -2.703125,1.4375 -1.15625,0 -2.125,-0.64063 -0.96875,-0.64062 -1.5,-1.78125 -0.53125,-1.14062 -0.53125,-2.625 0,-1.45312 0.484375,-2.625 0.484375,-1.1875 1.4375,-1.8125 0.96875,-0.625 2.171875,-0.625 0.875,0 1.546875,0.375 0.6875,0.35938 1.109375,0.95313 v -4.79688 h 1.640625 v 13.35938 z m -5.171875,-4.82813 q 0,1.85938 0.78125,2.78125 0.78125,0.92188 1.84375,0.92188 1.078125,0 1.828125,-0.875 0.75,-0.89063 0.75,-2.6875 0,-1.98438 -0.765625,-2.90625 -0.765625,-0.9375 -1.890625,-0.9375 -1.078125,0 -1.8125,0.89062 -0.734375,0.89063 -0.734375,2.8125 z m 15.906967,1.71875 1.6875,0.20313 q -0.40625,1.48437 -1.484375,2.3125 -1.078125,0.8125 -2.765625,0.8125 -2.125,0 -3.375,-1.29688 -1.234375,-1.3125 -1.234375,-3.67187 0,-2.45313 1.25,-3.79688 1.265625,-1.34375 3.265625,-1.34375 1.9375,0 3.15625,1.32813 1.234375,1.3125 1.234375,3.70312 0,0.15625 0,0.4375 h -7.21875 q 0.09375,1.59375 0.90625,2.45313 0.8125,0.84375 2.015625,0.84375 0.90625,0 1.546875,-0.46875 0.640625,-0.48438 1.015625,-1.51563 z m -5.390625,-2.65625 h 5.40625 q -0.109375,-1.21875 -0.625,-1.82812 -0.78125,-0.95313 -2.03125,-0.95313 -1.125,0 -1.90625,0.76563 -0.765625,0.75 -0.84375,2.01562 z m 9.125717,-5.6875 v -1.90625 h 1.640625 v 1.90625 z m -2.078125,15.20313 0.3125,-1.39063 q 0.5,0.125 0.78125,0.125 0.5,0 0.734375,-0.32812 0.25,-0.32813 0.25,-1.67188 v -10.15625 h 1.640625 v 10.20313 q 0,1.78125 -0.46875,2.48437 -0.59375,0.90625 -1.96875,0.90625 -0.65625,0 -1.28125,-0.17187 z m 5.582321,-6.64063 1.624996,-0.25 q 0.125,0.96875 0.75,1.5 0.625,0.51563 1.75,0.51563 1.125,0 1.67188,-0.45313 0.54687,-0.46875 0.54687,-1.09375 0,-0.54687 -0.48437,-0.875 -0.32813,-0.21875 -1.67188,-0.54687 -1.8125,-0.46875 -2.51562,-0.79688 -0.6875,-0.32812 -1.046876,-0.90625 -0.359375,-0.59375 -0.359375,-1.3125 0,-0.64062 0.296875,-1.1875 0.296876,-0.5625 0.812496,-0.92187 0.375,-0.28125 1.03125,-0.46875 0.67188,-0.20313 1.42188,-0.20313 1.14062,0 2,0.32813 0.85937,0.32812 1.26562,0.89062 0.42188,0.5625 0.57813,1.5 l -1.60938,0.21875 q -0.10937,-0.75 -0.64062,-1.17187 -0.51563,-0.42188 -1.46875,-0.42188 -1.14063,0 -1.625,0.375 -0.46875,0.375 -0.46875,0.875 0,0.3125 0.1875,0.57813 0.20312,0.26562 0.64062,0.4375 0.23438,0.0937 1.4375,0.42187 1.75,0.45313 2.4375,0.75 0.6875,0.29688 1.07813,0.85938 0.39062,0.5625 0.39062,1.40625 0,0.82812 -0.48437,1.54687 -0.46875,0.71875 -1.375,1.125 -0.90625,0.39063 -2.04688,0.39063 -1.875,0 -2.875,-0.78125 -0.984371,-0.78125 -1.249996,-2.32813 z m 9.546876,-8.70312 v -1.89063 h 1.75 v 1.5 q 0,1.21875 -0.28125,1.75 -0.39063,0.75 -1.21875,1.10938 l -0.40625,-0.64063 q 0.5,-0.20312 0.73437,-0.625 0.25,-0.4375 0.28125,-1.20312 z m 2.8125,0 v -1.89063 h 1.76562 v 1.5 q 0,1.21875 -0.28125,1.75 -0.39062,0.75 -1.21875,1.10938 l -0.40625,-0.64063 q 0.5,-0.20312 0.73438,-0.625 0.25,-0.4375 0.26562,-1.20312 z"
       fill="#000000" />
    <path
       id="path63"
       fill-rule="evenodd"
       d="m 220.91339,377.81628 h 138.04724 v 32.7244 H 220.91339 Z"
       fill="#cfe2f3" />
    <path
       id="path65"
       fill-rule="evenodd"
       d="m 220.91339,377.81628 h 138.04724 v 32.7244 H 220.91339 Z"
       stroke-linecap="butt"
       stroke-linejoin="round"
       stroke-width="1"
       stroke="#000000" />
    <path
       id="path67"
       fill-rule="nonzero"
       d="M 231.27277,401.09848 V 387.7391 h 1.78125 v 11.78125 h 6.5625 v 1.57813 z m 11.39654,0 -3.53125,-13.35938 h 1.8125 l 2.03125,8.76563 q 0.32813,1.375 0.5625,2.71875 0.5,-2.14063 0.59375,-2.46875 l 2.54688,-9.01563 h 2.125 l 1.92187,6.76563 q 0.71875,2.51562 1.03125,4.71875 0.26563,-1.26563 0.67188,-2.89063 l 2.09375,-8.59375 h 1.78125 l -3.67188,13.35938 h -1.70312 l -2.8125,-10.17188 q -0.35938,-1.28125 -0.42188,-1.5625 -0.20312,0.90625 -0.39062,1.5625 l -2.82813,10.17188 z m 15.28052,0 V 387.7391 h 5.04688 q 1.32812,0 2.03125,0.125 0.96875,0.17188 1.64062,0.64063 0.67188,0.45312 1.07813,1.28125 0.40625,0.82812 0.40625,1.82812 0,1.70313 -1.09375,2.89063 -1.07813,1.17187 -3.92188,1.17187 h -3.42187 v 5.42188 z m 1.76563,-7 h 3.45312 q 1.71875,0 2.4375,-0.64063 0.71875,-0.64062 0.71875,-1.79687 0,-0.84375 -0.42187,-1.4375 -0.42188,-0.59375 -1.125,-0.78125 -0.4375,-0.125 -1.64063,-0.125 h -3.42187 z m 23.47714,5.42187 v 1.57813 h -8.82812 q -0.0156,-0.59375 0.1875,-1.14063 0.34375,-0.90625 1.07812,-1.78125 0.75,-0.875 2.15625,-2.01562 2.17188,-1.78125 2.9375,-2.82813 0.76563,-1.04687 0.76563,-1.96875 0,-0.98437 -0.70313,-1.64062 -0.6875,-0.67188 -1.8125,-0.67188 -1.1875,0 -1.90625,0.71875 -0.70312,0.70313 -0.70312,1.95313 l -1.6875,-0.17188 q 0.17187,-1.89062 1.29687,-2.875 1.14063,-0.98437 3.03125,-0.98437 1.92188,0 3.04688,1.0625 1.125,1.0625 1.125,2.64062 0,0.79688 -0.32813,1.57813 -0.32812,0.78125 -1.09375,1.64062 -0.75,0.84375 -2.53125,2.34375 -1.46875,1.23438 -1.89062,1.6875 -0.42188,0.4375 -0.6875,0.875 z m 10.37573,0 v 1.57813 h -8.82812 q -0.0156,-0.59375 0.1875,-1.14063 0.34375,-0.90625 1.07812,-1.78125 0.75,-0.875 2.15625,-2.01562 2.17188,-1.78125 2.9375,-2.82813 0.76563,-1.04687 0.76563,-1.96875 0,-0.98437 -0.70313,-1.64062 -0.6875,-0.67188 -1.8125,-0.67188 -1.1875,0 -1.90625,0.71875 -0.70312,0.70313 -0.70312,1.95313 l -1.6875,-0.17188 q 0.17187,-1.89062 1.29687,-2.875 1.14063,-0.98437 3.03125,-0.98437 1.92188,0 3.04688,1.0625 1.125,1.0625 1.125,2.64062 0,0.79688 -0.32813,1.57813 -0.32812,0.78125 -1.09375,1.64062 -0.75,0.84375 -2.53125,2.34375 -1.46875,1.23438 -1.89062,1.6875 -0.42188,0.4375 -0.6875,0.875 z m 1.76633,-1.95312 1.64062,-0.21875 q 0.28125,1.40625 0.95313,2.01562 0.6875,0.60938 1.65625,0.60938 1.15625,0 1.95312,-0.79688 0.79688,-0.79687 0.79688,-1.98437 0,-1.125 -0.73438,-1.85938 -0.73437,-0.73437 -1.875,-0.73437 -0.46875,0 -1.15625,0.17187 l 0.1875,-1.4375 q 0.15625,0.0156 0.26563,0.0156 1.04687,0 1.875,-0.54688 0.84375,-0.54687 0.84375,-1.67187 0,-0.90625 -0.60938,-1.5 -0.60937,-0.59375 -1.57812,-0.59375 -0.95313,0 -1.59375,0.60937 -0.64063,0.59375 -0.8125,1.79688 l -1.64063,-0.29688 q 0.29688,-1.64062 1.35938,-2.54687 1.0625,-0.90625 2.65625,-0.90625 1.09375,0 2,0.46875 0.92187,0.46875 1.40625,1.28125 0.5,0.8125 0.5,1.71875 0,0.85937 -0.46875,1.57812 -0.46875,0.70313 -1.375,1.125 1.1875,0.28125 1.84375,1.14063 0.65625,0.85937 0.65625,2.15625 0,1.73437 -1.28125,2.95312 -1.26563,1.21875 -3.21875,1.21875 -1.76563,0 -2.92188,-1.04687 -1.15625,-1.04688 -1.32812,-2.71875 z m 10.48511,-8.07813 v -1.57812 h 8.64062 v 1.28125 q -1.28125,1.35937 -2.53125,3.60937 -1.25,2.25 -1.9375,4.625 -0.48437,1.67188 -0.625,3.67188 h -1.6875 q 0.0312,-1.57813 0.625,-3.8125 0.59375,-2.23438 1.6875,-4.29688 1.10938,-2.07812 2.35938,-3.5 z"
       fill="#000000" />
    <path
       id="path69"
       fill-rule="evenodd"
       d="m 220.91339,425.19553 h 138.04724 v 32.72443 H 220.91339 Z"
       fill="#cfe2f3" />
    <path
       id="path71"
       fill-rule="evenodd"
       d="m 220.91339,425.19553 h 138.04724 v 32.72443 H 220.91339 Z"
       stroke-linecap="butt"
       stroke-linejoin="round"
       stroke-width="1"
       stroke="#000000" />
    <path
       id="path73"
       fill-rule="nonzero"
       d="m 231.27277,448.47775 v -13.35937 h 1.78125 v 11.78125 h 6.5625 v 1.57812 z m 11.39654,0 -3.53125,-13.35937 h 1.8125 l 2.03125,8.76562 q 0.32813,1.375 0.5625,2.71875 0.5,-2.14062 0.59375,-2.46875 l 2.54688,-9.01562 h 2.125 l 1.92187,6.76562 q 0.71875,2.51563 1.03125,4.71875 0.26563,-1.26562 0.67188,-2.89062 l 2.09375,-8.59375 h 1.78125 l -3.67188,13.35937 h -1.70312 l -2.8125,-10.17187 q -0.35938,-1.28125 -0.42188,-1.5625 -0.20312,0.90625 -0.39062,1.5625 l -2.82813,10.17187 z m 15.28052,0 v -13.35937 h 5.04688 q 1.32812,0 2.03125,0.125 0.96875,0.17187 1.64062,0.64062 0.67188,0.45313 1.07813,1.28125 0.40625,0.82813 0.40625,1.82813 0,1.70312 -1.09375,2.89062 -1.07813,1.17188 -3.92188,1.17188 h -3.42187 v 5.42187 z m 1.76563,-7 h 3.45312 q 1.71875,0 2.4375,-0.64062 0.71875,-0.64063 0.71875,-1.79688 0,-0.84375 -0.42187,-1.4375 -0.42188,-0.59375 -1.125,-0.78125 -0.4375,-0.125 -1.64063,-0.125 h -3.42187 z m 23.47714,5.42188 v 1.57812 h -8.82812 q -0.0156,-0.59375 0.1875,-1.14062 0.34375,-0.90625 1.07812,-1.78125 0.75,-0.875 2.15625,-2.01563 2.17188,-1.78125 2.9375,-2.82812 0.76563,-1.04688 0.76563,-1.96875 0,-0.98438 -0.70313,-1.64063 -0.6875,-0.67187 -1.8125,-0.67187 -1.1875,0 -1.90625,0.71875 -0.70312,0.70312 -0.70312,1.95312 l -1.6875,-0.17187 q 0.17187,-1.89063 1.29687,-2.875 1.14063,-0.98438 3.03125,-0.98438 1.92188,0 3.04688,1.0625 1.125,1.0625 1.125,2.64063 0,0.79687 -0.32813,1.57812 -0.32812,0.78125 -1.09375,1.64063 -0.75,0.84375 -2.53125,2.34375 -1.46875,1.23437 -1.89062,1.6875 -0.42188,0.4375 -0.6875,0.875 z m 10.37573,0 v 1.57812 h -8.82812 q -0.0156,-0.59375 0.1875,-1.14062 0.34375,-0.90625 1.07812,-1.78125 0.75,-0.875 2.15625,-2.01563 2.17188,-1.78125 2.9375,-2.82812 0.76563,-1.04688 0.76563,-1.96875 0,-0.98438 -0.70313,-1.64063 -0.6875,-0.67187 -1.8125,-0.67187 -1.1875,0 -1.90625,0.71875 -0.70312,0.70312 -0.70312,1.95312 l -1.6875,-0.17187 q 0.17187,-1.89063 1.29687,-2.875 1.14063,-0.98438 3.03125,-0.98438 1.92188,0 3.04688,1.0625 1.125,1.0625 1.125,2.64063 0,0.79687 -0.32813,1.57812 -0.32812,0.78125 -1.09375,1.64063 -0.75,0.84375 -2.53125,2.34375 -1.46875,1.23437 -1.89062,1.6875 -0.42188,0.4375 -0.6875,0.875 z m 1.76633,-1.95313 1.64062,-0.21875 q 0.28125,1.40625 0.95313,2.01563 0.6875,0.60937 1.65625,0.60937 1.15625,0 1.95312,-0.79687 0.79688,-0.79688 0.79688,-1.98438 0,-1.125 -0.73438,-1.85937 -0.73437,-0.73438 -1.875,-0.73438 -0.46875,0 -1.15625,0.17188 l 0.1875,-1.4375 q 0.15625,0.0156 0.26563,0.0156 1.04687,0 1.875,-0.54687 0.84375,-0.54688 0.84375,-1.67188 0,-0.90625 -0.60938,-1.5 -0.60937,-0.59375 -1.57812,-0.59375 -0.95313,0 -1.59375,0.60938 -0.64063,0.59375 -0.8125,1.79687 l -1.64063,-0.29687 q 0.29688,-1.64063 1.35938,-2.54688 1.0625,-0.90625 2.65625,-0.90625 1.09375,0 2,0.46875 0.92187,0.46875 1.40625,1.28125 0.5,0.8125 0.5,1.71875 0,0.85938 -0.46875,1.57813 -0.46875,0.70312 -1.375,1.125 1.1875,0.28125 1.84375,1.14062 0.65625,0.85938 0.65625,2.15625 0,1.73438 -1.28125,2.95313 -1.26563,1.21875 -3.21875,1.21875 -1.76563,0 -2.92188,-1.04688 -1.15625,-1.04687 -1.32812,-2.71875 z m 10.61011,0.4375 1.57812,-0.14062 q 0.20313,1.10937 0.76563,1.60937 0.5625,0.5 1.45312,0.5 0.75,0 1.3125,-0.34375 0.57813,-0.34375 0.9375,-0.92187 0.375,-0.57813 0.60938,-1.5625 0.25,-0.98438 0.25,-2 0,-0.10938 0,-0.32813 -0.5,0.78125 -1.35938,1.26563 -0.84375,0.48437 -1.82812,0.48437 -1.67188,0 -2.8125,-1.20312 -1.14063,-1.20313 -1.14063,-3.17188 0,-2.03125 1.1875,-3.26562 1.20313,-1.23438 3,-1.23438 1.3125,0 2.39063,0.70313 1.07812,0.70312 1.64062,2 0.5625,1.29687 0.5625,3.75 0,2.5625 -0.5625,4.07812 -0.5625,1.51563 -1.65625,2.3125 -1.09375,0.79688 -2.57812,0.79688 -1.5625,0 -2.5625,-0.875 -0.98438,-0.875 -1.1875,-2.45313 z m 6.71875,-5.89062 q 0,-1.40625 -0.75,-2.23438 -0.75,-0.82812 -1.8125,-0.82812 -1.09375,0 -1.90625,0.89062 -0.8125,0.89063 -0.8125,2.3125 0,1.28125 0.76562,2.07813 0.78125,0.79687 1.90625,0.79687 1.14063,0 1.875,-0.79687 0.73438,-0.79688 0.73438,-2.21875 z"
       fill="#000000" />
    <path
       id="path75"
       fill-rule="evenodd"
       d="M 358.96063,441.55774 H 488.31497 V 343.47901 H 617.66931"
       fill-opacity="0"
       fill="#000000" />
    <path
       id="path77"
       fill-rule="evenodd"
       d="M 358.96063,441.55774 H 488.31497 V 343.47901 H 610.81512"
       stroke-linecap="butt"
       stroke-linejoin="round"
       stroke-width="2"
       stroke="#000000" />
    <path
       id="path79"
       fill-rule="evenodd"
       d="m 610.8151,343.479 -2.24915,2.24918 6.17951,-2.24918 -6.17951,-2.24918 z"
       stroke-linecap="butt"
       stroke-width="2"
       stroke="#000000"
       fill="#000000" />
    <path
       id="path81"
       fill-rule="evenodd"
       d="m 220.91339,225.45538 h 138.04724 v 32.7244 H 220.91339 Z"
       fill="#cfe2f3" />
    <path
       id="path83"
       fill-rule="evenodd"
       d="m 220.91339,225.45538 h 138.04724 v 32.7244 H 220.91339 Z"
       stroke-linecap="butt"
       stroke-linejoin="round"
       stroke-width="1"
       stroke="#000000" />
    <path
       id="path85"
       fill-rule="nonzero"
       d="m 234.14777,242.42508 q -0.21875,-0.21875 -0.21875,-0.51563 0,-0.29687 0.21875,-0.51562 0.21875,-0.23438 0.51562,-0.23438 0.29688,0 0.51563,0.23438 0.23437,0.21875 0.23437,0.51562 0,0.29688 -0.23437,0.51563 -0.21875,0.21875 -0.51563,0.21875 -0.29687,0 -0.51562,-0.21875 z m 0,-3.48438 q -0.21875,-0.21875 -0.21875,-0.51562 0,-0.29688 0.21875,-0.53125 0.21875,-0.21875 0.51562,-0.21875 0.29688,0 0.51563,0.21875 0.23437,0.23437 0.23437,0.53125 0,0.29687 -0.23437,0.51562 -0.21875,0.21875 -0.51563,0.21875 -0.29687,0 -0.51562,-0.21875 z m 0,6.96875 q -0.21875,-0.21875 -0.21875,-0.51562 0,-0.29688 0.21875,-0.51563 0.21875,-0.21875 0.51562,-0.21875 0.29688,0 0.51563,0.21875 0.23437,0.21875 0.23437,0.51563 0,0.29687 -0.23437,0.51562 -0.21875,0.23438 -0.51563,0.23438 -0.29687,0 -0.51562,-0.23438 z"
       fill="#000000" />
    <path
       id="path87"
       fill-rule="evenodd"
       d="M 799.83466,125.23622 H 409.83054 v -19.16929 h -38.09827 v 6.38976 L 358.95276,99.677161 371.73227,86.897635 v 6.389763 h 38.09827 V 74.118109 h 390.00412 z"
       fill="#fff2cc" />
    <path
       id="path89"
       fill-rule="evenodd"
       d="M 799.83466,125.23622 H 409.83054 v -19.16929 h -38.09827 v 6.38976 L 358.95276,99.677161 371.73227,86.897635 v 6.389763 h 38.09827 V 74.118109 h 390.00412 z"
       stroke-linecap="butt"
       stroke-linejoin="round"
       stroke-width="1"
       stroke="#000000" />
    <path
       id="path91"
       fill-rule="evenodd"
       d="M 437.56955,76.244095 H 809.06561 V 123.11024 H 437.56955 Z"
       fill-opacity="0"
       fill="#000000" />
    <path
       id="path93"
       fill-rule="nonzero"
       d="M 447.92892,95.59716 V 82.237785 h 1.78125 v 11.78125 h 6.5625 v 1.578125 z m 11.39654,0 -3.53125,-13.359375 h 1.8125 l 2.03125,8.765625 q 0.32813,1.375 0.5625,2.71875 0.5,-2.140625 0.59375,-2.46875 l 2.54688,-9.015625 h 2.125 l 1.92187,6.765625 q 0.71875,2.515625 1.03125,4.71875 0.26563,-1.265625 0.67188,-2.890625 l 2.09375,-8.59375 h 1.78125 l -3.67188,13.359375 h -1.70312 l -2.8125,-10.171875 q -0.35938,-1.28125 -0.42188,-1.5625 -0.20312,0.90625 -0.39062,1.5625 l -2.82813,10.171875 z m 15.28055,0 V 82.237785 h 5.04688 q 1.32812,0 2.03125,0.125 0.96875,0.171875 1.64062,0.640625 0.67188,0.453125 1.07813,1.28125 0.40625,0.828125 0.40625,1.828125 0,1.703125 -1.09375,2.890625 -1.07813,1.171875 -3.92188,1.171875 h -3.42187 v 5.421875 z m 1.76563,-7 h 3.45312 q 1.71875,0 2.4375,-0.640625 0.71875,-0.640625 0.71875,-1.796875 0,-0.84375 -0.42187,-1.4375 -0.42188,-0.59375 -1.125,-0.78125 -0.4375,-0.125 -1.64063,-0.125 h -3.42187 z m 18.44589,10.921875 q -1.35937,-1.703125 -2.29687,-4 -0.9375,-2.296875 -0.9375,-4.765625 0,-2.15625 0.70312,-4.140625 0.82813,-2.3125 2.53125,-4.59375 h 1.17188 q -1.09375,1.890625 -1.45313,2.703125 -0.54687,1.25 -0.875,2.625 -0.39062,1.703125 -0.39062,3.421875 0,4.375 2.71875,8.75 z m 3.0408,-3.921875 V 82.237785 h 1.64063 V 95.59716 Z m 4.19168,-11.46875 v -1.890625 h 1.64063 v 1.890625 z m 0,11.46875 v -9.671875 h 1.64063 v 9.671875 z m 3.83234,0.796875 1.59375,0.234375 q 0.10937,0.75 0.5625,1.078125 0.60937,0.453125 1.67187,0.453125 1.14063,0 1.75,-0.453125 0.62497,-0.453125 0.84372,-1.265625 0.125,-0.5 0.10938,-2.109375 -1.06247,1.265625 -2.67185,1.265625 -2,0 -3.09375,-1.4375 -1.09375,-1.4375 -1.09375,-3.453125 0,-1.390625 0.5,-2.5625 0.51563,-1.171875 1.45313,-1.796875 0.95312,-0.640625 2.25,-0.640625 1.70312,0 2.81247,1.375 v -1.15625 h 1.51562 v 8.359375 q 0,2.265625 -0.46875,3.203125 -0.45312,0.9375 -1.45312,1.484375 -0.98435,0.546875 -2.4531,0.546875 -1.71875,0 -2.79687,-0.78125 -1.0625,-0.765625 -1.03125,-2.34375 z m 1.35937,-5.8125 q 0,1.90625 0.75,2.78125 0.76563,0.875 1.90625,0.875 1.125,0 1.89063,-0.859375 0.76559,-0.875 0.76559,-2.734375 0,-1.78125 -0.79684,-2.671875 -0.78125,-0.90625 -1.89063,-0.90625 -1.09375,0 -1.85937,0.890625 -0.76563,0.875 -0.76563,2.625 z m 9.32883,5.015625 V 82.237785 h 1.64063 v 4.796875 q 1.14062,-1.328125 2.89062,-1.328125 1.07813,0 1.85938,0.421875 0.79687,0.421875 1.14062,1.171875 0.34375,0.75 0.34375,2.171875 v 6.125 h -1.64062 v -6.125 q 0,-1.234375 -0.53125,-1.796875 -0.53125,-0.5625 -1.51563,-0.5625 -0.71875,0 -1.35937,0.390625 -0.64063,0.375 -0.92188,1.015625 -0.26562,0.640625 -0.26562,1.78125 v 5.296875 z m 13.95386,-1.46875 0.23437,1.453125 q -0.6875,0.140625 -1.23437,0.140625 -0.89063,0 -1.39063,-0.28125 -0.48437,-0.28125 -0.6875,-0.734375 -0.20312,-0.46875 -0.20312,-1.9375 V 87.19091 h -1.20313 v -1.265625 h 1.20313 V 83.53466 l 1.625,-0.984375 v 3.375 h 1.65625 v 1.265625 h -1.65625 v 5.671875 q 0,0.6875 0.0781,0.890625 0.0937,0.203125 0.28125,0.328125 0.20313,0.109375 0.57813,0.109375 0.26562,0 0.71875,-0.0625 z m 0.96454,-2.546875 V 89.94091 h 5.03125 v 1.640625 z m 8.63458,4.015625 -2.96875,-9.671875 h 1.70312 l 1.53125,5.578125 0.57813,2.078125 q 0.0469,-0.15625 0.5,-2 l 1.54687,-5.65625 h 1.6875 l 1.4375,5.609375 0.48438,1.84375 0.5625,-1.859375 1.65625,-5.59375 h 1.59375 l -3.03125,9.671875 h -1.70313 l -1.53125,-5.796875 -0.375,-1.640625 -1.95312,7.4375 z m 18.31665,-3.109375 1.6875,0.203125 q -0.40625,1.484375 -1.48438,2.3125 -1.07812,0.8125 -2.76562,0.8125 -2.125,0 -3.375,-1.296875 -1.23438,-1.3125 -1.23438,-3.671875 0,-2.453125 1.25,-3.796875 1.26563,-1.34375 3.26563,-1.34375 1.9375,0 3.15625,1.328125 1.23437,1.3125 1.23437,3.703125 0,0.15625 0,0.4375 h -7.21875 q 0.0937,1.59375 0.90625,2.453125 0.8125,0.84375 2.01563,0.84375 0.90625,0 1.54687,-0.46875 0.64063,-0.484375 1.01563,-1.515625 z m -5.39063,-2.65625 h 5.40625 q -0.10937,-1.21875 -0.625,-1.828125 -0.78125,-0.953125 -2.03125,-0.953125 -1.125,0 -1.90625,0.765625 -0.76562,0.75 -0.84375,2.015625 z m 9.14136,-5.703125 v -1.890625 h 1.64063 v 1.890625 z m 0,11.46875 v -9.671875 h 1.64063 v 9.671875 z m 3.83234,0.796875 1.59375,0.234375 q 0.10937,0.75 0.5625,1.078125 0.60937,0.453125 1.67187,0.453125 1.14063,0 1.75,-0.453125 0.625,-0.453125 0.84375,-1.265625 0.125,-0.5 0.10938,-2.109375 -1.0625,1.265625 -2.67188,1.265625 -2,0 -3.09375,-1.4375 -1.09375,-1.4375 -1.09375,-3.453125 0,-1.390625 0.5,-2.5625 0.51563,-1.171875 1.45313,-1.796875 0.95312,-0.640625 2.25,-0.640625 1.70312,0 2.8125,1.375 v -1.15625 h 1.51562 v 8.359375 q 0,2.265625 -0.46875,3.203125 -0.45312,0.9375 -1.45312,1.484375 -0.98438,0.546875 -2.45313,0.546875 -1.71875,0 -2.79687,-0.78125 -1.0625,-0.765625 -1.03125,-2.34375 z m 1.35937,-5.8125 q 0,1.90625 0.75,2.78125 0.76563,0.875 1.90625,0.875 1.125,0 1.89063,-0.859375 0.76562,-0.875 0.76562,-2.734375 0,-1.78125 -0.79687,-2.671875 -0.78125,-0.90625 -1.89063,-0.90625 -1.09375,0 -1.85937,0.890625 -0.76563,0.875 -0.76563,2.625 z m 9.32886,5.015625 V 82.237785 h 1.64062 v 4.796875 q 1.14063,-1.328125 2.89063,-1.328125 1.07812,0 1.85937,0.421875 0.79688,0.421875 1.14063,1.171875 0.34375,0.75 0.34375,2.171875 v 6.125 h -1.64063 v -6.125 q 0,-1.234375 -0.53125,-1.796875 -0.53125,-0.5625 -1.51562,-0.5625 -0.71875,0 -1.35938,0.390625 -0.64062,0.375 -0.92187,1.015625 -0.26563,0.640625 -0.26563,1.78125 v 5.296875 z m 13.9538,-1.46875 0.23437,1.453125 q -0.6875,0.140625 -1.23437,0.140625 -0.89063,0 -1.39063,-0.28125 -0.48437,-0.28125 -0.6875,-0.734375 -0.20312,-0.46875 -0.20312,-1.9375 V 87.19091 h -1.20313 v -1.265625 h 1.20313 V 83.53466 l 1.625,-0.984375 v 3.375 h 1.65625 v 1.265625 h -1.65625 v 5.671875 q 0,0.6875 0.0781,0.890625 0.0937,0.203125 0.28125,0.328125 0.20313,0.109375 0.57813,0.109375 0.26562,0 0.71875,-0.0625 z m 6.78851,5.171875 v -13.375 h 1.48437 v 1.25 q 0.53125,-0.734375 1.1875,-1.09375 0.67188,-0.375 1.625,-0.375 1.23438,0 2.17188,0.640625 0.95312,0.625 1.4375,1.796875 0.48437,1.15625 0.48437,2.546875 0,1.484375 -0.53125,2.671875 -0.53125,1.1875 -1.54687,1.828125 -1.01563,0.625 -2.14063,0.625 -0.8125,0 -1.46875,-0.34375 -0.65625,-0.34375 -1.0625,-0.875 v 4.703125 z m 1.48437,-8.484375 q 0,1.859375 0.75,2.765625 0.76563,0.890625 1.82813,0.890625 1.09375,0 1.875,-0.921875 0.78125,-0.9375 0.78125,-2.875 0,-1.84375 -0.76563,-2.765625 -0.75,-0.921875 -1.8125,-0.921875 -1.04687,0 -1.85937,0.984375 -0.79688,0.96875 -0.79688,2.84375 z m 8.87574,4.78125 v -9.671875 h 1.46875 v 1.46875 q 0.5625,-1.03125 1.03125,-1.359375 0.48437,-0.328125 1.0625,-0.328125 0.82812,0 1.6875,0.53125 l -0.5625,1.515625 q -0.60938,-0.359375 -1.20313,-0.359375 -0.54687,0 -0.96875,0.328125 -0.42187,0.328125 -0.60937,0.890625 -0.28125,0.875 -0.28125,1.921875 v 5.0625 z m 5.61889,-4.84375 q 0,-2.6875 1.48438,-3.96875 1.25,-1.078125 3.04687,-1.078125 2,0 3.26563,1.3125 1.26562,1.296875 1.26562,3.609375 0,1.859375 -0.5625,2.9375 -0.5625,1.0625 -1.64062,1.65625 -1.0625,0.59375 -2.32813,0.59375 -2.03125,0 -3.28125,-1.296875 -1.25,-1.3125 -1.25,-3.765625 z m 1.6875,0 q 0,1.859375 0.79688,2.796875 0.8125,0.921875 2.04687,0.921875 1.21875,0 2.03125,-0.921875 0.8125,-0.9375 0.8125,-2.84375 0,-1.796875 -0.8125,-2.71875 -0.8125,-0.921875 -2.03125,-0.921875 -1.23437,0 -2.04687,0.921875 -0.79688,0.90625 -0.79688,2.765625 z m 15.61011,1.296875 1.60937,0.21875 q -0.26562,1.65625 -1.35937,2.609375 -1.07813,0.9375 -2.67188,0.9375 -1.98437,0 -3.1875,-1.296875 -1.20312,-1.296875 -1.20312,-3.71875 0,-1.578125 0.51562,-2.75 0.51563,-1.171875 1.57813,-1.75 1.0625,-0.59375 2.3125,-0.59375 1.57812,0 2.57812,0.796875 1,0.796875 1.28125,2.265625 l -1.59375,0.234375 q -0.23437,-0.96875 -0.8125,-1.453125 -0.57812,-0.5 -1.39062,-0.5 -1.23438,0 -2.01563,0.890625 -0.78125,0.890625 -0.78125,2.8125 0,1.953125 0.75,2.84375 0.75,0.875 1.95313,0.875 0.96875,0 1.60937,-0.59375 0.65625,-0.59375 0.82813,-1.828125 z m 9.64062,0.4375 1.6875,0.203125 q -0.40625,1.484375 -1.48437,2.3125 -1.07813,0.8125 -2.76563,0.8125 -2.125,0 -3.375,-1.296875 -1.23437,-1.3125 -1.23437,-3.671875 0,-2.453125 1.25,-3.796875 1.26562,-1.34375 3.26562,-1.34375 1.9375,0 3.15625,1.328125 1.23438,1.3125 1.23438,3.703125 0,0.15625 0,0.4375 h -7.21875 q 0.0937,1.59375 0.90625,2.453125 0.8125,0.84375 2.01562,0.84375 0.90625,0 1.54688,-0.46875 0.64062,-0.484375 1.01562,-1.515625 z m -5.39062,-2.65625 h 5.40625 q -0.10938,-1.21875 -0.625,-1.828125 -0.78125,-0.953125 -2.03125,-0.953125 -1.125,0 -1.90625,0.765625 -0.76563,0.75 -0.84375,2.015625 z m 8.48511,2.875 1.625,-0.25 q 0.125,0.96875 0.75,1.5 0.625,0.515625 1.75,0.515625 1.125,0 1.67187,-0.453125 0.54688,-0.46875 0.54688,-1.09375 0,-0.546875 -0.48438,-0.875 -0.32812,-0.21875 -1.67187,-0.546875 -1.8125,-0.46875 -2.51563,-0.796875 -0.6875,-0.328125 -1.04687,-0.90625 -0.35938,-0.59375 -0.35938,-1.3125 0,-0.640625 0.29688,-1.1875 0.29687,-0.5625 0.8125,-0.921875 0.375,-0.28125 1.03125,-0.46875 0.67187,-0.203125 1.42187,-0.203125 1.14063,0 2,0.328125 0.85938,0.328125 1.26563,0.890625 0.42187,0.5625 0.57812,1.5 l -1.60937,0.21875 q -0.10938,-0.75 -0.64063,-1.171875 -0.51562,-0.421875 -1.46875,-0.421875 -1.14062,0 -1.625,0.375 -0.46875,0.375 -0.46875,0.875 0,0.3125 0.1875,0.578125 0.20313,0.265625 0.64063,0.4375 0.23437,0.09375 1.4375,0.421875 1.75,0.453125 2.4375,0.75 0.6875,0.296875 1.07812,0.859375 0.39063,0.5625 0.39063,1.40625 0,0.828125 -0.48438,1.546875 -0.46875,0.71875 -1.375,1.125 -0.90625,0.390625 -2.04687,0.390625 -1.875,0 -2.875,-0.78125 -0.98438,-0.78125 -1.25,-2.328125 z m 9.32812,0 1.625,-0.25 q 0.125,0.96875 0.75,1.5 0.625,0.515625 1.75,0.515625 1.125,0 1.67188,-0.453125 0.54687,-0.46875 0.54687,-1.09375 0,-0.546875 -0.48437,-0.875 -0.32813,-0.21875 -1.67188,-0.546875 -1.8125,-0.46875 -2.51562,-0.796875 -0.6875,-0.328125 -1.04688,-0.90625 -0.35937,-0.59375 -0.35937,-1.3125 0,-0.640625 0.29687,-1.1875 0.29688,-0.5625 0.8125,-0.921875 0.375,-0.28125 1.03125,-0.46875 0.67188,-0.203125 1.42188,-0.203125 1.14062,0 2,0.328125 0.85937,0.328125 1.26562,0.890625 0.42188,0.5625 0.57813,1.5 l -1.60938,0.21875 q -0.10937,-0.75 -0.64062,-1.171875 -0.51563,-0.421875 -1.46875,-0.421875 -1.14063,0 -1.625,0.375 -0.46875,0.375 -0.46875,0.875 0,0.3125 0.1875,0.578125 0.20312,0.265625 0.64062,0.4375 0.23438,0.09375 1.4375,0.421875 1.75,0.453125 2.4375,0.75 0.6875,0.296875 1.07813,0.859375 0.39062,0.5625 0.39062,1.40625 0,0.828125 -0.48437,1.546875 -0.46875,0.71875 -1.375,1.125 -0.90625,0.390625 -2.04688,0.390625 -1.875,0 -2.875,-0.78125 -0.98437,-0.78125 -1.25,-2.328125 z m 11.0625,6.8125 h -1.1875 q 2.73438,-4.375 2.73438,-8.75 0,-1.71875 -0.39063,-3.390625 -0.3125,-1.375 -0.875,-2.625 -0.35937,-0.828125 -1.46875,-2.734375 h 1.1875 q 1.70313,2.28125 2.53125,4.59375 0.6875,1.984375 0.6875,4.140625 0,2.46875 -0.9375,4.765625 -0.9375,2.296875 -2.28125,4 z m 10.30219,-3.921875 v -9.671875 h 1.46875 v 1.46875 q 0.5625,-1.03125 1.03125,-1.359375 0.48437,-0.328125 1.0625,-0.328125 0.82812,0 1.6875,0.53125 l -0.5625,1.515625 q -0.60938,-0.359375 -1.20313,-0.359375 -0.54687,0 -0.96875,0.328125 -0.42187,0.328125 -0.60937,0.890625 -0.28125,0.875 -0.28125,1.921875 v 5.0625 z m 12.85333,-3.109375 1.6875,0.203125 q -0.40625,1.484375 -1.48438,2.3125 -1.07812,0.8125 -2.76562,0.8125 -2.125,0 -3.375,-1.296875 -1.23438,-1.3125 -1.23438,-3.671875 0,-2.453125 1.25,-3.796875 1.26563,-1.34375 3.26563,-1.34375 1.9375,0 3.15625,1.328125 1.23437,1.3125 1.23437,3.703125 0,0.15625 0,0.4375 h -7.21875 q 0.0937,1.59375 0.90625,2.453125 0.8125,0.84375 2.01563,0.84375 0.90625,0 1.54687,-0.46875 0.64063,-0.484375 1.01563,-1.515625 z m -5.39063,-2.65625 h 5.40625 q -0.10937,-1.21875 -0.625,-1.828125 -0.78125,-0.953125 -2.03125,-0.953125 -1.125,0 -1.90625,0.765625 -0.76562,0.75 -0.84375,2.015625 z m 9.14136,9.46875 v -13.375 h 1.48438 v 1.25 q 0.53125,-0.734375 1.1875,-1.09375 0.67187,-0.375 1.625,-0.375 1.23437,0 2.17187,0.640625 0.95313,0.625 1.4375,1.796875 0.48438,1.15625 0.48438,2.546875 0,1.484375 -0.53125,2.671875 -0.53125,1.1875 -1.54688,1.828125 -1.01562,0.625 -2.14062,0.625 -0.8125,0 -1.46875,-0.34375 -0.65625,-0.34375 -1.0625,-0.875 v 4.703125 z m 1.48438,-8.484375 q 0,1.859375 0.75,2.765625 0.76562,0.890625 1.82812,0.890625 1.09375,0 1.875,-0.921875 0.78125,-0.9375 0.78125,-2.875 0,-1.84375 -0.76562,-2.765625 -0.75,-0.921875 -1.8125,-0.921875 -1.04688,0 -1.85938,0.984375 -0.79687,0.96875 -0.79687,2.84375 z m 8.87573,4.78125 v -9.671875 h 1.46875 v 1.46875 q 0.5625,-1.03125 1.03125,-1.359375 0.48437,-0.328125 1.0625,-0.328125 0.82812,0 1.6875,0.53125 l -0.5625,1.515625 q -0.60938,-0.359375 -1.20313,-0.359375 -0.54687,0 -0.96875,0.328125 -0.42187,0.328125 -0.60937,0.890625 -0.28125,0.875 -0.28125,1.921875 v 5.0625 z m 12.85327,-3.109375 1.6875,0.203125 q -0.40625,1.484375 -1.48438,2.3125 -1.07812,0.8125 -2.76562,0.8125 -2.125,0 -3.375,-1.296875 -1.23438,-1.3125 -1.23438,-3.671875 0,-2.453125 1.25,-3.796875 1.26563,-1.34375 3.26563,-1.34375 1.9375,0 3.15625,1.328125 1.23437,1.3125 1.23437,3.703125 0,0.15625 0,0.4375 h -7.21875 q 0.0937,1.59375 0.90625,2.453125 0.8125,0.84375 2.01563,0.84375 0.90625,0 1.54687,-0.46875 0.64063,-0.484375 1.01563,-1.515625 z m -5.39063,-2.65625 h 5.40625 q -0.10937,-1.21875 -0.625,-1.828125 -0.78125,-0.953125 -2.03125,-0.953125 -1.125,0 -1.90625,0.765625 -0.76562,0.75 -0.84375,2.015625 z m 8.48511,2.875 1.625,-0.25 q 0.125,0.96875 0.75,1.5 0.625,0.515625 1.75,0.515625 1.125,0 1.67188,-0.453125 0.54687,-0.46875 0.54687,-1.09375 0,-0.546875 -0.48437,-0.875 -0.32813,-0.21875 -1.67188,-0.546875 -1.8125,-0.46875 -2.51562,-0.796875 -0.6875,-0.328125 -1.04688,-0.90625 -0.35937,-0.59375 -0.35937,-1.3125 0,-0.640625 0.29687,-1.1875 0.29688,-0.5625 0.8125,-0.921875 0.375,-0.28125 1.03125,-0.46875 0.67188,-0.203125 1.42188,-0.203125 1.14062,0 2,0.328125 0.85937,0.328125 1.26562,0.890625 0.42188,0.5625 0.57813,1.5 l -1.60938,0.21875 q -0.10937,-0.75 -0.64062,-1.171875 -0.51563,-0.421875 -1.46875,-0.421875 -1.14063,0 -1.625,0.375 -0.46875,0.375 -0.46875,0.875 0,0.3125 0.1875,0.578125 0.20312,0.265625 0.64062,0.4375 0.23438,0.09375 1.4375,0.421875 1.75,0.453125 2.4375,0.75 0.6875,0.296875 1.07813,0.859375 0.39062,0.5625 0.39062,1.40625 0,0.828125 -0.48437,1.546875 -0.46875,0.71875 -1.375,1.125 -0.90625,0.390625 -2.04688,0.390625 -1.875,0 -2.875,-0.78125 -0.98437,-0.78125 -1.25,-2.328125 z m 16.60938,-0.21875 1.6875,0.203125 q -0.40625,1.484375 -1.48438,2.3125 -1.07812,0.8125 -2.76562,0.8125 -2.125,0 -3.375,-1.296875 -1.23438,-1.3125 -1.23438,-3.671875 0,-2.453125 1.25,-3.796875 1.26563,-1.34375 3.26563,-1.34375 1.9375,0 3.15625,1.328125 1.23437,1.3125 1.23437,3.703125 0,0.15625 0,0.4375 h -7.21875 q 0.0937,1.59375 0.90625,2.453125 0.8125,0.84375 2.01563,0.84375 0.90625,0 1.54687,-0.46875 0.64063,-0.484375 1.01563,-1.515625 z m -5.39063,-2.65625 h 5.40625 q -0.10937,-1.21875 -0.625,-1.828125 -0.78125,-0.953125 -2.03125,-0.953125 -1.125,0 -1.90625,0.765625 -0.76562,0.75 -0.84375,2.015625 z m 9.14136,5.765625 v -9.671875 h 1.46875 v 1.375 q 1.0625,-1.59375 3.07812,-1.59375 0.875,0 1.60938,0.3125 0.73437,0.3125 1.09375,0.828125 0.375,0.5 0.51562,1.203125 0.0937,0.453125 0.0937,1.59375 v 5.953125 h -1.64062 v -5.890625 q 0,-1 -0.20313,-1.484375 -0.1875,-0.5 -0.67187,-0.796875 -0.48438,-0.296875 -1.14063,-0.296875 -1.04687,0 -1.8125,0.671875 -0.75,0.65625 -0.75,2.515625 v 5.28125 z m 13.95386,-1.46875 0.23437,1.453125 q -0.6875,0.140625 -1.23437,0.140625 -0.89063,0 -1.39063,-0.28125 -0.48437,-0.28125 -0.6875,-0.734375 -0.20312,-0.46875 -0.20312,-1.9375 V 87.19091 h -1.20313 v -1.265625 h 1.20313 V 83.53466 l 1.625,-0.984375 v 3.375 h 1.65625 v 1.265625 h -1.65625 v 5.671875 q 0,0.6875 0.0781,0.890625 0.0937,0.203125 0.28125,0.328125 0.20313,0.109375 0.57813,0.109375 0.26562,0 0.71875,-0.0625 z m 0.94891,-1.421875 1.625,-0.25 q 0.125,0.96875 0.75,1.5 0.625,0.515625 1.75,0.515625 1.125,0 1.67187,-0.453125 0.54688,-0.46875 0.54688,-1.09375 0,-0.546875 -0.48438,-0.875 -0.32812,-0.21875 -1.67187,-0.546875 -1.8125,-0.46875 -2.51563,-0.796875 -0.6875,-0.328125 -1.04687,-0.90625 -0.35938,-0.59375 -0.35938,-1.3125 0,-0.640625 0.29688,-1.1875 0.29687,-0.5625 0.8125,-0.921875 0.375,-0.28125 1.03125,-0.46875 0.67187,-0.203125 1.42187,-0.203125 1.14063,0 2,0.328125 0.85938,0.328125 1.26563,0.890625 0.42187,0.5625 0.57812,1.5 l -1.60937,0.21875 q -0.10938,-0.75 -0.64063,-1.171875 -0.51562,-0.421875 -1.46875,-0.421875 -1.14062,0 -1.625,0.375 -0.46875,0.375 -0.46875,0.875 0,0.3125 0.1875,0.578125 0.20313,0.265625 0.64063,0.4375 0.23437,0.09375 1.4375,0.421875 1.75,0.453125 2.4375,0.75 0.6875,0.296875 1.07812,0.859375 0.39063,0.5625 0.39063,1.40625 0,0.828125 -0.48438,1.546875 -0.46875,0.71875 -1.375,1.125 -0.90625,0.390625 -2.04687,0.390625 -1.875,0 -2.875,-0.78125 -0.98438,-0.78125 -1.25,-2.328125 z m 21.48016,1.703125 q -0.92187,0.765625 -1.76562,1.09375 -0.82813,0.3125 -1.79688,0.3125 -1.59375,0 -2.45312,-0.78125 -0.85938,-0.78125 -0.85938,-1.984375 0,-0.71875 0.32813,-1.296875 0.32812,-0.59375 0.84375,-0.9375 0.53125,-0.359375 1.1875,-0.546875 0.46875,-0.125 1.45312,-0.25 1.98438,-0.234375 2.92188,-0.5625 0.0156,-0.34375 0.0156,-0.421875 0,-1 -0.46875,-1.421875 -0.625,-0.546875 -1.875,-0.546875 -1.15625,0 -1.70312,0.40625 -0.54688,0.40625 -0.8125,1.421875 l -1.60938,-0.21875 q 0.21875,-1.015625 0.71875,-1.640625 0.5,-0.640625 1.45313,-0.984375 0.95312,-0.34375 2.1875,-0.34375 1.25,0 2.01562,0.296875 0.78125,0.28125 1.14063,0.734375 0.375,0.4375 0.51562,1.109375 0.0781,0.421875 0.0781,1.515625 v 2.1875 q 0,2.28125 0.10937,2.890625 0.10938,0.59375 0.40625,1.15625 h -1.70312 q -0.26563,-0.515625 -0.32813,-1.1875 z m -0.14062,-3.671875 q -0.89063,0.375 -2.67188,0.625 -1.01562,0.140625 -1.4375,0.328125 -0.42187,0.1875 -0.65625,0.53125 -0.21875,0.34375 -0.21875,0.78125 0,0.65625 0.5,1.09375 0.5,0.4375 1.45313,0.4375 0.9375,0 1.67187,-0.40625 0.75,-0.421875 1.09375,-1.140625 0.26563,-0.5625 0.26563,-1.640625 z"
       fill="#000000" />
    <path
       id="path95"
       fill-rule="nonzero"
       d="m 451.38205,116.12841 0.23437,1.45313 q -0.6875,0.14062 -1.23437,0.14062 -0.89063,0 -1.39063,-0.28125 -0.48437,-0.28125 -0.6875,-0.73437 -0.20312,-0.46875 -0.20312,-1.9375 v -5.57813 h -1.20313 v -1.26562 h 1.20313 v -2.39063 l 1.625,-0.98437 v 3.375 h 1.65625 v 1.26562 h -1.65625 v 5.67188 q 0,0.6875 0.0781,0.89062 0.0937,0.20313 0.28125,0.32813 0.20313,0.10937 0.57813,0.10937 0.26562,0 0.71875,-0.0625 z m 1.60519,1.46875 v -13.35937 h 1.64063 v 4.79687 q 1.14062,-1.32812 2.89062,-1.32812 1.07813,0 1.85938,0.42187 0.79687,0.42188 1.14062,1.17188 0.34375,0.75 0.34375,2.17187 v 6.125 h -1.64062 v -6.125 q 0,-1.23437 -0.53125,-1.79687 -0.53125,-0.5625 -1.51563,-0.5625 -0.71875,0 -1.35937,0.39062 -0.64063,0.375 -0.92188,1.01563 -0.26562,0.64062 -0.26562,1.78125 v 5.29687 z m 10.36008,0 v -9.67187 h 1.46875 v 1.46875 q 0.5625,-1.03125 1.03125,-1.35938 0.48438,-0.32812 1.0625,-0.32812 0.82813,0 1.6875,0.53125 l -0.5625,1.51562 q -0.60937,-0.35937 -1.20312,-0.35937 -0.54688,0 -0.96875,0.32812 -0.42188,0.32813 -0.60938,0.89063 -0.28125,0.875 -0.28125,1.92187 v 5.0625 z m 12.8533,-3.10937 1.6875,0.20312 q -0.40625,1.48438 -1.48437,2.3125 -1.07813,0.8125 -2.76563,0.8125 -2.125,0 -3.375,-1.29687 -1.23437,-1.3125 -1.23437,-3.67188 0,-2.45312 1.25,-3.79687 1.26562,-1.34375 3.26562,-1.34375 1.9375,0 3.15625,1.32812 1.23438,1.3125 1.23438,3.70313 0,0.15625 0,0.4375 h -7.21875 q 0.0937,1.59375 0.90625,2.45312 0.8125,0.84375 2.01562,0.84375 0.90625,0 1.54688,-0.46875 0.64062,-0.48437 1.01562,-1.51562 z M 470.81,111.83154 h 5.40625 q -0.10938,-1.21875 -0.625,-1.82813 -0.78125,-0.95312 -2.03125,-0.95312 -1.125,0 -1.90625,0.76562 -0.76563,0.75 -0.84375,2.01563 z m 15.45386,4.57812 q -0.92188,0.76563 -1.76563,1.09375 -0.82812,0.3125 -1.79687,0.3125 -1.59375,0 -2.45313,-0.78125 -0.85937,-0.78125 -0.85937,-1.98437 0,-0.71875 0.32812,-1.29688 0.32813,-0.59375 0.84375,-0.9375 0.53125,-0.35937 1.1875,-0.54687 0.46875,-0.125 1.45313,-0.25 1.98437,-0.23438 2.92187,-0.5625 0.0156,-0.34375 0.0156,-0.42188 0,-1 -0.46875,-1.42187 -0.625,-0.54688 -1.875,-0.54688 -1.15625,0 -1.70313,0.40625 -0.54687,0.40625 -0.8125,1.42188 l -1.60937,-0.21875 q 0.21875,-1.01563 0.71875,-1.64063 0.5,-0.64062 1.45312,-0.98437 0.95313,-0.34375 2.1875,-0.34375 1.25,0 2.01563,0.29687 0.78125,0.28125 1.14062,0.73438 0.375,0.4375 0.51563,1.10937 0.0781,0.42188 0.0781,1.51563 v 2.1875 q 0,2.28125 0.10938,2.89062 0.10937,0.59375 0.40625,1.15625 h -1.70313 q -0.26562,-0.51562 -0.32812,-1.1875 z m -0.14063,-3.67187 q -0.89062,0.375 -2.67187,0.625 -1.01563,0.14062 -1.4375,0.32812 -0.42188,0.1875 -0.65625,0.53125 -0.21875,0.34375 -0.21875,0.78125 0,0.65625 0.5,1.09375 0.5,0.4375 1.45312,0.4375 0.9375,0 1.67188,-0.40625 0.75,-0.42187 1.09375,-1.14062 0.26562,-0.5625 0.26562,-1.64063 z m 10.46945,4.85937 v -1.21875 q -0.90625,1.4375 -2.70312,1.4375 -1.15625,0 -2.125,-0.64062 -0.96875,-0.64063 -1.5,-1.78125 -0.53125,-1.14063 -0.53125,-2.625 0,-1.45313 0.48437,-2.625 0.48438,-1.1875 1.4375,-1.8125 0.96875,-0.625 2.17188,-0.625 0.875,0 1.54687,0.375 0.6875,0.35937 1.10938,0.95312 v -4.79687 h 1.64062 v 13.35937 z m -5.17187,-4.82812 q 0,1.85937 0.78125,2.78125 0.78125,0.92187 1.84375,0.92187 1.07812,0 1.82812,-0.875 0.75,-0.89062 0.75,-2.6875 0,-1.98437 -0.76562,-2.90625 -0.76563,-0.9375 -1.89063,-0.9375 -1.07812,0 -1.8125,0.89063 -0.73437,0.89062 -0.73437,2.8125 z m 16.24652,4.82812 -2.96875,-9.67187 h 1.70312 l 1.53125,5.57812 0.57813,2.07813 q 0.0469,-0.15625 0.5,-2 l 1.54687,-5.65625 h 1.68753 l 1.4375,5.60937 0.48438,1.84375 0.5625,-1.85937 1.65625,-5.59375 h 1.59375 l -3.03125,9.67187 h -1.70313 l -1.53128,-5.79687 -0.375,-1.64063 -1.95312,7.4375 z m 11.69168,-11.46875 v -1.89062 h 1.64062 v 1.89062 z m 0,11.46875 v -9.67187 h 1.64062 v 9.67187 z m 7.72296,-1.46875 0.23438,1.45313 q -0.6875,0.14062 -1.23438,0.14062 -0.89062,0 -1.39062,-0.28125 -0.48438,-0.28125 -0.6875,-0.73437 -0.20313,-0.46875 -0.20313,-1.9375 v -5.57813 h -1.20312 v -1.26562 h 1.20312 v -2.39063 l 1.625,-0.98437 v 3.375 h 1.65625 v 1.26562 h -1.65625 v 5.67188 q 0,0.6875 0.0781,0.89062 0.0937,0.20313 0.28125,0.32813 0.20312,0.10937 0.57812,0.10937 0.26563,0 0.71875,-0.0625 z m 1.60516,1.46875 v -13.35937 h 1.64063 v 4.79687 q 1.14062,-1.32812 2.89062,-1.32812 1.07813,0 1.85938,0.42187 0.79687,0.42188 1.14062,1.17188 0.34375,0.75 0.34375,2.17187 v 6.125 h -1.64062 v -6.125 q 0,-1.23437 -0.53125,-1.79687 -0.53125,-0.5625 -1.51563,-0.5625 -0.71875,0 -1.35937,0.39062 -0.64063,0.375 -0.92188,1.01563 -0.26562,0.64062 -0.26562,1.78125 v 5.29687 z m 10.37574,-11.46875 v -1.89062 h 1.64062 v 1.89062 z m 0,11.46875 v -9.67187 h 1.64062 v 9.67187 z m 4.14483,0 v -9.67187 h 1.46875 v 1.375 q 1.0625,-1.59375 3.07813,-1.59375 0.875,0 1.60937,0.3125 0.73438,0.3125 1.09375,0.82812 0.375,0.5 0.51563,1.20313 0.0937,0.45312 0.0937,1.59375 v 5.95312 h -1.64063 v -5.89062 q 0,-1 -0.20312,-1.48438 -0.1875,-0.5 -0.67188,-0.79687 -0.48437,-0.29688 -1.14062,-0.29688 -1.04688,0 -1.8125,0.67188 -0.75,0.65625 -0.75,2.51562 v 5.28125 z m 21.87152,-1.1875 q -0.92187,0.76563 -1.76562,1.09375 -0.82813,0.3125 -1.79688,0.3125 -1.59375,0 -2.45312,-0.78125 -0.85938,-0.78125 -0.85938,-1.98437 0,-0.71875 0.32813,-1.29688 0.32812,-0.59375 0.84375,-0.9375 0.53125,-0.35937 1.1875,-0.54687 0.46875,-0.125 1.45312,-0.25 1.98438,-0.23438 2.92188,-0.5625 0.0156,-0.34375 0.0156,-0.42188 0,-1 -0.46875,-1.42187 -0.625,-0.54688 -1.875,-0.54688 -1.15625,0 -1.70312,0.40625 -0.54688,0.40625 -0.8125,1.42188 l -1.60938,-0.21875 q 0.21875,-1.01563 0.71875,-1.64063 0.5,-0.64062 1.45313,-0.98437 0.95312,-0.34375 2.1875,-0.34375 1.25,0 2.01562,0.29687 0.78125,0.28125 1.14063,0.73438 0.375,0.4375 0.51562,1.10937 0.0781,0.42188 0.0781,1.51563 v 2.1875 q 0,2.28125 0.10937,2.89062 0.10938,0.59375 0.40625,1.15625 h -1.70312 q -0.26563,-0.51562 -0.32813,-1.1875 z m -0.14062,-3.67187 q -0.89063,0.375 -2.67188,0.625 -1.01562,0.14062 -1.4375,0.32812 -0.42187,0.1875 -0.65625,0.53125 -0.21875,0.34375 -0.21875,0.78125 0,0.65625 0.5,1.09375 0.5,0.4375 1.45313,0.4375 0.9375,0 1.67187,-0.40625 0.75,-0.42187 1.09375,-1.14062 0.26563,-0.5625 0.26563,-1.64063 z m 9.38714,8.5625 v -13.375 h 1.48438 v 1.25 q 0.53125,-0.73438 1.1875,-1.09375 0.67187,-0.375 1.625,-0.375 1.23437,0 2.17187,0.64062 0.95313,0.625 1.4375,1.79688 0.48438,1.15625 0.48438,2.54687 0,1.48438 -0.53125,2.67188 -0.53125,1.1875 -1.54688,1.82812 -1.01562,0.625 -2.14062,0.625 -0.8125,0 -1.46875,-0.34375 -0.65625,-0.34375 -1.0625,-0.875 v 4.70313 z m 1.48438,-8.48438 q 0,1.85938 0.75,2.76563 0.76562,0.89062 1.82812,0.89062 1.09375,0 1.875,-0.92187 0.78125,-0.9375 0.78125,-2.875 0,-1.84375 -0.76562,-2.76563 -0.75,-0.92187 -1.8125,-0.92187 -1.04688,0 -1.85938,0.98437 -0.79687,0.96875 -0.79687,2.84375 z m 8.87573,4.78125 v -9.67187 h 1.46875 v 1.46875 q 0.5625,-1.03125 1.03125,-1.35938 0.48438,-0.32812 1.0625,-0.32812 0.82813,0 1.6875,0.53125 l -0.5625,1.51562 q -0.60937,-0.35937 -1.20312,-0.35937 -0.54688,0 -0.96875,0.32812 -0.42188,0.32813 -0.60938,0.89063 -0.28125,0.875 -0.28125,1.92187 v 5.0625 z m 5.6189,-4.84375 q 0,-2.6875 1.48437,-3.96875 1.25,-1.07812 3.04688,-1.07812 2,0 3.26562,1.3125 1.26563,1.29687 1.26563,3.60937 0,1.85938 -0.5625,2.9375 -0.5625,1.0625 -1.64063,1.65625 -1.0625,0.59375 -2.32812,0.59375 -2.03125,0 -3.28125,-1.29687 -1.25,-1.3125 -1.25,-3.76563 z m 1.6875,0 q 0,1.85938 0.79687,2.79688 0.8125,0.92187 2.04688,0.92187 1.21875,0 2.03125,-0.92187 0.8125,-0.9375 0.8125,-2.84375 0,-1.79688 -0.8125,-2.71875 -0.8125,-0.92188 -2.03125,-0.92188 -1.23438,0 -2.04688,0.92188 -0.79687,0.90625 -0.79687,2.76562 z m 15.6101,1.29688 1.60938,0.21875 q -0.26563,1.65625 -1.35938,2.60937 -1.07812,0.9375 -2.67187,0.9375 -1.98438,0 -3.1875,-1.29687 -1.20313,-1.29688 -1.20313,-3.71875 0,-1.57813 0.51563,-2.75 0.51562,-1.17188 1.57812,-1.75 1.0625,-0.59375 2.3125,-0.59375 1.57813,0 2.57813,0.79687 1,0.79688 1.28125,2.26563 l -1.59375,0.23437 q -0.23438,-0.96875 -0.8125,-1.45312 -0.57813,-0.5 -1.39063,-0.5 -1.23437,0 -2.01562,0.89062 -0.78125,0.89063 -0.78125,2.8125 0,1.95313 0.75,2.84375 0.75,0.875 1.95312,0.875 0.96875,0 1.60938,-0.59375 0.65625,-0.59375 0.82812,-1.82812 z m 9.64063,0.4375 1.6875,0.20312 q -0.40625,1.48438 -1.48438,2.3125 -1.07812,0.8125 -2.76562,0.8125 -2.125,0 -3.375,-1.29687 -1.23438,-1.3125 -1.23438,-3.67188 0,-2.45312 1.25,-3.79687 1.26563,-1.34375 3.26563,-1.34375 1.9375,0 3.15625,1.32812 1.23437,1.3125 1.23437,3.70313 0,0.15625 0,0.4375 h -7.21875 q 0.0937,1.59375 0.90625,2.45312 0.8125,0.84375 2.01563,0.84375 0.90625,0 1.54687,-0.46875 0.64063,-0.48437 1.01563,-1.51562 z m -5.39063,-2.65625 h 5.40625 q -0.10937,-1.21875 -0.625,-1.82813 -0.78125,-0.95312 -2.03125,-0.95312 -1.125,0 -1.90625,0.76562 -0.76562,0.75 -0.84375,2.01563 z m 8.48511,2.875 1.625,-0.25 q 0.125,0.96875 0.75,1.5 0.625,0.51562 1.75,0.51562 1.125,0 1.67188,-0.45312 0.54687,-0.46875 0.54687,-1.09375 0,-0.54688 -0.48437,-0.875 -0.32813,-0.21875 -1.67188,-0.54688 -1.8125,-0.46875 -2.51562,-0.79687 -0.6875,-0.32813 -1.04688,-0.90625 -0.35937,-0.59375 -0.35937,-1.3125 0,-0.64063 0.29687,-1.1875 0.29688,-0.5625 0.8125,-0.92188 0.375,-0.28125 1.03125,-0.46875 0.67188,-0.20312 1.42188,-0.20312 1.14062,0 2,0.32812 0.85937,0.32813 1.26562,0.89063 0.42188,0.5625 0.57813,1.5 l -1.60938,0.21875 q -0.10937,-0.75 -0.64062,-1.17188 -0.51563,-0.42187 -1.46875,-0.42187 -1.14063,0 -1.625,0.375 -0.46875,0.375 -0.46875,0.875 0,0.3125 0.1875,0.57812 0.20312,0.26563 0.64062,0.4375 0.23438,0.0937 1.4375,0.42188 1.75,0.45312 2.4375,0.75 0.6875,0.29687 1.07813,0.85937 0.39062,0.5625 0.39062,1.40625 0,0.82813 -0.48437,1.54688 -0.46875,0.71875 -1.375,1.125 -0.90625,0.39062 -2.04688,0.39062 -1.875,0 -2.875,-0.78125 -0.98437,-0.78125 -1.25,-2.32812 z m 9.32813,0 1.625,-0.25 q 0.125,0.96875 0.75,1.5 0.625,0.51562 1.75,0.51562 1.125,0 1.67187,-0.45312 0.54688,-0.46875 0.54688,-1.09375 0,-0.54688 -0.48438,-0.875 -0.32812,-0.21875 -1.67187,-0.54688 -1.8125,-0.46875 -2.51563,-0.79687 -0.6875,-0.32813 -1.04687,-0.90625 -0.35938,-0.59375 -0.35938,-1.3125 0,-0.64063 0.29688,-1.1875 0.29687,-0.5625 0.8125,-0.92188 0.375,-0.28125 1.03125,-0.46875 0.67187,-0.20312 1.42187,-0.20312 1.14063,0 2,0.32812 0.85938,0.32813 1.26563,0.89063 0.42187,0.5625 0.57812,1.5 l -1.60937,0.21875 q -0.10938,-0.75 -0.64063,-1.17188 -0.51562,-0.42187 -1.46875,-0.42187 -1.14062,0 -1.625,0.375 -0.46875,0.375 -0.46875,0.875 0,0.3125 0.1875,0.57812 0.20313,0.26563 0.64063,0.4375 0.23437,0.0937 1.4375,0.42188 1.75,0.45312 2.4375,0.75 0.6875,0.29687 1.07812,0.85937 0.39063,0.5625 0.39063,1.40625 0,0.82813 -0.48438,1.54688 -0.46875,0.71875 -1.375,1.125 -0.90625,0.39062 -2.04687,0.39062 -1.875,0 -2.875,-0.78125 -0.98438,-0.78125 -1.25,-2.32812 z"
       fill="#000000" />
  </g>
</svg>
