<?xml version="1.0" encoding="UTF-8" standalone="no"?>
<svg
   xmlns:dc="http://purl.org/dc/elements/1.1/"
   xmlns:cc="http://creativecommons.org/ns#"
   xmlns:rdf="http://www.w3.org/1999/02/22-rdf-syntax-ns#"
   xmlns:svg="http://www.w3.org/2000/svg"
   xmlns="http://www.w3.org/2000/svg"
   xmlns:sodipodi="http://sodipodi.sourceforge.net/DTD/sodipodi-0.dtd"
   xmlns:inkscape="http://www.inkscape.org/namespaces/inkscape"
   version="1.1"
   viewBox="0 0 720.93439 548.72046"
   fill="none"
   stroke="none"
   stroke-linecap="square"
   stroke-miterlimit="10"
   id="svg151"
   sodipodi:docname="elf-core.svg"
   width="720.93439"
   height="548.72046"
   inkscape:version="1.0.1 (3bc2e813f5, 2020-09-07)">
  <metadata
     id="metadata157">
    <rdf:RDF>
      <cc:Work
         rdf:about="">
        <dc:format>image/svg+xml</dc:format>
        <dc:type
           rdf:resource="http://purl.org/dc/dcmitype/StillImage" />
        <dc:title></dc:title>
      </cc:Work>
    </rdf:RDF>
  </metadata>
  <defs
     id="defs155" />
  <sodipodi:namedview
     pagecolor="#ffffff"
     bordercolor="#666666"
     borderopacity="1"
     objecttolerance="10"
     gridtolerance="10"
     guidetolerance="10"
     inkscape:pageopacity="0"
     inkscape:pageshadow="2"
     inkscape:window-width="1364"
     inkscape:window-height="747"
     id="namedview153"
     showgrid="false"
     inkscape:zoom="0.75130208"
     inkscape:cx="337.12554"
     inkscape:cy="341.14436"
     inkscape:window-x="0"
     inkscape:window-y="19"
     inkscape:window-maximized="0"
     inkscape:current-layer="svg151" />
  <clipPath
     id="p.0">
    <path
       d="M 0,0 H 1024 V 768 H 0 Z"
       clip-rule="nonzero"
       id="path2" />
  </clipPath>
  <path
     fill="#000000"
     fill-opacity="0"
     d="m -139.60236,-42.855644 h 1024 V 725.14436 h -1024 z"
     fill-rule="evenodd"
     id="path5" />
  <path
     fill="#fff2cc"
     d="M 139.57611,15.433071 H 579.32416 V 548.22048 H 139.57611 Z"
     fill-rule="evenodd"
     id="path7" />
  <path
     stroke="#000000"
     stroke-width="1"
     stroke-linejoin="round"
     stroke-linecap="butt"
     d="M 139.57611,15.433071 H 579.32416 V 548.22048 H 139.57611 Z"
     fill-rule="evenodd"
     id="path9" />
  <path
     fill="#d9ead3"
     d="M 139.57611,15.433071 H 579.32416 V 68.598426 H 139.57611 Z"
     fill-rule="evenodd"
     id="path11" />
  <path
     stroke="#000000"
     stroke-width="1"
     stroke-linejoin="round"
     stroke-linecap="butt"
     d="M 139.57611,15.433071 H 579.32416 V 68.598426 H 139.57611 Z"
     fill-rule="evenodd"
     id="path13" />
  <path
     fill="#000000"
     d="M 312.17394,48.935746 V 35.576371 h 9.65625 v 1.578125 h -7.875 v 4.09375 h 7.375 v 1.5625 h -7.375 v 4.546875 h 8.1875 v 1.578125 z m 12.3342,0 V 35.576371 h 1.78125 v 11.78125 h 6.5625 v 1.578125 z m 10.5476,0 V 35.576371 h 9.01563 v 1.578125 h -7.25 v 4.140625 h 6.26562 v 1.578125 h -6.26562 v 6.0625 z m 16.28241,0 V 35.576371 h 1.64063 v 4.796875 q 1.14062,-1.328125 2.89062,-1.328125 1.07813,0 1.85938,0.421875 0.79687,0.421875 1.14062,1.171875 0.34375,0.75 0.34375,2.171875 v 6.125 h -1.64062 v -6.125 q 0,-1.234375 -0.53125,-1.796875 -0.53125,-0.5625 -1.51563,-0.5625 -0.71875,0 -1.35937,0.390625 -0.64063,0.375 -0.92188,1.015625 -0.26562,0.640625 -0.26562,1.78125 v 5.296875 z m 17.00071,-3.109375 1.6875,0.203125 q -0.40625,1.484375 -1.48438,2.3125 -1.07812,0.8125 -2.76562,0.8125 -2.125,0 -3.375,-1.296875 -1.23438,-1.3125 -1.23438,-3.671875 0,-2.453125 1.25,-3.796875 1.26563,-1.34375 3.26563,-1.34375 1.9375,0 3.15625,1.328125 1.23437,1.3125 1.23437,3.703125 0,0.15625 0,0.4375 h -7.21875 q 0.0937,1.59375 0.90625,2.453125 0.8125,0.84375 2.01563,0.84375 0.90625,0 1.54687,-0.46875 0.64063,-0.484375 1.01563,-1.515625 z m -5.39063,-2.65625 h 5.40625 q -0.10937,-1.21875 -0.625,-1.828125 -0.78125,-0.953125 -2.03125,-0.953125 -1.125,0 -1.90625,0.765625 -0.76562,0.75 -0.84375,2.015625 z m 15.45386,4.578125 q -0.92188,0.765625 -1.76563,1.09375 -0.82812,0.3125 -1.79687,0.3125 -1.59375,0 -2.45313,-0.78125 -0.85937,-0.78125 -0.85937,-1.984375 0,-0.71875 0.32812,-1.296875 0.32813,-0.59375 0.84375,-0.9375 0.53125,-0.359375 1.1875,-0.546875 0.46875,-0.125 1.45313,-0.25 1.98437,-0.234375 2.92187,-0.5625 0.0156,-0.34375 0.0156,-0.421875 0,-1 -0.46875,-1.421875 -0.625,-0.546875 -1.875,-0.546875 -1.15625,0 -1.70313,0.40625 -0.54687,0.40625 -0.8125,1.421875 l -1.60937,-0.21875 q 0.21875,-1.015625 0.71875,-1.640625 0.5,-0.640625 1.45312,-0.984375 0.95313,-0.34375 2.1875,-0.34375 1.25,0 2.01563,0.296875 0.78125,0.28125 1.14062,0.734375 0.375,0.4375 0.51563,1.109375 0.0781,0.421875 0.0781,1.515625 v 2.1875 q 0,2.28125 0.10938,2.890625 0.10937,0.59375 0.40625,1.15625 h -1.70313 q -0.26562,-0.515625 -0.32812,-1.1875 z m -0.14063,-3.671875 q -0.89062,0.375 -2.67187,0.625 -1.01563,0.140625 -1.4375,0.328125 -0.42188,0.1875 -0.65625,0.53125 -0.21875,0.34375 -0.21875,0.78125 0,0.65625 0.5,1.09375 0.5,0.4375 1.45312,0.4375 0.9375,0 1.67188,-0.40625 0.75,-0.421875 1.09375,-1.140625 0.26562,-0.5625 0.26562,-1.640625 z m 10.46949,4.859375 v -1.21875 q -0.90625,1.4375 -2.70313,1.4375 -1.15625,0 -2.125,-0.640625 -0.96875,-0.640625 -1.5,-1.78125 -0.53125,-1.140625 -0.53125,-2.625 0,-1.453125 0.48438,-2.625 0.48437,-1.1875 1.4375,-1.8125 0.96875,-0.625 2.17187,-0.625 0.875,0 1.54688,0.375 0.6875,0.359375 1.10937,0.953125 v -4.796875 h 1.64063 v 13.359375 z m -5.17188,-4.828125 q 0,1.859375 0.78125,2.78125 0.78125,0.921875 1.84375,0.921875 1.07813,0 1.82813,-0.875 0.75,-0.890625 0.75,-2.6875 0,-1.984375 -0.76563,-2.90625 -0.76562,-0.9375 -1.89062,-0.9375 -1.07813,0 -1.8125,0.890625 -0.73438,0.890625 -0.73438,2.8125 z m 15.90692,1.71875 1.6875,0.203125 q -0.40625,1.484375 -1.48437,2.3125 -1.07813,0.8125 -2.76563,0.8125 -2.125,0 -3.375,-1.296875 -1.23437,-1.3125 -1.23437,-3.671875 0,-2.453125 1.25,-3.796875 1.26562,-1.34375 3.26562,-1.34375 1.9375,0 3.15625,1.328125 1.23438,1.3125 1.23438,3.703125 0,0.15625 0,0.4375 h -7.21875 q 0.0937,1.59375 0.90625,2.453125 0.8125,0.84375 2.01562,0.84375 0.90625,0 1.54688,-0.46875 0.64062,-0.484375 1.01562,-1.515625 z m -5.39062,-2.65625 h 5.40625 q -0.10938,-1.21875 -0.625,-1.828125 -0.78125,-0.953125 -2.03125,-0.953125 -1.125,0 -1.90625,0.765625 -0.76563,0.75 -0.84375,2.015625 z m 9.12573,5.765625 v -9.671875 h 1.46875 v 1.46875 q 0.5625,-1.03125 1.03125,-1.359375 0.48437,-0.328125 1.0625,-0.328125 0.82812,0 1.6875,0.53125 l -0.5625,1.515625 q -0.60938,-0.359375 -1.20313,-0.359375 -0.54687,0 -0.96875,0.328125 -0.42187,0.328125 -0.60937,0.890625 -0.28125,0.875 -0.28125,1.921875 v 5.0625 z"
     fill-rule="nonzero"
     id="path15" />
  <path
     fill="#d0e0e3"
     d="M 139.57611,74.385826 H 579.32416 V 150.41732 H 139.57611 Z"
     fill-rule="evenodd"
     id="path17" />
  <path
     stroke="#000000"
     stroke-width="1"
     stroke-linejoin="round"
     stroke-linecap="butt"
     d="M 139.57611,74.385826 H 579.32416 V 150.41732 H 139.57611 Z"
     fill-rule="evenodd"
     id="path19" />
  <path
     fill="#000000"
     d="M 293.4819,119.32158 V 105.9622 h 5.04687 q 1.32813,0 2.03125,0.125 0.96875,0.17188 1.64063,0.64063 0.67187,0.45312 1.07812,1.28125 0.40625,0.82812 0.40625,1.82812 0,1.70313 -1.09375,2.89063 -1.07812,1.17187 -3.92187,1.17187 h -3.42188 v 5.42188 z m 1.76562,-7 h 3.45313 q 1.71875,0 2.4375,-0.64063 0.71875,-0.64062 0.71875,-1.79687 0,-0.84375 -0.42188,-1.4375 -0.42187,-0.59375 -1.125,-0.78125 -0.4375,-0.125 -1.64062,-0.125 h -3.42188 z m 10.4592,7 v -9.67188 h 1.46875 v 1.46875 q 0.5625,-1.03125 1.03125,-1.35937 0.48438,-0.32813 1.0625,-0.32813 0.82813,0 1.6875,0.53125 l -0.5625,1.51563 q -0.60937,-0.35938 -1.20312,-0.35938 -0.54688,0 -0.96875,0.32813 -0.42188,0.32812 -0.60938,0.89062 -0.28125,0.875 -0.28125,1.92188 v 5.0625 z m 5.61893,-4.84375 q 0,-2.6875 1.48437,-3.96875 1.25,-1.07813 3.04688,-1.07813 2,0 3.26562,1.3125 1.26563,1.29688 1.26563,3.60938 0,1.85937 -0.5625,2.9375 -0.5625,1.0625 -1.64063,1.65625 -1.0625,0.59375 -2.32812,0.59375 -2.03125,0 -3.28125,-1.29688 -1.25,-1.3125 -1.25,-3.76562 z m 1.6875,0 q 0,1.85937 0.79687,2.79687 0.8125,0.92188 2.04688,0.92188 1.21875,0 2.03125,-0.92188 0.8125,-0.9375 0.8125,-2.84375 0,-1.79687 -0.8125,-2.71875 -0.8125,-0.92187 -2.03125,-0.92187 -1.23438,0 -2.04688,0.92187 -0.79687,0.90625 -0.79687,2.76563 z m 8.98511,5.64062 1.59375,0.23438 q 0.10937,0.75 0.5625,1.07812 0.60937,0.45313 1.67187,0.45313 1.14063,0 1.75,-0.45313 0.625,-0.45312 0.84375,-1.26562 0.125,-0.5 0.10938,-2.10938 -1.0625,1.26563 -2.67188,1.26563 -2,0 -3.09375,-1.4375 -1.09375,-1.4375 -1.09375,-3.45313 0,-1.39062 0.5,-2.5625 0.51563,-1.17187 1.45313,-1.79687 0.95312,-0.64063 2.25,-0.64063 1.70312,0 2.8125,1.375 v -1.15625 h 1.51562 v 8.35938 q 0,2.26562 -0.46875,3.20312 -0.45312,0.9375 -1.45312,1.48438 -0.98438,0.54687 -2.45313,0.54687 -1.71875,0 -2.79687,-0.78125 -1.0625,-0.76562 -1.03125,-2.34375 z m 1.35937,-5.8125 q 0,1.90625 0.75,2.78125 0.76563,0.875 1.90625,0.875 1.125,0 1.89063,-0.85937 0.76562,-0.875 0.76562,-2.73438 0,-1.78125 -0.79687,-2.67187 -0.78125,-0.90625 -1.89063,-0.90625 -1.09375,0 -1.85937,0.89062 -0.76563,0.875 -0.76563,2.625 z m 9.3132,5.01563 v -9.67188 h 1.46875 v 1.46875 q 0.5625,-1.03125 1.03125,-1.35937 0.48438,-0.32813 1.0625,-0.32813 0.82813,0 1.6875,0.53125 l -0.5625,1.51563 q -0.60937,-0.35938 -1.20312,-0.35938 -0.54688,0 -0.96875,0.32813 -0.42188,0.32812 -0.60938,0.89062 -0.28125,0.875 -0.28125,1.92188 v 5.0625 z m 12.54081,-1.1875 q -0.92188,0.76562 -1.76563,1.09375 -0.82812,0.3125 -1.79687,0.3125 -1.59375,0 -2.45313,-0.78125 -0.85937,-0.78125 -0.85937,-1.98438 0,-0.71875 0.32812,-1.29687 0.32813,-0.59375 0.84375,-0.9375 0.53125,-0.35938 1.1875,-0.54688 0.46875,-0.125 1.45313,-0.25 1.98437,-0.23437 2.92187,-0.5625 0.0156,-0.34375 0.0156,-0.42187 0,-1 -0.46875,-1.42188 -0.625,-0.54687 -1.875,-0.54687 -1.15625,0 -1.70313,0.40625 -0.54687,0.40625 -0.8125,1.42187 l -1.60937,-0.21875 q 0.21875,-1.01562 0.71875,-1.64062 0.5,-0.64063 1.45312,-0.98438 0.95313,-0.34375 2.1875,-0.34375 1.25,0 2.01563,0.29688 0.78125,0.28125 1.14062,0.73437 0.375,0.4375 0.51563,1.10938 0.0781,0.42187 0.0781,1.51562 v 2.1875 q 0,2.28125 0.10938,2.89063 0.10937,0.59375 0.40625,1.15625 h -1.70313 q -0.26562,-0.51563 -0.32812,-1.1875 z m -0.14063,-3.67188 q -0.89062,0.375 -2.67187,0.625 -1.01563,0.14063 -1.4375,0.32813 -0.42188,0.1875 -0.65625,0.53125 -0.21875,0.34375 -0.21875,0.78125 0,0.65625 0.5,1.09375 0.5,0.4375 1.45312,0.4375 0.9375,0 1.67188,-0.40625 0.75,-0.42188 1.09375,-1.14063 0.26562,-0.5625 0.26562,-1.64062 z m 4.20386,4.85938 v -9.67188 h 1.46875 v 1.35938 q 0.45312,-0.71875 1.20312,-1.14063 0.76563,-0.4375 1.71875,-0.4375 1.07813,0 1.76563,0.45313 0.6875,0.4375 0.96875,1.23437 1.15625,-1.6875 2.98437,-1.6875 1.45313,0 2.21875,0.79688 0.78125,0.79687 0.78125,2.45312 v 6.64063 h -1.64062 v -6.09375 q 0,-0.98438 -0.15625,-1.40625 -0.15625,-0.4375 -0.57813,-0.70313 -0.42187,-0.26562 -0.98437,-0.26562 -1.01563,0 -1.6875,0.6875 -0.67188,0.67187 -0.67188,2.15625 v 5.625 h -1.64062 v -6.28125 q 0,-1.09375 -0.40625,-1.64063 -0.40625,-0.54687 -1.3125,-0.54687 -0.6875,0 -1.28125,0.35937 -0.59375,0.35938 -0.85938,1.0625 -0.25,0.70313 -0.25,2.03125 v 5.01563 z m 20.72409,0 V 105.9622 h 1.64062 v 4.79688 q 1.14063,-1.32813 2.89063,-1.32813 1.07812,0 1.85937,0.42188 0.79688,0.42187 1.14063,1.17187 0.34375,0.75 0.34375,2.17188 v 6.125 h -1.64063 v -6.125 q 0,-1.23438 -0.53125,-1.79688 -0.53125,-0.5625 -1.51562,-0.5625 -0.71875,0 -1.35938,0.39063 -0.64062,0.375 -0.92187,1.01562 -0.26563,0.64063 -0.26563,1.78125 v 5.29688 z m 17.00073,-3.10938 1.6875,0.20313 q -0.40625,1.48437 -1.48437,2.3125 -1.07813,0.8125 -2.76563,0.8125 -2.125,0 -3.375,-1.29688 -1.23437,-1.3125 -1.23437,-3.67187 0,-2.45313 1.25,-3.79688 1.26562,-1.34375 3.26562,-1.34375 1.9375,0 3.15625,1.32813 1.23438,1.3125 1.23438,3.70312 0,0.15625 0,0.4375 h -7.21875 q 0.0937,1.59375 0.90625,2.45313 0.8125,0.84375 2.01562,0.84375 0.90625,0 1.54688,-0.46875 0.64062,-0.48438 1.01562,-1.51563 z m -5.39062,-2.65625 h 5.40625 q -0.10938,-1.21875 -0.625,-1.82812 -0.78125,-0.95313 -2.03125,-0.95313 -1.125,0 -1.90625,0.76563 -0.76563,0.75 -0.84375,2.01562 z m 15.45385,4.57813 q -0.92187,0.76562 -1.76562,1.09375 -0.82813,0.3125 -1.79688,0.3125 -1.59375,0 -2.45312,-0.78125 -0.85938,-0.78125 -0.85938,-1.98438 0,-0.71875 0.32813,-1.29687 0.32812,-0.59375 0.84375,-0.9375 0.53125,-0.35938 1.1875,-0.54688 0.46875,-0.125 1.45312,-0.25 1.98438,-0.23437 2.92188,-0.5625 0.0156,-0.34375 0.0156,-0.42187 0,-1 -0.46875,-1.42188 -0.625,-0.54687 -1.875,-0.54687 -1.15625,0 -1.70312,0.40625 -0.54688,0.40625 -0.8125,1.42187 l -1.60938,-0.21875 q 0.21875,-1.01562 0.71875,-1.64062 0.5,-0.64063 1.45313,-0.98438 0.95312,-0.34375 2.1875,-0.34375 1.25,0 2.01562,0.29688 0.78125,0.28125 1.14063,0.73437 0.375,0.4375 0.51562,1.10938 0.0781,0.42187 0.0781,1.51562 v 2.1875 q 0,2.28125 0.10937,2.89063 0.10938,0.59375 0.40625,1.15625 H 397.391 q -0.26563,-0.51563 -0.32813,-1.1875 z m -0.14062,-3.67188 q -0.89063,0.375 -2.67188,0.625 -1.01562,0.14063 -1.4375,0.32813 -0.42187,0.1875 -0.65625,0.53125 -0.21875,0.34375 -0.21875,0.78125 0,0.65625 0.5,1.09375 0.5,0.4375 1.45313,0.4375 0.9375,0 1.67187,-0.40625 0.75,-0.42188 1.09375,-1.14063 0.26563,-0.5625 0.26563,-1.64062 z m 10.46942,4.85938 v -1.21875 q -0.90625,1.4375 -2.70313,1.4375 -1.15625,0 -2.125,-0.64063 -0.96875,-0.64062 -1.5,-1.78125 -0.53125,-1.14062 -0.53125,-2.625 0,-1.45312 0.48438,-2.625 0.48437,-1.1875 1.4375,-1.8125 0.96875,-0.625 2.17187,-0.625 0.875,0 1.54688,0.375 0.6875,0.35938 1.10937,0.95313 v -4.79688 h 1.64063 v 13.35938 z m -5.17188,-4.82813 q 0,1.85938 0.78125,2.78125 0.78125,0.92188 1.84375,0.92188 1.07813,0 1.82813,-0.875 0.75,-0.89063 0.75,-2.6875 0,-1.98438 -0.76563,-2.90625 -0.76562,-0.9375 -1.89062,-0.9375 -1.07813,0 -1.8125,0.89062 -0.73438,0.89063 -0.73438,2.8125 z m 15.90699,1.71875 1.6875,0.20313 q -0.40625,1.48437 -1.48438,2.3125 -1.07812,0.8125 -2.76562,0.8125 -2.125,0 -3.375,-1.29688 -1.23438,-1.3125 -1.23438,-3.67187 0,-2.45313 1.25,-3.79688 1.26563,-1.34375 3.26563,-1.34375 1.9375,0 3.15625,1.32813 1.23437,1.3125 1.23437,3.70312 0,0.15625 0,0.4375 h -7.21875 q 0.0937,1.59375 0.90625,2.45313 0.8125,0.84375 2.01563,0.84375 0.90625,0 1.54687,-0.46875 0.64063,-0.48438 1.01563,-1.51563 z m -5.39063,-2.65625 h 5.40625 q -0.10937,-1.21875 -0.625,-1.82812 -0.78125,-0.95313 -2.03125,-0.95313 -1.125,0 -1.90625,0.76563 -0.76562,0.75 -0.84375,2.01562 z m 9.12573,5.76563 v -9.67188 h 1.46875 v 1.46875 q 0.5625,-1.03125 1.03125,-1.35937 0.48438,-0.32813 1.0625,-0.32813 0.82813,0 1.6875,0.53125 l -0.5625,1.51563 q -0.60937,-0.35938 -1.20312,-0.35938 -0.54688,0 -0.96875,0.32813 -0.42188,0.32812 -0.60938,0.89062 -0.28125,0.875 -0.28125,1.92188 v 5.0625 z"
     fill-rule="nonzero"
     id="path21" />
  <path
     fill="#d9d2e9"
     d="m 139.57611,156.20472 h 439.74805 v 223.2756 H 139.57611 Z"
     fill-rule="evenodd"
     id="path23" />
  <path
     stroke="#000000"
     stroke-width="1"
     stroke-linejoin="round"
     stroke-linecap="butt"
     d="m 139.57611,156.20472 h 439.74805 v 223.2756 H 139.57611 Z"
     fill-rule="evenodd"
     id="path25" />
  <path
     fill="#000000"
     d="m 325.11917,263.76252 v -13.35938 h 5.04687 q 1.32813,0 2.03125,0.125 0.96875,0.17188 1.64063,0.64063 0.67187,0.45312 1.07812,1.28125 0.40625,0.82812 0.40625,1.82812 0,1.70313 -1.09375,2.89063 -1.07812,1.17187 -3.92187,1.17187 h -3.42188 v 5.42188 z m 1.76562,-7 h 3.45313 q 1.71875,0 2.4375,-0.64063 0.71875,-0.64062 0.71875,-1.79687 0,-0.84375 -0.42188,-1.4375 -0.42187,-0.59375 -1.125,-0.78125 -0.4375,-0.125 -1.64062,-0.125 h -3.42188 z m 10.4592,7 v -9.67188 h 1.46875 v 1.46875 q 0.5625,-1.03125 1.03125,-1.35937 0.48438,-0.32813 1.0625,-0.32813 0.82813,0 1.6875,0.53125 l -0.5625,1.51563 q -0.60937,-0.35938 -1.20312,-0.35938 -0.54688,0 -0.96875,0.32813 -0.42188,0.32812 -0.60938,0.89062 -0.28125,0.875 -0.28125,1.92188 v 5.0625 z m 5.61893,-4.84375 q 0,-2.6875 1.48437,-3.96875 1.25,-1.07813 3.04688,-1.07813 2,0 3.26562,1.3125 1.26563,1.29688 1.26563,3.60938 0,1.85937 -0.5625,2.9375 -0.5625,1.0625 -1.64063,1.65625 -1.0625,0.59375 -2.32812,0.59375 -2.03125,0 -3.28125,-1.29688 -1.25,-1.3125 -1.25,-3.76562 z m 1.6875,0 q 0,1.85937 0.79687,2.79687 0.8125,0.92188 2.04688,0.92188 1.21875,0 2.03125,-0.92188 0.8125,-0.9375 0.8125,-2.84375 0,-1.79687 -0.8125,-2.71875 -0.8125,-0.92187 -2.03125,-0.92187 -1.23438,0 -2.04688,0.92187 -0.79687,0.90625 -0.79687,2.76563 z m 8.98511,5.64062 1.59375,0.23438 q 0.10937,0.75 0.5625,1.07812 0.60937,0.45313 1.67187,0.45313 1.14063,0 1.75,-0.45313 0.625,-0.45312 0.84375,-1.26562 0.125,-0.5 0.10938,-2.10938 -1.0625,1.26563 -2.67188,1.26563 -2,0 -3.09375,-1.4375 -1.09375,-1.4375 -1.09375,-3.45313 0,-1.39062 0.5,-2.5625 0.51563,-1.17187 1.45313,-1.79687 0.95312,-0.64063 2.25,-0.64063 1.70312,0 2.8125,1.375 v -1.15625 h 1.51562 v 8.35938 q 0,2.26562 -0.46875,3.20312 -0.45312,0.9375 -1.45312,1.48438 -0.98438,0.54687 -2.45313,0.54687 -1.71875,0 -2.79687,-0.78125 -1.0625,-0.76562 -1.03125,-2.34375 z m 1.35937,-5.8125 q 0,1.90625 0.75,2.78125 0.76563,0.875 1.90625,0.875 1.125,0 1.89063,-0.85937 0.76562,-0.875 0.76562,-2.73438 0,-1.78125 -0.79687,-2.67187 -0.78125,-0.90625 -1.89063,-0.90625 -1.09375,0 -1.85937,0.89062 -0.76563,0.875 -0.76563,2.625 z m 9.3132,5.01563 v -9.67188 h 1.46875 v 1.46875 q 0.5625,-1.03125 1.03125,-1.35937 0.48438,-0.32813 1.0625,-0.32813 0.82813,0 1.6875,0.53125 l -0.5625,1.51563 q -0.60937,-0.35938 -1.20312,-0.35938 -0.54688,0 -0.96875,0.32813 -0.42188,0.32812 -0.60938,0.89062 -0.28125,0.875 -0.28125,1.92188 v 5.0625 z m 12.54084,-1.1875 q -0.92188,0.76562 -1.76563,1.09375 -0.82812,0.3125 -1.79687,0.3125 -1.59378,0 -2.45316,-0.78125 -0.85937,-0.78125 -0.85937,-1.98438 0,-0.71875 0.32812,-1.29687 0.32813,-0.59375 0.84375,-0.9375 0.53125,-0.35938 1.1875,-0.54688 0.46878,-0.125 1.45316,-0.25 1.98437,-0.23437 2.92187,-0.5625 0.0156,-0.34375 0.0156,-0.42187 0,-1 -0.46875,-1.42188 -0.625,-0.54687 -1.875,-0.54687 -1.15625,0 -1.70313,0.40625 -0.5469,0.40625 -0.81253,1.42187 l -1.60937,-0.21875 q 0.21875,-1.01562 0.71875,-1.64062 0.5,-0.64063 1.45315,-0.98438 0.95313,-0.34375 2.1875,-0.34375 1.25,0 2.01563,0.29688 0.78125,0.28125 1.14062,0.73437 0.375,0.4375 0.51563,1.10938 0.0781,0.42187 0.0781,1.51562 v 2.1875 q 0,2.28125 0.10938,2.89063 0.10937,0.59375 0.40625,1.15625 h -1.70313 q -0.26562,-0.51563 -0.32812,-1.1875 z m -0.14063,-3.67188 q -0.89062,0.375 -2.67187,0.625 -1.01563,0.14063 -1.4375,0.32813 -0.42191,0.1875 -0.65628,0.53125 -0.21875,0.34375 -0.21875,0.78125 0,0.65625 0.5,1.09375 0.50003,0.4375 1.45315,0.4375 0.9375,0 1.67188,-0.40625 0.75,-0.42188 1.09375,-1.14063 0.26562,-0.5625 0.26562,-1.64062 z m 4.2038,4.85938 v -9.67188 h 1.46875 v 1.35938 q 0.45312,-0.71875 1.20312,-1.14063 0.76563,-0.4375 1.71875,-0.4375 1.07813,0 1.76563,0.45313 0.6875,0.4375 0.96875,1.23437 1.15625,-1.6875 2.98437,-1.6875 1.45313,0 2.21875,0.79688 0.78125,0.79687 0.78125,2.45312 v 6.64063 h -1.64062 v -6.09375 q 0,-0.98438 -0.15625,-1.40625 -0.15625,-0.4375 -0.57813,-0.70313 -0.42187,-0.26562 -0.98437,-0.26562 -1.01563,0 -1.6875,0.6875 -0.67188,0.67187 -0.67188,2.15625 v 5.625 h -1.64062 v -6.28125 q 0,-1.09375 -0.40625,-1.64063 -0.40625,-0.54687 -1.3125,-0.54687 -0.6875,0 -1.28125,0.35937 -0.59375,0.35938 -0.85938,1.0625 -0.25,0.70313 -0.25,2.03125 v 5.01563 z"
     fill-rule="nonzero"
     id="path27" />
  <path
     fill="#000000"
     d="m 348.79489,285.76252 v -1.21875 q -0.90625,1.4375 -2.70313,1.4375 -1.15625,0 -2.125,-0.64063 -0.96875,-0.64062 -1.5,-1.78125 -0.53125,-1.14062 -0.53125,-2.625 0,-1.45312 0.48438,-2.625 0.48437,-1.1875 1.4375,-1.8125 0.96875,-0.625 2.17187,-0.625 0.875,0 1.54688,0.375 0.6875,0.35938 1.10937,0.95313 v -4.79688 h 1.64063 v 13.35938 z m -5.17188,-4.82813 q 0,1.85938 0.78125,2.78125 0.78125,0.92188 1.84375,0.92188 1.07813,0 1.82813,-0.875 0.75,-0.89063 0.75,-2.6875 0,-1.98438 -0.76563,-2.90625 -0.76562,-0.9375 -1.89062,-0.9375 -1.07813,0 -1.8125,0.89062 -0.73438,0.89063 -0.73438,2.8125 z m 15.59449,3.64063 q -0.92188,0.76562 -1.76563,1.09375 -0.82812,0.3125 -1.79687,0.3125 -1.59375,0 -2.45313,-0.78125 -0.85937,-0.78125 -0.85937,-1.98438 0,-0.71875 0.32812,-1.29687 0.32813,-0.59375 0.84375,-0.9375 0.53125,-0.35938 1.1875,-0.54688 0.46875,-0.125 1.45313,-0.25 1.98437,-0.23437 2.92187,-0.5625 0.0156,-0.34375 0.0156,-0.42187 0,-1 -0.46875,-1.42188 -0.625,-0.54687 -1.875,-0.54687 -1.15625,0 -1.70313,0.40625 -0.54687,0.40625 -0.8125,1.42187 l -1.60937,-0.21875 q 0.21875,-1.01562 0.71875,-1.64062 0.5,-0.64063 1.45312,-0.98438 0.95313,-0.34375 2.1875,-0.34375 1.25,0 2.01563,0.29688 0.78125,0.28125 1.14062,0.73437 0.375,0.4375 0.51563,1.10938 0.0781,0.42187 0.0781,1.51562 v 2.1875 q 0,2.28125 0.10938,2.89063 0.10937,0.59375 0.40625,1.15625 h -1.70313 q -0.26562,-0.51563 -0.32812,-1.1875 z m -0.14063,-3.67188 q -0.89062,0.375 -2.67187,0.625 -1.01563,0.14063 -1.4375,0.32813 -0.42188,0.1875 -0.65625,0.53125 -0.21875,0.34375 -0.21875,0.78125 0,0.65625 0.5,1.09375 0.5,0.4375 1.45312,0.4375 0.9375,0 1.67188,-0.40625 0.75,-0.42188 1.09375,-1.14063 0.26562,-0.5625 0.26562,-1.64062 z m 7.78195,3.39063 0.23438,1.45312 q -0.6875,0.14063 -1.23438,0.14063 -0.89062,0 -1.39062,-0.28125 -0.48438,-0.28125 -0.6875,-0.73438 -0.20313,-0.46875 -0.20313,-1.9375 v -5.57812 h -1.20312 v -1.26563 h 1.20312 v -2.39062 l 1.625,-0.98438 v 3.375 h 1.65625 v 1.26563 h -1.65625 v 5.67187 q 0,0.6875 0.0781,0.89063 0.0937,0.20312 0.28125,0.32812 0.20312,0.10938 0.57812,0.10938 0.26563,0 0.71875,-0.0625 z m 7.91767,0.28125 q -0.92188,0.76562 -1.76563,1.09375 -0.82809,0.3125 -1.79684,0.3125 -1.59375,0 -2.45313,-0.78125 -0.85937,-0.78125 -0.85937,-1.98438 0,-0.71875 0.32812,-1.29687 0.32813,-0.59375 0.84375,-0.9375 0.53125,-0.35938 1.1875,-0.54688 0.46875,-0.125 1.45313,-0.25 1.98434,-0.23437 2.92184,-0.5625 0.0156,-0.34375 0.0156,-0.42187 0,-1 -0.46875,-1.42188 -0.625,-0.54687 -1.87497,-0.54687 -1.15625,0 -1.70313,0.40625 -0.54687,0.40625 -0.8125,1.42187 l -1.60937,-0.21875 q 0.21875,-1.01562 0.71875,-1.64062 0.5,-0.64063 1.45312,-0.98438 0.95313,-0.34375 2.18747,-0.34375 1.25,0 2.01563,0.29688 0.78125,0.28125 1.14062,0.73437 0.375,0.4375 0.51563,1.10938 0.0781,0.42187 0.0781,1.51562 v 2.1875 q 0,2.28125 0.10938,2.89063 0.10937,0.59375 0.40625,1.15625 h -1.70313 q -0.26562,-0.51563 -0.32812,-1.1875 z m -0.14063,-3.67188 q -0.89062,0.375 -2.67184,0.625 -1.01563,0.14063 -1.4375,0.32813 -0.42188,0.1875 -0.65625,0.53125 -0.21875,0.34375 -0.21875,0.78125 0,0.65625 0.5,1.09375 0.5,0.4375 1.45312,0.4375 0.93747,0 1.67185,-0.40625 0.75,-0.42188 1.09375,-1.14063 0.26562,-0.5625 0.26562,-1.64062 z"
     fill-rule="nonzero"
     id="path29" />
  <path
     fill="#ead1dc"
     d="M 139.57611,385.26771 H 579.32416 V 461.2992 H 139.57611 Z"
     fill-rule="evenodd"
     id="path31" />
  <path
     stroke="#000000"
     stroke-width="1"
     stroke-linejoin="round"
     stroke-linecap="butt"
     d="M 139.57611,385.26771 H 579.32416 V 461.2992 H 139.57611 Z"
     fill-rule="evenodd"
     id="path33" />
  <path
     fill="#000000"
     d="m 297.54309,425.9066 1.65625,-0.14062 q 0.125,1 0.54687,1.64062 0.4375,0.64063 1.34375,1.04688 0.92188,0.39062 2.0625,0.39062 1,0 1.78125,-0.29687 0.78125,-0.29688 1.15625,-0.8125 0.375,-0.53125 0.375,-1.15625 0,-0.625 -0.375,-1.09375 -0.35937,-0.46875 -1.1875,-0.79688 -0.54687,-0.20312 -2.39062,-0.64062 -1.82813,-0.45313 -2.5625,-0.84375 -0.96875,-0.5 -1.4375,-1.23438 -0.46875,-0.75 -0.46875,-1.67187 0,-1 0.57812,-1.875 0.57813,-0.89063 1.67188,-1.34375 1.10937,-0.45313 2.45312,-0.45313 1.48438,0 2.60938,0.48438 1.14062,0.46875 1.75,1.40625 0.60937,0.92187 0.65625,2.09375 l -1.6875,0.125 q -0.14063,-1.26563 -0.9375,-1.90625 -0.78125,-0.65625 -2.3125,-0.65625 -1.60938,0 -2.34375,0.59375 -0.73438,0.59375 -0.73438,1.42187 0,0.71875 0.53125,1.17188 0.5,0.46875 2.65625,0.96875 2.15625,0.48437 2.95313,0.84375 1.17187,0.53125 1.71875,1.35937 0.5625,0.82813 0.5625,1.90625 0,1.0625 -0.60938,2.01563 -0.60937,0.9375 -1.75,1.46875 -1.14062,0.51562 -2.57812,0.51562 -1.8125,0 -3.04688,-0.53125 -1.21875,-0.53125 -1.92187,-1.59375 -0.6875,-1.0625 -0.71875,-2.40625 z m 19.4592,1.1875 1.6875,0.20313 q -0.40625,1.48437 -1.48438,2.3125 -1.07812,0.8125 -2.76562,0.8125 -2.125,0 -3.375,-1.29688 -1.23438,-1.3125 -1.23438,-3.67187 0,-2.45313 1.25,-3.79688 1.26563,-1.34375 3.26563,-1.34375 1.9375,0 3.15625,1.32813 1.23437,1.3125 1.23437,3.70312 0,0.15625 0,0.4375 h -7.21875 q 0.0937,1.59375 0.90625,2.45313 0.8125,0.84375 2.01563,0.84375 0.90625,0 1.54687,-0.46875 0.64063,-0.48438 1.01563,-1.51563 z m -5.39063,-2.65625 h 5.40625 q -0.10937,-1.21875 -0.625,-1.82812 -0.78125,-0.95313 -2.03125,-0.95313 -1.125,0 -1.90625,0.76563 -0.76562,0.75 -0.84375,2.01562 z m 15.45386,2.21875 1.60937,0.21875 q -0.26562,1.65625 -1.35937,2.60938 -1.07813,0.9375 -2.67188,0.9375 -1.98437,0 -3.1875,-1.29688 -1.20312,-1.29687 -1.20312,-3.71875 0,-1.57812 0.51562,-2.75 0.51563,-1.17187 1.57813,-1.75 1.0625,-0.59375 2.3125,-0.59375 1.57812,0 2.57812,0.79688 1,0.79687 1.28125,2.26562 l -1.59375,0.23438 q -0.23437,-0.96875 -0.8125,-1.45313 -0.57812,-0.5 -1.39062,-0.5 -1.23438,0 -2.01563,0.89063 -0.78125,0.89062 -0.78125,2.8125 0,1.95312 0.75,2.84375 0.75,0.875 1.95313,0.875 0.96875,0 1.60937,-0.59375 0.65625,-0.59375 0.82813,-1.82813 z m 6.59375,2.07813 0.23437,1.45312 q -0.6875,0.14063 -1.23437,0.14063 -0.89063,0 -1.39063,-0.28125 -0.48437,-0.28125 -0.6875,-0.73438 -0.20312,-0.46875 -0.20312,-1.9375 v -5.57812 h -1.20313 v -1.26563 h 1.20313 v -2.39062 l 1.625,-0.98438 v 3.375 h 1.65625 v 1.26563 h -1.65625 v 5.67187 q 0,0.6875 0.0781,0.89063 0.0937,0.20312 0.28125,0.32812 0.20313,0.10938 0.57813,0.10938 0.26562,0 0.71875,-0.0625 z m 1.60516,-10 v -1.89063 h 1.64063 v 1.89063 z m 0,11.46875 v -9.67188 h 1.64063 v 9.67188 z m 3.53546,-4.84375 q 0,-2.6875 1.48438,-3.96875 1.25,-1.07813 3.04687,-1.07813 2,0 3.26563,1.3125 1.26562,1.29688 1.26562,3.60938 0,1.85937 -0.5625,2.9375 -0.5625,1.0625 -1.64062,1.65625 -1.0625,0.59375 -2.32813,0.59375 -2.03125,0 -3.28125,-1.29688 -1.25,-1.3125 -1.25,-3.76562 z m 1.6875,0 q 0,1.85937 0.79688,2.79687 0.8125,0.92188 2.04687,0.92188 1.21875,0 2.03125,-0.92188 0.8125,-0.9375 0.8125,-2.84375 0,-1.79687 -0.8125,-2.71875 -0.8125,-0.92187 -2.03125,-0.92187 -1.23437,0 -2.04687,0.92187 -0.79688,0.90625 -0.79688,2.76563 z m 9.29758,4.84375 v -9.67188 h 1.46875 v 1.375 q 1.0625,-1.59375 3.07813,-1.59375 0.875,0 1.60937,0.3125 0.73438,0.3125 1.09375,0.82813 0.375,0.5 0.51563,1.20312 0.0937,0.45313 0.0937,1.59375 v 5.95313 h -1.64063 v -5.89063 q 0,-1 -0.20312,-1.48437 -0.1875,-0.5 -0.67188,-0.79688 -0.48437,-0.29687 -1.14062,-0.29687 -1.04688,0 -1.8125,0.67187 -0.75,0.65625 -0.75,2.51563 v 5.28125 z m 15.55902,0 V 416.8441 h 1.64063 v 4.79688 q 1.14062,-1.32813 2.89062,-1.32813 1.07813,0 1.85938,0.42188 0.79687,0.42187 1.14062,1.17187 0.34375,0.75 0.34375,2.17188 v 6.125 h -1.64062 v -6.125 q 0,-1.23438 -0.53125,-1.79688 -0.53125,-0.5625 -1.51563,-0.5625 -0.71875,0 -1.35937,0.39063 -0.64063,0.375 -0.92188,1.01562 -0.26562,0.64063 -0.26562,1.78125 v 5.29688 z m 17.00073,-3.10938 1.6875,0.20313 q -0.40625,1.48437 -1.48437,2.3125 -1.07813,0.8125 -2.76563,0.8125 -2.125,0 -3.375,-1.29688 -1.23437,-1.3125 -1.23437,-3.67187 0,-2.45313 1.25,-3.79688 1.26562,-1.34375 3.26562,-1.34375 1.9375,0 3.15625,1.32813 1.23438,1.3125 1.23438,3.70312 0,0.15625 0,0.4375 h -7.21875 q 0.0937,1.59375 0.90625,2.45313 0.8125,0.84375 2.01562,0.84375 0.90625,0 1.54688,-0.46875 0.64062,-0.48438 1.01562,-1.51563 z m -5.39062,-2.65625 h 5.40625 q -0.10938,-1.21875 -0.625,-1.82812 -0.78125,-0.95313 -2.03125,-0.95313 -1.125,0 -1.90625,0.76563 -0.76563,0.75 -0.84375,2.01562 z m 15.45386,4.57813 q -0.92188,0.76562 -1.76563,1.09375 -0.82812,0.3125 -1.79687,0.3125 -1.59375,0 -2.45313,-0.78125 -0.85937,-0.78125 -0.85937,-1.98438 0,-0.71875 0.32812,-1.29687 0.32813,-0.59375 0.84375,-0.9375 0.53125,-0.35938 1.1875,-0.54688 0.46875,-0.125 1.45313,-0.25 1.98437,-0.23437 2.92187,-0.5625 0.0156,-0.34375 0.0156,-0.42187 0,-1 -0.46875,-1.42188 -0.625,-0.54687 -1.875,-0.54687 -1.15625,0 -1.70313,0.40625 -0.54687,0.40625 -0.8125,1.42187 l -1.60937,-0.21875 q 0.21875,-1.01562 0.71875,-1.64062 0.5,-0.64063 1.45312,-0.98438 0.95313,-0.34375 2.1875,-0.34375 1.25,0 2.01563,0.29688 0.78125,0.28125 1.14062,0.73437 0.375,0.4375 0.51563,1.10938 0.0781,0.42187 0.0781,1.51562 v 2.1875 q 0,2.28125 0.10938,2.89063 0.10937,0.59375 0.40625,1.15625 h -1.70313 q -0.26562,-0.51563 -0.32812,-1.1875 z m -0.14063,-3.67188 q -0.89062,0.375 -2.67187,0.625 -1.01563,0.14063 -1.4375,0.32813 -0.42188,0.1875 -0.65625,0.53125 -0.21875,0.34375 -0.21875,0.78125 0,0.65625 0.5,1.09375 0.5,0.4375 1.45312,0.4375 0.9375,0 1.67188,-0.40625 0.75,-0.42188 1.09375,-1.14063 0.26562,-0.5625 0.26562,-1.64062 z m 10.46942,4.85938 v -1.21875 q -0.90625,1.4375 -2.70312,1.4375 -1.15625,0 -2.125,-0.64063 -0.96875,-0.64062 -1.5,-1.78125 -0.53125,-1.14062 -0.53125,-2.625 0,-1.45312 0.48437,-2.625 0.48438,-1.1875 1.4375,-1.8125 0.96875,-0.625 2.17188,-0.625 0.875,0 1.54687,0.375 0.6875,0.35938 1.10938,0.95313 v -4.79688 h 1.64062 v 13.35938 z m -5.17187,-4.82813 q 0,1.85938 0.78125,2.78125 0.78125,0.92188 1.84375,0.92188 1.07812,0 1.82812,-0.875 0.75,-0.89063 0.75,-2.6875 0,-1.98438 -0.76562,-2.90625 -0.76563,-0.9375 -1.89063,-0.9375 -1.07812,0 -1.8125,0.89062 -0.73437,0.89063 -0.73437,2.8125 z m 15.90698,1.71875 1.6875,0.20313 q -0.40625,1.48437 -1.48438,2.3125 -1.07812,0.8125 -2.76562,0.8125 -2.125,0 -3.375,-1.29688 -1.23438,-1.3125 -1.23438,-3.67187 0,-2.45313 1.25,-3.79688 1.26563,-1.34375 3.26563,-1.34375 1.9375,0 3.15625,1.32813 1.23437,1.3125 1.23437,3.70312 0,0.15625 0,0.4375 h -7.21875 q 0.0937,1.59375 0.90625,2.45313 0.8125,0.84375 2.01563,0.84375 0.90625,0 1.54687,-0.46875 0.64063,-0.48438 1.01563,-1.51563 z m -5.39063,-2.65625 h 5.40625 q -0.10937,-1.21875 -0.625,-1.82812 -0.78125,-0.95313 -2.03125,-0.95313 -1.125,0 -1.90625,0.76563 -0.76562,0.75 -0.84375,2.01562 z m 9.12574,5.76563 v -9.67188 h 1.46875 v 1.46875 q 0.5625,-1.03125 1.03125,-1.35937 0.48437,-0.32813 1.0625,-0.32813 0.82812,0 1.6875,0.53125 l -0.5625,1.51563 q -0.60938,-0.35938 -1.20313,-0.35938 -0.54687,0 -0.96875,0.32813 -0.42187,0.32812 -0.60937,0.89062 -0.28125,0.875 -0.28125,1.92188 v 5.0625 z"
     fill-rule="nonzero"
     id="path35" />
  <path
     fill="#000000"
     fill-opacity="0"
     d="M 139.57611,42.015746 H 0.5 V 423.27558 h 139.1391"
     fill-rule="evenodd"
     id="path37" />
  <path
     stroke="#000000"
     stroke-width="1"
     stroke-linejoin="round"
     stroke-linecap="butt"
     d="M 139.57611,42.015746 H 0.5 V 423.27558 h 133.1391"
     fill-rule="evenodd"
     id="path39" />
  <path
     fill="#000000"
     stroke="#000000"
     stroke-width="1"
     stroke-linecap="butt"
     d="m 133.6391,424.92732 4.53812,-1.65173 -4.53812,-1.65174 z"
     fill-rule="evenodd"
     id="path41" />
  <path
     fill="#000000"
     fill-opacity="0"
     d="M 579.32414,42.015746 H 720.43437 V 112.40945 H 579.38713"
     fill-rule="evenodd"
     id="path43" />
  <path
     stroke="#000000"
     stroke-width="1"
     stroke-linejoin="round"
     stroke-linecap="butt"
     d="M 579.32414,42.015746 H 720.43437 V 112.40945 H 585.38713"
     fill-rule="evenodd"
     id="path45" />
  <path
     fill="#000000"
     stroke="#000000"
     stroke-width="1"
     stroke-linecap="butt"
     d="m 585.38714,110.75772 -4.53809,1.65173 4.53809,1.65174 z"
     fill-rule="evenodd"
     id="path47" />
  <path
     fill="#000000"
     fill-opacity="0"
     d="M 599.48559,0 H 700.27294 V 42.015747 H 599.48559 Z"
     fill-rule="evenodd"
     id="path49" />
  <path
     fill="#000000"
     d="m 616.34494,23.810626 1.6875,0.203125 q -0.40625,1.484375 -1.48437,2.3125 -1.07813,0.8125 -2.76563,0.8125 -2.125,0 -3.375,-1.296875 -1.23437,-1.3125 -1.23437,-3.671875 0,-2.453125 1.25,-3.796875 1.26562,-1.34375 3.26562,-1.34375 1.9375,0 3.15625,1.328125 1.23438,1.3125 1.23438,3.703125 0,0.15625 0,0.4375 h -7.21875 q 0.0937,1.59375 0.90625,2.453125 0.8125,0.84375 2.01562,0.84375 0.90625,0 1.54688,-0.46875 0.64062,-0.484375 1.01562,-1.515625 z m -5.39062,-2.65625 h 5.40625 q -0.10938,-1.21875 -0.625,-1.828125 -0.78125,-0.953125 -2.03125,-0.953125 -1.125,0 -1.90625,0.765625 -0.76563,0.75 -0.84375,2.015625 z m 7.62567,9.46875 v -1.1875 h 10.85937 v 1.1875 z m 11.89135,0 v -13.375 h 1.48438 v 1.25 q 0.53125,-0.734375 1.1875,-1.09375 0.67187,-0.375 1.625,-0.375 1.23437,0 2.17187,0.640625 0.95313,0.625 1.4375,1.796875 0.48438,1.15625 0.48438,2.546875 0,1.484375 -0.53125,2.671875 -0.53125,1.1875 -1.54688,1.828125 -1.01562,0.625 -2.14062,0.625 -0.8125,0 -1.46875,-0.34375 -0.65625,-0.34375 -1.0625,-0.875 v 4.703125 z m 1.48438,-8.484375 q 0,1.859375 0.75,2.765625 0.76562,0.890625 1.82812,0.890625 1.09375,0 1.875,-0.921875 0.78125,-0.9375 0.78125,-2.875 0,-1.84375 -0.76562,-2.765625 -0.75,-0.921875 -1.8125,-0.921875 -1.04688,0 -1.85938,0.984375 -0.79687,0.96875 -0.79687,2.84375 z m 8.89136,4.78125 V 13.560626 h 1.64062 v 4.796875 q 1.14063,-1.328125 2.89063,-1.328125 1.07812,0 1.85937,0.421875 0.79688,0.421875 1.14063,1.171875 0.34375,0.75 0.34375,2.171875 v 6.125 h -1.64063 v -6.125 q 0,-1.234375 -0.53125,-1.796875 -0.53125,-0.5625 -1.51562,-0.5625 -0.71875,0 -1.35938,0.390625 -0.64062,0.375 -0.92187,1.015625 -0.26563,0.640625 -0.26563,1.78125 v 5.296875 z m 9.76635,-4.84375 q 0,-2.6875 1.48438,-3.96875 1.25,-1.078125 3.04687,-1.078125 2,0 3.26563,1.3125 1.26562,1.296875 1.26562,3.609375 0,1.859375 -0.5625,2.9375 -0.5625,1.0625 -1.64062,1.65625 -1.0625,0.59375 -2.32813,0.59375 -2.03125,0 -3.28125,-1.296875 -1.25,-1.3125 -1.25,-3.765625 z m 1.6875,0 q 0,1.859375 0.79688,2.796875 0.8125,0.921875 2.04687,0.921875 1.21875,0 2.03125,-0.921875 0.8125,-0.9375 0.8125,-2.84375 0,-1.796875 -0.8125,-2.71875 -0.8125,-0.921875 -2.03125,-0.921875 -1.23437,0 -2.04687,0.921875 -0.79688,0.90625 -0.79688,2.765625 z m 9.68817,4.84375 v -8.40625 h -1.45312 v -1.265625 h 1.45312 v -1.03125 q 0,-0.96875 0.17188,-1.453125 0.23437,-0.640625 0.82812,-1.03125 0.59375,-0.390625 1.67188,-0.390625 0.6875,0 1.53125,0.15625 l -0.25,1.4375 q -0.5,-0.09375 -0.95313,-0.09375 -0.75,0 -1.0625,0.328125 -0.3125,0.3125 -0.3125,1.1875 v 0.890625 h 1.89063 v 1.265625 h -1.89063 v 8.40625 z m 4.84607,0 v -8.40625 h -1.45312 v -1.265625 h 1.45312 v -1.03125 q 0,-0.96875 0.17188,-1.453125 0.23437,-0.640625 0.82812,-1.03125 0.59375,-0.390625 1.67188,-0.390625 0.6875,0 1.53125,0.15625 l -0.25,1.4375 q -0.5,-0.09375 -0.95313,-0.09375 -0.75,0 -1.0625,0.328125 -0.3125,0.3125 -0.3125,1.1875 v 0.890625 h 1.89063 v 1.265625 h -1.89063 v 8.40625 z"
     fill-rule="nonzero"
     id="path51" />
  <path
     fill="#000000"
     fill-opacity="0"
     d="m 23.15544,0 h 93.82677 V 42.015747 H 23.15544 Z"
     fill-rule="evenodd"
     id="path53" />
  <path
     fill="#000000"
     d="m 54.98121,23.810626 1.6875,0.203125 q -0.40625,1.484375 -1.48438,2.3125 -1.07812,0.8125 -2.76562,0.8125 -2.125,0 -3.375,-1.296875 -1.23438,-1.3125 -1.23438,-3.671875 0,-2.453125 1.25,-3.796875 1.26563,-1.34375 3.26563,-1.34375 1.9375,0 3.15625,1.328125 1.23437,1.3125 1.23437,3.703125 0,0.15625 0,0.4375 h -7.21875 q 0.0937,1.59375 0.90625,2.453125 0.8125,0.84375 2.01563,0.84375 0.90625,0 1.54687,-0.46875 0.64063,-0.484375 1.01563,-1.515625 z m -5.39063,-2.65625 h 5.40625 q -0.10937,-1.21875 -0.625,-1.828125 -0.78125,-0.953125 -2.03125,-0.953125 -1.125,0 -1.90625,0.765625 -0.76562,0.75 -0.84375,2.015625 z m 7.62572,9.46875 v -1.1875 h 10.85938 v 1.1875 z m 11.23509,-6.59375 1.625,-0.25 q 0.125,0.96875 0.75,1.5 0.625,0.515625 1.75,0.515625 1.125,0 1.67188,-0.453125 0.54687,-0.46875 0.54687,-1.09375 0,-0.546875 -0.48437,-0.875 -0.32813,-0.21875 -1.67188,-0.546875 -1.8125,-0.46875 -2.51562,-0.796875 -0.6875,-0.328125 -1.04688,-0.90625 -0.35937,-0.59375 -0.35937,-1.3125 0,-0.640625 0.29687,-1.1875 0.29688,-0.5625 0.8125,-0.921875 0.375,-0.28125 1.03125,-0.46875 0.67188,-0.203125 1.42188,-0.203125 1.14062,0 2,0.328125 0.85937,0.328125 1.26562,0.890625 0.42188,0.5625 0.57813,1.5 l -1.60938,0.21875 q -0.10937,-0.75 -0.64062,-1.171875 -0.51563,-0.421875 -1.46875,-0.421875 -1.14063,0 -1.625,0.375 -0.46875,0.375 -0.46875,0.875 0,0.3125 0.1875,0.578125 0.20312,0.265625 0.64062,0.4375 0.23438,0.09375 1.4375,0.421875 1.75,0.453125 2.4375,0.75 0.6875,0.296875 1.07813,0.859375 0.39062,0.5625 0.39062,1.40625 0,0.828125 -0.48437,1.546875 -0.46875,0.71875 -1.375,1.125 -0.90625,0.390625 -2.04688,0.390625 -1.875,0 -2.875,-0.78125 -0.98437,-0.78125 -1.25,-2.328125 z m 9.98438,2.890625 V 13.560626 h 1.64062 v 4.796875 q 1.14063,-1.328125 2.89063,-1.328125 1.07812,0 1.85937,0.421875 0.79688,0.421875 1.14063,1.171875 0.34375,0.75 0.34375,2.171875 v 6.125 h -1.64063 v -6.125 q 0,-1.234375 -0.53125,-1.796875 -0.53125,-0.5625 -1.51562,-0.5625 -0.71875,0 -1.35938,0.390625 -0.64062,0.375 -0.92187,1.015625 -0.26563,0.640625 -0.26563,1.78125 v 5.296875 z m 9.76634,-4.84375 q 0,-2.6875 1.48438,-3.96875 1.25,-1.078125 3.04687,-1.078125 2,0 3.26563,1.3125 1.26562,1.296875 1.26562,3.609375 0,1.859375 -0.5625,2.9375 -0.5625,1.0625 -1.64062,1.65625 -1.0625,0.59375 -2.32813,0.59375 -2.03125,0 -3.28125,-1.296875 -1.25,-1.3125 -1.25,-3.765625 z m 1.6875,0 q 0,1.859375 0.79688,2.796875 0.8125,0.921875 2.04687,0.921875 1.21875,0 2.03125,-0.921875 0.8125,-0.9375 0.8125,-2.84375 0,-1.796875 -0.8125,-2.71875 -0.8125,-0.921875 -2.03125,-0.921875 -1.23437,0 -2.04687,0.921875 -0.79688,0.90625 -0.79688,2.765625 z m 9.68822,4.84375 v -8.40625 H 98.1247 v -1.265625 h 1.45313 v -1.03125 q 0,-0.96875 0.17187,-1.453125 0.23438,-0.640625 0.82813,-1.03125 0.59375,-0.390625 1.67187,-0.390625 0.6875,0 1.53125,0.15625 l -0.25,1.4375 q -0.5,-0.09375 -0.95312,-0.09375 -0.75,0 -1.0625,0.328125 -0.3125,0.3125 -0.3125,1.1875 v 0.890625 h 1.89062 v 1.265625 h -1.89062 v 8.40625 z m 4.84607,0 v -8.40625 h -1.45313 v -1.265625 h 1.45313 v -1.03125 q 0,-0.96875 0.17187,-1.453125 0.23438,-0.640625 0.82813,-1.03125 0.59375,-0.390625 1.67187,-0.390625 0.6875,0 1.53125,0.15625 l -0.25,1.4375 q -0.5,-0.09375 -0.95312,-0.09375 -0.75,0 -1.0625,0.328125 -0.3125,0.3125 -0.3125,1.1875 v 0.890625 h 1.89062 v 1.265625 h -1.89062 v 8.40625 z"
     fill-rule="nonzero"
     id="path55" />
  <path
     fill="#f4cccc"
     d="m 153.90684,156.20472 h 126.77167 v 94.07873 H 153.90684 Z"
     fill-rule="evenodd"
     id="path57" />
  <path
     stroke="#000000"
     stroke-width="1"
     stroke-linejoin="round"
     stroke-linecap="butt"
     d="m 153.90684,156.20472 h 126.77167 v 94.07873 H 153.90684 Z"
     fill-rule="evenodd"
     id="path59" />
  <path
     fill="#000000"
     d="m 176.2207,210.16409 v -13.35938 h 5.04687 q 1.32813,0 2.03125,0.125 0.96875,0.17188 1.64063,0.64063 0.67187,0.45312 1.07812,1.28125 0.40625,0.82812 0.40625,1.82812 0,1.70313 -1.09375,2.89063 -1.07812,1.17187 -3.92187,1.17187 h -3.42188 v 5.42188 z m 1.76562,-7 h 3.45313 q 1.71875,0 2.4375,-0.64063 0.71875,-0.64062 0.71875,-1.79687 0,-0.84375 -0.42188,-1.4375 -0.42187,-0.59375 -1.125,-0.78125 -0.4375,-0.125 -1.64062,-0.125 h -3.42188 z m 14.0842,7 v -11.78125 h -4.40625 v -1.57813 h 10.57813 v 1.57813 h -4.40625 v 11.78125 z m 6.27097,3.70314 v -1.18752 h 10.85937 v 1.18752 z m 12.01636,-3.70314 v -13.35938 h 1.78125 v 11.78125 h 6.5625 v 1.57813 z m 9.92257,-6.5 q 0,-3.32813 1.78125,-5.20313 1.78125,-1.89062 4.60938,-1.89062 1.84375,0 3.32812,0.89062 1.48438,0.875 2.26563,2.46875 0.78125,1.57813 0.78125,3.57813 0,2.03125 -0.82813,3.64062 -0.8125,1.59375 -2.3125,2.42188 -1.5,0.82812 -3.25,0.82812 -1.875,0 -3.35937,-0.90625 -1.48438,-0.92187 -2.25,-2.5 -0.76563,-1.57812 -0.76563,-3.32812 z m 1.8125,0.0156 q 0,2.42188 1.29688,3.8125 1.29687,1.39063 3.26562,1.39063 2,0 3.28125,-1.40625 1.28125,-1.40625 1.28125,-3.98438 0,-1.625 -0.54687,-2.84375 -0.54688,-1.21875 -1.60938,-1.875 -1.0625,-0.67187 -2.375,-0.67187 -1.89062,0 -3.25,1.29687 -1.34375,1.28125 -1.34375,4.28125 z m 11.76145,6.48438 5.125,-13.35938 h 1.90625 l 5.46875,13.35938 h -2.01563 l -1.54687,-4.04688 h -5.59375 l -1.46875,4.04688 z m 3.85937,-5.48438 h 4.53125 l -1.40625,-3.70312 q -0.625,-1.6875 -0.9375,-2.76563 -0.26562,1.28125 -0.71875,2.54688 z m 10.05295,5.48438 v -13.35938 h 4.60937 q 1.54688,0 2.375,0.20313 1.14063,0.25 1.95313,0.95312 1.0625,0.89063 1.57812,2.28125 0.53125,1.39063 0.53125,3.17188 0,1.51562 -0.35937,2.70312 -0.35938,1.17188 -0.92188,1.9375 -0.54687,0.76563 -1.20312,1.21875 -0.65625,0.4375 -1.59375,0.67188 -0.9375,0.21875 -2.14063,0.21875 z m 1.76562,-1.57813 h 2.85938 q 1.3125,0 2.0625,-0.23437 0.75,-0.25 1.20312,-0.70313 0.625,-0.625 0.96875,-1.6875 0.35938,-1.0625 0.35938,-2.57812 0,-2.09375 -0.6875,-3.21875 -0.6875,-1.125 -1.67188,-1.5 -0.70312,-0.28125 -2.28125,-0.28125 h -2.8125 z"
     fill-rule="nonzero"
     id="path61" />
  <path
     fill="#f4cccc"
     d="m 153.90684,250.28346 h 126.77167 v 76.03149 H 153.90684 Z"
     fill-rule="evenodd"
     id="path63" />
  <path
     stroke="#000000"
     stroke-width="1"
     stroke-linejoin="round"
     stroke-linecap="butt"
     d="m 153.90684,250.28346 h 126.77167 v 76.03149 H 153.90684 Z"
     fill-rule="evenodd"
     id="path65" />
  <path
     fill="#000000"
     d="m 176.2207,295.21922 v -13.35938 h 5.04687 q 1.32813,0 2.03125,0.125 0.96875,0.17188 1.64063,0.64063 0.67187,0.45312 1.07812,1.28125 0.40625,0.82812 0.40625,1.82812 0,1.70313 -1.09375,2.89063 -1.07812,1.17187 -3.92187,1.17187 h -3.42188 v 5.42188 z m 1.76562,-7 h 3.45313 q 1.71875,0 2.4375,-0.64063 0.71875,-0.64062 0.71875,-1.79687 0,-0.84375 -0.42188,-1.4375 -0.42187,-0.59375 -1.125,-0.78125 -0.4375,-0.125 -1.64062,-0.125 h -3.42188 z m 14.0842,7 v -11.78125 h -4.40625 v -1.57813 h 10.57813 v 1.57813 h -4.40625 v 11.78125 z m 6.27097,3.70312 v -1.1875 h 10.85937 v 1.1875 z m 12.01636,-3.70312 v -13.35938 h 1.78125 v 11.78125 h 6.5625 v 1.57813 z m 9.92257,-6.5 q 0,-3.32813 1.78125,-5.20313 1.78125,-1.89062 4.60938,-1.89062 1.84375,0 3.32812,0.89062 1.48438,0.875 2.26563,2.46875 0.78125,1.57813 0.78125,3.57813 0,2.03125 -0.82813,3.64062 -0.8125,1.59375 -2.3125,2.42188 -1.5,0.82812 -3.25,0.82812 -1.875,0 -3.35937,-0.90625 -1.48438,-0.92187 -2.25,-2.5 -0.76563,-1.57812 -0.76563,-3.32812 z m 1.8125,0.0156 q 0,2.42188 1.29688,3.8125 1.29687,1.39063 3.26562,1.39063 2,0 3.28125,-1.40625 1.28125,-1.40625 1.28125,-3.98438 0,-1.625 -0.54687,-2.84375 -0.54688,-1.21875 -1.60938,-1.875 -1.0625,-0.67187 -2.375,-0.67187 -1.89062,0 -3.25,1.29687 -1.34375,1.28125 -1.34375,4.28125 z m 11.76145,6.48438 5.125,-13.35938 h 1.90625 l 5.46875,13.35938 h -2.01563 l -1.54687,-4.04688 h -5.59375 l -1.46875,4.04688 z m 3.85937,-5.48438 h 4.53125 l -1.40625,-3.70312 q -0.625,-1.6875 -0.9375,-2.76563 -0.26562,1.28125 -0.71875,2.54688 z m 10.05295,5.48438 v -13.35938 h 4.60937 q 1.54688,0 2.375,0.20313 1.14063,0.25 1.95313,0.95312 1.0625,0.89063 1.57812,2.28125 0.53125,1.39063 0.53125,3.17188 0,1.51562 -0.35937,2.70312 -0.35938,1.17188 -0.92188,1.9375 -0.54687,0.76563 -1.20312,1.21875 -0.65625,0.4375 -1.59375,0.67188 -0.9375,0.21875 -2.14063,0.21875 z m 1.76562,-1.57813 h 2.85938 q 1.3125,0 2.0625,-0.23437 0.75,-0.25 1.20312,-0.70313 0.625,-0.625 0.96875,-1.6875 0.35938,-1.0625 0.35938,-2.57812 0,-2.09375 -0.6875,-3.21875 -0.6875,-1.125 -1.67188,-1.5 -0.70312,-0.28125 -2.28125,-0.28125 h -2.8125 z"
     fill-rule="nonzero"
     id="path67" />
  <path
     fill="#f4cccc"
     d="M 153.8937,74.393696 H 280.66537 V 150.4252 H 153.8937 Z"
     fill-rule="evenodd"
     id="path69" />
  <path
     stroke="#000000"
     stroke-width="1"
     stroke-linejoin="round"
     stroke-linecap="butt"
     d="M 153.8937,74.393696 H 280.66537 V 150.4252 H 153.8937 Z"
     fill-rule="evenodd"
     id="path71" />
  <path
     fill="#000000"
     d="m 175.17819,119.32945 v -13.35938 h 5.04687 q 1.32813,0 2.03125,0.125 0.96875,0.17188 1.64063,0.64063 0.67187,0.45312 1.07812,1.28125 0.40625,0.82812 0.40625,1.82812 0,1.70313 -1.09375,2.89063 -1.07812,1.17187 -3.92187,1.17187 h -3.42188 v 5.42188 z m 1.76562,-7 h 3.45313 q 1.71875,0 2.4375,-0.64063 0.71875,-0.64062 0.71875,-1.79687 0,-0.84375 -0.42188,-1.4375 -0.42187,-0.59375 -1.125,-0.78125 -0.4375,-0.125 -1.64062,-0.125 h -3.42188 z m 14.0842,7 V 107.5482 h -4.40625 v -1.57813 h 10.57813 v 1.57813 h -4.40625 v 11.78125 z m 6.27097,3.70312 v -1.1875 h 10.85937 v 1.1875 z m 12.09448,-3.70312 v -13.35938 h 5.04688 q 1.32812,0 2.03125,0.125 0.96875,0.17188 1.64062,0.64063 0.67188,0.45312 1.07813,1.28125 0.40625,0.82812 0.40625,1.82812 0,1.70313 -1.09375,2.89063 -1.07813,1.17187 -3.92188,1.17187 h -3.42187 v 5.42188 z m 1.76563,-7 h 3.45312 q 1.71875,0 2.4375,-0.64063 0.71875,-0.64062 0.71875,-1.79687 0,-0.84375 -0.42187,-1.4375 -0.42188,-0.59375 -1.125,-0.78125 -0.4375,-0.125 -1.64063,-0.125 h -3.42187 z m 10.74044,7 v -13.35938 h 1.76563 v 5.48438 h 6.9375 v -5.48438 h 1.76562 v 13.35938 h -1.76562 v -6.29688 h -6.9375 v 6.29688 z m 13.41043,0 v -13.35938 h 4.60938 q 1.54687,0 2.375,0.20313 1.14062,0.25 1.95312,0.95312 1.0625,0.89063 1.57813,2.28125 0.53125,1.39063 0.53125,3.17188 0,1.51562 -0.35938,2.70312 -0.35937,1.17188 -0.92187,1.9375 -0.54688,0.76563 -1.20313,1.21875 -0.65625,0.4375 -1.59375,0.67188 -0.9375,0.21875 -2.14062,0.21875 z m 1.76563,-1.57813 h 2.85937 q 1.3125,0 2.0625,-0.23437 0.75,-0.25 1.20313,-0.70313 0.625,-0.625 0.96875,-1.6875 0.35937,-1.0625 0.35937,-2.57812 0,-2.09375 -0.6875,-3.21875 -0.6875,-1.125 -1.67187,-1.5 -0.70313,-0.28125 -2.28125,-0.28125 h -2.8125 z m 11.73859,1.57813 v -13.35938 h 5.92187 q 1.78125,0 2.70313,0.35938 0.9375,0.35937 1.48437,1.28125 0.5625,0.90625 0.5625,2.01562 0,1.40625 -0.92187,2.39063 -0.92188,0.96875 -2.84375,1.23437 0.70312,0.34375 1.07812,0.67188 0.76563,0.70312 1.45313,1.76562 l 2.32812,3.64063 h -2.21875 l -1.76562,-2.78125 q -0.78125,-1.20313 -1.28125,-1.82813 -0.5,-0.64062 -0.90625,-0.89062 -0.39063,-0.26563 -0.79688,-0.35938 -0.29687,-0.0781 -0.98437,-0.0781 h -2.04688 v 5.9375 z m 1.76562,-7.45313 h 3.79688 q 1.21875,0 1.89062,-0.25 0.6875,-0.26562 1.04688,-0.8125 0.35937,-0.54687 0.35937,-1.1875 0,-0.95312 -0.6875,-1.5625 -0.6875,-0.60937 -2.1875,-0.60937 h -4.21875 z"
     fill-rule="nonzero"
     id="path73" />
  <path
     fill="#f4cccc"
     d="m 153.8937,326.31496 h 126.77167 v 53.16537 H 153.8937 Z"
     fill-rule="evenodd"
     id="path75" />
  <path
     stroke="#000000"
     stroke-width="1"
     stroke-linejoin="round"
     stroke-linecap="butt"
     d="m 153.8937,326.31496 h 126.77167 v 53.16537 H 153.8937 Z"
     fill-rule="evenodd"
     id="path77" />
  <path
     fill="#000000"
     d="m 175.69741,359.81764 v -13.35938 h 5.04688 q 1.32812,0 2.03125,0.125 0.96875,0.17188 1.64062,0.64063 0.67188,0.45312 1.07813,1.28125 0.40625,0.82812 0.40625,1.82812 0,1.70313 -1.09375,2.89063 -1.07813,1.17187 -3.92188,1.17187 h -3.42187 v 5.42188 z m 1.76563,-7 h 3.45312 q 1.71875,0 2.4375,-0.64063 0.71875,-0.64062 0.71875,-1.79687 0,-0.84375 -0.42187,-1.4375 -0.42188,-0.59375 -1.125,-0.78125 -0.4375,-0.125 -1.64063,-0.125 h -3.42187 z m 14.08419,7 v -11.78125 h -4.40625 v -1.57813 h 10.57813 v 1.57813 h -4.40625 v 11.78125 z m 6.271,3.70312 v -1.1875 h 10.85937 v 1.1875 z m 12.07883,-3.70312 v -13.35938 h 1.8125 l 7.01562,10.48438 v -10.48438 h 1.6875 v 13.35938 h -1.8125 l -7.01562,-10.5 v 10.5 z m 12.95733,-6.5 q 0,-3.32813 1.78125,-5.20313 1.78125,-1.89062 4.60938,-1.89062 1.84375,0 3.32812,0.89062 1.48438,0.875 2.26563,2.46875 0.78125,1.57813 0.78125,3.57813 0,2.03125 -0.82813,3.64062 -0.8125,1.59375 -2.3125,2.42188 -1.5,0.82812 -3.25,0.82812 -1.875,0 -3.35937,-0.90625 -1.48438,-0.92187 -2.25,-2.5 -0.76563,-1.57812 -0.76563,-3.32812 z m 1.8125,0.0156 q 0,2.42188 1.29688,3.8125 1.29687,1.39063 3.26562,1.39063 2,0 3.28125,-1.40625 1.28125,-1.40625 1.28125,-3.98438 0,-1.625 -0.54687,-2.84375 -0.54688,-1.21875 -1.60938,-1.875 -1.0625,-0.67187 -2.375,-0.67187 -1.89062,0 -3.25,1.29687 -1.34375,1.28125 -1.34375,4.28125 z m 16.63642,6.48438 v -11.78125 h -4.40625 v -1.57813 h 10.57812 v 1.57813 h -4.40625 v 11.78125 z m 8.02099,0 v -13.35936 h 9.65625 v 1.57813 h -7.875 v 4.09375 h 7.375 v 1.5625 h -7.375 v 4.54687 h 8.1875 v 1.57813 z"
     fill-rule="nonzero"
     id="path79" />
  <path
     fill="#000000"
     fill-opacity="0"
     d="m 139.57611,112.40158 h -25.00006 v 0.063 h 39.33078"
     fill-rule="evenodd"
     id="path81" />
  <path
     stroke="#000000"
     stroke-width="1"
     stroke-linejoin="round"
     stroke-linecap="butt"
     d="m 139.57611,112.40158 h -25.00005 v 0.063 h 33.33077"
     fill-rule="evenodd"
     id="path83" />
  <path
     fill="#000000"
     stroke="#000000"
     stroke-width="1"
     stroke-linecap="butt"
     d="m 147.90684,114.1163 4.53809,-1.65173 -4.53809,-1.65174 z"
     fill-rule="evenodd"
     id="path85" />
  <path
     fill="#000000"
     fill-opacity="0"
     d="m 139.57611,112.40158 h -25.00006 v 90.83464 h 39.33078"
     fill-rule="evenodd"
     id="path87" />
  <path
     stroke="#000000"
     stroke-width="1"
     stroke-linejoin="round"
     stroke-linecap="butt"
     d="m 139.57611,112.40158 h -25.00005 v 90.83464 h 33.33077"
     fill-rule="evenodd"
     id="path89" />
  <path
     fill="#000000"
     stroke="#000000"
     stroke-width="1"
     stroke-linecap="butt"
     d="m 147.90684,204.88795 4.53809,-1.65173 -4.53809,-1.65174 z"
     fill-rule="evenodd"
     id="path91" />
  <path
     fill="#000000"
     fill-opacity="0"
     d="m 139.57611,112.40158 h -25.00006 v 175.9055 h 39.33078"
     fill-rule="evenodd"
     id="path93" />
  <path
     stroke="#000000"
     stroke-width="1"
     stroke-linejoin="round"
     stroke-linecap="butt"
     d="m 139.57611,112.40158 h -25.00005 v 175.9055 h 33.33077"
     fill-rule="evenodd"
     id="path95" />
  <path
     fill="#000000"
     stroke="#000000"
     stroke-width="1"
     stroke-linecap="butt"
     d="m 147.90684,289.95881 4.53809,-1.65173 -4.53809,-1.65174 z"
     fill-rule="evenodd"
     id="path97" />
  <path
     fill="#000000"
     fill-opacity="0"
     d="m 139.57611,112.40158 h -25.00006 v 240.50395 h 39.33078"
     fill-rule="evenodd"
     id="path99" />
  <path
     stroke="#000000"
     stroke-width="1"
     stroke-linejoin="round"
     stroke-linecap="butt"
     d="m 139.57611,112.40158 h -25.00005 v 240.50395 h 33.33077"
     fill-rule="evenodd"
     id="path101" />
  <path
     fill="#000000"
     stroke="#000000"
     stroke-width="1"
     stroke-linecap="butt"
     d="m 147.90684,354.55723 4.53809,-1.6517 -4.53809,-1.65174 z"
     fill-rule="evenodd"
     id="path103" />
  <path
     fill="#000000"
     fill-opacity="0"
     d="M 72.56037,290.92916 V 174.36222 h 42.01575 v 116.56694 z"
     fill-rule="evenodd"
     id="path105" />
  <path
     fill="#000000"
     d="m 96.58975,281.35103 -0.25,-1.625 q 0.96875,-0.125 1.5,-0.75 0.51563,-0.625 0.51563,-1.75 0,-1.125 -0.45313,-1.67188 -0.46875,-0.54687 -1.09375,-0.54687 -0.54687,0 -0.875,0.48437 -0.21875,0.32813 -0.54687,1.67188 -0.46875,1.8125 -0.79688,2.51562 -0.32812,0.6875 -0.90625,1.04688 -0.59375,0.35937 -1.3125,0.35937 -0.64062,0 -1.1875,-0.29687 -0.5625,-0.29688 -0.92187,-0.8125 -0.28125,-0.375 -0.46875,-1.03125 -0.20313,-0.67188 -0.20313,-1.42188 0,-1.14062 0.32813,-2 0.32812,-0.85937 0.89062,-1.26562 0.5625,-0.42188 1.5,-0.57813 l 0.21875,1.60938 q -0.75,0.10937 -1.17187,0.64062 -0.42188,0.51563 -0.42188,1.46875 0,1.14063 0.375,1.625 0.375,0.46875 0.875,0.46875 0.3125,0 0.57813,-0.1875 0.26562,-0.20312 0.4375,-0.64062 0.0937,-0.23438 0.42187,-1.4375 0.45313,-1.75 0.75,-2.4375 0.29688,-0.6875 0.85938,-1.07813 0.5625,-0.39062 1.40625,-0.39062 0.82812,0 1.54687,0.48437 0.71875,0.46875 1.125,1.375 0.39063,0.90625 0.39063,2.04688 0,1.875 -0.78125,2.875 -0.78125,0.98437 -2.32813,1.25 z m -0.21875,-16.60938 0.20313,-1.6875 q 1.48437,0.40625 2.3125,1.48438 0.8125,1.07812 0.8125,2.76562 0,2.125 -1.29688,3.375 -1.3125,1.23438 -3.67187,1.23438 -2.45313,0 -3.79688,-1.25 -1.34375,-1.26563 -1.34375,-3.26563 0,-1.9375 1.32813,-3.15625 1.3125,-1.23437 3.70312,-1.23437 0.15625,0 0.4375,0 v 7.21875 q 1.59375,-0.0937 2.45313,-0.90625 0.84375,-0.8125 0.84375,-2.01563 0,-0.90625 -0.46875,-1.54687 -0.48438,-0.64063 -1.51563,-1.01563 z m -2.65625,5.39063 v -5.40625 q -1.21875,0.10937 -1.82812,0.625 -0.95313,0.78125 -0.95313,2.03125 0,1.125 0.76563,1.90625 0.75,0.76562 2.01562,0.84375 z m 6.5625,-8.82886 0.23438,-1.59375 q 0.75,-0.10937 1.07812,-0.5625 0.45313,-0.60937 0.45313,-1.67187 0,-1.14063 -0.45313,-1.75 -0.45312,-0.625 -1.26562,-0.84375 -0.5,-0.125 -2.10938,-0.10938 1.26563,1.0625 1.26563,2.67188 0,2 -1.4375,3.09375 -1.4375,1.09375 -3.45313,1.09375 -1.39062,0 -2.5625,-0.5 -1.17187,-0.51563 -1.79687,-1.45313 -0.64063,-0.95312 -0.64063,-2.25 0,-1.70312 1.375,-2.8125 H 89.8085 v -1.51562 h 8.35938 q 2.26562,0 3.20312,0.46875 0.9375,0.45312 1.48438,1.45312 0.54687,0.98438 0.54687,2.45313 0,1.71875 -0.78125,2.79687 -0.76562,1.0625 -2.34375,1.03125 z m -5.8125,-1.35937 q 1.90625,0 2.78125,-0.75 0.875,-0.76563 0.875,-1.90625 0,-1.125 -0.85937,-1.89063 -0.875,-0.76562 -2.73438,-0.76562 -1.78125,0 -2.67187,0.79687 -0.90625,0.78125 -0.90625,1.89063 0,1.09375 0.89062,1.85937 0.875,0.76563 2.625,0.76563 z m 5.01563,-9.32883 H 89.8085 v -1.46875 h 1.35938 q -0.71875,-0.45312 -1.14063,-1.20312 -0.4375,-0.76563 -0.4375,-1.71875 0,-1.07813 0.45313,-1.76563 0.4375,-0.6875 1.23437,-0.96875 -1.6875,-1.15625 -1.6875,-2.98437 0,-1.45313 0.79688,-2.21875 0.79687,-0.78125 2.45312,-0.78125 h 6.64063 v 1.64062 h -6.09375 q -0.98438,0 -1.40625,0.15625 -0.4375,0.15625 -0.70313,0.57813 -0.26562,0.42187 -0.26562,0.98437 0,1.01563 0.6875,1.6875 0.67187,0.67188 2.15625,0.67188 h 5.625 v 1.64062 h -6.28125 q -1.09375,0 -1.64063,0.40625 -0.54687,0.40625 -0.54687,1.3125 0,0.6875 0.35937,1.28125 0.35938,0.59375 1.0625,0.85938 0.70313,0.25 2.03125,0.25 h 5.01563 z m -3.10938,-22.1658 0.20313,-1.6875 q 1.48437,0.40625 2.3125,1.48437 0.8125,1.07813 0.8125,2.76563 0,2.125 -1.29688,3.375 -1.3125,1.23437 -3.67187,1.23437 -2.45313,0 -3.79688,-1.25 -1.34375,-1.26562 -1.34375,-3.26562 0,-1.9375 1.32813,-3.15625 1.3125,-1.23438 3.70312,-1.23438 0.15625,0 0.4375,0 v 7.21875 q 1.59375,-0.0937 2.45313,-0.90625 0.84375,-0.8125 0.84375,-2.01562 0,-0.90625 -0.46875,-1.54688 -0.48438,-0.64062 -1.51563,-1.01562 z m -2.65625,5.39062 v -5.40625 q -1.21875,0.10938 -1.82812,0.625 -0.95313,0.78125 -0.95313,2.03125 0,1.125 0.76563,1.90625 0.75,0.76563 2.01562,0.84375 z m 5.76563,-9.14135 H 89.8085 v -1.46875 h 1.375 q -1.59375,-1.0625 -1.59375,-3.07813 0,-0.875 0.3125,-1.60937 0.3125,-0.73438 0.82813,-1.09375 0.5,-0.375 1.20312,-0.51563 0.45313,-0.0937 1.59375,-0.0937 h 5.95313 v 1.64063 h -5.89063 q -1,0 -1.48437,0.20312 -0.5,0.1875 -0.79688,0.67188 -0.29687,0.48437 -0.29687,1.14062 0,1.04688 0.67187,1.8125 0.65625,0.75 2.51563,0.75 h 5.28125 z m -1.46875,-13.95385 1.45312,-0.23437 q 0.14063,0.6875 0.14063,1.23437 0,0.89063 -0.28125,1.39063 -0.28125,0.48439 -0.73438,0.68752 -0.46875,0.20312 -1.9375,0.20312 h -5.57812 v 1.20313 H 89.8085 v -1.20313 h -2.39062 l -0.98438,-1.62502 h 3.375 v -1.65625 h 1.26563 v 1.65625 H 96.746 q 0.6875,0 0.89063,-0.0781 0.20312,-0.0937 0.32812,-0.28125 0.10938,-0.20313 0.10938,-0.57813 0,-0.26562 -0.0625,-0.71875 z m -1.42188,-0.94892 -0.25,-1.625 q 0.96875,-0.125 1.5,-0.75 0.51563,-0.625 0.51563,-1.75 0,-1.125 -0.45313,-1.67188 -0.46875,-0.54687 -1.09375,-0.54687 -0.54687,0 -0.875,0.48437 -0.21875,0.32813 -0.54687,1.67188 -0.46875,1.8125 -0.79688,2.51562 -0.32812,0.6875 -0.90625,1.04688 -0.59375,0.35937 -1.3125,0.35937 -0.64062,0 -1.1875,-0.29687 -0.5625,-0.29688 -0.92187,-0.8125 -0.28125,-0.375 -0.46875,-1.03125 -0.20313,-0.67188 -0.20313,-1.42188 0,-1.14062 0.32813,-2 0.32812,-0.85937 0.89062,-1.26562 0.5625,-0.42188 1.5,-0.57813 l 0.21875,1.60938 q -0.75,0.10937 -1.17187,0.64062 -0.42188,0.51563 -0.42188,1.46875 0,1.14063 0.375,1.625 0.375,0.46875 0.875,0.46875 0.3125,0 0.57813,-0.1875 0.26562,-0.20312 0.4375,-0.64062 0.0937,-0.23438 0.42187,-1.4375 0.45313,-1.75 0.75,-2.4375 0.29688,-0.6875 0.85938,-1.07813 0.5625,-0.39062 1.40625,-0.39062 0.82812,0 1.54687,0.48437 0.71875,0.46875 1.125,1.375 0.39063,0.90625 0.39063,2.04688 0,1.875 -0.78125,2.875 -0.78125,0.98437 -2.32813,1.25 z"
     fill-rule="nonzero"
     id="path107" />
  <path
     fill="#d9ead3"
     d="m 439.87004,156.20472 h 126.77167 v 53.16536 H 439.87004 Z"
     fill-rule="evenodd"
     id="path109" />
  <path
     stroke="#000000"
     stroke-width="1"
     stroke-linejoin="round"
     stroke-linecap="butt"
     d="m 439.87004,156.20472 h 126.77167 v 53.16536 H 439.87004 Z"
     fill-rule="evenodd"
     id="path111" />
  <path
     fill="#000000"
     d="m 487.31654,189.70739 v -1.875 h 1.875 v 1.875 z m 8.30829,-1.46875 0.23437,1.45312 q -0.6875,0.14063 -1.23437,0.14063 -0.89063,0 -1.39063,-0.28125 -0.48437,-0.28125 -0.6875,-0.73438 -0.20312,-0.46875 -0.20312,-1.9375 v -5.57812 h -1.20313 v -1.26563 h 1.20313 v -2.39062 l 1.625,-0.98438 v 3.375 h 1.65625 v 1.26563 h -1.65625 v 5.67187 q 0,0.6875 0.0781,0.89063 0.0937,0.20312 0.28125,0.32812 0.20313,0.10938 0.57813,0.10938 0.26562,0 0.71875,-0.0625 z m 8.23022,-1.64063 1.6875,0.20313 q -0.40625,1.48437 -1.48437,2.3125 -1.07813,0.8125 -2.76563,0.8125 -2.125,0 -3.375,-1.29688 -1.23437,-1.3125 -1.23437,-3.67187 0,-2.45313 1.25,-3.79688 1.26562,-1.34375 3.26562,-1.34375 1.9375,0 3.15625,1.32813 1.23438,1.3125 1.23438,3.70312 0,0.15625 0,0.4375 h -7.21875 q 0.0937,1.59375 0.90625,2.45313 0.8125,0.84375 2.01562,0.84375 0.90625,0 1.54688,-0.46875 0.64062,-0.48438 1.01562,-1.51563 z m -5.39062,-2.65625 h 5.40625 q -0.10938,-1.21875 -0.625,-1.82812 -0.78125,-0.95313 -2.03125,-0.95313 -1.125,0 -1.90625,0.76563 -0.76563,0.75 -0.84375,2.01562 z m 8.04754,5.76563 3.53125,-5.03125 -3.26562,-4.64063 h 2.04687 l 1.48438,2.26563 q 0.42187,0.64062 0.67187,1.07812 0.40625,-0.59375 0.73438,-1.0625 l 1.64062,-2.28125 h 1.95313 l -3.34375,4.54688 3.59375,5.125 h -2.01563 l -1.98437,-3 -0.51563,-0.8125 -2.54687,3.8125 z m 14,-1.46875 0.23438,1.45312 q -0.6875,0.14063 -1.23438,0.14063 -0.89062,0 -1.39062,-0.28125 -0.48438,-0.28125 -0.6875,-0.73438 -0.20313,-0.46875 -0.20313,-1.9375 v -5.57812 h -1.20312 v -1.26563 h 1.20312 v -2.39062 l 1.625,-0.98438 v 3.375 h 1.65625 v 1.26563 h -1.65625 v 5.67187 q 0,0.6875 0.0781,0.89063 0.0937,0.20312 0.28125,0.32812 0.20312,0.10938 0.57812,0.10938 0.26563,0 0.71875,-0.0625 z"
     fill-rule="nonzero"
     id="path113" />
  <path
     fill="#d9ead3"
     d="m 439.87004,209.37008 h 126.77167 v 40.91338 H 439.87004 Z"
     fill-rule="evenodd"
     id="path115" />
  <path
     stroke="#000000"
     stroke-width="1"
     stroke-linejoin="round"
     stroke-linecap="butt"
     d="m 439.87004,209.37008 h 126.77167 v 40.91338 H 439.87004 Z"
     fill-rule="evenodd"
     id="path117" />
  <path
     fill="#000000"
     d="m 475.90234,236.74678 v -1.875 h 1.875 v 1.875 z m 4.71454,0 v -9.67188 h 1.46875 v 1.46875 q 0.5625,-1.03125 1.03125,-1.35937 0.48437,-0.32813 1.0625,-0.32813 0.82812,0 1.6875,0.53125 l -0.5625,1.51563 q -0.60938,-0.35938 -1.20313,-0.35938 -0.54687,0 -0.96875,0.32813 -0.42187,0.32812 -0.60937,0.89062 -0.28125,0.875 -0.28125,1.92188 v 5.0625 z m 5.61896,-4.84375 q 0,-2.6875 1.48437,-3.96875 1.25,-1.07813 3.04688,-1.07813 2,0 3.26562,1.3125 1.26563,1.29688 1.26563,3.60938 0,1.85937 -0.5625,2.9375 -0.5625,1.0625 -1.64063,1.65625 -1.0625,0.59375 -2.32812,0.59375 -2.03125,0 -3.28125,-1.29688 -1.25,-1.3125 -1.25,-3.76562 z m 1.6875,0 q 0,1.85937 0.79687,2.79687 0.8125,0.92188 2.04688,0.92188 1.21875,0 2.03125,-0.92188 0.8125,-0.9375 0.8125,-2.84375 0,-1.79687 -0.8125,-2.71875 -0.8125,-0.92187 -2.03125,-0.92187 -1.23438,0 -2.04688,0.92187 -0.79687,0.90625 -0.79687,2.76563 z m 15.56317,4.84375 v -1.21875 q -0.90625,1.4375 -2.70313,1.4375 -1.15625,0 -2.125,-0.64063 -0.96875,-0.64062 -1.5,-1.78125 -0.53125,-1.14062 -0.53125,-2.625 0,-1.45312 0.48438,-2.625 0.48437,-1.1875 1.4375,-1.8125 0.96875,-0.625 2.17187,-0.625 0.875,0 1.54688,0.375 0.6875,0.35938 1.10937,0.95313 v -4.79688 h 1.64063 v 13.35938 z m -5.17188,-4.82813 q 0,1.85938 0.78125,2.78125 0.78125,0.92188 1.84375,0.92188 1.07813,0 1.82813,-0.875 0.75,-0.89063 0.75,-2.6875 0,-1.98438 -0.76563,-2.90625 -0.76562,-0.9375 -1.89062,-0.9375 -1.07813,0 -1.8125,0.89062 -0.73438,0.89063 -0.73438,2.8125 z m 15.59448,3.64063 q -0.92187,0.76562 -1.76562,1.09375 -0.82813,0.3125 -1.79688,0.3125 -1.59375,0 -2.45312,-0.78125 -0.85938,-0.78125 -0.85938,-1.98438 0,-0.71875 0.32813,-1.29687 0.32812,-0.59375 0.84375,-0.9375 0.53125,-0.35938 1.1875,-0.54688 0.46875,-0.125 1.45312,-0.25 1.98438,-0.23437 2.92188,-0.5625 0.0156,-0.34375 0.0156,-0.42187 0,-1 -0.46875,-1.42188 -0.625,-0.54687 -1.875,-0.54687 -1.15625,0 -1.70312,0.40625 -0.54688,0.40625 -0.8125,1.42187 l -1.60938,-0.21875 q 0.21875,-1.01562 0.71875,-1.64062 0.5,-0.64063 1.45313,-0.98438 0.95312,-0.34375 2.1875,-0.34375 1.25,0 2.01562,0.29688 0.78125,0.28125 1.14063,0.73437 0.375,0.4375 0.51562,1.10938 0.0781,0.42187 0.0781,1.51562 v 2.1875 q 0,2.28125 0.10937,2.89063 0.10938,0.59375 0.40625,1.15625 h -1.70312 q -0.26563,-0.51563 -0.32813,-1.1875 z m -0.14062,-3.67188 q -0.89063,0.375 -2.67188,0.625 -1.01562,0.14063 -1.4375,0.32813 -0.42187,0.1875 -0.65625,0.53125 -0.21875,0.34375 -0.21875,0.78125 0,0.65625 0.5,1.09375 0.5,0.4375 1.45313,0.4375 0.9375,0 1.67187,-0.40625 0.75,-0.42188 1.09375,-1.14063 0.26563,-0.5625 0.26563,-1.64062 z m 7.78198,3.39063 0.23438,1.45312 q -0.6875,0.14063 -1.23438,0.14063 -0.89062,0 -1.39062,-0.28125 -0.48438,-0.28125 -0.6875,-0.73438 -0.20313,-0.46875 -0.20313,-1.9375 v -5.57812 h -1.20312 v -1.26563 h 1.20312 v -2.39062 l 1.625,-0.98438 v 3.375 h 1.65625 v 1.26563 h -1.65625 v 5.67187 q 0,0.6875 0.0781,0.89063 0.0937,0.20312 0.28125,0.32812 0.20312,0.10938 0.57812,0.10938 0.26563,0 0.71875,-0.0625 z m 7.91767,0.28125 q -0.92188,0.76562 -1.76563,1.09375 -0.82812,0.3125 -1.79687,0.3125 -1.59375,0 -2.45313,-0.78125 -0.85937,-0.78125 -0.85937,-1.98438 0,-0.71875 0.32812,-1.29687 0.32813,-0.59375 0.84375,-0.9375 0.53125,-0.35938 1.1875,-0.54688 0.46875,-0.125 1.45313,-0.25 1.98437,-0.23437 2.92187,-0.5625 0.0156,-0.34375 0.0156,-0.42187 0,-1 -0.46875,-1.42188 -0.625,-0.54687 -1.875,-0.54687 -1.15625,0 -1.70313,0.40625 -0.54687,0.40625 -0.8125,1.42187 l -1.60937,-0.21875 q 0.21875,-1.01562 0.71875,-1.64062 0.5,-0.64063 1.45312,-0.98438 0.95313,-0.34375 2.1875,-0.34375 1.25,0 2.01563,0.29688 0.78125,0.28125 1.14062,0.73437 0.375,0.4375 0.51563,1.10938 0.0781,0.42187 0.0781,1.51562 v 2.1875 q 0,2.28125 0.10938,2.89063 0.10937,0.59375 0.40625,1.15625 h -1.70313 q -0.26562,-0.51563 -0.32812,-1.1875 z m -0.14063,-3.67188 q -0.89062,0.375 -2.67187,0.625 -1.01563,0.14063 -1.4375,0.32813 -0.42188,0.1875 -0.65625,0.53125 -0.21875,0.34375 -0.21875,0.78125 0,0.65625 0.5,1.09375 0.5,0.4375 1.45312,0.4375 0.9375,0 1.67188,-0.40625 0.75,-0.42188 1.09375,-1.14063 0.26562,-0.5625 0.26562,-1.64062 z"
     fill-rule="nonzero"
     id="path119" />
  <path
     fill="#d9ead3"
     d="m 439.87004,250.28346 h 126.77167 v 76.03149 H 439.87004 Z"
     fill-rule="evenodd"
     id="path121" />
  <path
     stroke="#000000"
     stroke-width="1"
     stroke-linejoin="round"
     stroke-linecap="butt"
     d="m 439.87004,250.28346 h 126.77167 v 76.03149 H 439.87004 Z"
     fill-rule="evenodd"
     id="path123" />
  <path
     fill="#000000"
     d="m 484.19654,295.21922 v -1.875 h 1.875 v 1.875 z m 10.99579,0 v -1.21875 q -0.90625,1.4375 -2.70313,1.4375 -1.15625,0 -2.125,-0.64063 -0.96875,-0.64062 -1.5,-1.78125 -0.53125,-1.14062 -0.53125,-2.625 0,-1.45312 0.48438,-2.625 0.48437,-1.1875 1.4375,-1.8125 0.96875,-0.625 2.17187,-0.625 0.875,0 1.54688,0.375 0.6875,0.35938 1.10937,0.95313 v -4.79688 h 1.64063 v 13.35938 z m -5.17188,-4.82813 q 0,1.85938 0.78125,2.78125 0.78125,0.92188 1.84375,0.92188 1.07813,0 1.82813,-0.875 0.75,-0.89063 0.75,-2.6875 0,-1.98438 -0.76563,-2.90625 -0.76562,-0.9375 -1.89062,-0.9375 -1.07813,0 -1.8125,0.89062 -0.73438,0.89063 -0.73438,2.8125 z m 15.59449,3.64063 q -0.92188,0.76562 -1.76563,1.09375 -0.82812,0.3125 -1.79687,0.3125 -1.59375,0 -2.45313,-0.78125 -0.85937,-0.78125 -0.85937,-1.98438 0,-0.71875 0.32812,-1.29687 0.32813,-0.59375 0.84375,-0.9375 0.53125,-0.35938 1.1875,-0.54688 0.46875,-0.125 1.45313,-0.25 1.98437,-0.23437 2.92187,-0.5625 0.0156,-0.34375 0.0156,-0.42187 0,-1 -0.46875,-1.42188 -0.625,-0.54687 -1.875,-0.54687 -1.15625,0 -1.70313,0.40625 -0.54687,0.40625 -0.8125,1.42187 l -1.60937,-0.21875 q 0.21875,-1.01562 0.71875,-1.64062 0.5,-0.64063 1.45312,-0.98438 0.95313,-0.34375 2.1875,-0.34375 1.25,0 2.01563,0.29688 0.78125,0.28125 1.14062,0.73437 0.375,0.4375 0.51563,1.10938 0.0781,0.42187 0.0781,1.51562 v 2.1875 q 0,2.28125 0.10938,2.89063 0.10937,0.59375 0.40625,1.15625 h -1.70313 q -0.26562,-0.51563 -0.32812,-1.1875 z m -0.14063,-3.67188 q -0.89062,0.375 -2.67187,0.625 -1.01563,0.14063 -1.4375,0.32813 -0.42188,0.1875 -0.65625,0.53125 -0.21875,0.34375 -0.21875,0.78125 0,0.65625 0.5,1.09375 0.5,0.4375 1.45312,0.4375 0.9375,0 1.67188,-0.40625 0.75,-0.42188 1.09375,-1.14063 0.26562,-0.5625 0.26562,-1.64062 z m 7.78198,3.39063 0.23438,1.45312 q -0.6875,0.14063 -1.23438,0.14063 -0.89062,0 -1.39062,-0.28125 -0.48438,-0.28125 -0.6875,-0.73438 -0.20313,-0.46875 -0.20313,-1.9375 v -5.57812 h -1.20312 v -1.26563 h 1.20312 v -2.39062 l 1.625,-0.98438 v 3.375 h 1.65625 v 1.26563 h -1.65625 v 5.67187 q 0,0.6875 0.0781,0.89063 0.0937,0.20312 0.28125,0.32812 0.20312,0.10938 0.57812,0.10938 0.26563,0 0.71875,-0.0625 z m 7.91767,0.28125 q -0.92188,0.76562 -1.76563,1.09375 -0.82812,0.3125 -1.79687,0.3125 -1.59375,0 -2.45313,-0.78125 -0.85937,-0.78125 -0.85937,-1.98438 0,-0.71875 0.32812,-1.29687 0.32813,-0.59375 0.84375,-0.9375 0.53125,-0.35938 1.1875,-0.54688 0.46875,-0.125 1.45313,-0.25 1.98437,-0.23437 2.92187,-0.5625 0.0156,-0.34375 0.0156,-0.42187 0,-1 -0.46875,-1.42188 -0.625,-0.54687 -1.875,-0.54687 -1.15625,0 -1.70313,0.40625 -0.54687,0.40625 -0.8125,1.42187 l -1.60937,-0.21875 q 0.21875,-1.01562 0.71875,-1.64062 0.5,-0.64063 1.45312,-0.98438 0.95313,-0.34375 2.1875,-0.34375 1.25,0 2.01563,0.29688 0.78125,0.28125 1.14062,0.73437 0.375,0.4375 0.51563,1.10938 0.0781,0.42187 0.0781,1.51562 v 2.1875 q 0,2.28125 0.10938,2.89063 0.10937,0.59375 0.40625,1.15625 h -1.70313 q -0.26562,-0.51563 -0.32812,-1.1875 z m -0.14063,-3.67188 q -0.89062,0.375 -2.67187,0.625 -1.01563,0.14063 -1.4375,0.32813 -0.42188,0.1875 -0.65625,0.53125 -0.21875,0.34375 -0.21875,0.78125 0,0.65625 0.5,1.09375 0.5,0.4375 1.45312,0.4375 0.9375,0 1.67188,-0.40625 0.75,-0.42188 1.09375,-1.14063 0.26562,-0.5625 0.26562,-1.64062 z"
     fill-rule="nonzero"
     id="path125" />
  <path
     fill="#000000"
     fill-opacity="0"
     d="m 579.32414,423.28346 h 24.99994 V 288.29133 h -37.69287"
     fill-rule="evenodd"
     id="path127" />
  <path
     stroke="#000000"
     stroke-width="1"
     stroke-linejoin="round"
     stroke-linecap="butt"
     d="m 579.32414,423.28346 h 25 V 288.29133 h -31.69293"
     fill-rule="evenodd"
     id="path129" />
  <path
     fill="#000000"
     stroke="#000000"
     stroke-width="1"
     stroke-linecap="butt"
     d="m 572.63124,286.6396 -4.53809,1.65173 4.53809,1.65174 z"
     fill-rule="evenodd"
     id="path131" />
  <path
     fill="#000000"
     fill-opacity="0"
     d="m 579.32414,423.28346 h 24.99994 V 229.83464 h -37.69287"
     fill-rule="evenodd"
     id="path133" />
  <path
     stroke="#000000"
     stroke-width="1"
     stroke-linejoin="round"
     stroke-linecap="butt"
     d="m 579.32414,423.28346 h 25 V 229.83464 h -31.69293"
     fill-rule="evenodd"
     id="path135" />
  <path
     fill="#000000"
     stroke="#000000"
     stroke-width="1"
     stroke-linecap="butt"
     d="m 572.63124,228.1829 -4.53809,1.65173 4.53809,1.65174 z"
     fill-rule="evenodd"
     id="path137" />
  <path
     fill="#000000"
     fill-opacity="0"
     d="m 579.32414,423.28346 h 24.99994 V 182.77954 h -37.69287"
     fill-rule="evenodd"
     id="path139" />
  <path
     stroke="#000000"
     stroke-width="1"
     stroke-linejoin="round"
     stroke-linecap="butt"
     d="m 579.32414,423.28346 h 25 V 182.77954 h -31.69293"
     fill-rule="evenodd"
     id="path141" />
  <path
     fill="#000000"
     stroke="#000000"
     stroke-width="1"
     stroke-linecap="butt"
     d="m 572.63124,181.1278 -4.53809,1.65173 4.53809,1.65172 z"
     fill-rule="evenodd"
     id="path143" />
  <path
     fill="#000000"
     fill-opacity="0"
     d="M 604.32414,385.86613 V 220.19685 h 42.01575 v 165.66928 z"
     fill-rule="evenodd"
     id="path145" />
  <path
     fill="#000000"
     d="m 628.35354,336.6732 -0.25,-1.625 q 0.96875,-0.125 1.5,-0.75 0.51563,-0.625 0.51563,-1.75 0,-1.125 -0.45313,-1.67188 -0.46875,-0.54687 -1.09375,-0.54687 -0.54687,0 -0.875,0.48437 -0.21875,0.32813 -0.54687,1.67188 -0.46875,1.8125 -0.79688,2.51562 -0.32812,0.6875 -0.90625,1.04688 -0.59375,0.35937 -1.3125,0.35937 -0.64062,0 -1.1875,-0.29687 -0.5625,-0.29688 -0.92187,-0.8125 -0.28125,-0.375 -0.46875,-1.03125 -0.20313,-0.67188 -0.20313,-1.42188 0,-1.14062 0.32813,-2 0.32812,-0.85937 0.89062,-1.26562 0.5625,-0.42188 1.5,-0.57813 l 0.21875,1.60938 q -0.75,0.10937 -1.17187,0.64062 -0.42188,0.51563 -0.42188,1.46875 0,1.14063 0.375,1.625 0.375,0.46875 0.875,0.46875 0.3125,0 0.57813,-0.1875 0.26562,-0.20312 0.4375,-0.64062 0.0937,-0.23438 0.42187,-1.4375 0.45313,-1.75 0.75,-2.4375 0.29688,-0.6875 0.85938,-1.07813 0.5625,-0.39062 1.40625,-0.39062 0.82812,0 1.54687,0.48437 0.71875,0.46875 1.125,1.375 0.39063,0.90625 0.39063,2.04688 0,1.875 -0.78125,2.875 -0.78125,0.98437 -2.32813,1.25 z m -0.21875,-16.60938 0.20313,-1.6875 q 1.48437,0.40625 2.3125,1.48438 0.8125,1.07812 0.8125,2.76562 0,2.125 -1.29688,3.375 -1.3125,1.23438 -3.67187,1.23438 -2.45313,0 -3.79688,-1.25 -1.34375,-1.26563 -1.34375,-3.26563 0,-1.9375 1.32813,-3.15625 1.3125,-1.23437 3.70312,-1.23437 0.15625,0 0.4375,0 v 7.21875 q 1.59375,-0.0937 2.45313,-0.90625 0.84375,-0.8125 0.84375,-2.01563 0,-0.90625 -0.46875,-1.54687 -0.48438,-0.64063 -1.51563,-1.01563 z m -2.65625,5.39063 v -5.40625 q -1.21875,0.10937 -1.82812,0.625 -0.95313,0.78125 -0.95313,2.03125 0,1.125 0.76563,1.90625 0.75,0.76562 2.01562,0.84375 z m 2.21875,-15.45386 0.21875,-1.60937 q 1.65625,0.26562 2.60938,1.35937 0.9375,1.07813 0.9375,2.67188 0,1.98437 -1.29688,3.1875 -1.29687,1.20312 -3.71875,1.20312 -1.57812,0 -2.75,-0.51562 -1.17187,-0.51563 -1.75,-1.57813 -0.59375,-1.0625 -0.59375,-2.3125 0,-1.57812 0.79688,-2.57812 0.79687,-1 2.26562,-1.28125 l 0.23438,1.59375 q -0.96875,0.23437 -1.45313,0.8125 -0.5,0.57812 -0.5,1.39062 0,1.23438 0.89063,2.01563 0.89062,0.78125 2.8125,0.78125 1.95312,0 2.84375,-0.75 0.875,-0.75 0.875,-1.95313 0,-0.96875 -0.59375,-1.60937 -0.59375,-0.65625 -1.82813,-0.82813 z m 2.07813,-6.59375 1.45312,-0.23437 q 0.14063,0.6875 0.14063,1.23437 0,0.89063 -0.28125,1.39063 -0.28125,0.48437 -0.73438,0.6875 -0.46875,0.20312 -1.9375,0.20312 h -5.57812 v 1.20313 h -1.26563 v -1.20313 h -2.39062 l -0.98438,-1.625 h 3.375 v -1.65625 h 1.26563 v 1.65625 h 5.67187 q 0.6875,0 0.89063,-0.0781 0.20312,-0.0937 0.32812,-0.28125 0.10938,-0.20313 0.10938,-0.57813 0,-0.26562 -0.0625,-0.71875 z m -10,-1.60516 h -1.89063 v -1.64063 h 1.89063 z m 11.46875,0 h -9.67188 v -1.64063 h 9.67188 z m -4.84375,-3.53546 q -2.6875,0 -3.96875,-1.48438 -1.07813,-1.25 -1.07813,-3.04687 0,-2 1.3125,-3.26563 1.29688,-1.26562 3.60938,-1.26562 1.85937,0 2.9375,0.5625 1.0625,0.5625 1.65625,1.64062 0.59375,1.0625 0.59375,2.32813 0,2.03125 -1.29688,3.28125 -1.3125,1.25 -3.76562,1.25 z m 0,-1.6875 q 1.85937,0 2.79687,-0.79688 0.92188,-0.8125 0.92188,-2.04687 0,-1.21875 -0.92188,-2.03125 -0.9375,-0.8125 -2.84375,-0.8125 -1.79687,0 -2.71875,0.8125 -0.92187,0.8125 -0.92187,2.03125 0,1.23437 0.92187,2.04687 0.90625,0.79688 2.76563,0.79688 z m 4.84375,-9.29758 h -9.67188 v -1.46875 h 1.375 q -1.59375,-1.0625 -1.59375,-3.07812 0,-0.875 0.3125,-1.60938 0.3125,-0.73437 0.82813,-1.09375 0.5,-0.375 1.20312,-0.51562 0.45313,-0.0937 1.59375,-0.0937 h 5.95313 v 1.64062 h -5.89063 q -1,0 -1.48437,0.20313 -0.5,0.1875 -0.79688,0.67187 -0.29687,0.48438 -0.29687,1.14063 0,1.04687 0.67187,1.8125 0.65625,0.75 2.51563,0.75 h 5.28125 z m -2.89063,-9.71948 -0.25,-1.625 q 0.96875,-0.125 1.5,-0.75 0.51563,-0.625 0.51563,-1.75 0,-1.125 -0.45313,-1.67188 -0.46875,-0.54687 -1.09375,-0.54687 -0.54687,0 -0.875,0.48437 -0.21875,0.32813 -0.54687,1.67188 -0.46875,1.8125 -0.79688,2.51562 -0.32812,0.6875 -0.90625,1.04688 -0.59375,0.35937 -1.3125,0.35937 -0.64062,0 -1.1875,-0.29687 -0.5625,-0.29688 -0.92187,-0.8125 -0.28125,-0.375 -0.46875,-1.03125 -0.20313,-0.67188 -0.20313,-1.42188 0,-1.14062 0.32813,-2 0.32812,-0.85937 0.89062,-1.26562 0.5625,-0.42188 1.5,-0.57813 l 0.21875,1.60938 q -0.75,0.10937 -1.17187,0.64062 -0.42188,0.51563 -0.42188,1.46875 0,1.14063 0.375,1.625 0.375,0.46875 0.875,0.46875 0.3125,0 0.57813,-0.1875 0.26562,-0.20312 0.4375,-0.64062 0.0937,-0.23438 0.42187,-1.4375 0.45313,-1.75 0.75,-2.4375 0.29688,-0.6875 0.85938,-1.07813 0.5625,-0.39062 1.40625,-0.39062 0.82812,0 1.54687,0.48437 0.71875,0.46875 1.125,1.375 0.39063,0.90625 0.39063,2.04688 0,1.875 -0.78125,2.875 -0.78125,0.98437 -2.32813,1.25 z"
     fill-rule="nonzero"
     id="path147" />
</svg>
