<?xml version="1.0" encoding="UTF-8" standalone="no"?>
<svg
   xmlns:dc="http://purl.org/dc/elements/1.1/"
   xmlns:cc="http://creativecommons.org/ns#"
   xmlns:rdf="http://www.w3.org/1999/02/22-rdf-syntax-ns#"
   xmlns:svg="http://www.w3.org/2000/svg"
   xmlns="http://www.w3.org/2000/svg"
   xmlns:sodipodi="http://sodipodi.sourceforge.net/DTD/sodipodi-0.dtd"
   xmlns:inkscape="http://www.inkscape.org/namespaces/inkscape"
   version="1.1"
   viewBox="0 0 579.87665 309.60104"
   fill="none"
   stroke="none"
   stroke-linecap="square"
   stroke-miterlimit="10"
   id="svg300"
   sodipodi:docname="endian.svg"
   width="579.87665"
   height="309.60104"
   inkscape:version="1.0.1 (3bc2e813f5, 2020-09-07)">
  <metadata
     id="metadata306">
    <rdf:RDF>
      <cc:Work
         rdf:about="">
        <dc:format>image/svg+xml</dc:format>
        <dc:type
           rdf:resource="http://purl.org/dc/dcmitype/StillImage" />
        <dc:title></dc:title>
      </cc:Work>
    </rdf:RDF>
  </metadata>
  <defs
     id="defs304" />
  <sodipodi:namedview
     pagecolor="#ffffff"
     bordercolor="#666666"
     borderopacity="1"
     objecttolerance="10"
     gridtolerance="10"
     guidetolerance="10"
     inkscape:pageopacity="0"
     inkscape:pageshadow="2"
     inkscape:window-width="1364"
     inkscape:window-height="747"
     id="namedview302"
     showgrid="false"
     inkscape:zoom="0.72395833"
     inkscape:cx="424.07349"
     inkscape:cy="313.43832"
     inkscape:window-x="0"
     inkscape:window-y="19"
     inkscape:window-maximized="0"
     inkscape:current-layer="svg300" />
  <clipPath
     id="p.0">
    <path
       d="M 0,0 H 1024 V 768 H 0 Z"
       clip-rule="nonzero"
       id="path177" />
  </clipPath>
  <path
     fill="#000000"
     fill-opacity="0"
     d="M -87.926506,-70.561676 H 936.07349 V 697.43832 H -87.926506 Z"
     fill-rule="evenodd"
     id="path180" />
  <path
     fill="#000000"
     fill-opacity="0"
     d="M 236.23883,0 V 262.83466"
     fill-rule="evenodd"
     id="path182" />
  <path
     stroke="#000000"
     stroke-width="1"
     stroke-linejoin="round"
     stroke-linecap="butt"
     d="M 236.23883,0 V 262.83466"
     fill-rule="evenodd"
     id="path184" />
  <path
     fill="#000000"
     fill-opacity="0"
     d="M 307.45932,0 V 262.83466"
     fill-rule="evenodd"
     id="path186" />
  <path
     stroke="#000000"
     stroke-width="1"
     stroke-linejoin="round"
     stroke-linecap="butt"
     d="M 307.45932,0 V 262.83466"
     fill-rule="evenodd"
     id="path188" />
  <path
     fill="#000000"
     fill-opacity="0"
     d="M 379.70603,0 V 262.83466"
     fill-rule="evenodd"
     id="path190" />
  <path
     stroke="#000000"
     stroke-width="1"
     stroke-linejoin="round"
     stroke-linecap="butt"
     d="M 379.70603,0 V 262.83466"
     fill-rule="evenodd"
     id="path192" />
  <path
     fill="#000000"
     fill-opacity="0"
     d="M 451.02099,0 V 262.83466"
     fill-rule="evenodd"
     id="path194" />
  <path
     stroke="#000000"
     stroke-width="1"
     stroke-linejoin="round"
     stroke-linecap="butt"
     d="M 451.02099,0 V 262.83466"
     fill-rule="evenodd"
     id="path196" />
  <path
     fill="#000000"
     fill-opacity="0"
     d="M 523.64569,0 V 262.83466"
     fill-rule="evenodd"
     id="path198" />
  <path
     stroke="#000000"
     stroke-width="1"
     stroke-linejoin="round"
     stroke-linecap="butt"
     d="M 523.64569,0 V 262.83466"
     fill-rule="evenodd"
     id="path200" />
  <path
     fill="#d9ead3"
     d="m 236.24933,88.968504 h 71.59058 v 45.007866 h -71.59058 z"
     fill-rule="evenodd"
     id="path202" />
  <path
     stroke="#000000"
     stroke-width="1"
     stroke-linejoin="round"
     stroke-linecap="butt"
     d="m 236.24933,88.968504 h 71.59058 v 45.007866 h -71.59058 z"
     fill-rule="evenodd"
     id="path204" />
  <path
     fill="#000000"
     d="m 252.59824,111.79869 q 0,-2.35938 0.48437,-3.79688 0.48438,-1.45312 1.4375,-2.23437 0.96875,-0.78125 2.42188,-0.78125 1.07812,0 1.89062,0.4375 0.8125,0.42187 1.32813,1.25 0.53125,0.8125 0.82812,1.98437 0.3125,1.15625 0.3125,3.14063 0,2.35937 -0.48437,3.8125 -0.48438,1.4375 -1.45313,2.23437 -0.95312,0.78125 -2.42187,0.78125 -1.92188,0 -3.03125,-1.39062 -1.3125,-1.67188 -1.3125,-5.4375 z m 1.67187,0 q 0,3.29687 0.76563,4.39062 0.78125,1.07813 1.90625,1.07813 1.14062,0 1.90625,-1.09375 0.76562,-1.09375 0.76562,-4.375 0,-3.29688 -0.76562,-4.375 -0.76563,-1.07813 -1.92188,-1.07813 -1.125,0 -1.79687,0.95313 -0.85938,1.21875 -0.85938,4.5 z m 8.06321,6.59375 3.53125,-5.03125 -3.26563,-4.64063 h 2.04688 l 1.48437,2.26563 q 0.42188,0.64062 0.67188,1.07812 0.40625,-0.59375 0.73437,-1.0625 l 1.64063,-2.28125 h 1.95312 l -3.34375,4.54688 3.59375,5.125 h -2.01562 l -1.98438,-3 -0.51562,-0.8125 -2.54688,3.8125 z m 16.14062,0 h -1.64062 v -10.45313 q -0.59375,0.5625 -1.5625,1.14063 -0.95313,0.5625 -1.71875,0.84375 v -1.59375 q 1.375,-0.64063 2.40625,-1.5625 1.03125,-0.92188 1.45312,-1.78125 h 1.0625 z m 12.81323,-1.57813 v 1.57813 h -8.82812 q -0.0156,-0.59375 0.1875,-1.14063 0.34375,-0.90625 1.07812,-1.78125 0.75,-0.875 2.15625,-2.01562 2.17188,-1.78125 2.9375,-2.82813 0.76563,-1.04687 0.76563,-1.96875 0,-0.98437 -0.70313,-1.64062 -0.6875,-0.67188 -1.8125,-0.67188 -1.1875,0 -1.90625,0.71875 -0.70312,0.70313 -0.70312,1.95313 l -1.6875,-0.17188 q 0.17187,-1.89062 1.29687,-2.875 1.14063,-0.98437 3.03125,-0.98437 1.92188,0 3.04688,1.0625 1.125,1.0625 1.125,2.64062 0,0.79688 -0.32813,1.57813 -0.32812,0.78125 -1.09375,1.64062 -0.75,0.84375 -2.53125,2.34375 -1.46875,1.23438 -1.89062,1.6875 -0.42188,0.4375 -0.6875,0.875 z"
     fill-rule="nonzero"
     id="path206" />
  <path
     fill="#d9ead3"
     d="m 307.83991,88.968504 h 71.59055 v 45.007866 h -71.59055 z"
     fill-rule="evenodd"
     id="path208" />
  <path
     stroke="#000000"
     stroke-width="1"
     stroke-linejoin="round"
     stroke-linecap="butt"
     d="m 307.83991,88.968504 h 71.59055 v 45.007866 h -71.59055 z"
     fill-rule="evenodd"
     id="path210" />
  <path
     fill="#000000"
     d="m 324.18879,111.79869 q 0,-2.35938 0.48437,-3.79688 0.48438,-1.45312 1.4375,-2.23437 0.96875,-0.78125 2.42188,-0.78125 1.07812,0 1.89062,0.4375 0.8125,0.42187 1.32813,1.25 0.53125,0.8125 0.82812,1.98437 0.3125,1.15625 0.3125,3.14063 0,2.35937 -0.48437,3.8125 -0.48438,1.4375 -1.45313,2.23437 -0.95312,0.78125 -2.42187,0.78125 -1.92188,0 -3.03125,-1.39062 -1.3125,-1.67188 -1.3125,-5.4375 z m 1.67187,0 q 0,3.29687 0.76563,4.39062 0.78125,1.07813 1.90625,1.07813 1.14062,0 1.90625,-1.09375 0.76562,-1.09375 0.76562,-4.375 0,-3.29688 -0.76562,-4.375 -0.76563,-1.07813 -1.92188,-1.07813 -1.125,0 -1.79687,0.95313 -0.85938,1.21875 -0.85938,4.5 z m 8.06321,6.59375 3.53125,-5.03125 -3.26563,-4.64063 h 2.04688 l 1.48437,2.26563 q 0.42188,0.64062 0.67188,1.07812 0.40625,-0.59375 0.73437,-1.0625 l 1.64063,-2.28125 h 1.95312 l -3.34375,4.54688 3.59375,5.125 h -2.01562 l -1.98438,-3 -0.51562,-0.8125 -2.54688,3.8125 z m 9.96875,-3.53125 1.64062,-0.21875 q 0.28125,1.40625 0.95313,2.01562 0.6875,0.60938 1.65625,0.60938 1.15625,0 1.95312,-0.79688 0.79688,-0.79687 0.79688,-1.98437 0,-1.125 -0.73438,-1.85938 -0.73437,-0.73437 -1.875,-0.73437 -0.46875,0 -1.15625,0.17187 l 0.1875,-1.4375 q 0.15625,0.0156 0.26563,0.0156 1.04687,0 1.875,-0.54688 0.84375,-0.54687 0.84375,-1.67187 0,-0.90625 -0.60938,-1.5 -0.60937,-0.59375 -1.57812,-0.59375 -0.95313,0 -1.59375,0.60937 -0.64063,0.59375 -0.8125,1.79688 l -1.64063,-0.29688 q 0.29688,-1.64062 1.35938,-2.54687 1.0625,-0.90625 2.65625,-0.90625 1.09375,0 2,0.46875 0.92187,0.46875 1.40625,1.28125 0.5,0.8125 0.5,1.71875 0,0.85937 -0.46875,1.57812 -0.46875,0.70313 -1.375,1.125 1.1875,0.28125 1.84375,1.14063 0.65625,0.85937 0.65625,2.15625 0,1.73437 -1.28125,2.95312 -1.26563,1.21875 -3.21875,1.21875 -1.76563,0 -2.92188,-1.04687 -1.15625,-1.04688 -1.32812,-2.71875 z m 15.62573,3.53125 v -3.20313 h -5.79688 v -1.5 l 6.09375,-8.65625 h 1.34375 v 8.65625 h 1.79688 v 1.5 h -1.79688 v 3.20313 z m 0,-4.70313 v -6.01562 l -4.1875,6.01562 z"
     fill-rule="nonzero"
     id="path212" />
  <path
     fill="#d9ead3"
     d="M 379.43045,88.968504 H 451.021 v 45.007866 h -71.59055 z"
     fill-rule="evenodd"
     id="path214" />
  <path
     stroke="#000000"
     stroke-width="1"
     stroke-linejoin="round"
     stroke-linecap="butt"
     d="M 379.43045,88.968504 H 451.021 v 45.007866 h -71.59055 z"
     fill-rule="evenodd"
     id="path216" />
  <path
     fill="#000000"
     d="m 395.77933,111.79869 q 0,-2.35938 0.48438,-3.79688 0.48437,-1.45312 1.4375,-2.23437 0.96875,-0.78125 2.42187,-0.78125 1.07813,0 1.89063,0.4375 0.8125,0.42187 1.32812,1.25 0.53125,0.8125 0.82813,1.98437 0.3125,1.15625 0.3125,3.14063 0,2.35937 -0.48438,3.8125 -0.48437,1.4375 -1.45312,2.23437 -0.95313,0.78125 -2.42188,0.78125 -1.92187,0 -3.03125,-1.39062 -1.3125,-1.67188 -1.3125,-5.4375 z m 1.67188,0 q 0,3.29687 0.76562,4.39062 0.78125,1.07813 1.90625,1.07813 1.14063,0 1.90625,-1.09375 0.76563,-1.09375 0.76563,-4.375 0,-3.29688 -0.76563,-4.375 -0.76562,-1.07813 -1.92187,-1.07813 -1.125,0 -1.79688,0.95313 -0.85937,1.21875 -0.85937,4.5 z m 8.06323,6.59375 3.53125,-5.03125 -3.26563,-4.64063 h 2.04688 l 1.48437,2.26563 q 0.42188,0.64062 0.67188,1.07812 0.40625,-0.59375 0.73437,-1.0625 l 1.6406,-2.28125 h 1.95312 l -3.34372,4.54688 3.59372,5.125 h -2.01562 l -1.98435,-3 -0.51562,-0.8125 -2.54688,3.8125 z m 9.96872,-3.5 1.71875,-0.14063 q 0.1875,1.25 0.875,1.89063 0.70312,0.625 1.6875,0.625 1.1875,0 2,-0.89063 0.82812,-0.89062 0.82812,-2.35937 0,-1.40625 -0.79687,-2.21875 -0.78125,-0.8125 -2.0625,-0.8125 -0.78125,0 -1.42188,0.35937 -0.64062,0.35938 -1,0.9375 l -1.54687,-0.20312 1.29687,-6.85938 h 6.64063 v 1.5625 h -5.32813 l -0.71875,3.59375 q 1.20313,-0.84375 2.51563,-0.84375 1.75,0 2.95312,1.21875 1.20313,1.20313 1.20313,3.10938 0,1.8125 -1.04688,3.14062 -1.29687,1.625 -3.51562,1.625 -1.8125,0 -2.96875,-1.01562 -1.15625,-1.03125 -1.3125,-2.71875 z m 18.87573,-6.57813 -1.625,0.125 q -0.21875,-0.96875 -0.625,-1.40625 -0.65625,-0.70312 -1.64063,-0.70312 -0.78125,0 -1.375,0.4375 -0.76562,0.5625 -1.21875,1.65625 -0.45312,1.07812 -0.46875,3.07812 0.59375,-0.89062 1.45313,-1.32812 0.85937,-0.4375 1.79687,-0.4375 1.64063,0 2.78125,1.20312 1.15625,1.20313 1.15625,3.10938 0,1.26562 -0.54687,2.34375 -0.53125,1.07812 -1.48438,1.65625 -0.9375,0.57812 -2.14062,0.57812 -2.0625,0 -3.35938,-1.5 -1.28125,-1.51562 -1.28125,-4.98437 0,-3.875 1.42188,-5.625 1.25,-1.53125 3.375,-1.53125 1.5625,0 2.5625,0.89062 1.01562,0.875 1.21875,2.4375 z m -6.6875,5.75 q 0,0.84375 0.35937,1.625 0.35938,0.76563 1,1.17188 0.64063,0.40625 1.35938,0.40625 1.03125,0 1.78125,-0.82813 0.75,-0.84375 0.75,-2.28125 0,-1.39062 -0.73438,-2.1875 -0.73437,-0.79687 -1.85937,-0.79687 -1.10938,0 -1.89063,0.79687 -0.76562,0.79688 -0.76562,2.09375 z"
     fill-rule="nonzero"
     id="path218" />
  <path
     fill="#d9ead3"
     d="m 451.02099,88.968504 h 71.59058 v 45.007866 h -71.59058 z"
     fill-rule="evenodd"
     id="path220" />
  <path
     stroke="#000000"
     stroke-width="1"
     stroke-linejoin="round"
     stroke-linecap="butt"
     d="m 451.02099,88.968504 h 71.59058 v 45.007866 h -71.59058 z"
     fill-rule="evenodd"
     id="path222" />
  <path
     fill="#000000"
     d="m 467.36989,111.79869 q 0,-2.35938 0.48437,-3.79688 0.48438,-1.45312 1.4375,-2.23437 0.96875,-0.78125 2.42188,-0.78125 1.07812,0 1.89062,0.4375 0.8125,0.42187 1.32813,1.25 0.53125,0.8125 0.82812,1.98437 0.3125,1.15625 0.3125,3.14063 0,2.35937 -0.48437,3.8125 -0.48438,1.4375 -1.45313,2.23437 -0.95312,0.78125 -2.42187,0.78125 -1.92188,0 -3.03125,-1.39062 -1.3125,-1.67188 -1.3125,-5.4375 z m 1.67187,0 q 0,3.29687 0.76563,4.39062 0.78125,1.07813 1.90625,1.07813 1.14062,0 1.90625,-1.09375 0.76562,-1.09375 0.76562,-4.375 0,-3.29688 -0.76562,-4.375 -0.76563,-1.07813 -1.92188,-1.07813 -1.125,0 -1.79687,0.95313 -0.85938,1.21875 -0.85938,4.5 z m 8.06324,6.59375 3.53125,-5.03125 -3.26563,-4.64063 h 2.04688 l 1.48437,2.26563 q 0.42188,0.64062 0.67188,1.07812 0.40625,-0.59375 0.73437,-1.0625 l 1.64063,-2.28125 h 1.95312 l -3.34375,4.54688 3.59375,5.125 h -2.01562 l -1.98438,-3 -0.51562,-0.8125 -2.54688,3.8125 z m 10.07812,-11.60938 v -1.57812 h 8.64063 v 1.28125 q -1.28125,1.35937 -2.53125,3.60937 -1.25,2.25 -1.9375,4.625 -0.48438,1.67188 -0.625,3.67188 h -1.6875 q 0.0312,-1.57813 0.625,-3.8125 0.59375,-2.23438 1.6875,-4.29688 1.10937,-2.07812 2.35937,-3.5 z m 12.78198,4.375 q -1.01562,-0.375 -1.51562,-1.0625 -0.48438,-0.70312 -0.48438,-1.67187 0,-1.45313 1.04688,-2.4375 1.04687,-1 2.78125,-1 1.75,0 2.8125,1.01562 1.07812,1.01563 1.07812,2.46875 0,0.9375 -0.5,1.625 -0.48437,0.6875 -1.46875,1.0625 1.21875,0.39063 1.85938,1.28125 0.65625,0.89063 0.65625,2.14063 0,1.70312 -1.21875,2.875 -1.21875,1.17187 -3.1875,1.17187 -1.98438,0 -3.20313,-1.17187 -1.20312,-1.17188 -1.20312,-2.92188 0,-1.3125 0.65625,-2.1875 0.67187,-0.875 1.89062,-1.1875 z m -0.32812,-2.78125 q 0,0.9375 0.60937,1.54688 0.60938,0.59375 1.59375,0.59375 0.9375,0 1.54688,-0.59375 0.60937,-0.59375 0.60937,-1.45313 0,-0.90625 -0.625,-1.51562 -0.625,-0.625 -1.5625,-0.625 -0.9375,0 -1.5625,0.60937 -0.60937,0.59375 -0.60937,1.4375 z m -0.53125,6.15625 q 0,0.70313 0.32812,1.35938 0.34375,0.65625 1,1.01562 0.65625,0.35938 1.40625,0.35938 1.17188,0 1.9375,-0.75 0.76563,-0.75 0.76563,-1.92188 0,-1.1875 -0.79688,-1.95312 -0.78125,-0.78125 -1.95312,-0.78125 -1.15625,0 -1.92188,0.76562 -0.76562,0.76563 -0.76562,1.90625 z"
     fill-rule="nonzero"
     id="path224" />
  <path
     fill="#c9daf8"
     d="m 236.24933,160.1916 h 71.59058 v 45.00789 h -71.59058 z"
     fill-rule="evenodd"
     id="path226" />
  <path
     stroke="#000000"
     stroke-width="1"
     stroke-linejoin="round"
     stroke-linecap="butt"
     d="m 236.24933,160.1916 h 71.59058 v 45.00789 h -71.59058 z"
     fill-rule="evenodd"
     id="path228" />
  <path
     fill="#000000"
     d="m 252.59824,183.02179 q 0,-2.35938 0.48437,-3.79688 0.48438,-1.45312 1.4375,-2.23437 0.96875,-0.78125 2.42188,-0.78125 1.07812,0 1.89062,0.4375 0.8125,0.42187 1.32813,1.25 0.53125,0.8125 0.82812,1.98437 0.3125,1.15625 0.3125,3.14063 0,2.35937 -0.48437,3.8125 -0.48438,1.4375 -1.45313,2.23438 -0.95312,0.78125 -2.42187,0.78125 -1.92188,0 -3.03125,-1.39063 -1.3125,-1.67187 -1.3125,-5.4375 z m 1.67187,0 q 0,3.29688 0.76563,4.39063 0.78125,1.07812 1.90625,1.07812 1.14062,0 1.90625,-1.09375 0.76562,-1.09375 0.76562,-4.375 0,-3.29687 -0.76562,-4.375 -0.76563,-1.07812 -1.92188,-1.07812 -1.125,0 -1.79687,0.95312 -0.85938,1.21875 -0.85938,4.5 z m 8.06321,6.59375 3.53125,-5.03125 -3.26563,-4.64062 h 2.04688 l 1.48437,2.26562 q 0.42188,0.64063 0.67188,1.07813 0.40625,-0.59375 0.73437,-1.0625 l 1.64063,-2.28125 h 1.95312 l -3.34375,4.54687 3.59375,5.125 h -2.01562 l -1.98438,-3 -0.51562,-0.8125 -2.54688,3.8125 z m 10.07812,-11.60937 v -1.57813 h 8.64063 v 1.28125 q -1.28125,1.35938 -2.53125,3.60938 -1.25,2.25 -1.9375,4.625 -0.48438,1.67187 -0.625,3.67187 h -1.6875 q 0.0312,-1.57812 0.625,-3.8125 0.59375,-2.23437 1.6875,-4.29687 1.10937,-2.07813 2.35937,-3.5 z m 12.78198,4.375 q -1.01562,-0.375 -1.51562,-1.0625 -0.48438,-0.70313 -0.48438,-1.67188 0,-1.45312 1.04688,-2.4375 1.04687,-1 2.78125,-1 1.75,0 2.8125,1.01563 1.07812,1.01562 1.07812,2.46875 0,0.9375 -0.5,1.625 -0.48437,0.6875 -1.46875,1.0625 1.21875,0.39062 1.85938,1.28125 0.65625,0.89062 0.65625,2.14062 0,1.70313 -1.21875,2.875 -1.21875,1.17188 -3.1875,1.17188 -1.98438,0 -3.20313,-1.17188 -1.20312,-1.17187 -1.20312,-2.92187 0,-1.3125 0.65625,-2.1875 0.67187,-0.875 1.89062,-1.1875 z m -0.32812,-2.78125 q 0,0.9375 0.60937,1.54687 0.60938,0.59375 1.59375,0.59375 0.9375,0 1.54688,-0.59375 0.60937,-0.59375 0.60937,-1.45312 0,-0.90625 -0.625,-1.51563 -0.625,-0.625 -1.5625,-0.625 -0.9375,0 -1.5625,0.60938 -0.60937,0.59375 -0.60937,1.4375 z m -0.53125,6.15625 q 0,0.70312 0.32812,1.35937 0.34375,0.65625 1,1.01563 0.65625,0.35937 1.40625,0.35937 1.17188,0 1.9375,-0.75 0.76563,-0.75 0.76563,-1.92187 0,-1.1875 -0.79688,-1.95313 -0.78125,-0.78125 -1.95312,-0.78125 -1.15625,0 -1.92188,0.76563 -0.76562,0.76562 -0.76562,1.90625 z"
     fill-rule="nonzero"
     id="path230" />
  <path
     fill="#c9daf8"
     d="m 307.83991,160.1916 h 71.59055 v 45.00789 h -71.59055 z"
     fill-rule="evenodd"
     id="path232" />
  <path
     stroke="#000000"
     stroke-width="1"
     stroke-linejoin="round"
     stroke-linecap="butt"
     d="m 307.83991,160.1916 h 71.59055 v 45.00789 h -71.59055 z"
     fill-rule="evenodd"
     id="path234" />
  <path
     fill="#000000"
     d="m 324.18879,183.02179 q 0,-2.35938 0.48437,-3.79688 0.48438,-1.45312 1.4375,-2.23437 0.96875,-0.78125 2.42188,-0.78125 1.07812,0 1.89062,0.4375 0.8125,0.42187 1.32813,1.25 0.53125,0.8125 0.82812,1.98437 0.3125,1.15625 0.3125,3.14063 0,2.35937 -0.48437,3.8125 -0.48438,1.4375 -1.45313,2.23438 -0.95312,0.78125 -2.42187,0.78125 -1.92188,0 -3.03125,-1.39063 -1.3125,-1.67187 -1.3125,-5.4375 z m 1.67187,0 q 0,3.29688 0.76563,4.39063 0.78125,1.07812 1.90625,1.07812 1.14062,0 1.90625,-1.09375 0.76562,-1.09375 0.76562,-4.375 0,-3.29687 -0.76562,-4.375 -0.76563,-1.07812 -1.92188,-1.07812 -1.125,0 -1.79687,0.95312 -0.85938,1.21875 -0.85938,4.5 z m 8.06321,6.59375 3.53125,-5.03125 -3.26563,-4.64062 h 2.04688 l 1.48437,2.26562 q 0.42188,0.64063 0.67188,1.07813 0.40625,-0.59375 0.73437,-1.0625 l 1.64063,-2.28125 h 1.95312 l -3.34375,4.54687 3.59375,5.125 h -2.01562 l -1.98438,-3 -0.51562,-0.8125 -2.54688,3.8125 z m 9.96875,-3.5 1.71875,-0.14062 q 0.1875,1.25 0.875,1.89062 0.70312,0.625 1.6875,0.625 1.1875,0 2,-0.89062 0.82812,-0.89063 0.82812,-2.35938 0,-1.40625 -0.79687,-2.21875 -0.78125,-0.8125 -2.0625,-0.8125 -0.78125,0 -1.42188,0.35938 -0.64062,0.35937 -1,0.9375 l -1.54687,-0.20313 1.29687,-6.85937 h 6.64063 v 1.5625 h -5.32813 l -0.71875,3.59375 q 1.20313,-0.84375 2.51563,-0.84375 1.75,0 2.95312,1.21875 1.20313,1.20312 1.20313,3.10937 0,1.8125 -1.04688,3.14063 -1.29687,1.625 -3.51562,1.625 -1.8125,0 -2.96875,-1.01563 -1.15625,-1.03125 -1.3125,-2.71875 z m 18.87573,-6.57812 -1.625,0.125 q -0.21875,-0.96875 -0.625,-1.40625 -0.65625,-0.70313 -1.64063,-0.70313 -0.78125,0 -1.375,0.4375 -0.76562,0.5625 -1.21875,1.65625 -0.45312,1.07813 -0.46875,3.07813 0.59375,-0.89063 1.45313,-1.32813 0.85937,-0.4375 1.79687,-0.4375 1.64063,0 2.78125,1.20313 1.15625,1.20312 1.15625,3.10937 0,1.26563 -0.54687,2.34375 -0.53125,1.07813 -1.48438,1.65625 -0.9375,0.57813 -2.14062,0.57813 -2.0625,0 -3.35938,-1.5 -1.28125,-1.51563 -1.28125,-4.98438 0,-3.875 1.42188,-5.625 1.25,-1.53125 3.375,-1.53125 1.5625,0 2.5625,0.89063 1.01562,0.875 1.21875,2.4375 z m -6.6875,5.75 q 0,0.84375 0.35937,1.625 0.35938,0.76562 1,1.17187 0.64063,0.40625 1.35938,0.40625 1.03125,0 1.78125,-0.82812 0.75,-0.84375 0.75,-2.28125 0,-1.39063 -0.73438,-2.1875 -0.73437,-0.79688 -1.85937,-0.79688 -1.10938,0 -1.89063,0.79688 -0.76562,0.79687 -0.76562,2.09375 z"
     fill-rule="nonzero"
     id="path236" />
  <path
     fill="#c9daf8"
     d="M 379.43045,160.1916 H 451.021 v 45.00789 h -71.59055 z"
     fill-rule="evenodd"
     id="path238" />
  <path
     stroke="#000000"
     stroke-width="1"
     stroke-linejoin="round"
     stroke-linecap="butt"
     d="M 379.43045,160.1916 H 451.021 v 45.00789 h -71.59055 z"
     fill-rule="evenodd"
     id="path240" />
  <path
     fill="#000000"
     d="m 395.77933,183.02179 q 0,-2.35938 0.48438,-3.79688 0.48437,-1.45312 1.4375,-2.23437 0.96875,-0.78125 2.42187,-0.78125 1.07813,0 1.89063,0.4375 0.8125,0.42187 1.32812,1.25 0.53125,0.8125 0.82813,1.98437 0.3125,1.15625 0.3125,3.14063 0,2.35937 -0.48438,3.8125 -0.48437,1.4375 -1.45312,2.23438 -0.95313,0.78125 -2.42188,0.78125 -1.92187,0 -3.03125,-1.39063 -1.3125,-1.67187 -1.3125,-5.4375 z m 1.67188,0 q 0,3.29688 0.76562,4.39063 0.78125,1.07812 1.90625,1.07812 1.14063,0 1.90625,-1.09375 0.76563,-1.09375 0.76563,-4.375 0,-3.29687 -0.76563,-4.375 -0.76562,-1.07812 -1.92187,-1.07812 -1.125,0 -1.79688,0.95312 -0.85937,1.21875 -0.85937,4.5 z m 8.06323,6.59375 3.53125,-5.03125 -3.26563,-4.64062 h 2.04688 l 1.48437,2.26562 q 0.42188,0.64063 0.67188,1.07813 0.40625,-0.59375 0.73437,-1.0625 l 1.6406,-2.28125 h 1.95312 l -3.34372,4.54687 3.59372,5.125 h -2.01562 l -1.98435,-3 -0.51562,-0.8125 -2.54688,3.8125 z m 9.96872,-3.53125 1.64062,-0.21875 q 0.28125,1.40625 0.95313,2.01563 0.6875,0.60937 1.65625,0.60937 1.15625,0 1.95312,-0.79687 0.79688,-0.79688 0.79688,-1.98438 0,-1.125 -0.73438,-1.85937 -0.73437,-0.73438 -1.875,-0.73438 -0.46875,0 -1.15625,0.17188 l 0.1875,-1.4375 q 0.15625,0.0156 0.26563,0.0156 1.04687,0 1.875,-0.54687 0.84375,-0.54688 0.84375,-1.67188 0,-0.90625 -0.60938,-1.5 -0.60937,-0.59375 -1.57812,-0.59375 -0.95313,0 -1.59375,0.60938 -0.64063,0.59375 -0.8125,1.79687 l -1.64063,-0.29687 q 0.29688,-1.64063 1.35938,-2.54688 1.0625,-0.90625 2.65625,-0.90625 1.09375,0 2,0.46875 0.92187,0.46875 1.40625,1.28125 0.5,0.8125 0.5,1.71875 0,0.85938 -0.46875,1.57813 -0.46875,0.70312 -1.375,1.125 1.1875,0.28125 1.84375,1.14062 0.65625,0.85938 0.65625,2.15625 0,1.73438 -1.28125,2.95313 -1.26563,1.21875 -3.21875,1.21875 -1.76563,0 -2.92188,-1.04688 -1.15625,-1.04687 -1.32812,-2.71875 z m 15.62573,3.53125 v -3.20312 h -5.79688 v -1.5 l 6.09375,-8.65625 h 1.34375 v 8.65625 h 1.79688 v 1.5 h -1.79688 v 3.20312 z m 0,-4.70312 v -6.01563 l -4.1875,6.01563 z"
     fill-rule="nonzero"
     id="path242" />
  <path
     fill="#c9daf8"
     d="m 451.02099,160.1916 h 71.59058 v 45.00789 h -71.59058 z"
     fill-rule="evenodd"
     id="path244" />
  <path
     stroke="#000000"
     stroke-width="1"
     stroke-linejoin="round"
     stroke-linecap="butt"
     d="m 451.02099,160.1916 h 71.59058 v 45.00789 h -71.59058 z"
     fill-rule="evenodd"
     id="path246" />
  <path
     fill="#000000"
     d="m 467.36989,183.02179 q 0,-2.35938 0.48437,-3.79688 0.48438,-1.45312 1.4375,-2.23437 0.96875,-0.78125 2.42188,-0.78125 1.07812,0 1.89062,0.4375 0.8125,0.42187 1.32813,1.25 0.53125,0.8125 0.82812,1.98437 0.3125,1.15625 0.3125,3.14063 0,2.35937 -0.48437,3.8125 -0.48438,1.4375 -1.45313,2.23438 -0.95312,0.78125 -2.42187,0.78125 -1.92188,0 -3.03125,-1.39063 -1.3125,-1.67187 -1.3125,-5.4375 z m 1.67187,0 q 0,3.29688 0.76563,4.39063 0.78125,1.07812 1.90625,1.07812 1.14062,0 1.90625,-1.09375 0.76562,-1.09375 0.76562,-4.375 0,-3.29687 -0.76562,-4.375 -0.76563,-1.07812 -1.92188,-1.07812 -1.125,0 -1.79687,0.95312 -0.85938,1.21875 -0.85938,4.5 z m 8.06324,6.59375 3.53125,-5.03125 -3.26563,-4.64062 h 2.04688 l 1.48437,2.26562 q 0.42188,0.64063 0.67188,1.07813 0.40625,-0.59375 0.73437,-1.0625 l 1.64063,-2.28125 h 1.95312 l -3.34375,4.54687 3.59375,5.125 h -2.01562 l -1.98438,-3 -0.51562,-0.8125 -2.54688,3.8125 z m 16.14062,0 H 491.605 v -10.45312 q -0.59375,0.5625 -1.5625,1.14062 -0.95313,0.5625 -1.71875,0.84375 v -1.59375 q 1.375,-0.64062 2.40625,-1.5625 1.03125,-0.92187 1.45312,-1.78125 h 1.0625 z m 12.81323,-1.57812 v 1.57812 h -8.82812 q -0.0156,-0.59375 0.1875,-1.14062 0.34375,-0.90625 1.07812,-1.78125 0.75,-0.875 2.15625,-2.01563 2.17188,-1.78125 2.9375,-2.82812 0.76563,-1.04688 0.76563,-1.96875 0,-0.98438 -0.70313,-1.64063 -0.6875,-0.67187 -1.8125,-0.67187 -1.1875,0 -1.90625,0.71875 -0.70312,0.70312 -0.70312,1.95312 l -1.6875,-0.17187 q 0.17187,-1.89063 1.29687,-2.875 1.14063,-0.98438 3.03125,-0.98438 1.92188,0 3.04688,1.0625 1.125,1.0625 1.125,2.64063 0,0.79687 -0.32813,1.57812 -0.32812,0.78125 -1.09375,1.64063 -0.75,0.84375 -2.53125,2.34375 -1.46875,1.23437 -1.89062,1.6875 -0.42188,0.4375 -0.6875,0.875 z"
     fill-rule="nonzero"
     id="path248" />
  <path
     fill="#d9d2e9"
     d="m 236.24933,17.745404 h 286.36224 v 45.00787 H 236.24933 Z"
     fill-rule="evenodd"
     id="path250" />
  <path
     stroke="#000000"
     stroke-width="1"
     stroke-linejoin="round"
     stroke-linecap="butt"
     d="m 236.24933,17.745404 h 286.36224 v 45.00787 H 236.24933 Z"
     fill-rule="evenodd"
     id="path252" />
  <path
     fill="#000000"
     d="m 328.85691,40.575594 q 0,-2.35937 0.48437,-3.79687 0.48438,-1.45313 1.4375,-2.23438 0.96875,-0.78125 2.42188,-0.78125 1.07812,0 1.89062,0.4375 0.8125,0.42188 1.32813,1.25 0.53125,0.8125 0.82812,1.98438 0.3125,1.15625 0.3125,3.14062 0,2.35938 -0.48437,3.8125 -0.48438,1.4375 -1.45313,2.23438 -0.95312,0.78125 -2.42187,0.78125 -1.92188,0 -3.03125,-1.39063 -1.3125,-1.67187 -1.3125,-5.4375 z m 1.67187,0 q 0,3.29688 0.76563,4.39063 0.78125,1.07812 1.90625,1.07812 1.14062,0 1.90625,-1.09375 0.76562,-1.09375 0.76562,-4.375 0,-3.29687 -0.76562,-4.375 -0.76563,-1.07812 -1.92188,-1.07812 -1.125,0 -1.79687,0.95312 -0.85938,1.21875 -0.85938,4.5 z m 8.06324,6.59375 3.53125,-5.03125 -3.26563,-4.64062 h 2.04688 l 1.48437,2.26562 q 0.42188,0.64063 0.67188,1.07813 0.40625,-0.59375 0.73437,-1.0625 l 1.64063,-2.28125 h 1.95312 l -3.34375,4.54687 3.59375,5.125 h -2.01562 l -1.98438,-3 -0.51562,-0.8125 -2.54688,3.8125 z m 16.14062,0 h -1.64062 v -10.45312 q -0.59375,0.5625 -1.5625,1.14062 -0.95313,0.5625 -1.71875,0.84375 v -1.59375 q 1.375,-0.64062 2.40625,-1.5625 1.03125,-0.92187 1.45312,-1.78125 h 1.0625 z m 12.8132,-1.57812 v 1.57812 h -8.82812 q -0.0156,-0.59375 0.1875,-1.14062 0.34375,-0.90625 1.07812,-1.78125 0.75,-0.875 2.15625,-2.01563 2.17188,-1.78125 2.9375,-2.82812 0.76563,-1.04688 0.76563,-1.96875 0,-0.98438 -0.70313,-1.64063 -0.6875,-0.67187 -1.8125,-0.67187 -1.1875,0 -1.90625,0.71875 -0.70312,0.70312 -0.70312,1.95312 l -1.6875,-0.17187 q 0.17187,-1.89063 1.29687,-2.875 1.14063,-0.98438 3.03125,-0.98438 1.92188,0 3.04688,1.0625 1.125,1.0625 1.125,2.64063 0,0.79687 -0.32813,1.57812 -0.32812,0.78125 -1.09375,1.64063 -0.75,0.84375 -2.53125,2.34375 -1.46875,1.23437 -1.89062,1.6875 -0.42188,0.4375 -0.6875,0.875 z m 1.76633,-1.95313 1.64063,-0.21875 q 0.28125,1.40625 0.95312,2.01563 0.6875,0.60937 1.65625,0.60937 1.15625,0 1.95313,-0.79687 0.79687,-0.79688 0.79687,-1.98438 0,-1.125 -0.73437,-1.85937 -0.73438,-0.73438 -1.875,-0.73438 -0.46875,0 -1.15625,0.17188 l 0.1875,-1.4375 q 0.15625,0.0156 0.26562,0.0156 1.04688,0 1.875,-0.54687 0.84375,-0.54688 0.84375,-1.67188 0,-0.90625 -0.60937,-1.5 -0.60938,-0.59375 -1.57813,-0.59375 -0.95312,0 -1.59375,0.60938 -0.64062,0.59375 -0.8125,1.79687 l -1.64062,-0.29687 q 0.29687,-1.64063 1.35937,-2.54688 1.0625,-0.90625 2.65625,-0.90625 1.09375,0 2,0.46875 0.92188,0.46875 1.40625,1.28125 0.5,0.8125 0.5,1.71875 0,0.85938 -0.46875,1.57813 -0.46875,0.70312 -1.375,1.125 1.1875,0.28125 1.84375,1.14062 0.65625,0.85938 0.65625,2.15625 0,1.73438 -1.28125,2.95313 -1.26562,1.21875 -3.21875,1.21875 -1.76562,0 -2.92187,-1.04688 -1.15625,-1.04687 -1.32813,-2.71875 z m 15.62573,3.53125 v -3.20312 h -5.79687 v -1.5 l 6.09375,-8.65625 h 1.34375 v 8.65625 h 1.79687 v 1.5 h -1.79687 v 3.20312 z m 0,-4.70312 v -6.01563 l -4.1875,6.01563 z m 5.1257,1.20312 1.71875,-0.14062 q 0.1875,1.25 0.875,1.89062 0.70313,0.625 1.6875,0.625 1.1875,0 2,-0.89062 0.82813,-0.89063 0.82813,-2.35938 0,-1.40625 -0.79688,-2.21875 -0.78125,-0.8125 -2.0625,-0.8125 -0.78125,0 -1.42187,0.35938 -0.64063,0.35937 -1,0.9375 l -1.54688,-0.20313 1.29688,-6.85937 h 6.64062 v 1.5625 h -5.32812 l -0.71875,3.59375 q 1.20312,-0.84375 2.51562,-0.84375 1.75,0 2.95313,1.21875 1.20312,1.20312 1.20312,3.10937 0,1.8125 -1.04687,3.14063 -1.29688,1.625 -3.51563,1.625 -1.8125,0 -2.96875,-1.01563 -1.15625,-1.03125 -1.3125,-2.71875 z m 18.87574,-6.57812 -1.625,0.125 q -0.21875,-0.96875 -0.625,-1.40625 -0.65625,-0.70313 -1.64063,-0.70313 -0.78125,0 -1.375,0.4375 -0.76562,0.5625 -1.21875,1.65625 -0.45312,1.07813 -0.46875,3.07813 0.59375,-0.89063 1.45313,-1.32813 0.85937,-0.4375 1.79687,-0.4375 1.64063,0 2.78125,1.20313 1.15625,1.20312 1.15625,3.10937 0,1.26563 -0.54687,2.34375 -0.53125,1.07813 -1.48438,1.65625 -0.9375,0.57813 -2.14062,0.57813 -2.0625,0 -3.35938,-1.5 -1.28125,-1.51563 -1.28125,-4.98438 0,-3.875 1.42188,-5.625 1.25,-1.53125 3.375,-1.53125 1.5625,0 2.5625,0.89063 1.01562,0.875 1.21875,2.4375 z m -6.6875,5.75 q 0,0.84375 0.35937,1.625 0.35938,0.76562 1,1.17187 0.64063,0.40625 1.35938,0.40625 1.03125,0 1.78125,-0.82812 0.75,-0.84375 0.75,-2.28125 0,-1.39063 -0.73438,-2.1875 -0.73437,-0.79688 -1.85937,-0.79688 -1.10938,0 -1.89063,0.79688 -0.76562,0.79687 -0.76562,2.09375 z m 8.67257,-7.28125 v -1.57813 h 8.64063 v 1.28125 q -1.28125,1.35938 -2.53125,3.60938 -1.25,2.25 -1.9375,4.625 -0.48438,1.67187 -0.625,3.67187 h -1.6875 q 0.0312,-1.57812 0.625,-3.8125 0.59375,-2.23437 1.6875,-4.29687 1.10937,-2.07813 2.35937,-3.5 z m 12.78199,4.375 q -1.01563,-0.375 -1.51563,-1.0625 -0.48437,-0.70313 -0.48437,-1.67188 0,-1.45312 1.04687,-2.4375 1.04688,-1 2.78128,-1 1.75,0 2.8125,1.01563 1.07813,1.01562 1.07813,2.46875 0,0.9375 -0.5,1.625 -0.48438,0.6875 -1.46875,1.0625 1.21875,0.39062 1.85937,1.28125 0.65625,0.89062 0.65625,2.14062 0,1.70313 -1.21875,2.875 -1.21875,1.17188 -3.1875,1.17188 -1.9844,0 -3.20315,-1.17188 -1.20313,-1.17187 -1.20313,-2.92187 0,-1.3125 0.65625,-2.1875 0.67188,-0.875 1.89063,-1.1875 z m -0.32813,-2.78125 q 0,0.9375 0.60938,1.54687 0.6094,0.59375 1.59378,0.59375 0.9375,0 1.54687,-0.59375 0.60938,-0.59375 0.60938,-1.45312 0,-0.90625 -0.625,-1.51563 -0.625,-0.625 -1.5625,-0.625 -0.9375,0 -1.56253,0.60938 -0.60938,0.59375 -0.60938,1.4375 z m -0.53125,6.15625 q 0,0.70312 0.32813,1.35937 0.34375,0.65625 1.00003,1.01563 0.65625,0.35937 1.40625,0.35937 1.17187,0 1.9375,-0.75 0.76562,-0.75 0.76562,-1.92187 0,-1.1875 -0.79687,-1.95313 -0.78125,-0.78125 -1.95313,-0.78125 -1.15625,0 -1.9219,0.76563 -0.76563,0.76562 -0.76563,1.90625 z"
     fill-rule="nonzero"
     id="path254" />
  <path
     fill="#000000"
     fill-opacity="0"
     d="m 1.042,17.385834 h 235.21259 v 42.01575 H 1.042 Z"
     fill-rule="evenodd"
     id="path256" />
  <path
     fill="#000000"
     d="m 99.289944,39.462084 q 0,-2.6875 1.484366,-3.96875 1.25,-1.07813 3.04688,-1.07813 2,0 3.26562,1.3125 1.26563,1.29688 1.26563,3.60938 0,1.85937 -0.5625,2.9375 -0.5625,1.0625 -1.64063,1.65625 -1.0625,0.59375 -2.32812,0.59375 -2.03125,0 -3.28125,-1.29688 -1.249996,-1.3125 -1.249996,-3.76562 z m 1.687496,0 q 0,1.85937 0.79687,2.79687 0.8125,0.92188 2.04688,0.92188 1.21875,0 2.03125,-0.92188 0.8125,-0.9375 0.8125,-2.84375 0,-1.79687 -0.8125,-2.71875 -0.8125,-0.92187 -2.03125,-0.92187 -1.23438,0 -2.04688,0.92187 -0.79687,0.90625 -0.79687,2.76563 z m 9.28197,4.84375 v -9.67188 h 1.46875 v 1.46875 q 0.5625,-1.03125 1.03125,-1.35937 0.48437,-0.32813 1.0625,-0.32813 0.82812,0 1.6875,0.53125 l -0.5625,1.51563 q -0.60938,-0.35938 -1.20313,-0.35938 -0.54687,0 -0.96875,0.32813 -0.42187,0.32812 -0.60937,0.89062 -0.28125,0.875 -0.28125,1.92188 v 5.0625 z m 6.2283,-11.46875 v -1.89063 h 1.64062 v 1.89063 z m 0,11.46875 v -9.67188 h 1.64062 v 9.67188 z m 3.83232,0.79687 1.59375,0.23438 q 0.10938,0.75 0.5625,1.07812 0.60938,0.45313 1.67188,0.45313 1.14062,0 1.75,-0.45313 0.625,-0.45312 0.84375,-1.26562 0.125,-0.5 0.10937,-2.10938 -1.0625,1.26563 -2.67187,1.26563 -2,0 -3.09375,-1.4375 -1.09375,-1.4375 -1.09375,-3.45313 0,-1.39062 0.5,-2.5625 0.51562,-1.17187 1.45312,-1.79687 0.95313,-0.64063 2.25,-0.64063 1.70313,0 2.8125,1.375 v -1.15625 h 1.51563 v 8.35938 q 0,2.26562 -0.46875,3.20312 -0.45313,0.9375 -1.45313,1.48438 -0.98437,0.54687 -2.45312,0.54687 -1.71875,0 -2.79688,-0.78125 -1.0625,-0.76562 -1.03125,-2.34375 z m 1.35938,-5.8125 q 0,1.90625 0.75,2.78125 0.76562,0.875 1.90625,0.875 1.125,0 1.89062,-0.85937 0.76563,-0.875 0.76563,-2.73438 0,-1.78125 -0.79688,-2.67187 -0.78125,-0.90625 -1.89062,-0.90625 -1.09375,0 -1.85938,0.89062 -0.76562,0.875 -0.76562,2.625 z m 9.32884,-6.45312 v -1.89063 h 1.64062 v 1.89063 z m 0,11.46875 v -9.67188 h 1.64062 v 9.67188 z m 4.14482,0 v -9.67188 h 1.46875 v 1.375 q 1.0625,-1.59375 3.07812,-1.59375 0.875,0 1.60938,0.3125 0.73437,0.3125 1.09375,0.82813 0.375,0.5 0.51562,1.20312 0.0937,0.45313 0.0937,1.59375 v 5.95313 h -1.64062 v -5.89063 q 0,-1 -0.20313,-1.48437 -0.1875,-0.5 -0.67187,-0.79688 -0.48438,-0.29687 -1.14063,-0.29687 -1.04687,0 -1.8125,0.67187 -0.75,0.65625 -0.75,2.51563 v 5.28125 z m 16.68822,-1.1875 q -0.92188,0.76562 -1.76563,1.09375 -0.82812,0.3125 -1.79687,0.3125 -1.59375,0 -2.45313,-0.78125 -0.85937,-0.78125 -0.85937,-1.98438 0,-0.71875 0.32812,-1.29687 0.32813,-0.59375 0.84375,-0.9375 0.53125,-0.35938 1.1875,-0.54688 0.46875,-0.125 1.45313,-0.25 1.98437,-0.23437 2.92187,-0.5625 0.0156,-0.34375 0.0156,-0.42187 0,-1 -0.46875,-1.42188 -0.625,-0.54687 -1.875,-0.54687 -1.15625,0 -1.70313,0.40625 -0.54687,0.40625 -0.8125,1.42187 l -1.60937,-0.21875 q 0.21875,-1.01562 0.71875,-1.64062 0.5,-0.64063 1.45312,-0.98438 0.95313,-0.34375 2.1875,-0.34375 1.25,0 2.01563,0.29688 0.78125,0.28125 1.14062,0.73437 0.375,0.4375 0.51563,1.10938 0.0781,0.42187 0.0781,1.51562 v 2.1875 q 0,2.28125 0.10938,2.89063 0.10937,0.59375 0.40625,1.15625 h -1.70313 q -0.26562,-0.51563 -0.32812,-1.1875 z m -0.14063,-3.67188 q -0.89062,0.375 -2.67187,0.625 -1.01563,0.14063 -1.4375,0.32813 -0.42188,0.1875 -0.65625,0.53125 -0.21875,0.34375 -0.21875,0.78125 0,0.65625 0.5,1.09375 0.5,0.4375 1.45312,0.4375 0.9375,0 1.67188,-0.40625 0.75,-0.42188 1.09375,-1.14063 0.26562,-0.5625 0.26562,-1.64062 z m 4.15697,4.85938 v -13.35938 h 1.64062 v 13.35938 z m 9.375,0 v -9.67188 h 1.46875 v 1.375 q 1.0625,-1.59375 3.07811,-1.59375 0.875,0 1.60937,0.3125 0.73438,0.3125 1.09375,0.82813 0.375,0.5 0.51563,1.20312 0.0937,0.45313 0.0937,1.59375 v 5.95313 h -1.64063 v -5.89063 q 0,-1 -0.20312,-1.48437 -0.1875,-0.5 -0.67188,-0.79688 -0.48437,-0.29687 -1.14062,-0.29687 -1.04688,0 -1.81249,0.67187 -0.75,0.65625 -0.75,2.51563 v 5.28125 z m 16.70384,0 v -1.42188 q -1.125,1.64063 -3.0625,1.64063 -0.85938,0 -1.60938,-0.32813 -0.73437,-0.32812 -1.09375,-0.82812 -0.35937,-0.5 -0.5,-1.21875 -0.10937,-0.46875 -0.10937,-1.53125 v -5.98438 h 1.64062 v 5.35938 q 0,1.28125 0.10938,1.73437 0.15625,0.64063 0.65625,1.01563 0.5,0.375 1.23437,0.375 0.73438,0 1.375,-0.375 0.65625,-0.39063 0.92188,-1.03125 0.26562,-0.65625 0.26562,-1.89063 v -5.1875 h 1.64063 v 9.67188 z m 4.04758,0 v -9.67188 h 1.46875 v 1.35938 q 0.45312,-0.71875 1.20312,-1.14063 0.76563,-0.4375 1.71875,-0.4375 1.07813,0 1.76563,0.45313 0.6875,0.4375 0.96875,1.23437 1.15625,-1.6875 2.98437,-1.6875 1.45313,0 2.21875,0.79688 0.78125,0.79687 0.78125,2.45312 v 6.64063 h -1.64062 v -6.09375 q 0,-0.98438 -0.15625,-1.40625 -0.15625,-0.4375 -0.57813,-0.70313 -0.42187,-0.26562 -0.98437,-0.26562 -1.01563,0 -1.6875,0.6875 -0.67188,0.67187 -0.67188,2.15625 v 5.625 h -1.64062 v -6.28125 q 0,-1.09375 -0.40625,-1.64063 -0.40625,-0.54687 -1.3125,-0.54687 -0.6875,0 -1.28125,0.35937 -0.59375,0.35938 -0.85938,1.0625 -0.25,0.70313 -0.25,2.03125 v 5.01563 z m 17.0408,0 h -1.51563 v -13.35938 h 1.64063 v 4.76563 q 1.04687,-1.29688 2.65625,-1.29688 0.89062,0 1.6875,0.35938 0.79687,0.35937 1.3125,1.01562 0.51562,0.64063 0.79687,1.5625 0.29688,0.92188 0.29688,1.96875 0,2.48438 -1.23438,3.84375 -1.21875,1.35938 -2.95312,1.35938 -1.70313,0 -2.6875,-1.4375 z m -0.0156,-4.90625 q 0,1.73437 0.48438,2.51562 0.76562,1.26563 2.09375,1.26563 1.07812,0 1.85937,-0.9375 0.78125,-0.9375 0.78125,-2.78125 0,-1.89063 -0.75,-2.79688 -0.75,-0.90625 -1.82812,-0.90625 -1.0625,0 -1.85938,0.9375 -0.78125,0.9375 -0.78125,2.70313 z m 15.51636,1.79687 1.6875,0.20313 q -0.40625,1.48437 -1.48437,2.3125 -1.07813,0.8125 -2.76563,0.8125 -2.125,0 -3.375,-1.29688 -1.23437,-1.3125 -1.23437,-3.67187 0,-2.45313 1.25,-3.79688 1.26562,-1.34375 3.26562,-1.34375 1.9375,0 3.15625,1.32813 1.23438,1.3125 1.23438,3.70312 0,0.15625 0,0.4375 h -7.21875 q 0.0937,1.59375 0.90625,2.45313 0.8125,0.84375 2.01562,0.84375 0.90625,0 1.54688,-0.46875 0.64062,-0.48438 1.01562,-1.51563 z m -5.39062,-2.65625 h 5.40625 q -0.10938,-1.21875 -0.625,-1.82812 -0.78125,-0.95313 -2.03125,-0.95313 -1.125,0 -1.90625,0.76563 -0.76563,0.75 -0.84375,2.01562 z m 9.1257,5.76563 v -9.67188 h 1.46875 v 1.46875 q 0.5625,-1.03125 1.03125,-1.35937 0.48437,-0.32813 1.0625,-0.32813 0.82812,0 1.6875,0.53125 l -0.5625,1.51563 q -0.60938,-0.35938 -1.20313,-0.35938 -0.54687,0 -0.96875,0.32813 -0.42187,0.32812 -0.60937,0.89062 -0.28125,0.875 -0.28125,1.92188 v 5.0625 z"
     fill-rule="nonzero"
     id="path258" />
  <path
     fill="#000000"
     fill-opacity="0"
     d="M 1.036754,90.464574 H 236.24934 V 132.48032 H 1.036754 Z"
     fill-rule="evenodd"
     id="path260" />
  <path
     fill="#000000"
     d="m 138.37004,117.38456 v -13.35938 h 5.01562 q 1.53125,0 2.45313,0.40625 0.92187,0.40625 1.4375,1.25 0.53125,0.84375 0.53125,1.76563 0,0.85937 -0.46875,1.625 -0.45313,0.75 -1.39063,1.20312 1.20313,0.35938 1.85938,1.21875 0.65625,0.85938 0.65625,2.01563 0,0.9375 -0.40625,1.75 -0.39063,0.79687 -0.98438,1.23437 -0.57812,0.4375 -1.45312,0.67188 -0.875,0.21875 -2.15625,0.21875 z m 1.78125,-7.75 h 2.875 q 1.1875,0 1.6875,-0.14063 0.67187,-0.20312 1.01562,-0.67187 0.34375,-0.46875 0.34375,-1.17188 0,-0.65625 -0.32812,-1.15625 -0.3125,-0.51562 -0.90625,-0.70312 -0.59375,-0.1875 -2.03125,-0.1875 h -2.65625 z m 0,6.17187 h 3.3125 q 0.85937,0 1.20312,-0.0625 0.60938,-0.10937 1.01563,-0.35937 0.42187,-0.26563 0.6875,-0.75 0.26562,-0.48438 0.26562,-1.125 0,-0.75 -0.39062,-1.29688 -0.375,-0.54687 -1.0625,-0.76562 -0.67188,-0.23438 -1.95313,-0.23438 h -3.07812 z m 10.53732,-9.89062 v -1.89063 h 1.64063 v 1.89063 z m 0,11.46875 v -9.67188 h 1.64063 v 9.67188 z m 3.83232,0.79687 1.59375,0.23438 q 0.10938,0.75 0.5625,1.07812 0.60938,0.45313 1.67188,0.45313 1.14062,0 1.75,-0.45313 0.625,-0.45312 0.84375,-1.26562 0.125,-0.5 0.10937,-2.10938 -1.0625,1.26563 -2.67187,1.26563 -2,0 -3.09375,-1.4375 -1.09375,-1.4375 -1.09375,-3.45313 0,-1.39062 0.5,-2.5625 0.51562,-1.17187 1.45312,-1.79687 0.95313,-0.64063 2.25,-0.64063 1.70313,0 2.8125,1.375 v -1.15625 h 1.51563 v 8.35938 q 0,2.26562 -0.46875,3.20312 -0.45313,0.9375 -1.45313,1.48438 -0.98437,0.54687 -2.45312,0.54687 -1.71875,0 -2.79688,-0.78125 -1.0625,-0.76562 -1.03125,-2.34375 z m 1.35938,-5.8125 q 0,1.90625 0.75,2.78125 0.76562,0.875 1.90625,0.875 1.125,0 1.89062,-0.85937 0.76563,-0.875 0.76563,-2.73438 0,-1.78125 -0.79688,-2.67187 -0.78125,-0.90625 -1.89062,-0.90625 -1.09375,0 -1.85938,0.89062 -0.76562,0.875 -0.76562,2.625 z m 14.74652,5.01563 v -13.35938 h 9.65625 v 1.57813 h -7.875 v 4.09375 h 7.375 v 1.5625 h -7.375 v 4.54687 h 8.1875 v 1.57813 z m 12.2092,0 v -9.67188 h 1.46875 v 1.375 q 1.0625,-1.59375 3.07812,-1.59375 0.875,0 1.60938,0.3125 0.73437,0.3125 1.09375,0.82813 0.375,0.5 0.51562,1.20312 0.0937,0.45313 0.0937,1.59375 v 5.95313 h -1.64062 v -5.89063 q 0,-1 -0.20313,-1.48437 -0.1875,-0.5 -0.67187,-0.79688 -0.48438,-0.29687 -1.14063,-0.29687 -1.04687,0 -1.8125,0.67187 -0.75,0.65625 -0.75,2.51563 v 5.28125 z m 16.64133,0 v -1.21875 q -0.90625,1.4375 -2.70313,1.4375 -1.15625,0 -2.125,-0.64063 -0.96875,-0.64062 -1.5,-1.78125 -0.53125,-1.14062 -0.53125,-2.625 0,-1.45312 0.48438,-2.625 0.48437,-1.1875 1.4375,-1.8125 0.96875,-0.625 2.17187,-0.625 0.875,0 1.54688,0.375 0.6875,0.35938 1.10937,0.95313 v -4.79688 h 1.64063 v 13.35938 z m -5.17188,-4.82813 q 0,1.85938 0.78125,2.78125 0.78125,0.92188 1.84375,0.92188 1.07813,0 1.82813,-0.875 0.75,-0.89063 0.75,-2.6875 0,-1.98438 -0.76563,-2.90625 -0.76562,-0.9375 -1.89062,-0.9375 -1.07813,0 -1.8125,0.89062 -0.73438,0.89063 -0.73438,2.8125 z m 9.28198,-6.64062 v -1.89063 h 1.64063 v 1.89063 z m 0,11.46875 v -9.67188 h 1.64063 v 9.67188 z m 10.45731,-1.1875 q -0.92188,0.76562 -1.76563,1.09375 -0.82812,0.3125 -1.79687,0.3125 -1.59375,0 -2.45313,-0.78125 -0.85937,-0.78125 -0.85937,-1.98438 0,-0.71875 0.32812,-1.29687 0.32813,-0.59375 0.84375,-0.9375 0.53125,-0.35938 1.1875,-0.54688 0.46875,-0.125 1.45313,-0.25 1.98437,-0.23437 2.92187,-0.5625 0.0156,-0.34375 0.0156,-0.42187 0,-1 -0.46875,-1.42188 -0.625,-0.54687 -1.875,-0.54687 -1.15625,0 -1.70313,0.40625 -0.54687,0.40625 -0.8125,1.42187 l -1.60937,-0.21875 q 0.21875,-1.01562 0.71875,-1.64062 0.5,-0.64063 1.45312,-0.98438 0.95313,-0.34375 2.1875,-0.34375 1.25,0 2.01563,0.29688 0.78125,0.28125 1.14062,0.73437 0.375,0.4375 0.51563,1.10938 0.0781,0.42187 0.0781,1.51562 v 2.1875 q 0,2.28125 0.10938,2.89063 0.10937,0.59375 0.40625,1.15625 h -1.70313 q -0.26562,-0.51563 -0.32812,-1.1875 z m -0.14063,-3.67188 q -0.89062,0.375 -2.67187,0.625 -1.01563,0.14063 -1.4375,0.32813 -0.42188,0.1875 -0.65625,0.53125 -0.21875,0.34375 -0.21875,0.78125 0,0.65625 0.5,1.09375 0.5,0.4375 1.45312,0.4375 0.9375,0 1.67188,-0.40625 0.75,-0.42188 1.09375,-1.14063 0.26562,-0.5625 0.26562,-1.64062 z m 4.20386,4.85938 v -9.67188 h 1.46875 v 1.375 q 1.0625,-1.59375 3.07813,-1.59375 0.875,0 1.60937,0.3125 0.73438,0.3125 1.09375,0.82813 0.375,0.5 0.51563,1.20312 0.0937,0.45313 0.0937,1.59375 v 5.95313 h -1.64063 v -5.89063 q 0,-1 -0.20312,-1.48437 -0.1875,-0.5 -0.67188,-0.79688 -0.48437,-0.29687 -1.14062,-0.29687 -1.04688,0 -1.8125,0.67187 -0.75,0.65625 -0.75,2.51563 v 5.28125 z"
     fill-rule="nonzero"
     id="path262" />
  <path
     fill="#000000"
     fill-opacity="0"
     d="M 1.036754,160.1916 H 236.24934 v 42.01576 H 1.036754 Z"
     fill-rule="evenodd"
     id="path264" />
  <path
     fill="#000000"
     d="m 125.92647,187.1116 v -13.35938 h 1.78125 v 11.78125 h 6.5625 v 1.57813 z m 10.25072,-11.46875 v -1.89063 h 1.64062 v 1.89063 z m 0,11.46875 v -9.67188 h 1.64062 v 9.67188 z m 7.72294,-1.46875 0.23438,1.45312 q -0.6875,0.14063 -1.23438,0.14063 -0.89062,0 -1.39062,-0.28125 -0.48438,-0.28125 -0.6875,-0.73438 -0.20313,-0.46875 -0.20313,-1.9375 v -5.57812 h -1.20312 v -1.26563 h 1.20312 v -2.39062 l 1.625,-0.98438 v 3.375 h 1.65625 v 1.26563 h -1.65625 v 5.67187 q 0,0.6875 0.0781,0.89063 0.0937,0.20312 0.28125,0.32812 0.20312,0.10938 0.57812,0.10938 0.26563,0 0.71875,-0.0625 z m 5.18331,0 0.23437,1.45312 q -0.6875,0.14063 -1.23437,0.14063 -0.89063,0 -1.39063,-0.28125 -0.48437,-0.28125 -0.6875,-0.73438 -0.20312,-0.46875 -0.20312,-1.9375 v -5.57812 h -1.20313 v -1.26563 h 1.20313 v -2.39062 l 1.625,-0.98438 v 3.375 h 1.65625 v 1.26563 h -1.65625 v 5.67187 q 0,0.6875 0.0781,0.89063 0.0937,0.20312 0.28125,0.32812 0.20313,0.10938 0.57813,0.10938 0.26562,0 0.71875,-0.0625 z m 1.5583,1.46875 v -13.35938 h 1.64063 v 13.35938 z m 10.8167,-3.10938 1.6875,0.20313 q -0.40625,1.48437 -1.48438,2.3125 -1.07812,0.8125 -2.76562,0.8125 -2.125,0 -3.375,-1.29688 -1.23438,-1.3125 -1.23438,-3.67187 0,-2.45313 1.25,-3.79688 1.26563,-1.34375 3.26563,-1.34375 1.9375,0 3.15625,1.32813 1.23437,1.3125 1.23437,3.70312 0,0.15625 0,0.4375 h -7.21875 q 0.0937,1.59375 0.90625,2.45313 0.8125,0.84375 2.01563,0.84375 0.90625,0 1.54687,-0.46875 0.64063,-0.48438 1.01563,-1.51563 z m -5.39063,-2.65625 h 5.40625 q -0.10937,-1.21875 -0.625,-1.82812 -0.78125,-0.95313 -2.03125,-0.95313 -1.125,0 -1.90625,0.76563 -0.76562,0.75 -0.84375,2.01562 z m 14.55902,5.76563 v -13.35938 h 9.65625 v 1.57813 h -7.875 v 4.09375 h 7.375 v 1.5625 h -7.375 v 4.54687 h 8.1875 v 1.57813 z m 12.2092,0 v -9.67188 h 1.46875 v 1.375 q 1.0625,-1.59375 3.07813,-1.59375 0.875,0 1.60937,0.3125 0.73438,0.3125 1.09375,0.82813 0.375,0.5 0.51563,1.20312 0.0937,0.45313 0.0937,1.59375 v 5.95313 h -1.64063 v -5.89063 q 0,-1 -0.20312,-1.48437 -0.1875,-0.5 -0.67188,-0.79688 -0.48437,-0.29687 -1.14062,-0.29687 -1.04688,0 -1.8125,0.67187 -0.75,0.65625 -0.75,2.51563 v 5.28125 z m 16.64133,0 v -1.21875 q -0.90625,1.4375 -2.70313,1.4375 -1.15625,0 -2.125,-0.64063 -0.96875,-0.64062 -1.5,-1.78125 -0.53125,-1.14062 -0.53125,-2.625 0,-1.45312 0.48438,-2.625 0.48437,-1.1875 1.4375,-1.8125 0.96875,-0.625 2.17187,-0.625 0.875,0 1.54688,0.375 0.6875,0.35938 1.10937,0.95313 v -4.79688 h 1.64063 v 13.35938 z m -5.17188,-4.82813 q 0,1.85938 0.78125,2.78125 0.78125,0.92188 1.84375,0.92188 1.07813,0 1.82813,-0.875 0.75,-0.89063 0.75,-2.6875 0,-1.98438 -0.76563,-2.90625 -0.76562,-0.9375 -1.89062,-0.9375 -1.07813,0 -1.8125,0.89062 -0.73438,0.89063 -0.73438,2.8125 z m 9.28198,-6.64062 v -1.89063 h 1.64063 v 1.89063 z m 0,11.46875 v -9.67188 h 1.64063 v 9.67188 z m 10.45731,-1.1875 q -0.92187,0.76562 -1.76562,1.09375 -0.82813,0.3125 -1.79688,0.3125 -1.59375,0 -2.45312,-0.78125 -0.85938,-0.78125 -0.85938,-1.98438 0,-0.71875 0.32813,-1.29687 0.32812,-0.59375 0.84375,-0.9375 0.53125,-0.35938 1.1875,-0.54688 0.46875,-0.125 1.45312,-0.25 1.98438,-0.23437 2.92188,-0.5625 0.0156,-0.34375 0.0156,-0.42187 0,-1 -0.46875,-1.42188 -0.625,-0.54687 -1.875,-0.54687 -1.15625,0 -1.70312,0.40625 -0.54688,0.40625 -0.8125,1.42187 l -1.60938,-0.21875 q 0.21875,-1.01562 0.71875,-1.64062 0.5,-0.64063 1.45313,-0.98438 0.95312,-0.34375 2.1875,-0.34375 1.25,0 2.01562,0.29688 0.78125,0.28125 1.14063,0.73437 0.375,0.4375 0.51562,1.10938 0.0781,0.42187 0.0781,1.51562 v 2.1875 q 0,2.28125 0.10937,2.89063 0.10938,0.59375 0.40625,1.15625 h -1.70312 q -0.26563,-0.51563 -0.32813,-1.1875 z m -0.14062,-3.67188 q -0.89063,0.375 -2.67188,0.625 -1.01562,0.14063 -1.4375,0.32813 -0.42187,0.1875 -0.65625,0.53125 -0.21875,0.34375 -0.21875,0.78125 0,0.65625 0.5,1.09375 0.5,0.4375 1.45313,0.4375 0.9375,0 1.67187,-0.40625 0.75,-0.42188 1.09375,-1.14063 0.26563,-0.5625 0.26563,-1.64062 z m 4.20385,4.85938 v -9.67188 h 1.46875 v 1.375 q 1.0625,-1.59375 3.07813,-1.59375 0.875,0 1.60937,0.3125 0.73438,0.3125 1.09375,0.82813 0.375,0.5 0.51563,1.20312 0.0937,0.45313 0.0937,1.59375 v 5.95313 h -1.64063 v -5.89063 q 0,-1 -0.20312,-1.48437 -0.1875,-0.5 -0.67188,-0.79688 -0.48437,-0.29687 -1.14062,-0.29687 -1.04688,0 -1.8125,0.67187 -0.75,0.65625 -0.75,2.51563 v 5.28125 z"
     fill-rule="nonzero"
     id="path266" />
  <path
     fill="#000000"
     fill-opacity="0"
     d="m 199.41996,267.58529 h 71.59055 v 42.01575 h -71.59055 z"
     fill-rule="evenodd"
     id="path268" />
  <path
     fill="#000000"
     d="m 209.20121,287.91156 q 0,-2.35938 0.48437,-3.79688 0.48438,-1.45312 1.4375,-2.23437 0.96875,-0.78125 2.42188,-0.78125 1.07812,0 1.89062,0.4375 0.8125,0.42187 1.32813,1.25 0.53125,0.8125 0.82812,1.98437 0.3125,1.15625 0.3125,3.14063 0,2.35937 -0.48437,3.8125 -0.48438,1.4375 -1.45313,2.23437 -0.95312,0.78125 -2.42187,0.78125 -1.92188,0 -3.03125,-1.39062 -1.3125,-1.67188 -1.3125,-5.4375 z m 1.67187,0 q 0,3.29687 0.76563,4.39062 0.78125,1.07813 1.90625,1.07813 1.14062,0 1.90625,-1.09375 0.76562,-1.09375 0.76562,-4.375 0,-3.29688 -0.76562,-4.375 -0.76563,-1.07813 -1.92188,-1.07813 -1.125,0 -1.79687,0.95313 -0.85938,1.21875 -0.85938,4.5 z m 8.06321,6.59375 3.53125,-5.03125 -3.26563,-4.64063 h 2.04688 l 1.48437,2.26563 q 0.42188,0.64062 0.67188,1.07812 0.40625,-0.59375 0.73437,-1.0625 l 1.64063,-2.28125 h 1.95312 l -3.34375,4.54688 3.59375,5.125 h -2.01562 l -1.98438,-3 -0.51562,-0.8125 -2.54688,3.8125 z m 16.14062,0 h -1.64062 v -10.45313 q -0.59375,0.5625 -1.5625,1.14063 -0.95313,0.5625 -1.71875,0.84375 v -1.59375 q 1.375,-0.64063 2.40625,-1.5625 1.03125,-0.92188 1.45312,-1.78125 h 1.0625 z m 4.20386,-6.59375 q 0,-2.35938 0.48437,-3.79688 0.48438,-1.45312 1.4375,-2.23437 0.96875,-0.78125 2.42188,-0.78125 1.07812,0 1.89062,0.4375 0.8125,0.42187 1.32813,1.25 0.53125,0.8125 0.82812,1.98437 0.3125,1.15625 0.3125,3.14063 0,2.35937 -0.48437,3.8125 -0.48438,1.4375 -1.45313,2.23437 -0.95312,0.78125 -2.42187,0.78125 -1.92188,0 -3.03125,-1.39062 -1.3125,-1.67188 -1.3125,-5.4375 z m 1.67187,0 q 0,3.29687 0.76563,4.39062 0.78125,1.07813 1.90625,1.07813 1.14062,0 1.90625,-1.09375 0.76562,-1.09375 0.76562,-4.375 0,-3.29688 -0.76562,-4.375 -0.76563,-1.07813 -1.92188,-1.07813 -1.125,0 -1.79687,0.95313 -0.85938,1.21875 -0.85938,4.5 z m 8.70383,0 q 0,-2.35938 0.48438,-3.79688 0.48437,-1.45312 1.4375,-2.23437 0.96875,-0.78125 2.42187,-0.78125 1.07813,0 1.89063,0.4375 0.8125,0.42187 1.32812,1.25 0.53125,0.8125 0.82813,1.98437 0.3125,1.15625 0.3125,3.14063 0,2.35937 -0.48438,3.8125 -0.48437,1.4375 -1.45312,2.23437 -0.95313,0.78125 -2.42188,0.78125 -1.92187,0 -3.03125,-1.39062 -1.3125,-1.67188 -1.3125,-5.4375 z m 1.67188,0 q 0,3.29687 0.76562,4.39062 0.78125,1.07813 1.90625,1.07813 1.14063,0 1.90625,-1.09375 0.76563,-1.09375 0.76563,-4.375 0,-3.29688 -0.76563,-4.375 -0.76562,-1.07813 -1.92187,-1.07813 -1.125,0 -1.79688,0.95313 -0.85937,1.21875 -0.85937,4.5 z"
     fill-rule="nonzero"
     id="path270" />
  <path
     fill="#000000"
     fill-opacity="0"
     d="m 271.66404,267.58529 h 71.59055 v 42.01575 h -71.59055 z"
     fill-rule="evenodd"
     id="path272" />
  <path
     fill="#000000"
     d="m 281.44529,287.91156 q 0,-2.35938 0.48437,-3.79688 0.48438,-1.45312 1.4375,-2.23437 0.96875,-0.78125 2.42188,-0.78125 1.07812,0 1.89062,0.4375 0.8125,0.42187 1.32813,1.25 0.53125,0.8125 0.82812,1.98437 0.3125,1.15625 0.3125,3.14063 0,2.35937 -0.48437,3.8125 -0.48438,1.4375 -1.45313,2.23437 -0.95312,0.78125 -2.42187,0.78125 -1.92188,0 -3.03125,-1.39062 -1.3125,-1.67188 -1.3125,-5.4375 z m 1.67187,0 q 0,3.29687 0.76563,4.39062 0.78125,1.07813 1.90625,1.07813 1.14062,0 1.90625,-1.09375 0.76562,-1.09375 0.76562,-4.375 0,-3.29688 -0.76562,-4.375 -0.76563,-1.07813 -1.92188,-1.07813 -1.125,0 -1.79687,0.95313 -0.85938,1.21875 -0.85938,4.5 z m 8.06324,6.59375 3.53125,-5.03125 -3.26563,-4.64063 h 2.04688 l 1.48437,2.26563 q 0.42188,0.64062 0.67188,1.07812 0.40625,-0.59375 0.73437,-1.0625 l 1.64063,-2.28125 h 1.95312 l -3.34375,4.54688 3.59375,5.125 h -2.01562 l -1.98438,-3 -0.51562,-0.8125 -2.54688,3.8125 z m 16.14062,0 h -1.64062 v -10.45313 q -0.59375,0.5625 -1.5625,1.14063 -0.95313,0.5625 -1.71875,0.84375 v -1.59375 q 1.375,-0.64063 2.40625,-1.5625 1.03125,-0.92188 1.45312,-1.78125 h 1.0625 z m 4.20383,-6.59375 q 0,-2.35938 0.48437,-3.79688 0.48438,-1.45312 1.4375,-2.23437 0.96875,-0.78125 2.42188,-0.78125 1.07812,0 1.89062,0.4375 0.8125,0.42187 1.32813,1.25 0.53125,0.8125 0.82812,1.98437 0.3125,1.15625 0.3125,3.14063 0,2.35937 -0.48437,3.8125 -0.48438,1.4375 -1.45313,2.23437 -0.95312,0.78125 -2.42187,0.78125 -1.92188,0 -3.03125,-1.39062 -1.3125,-1.67188 -1.3125,-5.4375 z m 1.67187,0 q 0,3.29687 0.76563,4.39062 0.78125,1.07813 1.90625,1.07813 1.14062,0 1.90625,-1.09375 0.76562,-1.09375 0.76562,-4.375 0,-3.29688 -0.76562,-4.375 -0.76563,-1.07813 -1.92188,-1.07813 -1.125,0 -1.79687,0.95313 -0.85938,1.21875 -0.85938,4.5 z m 14.87574,6.59375 h -1.64063 v -10.45313 q -0.59375,0.5625 -1.5625,1.14063 -0.95312,0.5625 -1.71875,0.84375 v -1.59375 q 1.375,-0.64063 2.40625,-1.5625 1.03125,-0.92188 1.45313,-1.78125 h 1.0625 z"
     fill-rule="nonzero"
     id="path274" />
  <path
     fill="#000000"
     fill-opacity="0"
     d="m 343.63517,267.58529 h 71.59055 v 42.01575 h -71.59055 z"
     fill-rule="evenodd"
     id="path276" />
  <path
     fill="#000000"
     d="m 353.41642,287.91156 q 0,-2.35938 0.48438,-3.79688 0.48437,-1.45312 1.4375,-2.23437 0.96875,-0.78125 2.42187,-0.78125 1.07813,0 1.89063,0.4375 0.8125,0.42187 1.32812,1.25 0.53125,0.8125 0.82813,1.98437 0.3125,1.15625 0.3125,3.14063 0,2.35937 -0.48438,3.8125 -0.48437,1.4375 -1.45312,2.23437 -0.95313,0.78125 -2.42188,0.78125 -1.92187,0 -3.03125,-1.39062 -1.3125,-1.67188 -1.3125,-5.4375 z m 1.67188,0 q 0,3.29687 0.76562,4.39062 0.78125,1.07813 1.90625,1.07813 1.14063,0 1.90625,-1.09375 0.76563,-1.09375 0.76563,-4.375 0,-3.29688 -0.76563,-4.375 -0.76562,-1.07813 -1.92187,-1.07813 -1.125,0 -1.79688,0.95313 -0.85937,1.21875 -0.85937,4.5 z m 8.06323,6.59375 3.53125,-5.03125 -3.26563,-4.64063 h 2.04688 l 1.48437,2.26563 q 0.42188,0.64062 0.67188,1.07812 0.40625,-0.59375 0.73437,-1.0625 l 1.64063,-2.28125 h 1.95312 l -3.34375,4.54688 3.59375,5.125 h -2.01562 l -1.98438,-3 -0.51562,-0.8125 -2.54688,3.8125 z m 16.14062,0 h -1.64062 v -10.45313 q -0.59375,0.5625 -1.5625,1.14063 -0.95313,0.5625 -1.71875,0.84375 v -1.59375 q 1.375,-0.64063 2.40625,-1.5625 1.03125,-0.92188 1.45312,-1.78125 h 1.0625 z m 4.20383,-6.59375 q 0,-2.35938 0.48437,-3.79688 0.48438,-1.45312 1.4375,-2.23437 0.96875,-0.78125 2.42188,-0.78125 1.07812,0 1.89062,0.4375 0.8125,0.42187 1.32813,1.25 0.53125,0.8125 0.82812,1.98437 0.3125,1.15625 0.3125,3.14063 0,2.35937 -0.48437,3.8125 -0.48438,1.4375 -1.45313,2.23437 -0.95312,0.78125 -2.42187,0.78125 -1.92188,0 -3.03125,-1.39062 -1.3125,-1.67188 -1.3125,-5.4375 z m 1.67187,0 q 0,3.29687 0.76563,4.39062 0.78125,1.07813 1.90625,1.07813 1.14062,0 1.90625,-1.09375 0.76562,-1.09375 0.76562,-4.375 0,-3.29688 -0.76562,-4.375 -0.76563,-1.07813 -1.92188,-1.07813 -1.125,0 -1.79687,0.95313 -0.85938,1.21875 -0.85938,4.5 z m 17.31324,5.01562 v 1.57813 h -8.82813 q -0.0156,-0.59375 0.1875,-1.14063 0.34375,-0.90625 1.07813,-1.78125 0.75,-0.875 2.15625,-2.01562 2.17187,-1.78125 2.9375,-2.82813 0.76562,-1.04687 0.76562,-1.96875 0,-0.98437 -0.70312,-1.64062 -0.6875,-0.67188 -1.8125,-0.67188 -1.1875,0 -1.90625,0.71875 -0.70313,0.70313 -0.70313,1.95313 l -1.6875,-0.17188 q 0.17188,-1.89062 1.29688,-2.875 1.14062,-0.98437 3.03125,-0.98437 1.92187,0 3.04687,1.0625 1.125,1.0625 1.125,2.64062 0,0.79688 -0.32812,1.57813 -0.32813,0.78125 -1.09375,1.64062 -0.75,0.84375 -2.53125,2.34375 -1.46875,1.23438 -1.89063,1.6875 -0.42187,0.4375 -0.6875,0.875 z"
     fill-rule="nonzero"
     id="path278" />
  <path
     fill="#000000"
     fill-opacity="0"
     d="m 415.22571,267.58529 h 71.59058 v 42.01575 h -71.59058 z"
     fill-rule="evenodd"
     id="path280" />
  <path
     fill="#000000"
     d="m 425.00699,287.91156 q 0,-2.35938 0.48437,-3.79688 0.48438,-1.45312 1.4375,-2.23437 0.96875,-0.78125 2.42188,-0.78125 1.07812,0 1.89062,0.4375 0.8125,0.42187 1.32813,1.25 0.53125,0.8125 0.82812,1.98437 0.3125,1.15625 0.3125,3.14063 0,2.35937 -0.48437,3.8125 -0.48438,1.4375 -1.45313,2.23437 -0.95312,0.78125 -2.42187,0.78125 -1.92188,0 -3.03125,-1.39062 -1.3125,-1.67188 -1.3125,-5.4375 z m 1.67187,0 q 0,3.29687 0.76563,4.39062 0.78125,1.07813 1.90625,1.07813 1.14062,0 1.90625,-1.09375 0.76562,-1.09375 0.76562,-4.375 0,-3.29688 -0.76562,-4.375 -0.76563,-1.07813 -1.92188,-1.07813 -1.125,0 -1.79687,0.95313 -0.85938,1.21875 -0.85938,4.5 z m 8.06324,6.59375 3.53125,-5.03125 -3.26563,-4.64063 h 2.04688 l 1.48437,2.26563 q 0.42188,0.64062 0.67188,1.07812 0.40625,-0.59375 0.73437,-1.0625 l 1.64063,-2.28125 h 1.95312 l -3.34375,4.54688 3.59375,5.125 h -2.01562 l -1.98438,-3 -0.51562,-0.8125 -2.54688,3.8125 z m 16.14062,0 h -1.64062 v -10.45313 q -0.59375,0.5625 -1.5625,1.14063 -0.95313,0.5625 -1.71875,0.84375 v -1.59375 q 1.375,-0.64063 2.40625,-1.5625 1.03125,-0.92188 1.45312,-1.78125 h 1.0625 z m 4.20386,-6.59375 q 0,-2.35938 0.48437,-3.79688 0.48438,-1.45312 1.4375,-2.23437 0.96875,-0.78125 2.42188,-0.78125 1.07812,0 1.89062,0.4375 0.8125,0.42187 1.32813,1.25 0.53125,0.8125 0.82812,1.98437 0.3125,1.15625 0.3125,3.14063 0,2.35937 -0.48437,3.8125 -0.48438,1.4375 -1.45313,2.23437 -0.95312,0.78125 -2.42187,0.78125 -1.92188,0 -3.03125,-1.39062 -1.3125,-1.67188 -1.3125,-5.4375 z m 1.67187,0 q 0,3.29687 0.76563,4.39062 0.78125,1.07813 1.90625,1.07813 1.14062,0 1.90625,-1.09375 0.76562,-1.09375 0.76562,-4.375 0,-3.29688 -0.76562,-4.375 -0.76563,-1.07813 -1.92188,-1.07813 -1.125,0 -1.79687,0.95313 -0.85938,1.21875 -0.85938,4.5 z m 8.7038,3.0625 1.64063,-0.21875 q 0.28125,1.40625 0.95312,2.01562 0.6875,0.60938 1.65625,0.60938 1.15625,0 1.95313,-0.79688 0.79687,-0.79687 0.79687,-1.98437 0,-1.125 -0.73437,-1.85938 -0.73438,-0.73437 -1.875,-0.73437 -0.46875,0 -1.15625,0.17187 l 0.1875,-1.4375 q 0.15625,0.0156 0.26562,0.0156 1.04688,0 1.875,-0.54688 0.84375,-0.54687 0.84375,-1.67187 0,-0.90625 -0.60937,-1.5 -0.60938,-0.59375 -1.57813,-0.59375 -0.95312,0 -1.59375,0.60937 -0.64062,0.59375 -0.8125,1.79688 l -1.64062,-0.29688 q 0.29687,-1.64062 1.35937,-2.54687 1.0625,-0.90625 2.65625,-0.90625 1.09375,0 2,0.46875 0.92188,0.46875 1.40625,1.28125 0.5,0.8125 0.5,1.71875 0,0.85937 -0.46875,1.57812 -0.46875,0.70313 -1.375,1.125 1.1875,0.28125 1.84375,1.14063 0.65625,0.85937 0.65625,2.15625 0,1.73437 -1.28125,2.95312 -1.26562,1.21875 -3.21875,1.21875 -1.76562,0 -2.92187,-1.04687 -1.15625,-1.04688 -1.32813,-2.71875 z"
     fill-rule="nonzero"
     id="path282" />
  <path
     fill="#000000"
     fill-opacity="0"
     d="m 487.85039,267.58529 h 71.59051 v 42.01575 h -71.59051 z"
     fill-rule="evenodd"
     id="path284" />
  <path
     fill="#000000"
     d="m 497.63166,287.91156 q 0,-2.35938 0.48438,-3.79688 0.48437,-1.45312 1.4375,-2.23437 0.96875,-0.78125 2.42187,-0.78125 1.07813,0 1.89063,0.4375 0.8125,0.42187 1.32812,1.25 0.53125,0.8125 0.82813,1.98437 0.3125,1.15625 0.3125,3.14063 0,2.35937 -0.48438,3.8125 -0.48437,1.4375 -1.45312,2.23437 -0.95313,0.78125 -2.42188,0.78125 -1.92187,0 -3.03125,-1.39062 -1.3125,-1.67188 -1.3125,-5.4375 z m 1.67188,0 q 0,3.29687 0.76562,4.39062 0.78125,1.07813 1.90625,1.07813 1.14063,0 1.90625,-1.09375 0.76563,-1.09375 0.76563,-4.375 0,-3.29688 -0.76563,-4.375 -0.76562,-1.07813 -1.92187,-1.07813 -1.125,0 -1.79688,0.95313 -0.85937,1.21875 -0.85937,4.5 z m 8.06323,6.59375 3.53125,-5.03125 -3.26563,-4.64063 h 2.04688 l 1.48437,2.26563 q 0.42188,0.64062 0.67188,1.07812 0.40625,-0.59375 0.73437,-1.0625 l 1.64063,-2.28125 h 1.95312 l -3.34375,4.54688 3.59375,5.125 h -2.01562 l -1.98438,-3 -0.51562,-0.8125 -2.54688,3.8125 z m 16.14062,0 h -1.64062 v -10.45313 q -0.59375,0.5625 -1.5625,1.14063 -0.95313,0.5625 -1.71875,0.84375 v -1.59375 q 1.375,-0.64063 2.40625,-1.5625 1.03125,-0.92188 1.45312,-1.78125 h 1.0625 z m 4.2038,-6.59375 q 0,-2.35938 0.48437,-3.79688 0.48438,-1.45312 1.4375,-2.23437 0.96875,-0.78125 2.42188,-0.78125 1.07812,0 1.89062,0.4375 0.8125,0.42187 1.32813,1.25 0.53125,0.8125 0.82812,1.98437 0.3125,1.15625 0.3125,3.14063 0,2.35937 -0.48437,3.8125 -0.48438,1.4375 -1.45313,2.23437 -0.95312,0.78125 -2.42187,0.78125 -1.92188,0 -3.03125,-1.39062 -1.3125,-1.67188 -1.3125,-5.4375 z m 1.67187,0 q 0,3.29687 0.76563,4.39062 0.78125,1.07813 1.90625,1.07813 1.14062,0 1.90625,-1.09375 0.76562,-1.09375 0.76562,-4.375 0,-3.29688 -0.76562,-4.375 -0.76563,-1.07813 -1.92188,-1.07813 -1.125,0 -1.79687,0.95313 -0.85938,1.21875 -0.85938,4.5 z m 13.95386,6.59375 v -3.20313 h -5.79687 v -1.5 l 6.09375,-8.65625 h 1.34375 v 8.65625 h 1.79687 v 1.5 h -1.79687 v 3.20313 z m 0,-4.70313 v -6.01562 l -4.1875,6.01562 z"
     fill-rule="nonzero"
     id="path286" />
  <path
     fill="#000000"
     fill-opacity="0"
     d="m 0,220.8189 h 235.21259 v 42.01575 H 0 Z"
     fill-rule="evenodd"
     id="path288" />
  <path
     fill="#000000"
     d="m 88.674294,247.73889 v -13.35938 h 2.65625 l 3.15625,9.45313 q 0.4375,1.32812 0.64062,1.98437 0.23438,-0.73437 0.70313,-2.14062 l 3.20312,-9.29688 h 2.374996 v 13.35938 h -1.703116 v -11.17188 l -3.875,11.17188 h -1.59375 l -3.85938,-11.375 v 11.375 z m 22.009546,-3.10938 1.6875,0.20313 q -0.40625,1.48437 -1.48437,2.3125 -1.07813,0.8125 -2.76563,0.8125 -2.125,0 -3.375,-1.29688 -1.23437,-1.3125 -1.23437,-3.67187 0,-2.45313 1.25,-3.79688 1.26562,-1.34375 3.26562,-1.34375 1.9375,0 3.15625,1.32813 1.23438,1.3125 1.23438,3.70312 0,0.15625 0,0.4375 h -7.21875 q 0.0937,1.59375 0.90625,2.45313 0.8125,0.84375 2.01562,0.84375 0.90625,0 1.54688,-0.46875 0.64062,-0.48438 1.01562,-1.51563 z m -5.39062,-2.65625 h 5.40625 q -0.10938,-1.21875 -0.625,-1.82812 -0.78125,-0.95313 -2.03125,-0.95313 -1.125,0 -1.90625,0.76563 -0.76563,0.75 -0.84375,2.01562 z m 9.14134,5.76563 v -9.67188 h 1.46875 v 1.35938 q 0.45312,-0.71875 1.20312,-1.14063 0.76563,-0.4375 1.71875,-0.4375 1.07813,0 1.76563,0.45313 0.6875,0.4375 0.96875,1.23437 1.15625,-1.6875 2.98437,-1.6875 1.45313,0 2.21875,0.79688 0.78125,0.79687 0.78125,2.45312 v 6.64063 h -1.64062 v -6.09375 q 0,-0.98438 -0.15625,-1.40625 -0.15625,-0.4375 -0.57813,-0.70313 -0.42187,-0.26562 -0.98437,-0.26562 -1.01563,0 -1.6875,0.6875 -0.67188,0.67187 -0.67188,2.15625 v 5.625 h -1.64062 v -6.28125 q 0,-1.09375 -0.40625,-1.64063 -0.40625,-0.54687 -1.3125,-0.54687 -0.6875,0 -1.28125,0.35937 -0.59375,0.35938 -0.85938,1.0625 -0.25,0.70313 -0.25,2.03125 v 5.01563 z m 14.93143,-4.84375 q 0,-2.6875 1.48437,-3.96875 1.25,-1.07813 3.04688,-1.07813 2,0 3.26562,1.3125 1.26563,1.29688 1.26563,3.60938 0,1.85937 -0.5625,2.9375 -0.5625,1.0625 -1.64063,1.65625 -1.0625,0.59375 -2.32812,0.59375 -2.03125,0 -3.28125,-1.29688 -1.25,-1.3125 -1.25,-3.76562 z m 1.6875,0 q 0,1.85937 0.79687,2.79687 0.8125,0.92188 2.04688,0.92188 1.21875,0 2.03125,-0.92188 0.8125,-0.9375 0.8125,-2.84375 0,-1.79687 -0.8125,-2.71875 -0.8125,-0.92187 -2.03125,-0.92187 -1.23438,0 -2.04688,0.92187 -0.79687,0.90625 -0.79687,2.76563 z m 9.28196,4.84375 v -9.67188 h 1.46875 v 1.46875 q 0.5625,-1.03125 1.03125,-1.35937 0.48438,-0.32813 1.0625,-0.32813 0.82813,0 1.6875,0.53125 l -0.5625,1.51563 q -0.60937,-0.35938 -1.20312,-0.35938 -0.54688,0 -0.96875,0.32813 -0.42188,0.32812 -0.60938,0.89062 -0.28125,0.875 -0.28125,1.92188 v 5.0625 z m 6.15018,3.71875 -0.1875,-1.53125 q 0.54687,0.14062 0.9375,0.14062 0.54687,0 0.875,-0.1875 0.32812,-0.17187 0.54687,-0.5 0.15625,-0.25 0.5,-1.21875 0.0469,-0.14062 0.14063,-0.40625 l -3.67188,-9.6875 h 1.76563 l 2.01562,5.59375 q 0.39063,1.07813 0.70313,2.25 0.28125,-1.125 0.67187,-2.20312 l 2.07813,-5.64063 h 1.64062 l -3.6875,9.82813 q -0.59375,1.60937 -0.92187,2.20312 -0.4375,0.8125 -1,1.1875 -0.5625,0.375 -1.34375,0.375 -0.48438,0 -1.0625,-0.20312 z m 20.90205,-4.90625 q -0.92187,0.76562 -1.76562,1.09375 -0.82813,0.3125 -1.79688,0.3125 -1.59375,0 -2.45312,-0.78125 -0.85938,-0.78125 -0.85938,-1.98438 0,-0.71875 0.32813,-1.29687 0.32812,-0.59375 0.84375,-0.9375 0.53125,-0.35938 1.1875,-0.54688 0.46875,-0.125 1.45312,-0.25 1.98438,-0.23437 2.92188,-0.5625 0.0156,-0.34375 0.0156,-0.42187 0,-1 -0.46875,-1.42188 -0.625,-0.54687 -1.875,-0.54687 -1.15625,0 -1.70312,0.40625 -0.54688,0.40625 -0.8125,1.42187 l -1.60938,-0.21875 q 0.21875,-1.01562 0.71875,-1.64062 0.5,-0.64063 1.45313,-0.98438 0.95312,-0.34375 2.1875,-0.34375 1.25,0 2.01562,0.29688 0.78125,0.28125 1.14061,0.73437 0.375,0.4375 0.51563,1.10938 0.0781,0.42187 0.0781,1.51562 v 2.1875 q 0,2.28125 0.10938,2.89063 0.10937,0.59375 0.40625,1.15625 h -1.70311 q -0.26563,-0.51563 -0.32813,-1.1875 z m -0.14062,-3.67188 q -0.89063,0.375 -2.67188,0.625 -1.01562,0.14063 -1.4375,0.32813 -0.42187,0.1875 -0.65625,0.53125 -0.21875,0.34375 -0.21875,0.78125 0,0.65625 0.5,1.09375 0.5,0.4375 1.45313,0.4375 0.9375,0 1.67187,-0.40625 0.75,-0.42188 1.09375,-1.14063 0.26563,-0.5625 0.26563,-1.64062 z m 10.46947,4.85938 v -1.21875 q -0.90625,1.4375 -2.70313,1.4375 -1.15625,0 -2.125,-0.64063 -0.96875,-0.64062 -1.5,-1.78125 -0.53125,-1.14062 -0.53125,-2.625 0,-1.45312 0.48438,-2.625 0.48437,-1.1875 1.4375,-1.8125 0.96875,-0.625 2.17187,-0.625 0.875,0 1.54688,0.375 0.6875,0.35938 1.10937,0.95313 v -4.79688 h 1.64063 v 13.35938 z m -5.17188,-4.82813 q 0,1.85938 0.78125,2.78125 0.78125,0.92188 1.84375,0.92188 1.07813,0 1.82813,-0.875 0.75,-0.89063 0.75,-2.6875 0,-1.98438 -0.76563,-2.90625 -0.76562,-0.9375 -1.89062,-0.9375 -1.07813,0 -1.8125,0.89062 -0.73438,0.89063 -0.73438,2.8125 z m 15.54758,4.82813 v -1.21875 q -0.90625,1.4375 -2.70313,1.4375 -1.15625,0 -2.125,-0.64063 -0.96875,-0.64062 -1.5,-1.78125 -0.53125,-1.14062 -0.53125,-2.625 0,-1.45312 0.48438,-2.625 0.48437,-1.1875 1.4375,-1.8125 0.96875,-0.625 2.17187,-0.625 0.875,0 1.54688,0.375 0.6875,0.35938 1.10937,0.95313 v -4.79688 h 1.64063 v 13.35938 z m -5.17188,-4.82813 q 0,1.85938 0.78125,2.78125 0.78125,0.92188 1.84375,0.92188 1.07813,0 1.82813,-0.875 0.75,-0.89063 0.75,-2.6875 0,-1.98438 -0.76563,-2.90625 -0.76562,-0.9375 -1.89062,-0.9375 -1.07813,0 -1.8125,0.89062 -0.73438,0.89063 -0.73438,2.8125 z m 9.26636,4.82813 v -9.67188 h 1.46875 v 1.46875 q 0.5625,-1.03125 1.03125,-1.35937 0.48437,-0.32813 1.0625,-0.32813 0.82812,0 1.6875,0.53125 l -0.5625,1.51563 q -0.60938,-0.35938 -1.20313,-0.35938 -0.54687,0 -0.96875,0.32813 -0.42187,0.32812 -0.60937,0.89062 -0.28125,0.875 -0.28125,1.92188 v 5.0625 z m 12.8533,-3.10938 1.6875,0.20313 q -0.40625,1.48437 -1.48437,2.3125 -1.07813,0.8125 -2.76563,0.8125 -2.125,0 -3.375,-1.29688 -1.23437,-1.3125 -1.23437,-3.67187 0,-2.45313 1.25,-3.79688 1.26562,-1.34375 3.26562,-1.34375 1.9375,0 3.15625,1.32813 1.23438,1.3125 1.23438,3.70312 0,0.15625 0,0.4375 h -7.21875 q 0.0937,1.59375 0.90625,2.45313 0.8125,0.84375 2.01562,0.84375 0.90625,0 1.54688,-0.46875 0.64062,-0.48438 1.01562,-1.51563 z m -5.39062,-2.65625 h 5.40625 q -0.10938,-1.21875 -0.625,-1.82812 -0.78125,-0.95313 -2.03125,-0.95313 -1.125,0 -1.90625,0.76563 -0.76563,0.75 -0.84375,2.01562 z m 8.48507,2.875 1.625,-0.25 q 0.125,0.96875 0.75,1.5 0.625,0.51563 1.75,0.51563 1.125,0 1.67188,-0.45313 0.54687,-0.46875 0.54687,-1.09375 0,-0.54687 -0.48437,-0.875 -0.32813,-0.21875 -1.67188,-0.54687 -1.8125,-0.46875 -2.51562,-0.79688 -0.6875,-0.32812 -1.04688,-0.90625 -0.35937,-0.59375 -0.35937,-1.3125 0,-0.64062 0.29687,-1.1875 0.29688,-0.5625 0.8125,-0.92187 0.375,-0.28125 1.03125,-0.46875 0.67188,-0.20313 1.42188,-0.20313 1.14062,0 2,0.32813 0.85937,0.32812 1.26562,0.89062 0.42188,0.5625 0.57813,1.5 l -1.60938,0.21875 q -0.10937,-0.75 -0.64062,-1.17187 -0.51563,-0.42188 -1.46875,-0.42188 -1.14063,0 -1.625,0.375 -0.46875,0.375 -0.46875,0.875 0,0.3125 0.1875,0.57813 0.20312,0.26562 0.64062,0.4375 0.23438,0.0937 1.4375,0.42187 1.75,0.45313 2.4375,0.75 0.6875,0.29688 1.07813,0.85938 0.39062,0.5625 0.39062,1.40625 0,0.82812 -0.48437,1.54687 -0.46875,0.71875 -1.375,1.125 -0.90625,0.39063 -2.04688,0.39063 -1.875,0 -2.875,-0.78125 -0.98437,-0.78125 -1.25,-2.32813 z m 9.32813,0 1.625,-0.25 q 0.125,0.96875 0.75,1.5 0.625,0.51563 1.75,0.51563 1.125,0 1.67187,-0.45313 0.54688,-0.46875 0.54688,-1.09375 0,-0.54687 -0.48438,-0.875 -0.32812,-0.21875 -1.67187,-0.54687 -1.8125,-0.46875 -2.51563,-0.79688 -0.6875,-0.32812 -1.04687,-0.90625 -0.35938,-0.59375 -0.35938,-1.3125 0,-0.64062 0.29688,-1.1875 0.29687,-0.5625 0.8125,-0.92187 0.375,-0.28125 1.03125,-0.46875 0.67187,-0.20313 1.42187,-0.20313 1.14063,0 2,0.32813 0.85938,0.32812 1.26563,0.89062 0.42187,0.5625 0.57812,1.5 l -1.60937,0.21875 q -0.10938,-0.75 -0.64063,-1.17187 -0.51562,-0.42188 -1.46875,-0.42188 -1.14062,0 -1.625,0.375 -0.46875,0.375 -0.46875,0.875 0,0.3125 0.1875,0.57813 0.20313,0.26562 0.64063,0.4375 0.23437,0.0937 1.4375,0.42187 1.75,0.45313 2.4375,0.75 0.6875,0.29688 1.07812,0.85938 0.39063,0.5625 0.39063,1.40625 0,0.82812 -0.48438,1.54687 -0.46875,0.71875 -1.375,1.125 -0.90625,0.39063 -2.04687,0.39063 -1.875,0 -2.875,-0.78125 -0.98438,-0.78125 -1.25,-2.32813 z"
     fill-rule="nonzero"
     id="path290" />
  <path
     fill="#000000"
     fill-opacity="0"
     d="M 236.25459,263.49342 H 579.87666"
     fill-rule="evenodd"
     id="path292" />
  <path
     stroke="#000000"
     stroke-width="1"
     stroke-linejoin="round"
     stroke-linecap="butt"
     d="M 236.25459,263.49342 H 573.87666"
     fill-rule="evenodd"
     id="path294" />
  <path
     fill="#000000"
     stroke="#000000"
     stroke-width="1"
     stroke-linecap="butt"
     d="m 573.87665,265.14517 4.53809,-1.65173 -4.53809,-1.65174 z"
     fill-rule="evenodd"
     id="path296" />
</svg>
