<?xml version="1.0" encoding="UTF-8" standalone="no"?>
<svg
   xmlns:dc="http://purl.org/dc/elements/1.1/"
   xmlns:cc="http://creativecommons.org/ns#"
   xmlns:rdf="http://www.w3.org/1999/02/22-rdf-syntax-ns#"
   xmlns:svg="http://www.w3.org/2000/svg"
   xmlns="http://www.w3.org/2000/svg"
   xmlns:sodipodi="http://sodipodi.sourceforge.net/DTD/sodipodi-0.dtd"
   xmlns:inkscape="http://www.inkscape.org/namespaces/inkscape"
   inkscape:version="1.0 (4035a4fb49, 2020-05-01)"
   height="178.0853"
   width="906.01312"
   sodipodi:docname="fpi_fdp_registers.svg"
   id="svg1137"
   stroke-miterlimit="10"
   stroke-linecap="square"
   stroke="none"
   fill="none"
   viewBox="0 0 906.01312 178.0853"
   version="1.1">
  <metadata
     id="metadata1143">
    <rdf:RDF>
      <cc:Work
         rdf:about="">
        <dc:format>image/svg+xml</dc:format>
        <dc:type
           rdf:resource="http://purl.org/dc/dcmitype/StillImage" />
      </cc:Work>
    </rdf:RDF>
  </metadata>
  <defs
     id="defs1141" />
  <sodipodi:namedview
     inkscape:current-layer="svg1137"
     inkscape:window-maximized="0"
     inkscape:window-y="134"
     inkscape:window-x="3647"
     inkscape:cy="288.89764"
     inkscape:cx="475.6916"
     inkscape:zoom="0.75130208"
     showgrid="false"
     id="namedview1139"
     inkscape:window-height="837"
     inkscape:window-width="1199"
     inkscape:pageshadow="2"
     inkscape:pageopacity="0"
     guidetolerance="10"
     gridtolerance="10"
     objecttolerance="10"
     borderopacity="1"
     bordercolor="#666666"
     pagecolor="#ffffff" />
  <clipPath
     id="p.0">
    <path
       id="path1030"
       clip-rule="nonzero"
       d="M 0,0 H 1024 V 768 H 0 Z" />
  </clipPath>
  <path
     fill="#000000"
     fill-opacity="0"
     d="m -36.3084,-95.10236 h 1024 v 768 h -1024 z"
     fill-rule="evenodd"
     id="path1033" />
  <g
     id="g1248">
    <path
       id="path1035"
       fill-rule="evenodd"
       d="M 453.0197,36.8189 H 603.85433 V 73.63779 H 453.0197 Z"
       fill="#cfe2f3" />
    <path
       id="path1037"
       fill-rule="evenodd"
       d="M 453.0197,36.8189 H 603.85433 V 73.63779 H 453.0197 Z"
       stroke-linecap="butt"
       stroke-linejoin="round"
       stroke-width="1"
       stroke="#000000" />
    <path
       id="path1039"
       fill-rule="nonzero"
       d="m 463.6447,62.14834 v -8.40625 h -1.45313 v -1.26563 h 1.45313 v -1.03125 q 0,-0.96875 0.17187,-1.45312 0.23438,-0.64063 0.82813,-1.03125 0.59375,-0.39063 1.67187,-0.39063 0.6875,0 1.53125,0.15625 l -0.25,1.4375 q -0.5,-0.0937 -0.95312,-0.0937 -0.75,0 -1.0625,0.32813 -0.3125,0.3125 -0.3125,1.1875 v 0.89062 h 1.89062 v 1.26563 h -1.89062 v 8.40625 z m 4.79266,-11.46875 v -1.89063 h 1.64063 v 1.89063 z m 0,11.46875 v -9.67188 h 1.64063 v 9.67188 z m 3.53546,-4.84375 q 0,-2.6875 1.48438,-3.96875 1.25,-1.07813 3.04684,-1.07813 2,0 3.26563,1.3125 1.26562,1.29688 1.26562,3.60938 0,1.85937 -0.5625,2.9375 -0.5625,1.0625 -1.64062,1.65625 -1.0625,0.59375 -2.32813,0.59375 -2.03122,0 -3.28122,-1.29688 -1.25,-1.3125 -1.25,-3.76562 z m 1.6875,0 q 0,1.85937 0.79688,2.79687 0.8125,0.92188 2.04684,0.92188 1.21875,0 2.03125,-0.92188 0.8125,-0.9375 0.8125,-2.84375 0,-1.79687 -0.8125,-2.71875 -0.8125,-0.92187 -2.03125,-0.92187 -1.23434,0 -2.04684,0.92187 -0.79688,0.90625 -0.79688,2.76563 z m 9.68821,4.84375 v -8.40625 h -1.45313 v -1.26563 h 1.45313 v -1.03125 q 0,-0.96875 0.17187,-1.45312 0.23438,-0.64063 0.82813,-1.03125 0.59375,-0.39063 1.67187,-0.39063 0.6875,0 1.53125,0.15625 l -0.25,1.4375 q -0.5,-0.0937 -0.95312,-0.0937 -0.75,0 -1.0625,0.32813 -0.3125,0.3125 -0.3125,1.1875 v 0.89062 h 1.89062 v 1.26563 h -1.89062 v 8.40625 z m 4.84607,0 v -8.40625 h -1.45313 v -1.26563 h 1.45313 v -1.03125 q 0,-0.96875 0.17187,-1.45312 0.23438,-0.64063 0.82813,-1.03125 0.59375,-0.39063 1.67187,-0.39063 0.6875,0 1.53125,0.15625 l -0.25,1.4375 q -0.5,-0.0937 -0.95312,-0.0937 -0.75,0 -1.0625,0.32813 -0.3125,0.3125 -0.3125,1.1875 v 0.89062 h 1.89062 v 1.26563 h -1.89062 v 8.40625 z m 13.10101,3.92187 q -1.35938,-1.70312 -2.29688,-4 -0.9375,-2.29687 -0.9375,-4.76562 0,-2.15625 0.70313,-4.14063 0.82812,-2.3125 2.53125,-4.59375 h 1.17187 q -1.09375,1.89063 -1.45312,2.70313 -0.54688,1.25 -0.875,2.625 -0.39063,1.70312 -0.39063,3.42187 0,4.375 2.71875,8.75 z m 3.38452,-3.92187 V 48.78896 h 9.01563 v 1.57813 h -7.25 v 4.14062 h 6.26562 v 1.57813 h -6.26562 v 6.0625 z m 11.59912,0 V 48.78896 h 1.76563 v 13.35938 z m 4.88642,0 V 48.78896 h 5.04687 q 1.32813,0 2.03125,0.125 0.96875,0.17188 1.64063,0.64063 0.67187,0.45312 1.07812,1.28125 0.40625,0.82812 0.40625,1.82812 0,1.70313 -1.09375,2.89063 -1.07812,1.17187 -3.92187,1.17187 h -3.42188 v 5.42188 z m 1.76562,-7 h 3.45313 q 1.71875,0 2.4375,-0.64063 0.71875,-0.64062 0.71875,-1.79687 0,-0.84375 -0.42188,-1.4375 -0.42187,-0.59375 -1.125,-0.78125 -0.4375,-0.125 -1.64062,-0.125 h -3.42188 z m 10.5061,10.70312 v -17.0625 h 3.60938 v 1.35938 h -1.96875 v 14.34375 h 1.96875 v 1.35937 z m 5.60517,-11.51562 v -1.85938 h 1.85937 v 1.85938 z m 0,7.8125 v -1.875 h 1.85937 v 1.875 z m 4.27704,-3.53125 1.64062,-0.21875 q 0.28125,1.40625 0.95313,2.01562 0.6875,0.60938 1.65625,0.60938 1.15625,0 1.95312,-0.79688 0.79688,-0.79687 0.79688,-1.98437 0,-1.125 -0.73438,-1.85938 -0.73437,-0.73437 -1.875,-0.73437 -0.46875,0 -1.15625,0.17187 l 0.1875,-1.4375 q 0.15625,0.0156 0.26563,0.0156 1.04687,0 1.875,-0.54688 0.84375,-0.54687 0.84375,-1.67187 0,-0.90625 -0.60938,-1.5 -0.60937,-0.59375 -1.57812,-0.59375 -0.95313,0 -1.59375,0.60937 -0.64063,0.59375 -0.8125,1.79688 l -1.64063,-0.29688 q 0.29688,-1.64062 1.35938,-2.54687 1.0625,-0.90625 2.65625,-0.90625 1.09375,0 2,0.46875 0.92187,0.46875 1.40625,1.28125 0.5,0.8125 0.5,1.71875 0,0.85937 -0.46875,1.57812 -0.46875,0.70313 -1.375,1.125 1.1875,0.28125 1.84375,1.14063 0.65625,0.85937 0.65625,2.15625 0,1.73437 -1.28125,2.95312 -1.26563,1.21875 -3.21875,1.21875 -1.76563,0 -2.92188,-1.04687 -1.15625,-1.04688 -1.32812,-2.71875 z m 16.5476,3.53125 h -1.64062 V 51.69521 q -0.59375,0.5625 -1.5625,1.14063 -0.95313,0.5625 -1.71875,0.84375 v -1.59375 q 1.375,-0.64063 2.40625,-1.5625 1.03125,-0.92188 1.45312,-1.78125 h 1.0625 z m 7.39136,3.70312 h -3.60937 v -1.35937 h 1.96875 V 50.14834 h -1.96875 v -1.35938 h 3.60937 z m 3.52704,0.21875 h -1.1875 q 2.73437,-4.375 2.73437,-8.75 0,-1.71875 -0.39062,-3.39062 -0.3125,-1.375 -0.875,-2.625 -0.35938,-0.82813 -1.46875,-2.73438 h 1.1875 q 1.70312,2.28125 2.53125,4.59375 0.6875,1.98438 0.6875,4.14063 0,2.46875 -0.9375,4.76562 -0.9375,2.29688 -2.28125,4 z"
       fill="#000000" />
    <path
       id="path1041"
       fill-rule="evenodd"
       d="M 603.8438,36.8189 H 905.5131 V 73.63779 H 603.8438 Z"
       fill="#fce5cd" />
    <path
       id="path1043"
       fill-rule="evenodd"
       d="M 603.8438,36.8189 H 905.5131 V 73.63779 H 603.8438 Z"
       stroke-linecap="butt"
       stroke-linejoin="round"
       stroke-width="1"
       stroke="#000000" />
    <path
       id="path1045"
       fill-rule="nonzero"
       d="m 614.4688,62.14834 v -8.40625 h -1.45313 v -1.26563 h 1.45313 v -1.03125 q 0,-0.96875 0.17187,-1.45312 0.23438,-0.64063 0.82813,-1.03125 0.59375,-0.39063 1.67187,-0.39063 0.6875,0 1.53125,0.15625 l -0.25,1.4375 q -0.5,-0.0937 -0.95312,-0.0937 -0.75,0 -1.0625,0.32813 -0.3125,0.3125 -0.3125,1.1875 v 0.89062 h 1.89062 v 1.26563 h -1.89062 v 8.40625 z m 4.18329,-4.84375 q 0,-2.6875 1.48437,-3.96875 1.25,-1.07813 3.04688,-1.07813 2,0 3.26562,1.3125 1.26563,1.29688 1.26563,3.60938 0,1.85937 -0.5625,2.9375 -0.5625,1.0625 -1.64063,1.65625 -1.0625,0.59375 -2.32812,0.59375 -2.03125,0 -3.28125,-1.29688 -1.25,-1.3125 -1.25,-3.76562 z m 1.6875,0 q 0,1.85937 0.79687,2.79687 0.8125,0.92188 2.04688,0.92188 1.21875,0 2.03125,-0.92188 0.8125,-0.9375 0.8125,-2.84375 0,-1.79687 -0.8125,-2.71875 -0.8125,-0.92187 -2.03125,-0.92187 -1.23438,0 -2.04688,0.92187 -0.79687,0.90625 -0.79687,2.76563 z m 9.29761,8.54687 v -13.375 h 1.48437 v 1.25 q 0.53125,-0.73437 1.1875,-1.09375 0.67188,-0.375 1.625,-0.375 1.23438,0 2.17188,0.64063 0.95312,0.625 1.4375,1.79687 0.48437,1.15625 0.48437,2.54688 0,1.48437 -0.53125,2.67187 -0.53125,1.1875 -1.54687,1.82813 -1.01563,0.625 -2.14063,0.625 -0.8125,0 -1.46875,-0.34375 -0.65625,-0.34375 -1.0625,-0.875 v 4.70312 z m 1.48437,-8.48437 q 0,1.85937 0.75,2.76562 0.76563,0.89063 1.82813,0.89063 1.09375,0 1.875,-0.92188 0.78125,-0.9375 0.78125,-2.875 0,-1.84375 -0.76563,-2.76562 -0.75,-0.92188 -1.8125,-0.92188 -1.04687,0 -1.85937,0.98438 -0.79688,0.96875 -0.79688,2.84375 z m 9.31323,4.78125 v -1.875 h 1.875 v 1.875 q 0,1.03125 -0.375,1.65625 -0.35937,0.64062 -1.15625,0.98437 l -0.45312,-0.70312 q 0.51562,-0.21875 0.76562,-0.67188 0.25,-0.4375 0.28125,-1.26562 z m 10.33533,0 V 53.74209 H 649.317 v -1.26563 h 1.45313 v -1.03125 q 0,-0.96875 0.17187,-1.45312 0.23438,-0.64063 0.82813,-1.03125 0.59375,-0.39063 1.67187,-0.39063 0.6875,0 1.53125,0.15625 l -0.25,1.4375 q -0.5,-0.0937 -0.95312,-0.0937 -0.75,0 -1.0625,0.32813 -0.3125,0.3125 -0.3125,1.1875 v 0.89062 h 1.89062 v 1.26563 h -1.89062 v 8.40625 z m 8.37085,-1.46875 0.23437,1.45312 q -0.6875,0.14063 -1.23437,0.14063 -0.89063,0 -1.39063,-0.28125 -0.48437,-0.28125 -0.6875,-0.73438 -0.20312,-0.46875 -0.20312,-1.9375 v -5.57812 h -1.20313 v -1.26563 h 1.20313 v -2.39062 l 1.625,-0.98438 v 3.375 h 1.65625 v 1.26563 h -1.65625 v 5.67187 q 0,0.6875 0.0781,0.89063 0.0937,0.20312 0.28125,0.32812 0.20313,0.10938 0.57813,0.10938 0.26562,0 0.71875,-0.0625 z m 7.91766,0.28125 q -0.92187,0.76562 -1.76562,1.09375 -0.82813,0.3125 -1.79688,0.3125 -1.59375,0 -2.45312,-0.78125 -0.85938,-0.78125 -0.85938,-1.98438 0,-0.71875 0.32813,-1.29687 0.32812,-0.59375 0.84375,-0.9375 0.53125,-0.35938 1.1875,-0.54688 0.46875,-0.125 1.45312,-0.25 1.98438,-0.23437 2.92188,-0.5625 0.0156,-0.34375 0.0156,-0.42187 0,-1 -0.46875,-1.42188 -0.625,-0.54687 -1.875,-0.54687 -1.15625,0 -1.70312,0.40625 -0.54688,0.40625 -0.8125,1.42187 l -1.60938,-0.21875 q 0.21875,-1.01562 0.71875,-1.64062 0.5,-0.64063 1.45313,-0.98438 0.95312,-0.34375 2.1875,-0.34375 1.25,0 2.01562,0.29688 0.78125,0.28125 1.14063,0.73437 0.375,0.4375 0.51562,1.10938 0.0781,0.42187 0.0781,1.51562 v 2.1875 q 0,2.28125 0.10937,2.89063 0.10938,0.59375 0.40625,1.15625 h -1.70312 q -0.26563,-0.51563 -0.32813,-1.1875 z m -0.14062,-3.67188 q -0.89063,0.375 -2.67188,0.625 -1.01562,0.14063 -1.4375,0.32813 -0.42187,0.1875 -0.65625,0.53125 -0.21875,0.34375 -0.21875,0.78125 0,0.65625 0.5,1.09375 0.5,0.4375 1.45313,0.4375 0.9375,0 1.67187,-0.40625 0.75,-0.42188 1.09375,-1.14063 0.26563,-0.5625 0.26563,-1.64062 z m 3.89136,5.65625 1.59375,0.23438 q 0.10937,0.75 0.5625,1.07812 0.60937,0.45313 1.67187,0.45313 1.14063,0 1.75,-0.45313 0.625,-0.45312 0.84375,-1.26562 0.125,-0.5 0.10938,-2.10938 -1.0625,1.26563 -2.67188,1.26563 -2,0 -3.09375,-1.4375 -1.09375,-1.4375 -1.09375,-3.45313 0,-1.39062 0.5,-2.5625 0.51563,-1.17187 1.45313,-1.79687 0.95312,-0.64063 2.25,-0.64063 1.70312,0 2.8125,1.375 v -1.15625 h 1.51562 v 8.35938 q 0,2.26562 -0.46875,3.20312 -0.45312,0.9375 -1.45312,1.48438 -0.98438,0.54687 -2.45313,0.54687 -1.71875,0 -2.79687,-0.78125 -1.0625,-0.76562 -1.03125,-2.34375 z m 1.35937,-5.8125 q 0,1.90625 0.75,2.78125 0.76563,0.875 1.90625,0.875 1.125,0 1.89063,-0.85937 0.76562,-0.875 0.76562,-2.73438 0,-1.78125 -0.79687,-2.67187 -0.78125,-0.90625 -1.89063,-0.90625 -1.09375,0 -1.85937,0.89062 -0.76563,0.875 -0.76563,2.625 z m 9.75067,5.01563 v -1.875 h 1.875 v 1.875 q 0,1.03125 -0.375,1.65625 -0.35937,0.64062 -1.15625,0.98437 l -0.45312,-0.70312 q 0.51562,-0.21875 0.76562,-0.67188 0.25,-0.4375 0.28125,-1.26562 z m 10.33539,0 v -8.40625 h -1.45313 v -1.26563 h 1.45313 v -1.03125 q 0,-0.96875 0.17187,-1.45312 0.23438,-0.64063 0.82813,-1.03125 0.59375,-0.39063 1.67187,-0.39063 0.6875,0 1.53125,0.15625 l -0.25,1.4375 q -0.5,-0.0937 -0.95312,-0.0937 -0.75,0 -1.0625,0.32813 -0.3125,0.3125 -0.3125,1.1875 v 0.89062 h 1.89062 v 1.26563 h -1.89062 v 8.40625 z m 4.13641,-2.89063 1.625,-0.25 q 0.125,0.96875 0.75,1.5 0.625,0.51563 1.75,0.51563 1.125,0 1.67188,-0.45313 0.54687,-0.46875 0.54687,-1.09375 0,-0.54687 -0.48437,-0.875 -0.32813,-0.21875 -1.67188,-0.54687 -1.8125,-0.46875 -2.51562,-0.79688 -0.6875,-0.32812 -1.04688,-0.90625 -0.35937,-0.59375 -0.35937,-1.3125 0,-0.64062 0.29687,-1.1875 0.29688,-0.5625 0.8125,-0.92187 0.375,-0.28125 1.03125,-0.46875 0.67188,-0.20313 1.42188,-0.20313 1.14062,0 2,0.32813 0.85937,0.32812 1.26562,0.89062 0.42188,0.5625 0.57813,1.5 l -1.60938,0.21875 q -0.10937,-0.75 -0.64062,-1.17187 -0.51563,-0.42188 -1.46875,-0.42188 -1.14063,0 -1.625,0.375 -0.46875,0.375 -0.46875,0.875 0,0.3125 0.1875,0.57813 0.20312,0.26562 0.64062,0.4375 0.23438,0.0937 1.4375,0.42187 1.75,0.45313 2.4375,0.75 0.6875,0.29688 1.07813,0.85938 0.39062,0.5625 0.39062,1.40625 0,0.82812 -0.48437,1.54687 -0.46875,0.71875 -1.375,1.125 -0.90625,0.39063 -2.04688,0.39063 -1.875,0 -2.875,-0.78125 -0.98437,-0.78125 -1.25,-2.32813 z m 13.5625,1.42188 0.23438,1.45312 q -0.6875,0.14063 -1.23438,0.14063 -0.89062,0 -1.39062,-0.28125 -0.48438,-0.28125 -0.6875,-0.73438 -0.20313,-0.46875 -0.20313,-1.9375 v -5.57812 h -1.20312 v -1.26563 h 1.20312 v -2.39062 l 1.625,-0.98438 v 3.375 h 1.65625 v 1.26563 h -1.65625 v 5.67187 q 0,0.6875 0.0781,0.89063 0.0937,0.20312 0.28125,0.32812 0.20312,0.10938 0.57812,0.10938 0.26563,0 0.71875,-0.0625 z m 7.91767,0.28125 q -0.92188,0.76562 -1.76563,1.09375 -0.82812,0.3125 -1.79687,0.3125 -1.59375,0 -2.45313,-0.78125 -0.85937,-0.78125 -0.85937,-1.98438 0,-0.71875 0.32812,-1.29687 0.32813,-0.59375 0.84375,-0.9375 0.53125,-0.35938 1.1875,-0.54688 0.46875,-0.125 1.45313,-0.25 1.98437,-0.23437 2.92187,-0.5625 0.0156,-0.34375 0.0156,-0.42187 0,-1 -0.46875,-1.42188 -0.625,-0.54687 -1.875,-0.54687 -1.15625,0 -1.70313,0.40625 -0.54687,0.40625 -0.8125,1.42187 l -1.60937,-0.21875 q 0.21875,-1.01562 0.71875,-1.64062 0.5,-0.64063 1.45312,-0.98438 0.95313,-0.34375 2.1875,-0.34375 1.25,0 2.01563,0.29688 0.78125,0.28125 1.14062,0.73437 0.375,0.4375 0.51563,1.10938 0.0781,0.42187 0.0781,1.51562 v 2.1875 q 0,2.28125 0.10938,2.89063 0.10937,0.59375 0.40625,1.15625 h -1.70313 q -0.26562,-0.51563 -0.32812,-1.1875 z m -0.14063,-3.67188 q -0.89062,0.375 -2.67187,0.625 -1.01563,0.14063 -1.4375,0.32813 -0.42188,0.1875 -0.65625,0.53125 -0.21875,0.34375 -0.21875,0.78125 0,0.65625 0.5,1.09375 0.5,0.4375 1.45312,0.4375 0.9375,0 1.67188,-0.40625 0.75,-0.42188 1.09375,-1.14063 0.26562,-0.5625 0.26562,-1.64062 z m 7.78198,3.39063 0.23438,1.45312 q -0.6875,0.14063 -1.23438,0.14063 -0.89062,0 -1.39062,-0.28125 -0.48438,-0.28125 -0.6875,-0.73438 -0.20313,-0.46875 -0.20313,-1.9375 v -5.57812 h -1.20312 v -1.26563 h 1.20312 v -2.39062 l 1.625,-0.98438 v 3.375 h 1.65625 v 1.26563 h -1.65625 v 5.67187 q 0,0.6875 0.0781,0.89063 0.0937,0.20312 0.28125,0.32812 0.20312,0.10938 0.57812,0.10938 0.26563,0 0.71875,-0.0625 z m 2.02704,1.46875 v -1.875 h 1.875 v 1.875 q 0,1.03125 -0.375,1.65625 -0.35937,0.64062 -1.15625,0.98437 l -0.45312,-0.70312 q 0.51562,-0.21875 0.76562,-0.67188 0.25,-0.4375 0.28125,-1.26562 z m 10.33539,0 v -8.40625 h -1.45312 v -1.26563 h 1.45312 v -1.03125 q 0,-0.96875 0.17188,-1.45312 0.23437,-0.64063 0.82812,-1.03125 0.59375,-0.39063 1.67188,-0.39063 0.6875,0 1.53125,0.15625 l -0.25,1.4375 q -0.5,-0.0937 -0.95313,-0.0937 -0.75,0 -1.0625,0.32813 -0.3125,0.3125 -0.3125,1.1875 v 0.89062 h 1.89063 v 1.26563 h -1.89063 v 8.40625 z m 11.10516,-3.54688 1.60938,0.21875 q -0.26563,1.65625 -1.35938,2.60938 -1.07812,0.9375 -2.67187,0.9375 -1.98438,0 -3.1875,-1.29688 -1.20313,-1.29687 -1.20313,-3.71875 0,-1.57812 0.51563,-2.75 0.51562,-1.17187 1.57812,-1.75 1.0625,-0.59375 2.3125,-0.59375 1.57813,0 2.57813,0.79688 1,0.79687 1.28125,2.26562 l -1.59375,0.23438 q -0.23438,-0.96875 -0.8125,-1.45313 -0.57813,-0.5 -1.39063,-0.5 -1.23437,0 -2.01562,0.89063 -0.78125,0.89062 -0.78125,2.8125 0,1.95312 0.75,2.84375 0.75,0.875 1.95312,0.875 0.96875,0 1.60938,-0.59375 0.65625,-0.59375 0.82812,-1.82813 z m 6.59375,2.07813 0.23438,1.45312 q -0.6875,0.14063 -1.23438,0.14063 -0.89062,0 -1.39062,-0.28125 -0.48438,-0.28125 -0.6875,-0.73438 -0.20313,-0.46875 -0.20313,-1.9375 v -5.57812 h -1.20312 v -1.26563 h 1.20312 v -2.39062 l 1.625,-0.98438 v 3.375 h 1.65625 v 1.26563 h -1.65625 v 5.67187 q 0,0.6875 0.0781,0.89063 0.0937,0.20312 0.28125,0.32812 0.20312,0.10938 0.57812,0.10938 0.26563,0 0.71875,-0.0625 z m 1.58954,1.46875 v -9.67188 h 1.46875 v 1.46875 q 0.5625,-1.03125 1.03125,-1.35937 0.48438,-0.32813 1.0625,-0.32813 0.82813,0 1.6875,0.53125 l -0.5625,1.51563 q -0.60937,-0.35938 -1.20312,-0.35938 -0.54688,0 -0.96875,0.32813 -0.42188,0.32812 -0.60938,0.89062 -0.28125,0.875 -0.28125,1.92188 v 5.0625 z m 6.18146,0 V 48.78896 h 1.64063 v 13.35938 z"
       fill="#000000" />
    <path
       id="path1047"
       fill-rule="evenodd"
       d="M 0.50525,0 H 555.81232 V 36.8189 H 0.50525 Z"
       fill-opacity="0"
       fill="#000000" />
    <path
       id="path1049"
       fill-rule="nonzero"
       d="M 10.2865,23.38875 11.927125,23.17 q 0.28125,1.40625 0.953125,2.01563 0.6875,0.60937 1.65625,0.60937 1.15625,0 1.953125,-0.79687 0.796875,-0.79688 0.796875,-1.98438 0,-1.125 -0.734375,-1.85937 -0.734375,-0.73438 -1.875,-0.73438 -0.46875,0 -1.15625,0.17188 l 0.1875,-1.4375 q 0.15625,0.0156 0.265625,0.0156 1.046875,0 1.875,-0.54687 0.84375,-0.54688 0.84375,-1.67188 0,-0.90625 -0.609375,-1.5 -0.609375,-0.59375 -1.578125,-0.59375 -0.953125,0 -1.59375,0.60938 -0.640625,0.59375 -0.8125,1.79687 l -1.640625,-0.29687 q 0.296875,-1.64063 1.359375,-2.54688 1.0625,-0.90625 2.65625,-0.90625 1.09375,0 2,0.46875 0.921875,0.46875 1.40625,1.28125 0.5,0.8125 0.5,1.71875 0,0.85938 -0.46875,1.57813 -0.46875,0.70312 -1.375,1.125 1.1875,0.28125 1.84375,1.14062 0.65625,0.85938 0.65625,2.15625 0,1.73438 -1.28125,2.95313 -1.265625,1.21875 -3.21875,1.21875 -1.765625,0 -2.921875,-1.04688 -1.15625,-1.04687 -1.328125,-2.71875 z m 18.985096,1.95313 V 26.92 h -8.828129 q -0.01563,-0.59375 0.1875,-1.14062 0.34375,-0.90625 1.078125,-1.78125 0.75,-0.875 2.15625,-2.01563 2.171875,-1.78125 2.9375,-2.82812 0.765625,-1.04688 0.765625,-1.96875 0,-0.98438 -0.703125,-1.64063 -0.6875,-0.67187 -1.8125,-0.67187 -1.1875,0 -1.90625,0.71875 -0.703125,0.70312 -0.703125,1.95312 l -1.6875,-0.17187 q 0.171875,-1.89063 1.296875,-2.875 1.140625,-0.98438 3.03125,-0.98438 1.921875,0 3.046879,1.0625 1.125,1.0625 1.125,2.64063 0,0.79687 -0.328125,1.57812 -0.328125,0.78125 -1.09375,1.64063 -0.750004,0.84375 -2.531254,2.34375 -1.46875,1.23437 -1.890625,1.6875 -0.421875,0.4375 -0.6875,0.875 z m 1.578842,-2.4375 v -1.64063 h 5.03125 v 1.64063 z M 39.20374,26.92 H 37.688115 V 13.56063 h 1.640625 v 4.76562 q 1.046875,-1.29687 2.65625,-1.29687 0.890625,0 1.6875,0.35937 0.796875,0.35938 1.3125,1.01563 0.515625,0.64062 0.796875,1.5625 0.296875,0.92187 0.296875,1.96875 0,2.48437 -1.234375,3.84375 -1.21875,1.35937 -2.953125,1.35937 -1.703125,0 -2.6875,-1.4375 z m -0.01563,-4.90625 q 0,1.73438 0.484375,2.51563 0.765625,1.26562 2.09375,1.26562 1.078125,0 1.859375,-0.9375 0.78125,-0.9375 0.78125,-2.78125 0,-1.89062 -0.75,-2.79687 -0.75,-0.90625 -1.828125,-0.90625 -1.0625,0 -1.859375,0.9375 -0.78125,0.9375 -0.78125,2.70312 z m 8.891342,-6.5625 v -1.89062 h 1.640625 v 1.89062 z m 0,11.46875 v -9.67187 h 1.640625 V 26.92 Z m 7.722946,-1.46875 0.234375,1.45313 q -0.6875,0.14062 -1.234375,0.14062 -0.890625,0 -1.390625,-0.28125 -0.484375,-0.28125 -0.6875,-0.73437 -0.203125,-0.46875 -0.203125,-1.9375 v -5.57813 h -1.203125 v -1.26562 h 1.203125 V 14.8575 l 1.625,-0.98437 v 3.375 h 1.65625 v 1.26562 h -1.65625 v 5.67188 q 0,0.6875 0.07813,0.89062 0.09375,0.20313 0.28125,0.32813 0.203125,0.10937 0.578125,0.10937 0.265625,0 0.71875,-0.0625 z M 62.887756,26.92 V 13.56063 h 9.015624 v 1.57812 h -7.25 v 4.14063 H 70.919 V 20.8575 H 64.65338 V 26.92 Z m 9.942854,0 5.17187,-6.95312 -4.5625,-6.40625 h 2.10938 l 2.42187,3.4375 q 0.75,1.0625 1.07813,1.625 0.4375,-0.71875 1.04687,-1.51563 l 2.6875,-3.54687 h 1.92188 l -4.6875,6.29687 5.0625,7.0625 h -2.1875 l -3.35938,-4.76562 q -0.28125,-0.40625 -0.59375,-0.89063 -0.4375,0.73438 -0.625,1 L 74.95561,26.92 Z M 86.0398,22.62313 87.69605,22.4825 q 0.125,1 0.54688,1.64063 0.4375,0.64062 1.34375,1.04687 0.92187,0.39063 2.0625,0.39063 0.99999,0 1.78124,-0.29688 0.78125,-0.29687 1.15625,-0.8125 0.375,-0.53125 0.375,-1.15625 0,-0.625 -0.375,-1.09375 -0.35937,-0.46875 -1.1875,-0.79687 -0.54687,-0.20313 -2.39062,-0.64063 -1.82812,-0.45312 -2.5625,-0.84375 -0.96875,-0.5 -1.4375,-1.23437 -0.46875,-0.75 -0.46875,-1.67188 0,-1 0.57813,-1.875 0.57812,-0.89062 1.67187,-1.34375 1.10938,-0.45312 2.45313,-0.45312 1.48437,0 2.60937,0.48437 1.14063,0.46875 1.75,1.40625 0.60938,0.92188 0.65625,2.09375 l -1.6875,0.125 q -0.14062,-1.26562 -0.9375,-1.90625 -0.78125,-0.65625 -2.31249,-0.65625 -1.60937,0 -2.34375,0.59375 -0.73437,0.59375 -0.73437,1.42188 0,0.71875 0.53125,1.17187 0.5,0.46875 2.65625,0.96875 2.15624,0.48438 2.95311,0.84375 1.17188,0.53125 1.71875,1.35938 0.5625,0.82812 0.5625,1.90625 0,1.0625 -0.60937,2.01562 -0.60938,0.9375 -1.75,1.46875 -1.14063,0.51563 -2.57813,0.51563 -1.81249,0 -3.04686,-0.53125 -1.21875,-0.53125 -1.92188,-1.59375 -0.6875,-1.0625 -0.71876,-2.40625 z m 11.56857,4.29687 5.125,-13.35937 h 1.90625 L 110.10837,26.92 h -2.01563 l -1.54687,-4.04687 h -5.59375 L 99.48337,26.92 Z m 3.85937,-5.48437 h 4.53125 l -1.40625,-3.70313 q -0.625,-1.6875 -0.9375,-2.76562 -0.26562,1.28125 -0.71875,2.54687 z M 113.94777,26.92 108.7759,13.56063 h 1.92187 l 3.46875,9.70312 q 0.42188,1.17188 0.70313,2.1875 0.3125,-1.09375 0.71875,-2.1875 l 3.60937,-9.70312 h 1.79688 L 115.76027,26.92 Z m 8.66232,0 V 13.56063 h 9.65625 v 1.57812 h -7.875 v 4.09375 h 7.375 v 1.5625 h -7.375 v 4.54688 h 8.1875 V 26.92 Z"
       fill="#000000" />
    <path
       id="path1051"
       fill-rule="evenodd"
       d="m 841.07215,0 h 64.44098 v 36.8189 h -64.44098 z"
       fill-opacity="0"
       fill="#000000" />
    <path
       id="path1053"
       fill-rule="nonzero"
       d="m 886.91865,20.32625 q 0,-2.35937 0.48437,-3.79687 0.48438,-1.45313 1.4375,-2.23438 0.96875,-0.78125 2.42188,-0.78125 1.07812,0 1.89062,0.4375 0.8125,0.42188 1.32813,1.25 0.53125,0.8125 0.82812,1.98438 0.3125,1.15625 0.3125,3.14062 0,2.35938 -0.48437,3.8125 -0.48438,1.4375 -1.45313,2.23438 -0.95312,0.78125 -2.42187,0.78125 -1.92188,0 -3.03125,-1.39063 -1.3125,-1.67187 -1.3125,-5.4375 z m 1.67187,0 q 0,3.29688 0.76563,4.39063 0.78125,1.07812 1.90625,1.07812 1.14062,0 1.90625,-1.09375 0.76562,-1.09375 0.76562,-4.375 0,-3.29687 -0.76562,-4.375 -0.76563,-1.07812 -1.92188,-1.07812 -1.125,0 -1.79687,0.95312 -0.85938,1.21875 -0.85938,4.5 z"
       fill="#000000" />
    <path
       id="path1055"
       fill-rule="evenodd"
       d="m 539.4029,0 h 64.44092 V 36.8189 H 539.4029 Z"
       fill-opacity="0"
       fill="#000000" />
    <path
       id="path1057"
       fill-rule="nonzero"
       d="m 583.37367,16.84188 -1.625,0.125 q -0.21875,-0.96875 -0.625,-1.40625 -0.65625,-0.70313 -1.64063,-0.70313 -0.78125,0 -1.375,0.4375 -0.76562,0.5625 -1.21875,1.65625 -0.45312,1.07813 -0.46875,3.07813 0.59375,-0.89063 1.45313,-1.32813 0.85937,-0.4375 1.79687,-0.4375 1.64063,0 2.78125,1.20313 1.15625,1.20312 1.15625,3.10937 0,1.26563 -0.54687,2.34375 -0.53125,1.07813 -1.48438,1.65625 -0.9375,0.57813 -2.14062,0.57813 -2.0625,0 -3.35938,-1.5 -1.28125,-1.51563 -1.28125,-4.98438 0,-3.875 1.42188,-5.625 1.25,-1.53125 3.375,-1.53125 1.5625,0 2.5625,0.89063 1.01562,0.875 1.21875,2.4375 z m -6.6875,5.75 q 0,0.84375 0.35937,1.625 0.35938,0.76562 1,1.17187 0.64063,0.40625 1.35938,0.40625 1.03125,0 1.78125,-0.82812 0.75,-0.84375 0.75,-2.28125 0,-1.39063 -0.73438,-2.1875 -0.73437,-0.79688 -1.85937,-0.79688 -1.10938,0 -1.89063,0.79688 -0.76562,0.79687 -0.76562,2.09375 z M 590.49934,26.92 v -3.20312 h -5.79687 v -1.5 l 6.09375,-8.65625 h 1.34375 v 8.65625 h 1.79687 v 1.5 h -1.79687 V 26.92 Z m 0,-4.70312 v -6.01563 l -4.1875,6.01563 z"
       fill="#000000" />
    <path
       id="path1059"
       fill-rule="evenodd"
       d="m 237.7336,0 h 64.44095 V 36.8189 H 237.7336 Z"
       fill-opacity="0"
       fill="#000000" />
    <path
       id="path1061"
       fill-rule="nonzero"
       d="m 269.0005,26.92 h -1.64063 V 16.46688 q -0.59375,0.5625 -1.5625,1.14062 -0.95312,0.5625 -1.71875,0.84375 V 16.8575 q 1.375,-0.64062 2.40625,-1.5625 1.03125,-0.92187 1.45313,-1.78125 h 1.0625 z m 12.81323,-1.57812 V 26.92 h -8.82812 q -0.0156,-0.59375 0.1875,-1.14062 0.34375,-0.90625 1.07812,-1.78125 0.75,-0.875 2.15625,-2.01563 2.17188,-1.78125 2.9375,-2.82812 0.76563,-1.04688 0.76563,-1.96875 0,-0.98438 -0.70313,-1.64063 -0.6875,-0.67187 -1.8125,-0.67187 -1.1875,0 -1.90625,0.71875 -0.70312,0.70312 -0.70312,1.95312 l -1.6875,-0.17187 q 0.17187,-1.89063 1.29687,-2.875 1.14063,-0.98438 3.03125,-0.98438 1.92188,0 3.04688,1.0625 1.125,1.0625 1.125,2.64063 0,0.79687 -0.32813,1.57812 -0.32812,0.78125 -1.09375,1.64063 -0.75,0.84375 -2.53125,2.34375 -1.46875,1.23437 -1.89062,1.6875 -0.42188,0.4375 -0.6875,0.875 z m 4.28195,-5.65625 q -1.01562,-0.375 -1.51562,-1.0625 -0.48438,-0.70313 -0.48438,-1.67188 0,-1.45312 1.04688,-2.4375 1.04687,-1 2.78125,-1 1.75,0 2.8125,1.01563 1.07812,1.01562 1.07812,2.46875 0,0.9375 -0.5,1.625 -0.48437,0.6875 -1.46875,1.0625 1.21875,0.39062 1.85938,1.28125 0.65625,0.89062 0.65625,2.14062 0,1.70313 -1.21875,2.875 -1.21875,1.17188 -3.1875,1.17188 -1.98438,0 -3.20313,-1.17188 -1.20312,-1.17187 -1.20312,-2.92187 0,-1.3125 0.65625,-2.1875 0.67187,-0.875 1.89062,-1.1875 z m -0.32812,-2.78125 q 0,0.9375 0.60937,1.54687 0.60938,0.59375 1.59375,0.59375 0.9375,0 1.54688,-0.59375 0.60937,-0.59375 0.60937,-1.45312 0,-0.90625 -0.625,-1.51563 -0.625,-0.625 -1.5625,-0.625 -0.9375,0 -1.5625,0.60938 -0.60937,0.59375 -0.60937,1.4375 z m -0.53125,6.15625 q 0,0.70312 0.32812,1.35937 0.34375,0.65625 1,1.01563 0.65625,0.35937 1.40625,0.35937 1.17188,0 1.9375,-0.75 0.76563,-0.75 0.76563,-1.92187 0,-1.1875 -0.79688,-1.95313 -0.78125,-0.78125 -1.95312,-0.78125 -1.15625,0 -1.92188,0.76563 -0.76562,0.76562 -0.76562,1.90625 z"
       fill="#000000" />
    <path
       id="path1063"
       fill-rule="evenodd"
       d="m 0.50525,140.7664 h 301.66928 v 36.81889 H 0.50525 Z"
       fill="#cfe2f3" />
    <path
       id="path1065"
       fill-rule="evenodd"
       d="m 0.50525,140.7664 h 301.66928 v 36.81889 H 0.50525 Z"
       stroke-linecap="butt"
       stroke-linejoin="round"
       stroke-width="1"
       stroke="#000000" />
    <path
       id="path1067"
       fill-rule="nonzero"
       d="m 11.0365,166.09584 v -13.35938 h 9.015625 v 1.57813 h -7.25 v 4.14062 h 6.265625 v 1.57813 h -6.265625 v 6.0625 z m 11.302231,0 v -13.35938 h 4.609375 q 1.546879,0 2.375004,0.20313 1.140625,0.25 1.953125,0.95312 1.0625,0.89063 1.578125,2.28125 0.53125,1.39063 0.53125,3.17188 0,1.51562 -0.359375,2.70312 -0.359375,1.17188 -0.921875,1.9375 -0.546875,0.76563 -1.203125,1.21875 -0.65625,0.4375 -1.59375,0.67188 -0.9375,0.21875 -2.140629,0.21875 z m 1.765625,-1.57813 h 2.859375 q 1.312504,0 2.062504,-0.23437 0.75,-0.25 1.203125,-0.70313 0.625,-0.625 0.96875,-1.6875 0.359375,-1.0625 0.359375,-2.57812 0,-2.09375 -0.6875,-3.21875 -0.6875,-1.125 -1.671875,-1.5 -0.703125,-0.28125 -2.281254,-0.28125 h -2.8125 z m 11.707325,1.57813 v -13.35938 h 5.046875 q 1.328125,0 2.03125,0.125 0.96875,0.17188 1.640625,0.64063 0.671875,0.45312 1.078125,1.28125 0.40625,0.82812 0.40625,1.82812 0,1.70313 -1.09375,2.89063 -1.078125,1.17187 -3.921875,1.17187 h -3.421875 v 5.42188 z m 1.765625,-7 h 3.453125 q 1.71875,0 2.4375,-0.64063 0.71875,-0.64062 0.71875,-1.79687 0,-0.84375 -0.421875,-1.4375 -0.421875,-0.59375 -1.125,-0.78125 -0.4375,-0.125 -1.640625,-0.125 h -3.421875 z"
       fill="#000000" />
    <path
       id="path1069"
       fill-rule="evenodd"
       d="m 302.17454,140.7664 h 301.66928 v 36.81889 H 302.17454 Z"
       fill="#cfe2f3" />
    <path
       id="path1071"
       fill-rule="evenodd"
       d="m 302.17454,140.7664 h 301.66928 v 36.81889 H 302.17454 Z"
       stroke-linecap="butt"
       stroke-linejoin="round"
       stroke-width="1"
       stroke="#000000" />
    <path
       id="path1073"
       fill-rule="nonzero"
       d="m 312.7058,166.09584 v -13.35938 h 9.01563 v 1.57813 h -7.25 v 4.14062 h 6.26562 v 1.57813 h -6.26562 v 6.0625 z m 11.59909,0 v -13.35938 h 1.76563 v 13.35938 z m 4.88644,0 v -13.35938 h 5.04688 q 1.32812,0 2.03125,0.125 0.96875,0.17188 1.64062,0.64063 0.67188,0.45312 1.07813,1.28125 0.40625,0.82812 0.40625,1.82812 0,1.70313 -1.09375,2.89063 -1.07813,1.17187 -3.92188,1.17187 h -3.42187 v 5.42188 z m 1.76563,-7 h 3.45312 q 1.71875,0 2.4375,-0.64063 0.71875,-0.64062 0.71875,-1.79687 0,-0.84375 -0.42187,-1.4375 -0.42188,-0.59375 -1.125,-0.78125 -0.4375,-0.125 -1.64063,-0.125 h -3.42187 z"
       fill="#000000" />
    <path
       id="path1075"
       fill-rule="evenodd"
       d="m 603.8438,140.7664 h 301.6693 v 36.81889 H 603.8438 Z"
       fill="#fce5cd" />
    <path
       id="path1077"
       fill-rule="evenodd"
       d="m 603.8438,140.7664 h 301.6693 v 36.81889 H 603.8438 Z"
       stroke-linecap="butt"
       stroke-linejoin="round"
       stroke-width="1"
       stroke="#000000" />
    <path
       id="path1079"
       fill-rule="nonzero"
       d="m 614.4688,166.09584 v -8.40625 h -1.45313 v -1.26563 h 1.45313 v -1.03125 q 0,-0.96875 0.17187,-1.45312 0.23438,-0.64063 0.82813,-1.03125 0.59375,-0.39063 1.67187,-0.39063 0.6875,0 1.53125,0.15625 l -0.25,1.4375 q -0.5,-0.0937 -0.95312,-0.0937 -0.75,0 -1.0625,0.32813 -0.3125,0.3125 -0.3125,1.1875 v 0.89062 h 1.89062 v 1.26563 h -1.89062 v 8.40625 z m 4.18329,-4.84375 q 0,-2.6875 1.48437,-3.96875 1.25,-1.07813 3.04688,-1.07813 2,0 3.26562,1.3125 1.26563,1.29688 1.26563,3.60938 0,1.85937 -0.5625,2.9375 -0.5625,1.0625 -1.64063,1.65625 -1.0625,0.59375 -2.32812,0.59375 -2.03125,0 -3.28125,-1.29688 -1.25,-1.3125 -1.25,-3.76562 z m 1.6875,0 q 0,1.85937 0.79687,2.79687 0.8125,0.92188 2.04688,0.92188 1.21875,0 2.03125,-0.92188 0.8125,-0.9375 0.8125,-2.84375 0,-1.79687 -0.8125,-2.71875 -0.8125,-0.92187 -2.03125,-0.92187 -1.23438,0 -2.04688,0.92187 -0.79687,0.90625 -0.79687,2.76563 z m 9.29761,8.54687 v -13.375 h 1.48437 v 1.25 q 0.53125,-0.73437 1.1875,-1.09375 0.67188,-0.375 1.625,-0.375 1.23438,0 2.17188,0.64063 0.95312,0.625 1.4375,1.79687 0.48437,1.15625 0.48437,2.54688 0,1.48437 -0.53125,2.67187 -0.53125,1.1875 -1.54687,1.82813 -1.01563,0.625 -2.14063,0.625 -0.8125,0 -1.46875,-0.34375 -0.65625,-0.34375 -1.0625,-0.875 v 4.70312 z m 1.48437,-8.48437 q 0,1.85937 0.75,2.76562 0.76563,0.89063 1.82813,0.89063 1.09375,0 1.875,-0.92188 0.78125,-0.9375 0.78125,-2.875 0,-1.84375 -0.76563,-2.76562 -0.75,-0.92188 -1.8125,-0.92188 -1.04687,0 -1.85937,0.98438 -0.79688,0.96875 -0.79688,2.84375 z m 9.31323,4.78125 v -1.875 h 1.875 v 1.875 q 0,1.03125 -0.375,1.65625 -0.35937,0.64062 -1.15625,0.98437 l -0.45312,-0.70312 q 0.51562,-0.21875 0.76562,-0.67188 0.25,-0.4375 0.28125,-1.26562 z m 10.33533,0 v -8.40625 H 649.317 v -1.26563 h 1.45313 v -1.03125 q 0,-0.96875 0.17187,-1.45312 0.23438,-0.64063 0.82813,-1.03125 0.59375,-0.39063 1.67187,-0.39063 0.6875,0 1.53125,0.15625 l -0.25,1.4375 q -0.5,-0.0937 -0.95312,-0.0937 -0.75,0 -1.0625,0.32813 -0.3125,0.3125 -0.3125,1.1875 v 0.89062 h 1.89062 v 1.26563 h -1.89062 v 8.40625 z m 8.37085,-1.46875 0.23437,1.45312 q -0.6875,0.14063 -1.23437,0.14063 -0.89063,0 -1.39063,-0.28125 -0.48437,-0.28125 -0.6875,-0.73438 -0.20312,-0.46875 -0.20312,-1.9375 v -5.57812 h -1.20313 v -1.26563 h 1.20313 v -2.39062 l 1.625,-0.98438 v 3.375 h 1.65625 v 1.26563 h -1.65625 v 5.67187 q 0,0.6875 0.0781,0.89063 0.0937,0.20312 0.28125,0.32812 0.20313,0.10938 0.57813,0.10938 0.26562,0 0.71875,-0.0625 z m 7.91766,0.28125 q -0.92187,0.76562 -1.76562,1.09375 -0.82813,0.3125 -1.79688,0.3125 -1.59375,0 -2.45312,-0.78125 -0.85938,-0.78125 -0.85938,-1.98438 0,-0.71875 0.32813,-1.29687 0.32812,-0.59375 0.84375,-0.9375 0.53125,-0.35938 1.1875,-0.54688 0.46875,-0.125 1.45312,-0.25 1.98438,-0.23437 2.92188,-0.5625 0.0156,-0.34375 0.0156,-0.42187 0,-1 -0.46875,-1.42188 -0.625,-0.54687 -1.875,-0.54687 -1.15625,0 -1.70312,0.40625 -0.54688,0.40625 -0.8125,1.42187 l -1.60938,-0.21875 q 0.21875,-1.01562 0.71875,-1.64062 0.5,-0.64063 1.45313,-0.98438 0.95312,-0.34375 2.1875,-0.34375 1.25,0 2.01562,0.29688 0.78125,0.28125 1.14063,0.73437 0.375,0.4375 0.51562,1.10938 0.0781,0.42187 0.0781,1.51562 v 2.1875 q 0,2.28125 0.10937,2.89063 0.10938,0.59375 0.40625,1.15625 h -1.70312 q -0.26563,-0.51563 -0.32813,-1.1875 z m -0.14062,-3.67188 q -0.89063,0.375 -2.67188,0.625 -1.01562,0.14063 -1.4375,0.32813 -0.42187,0.1875 -0.65625,0.53125 -0.21875,0.34375 -0.21875,0.78125 0,0.65625 0.5,1.09375 0.5,0.4375 1.45313,0.4375 0.9375,0 1.67187,-0.40625 0.75,-0.42188 1.09375,-1.14063 0.26563,-0.5625 0.26563,-1.64062 z m 3.89136,5.65625 1.59375,0.23438 q 0.10937,0.75 0.5625,1.07812 0.60937,0.45313 1.67187,0.45313 1.14063,0 1.75,-0.45313 0.625,-0.45312 0.84375,-1.26562 0.125,-0.5 0.10938,-2.10938 -1.0625,1.26563 -2.67188,1.26563 -2,0 -3.09375,-1.4375 -1.09375,-1.4375 -1.09375,-3.45313 0,-1.39062 0.5,-2.5625 0.51563,-1.17187 1.45313,-1.79687 0.95312,-0.64063 2.25,-0.64063 1.70312,0 2.8125,1.375 v -1.15625 h 1.51562 v 8.35938 q 0,2.26562 -0.46875,3.20312 -0.45312,0.9375 -1.45312,1.48438 -0.98438,0.54687 -2.45313,0.54687 -1.71875,0 -2.79687,-0.78125 -1.0625,-0.76562 -1.03125,-2.34375 z m 1.35937,-5.8125 q 0,1.90625 0.75,2.78125 0.76563,0.875 1.90625,0.875 1.125,0 1.89063,-0.85937 0.76562,-0.875 0.76562,-2.73438 0,-1.78125 -0.79687,-2.67187 -0.78125,-0.90625 -1.89063,-0.90625 -1.09375,0 -1.85937,0.89062 -0.76563,0.875 -0.76563,2.625 z m 9.75067,5.01563 v -1.875 h 1.875 v 1.875 q 0,1.03125 -0.375,1.65625 -0.35937,0.64062 -1.15625,0.98437 l -0.45312,-0.70312 q 0.51562,-0.21875 0.76562,-0.67188 0.25,-0.4375 0.28125,-1.26562 z m 10.33539,0 v -8.40625 h -1.45313 v -1.26563 h 1.45313 v -1.03125 q 0,-0.96875 0.17187,-1.45312 0.23438,-0.64063 0.82813,-1.03125 0.59375,-0.39063 1.67187,-0.39063 0.6875,0 1.53125,0.15625 l -0.25,1.4375 q -0.5,-0.0937 -0.95312,-0.0937 -0.75,0 -1.0625,0.32813 -0.3125,0.3125 -0.3125,1.1875 v 0.89062 h 1.89062 v 1.26563 h -1.89062 v 8.40625 z m 4.13641,-2.89063 1.625,-0.25 q 0.125,0.96875 0.75,1.5 0.625,0.51563 1.75,0.51563 1.125,0 1.67188,-0.45313 0.54687,-0.46875 0.54687,-1.09375 0,-0.54687 -0.48437,-0.875 -0.32813,-0.21875 -1.67188,-0.54687 -1.8125,-0.46875 -2.51562,-0.79688 -0.6875,-0.32812 -1.04688,-0.90625 -0.35937,-0.59375 -0.35937,-1.3125 0,-0.64062 0.29687,-1.1875 0.29688,-0.5625 0.8125,-0.92187 0.375,-0.28125 1.03125,-0.46875 0.67188,-0.20313 1.42188,-0.20313 1.14062,0 2,0.32813 0.85937,0.32812 1.26562,0.89062 0.42188,0.5625 0.57813,1.5 l -1.60938,0.21875 q -0.10937,-0.75 -0.64062,-1.17187 -0.51563,-0.42188 -1.46875,-0.42188 -1.14063,0 -1.625,0.375 -0.46875,0.375 -0.46875,0.875 0,0.3125 0.1875,0.57813 0.20312,0.26562 0.64062,0.4375 0.23438,0.0937 1.4375,0.42187 1.75,0.45313 2.4375,0.75 0.6875,0.29688 1.07813,0.85938 0.39062,0.5625 0.39062,1.40625 0,0.82812 -0.48437,1.54687 -0.46875,0.71875 -1.375,1.125 -0.90625,0.39063 -2.04688,0.39063 -1.875,0 -2.875,-0.78125 -0.98437,-0.78125 -1.25,-2.32813 z m 13.5625,1.42188 0.23438,1.45312 q -0.6875,0.14063 -1.23438,0.14063 -0.89062,0 -1.39062,-0.28125 -0.48438,-0.28125 -0.6875,-0.73438 -0.20313,-0.46875 -0.20313,-1.9375 v -5.57812 h -1.20312 v -1.26563 h 1.20312 v -2.39062 l 1.625,-0.98438 v 3.375 h 1.65625 v 1.26563 h -1.65625 v 5.67187 q 0,0.6875 0.0781,0.89063 0.0937,0.20312 0.28125,0.32812 0.20312,0.10938 0.57812,0.10938 0.26563,0 0.71875,-0.0625 z m 7.91767,0.28125 q -0.92188,0.76562 -1.76563,1.09375 -0.82812,0.3125 -1.79687,0.3125 -1.59375,0 -2.45313,-0.78125 -0.85937,-0.78125 -0.85937,-1.98438 0,-0.71875 0.32812,-1.29687 0.32813,-0.59375 0.84375,-0.9375 0.53125,-0.35938 1.1875,-0.54688 0.46875,-0.125 1.45313,-0.25 1.98437,-0.23437 2.92187,-0.5625 0.0156,-0.34375 0.0156,-0.42187 0,-1 -0.46875,-1.42188 -0.625,-0.54687 -1.875,-0.54687 -1.15625,0 -1.70313,0.40625 -0.54687,0.40625 -0.8125,1.42187 l -1.60937,-0.21875 q 0.21875,-1.01562 0.71875,-1.64062 0.5,-0.64063 1.45312,-0.98438 0.95313,-0.34375 2.1875,-0.34375 1.25,0 2.01563,0.29688 0.78125,0.28125 1.14062,0.73437 0.375,0.4375 0.51563,1.10938 0.0781,0.42187 0.0781,1.51562 v 2.1875 q 0,2.28125 0.10938,2.89063 0.10937,0.59375 0.40625,1.15625 h -1.70313 q -0.26562,-0.51563 -0.32812,-1.1875 z m -0.14063,-3.67188 q -0.89062,0.375 -2.67187,0.625 -1.01563,0.14063 -1.4375,0.32813 -0.42188,0.1875 -0.65625,0.53125 -0.21875,0.34375 -0.21875,0.78125 0,0.65625 0.5,1.09375 0.5,0.4375 1.45312,0.4375 0.9375,0 1.67188,-0.40625 0.75,-0.42188 1.09375,-1.14063 0.26562,-0.5625 0.26562,-1.64062 z m 7.78198,3.39063 0.23438,1.45312 q -0.6875,0.14063 -1.23438,0.14063 -0.89062,0 -1.39062,-0.28125 -0.48438,-0.28125 -0.6875,-0.73438 -0.20313,-0.46875 -0.20313,-1.9375 v -5.57812 h -1.20312 v -1.26563 h 1.20312 v -2.39062 l 1.625,-0.98438 v 3.375 h 1.65625 v 1.26563 h -1.65625 v 5.67187 q 0,0.6875 0.0781,0.89063 0.0937,0.20312 0.28125,0.32812 0.20312,0.10938 0.57812,0.10938 0.26563,0 0.71875,-0.0625 z m 2.02704,1.46875 v -1.875 h 1.875 v 1.875 q 0,1.03125 -0.375,1.65625 -0.35937,0.64062 -1.15625,0.98437 l -0.45312,-0.70312 q 0.51562,-0.21875 0.76562,-0.67188 0.25,-0.4375 0.28125,-1.26562 z m 10.33539,0 v -8.40625 h -1.45312 v -1.26563 h 1.45312 v -1.03125 q 0,-0.96875 0.17188,-1.45312 0.23437,-0.64063 0.82812,-1.03125 0.59375,-0.39063 1.67188,-0.39063 0.6875,0 1.53125,0.15625 l -0.25,1.4375 q -0.5,-0.0937 -0.95313,-0.0937 -0.75,0 -1.0625,0.32813 -0.3125,0.3125 -0.3125,1.1875 v 0.89062 h 1.89063 v 1.26563 h -1.89063 v 8.40625 z m 11.10516,-3.54688 1.60938,0.21875 q -0.26563,1.65625 -1.35938,2.60938 -1.07812,0.9375 -2.67187,0.9375 -1.98438,0 -3.1875,-1.29688 -1.20313,-1.29687 -1.20313,-3.71875 0,-1.57812 0.51563,-2.75 0.51562,-1.17187 1.57812,-1.75 1.0625,-0.59375 2.3125,-0.59375 1.57813,0 2.57813,0.79688 1,0.79687 1.28125,2.26562 l -1.59375,0.23438 q -0.23438,-0.96875 -0.8125,-1.45313 -0.57813,-0.5 -1.39063,-0.5 -1.23437,0 -2.01562,0.89063 -0.78125,0.89062 -0.78125,2.8125 0,1.95312 0.75,2.84375 0.75,0.875 1.95312,0.875 0.96875,0 1.60938,-0.59375 0.65625,-0.59375 0.82812,-1.82813 z m 6.59375,2.07813 0.23438,1.45312 q -0.6875,0.14063 -1.23438,0.14063 -0.89062,0 -1.39062,-0.28125 -0.48438,-0.28125 -0.6875,-0.73438 -0.20313,-0.46875 -0.20313,-1.9375 v -5.57812 h -1.20312 v -1.26563 h 1.20312 v -2.39062 l 1.625,-0.98438 v 3.375 h 1.65625 v 1.26563 h -1.65625 v 5.67187 q 0,0.6875 0.0781,0.89063 0.0937,0.20312 0.28125,0.32812 0.20312,0.10938 0.57812,0.10938 0.26563,0 0.71875,-0.0625 z m 1.58954,1.46875 v -9.67188 h 1.46875 v 1.46875 q 0.5625,-1.03125 1.03125,-1.35937 0.48438,-0.32813 1.0625,-0.32813 0.82813,0 1.6875,0.53125 l -0.5625,1.51563 q -0.60937,-0.35938 -1.20312,-0.35938 -0.54688,0 -0.96875,0.32813 -0.42188,0.32812 -0.60938,0.89062 -0.28125,0.875 -0.28125,1.92188 v 5.0625 z m 6.18146,0 v -13.35938 h 1.64063 v 13.35938 z"
       fill="#000000" />
    <path
       id="path1081"
       fill-rule="evenodd"
       d="M 0.50525,103.94751 H 555.81232 V 140.7664 H 0.50525 Z"
       fill-opacity="0"
       fill="#000000" />
    <path
       id="path1083"
       fill-rule="nonzero"
       d="m 18.7865,120.78938 -1.625,0.125 q -0.21875,-0.96875 -0.625,-1.40625 -0.65625,-0.70313 -1.640625,-0.70313 -0.78125,0 -1.375,0.4375 -0.765625,0.5625 -1.21875,1.65625 -0.453125,1.07813 -0.46875,3.07813 0.59375,-0.89063 1.453125,-1.32813 0.859375,-0.4375 1.796875,-0.4375 1.640625,0 2.78125,1.20313 1.15625,1.20312 1.15625,3.10937 0,1.26563 -0.546875,2.34375 -0.53125,1.07813 -1.484375,1.65625 -0.9375,0.57813 -2.140625,0.57813 -2.0625,0 -3.359375,-1.5 -1.28125,-1.51563 -1.28125,-4.98438 0,-3.875 1.421875,-5.625 1.25,-1.53125 3.375,-1.53125 1.5625,0 2.5625,0.89063 1.015625,0.875 1.21875,2.4375 z m -6.6875,5.75 q 0,0.84375 0.359375,1.625 0.359375,0.76562 1,1.17187 0.640625,0.40625 1.359375,0.40625 1.03125,0 1.78125,-0.82812 0.75,-0.84375 0.75,-2.28125 0,-1.39063 -0.734375,-2.1875 -0.734375,-0.79688 -1.859375,-0.79688 -1.109375,0 -1.890625,0.79688 Q 12.099,125.2425 12.099,126.53938 Z m 13.813217,4.32812 v -3.20312 h -5.796875 v -1.5 l 6.09375,-8.65625 h 1.34375 v 8.65625 h 1.796879 v 1.5 h -1.796879 v 3.20312 z m 0,-4.70312 v -6.01563 l -4.1875,6.01563 z m 4.938221,0.6875 v -1.64063 h 5.03125 v 1.64063 z m 8.353302,4.01562 h -1.515625 v -13.35937 h 1.640625 v 4.76562 q 1.046875,-1.29687 2.65625,-1.29687 0.890625,0 1.6875,0.35937 0.796875,0.35938 1.3125,1.01563 0.515625,0.64062 0.796875,1.5625 0.296875,0.92187 0.296875,1.96875 0,2.48437 -1.234375,3.84375 -1.21875,1.35937 -2.953125,1.35937 -1.703125,0 -2.6875,-1.4375 z m -0.01563,-4.90625 q 0,1.73438 0.484375,2.51563 0.765625,1.26562 2.09375,1.26562 1.078125,0 1.859375,-0.9375 0.78125,-0.9375 0.78125,-2.78125 0,-1.89062 -0.75,-2.79687 -0.75,-0.90625 -1.828125,-0.90625 -1.0625,0 -1.859375,0.9375 -0.78125,0.9375 -0.78125,2.70312 z m 8.891342,-6.5625 v -1.89062 h 1.640625 v 1.89062 z m 0,11.46875 v -9.67187 h 1.640625 v 9.67187 z m 7.722946,-1.46875 0.234375,1.45313 q -0.6875,0.14062 -1.234375,0.14062 -0.890625,0 -1.390625,-0.28125 -0.484375,-0.28125 -0.6875,-0.73437 -0.203125,-0.46875 -0.203125,-1.9375 v -5.57813 h -1.203125 v -1.26562 h 1.203125 V 118.805 l 1.625,-0.98437 v 3.375 h 1.65625 v 1.26562 h -1.65625 v 5.67188 q 0,0.6875 0.07813,0.89062 0.09375,0.20313 0.28125,0.32813 0.203125,0.10937 0.578125,0.10937 0.265625,0 0.71875,-0.0625 z m 7.085358,1.46875 v -13.35937 h 9.015624 v 1.57812 h -7.25 v 4.14063 H 70.919 v 1.57812 h -6.26562 v 6.0625 z m 9.942854,0 5.17187,-6.95312 -4.5625,-6.40625 h 2.10938 l 2.42187,3.4375 q 0.75,1.0625 1.07813,1.625 0.4375,-0.71875 1.04687,-1.51563 l 2.6875,-3.54687 h 1.92188 l -4.6875,6.29687 5.0625,7.0625 h -2.1875 l -3.35938,-4.76562 q -0.28125,-0.40625 -0.59375,-0.89063 -0.4375,0.73438 -0.625,1 l -3.35937,4.65625 z M 86.0398,126.57063 87.69605,126.43 q 0.125,1 0.54688,1.64063 0.4375,0.64062 1.34375,1.04687 0.92187,0.39063 2.0625,0.39063 0.99999,0 1.78124,-0.29688 0.78125,-0.29687 1.15625,-0.8125 0.375,-0.53125 0.375,-1.15625 0,-0.625 -0.375,-1.09375 -0.35937,-0.46875 -1.1875,-0.79687 -0.54687,-0.20313 -2.39062,-0.64063 -1.82812,-0.45312 -2.5625,-0.84375 -0.96875,-0.5 -1.4375,-1.23437 -0.46875,-0.75 -0.46875,-1.67188 0,-1 0.57813,-1.875 0.57812,-0.89062 1.67187,-1.34375 1.10938,-0.45312 2.45313,-0.45312 1.48437,0 2.60937,0.48437 1.14063,0.46875 1.75,1.40625 0.60938,0.92188 0.65625,2.09375 l -1.6875,0.125 q -0.14062,-1.26562 -0.9375,-1.90625 -0.78125,-0.65625 -2.31249,-0.65625 -1.60937,0 -2.34375,0.59375 -0.73437,0.59375 -0.73437,1.42188 0,0.71875 0.53125,1.17187 0.5,0.46875 2.65625,0.96875 2.15624,0.48438 2.95311,0.84375 1.17188,0.53125 1.71875,1.35938 0.5625,0.82812 0.5625,1.90625 0,1.0625 -0.60937,2.01562 -0.60938,0.9375 -1.75,1.46875 -1.14063,0.51563 -2.57813,0.51563 -1.81249,0 -3.04686,-0.53125 -1.21875,-0.53125 -1.92188,-1.59375 -0.6875,-1.0625 -0.71876,-2.40625 z m 11.56857,4.29687 5.125,-13.35937 h 1.90625 l 5.46875,13.35937 h -2.01563 l -1.54687,-4.04687 h -5.59375 l -1.46875,4.04687 z m 3.85937,-5.48437 h 4.53125 L 104.59274,121.68 q -0.625,-1.6875 -0.9375,-2.76562 -0.26562,1.28125 -0.71875,2.54687 z m 12.48003,5.48437 -5.17187,-13.35937 h 1.92187 l 3.46875,9.70312 q 0.42188,1.17188 0.70313,2.1875 0.3125,-1.09375 0.71875,-2.1875 l 3.60937,-9.70312 h 1.79688 l -5.23438,13.35937 z m 8.66232,0 v -13.35937 h 9.65625 v 1.57812 h -7.875 V 123.18 h 7.375 v 1.5625 h -7.375 v 4.54688 h 8.1875 v 1.57812 z"
       fill="#000000" />
    <path
       id="path1085"
       fill-rule="evenodd"
       d="m 841.07215,103.94751 h 64.44098 v 36.81889 h -64.44098 z"
       fill-opacity="0"
       fill="#000000" />
    <path
       id="path1087"
       fill-rule="nonzero"
       d="m 886.91865,124.27375 q 0,-2.35938 0.48437,-3.79688 0.48438,-1.45312 1.4375,-2.23437 0.96875,-0.78125 2.42188,-0.78125 1.07812,0 1.89062,0.4375 0.8125,0.42187 1.32813,1.25 0.53125,0.8125 0.82812,1.98437 0.3125,1.15625 0.3125,3.14063 0,2.35937 -0.48437,3.8125 -0.48438,1.4375 -1.45313,2.23437 -0.95312,0.78125 -2.42187,0.78125 -1.92188,0 -3.03125,-1.39062 -1.3125,-1.67188 -1.3125,-5.4375 z m 1.67187,0 q 0,3.29687 0.76563,4.39062 0.78125,1.07813 1.90625,1.07813 1.14062,0 1.90625,-1.09375 0.76562,-1.09375 0.76562,-4.375 0,-3.29688 -0.76562,-4.375 -0.76563,-1.07813 -1.92188,-1.07813 -1.125,0 -1.79687,0.95313 -0.85938,1.21875 -0.85938,4.5 z"
       fill="#000000" />
    <path
       id="path1089"
       fill-rule="evenodd"
       d="m 539.4029,103.94751 h 64.44092 V 140.7664 H 539.4029 Z"
       fill-opacity="0"
       fill="#000000" />
    <path
       id="path1091"
       fill-rule="nonzero"
       d="m 583.37367,120.78938 -1.625,0.125 q -0.21875,-0.96875 -0.625,-1.40625 -0.65625,-0.70313 -1.64063,-0.70313 -0.78125,0 -1.375,0.4375 -0.76562,0.5625 -1.21875,1.65625 -0.45312,1.07813 -0.46875,3.07813 0.59375,-0.89063 1.45313,-1.32813 0.85937,-0.4375 1.79687,-0.4375 1.64063,0 2.78125,1.20313 1.15625,1.20312 1.15625,3.10937 0,1.26563 -0.54687,2.34375 -0.53125,1.07813 -1.48438,1.65625 -0.9375,0.57813 -2.14062,0.57813 -2.0625,0 -3.35938,-1.5 -1.28125,-1.51563 -1.28125,-4.98438 0,-3.875 1.42188,-5.625 1.25,-1.53125 3.375,-1.53125 1.5625,0 2.5625,0.89063 1.01562,0.875 1.21875,2.4375 z m -6.6875,5.75 q 0,0.84375 0.35937,1.625 0.35938,0.76562 1,1.17187 0.64063,0.40625 1.35938,0.40625 1.03125,0 1.78125,-0.82812 0.75,-0.84375 0.75,-2.28125 0,-1.39063 -0.73438,-2.1875 -0.73437,-0.79688 -1.85937,-0.79688 -1.10938,0 -1.89063,0.79688 -0.76562,0.79687 -0.76562,2.09375 z m 13.81317,4.32812 v -3.20312 h -5.79687 v -1.5 l 6.09375,-8.65625 h 1.34375 v 8.65625 h 1.79687 v 1.5 h -1.79687 v 3.20312 z m 0,-4.70312 v -6.01563 l -4.1875,6.01563 z"
       fill="#000000" />
    <path
       id="path1093"
       fill-rule="evenodd"
       d="m 237.7336,103.94751 h 64.44095 V 140.7664 H 237.7336 Z"
       fill-opacity="0"
       fill="#000000" />
    <path
       id="path1095"
       fill-rule="nonzero"
       d="m 269.0005,130.8675 h -1.64063 v -10.45313 q -0.59375,0.5625 -1.5625,1.14063 -0.95312,0.5625 -1.71875,0.84375 V 120.805 q 1.375,-0.64063 2.40625,-1.5625 1.03125,-0.92188 1.45313,-1.78125 h 1.0625 z m 12.81323,-1.57813 v 1.57813 h -8.82812 q -0.0156,-0.59375 0.1875,-1.14063 0.34375,-0.90625 1.07812,-1.78125 0.75,-0.875 2.15625,-2.01562 2.17188,-1.78125 2.9375,-2.82813 0.76563,-1.04687 0.76563,-1.96875 0,-0.98437 -0.70313,-1.64062 -0.6875,-0.67188 -1.8125,-0.67188 -1.1875,0 -1.90625,0.71875 -0.70312,0.70313 -0.70312,1.95313 l -1.6875,-0.17188 q 0.17187,-1.89062 1.29687,-2.875 1.14063,-0.98437 3.03125,-0.98437 1.92188,0 3.04688,1.0625 1.125,1.0625 1.125,2.64062 0,0.79688 -0.32813,1.57813 -0.32812,0.78125 -1.09375,1.64062 -0.75,0.84375 -2.53125,2.34375 -1.46875,1.23438 -1.89062,1.6875 -0.42188,0.4375 -0.6875,0.875 z m 4.28195,-5.65625 q -1.01562,-0.375 -1.51562,-1.0625 -0.48438,-0.70312 -0.48438,-1.67187 0,-1.45313 1.04688,-2.4375 1.04687,-1 2.78125,-1 1.75,0 2.8125,1.01562 1.07812,1.01563 1.07812,2.46875 0,0.9375 -0.5,1.625 -0.48437,0.6875 -1.46875,1.0625 1.21875,0.39063 1.85938,1.28125 0.65625,0.89063 0.65625,2.14063 0,1.70312 -1.21875,2.875 -1.21875,1.17187 -3.1875,1.17187 -1.98438,0 -3.20313,-1.17187 -1.20312,-1.17188 -1.20312,-2.92188 0,-1.3125 0.65625,-2.1875 0.67187,-0.875 1.89062,-1.1875 z m -0.32812,-2.78125 q 0,0.9375 0.60937,1.54688 0.60938,0.59375 1.59375,0.59375 0.9375,0 1.54688,-0.59375 0.60937,-0.59375 0.60937,-1.45313 0,-0.90625 -0.625,-1.51562 -0.625,-0.625 -1.5625,-0.625 -0.9375,0 -1.5625,0.60937 -0.60937,0.59375 -0.60937,1.4375 z m -0.53125,6.15625 q 0,0.70313 0.32812,1.35938 0.34375,0.65625 1,1.01562 0.65625,0.35938 1.40625,0.35938 1.17188,0 1.9375,-0.75 0.76563,-0.75 0.76563,-1.92188 0,-1.1875 -0.79688,-1.95312 -0.78125,-0.78125 -1.95312,-0.78125 -1.15625,0 -1.92188,0.76562 -0.76562,0.76563 -0.76562,1.90625 z"
       fill="#000000" />
    <path
       id="path1097"
       fill-rule="evenodd"
       d="m 377.60237,36.8189 h 75.40158 v 36.81889 h -75.40158 z"
       fill="#d9ead3" />
    <path
       id="path1099"
       fill-rule="evenodd"
       d="m 377.60237,36.8189 h 75.40158 v 36.81889 h -75.40158 z"
       stroke-linecap="butt"
       stroke-linejoin="round"
       stroke-width="1"
       stroke="#000000" />
    <path
       id="path1101"
       fill-rule="nonzero"
       d="m 388.22737,62.14834 v -8.40625 h -1.45312 v -1.26563 h 1.45312 v -1.03125 q 0,-0.96875 0.17188,-1.45312 0.23437,-0.64063 0.82812,-1.03125 0.59375,-0.39063 1.67188,-0.39063 0.6875,0 1.53125,0.15625 l -0.25,1.4375 q -0.5,-0.0937 -0.95313,-0.0937 -0.75,0 -1.0625,0.32813 -0.3125,0.3125 -0.3125,1.1875 v 0.89062 h 1.89063 v 1.26563 h -1.89063 v 8.40625 z m 4.79266,-11.46875 v -1.89063 h 1.64063 v 1.89063 z m 0,11.46875 v -9.67188 h 1.64063 v 9.67188 z m 3.48859,-2.89063 1.625,-0.25 q 0.125,0.96875 0.75,1.5 0.625,0.51563 1.75,0.51563 1.125,0 1.67188,-0.45313 0.54687,-0.46875 0.54687,-1.09375 0,-0.54687 -0.48437,-0.875 -0.32813,-0.21875 -1.67188,-0.54687 -1.8125,-0.46875 -2.51562,-0.79688 -0.6875,-0.32812 -1.04688,-0.90625 -0.35937,-0.59375 -0.35937,-1.3125 0,-0.64062 0.29687,-1.1875 0.29688,-0.5625 0.8125,-0.92187 0.375,-0.28125 1.03125,-0.46875 0.67188,-0.20313 1.42188,-0.20313 1.14062,0 2,0.32813 0.85937,0.32812 1.26562,0.89062 0.42188,0.5625 0.57813,1.5 l -1.60938,0.21875 q -0.10937,-0.75 -0.64062,-1.17187 -0.51563,-0.42188 -1.46875,-0.42188 -1.14063,0 -1.625,0.375 -0.46875,0.375 -0.46875,0.875 0,0.3125 0.1875,0.57813 0.20312,0.26562 0.64062,0.4375 0.23438,0.0937 1.4375,0.42187 1.75,0.45313 2.4375,0.75 0.6875,0.29688 1.07813,0.85938 0.39062,0.5625 0.39062,1.40625 0,0.82812 -0.48437,1.54687 -0.46875,0.71875 -1.375,1.125 -0.90625,0.39063 -2.04688,0.39063 -1.875,0 -2.875,-0.78125 -0.98437,-0.78125 -1.25,-2.32813 z m 16.60938,-0.21875 1.6875,0.20313 q -0.40625,1.48437 -1.48438,2.3125 -1.07812,0.8125 -2.76562,0.8125 -2.125,0 -3.375,-1.29688 -1.23438,-1.3125 -1.23438,-3.67187 0,-2.45313 1.25,-3.79688 1.26563,-1.34375 3.26563,-1.34375 1.9375,0 3.15625,1.32813 1.23437,1.3125 1.23437,3.70312 0,0.15625 0,0.4375 h -7.21875 q 0.0937,1.59375 0.90625,2.45313 0.8125,0.84375 2.01563,0.84375 0.90625,0 1.54687,-0.46875 0.64063,-0.48438 1.01563,-1.51563 z m -5.39063,-2.65625 h 5.40625 q -0.10937,-1.21875 -0.625,-1.82812 -0.78125,-0.95313 -2.03125,-0.95313 -1.125,0 -1.90625,0.76563 -0.76562,0.75 -0.84375,2.01562 z m 8.82883,6.5625 1.59375,0.23438 q 0.10937,0.75 0.5625,1.07812 0.60937,0.45313 1.67187,0.45313 1.14063,0 1.75,-0.45313 0.625,-0.45312 0.84375,-1.26562 0.125,-0.5 0.10938,-2.10938 -1.0625,1.26563 -2.67188,1.26563 -2,0 -3.09375,-1.4375 -1.09375,-1.4375 -1.09375,-3.45313 0,-1.39062 0.5,-2.5625 0.51563,-1.17187 1.45313,-1.79687 0.95312,-0.64063 2.25,-0.64063 1.70312,0 2.8125,1.375 v -1.15625 h 1.51562 v 8.35938 q 0,2.26562 -0.46875,3.20312 -0.45312,0.9375 -1.45312,1.48438 -0.98438,0.54687 -2.45313,0.54687 -1.71875,0 -2.79687,-0.78125 -1.0625,-0.76562 -1.03125,-2.34375 z m 1.35937,-5.8125 q 0,1.90625 0.75,2.78125 0.76563,0.875 1.90625,0.875 1.125,0 1.89063,-0.85937 0.76562,-0.875 0.76562,-2.73438 0,-1.78125 -0.79687,-2.67187 -0.78125,-0.90625 -1.89063,-0.90625 -1.09375,0 -1.85937,0.89062 -0.76563,0.875 -0.76563,2.625 z"
       fill="#000000" />
    <path
       id="path1103"
       fill-rule="evenodd"
       d="m 302.18504,36.8189 h 75.40158 v 36.81889 h -75.40158 z"
       fill="#ead1dc" />
    <path
       id="path1105"
       fill-rule="evenodd"
       d="m 302.18504,36.8189 h 75.40158 v 36.81889 h -75.40158 z"
       stroke-linecap="butt"
       stroke-linejoin="round"
       stroke-width="1"
       stroke="#000000" />
    <path
       id="path1107"
       fill-rule="nonzero"
       d="m 315.5444,66.07022 q -1.35938,-1.70313 -2.29688,-4 -0.9375,-2.29688 -0.9375,-4.76563 0,-2.15625 0.70313,-4.14062 0.82812,-2.3125 2.53125,-4.59375 h 1.17187 q -1.09375,1.89062 -1.45312,2.70312 -0.54688,1.25 -0.875,2.625 -0.39063,1.70313 -0.39063,3.42188 0,4.375 2.71875,8.75 z m 3.07205,-3.92188 v -9.67187 h 1.46875 v 1.46875 q 0.5625,-1.03125 1.03125,-1.35938 0.48438,-0.32812 1.0625,-0.32812 0.82813,0 1.6875,0.53125 l -0.5625,1.51562 q -0.60937,-0.35937 -1.20312,-0.35937 -0.54688,0 -0.96875,0.32812 -0.42188,0.32813 -0.60938,0.89063 -0.28125,0.875 -0.28125,1.92187 v 5.0625 z m 5.57205,-2.89062 1.625,-0.25 q 0.125,0.96875 0.75,1.5 0.625,0.51562 1.75,0.51562 1.125,0 1.67188,-0.45312 0.54687,-0.46875 0.54687,-1.09375 0,-0.54688 -0.48437,-0.875 -0.32813,-0.21875 -1.67188,-0.54688 -1.8125,-0.46875 -2.51562,-0.79687 -0.6875,-0.32813 -1.04688,-0.90625 -0.35937,-0.59375 -0.35937,-1.3125 0,-0.64063 0.29687,-1.1875 0.29688,-0.5625 0.8125,-0.92188 0.375,-0.28125 1.03125,-0.46875 0.67188,-0.20312 1.42188,-0.20312 1.14062,0 2,0.32812 0.85937,0.32813 1.26562,0.89063 0.42188,0.5625 0.57813,1.5 l -1.60938,0.21875 q -0.10937,-0.75 -0.64062,-1.17188 -0.51563,-0.42187 -1.46875,-0.42187 -1.14063,0 -1.625,0.375 -0.46875,0.375 -0.46875,0.875 0,0.3125 0.1875,0.57812 0.20312,0.26563 0.64062,0.4375 0.23438,0.0937 1.4375,0.42188 1.75,0.45312 2.4375,0.75 0.6875,0.29687 1.07813,0.85937 0.39062,0.5625 0.39062,1.40625 0,0.82813 -0.48437,1.54688 -0.46875,0.71875 -1.375,1.125 -0.90625,0.39062 -2.04688,0.39062 -1.875,0 -2.875,-0.78125 -0.98437,-0.78125 -1.25,-2.32812 z m 12.67188,2.89062 -3.6875,-9.67187 h 1.73437 l 2.07813,5.79687 q 0.32812,0.9375 0.625,1.9375 0.20312,-0.76562 0.60937,-1.82812 l 2.14063,-5.90625 h 1.6875 l -3.65625,9.67187 z m 12.90625,0 v -1.21875 q -0.90625,1.4375 -2.70313,1.4375 -1.15625,0 -2.125,-0.64062 -0.96875,-0.64063 -1.5,-1.78125 -0.53125,-1.14063 -0.53125,-2.625 0,-1.45313 0.48438,-2.625 0.48437,-1.1875 1.4375,-1.8125 0.96875,-0.625 2.17187,-0.625 0.875,0 1.54688,0.375 0.6875,0.35937 1.10937,0.95312 v -4.79687 h 1.64063 v 13.35937 z m -5.17188,-4.82812 q 0,1.85937 0.78125,2.78125 0.78125,0.92187 1.84375,0.92187 1.07813,0 1.82813,-0.875 0.75,-0.89062 0.75,-2.6875 0,-1.98437 -0.76563,-2.90625 -0.76562,-0.9375 -1.89062,-0.9375 -1.07813,0 -1.8125,0.89063 -0.73438,0.89062 -0.73438,2.8125 z m 10.36008,8.75 h -1.1875 q 2.73438,-4.375 2.73438,-8.75 0,-1.71875 -0.39063,-3.39063 -0.3125,-1.375 -0.875,-2.625 -0.35937,-0.82812 -1.46875,-2.73437 h 1.1875 q 1.70313,2.28125 2.53125,4.59375 0.6875,1.98437 0.6875,4.14062 0,2.46875 -0.9375,4.76563 -0.9375,2.29687 -2.28125,4 z"
       fill="#000000" />
    <path
       id="path1109"
       fill-rule="evenodd"
       d="M 151.33465,36.8189 H 302.16929 V 73.63779 H 151.33465 Z"
       fill="#cfe2f3" />
    <path
       id="path1111"
       fill-rule="evenodd"
       d="M 151.33465,36.8189 H 302.16929 V 73.63779 H 151.33465 Z"
       stroke-linecap="butt"
       stroke-linejoin="round"
       stroke-width="1"
       stroke="#000000" />
    <path
       id="path1113"
       fill-rule="nonzero"
       d="m 161.95965,62.14834 v -8.40625 h -1.45313 v -1.26563 h 1.45313 v -1.03125 q 0,-0.96875 0.17187,-1.45312 0.23438,-0.64063 0.82813,-1.03125 0.59375,-0.39063 1.67187,-0.39063 0.6875,0 1.53125,0.15625 l -0.25,1.4375 q -0.5,-0.0937 -0.95312,-0.0937 -0.75,0 -1.0625,0.32813 -0.3125,0.3125 -0.3125,1.1875 v 0.89062 h 1.89062 v 1.26563 h -1.89062 v 8.40625 z m 4.1833,-4.84375 q 0,-2.6875 1.48438,-3.96875 1.25,-1.07813 3.04687,-1.07813 2,0 3.26563,1.3125 1.26562,1.29688 1.26562,3.60938 0,1.85937 -0.5625,2.9375 -0.5625,1.0625 -1.64062,1.65625 -1.0625,0.59375 -2.32813,0.59375 -2.03125,0 -3.28125,-1.29688 -1.25,-1.3125 -1.25,-3.76562 z m 1.6875,0 q 0,1.85937 0.79688,2.79687 0.8125,0.92188 2.04687,0.92188 1.21875,0 2.03125,-0.92188 0.8125,-0.9375 0.8125,-2.84375 0,-1.79687 -0.8125,-2.71875 -0.8125,-0.92187 -2.03125,-0.92187 -1.23437,0 -2.04687,0.92187 -0.79688,0.90625 -0.79688,2.76563 z m 8.68822,0 q 0,-2.6875 1.48438,-3.96875 1.25,-1.07813 3.04687,-1.07813 2,0 3.26563,1.3125 1.26562,1.29688 1.26562,3.60938 0,1.85937 -0.5625,2.9375 -0.5625,1.0625 -1.64062,1.65625 -1.0625,0.59375 -2.32813,0.59375 -2.03125,0 -3.28125,-1.29688 -1.25,-1.3125 -1.25,-3.76562 z m 1.6875,0 q 0,1.85937 0.79688,2.79687 0.8125,0.92188 2.04687,0.92188 1.21875,0 2.03125,-0.92188 0.8125,-0.9375 0.8125,-2.84375 0,-1.79687 -0.8125,-2.71875 -0.8125,-0.92187 -2.03125,-0.92187 -1.23437,0 -2.04687,0.92187 -0.79688,0.90625 -0.79688,2.76563 z m 9.68822,4.84375 v -8.40625 h -1.45313 v -1.26563 h 1.45313 v -1.03125 q 0,-0.96875 0.17187,-1.45312 0.23438,-0.64063 0.82813,-1.03125 0.59375,-0.39063 1.67187,-0.39063 0.6875,0 1.53125,0.15625 l -0.25,1.4375 q -0.5,-0.0937 -0.95312,-0.0937 -0.75,0 -1.0625,0.32813 -0.3125,0.3125 -0.3125,1.1875 v 0.89062 h 1.89062 v 1.26563 h -1.89062 v 8.40625 z m 4.84607,0 v -8.40625 h -1.45313 v -1.26563 h 1.45313 v -1.03125 q 0,-0.96875 0.17187,-1.45312 0.23438,-0.64063 0.82813,-1.03125 0.59375,-0.39063 1.67187,-0.39063 0.6875,0 1.53125,0.15625 l -0.25,1.4375 q -0.5,-0.0937 -0.95312,-0.0937 -0.75,0 -1.0625,0.32813 -0.3125,0.3125 -0.3125,1.1875 v 0.89062 h 1.89062 v 1.26563 h -1.89062 v 8.40625 z m 13.10098,3.92187 q -1.35937,-1.70312 -2.29687,-4 -0.9375,-2.29687 -0.9375,-4.76562 0,-2.15625 0.70312,-4.14063 0.82813,-2.3125 2.53125,-4.59375 h 1.17188 q -1.09375,1.89063 -1.45313,2.70313 -0.54687,1.25 -0.875,2.625 -0.39062,1.70312 -0.39062,3.42187 0,4.375 2.71875,8.75 z m 3.38455,-3.92187 V 48.78896 h 9.01563 v 1.57813 h -7.25 v 4.14062 h 6.26562 v 1.57813 h -6.26562 v 6.0625 z m 11.30222,0 V 48.78896 h 4.60937 q 1.54688,0 2.375,0.20313 1.14063,0.25 1.95313,0.95312 1.0625,0.89063 1.57812,2.28125 0.53125,1.39063 0.53125,3.17188 0,1.51562 -0.35937,2.70312 -0.35938,1.17188 -0.92188,1.9375 -0.54687,0.76563 -1.20312,1.21875 -0.65625,0.4375 -1.59375,0.67188 -0.9375,0.21875 -2.14063,0.21875 z m 1.76562,-1.57813 h 2.85938 q 1.3125,0 2.0625,-0.23437 0.75,-0.25 1.20312,-0.70313 0.625,-0.625 0.96875,-1.6875 0.35938,-1.0625 0.35938,-2.57812 0,-2.09375 -0.6875,-3.21875 -0.6875,-1.125 -1.67188,-1.5 -0.70312,-0.28125 -2.28125,-0.28125 h -2.8125 z m 11.70734,1.57813 V 48.78896 h 5.04687 q 1.32813,0 2.03125,0.125 0.96875,0.17188 1.64063,0.64063 0.67187,0.45312 1.07812,1.28125 0.40625,0.82812 0.40625,1.82812 0,1.70313 -1.09375,2.89063 -1.07812,1.17187 -3.92187,1.17187 h -3.42188 v 5.42188 z m 1.76562,-7 h 3.45313 q 1.71875,0 2.4375,-0.64063 0.71875,-0.64062 0.71875,-1.79687 0,-0.84375 -0.42188,-1.4375 -0.42187,-0.59375 -1.125,-0.78125 -0.4375,-0.125 -1.64062,-0.125 h -3.42188 z m 10.50608,10.70312 v -17.0625 h 3.60937 v 1.35938 h -1.96875 v 14.34375 h 1.96875 v 1.35937 z m 5.60516,-11.51562 v -1.85938 h 1.85938 v 1.85938 z m 0,7.8125 v -1.875 h 1.85938 v 1.875 z m 4.27707,-3.53125 1.64062,-0.21875 q 0.28125,1.40625 0.95313,2.01562 0.6875,0.60938 1.65625,0.60938 1.15625,0 1.95312,-0.79688 0.79688,-0.79687 0.79688,-1.98437 0,-1.125 -0.73438,-1.85938 -0.73437,-0.73437 -1.875,-0.73437 -0.46875,0 -1.15625,0.17187 l 0.1875,-1.4375 q 0.15625,0.0156 0.26563,0.0156 1.04687,0 1.875,-0.54688 0.84375,-0.54687 0.84375,-1.67187 0,-0.90625 -0.60938,-1.5 -0.60937,-0.59375 -1.57812,-0.59375 -0.95313,0 -1.59375,0.60937 -0.64063,0.59375 -0.8125,1.79688 l -1.64063,-0.29688 q 0.29688,-1.64062 1.35938,-2.54687 1.0625,-0.90625 2.65625,-0.90625 1.09375,0 2,0.46875 0.92187,0.46875 1.40625,1.28125 0.5,0.8125 0.5,1.71875 0,0.85937 -0.46875,1.57812 -0.46875,0.70313 -1.375,1.125 1.1875,0.28125 1.84375,1.14063 0.65625,0.85937 0.65625,2.15625 0,1.73437 -1.28125,2.95312 -1.26563,1.21875 -3.21875,1.21875 -1.76563,0 -2.92188,-1.04687 -1.15625,-1.04688 -1.32812,-2.71875 z m 16.54758,3.53125 h -1.64063 V 51.69521 q -0.59375,0.5625 -1.5625,1.14063 -0.95312,0.5625 -1.71875,0.84375 v -1.59375 q 1.375,-0.64063 2.40625,-1.5625 1.03125,-0.92188 1.45313,-1.78125 h 1.0625 z m 7.39135,3.70312 h -3.60937 v -1.35937 h 1.96875 V 50.14834 h -1.96875 v -1.35938 h 3.60937 z m 3.52704,0.21875 h -1.1875 q 2.73438,-4.375 2.73438,-8.75 0,-1.71875 -0.39063,-3.39062 -0.3125,-1.375 -0.875,-2.625 -0.35937,-0.82813 -1.46875,-2.73438 h 1.1875 q 1.70313,2.28125 2.53125,4.59375 0.6875,1.98438 0.6875,4.14063 0,2.46875 -0.9375,4.76562 -0.9375,2.29688 -2.28125,4 z"
       fill="#000000" />
    <path
       id="path1115"
       fill-rule="evenodd"
       d="M 75.91732,36.8189 H 151.3189 V 73.63779 H 75.91732 Z"
       fill="#d9ead3" />
    <path
       id="path1117"
       fill-rule="evenodd"
       d="M 75.91732,36.8189 H 151.3189 V 73.63779 H 75.91732 Z"
       stroke-linecap="butt"
       stroke-linejoin="round"
       stroke-width="1"
       stroke="#000000" />
    <path
       id="path1119"
       fill-rule="nonzero"
       d="m 86.54232,62.14834 v -8.40625 h -1.45313 v -1.26563 h 1.45313 v -1.03125 q 0,-0.96875 0.17187,-1.45312 0.23438,-0.64063 0.82813,-1.03125 0.59375,-0.39063 1.67187,-0.39063 0.6875,0 1.53125,0.15625 l -0.25,1.4375 q -0.5,-0.0937 -0.95312,-0.0937 -0.75,0 -1.0625,0.32813 -0.3125,0.3125 -0.3125,1.1875 v 0.89062 h 1.89062 v 1.26563 h -1.89062 v 8.40625 z m 4.1833,-4.84375 q 0,-2.6875 1.48438,-3.96875 1.25,-1.07813 3.04687,-1.07813 2,0 3.26563,1.3125 1.26562,1.29688 1.26562,3.60938 0,1.85937 -0.5625,2.9375 -0.5625,1.0625 -1.64062,1.65625 -1.0625,0.59375 -2.32813,0.59375 -2.03125,0 -3.28125,-1.29688 -1.25,-1.3125 -1.25,-3.76562 z m 1.6875,0 q 0,1.85937 0.79688,2.79687 0.8125,0.92188 2.04687,0.92188 1.21875,0 2.03125,-0.92188 0.8125,-0.9375 0.8125,-2.84375 0,-1.79687 -0.8125,-2.71875 -0.8125,-0.92187 -2.03125,-0.92187 -1.23437,0 -2.04687,0.92187 -0.79688,0.90625 -0.79688,2.76563 z m 8.64135,1.95312 1.625,-0.25 q 0.125,0.96875 0.75,1.5 0.625,0.51563 1.75,0.51563 1.125,0 1.67187,-0.45313 0.54688,-0.46875 0.54688,-1.09375 0,-0.54687 -0.48438,-0.875 -0.32812,-0.21875 -1.67187,-0.54687 -1.8125,-0.46875 -2.51563,-0.79688 -0.6875,-0.32812 -1.04687,-0.90625 -0.35938,-0.59375 -0.35938,-1.3125 0,-0.64062 0.29688,-1.1875 0.29687,-0.5625 0.8125,-0.92187 0.375,-0.28125 1.03125,-0.46875 0.67187,-0.20313 1.42187,-0.20313 1.14063,0 2,0.32813 0.85938,0.32812 1.26563,0.89062 0.42187,0.5625 0.57812,1.5 l -1.60937,0.21875 q -0.10938,-0.75 -0.64063,-1.17187 -0.51562,-0.42188 -1.46875,-0.42188 -1.14062,0 -1.625,0.375 -0.46875,0.375 -0.46875,0.875 0,0.3125 0.1875,0.57813 0.20313,0.26562 0.64063,0.4375 0.23437,0.0937 1.4375,0.42187 1.75,0.45313 2.4375,0.75 0.6875,0.29688 1.07812,0.85938 0.39063,0.5625 0.39063,1.40625 0,0.82812 -0.48438,1.54687 -0.46875,0.71875 -1.375,1.125 -0.90625,0.39063 -2.04687,0.39063 -1.875,0 -2.875,-0.78125 -0.98438,-0.78125 -1.25,-2.32813 z m 16.60937,-0.21875 1.6875,0.20313 q -0.40625,1.48437 -1.48437,2.3125 -1.07813,0.8125 -2.76563,0.8125 -2.125,0 -3.375,-1.29688 -1.23437,-1.3125 -1.23437,-3.67187 0,-2.45313 1.25,-3.79688 1.26562,-1.34375 3.26562,-1.34375 1.9375,0 3.15625,1.32813 1.23438,1.3125 1.23438,3.70312 0,0.15625 0,0.4375 h -7.21875 q 0.0937,1.59375 0.90625,2.45313 0.8125,0.84375 2.01562,0.84375 0.90625,0 1.54688,-0.46875 0.64062,-0.48438 1.01562,-1.51563 z m -5.39062,-2.65625 h 5.40625 q -0.10938,-1.21875 -0.625,-1.82812 -0.78125,-0.95313 -2.03125,-0.95313 -1.125,0 -1.90625,0.76563 -0.76563,0.75 -0.84375,2.01562 z m 8.82884,6.5625 1.59375,0.23438 q 0.10937,0.75 0.5625,1.07812 0.60937,0.45313 1.67187,0.45313 1.14063,0 1.75,-0.45313 0.625,-0.45312 0.84375,-1.26562 0.125,-0.5 0.10938,-2.10938 -1.0625,1.26563 -2.67188,1.26563 -2,0 -3.09375,-1.4375 -1.09375,-1.4375 -1.09375,-3.45313 0,-1.39062 0.5,-2.5625 0.51563,-1.17187 1.45313,-1.79687 0.95312,-0.64063 2.25,-0.64063 1.70312,0 2.8125,1.375 v -1.15625 h 1.51562 v 8.35938 q 0,2.26562 -0.46875,3.20312 -0.45312,0.9375 -1.45312,1.48438 -0.98438,0.54687 -2.45313,0.54687 -1.71875,0 -2.79687,-0.78125 -1.0625,-0.76562 -1.03125,-2.34375 z m 1.35937,-5.8125 q 0,1.90625 0.75,2.78125 0.76563,0.875 1.90625,0.875 1.125,0 1.89063,-0.85937 0.76562,-0.875 0.76562,-2.73438 0,-1.78125 -0.79687,-2.67187 -0.78125,-0.90625 -1.89063,-0.90625 -1.09375,0 -1.85937,0.89062 -0.76563,0.875 -0.76563,2.625 z"
       fill="#000000" />
    <path
       id="path1121"
       fill-rule="evenodd"
       d="M 0.5,36.8189 H 75.90158 V 73.63779 H 0.5 Z"
       fill="#ead1dc" />
    <path
       id="path1123"
       fill-rule="evenodd"
       d="M 0.5,36.8189 H 75.90158 V 73.63779 H 0.5 Z"
       stroke-linecap="butt"
       stroke-linejoin="round"
       stroke-width="1"
       stroke="#000000" />
    <path
       id="path1125"
       fill-rule="nonzero"
       d="m 13.859374,66.07022 q -1.359375,-1.70313 -2.296875,-4 -0.9375,-2.29688 -0.9375,-4.76563 0,-2.15625 0.703125,-4.14062 0.828125,-2.3125 2.53125,-4.59375 h 1.171875 q -1.09375,1.89062 -1.453125,2.70312 -0.546875,1.25 -0.875,2.625 -0.390625,1.70313 -0.390625,3.42188 0,4.375 2.71875,8.75 z m 3.072052,-3.92188 v -9.67187 h 1.46875 v 1.46875 q 0.5625,-1.03125 1.03125,-1.35938 0.484375,-0.32812 1.0625,-0.32812 0.828125,0 1.6875,0.53125 l -0.5625,1.51562 q -0.609375,-0.35937 -1.203125,-0.35937 -0.546875,0 -0.96875,0.32812 -0.421875,0.32813 -0.609375,0.89063 -0.28125,0.875 -0.28125,1.92187 v 5.0625 z m 5.572052,-2.89062 1.625,-0.25 q 0.125,0.96875 0.75,1.5 0.625,0.51562 1.75,0.51562 1.124996,0 1.671871,-0.45312 0.546875,-0.46875 0.546875,-1.09375 0,-0.54688 -0.484375,-0.875 -0.328125,-0.21875 -1.671871,-0.54688 -1.8125,-0.46875 -2.515625,-0.79687 -0.6875,-0.32813 -1.046875,-0.90625 -0.359375,-0.59375 -0.359375,-1.3125 0,-0.64063 0.296875,-1.1875 0.296875,-0.5625 0.8125,-0.92188 0.375,-0.28125 1.03125,-0.46875 0.671875,-0.20312 1.421875,-0.20312 1.140625,0 1.999996,0.32812 0.859375,0.32813 1.265625,0.89063 0.421875,0.5625 0.578125,1.5 l -1.609375,0.21875 q -0.109375,-0.75 -0.640625,-1.17188 -0.515621,-0.42187 -1.468746,-0.42187 -1.140625,0 -1.625,0.375 -0.46875,0.375 -0.46875,0.875 0,0.3125 0.1875,0.57812 0.203125,0.26563 0.640625,0.4375 0.234375,0.0937 1.4375,0.42188 1.749996,0.45312 2.437496,0.75 0.6875,0.29687 1.078125,0.85937 0.390625,0.5625 0.390625,1.40625 0,0.82813 -0.484375,1.54688 -0.46875,0.71875 -1.375,1.125 -0.90625,0.39062 -2.046871,0.39062 -1.875,0 -2.875,-0.78125 -0.984375,-0.78125 -1.25,-2.32812 z m 12.671871,2.89062 -3.6875,-9.67187 h 1.734375 l 2.078125,5.79687 q 0.328125,0.9375 0.625,1.9375 0.203125,-0.76562 0.609375,-1.82812 l 2.140625,-5.90625 h 1.6875 l -3.65625,9.67187 z m 12.90625,0 v -1.21875 q -0.90625,1.4375 -2.703125,1.4375 -1.15625,0 -2.125,-0.64062 -0.96875,-0.64063 -1.5,-1.78125 -0.53125,-1.14063 -0.53125,-2.625 0,-1.45313 0.484375,-2.625 0.484375,-1.1875 1.4375,-1.8125 0.96875,-0.625 2.171875,-0.625 0.875,0 1.546875,0.375 0.6875,0.35937 1.109375,0.95312 v -4.79687 h 1.640625 v 13.35937 z m -5.171875,-4.82812 q 0,1.85937 0.78125,2.78125 0.78125,0.92187 1.84375,0.92187 1.078125,0 1.828125,-0.875 0.75,-0.89062 0.75,-2.6875 0,-1.98437 -0.765625,-2.90625 -0.765625,-0.9375 -1.890625,-0.9375 -1.078125,0 -1.8125,0.89063 -0.734375,0.89062 -0.734375,2.8125 z m 10.360092,8.75 h -1.1875 q 2.734375,-4.375 2.734375,-8.75 0,-1.71875 -0.390625,-3.39063 -0.3125,-1.375 -0.875,-2.625 -0.359375,-0.82812 -1.46875,-2.73437 h 1.1875 q 1.703125,2.28125 2.53125,4.59375 0.6875,1.98437 0.6875,4.14062 0,2.46875 -0.9375,4.76563 -0.9375,2.29687 -2.28125,4 z"
       fill="#000000" />
    <path
       id="path1127"
       fill-rule="evenodd"
       d="M 388.56825,0 H 453.0092 V 36.8189 H 388.56825 Z"
       fill-opacity="0"
       fill="#000000" />
    <path
       id="path1129"
       fill-rule="nonzero"
       d="m 424.2734,23.82625 1.57812,-0.14062 q 0.20313,1.10937 0.76563,1.60937 0.5625,0.5 1.45312,0.5 0.75,0 1.3125,-0.34375 0.57813,-0.34375 0.9375,-0.92187 0.375,-0.57813 0.60938,-1.5625 0.25,-0.98438 0.25,-2 0,-0.10938 0,-0.32813 -0.5,0.78125 -1.35938,1.26563 -0.84375,0.48437 -1.82812,0.48437 -1.67188,0 -2.8125,-1.20312 -1.14063,-1.20313 -1.14063,-3.17188 0,-2.03125 1.1875,-3.26562 1.20313,-1.23438 3,-1.23438 1.3125,0 2.39063,0.70313 1.07812,0.70312 1.64062,2 0.5625,1.29687 0.5625,3.75 0,2.5625 -0.5625,4.07812 -0.5625,1.51563 -1.65625,2.3125 -1.09375,0.79688 -2.57812,0.79688 -1.5625,0 -2.5625,-0.875 -0.98438,-0.875 -1.1875,-2.45313 z m 6.71875,-5.89062 q 0,-1.40625 -0.75,-2.23438 -0.75,-0.82812 -1.8125,-0.82812 -1.09375,0 -1.90625,0.89062 -0.8125,0.89063 -0.8125,2.3125 0,1.28125 0.76562,2.07813 0.78125,0.79687 1.90625,0.79687 1.14063,0 1.875,-0.79687 0.73438,-0.79688 0.73438,-2.21875 z m 11.92258,-1.09375 -1.625,0.125 q -0.21875,-0.96875 -0.625,-1.40625 -0.65625,-0.70313 -1.64063,-0.70313 -0.78125,0 -1.375,0.4375 -0.76562,0.5625 -1.21875,1.65625 -0.45312,1.07813 -0.46875,3.07813 0.59375,-0.89063 1.45313,-1.32813 0.85937,-0.4375 1.79687,-0.4375 1.64063,0 2.78125,1.20313 1.15625,1.20312 1.15625,3.10937 0,1.26563 -0.54687,2.34375 -0.53125,1.07813 -1.48438,1.65625 -0.9375,0.57813 -2.14062,0.57813 -2.0625,0 -3.35938,-1.5 -1.28125,-1.51563 -1.28125,-4.98438 0,-3.875 1.42188,-5.625 1.25,-1.53125 3.375,-1.53125 1.5625,0 2.5625,0.89063 1.01562,0.875 1.21875,2.4375 z m -6.6875,5.75 q 0,0.84375 0.35937,1.625 0.35938,0.76562 1,1.17187 0.64063,0.40625 1.35938,0.40625 1.03125,0 1.78125,-0.82812 0.75,-0.84375 0.75,-2.28125 0,-1.39063 -0.73438,-2.1875 -0.73437,-0.79688 -1.85937,-0.79688 -1.10938,0 -1.89063,0.79688 -0.76562,0.79687 -0.76562,2.09375 z"
       fill="#000000" />
    <path
       id="path1131"
       fill-rule="evenodd"
       d="m 313.15092,0 h 64.44095 v 36.8189 h -64.44095 z"
       fill-opacity="0"
       fill="#000000" />
    <path
       id="path1133"
       fill-rule="nonzero"
       d="m 345.80326,26.92 h -1.64063 V 16.46688 q -0.59375,0.5625 -1.5625,1.14062 -0.95312,0.5625 -1.71875,0.84375 V 16.8575 q 1.375,-0.64062 2.40625,-1.5625 1.03125,-0.92187 1.45313,-1.78125 h 1.0625 z m 8.99029,0 h -1.64062 V 16.46688 q -0.59375,0.5625 -1.5625,1.14062 -0.95313,0.5625 -1.71875,0.84375 V 16.8575 q 1.375,-0.64062 2.40625,-1.5625 1.03125,-0.92187 1.45312,-1.78125 h 1.0625 z m 12.81321,-1.57812 V 26.92 h -8.82813 q -0.0156,-0.59375 0.1875,-1.14062 0.34375,-0.90625 1.07813,-1.78125 0.75,-0.875 2.15625,-2.01563 2.17187,-1.78125 2.9375,-2.82812 0.76562,-1.04688 0.76562,-1.96875 0,-0.98438 -0.70312,-1.64063 -0.6875,-0.67187 -1.8125,-0.67187 -1.1875,0 -1.90625,0.71875 -0.70313,0.70312 -0.70313,1.95312 l -1.6875,-0.17187 q 0.17188,-1.89063 1.29688,-2.875 1.14062,-0.98438 3.03125,-0.98438 1.92187,0 3.04687,1.0625 1.125,1.0625 1.125,2.64063 0,0.79687 -0.32812,1.57812 -0.32813,0.78125 -1.09375,1.64063 -0.75,0.84375 -2.53125,2.34375 -1.46875,1.23437 -1.89063,1.6875 -0.42187,0.4375 -0.6875,0.875 z"
       fill="#000000" />
  </g>
</svg>
