<?xml version="1.0" encoding="UTF-8" standalone="no"?>
<svg
   xmlns:dc="http://purl.org/dc/elements/1.1/"
   xmlns:cc="http://creativecommons.org/ns#"
   xmlns:rdf="http://www.w3.org/1999/02/22-rdf-syntax-ns#"
   xmlns:svg="http://www.w3.org/2000/svg"
   xmlns="http://www.w3.org/2000/svg"
   xmlns:sodipodi="http://sodipodi.sourceforge.net/DTD/sodipodi-0.dtd"
   xmlns:inkscape="http://www.inkscape.org/namespaces/inkscape"
   version="1.1"
   viewBox="0 0 576.12335 437.75592"
   fill="none"
   stroke="none"
   stroke-linecap="square"
   stroke-miterlimit="10"
   id="svg149"
   sodipodi:docname="gdb-lldb-target-xml-mapping.svg"
   width="576.12335"
   height="437.75592"
   inkscape:version="1.0.1 (3bc2e813f5, 2020-09-07)">
  <metadata
     id="metadata155">
    <rdf:RDF>
      <cc:Work
         rdf:about="">
        <dc:format>image/svg+xml</dc:format>
        <dc:type
           rdf:resource="http://purl.org/dc/dcmitype/StillImage" />
        <dc:title></dc:title>
      </cc:Work>
    </rdf:RDF>
  </metadata>
  <defs
     id="defs153" />
  <sodipodi:namedview
     pagecolor="#ffffff"
     bordercolor="#666666"
     borderopacity="1"
     objecttolerance="10"
     gridtolerance="10"
     guidetolerance="10"
     inkscape:pageopacity="0"
     inkscape:pageshadow="2"
     inkscape:window-width="1364"
     inkscape:window-height="747"
     id="namedview151"
     showgrid="false"
     inkscape:zoom="1.0685185"
     inkscape:cx="307.82267"
     inkscape:cy="224.80515"
     inkscape:window-x="0"
     inkscape:window-y="19"
     inkscape:window-maximized="0"
     inkscape:current-layer="svg149" />
  <clipPath
     id="p.0">
    <path
       d="M 0,0 H 720 V 540 H 0 Z"
       clip-rule="nonzero"
       id="path2" />
  </clipPath>
  <path
     fill="#000000"
     fill-opacity="0"
     d="m -27.37664,-7.75984 h 720 v 540 h -720 z"
     fill-rule="evenodd"
     id="path5" />
  <path
     fill="#fff2cc"
     d="m 0.5,236.08336 v 0 c 0,-18.91432 15.333084,-34.24741 34.247406,-34.24741 H 171.73291 v 0 c 9.08296,0 17.79393,3.6082 24.21656,10.03084 6.42264,6.42264 10.03083,15.13359 10.03083,24.21657 v 166.02487 c 0,18.91434 -15.33309,34.24741 -34.24739,34.24741 H 34.747407 c -18.914322,0 -34.247406,-15.33307 -34.247406,-34.24741 z"
     fill-rule="evenodd"
     id="path7" />
  <path
     stroke="#000000"
     stroke-width="1"
     stroke-linejoin="round"
     stroke-linecap="butt"
     d="m 0.5,236.08336 v 0 c 0,-18.91432 15.333084,-34.24741 34.247406,-34.24741 H 171.73291 v 0 c 9.08296,0 17.79393,3.6082 24.21656,10.03084 6.42264,6.42264 10.03083,15.13359 10.03083,24.21657 v 166.02487 c 0,18.91434 -15.33309,34.24741 -34.24739,34.24741 H 34.747407 c -18.914322,0 -34.247406,-15.33307 -34.247406,-34.24741 z"
     fill-rule="evenodd"
     id="path9" />
  <path
     fill="#000000"
     d="m 75.01859,235.23981 1.60937,0.21875 q -0.26562,1.65625 -1.35937,2.60937 -1.07813,0.9375 -2.671875,0.9375 -1.984375,0 -3.1875,-1.29687 -1.203125,-1.29688 -1.203125,-3.71875 0,-1.57813 0.515625,-2.75 0.515625,-1.17188 1.578125,-1.75 1.0625,-0.59375 2.3125,-0.59375 1.57812,0 2.57812,0.79687 1,0.79688 1.28125,2.26563 l -1.59375,0.23437 q -0.23437,-0.96875 -0.8125,-1.45312 -0.57812,-0.5 -1.39062,-0.5 -1.234375,0 -2.015625,0.89062 -0.78125,0.89063 -0.78125,2.8125 0,1.95313 0.75,2.84375 0.75,0.875 1.953125,0.875 0.96875,0 1.60937,-0.59375 0.65625,-0.59375 0.82813,-1.82812 z m 2.40625,-1.29688 q 0,-2.6875 1.48437,-3.96875 1.25,-1.07812 3.04688,-1.07812 2,0 3.26562,1.3125 1.26563,1.29687 1.26563,3.60937 0,1.85938 -0.5625,2.9375 -0.5625,1.0625 -1.64063,1.65625 -1.0625,0.59375 -2.32812,0.59375 -2.03125,0 -3.28125,-1.29687 -1.25,-1.3125 -1.25,-3.76563 z m 1.6875,0 q 0,1.85938 0.79687,2.79688 0.8125,0.92187 2.04688,0.92187 1.21875,0 2.03125,-0.92187 0.8125,-0.9375 0.8125,-2.84375 0,-1.79688 -0.8125,-2.71875 -0.8125,-0.92188 -2.03125,-0.92188 -1.23438,0 -2.04688,0.92188 -0.79687,0.90625 -0.79687,2.76562 z m 9.29759,4.84375 v -9.67187 h 1.46875 v 1.35937 q 0.45313,-0.71875 1.20313,-1.14062 0.76562,-0.4375 1.71875,-0.4375 1.07812,0 1.76562,0.45312 0.6875,0.4375 0.96875,1.23438 1.15625,-1.6875 2.98438,-1.6875 1.45312,0 2.21875,0.79687 0.78125,0.79688 0.78125,2.45313 v 6.64062 h -1.64063 v -6.09375 q 0,-0.98437 -0.15625,-1.40625 -0.15625,-0.4375 -0.57812,-0.70312 -0.42188,-0.26563 -0.98438,-0.26563 -1.01562,0 -1.6875,0.6875 -0.67187,0.67188 -0.67187,2.15625 v 5.625 h -1.64063 v -6.28125 q 0,-1.09375 -0.40625,-1.64062 -0.40625,-0.54688 -1.3125,-0.54688 -0.6875,0 -1.28125,0.35938 -0.59375,0.35937 -0.85937,1.0625 -0.25,0.70312 -0.25,2.03125 v 5.01562 z m 15.5408,0 v -9.67187 h 1.46875 v 1.35937 q 0.45313,-0.71875 1.20313,-1.14062 0.76562,-0.4375 1.71875,-0.4375 1.07812,0 1.76562,0.45312 0.6875,0.4375 0.96875,1.23438 1.15625,-1.6875 2.98438,-1.6875 1.45312,0 2.21875,0.79687 0.78125,0.79688 0.78125,2.45313 v 6.64062 h -1.64063 v -6.09375 q 0,-0.98437 -0.15625,-1.40625 -0.15625,-0.4375 -0.57812,-0.70312 -0.42188,-0.26563 -0.98438,-0.26563 -1.01562,0 -1.6875,0.6875 -0.67187,0.67188 -0.67187,2.15625 v 5.625 h -1.64063 v -6.28125 q 0,-1.09375 -0.40625,-1.64062 -0.40625,-0.54688 -1.3125,-0.54688 -0.6875,0 -1.28125,0.35938 -0.59375,0.35937 -0.85937,1.0625 -0.25,0.70312 -0.25,2.03125 v 5.01562 z m 14.93143,-4.84375 q 0,-2.6875 1.48438,-3.96875 1.25,-1.07812 3.04687,-1.07812 2,0 3.26563,1.3125 1.26562,1.29687 1.26562,3.60937 0,1.85938 -0.5625,2.9375 -0.5625,1.0625 -1.64062,1.65625 -1.0625,0.59375 -2.32813,0.59375 -2.03125,0 -3.28125,-1.29687 -1.25,-1.3125 -1.25,-3.76563 z m 1.6875,0 q 0,1.85938 0.79688,2.79688 0.8125,0.92187 2.04687,0.92187 1.21875,0 2.03125,-0.92187 0.8125,-0.9375 0.8125,-2.84375 0,-1.79688 -0.8125,-2.71875 -0.8125,-0.92188 -2.03125,-0.92188 -1.23437,0 -2.04687,0.92188 -0.79688,0.90625 -0.79688,2.76562 z m 9.29759,4.84375 v -9.67187 h 1.46875 v 1.375 q 1.0625,-1.59375 3.07813,-1.59375 0.875,0 1.60937,0.3125 0.73438,0.3125 1.09375,0.82812 0.375,0.5 0.51563,1.20313 0.0937,0.45312 0.0937,1.59375 v 5.95312 h -1.64063 v -5.89062 q 0,-1 -0.20312,-1.48438 -0.1875,-0.5 -0.67188,-0.79687 -0.48437,-0.29688 -1.14062,-0.29688 -1.04688,0 -1.8125,0.67188 -0.75,0.65625 -0.75,2.51562 v 5.28125 z"
     fill-rule="nonzero"
     id="path11" />
  <path
     fill="#fff2cc"
     d="m 370.14304,34.747408 v 0 c 0,-18.91432 15.3331,-34.247406 34.24741,-34.247406 h 136.98553 v 0 c 9.08294,0 17.79388,3.608198 24.21655,10.030831 6.42261,6.422634 10.03082,15.133596 10.03082,24.216574 V 403.00851 c 0,18.9143 -15.33307,34.2474 -34.24737,34.2474 H 404.39045 c -18.91431,0 -34.24741,-15.3331 -34.24741,-34.2474 z"
     fill-rule="evenodd"
     id="path13" />
  <path
     stroke="#000000"
     stroke-width="1"
     stroke-linejoin="round"
     stroke-linecap="butt"
     d="m 370.14304,34.747408 v 0 c 0,-18.91432 15.3331,-34.247406 34.24741,-34.247406 h 136.98553 v 0 c 9.08294,0 17.79388,3.608198 24.21655,10.030831 6.42261,6.422634 10.03082,15.133596 10.03082,24.216574 V 403.00851 c 0,18.9143 -15.33307,34.2474 -34.24737,34.2474 H 404.39045 c -18.91431,0 -34.24741,-15.3331 -34.24741,-34.2474 z"
     fill-rule="evenodd"
     id="path15" />
  <path
     fill="#000000"
     d="M 430.52729,37.450724 V 24.091349 h 1.64062 v 13.359375 z m 4.14484,0 V 24.091349 h 1.64062 v 13.359375 z m 10.4573,0 v -1.21875 q -0.90625,1.4375 -2.70312,1.4375 -1.15625,0 -2.125,-0.640625 -0.96875,-0.640625 -1.5,-1.78125 -0.53125,-1.140625 -0.53125,-2.625 0,-1.453125 0.48437,-2.625 0.48438,-1.1875 1.4375,-1.8125 0.96875,-0.625 2.17188,-0.625 0.875,0 1.54687,0.375 0.6875,0.359375 1.10938,0.953125 v -4.796875 h 1.64062 v 13.359375 z m -5.17187,-4.828125 q 0,1.859375 0.78125,2.78125 0.78125,0.921875 1.84375,0.921875 1.07812,0 1.82812,-0.875 0.75,-0.890625 0.75,-2.6875 0,-1.984375 -0.76562,-2.90625 -0.76563,-0.9375 -1.89063,-0.9375 -1.07812,0 -1.8125,0.890625 -0.73437,0.890625 -0.73437,2.8125 z m 10.78198,4.828125 h -1.51563 V 24.091349 h 1.64063 v 4.765625 q 1.04687,-1.296875 2.65625,-1.296875 0.89062,0 1.6875,0.359375 0.79687,0.359375 1.3125,1.015625 0.51562,0.640625 0.79687,1.5625 0.29688,0.921875 0.29688,1.96875 0,2.484375 -1.23438,3.84375 -1.21875,1.359375 -2.95312,1.359375 -1.70313,0 -2.6875,-1.4375 z m -0.0156,-4.90625 q 0,1.734375 0.48438,2.515625 0.76562,1.265625 2.09375,1.265625 1.07812,0 1.85937,-0.9375 0.78125,-0.9375 0.78125,-2.78125 0,-1.890625 -0.75,-2.796875 -0.75,-0.90625 -1.82812,-0.90625 -1.0625,0 -1.85938,0.9375 -0.78125,0.9375 -0.78125,2.703125 z m 8.25071,0.890625 v -1.640625 h 5.03125 v 1.640625 z m 6.19705,1.125 1.625,-0.25 q 0.125,0.96875 0.75,1.5 0.625,0.515625 1.75,0.515625 1.125,0 1.67187,-0.453125 0.54688,-0.46875 0.54688,-1.09375 0,-0.546875 -0.48438,-0.875 -0.32812,-0.21875 -1.67187,-0.546875 -1.8125,-0.46875 -2.51563,-0.796875 -0.6875,-0.328125 -1.04687,-0.90625 -0.35938,-0.59375 -0.35938,-1.3125 0,-0.640625 0.29688,-1.1875 0.29687,-0.5625 0.8125,-0.921875 0.375,-0.28125 1.03125,-0.46875 0.67187,-0.203125 1.42187,-0.203125 1.14063,0 2,0.328125 0.85938,0.328125 1.26563,0.890625 0.42187,0.5625 0.57812,1.5 l -1.60937,0.21875 q -0.10938,-0.75 -0.64063,-1.171875 -0.51562,-0.421875 -1.46875,-0.421875 -1.14062,0 -1.625,0.375 -0.46875,0.375 -0.46875,0.875 0,0.3125 0.1875,0.578125 0.20313,0.265625 0.64063,0.4375 0.23437,0.09375 1.4375,0.421875 1.75,0.453125 2.4375,0.75 0.6875,0.296875 1.07812,0.859375 0.39063,0.5625 0.39063,1.40625 0,0.828125 -0.48438,1.546875 -0.46875,0.71875 -1.375,1.125 -0.90625,0.390625 -2.04687,0.390625 -1.875,0 -2.875,-0.78125 -0.98438,-0.78125 -1.25,-2.328125 z m 16.60937,-0.21875 1.6875,0.203125 q -0.40625,1.484375 -1.48437,2.3125 -1.07813,0.8125 -2.76563,0.8125 -2.125,0 -3.375,-1.296875 -1.23437,-1.3125 -1.23437,-3.671875 0,-2.453125 1.25,-3.796875 1.26562,-1.34375 3.26562,-1.34375 1.9375,0 3.15625,1.328125 1.23438,1.3125 1.23438,3.703125 0,0.15625 0,0.4375 h -7.21875 q 0.0937,1.59375 0.90625,2.453125 0.8125,0.84375 2.01562,0.84375 0.90625,0 1.54688,-0.46875 0.64062,-0.484375 1.01562,-1.515625 z m -5.39062,-2.65625 h 5.40625 q -0.10938,-1.21875 -0.625,-1.828125 -0.78125,-0.953125 -2.03125,-0.953125 -1.125,0 -1.90625,0.765625 -0.76563,0.75 -0.84375,2.015625 z m 9.1257,5.765625 v -9.671875 h 1.46875 v 1.46875 q 0.5625,-1.03125 1.03125,-1.359375 0.48438,-0.328125 1.0625,-0.328125 0.82813,0 1.6875,0.53125 l -0.5625,1.515625 q -0.60937,-0.359375 -1.20312,-0.359375 -0.54688,0 -0.96875,0.328125 -0.42188,0.328125 -0.60938,0.890625 -0.28125,0.875 -0.28125,1.921875 v 5.0625 z m 8.91583,0 -3.6875,-9.671875 h 1.73438 l 2.07812,5.796875 q 0.32813,0.9375 0.625,1.9375 0.20313,-0.765625 0.60938,-1.828125 l 2.14062,-5.90625 h 1.6875 l -3.65625,9.671875 z m 13.26563,-3.109375 1.6875,0.203125 q -0.40625,1.484375 -1.48438,2.3125 -1.07812,0.8125 -2.76562,0.8125 -2.125,0 -3.375,-1.296875 -1.23438,-1.3125 -1.23438,-3.671875 0,-2.453125 1.25,-3.796875 1.26563,-1.34375 3.26563,-1.34375 1.9375,0 3.15625,1.328125 1.23437,1.3125 1.23437,3.703125 0,0.15625 0,0.4375 h -7.21875 q 0.0937,1.59375 0.90625,2.453125 0.8125,0.84375 2.01563,0.84375 0.90625,0 1.54687,-0.46875 0.64063,-0.484375 1.01563,-1.515625 z m -5.39063,-2.65625 h 5.40625 q -0.10937,-1.21875 -0.625,-1.828125 -0.78125,-0.953125 -2.03125,-0.953125 -1.125,0 -1.90625,0.765625 -0.76562,0.75 -0.84375,2.015625 z m 9.12573,5.765625 v -9.671875 h 1.46875 v 1.46875 q 0.5625,-1.03125 1.03125,-1.359375 0.48438,-0.328125 1.0625,-0.328125 0.82813,0 1.6875,0.53125 l -0.5625,1.515625 q -0.60937,-0.359375 -1.20312,-0.359375 -0.54688,0 -0.96875,0.328125 -0.42188,0.328125 -0.60938,0.890625 -0.28125,0.875 -0.28125,1.921875 v 5.0625 z"
     fill-rule="nonzero"
     id="path17" />
  <path
     fill="#fff2cc"
     d="m 0.5,27.37193 v 0 C 0.5,12.530974 12.530972,0.5 27.37193,0.5 H 179.1084 c 7.12688,0 13.96185,2.831142 19.00131,7.870605 5.03948,5.039465 7.87061,11.874445 7.87061,19.001324 V 134.85641 c 0,14.84096 -12.03096,26.87193 -26.87192,26.87193 H 27.37193 v 0 C 12.530972,161.72834 0.5,149.69737 0.5,134.85641 Z"
     fill-rule="evenodd"
     id="path19" />
  <path
     stroke="#000000"
     stroke-width="1"
     stroke-linejoin="round"
     stroke-linecap="butt"
     d="m 0.5,27.37193 v 0 C 0.5,12.530974 12.530972,0.5 27.37193,0.5 H 179.1084 c 7.12688,0 13.96185,2.831142 19.00131,7.870605 5.03948,5.039465 7.87061,11.874445 7.87061,19.001324 V 134.85641 c 0,14.84096 -12.03096,26.87193 -26.87192,26.87193 H 27.37193 v 0 C 12.530972,161.72834 0.5,149.69737 0.5,134.85641 Z"
     fill-rule="evenodd"
     id="path21" />
  <path
     fill="#000000"
     d="m 62.68194,36.087397 1.59375,0.234375 q 0.109375,0.75 0.5625,1.078125 0.609375,0.453125 1.671875,0.453125 1.140625,0 1.75,-0.453125 0.625,-0.453125 0.84375,-1.265625 0.125,-0.5 0.109375,-2.109375 -1.0625,1.265625 -2.671875,1.265625 -2,0 -3.09375,-1.4375 -1.09375,-1.4375 -1.09375,-3.453125 0,-1.390625 0.5,-2.5625 0.515625,-1.171875 1.453125,-1.796875 0.953125,-0.640625 2.25,-0.640625 1.703125,0 2.8125,1.375 v -1.15625 h 1.515625 v 8.359375 q 0,2.265625 -0.46875,3.203125 -0.453125,0.9375 -1.453125,1.484375 -0.984375,0.546875 -2.453125,0.546875 -1.71875,0 -2.796875,-0.78125 -1.0625,-0.765625 -1.03125,-2.34375 z m 1.359375,-5.8125 q 0,1.90625 0.75,2.78125 0.765625,0.875 1.90625,0.875 1.125,0 1.890625,-0.859375 0.765625,-0.875 0.765625,-2.734375 0,-1.78125 -0.796875,-2.671875 -0.78125,-0.90625 -1.890625,-0.90625 -1.09375,0 -1.859375,0.890625 -0.765625,0.875 -0.765625,2.625 z m 15.594465,5.015625 v -1.21875 q -0.90625,1.4375 -2.70312,1.4375 -1.15625,0 -2.125,-0.640625 -0.96875,-0.640625 -1.5,-1.78125 -0.53125,-1.140625 -0.53125,-2.625 0,-1.453125 0.48437,-2.625 0.48438,-1.1875 1.4375,-1.8125 0.96875,-0.625 2.17188,-0.625 0.875,0 1.54687,0.375 0.6875,0.359375 1.10938,0.953125 v -4.796877 h 1.64062 v 13.359377 z m -5.17187,-4.828125 q 0,1.859375 0.78125,2.78125 0.78125,0.921875 1.84375,0.921875 1.07812,0 1.82812,-0.875 0.75,-0.890625 0.75,-2.6875 0,-1.984375 -0.76562,-2.90625 -0.76563,-0.9375 -1.89063,-0.9375 -1.07812,0 -1.8125,0.890625 -0.73437,0.890625 -0.73437,2.8125 z m 10.78196,4.828125 H 83.73025 V 21.931145 h 1.64062 v 4.765627 q 1.04688,-1.296875 2.65625,-1.296875 0.89063,0 1.6875,0.359375 0.79688,0.359375 1.3125,1.015625 0.51563,0.640625 0.79688,1.5625 0.29687,0.921875 0.29687,1.96875 0,2.484375 -1.23437,3.84375 -1.21875,1.359375 -2.95313,1.359375 -1.70312,0 -2.6875,-1.4375 z m -0.0156,-4.90625 q 0,1.734375 0.48437,2.515625 0.76563,1.265625 2.09375,1.265625 1.07813,0 1.85938,-0.9375 0.78125,-0.9375 0.78125,-2.78125 0,-1.890625 -0.75,-2.796875 -0.75,-0.90625 -1.82813,-0.90625 -1.0625,0 -1.85937,0.9375 -0.78125,0.9375 -0.78125,2.703125 z m 8.23509,2.015625 1.625,-0.25 q 0.125,0.96875 0.75,1.5 0.625,0.515625 1.75,0.515625 1.125,0 1.67188,-0.453125 0.54687,-0.46875 0.54687,-1.09375 0,-0.546875 -0.48437,-0.875 -0.32813,-0.21875 -1.67188,-0.546875 -1.8125,-0.46875 -2.51562,-0.796875 -0.6875,-0.328125 -1.04688,-0.90625 -0.35937,-0.59375 -0.35937,-1.3125 0,-0.640625 0.29687,-1.1875 0.29688,-0.5625 0.8125,-0.921875 0.375,-0.28125 1.03125,-0.46875 0.67188,-0.203125 1.42188,-0.203125 1.14062,0 2,0.328125 0.85937,0.328125 1.26562,0.890625 0.42188,0.5625 0.57813,1.5 l -1.60938,0.21875 q -0.10937,-0.75 -0.64062,-1.171875 -0.51563,-0.421875 -1.46875,-0.421875 -1.14063,0 -1.625,0.375 -0.46875,0.375 -0.46875,0.875 0,0.3125 0.1875,0.578125 0.20312,0.265625 0.64062,0.4375 0.23438,0.09375 1.4375,0.421875 1.75,0.453125 2.4375,0.75 0.6875,0.296875 1.07813,0.859375 0.39062,0.5625 0.39062,1.40625 0,0.828125 -0.48437,1.546875 -0.46875,0.71875 -1.375,1.125 -0.90625,0.390625 -2.04688,0.390625 -1.875,0 -2.875,-0.78125 -0.98437,-0.78125 -1.25,-2.328125 z m 16.60938,-0.21875 1.6875,0.203125 q -0.40625,1.484375 -1.48438,2.3125 -1.07812,0.8125 -2.76562,0.8125 -2.125,0 -3.375,-1.296875 -1.23438,-1.3125 -1.23438,-3.671875 0,-2.453125 1.25,-3.796875 1.26563,-1.34375 3.26563,-1.34375 1.9375,0 3.15625,1.328125 1.23437,1.3125 1.23437,3.703125 0,0.15625 0,0.4375 h -7.21875 q 0.0937,1.59375 0.90625,2.453125 0.8125,0.84375 2.01563,0.84375 0.90625,0 1.54687,-0.46875 0.64063,-0.484375 1.01563,-1.515625 z m -5.39063,-2.65625 h 5.40625 q -0.10937,-1.21875 -0.625,-1.828125 -0.78125,-0.953125 -2.03125,-0.953125 -1.125,0 -1.90625,0.765625 -0.76562,0.75 -0.84375,2.015625 z m 9.12572,5.765625 v -9.671875 h 1.46875 v 1.46875 q 0.5625,-1.03125 1.03125,-1.359375 0.48437,-0.328125 1.0625,-0.328125 0.82812,0 1.6875,0.53125 l -0.5625,1.515625 q -0.60938,-0.359375 -1.20313,-0.359375 -0.54687,0 -0.96875,0.328125 -0.42187,0.328125 -0.60937,0.890625 -0.28125,0.875 -0.28125,1.921875 v 5.0625 z m 8.9158,0 -3.6875,-9.671875 h 1.73437 l 2.07813,5.796875 q 0.32812,0.9375 0.625,1.9375 0.20312,-0.765625 0.60937,-1.828125 l 2.14063,-5.90625 h 1.6875 l -3.65625,9.671875 z m 13.26562,-3.109375 1.6875,0.203125 q -0.40625,1.484375 -1.48437,2.3125 -1.07813,0.8125 -2.76563,0.8125 -2.125,0 -3.375,-1.296875 -1.23437,-1.3125 -1.23437,-3.671875 0,-2.453125 1.25,-3.796875 1.26562,-1.34375 3.26562,-1.34375 1.9375,0 3.15625,1.328125 1.23438,1.3125 1.23438,3.703125 0,0.15625 0,0.4375 h -7.21875 q 0.0937,1.59375 0.90625,2.453125 0.8125,0.84375 2.01562,0.84375 0.90625,0 1.54688,-0.46875 0.64062,-0.484375 1.01562,-1.515625 z m -5.39062,-2.65625 h 5.40625 q -0.10938,-1.21875 -0.625,-1.828125 -0.78125,-0.953125 -2.03125,-0.953125 -1.125,0 -1.90625,0.765625 -0.76563,0.75 -0.84375,2.015625 z m 9.12572,5.765625 v -9.671875 h 1.46875 v 1.46875 q 0.5625,-1.03125 1.03125,-1.359375 0.48437,-0.328125 1.0625,-0.328125 0.82812,0 1.6875,0.53125 l -0.5625,1.515625 q -0.60938,-0.359375 -1.20313,-0.359375 -0.54687,0 -0.96875,0.328125 -0.42187,0.328125 -0.60937,0.890625 -0.28125,0.875 -0.28125,1.921875 v 5.0625 z"
     fill-rule="nonzero"
     id="path23" />
  <path
     fill="#cfe2f3"
     d="M 20.13517,366.76246 H 182.2454 v 28.91339 H 20.13517 Z"
     fill-rule="evenodd"
     id="path25" />
  <path
     stroke="#000000"
     stroke-width="1"
     stroke-linejoin="round"
     stroke-linecap="butt"
     d="M 20.13517,366.76246 H 182.2454 v 28.91339 H 20.13517 Z"
     fill-rule="evenodd"
     id="path27" />
  <path
     fill="#000000"
     d="m 79.09068,388.13916 v -9.67188 h 1.46875 v 1.375 q 1.0625,-1.59375 3.07813,-1.59375 0.875,0 1.60937,0.3125 0.73438,0.3125 1.09375,0.82813 0.375,0.5 0.51563,1.20312 0.0937,0.45313 0.0937,1.59375 v 5.95313 h -1.64063 v -5.89063 q 0,-1 -0.20312,-1.48437 -0.1875,-0.5 -0.67188,-0.79688 -0.48437,-0.29687 -1.14062,-0.29687 -1.04688,0 -1.8125,0.67187 -0.75,0.65625 -0.75,2.51563 v 5.28125 z m 16.68822,-1.1875 q -0.92188,0.76562 -1.76563,1.09375 -0.82812,0.3125 -1.79687,0.3125 -1.59375,0 -2.45313,-0.78125 -0.85937,-0.78125 -0.85937,-1.98438 0,-0.71875 0.32812,-1.29687 0.32813,-0.59375 0.84375,-0.9375 0.53125,-0.35938 1.1875,-0.54688 0.46875,-0.125 1.45313,-0.25 1.98437,-0.23437 2.92187,-0.5625 0.0156,-0.34375 0.0156,-0.42187 0,-1 -0.46875,-1.42188 -0.625,-0.54687 -1.875,-0.54687 -1.15625,0 -1.70313,0.40625 -0.54687,0.40625 -0.8125,1.42187 l -1.60937,-0.21875 q 0.21875,-1.01562 0.71875,-1.64062 0.5,-0.64063 1.45312,-0.98438 0.95313,-0.34375 2.1875,-0.34375 1.25,0 2.01563,0.29688 0.78125,0.28125 1.14062,0.73437 0.375,0.4375 0.51563,1.10938 0.0781,0.42187 0.0781,1.51562 v 2.1875 q 0,2.28125 0.10938,2.89063 0.10937,0.59375 0.40625,1.15625 h -1.70313 q -0.26562,-0.51563 -0.32812,-1.1875 z m -0.14063,-3.67188 q -0.89062,0.375 -2.67187,0.625 -1.01563,0.14063 -1.4375,0.32813 -0.42188,0.1875 -0.65625,0.53125 -0.21875,0.34375 -0.21875,0.78125 0,0.65625 0.5,1.09375 0.5,0.4375 1.45312,0.4375 0.9375,0 1.67188,-0.40625 0.75,-0.42188 1.09375,-1.14063 0.26562,-0.5625 0.26562,-1.64062 z m 4.20384,4.85938 v -9.67188 h 1.46876 v 1.35938 q 0.45313,-0.71875 1.20313,-1.14063 0.76562,-0.4375 1.71875,-0.4375 1.07812,0 1.76562,0.45313 0.6875,0.4375 0.96875,1.23437 1.15625,-1.6875 2.98438,-1.6875 1.45312,0 2.21875,0.79688 0.78125,0.79687 0.78125,2.45312 v 6.64063 h -1.64063 v -6.09375 q 0,-0.98438 -0.15625,-1.40625 -0.15625,-0.4375 -0.57812,-0.70313 -0.42188,-0.26562 -0.98438,-0.26562 -1.01562,0 -1.6875,0.6875 -0.67187,0.67187 -0.67187,2.15625 v 5.625 h -1.64063 v -6.28125 q 0,-1.09375 -0.40625,-1.64063 -0.40625,-0.54687 -1.3125,-0.54687 -0.6875,0 -1.28125,0.35937 -0.59375,0.35938 -0.85937,1.0625 -0.25,0.70313 -0.25,2.03125 v 5.01563 z m 22.16581,-3.10938 1.6875,0.20313 q -0.40625,1.48437 -1.48437,2.3125 -1.07813,0.8125 -2.76563,0.8125 -2.125,0 -3.375,-1.29688 -1.23437,-1.3125 -1.23437,-3.67187 0,-2.45313 1.25,-3.79688 1.26562,-1.34375 3.26562,-1.34375 1.9375,0 3.15625,1.32813 1.23438,1.3125 1.23438,3.70312 0,0.15625 0,0.4375 h -7.21875 q 0.0937,1.59375 0.90625,2.45313 0.8125,0.84375 2.01562,0.84375 0.90625,0 1.54688,-0.46875 0.64062,-0.48438 1.01562,-1.51563 z m -5.39062,-2.65625 h 5.40625 q -0.10938,-1.21875 -0.625,-1.82812 -0.78125,-0.95313 -2.03125,-0.95313 -1.125,0 -1.90625,0.76563 -0.76563,0.75 -0.84375,2.01562 z"
     fill-rule="nonzero"
     id="path29" />
  <path
     fill="#cfe2f3"
     d="M 20.13517,260.67192 H 182.2454 v 28.91339 H 20.13517 Z"
     fill-rule="evenodd"
     id="path31" />
  <path
     stroke="#000000"
     stroke-width="1"
     stroke-linejoin="round"
     stroke-linecap="butt"
     d="M 20.13517,260.67192 H 182.2454 v 28.91339 H 20.13517 Z"
     fill-rule="evenodd"
     id="path33" />
  <path
     fill="#000000"
     d="m 77.48435,282.0486 h -1.51563 v -13.35937 h 1.64063 v 4.76562 q 1.04687,-1.29687 2.65625,-1.29687 0.89062,0 1.6875,0.35937 0.79687,0.35938 1.3125,1.01563 0.51562,0.64062 0.79687,1.5625 0.29688,0.92187 0.29688,1.96875 0,2.48437 -1.23438,3.84375 -1.21875,1.35937 -2.95312,1.35937 -1.70313,0 -2.6875,-1.4375 z m -0.0156,-4.90625 q 0,1.73438 0.48438,2.51563 0.76562,1.26562 2.09375,1.26562 1.07812,0 1.85937,-0.9375 0.78125,-0.9375 0.78125,-2.78125 0,-1.89062 -0.75,-2.79687 -0.75,-0.90625 -1.82812,-0.90625 -1.0625,0 -1.85938,0.9375 -0.78125,0.9375 -0.78125,2.70312 z m 8.89134,-6.5625 v -1.89062 h 1.64063 v 1.89062 z m 0,11.46875 v -9.67187 h 1.64063 v 9.67187 z m 7.72295,-1.46875 0.23437,1.45313 q -0.6875,0.14062 -1.23437,0.14062 -0.89063,0 -1.39063,-0.28125 -0.48437,-0.28125 -0.6875,-0.73437 -0.20312,-0.46875 -0.20312,-1.9375 v -5.57813 h -1.20313 v -1.26562 h 1.20313 v -2.39063 l 1.625,-0.98437 v 3.375 h 1.65625 v 1.26562 h -1.65625 v 5.67188 q 0,0.6875 0.0781,0.89062 0.0937,0.20313 0.28125,0.32813 0.20313,0.10937 0.57813,0.10937 0.26562,0 0.71875,-0.0625 z m 0.94893,-1.42187 1.625,-0.25 q 0.125,0.96875 0.75,1.5 0.625,0.51562 1.75,0.51562 1.125,0 1.67188,-0.45312 0.54687,-0.46875 0.54687,-1.09375 0,-0.54688 -0.48437,-0.875 -0.32813,-0.21875 -1.67188,-0.54688 -1.8125,-0.46875 -2.51563,-0.79687 -0.6875,-0.32813 -1.04687,-0.90625 -0.35938,-0.59375 -0.35938,-1.3125 0,-0.64063 0.29688,-1.1875 0.29687,-0.5625 0.8125,-0.92188 0.375,-0.28125 1.03125,-0.46875 0.67187,-0.20312 1.42187,-0.20312 1.14063,0 2.00001,0.32812 0.85937,0.32813 1.26562,0.89063 0.42188,0.5625 0.57813,1.5 l -1.60938,0.21875 q -0.10937,-0.75 -0.64063,-1.17188 -0.51562,-0.42187 -1.46875,-0.42187 -1.14062,0 -1.625,0.375 -0.46875,0.375 -0.46875,0.875 0,0.3125 0.1875,0.57812 0.20313,0.26563 0.64063,0.4375 0.23437,0.0937 1.4375,0.42188 1.75,0.45312 2.4375,0.75 0.6875,0.29687 1.07813,0.85937 0.39062,0.5625 0.39062,1.40625 0,0.82813 -0.48437,1.54688 -0.46875,0.71875 -1.375,1.125 -0.90626,0.39062 -2.04688,0.39062 -1.875,0 -2.875,-0.78125 -0.98438,-0.78125 -1.25,-2.32812 z m 9.98438,-8.57813 v -1.89062 h 1.64062 v 1.89062 z m 0,11.46875 v -9.67187 h 1.64062 v 9.67187 z m 3.26982,0 v -1.32812 l 6.15625,-7.07813 q -1.04687,0.0625 -1.84375,0.0625 h -3.9375 v -1.32812 h 7.90625 v 1.07812 l -5.25,6.14063 -1,1.125 q 1.09375,-0.0781 2.0625,-0.0781 h 4.46875 v 1.40625 z m 16.82813,-3.10937 1.6875,0.20312 q -0.40625,1.48438 -1.48438,2.3125 -1.07812,0.8125 -2.76562,0.8125 -2.125,0 -3.375,-1.29687 -1.23438,-1.3125 -1.23438,-3.67188 0,-2.45312 1.25,-3.79687 1.26563,-1.34375 3.26563,-1.34375 1.9375,0 3.15625,1.32812 1.23437,1.3125 1.23437,3.70313 0,0.15625 0,0.4375 h -7.21875 q 0.0937,1.59375 0.90625,2.45312 0.8125,0.84375 2.01563,0.84375 0.90625,0 1.54687,-0.46875 0.64063,-0.48437 1.01563,-1.51562 z m -5.39063,-2.65625 h 5.40625 q -0.10937,-1.21875 -0.625,-1.82813 -0.78125,-0.95312 -2.03125,-0.95312 -1.125,0 -1.90625,0.76562 -0.76562,0.75 -0.84375,2.01563 z"
     fill-rule="nonzero"
     id="path35" />
  <path
     fill="#cfe2f3"
     d="M 20.13517,297.32283 H 182.2454 v 28.91339 H 20.13517 Z"
     fill-rule="evenodd"
     id="path37" />
  <path
     stroke="#000000"
     stroke-width="1"
     stroke-linejoin="round"
     stroke-linecap="butt"
     d="M 20.13517,297.32283 H 182.2454 v 28.91339 H 20.13517 Z"
     fill-rule="evenodd"
     id="path39" />
  <path
     fill="#000000"
     d="m 70.78086,318.69954 v -9.67188 h 1.46875 v 1.46875 q 0.5625,-1.03125 1.03125,-1.35937 0.48438,-0.32813 1.0625,-0.32813 0.82813,0 1.6875,0.53125 l -0.5625,1.51563 q -0.60937,-0.35938 -1.20312,-0.35938 -0.54688,0 -0.96875,0.32813 -0.42188,0.32812 -0.60938,0.89062 -0.28125,0.875 -0.28125,1.92188 v 5.0625 z m 12.8533,-3.10938 1.6875,0.20313 q -0.40625,1.48437 -1.48437,2.3125 -1.07813,0.8125 -2.76563,0.8125 -2.125,0 -3.375,-1.29688 -1.23437,-1.3125 -1.23437,-3.67187 0,-2.45313 1.25,-3.79688 1.26562,-1.34375 3.26562,-1.34375 1.9375,0 3.15625,1.32813 1.23438,1.3125 1.23438,3.70312 0,0.15625 0,0.4375 h -7.21875 q 0.0937,1.59375 0.90625,2.45313 0.8125,0.84375 2.01562,0.84375 0.90625,0 1.54688,-0.46875 0.64062,-0.48438 1.01562,-1.51563 z m -5.39062,-2.65625 h 5.40625 q -0.10938,-1.21875 -0.625,-1.82812 -0.78125,-0.95313 -2.03125,-0.95313 -1.125,0 -1.90625,0.76563 -0.76563,0.75 -0.84375,2.01562 z m 8.82884,6.5625 1.59375,0.23438 q 0.10937,0.75 0.5625,1.07812 0.60937,0.45313 1.67187,0.45313 1.14063,0 1.75,-0.45313 0.625,-0.45312 0.84375,-1.26562 0.125,-0.5 0.10938,-2.10938 -1.0625,1.26563 -2.67188,1.26563 -2,0 -3.09375,-1.4375 -1.09375,-1.4375 -1.09375,-3.45313 0,-1.39062 0.5,-2.5625 0.51563,-1.17187 1.45313,-1.79687 0.95312,-0.64063 2.25,-0.64063 1.70312,0 2.8125,1.375 v -1.15625 h 1.51562 v 8.35938 q 0,2.26562 -0.46875,3.20312 -0.45312,0.9375 -1.45312,1.48438 -0.98438,0.54687 -2.45313,0.54687 -1.71875,0 -2.79687,-0.78125 -1.0625,-0.76562 -1.03125,-2.34375 z m 1.35937,-5.8125 q 0,1.90625 0.75,2.78125 0.76563,0.875 1.90625,0.875 1.125,0 1.89063,-0.85937 0.76562,-0.875 0.76562,-2.73438 0,-1.78125 -0.79687,-2.67187 -0.78125,-0.90625 -1.89063,-0.90625 -1.09375,0 -1.85937,0.89062 -0.76563,0.875 -0.76563,2.625 z m 9.32885,5.01563 v -9.67188 h 1.46875 v 1.375 q 1.0625,-1.59375 3.07812,-1.59375 0.875,0 1.60938,0.3125 0.73437,0.3125 1.09375,0.82813 0.375,0.5 0.51562,1.20312 0.0937,0.45313 0.0937,1.59375 v 5.95313 h -1.64062 v -5.89063 q 0,-1 -0.20313,-1.48437 -0.1875,-0.5 -0.67187,-0.79688 -0.48438,-0.29687 -1.14063,-0.29687 -1.04687,0 -1.8125,0.67187 -0.75,0.65625 -0.75,2.51563 v 5.28125 z m 16.70384,0 v -1.42188 q -1.125,1.64063 -3.0625,1.64063 -0.85938,0 -1.60938,-0.32813 -0.73437,-0.32812 -1.09375,-0.82812 -0.35937,-0.5 -0.5,-1.21875 -0.10937,-0.46875 -0.10937,-1.53125 v -5.98438 h 1.64062 v 5.35938 q 0,1.28125 0.10938,1.73437 0.15625,0.64063 0.65625,1.01563 0.5,0.375 1.23437,0.375 0.73438,0 1.375,-0.375 0.65625,-0.39063 0.92188,-1.03125 0.26562,-0.65625 0.26562,-1.89063 v -5.1875 h 1.64063 v 9.67188 z m 4.04759,0 v -9.67188 h 1.46875 v 1.35938 q 0.45312,-0.71875 1.20312,-1.14063 0.76563,-0.4375 1.71875,-0.4375 1.07813,0 1.76563,0.45313 0.6875,0.4375 0.96875,1.23437 1.15625,-1.6875 2.98437,-1.6875 1.45313,0 2.21875,0.79688 0.78125,0.79687 0.78125,2.45312 v 6.64063 h -1.64062 v -6.09375 q 0,-0.98438 -0.15625,-1.40625 -0.15625,-0.4375 -0.57813,-0.70313 -0.42187,-0.26562 -0.98437,-0.26562 -1.01563,0 -1.6875,0.6875 -0.67188,0.67187 -0.67188,2.15625 v 5.625 h -1.64062 v -6.28125 q 0,-1.09375 -0.40625,-1.64063 -0.40625,-0.54687 -1.3125,-0.54687 -0.6875,0 -1.28125,0.35937 -0.59375,0.35938 -0.85938,1.0625 -0.25,0.70313 -0.25,2.03125 v 5.01563 z"
     fill-rule="nonzero"
     id="path41" />
  <path
     fill="#d9ead3"
     d="M 20.127297,59.095804 H 182.23753 V 88.009187 H 20.127297 Z"
     fill-rule="evenodd"
     id="path43" />
  <path
     stroke="#000000"
     stroke-width="1"
     stroke-linejoin="round"
     stroke-linecap="butt"
     d="M 20.127297,59.095804 H 182.23753 V 88.009187 H 20.127297 Z"
     fill-rule="evenodd"
     id="path45" />
  <path
     fill="#000000"
     d="m 35.779732,80.4725 v -8.40625 h -1.453125 v -1.265625 h 1.453125 v -1.03125 q 0,-0.96875 0.171875,-1.453125 0.234375,-0.640625 0.828125,-1.03125 0.59375,-0.390625 1.671875,-0.390625 0.6875,0 1.53125,0.15625 l -0.25,1.4375 q -0.5,-0.09375 -0.953125,-0.09375 -0.75,0 -1.0625,0.328125 -0.3125,0.3125 -0.3125,1.1875 v 0.890625 h 1.890625 v 1.265625 h -1.890625 v 8.40625 z m 11.417679,-3.109375 1.6875,0.203125 q -0.40625,1.484375 -1.484375,2.3125 -1.078125,0.8125 -2.765625,0.8125 -2.125,0 -3.375,-1.296875 -1.234375,-1.3125 -1.234375,-3.671875 0,-2.453125 1.25,-3.796875 1.265625,-1.34375 3.265625,-1.34375 1.9375,0 3.15625,1.328125 1.234375,1.3125 1.234375,3.703125 0,0.15625 0,0.4375 h -7.21875 q 0.09375,1.59375 0.90625,2.453125 0.8125,0.84375 2.015625,0.84375 0.90625,0 1.546875,-0.46875 0.640625,-0.484375 1.015625,-1.515625 z m -5.390625,-2.65625 h 5.40625 q -0.109375,-1.21875 -0.625,-1.828125 -0.78125,-0.953125 -2.03125,-0.953125 -1.125,0 -1.90625,0.765625 -0.765625,0.75 -0.84375,2.015625 z M 57.260628,79.285 q -0.921875,0.765625 -1.765625,1.09375 -0.828125,0.3125 -1.796875,0.3125 -1.59375,0 -2.453125,-0.78125 -0.859375,-0.78125 -0.859375,-1.984375 0,-0.71875 0.328125,-1.296875 0.328125,-0.59375 0.84375,-0.9375 0.53125,-0.359375 1.1875,-0.546875 0.46875,-0.125 1.453125,-0.25 1.984375,-0.234375 2.921875,-0.5625 0.01563,-0.34375 0.01563,-0.421875 0,-1 -0.46875,-1.421875 -0.625,-0.546875 -1.875,-0.546875 -1.15625,0 -1.703125,0.40625 -0.546875,0.40625 -0.8125,1.421875 l -1.609375,-0.21875 Q 50.885633,72.535 51.385633,71.91 q 0.5,-0.640625 1.453125,-0.984375 0.953125,-0.34375 2.1875,-0.34375 1.25,0 2.015625,0.296875 0.78125,0.28125 1.140625,0.734375 0.375,0.4375 0.515625,1.109375 0.07813,0.421875 0.07813,1.515625 v 2.1875 q 0,2.28125 0.109375,2.890625 0.109375,0.59375 0.40625,1.15625 H 57.588763 Q 57.323138,79.956875 57.260638,79.285 Z m -0.140625,-3.671875 q -0.890625,0.375 -2.671875,0.625 -1.015625,0.140625 -1.4375,0.328125 -0.421875,0.1875 -0.65625,0.53125 -0.21875,0.34375 -0.21875,0.78125 0,0.65625 0.5,1.09375 0.5,0.4375 1.453125,0.4375 0.9375,0 1.671875,-0.40625 0.75,-0.421875 1.09375,-1.140625 0.265625,-0.5625 0.265625,-1.640625 z m 7.781967,3.390625 0.234375,1.453125 q -0.6875,0.140625 -1.234375,0.140625 -0.890625,0 -1.390625,-0.28125 -0.484375,-0.28125 -0.6875,-0.734375 -0.203125,-0.46875 -0.203125,-1.9375 V 72.06625 H 60.417595 V 70.800625 H 61.62072 V 68.41 l 1.625,-0.984375 v 3.375 h 1.65625 v 1.265625 h -1.65625 v 5.671875 q 0,0.6875 0.07813,0.890625 0.09375,0.203125 0.28125,0.328125 0.203125,0.109375 0.578125,0.109375 0.265625,0 0.71875,-0.0625 z m 7.9333,1.46875 v -1.421875 q -1.124996,1.640625 -3.062496,1.640625 -0.859375,0 -1.609375,-0.328125 Q 67.429024,80.035 67.069649,79.535 q -0.359375,-0.5 -0.5,-1.21875 Q 66.460274,77.8475 66.460274,76.785 v -5.984375 h 1.640625 V 76.16 q 0,1.28125 0.109375,1.734375 0.15625,0.640625 0.65625,1.015625 0.5,0.375 1.234375,0.375 0.734375,0 1.375,-0.375 0.65625,-0.390625 0.921875,-1.03125 Q 72.6634,77.2225 72.6634,75.988125 v -5.1875 h 1.64062 V 80.4725 Z m 4.03197,0 v -9.671875 h 1.46875 v 1.46875 q 0.5625,-1.03125 1.03125,-1.359375 0.48438,-0.328125 1.0625,-0.328125 0.82813,0 1.6875,0.53125 l -0.5625,1.515625 q -0.60937,-0.359375 -1.20312,-0.359375 -0.54688,0 -0.96875,0.328125 -0.42188,0.328125 -0.60938,0.890625 -0.28125,0.875 -0.28125,1.921875 v 5.0625 z m 12.8533,-3.109375 1.6875,0.203125 q -0.40625,1.484375 -1.48437,2.3125 -1.07813,0.8125 -2.76563,0.8125 -2.125,0 -3.375,-1.296875 -1.23437,-1.3125 -1.23437,-3.671875 0,-2.453125 1.25,-3.796875 1.26562,-1.34375 3.26562,-1.34375 1.9375,0 3.15625,1.328125 1.23438,1.3125 1.23438,3.703125 0,0.15625 0,0.4375 h -7.21875 q 0.0937,1.59375 0.90625,2.453125 0.8125,0.84375 2.01562,0.84375 0.90625,0 1.54688,-0.46875 0.64062,-0.484375 1.01562,-1.515625 z m -5.39062,-2.65625 h 5.40625 q -0.10938,-1.21875 -0.625,-1.828125 -0.78125,-0.953125 -2.03125,-0.953125 -1.125,0 -1.90625,0.765625 -0.76563,0.75 -0.84375,2.015625 z m 9.17259,9.46875 v -17.0625 h 3.60937 V 68.4725 h -1.96875 v 14.34375 h 1.96875 v 1.359375 z m 14.4958,-5.1875 q -0.59375,0.6875 -1.32812,1.109375 -0.73438,0.40625 -1.46875,0.40625 -0.8125,0 -1.57813,-0.46875 -0.76562,-0.484375 -1.25,-1.46875 -0.46875,-0.984375 -0.46875,-2.15625 0,-1.453125 0.73438,-2.90625 0.75,-1.453125 1.84375,-2.171875 1.10937,-0.734375 2.14062,-0.734375 0.79688,0 1.51563,0.421875 0.71875,0.40625 1.23437,1.25 l 0.3125,-1.40625 h 1.64063 l -1.3125,6.109375 q -0.28125,1.28125 -0.28125,1.40625 0,0.25 0.1875,0.4375 0.1875,0.171875 0.45312,0.171875 0.48438,0 1.26563,-0.5625 1.04687,-0.71875 1.64062,-1.9375 0.60938,-1.234375 0.60938,-2.53125 0,-1.53125 -0.78125,-2.84375 -0.78125,-1.328125 -2.32813,-2.109375 -1.53125,-0.796875 -3.40625,-0.796875 -2.125,0 -3.89062,1 -1.76563,0.984375 -2.73438,2.859375 -0.96875,1.859375 -0.96875,3.984375 0,2.234375 0.96875,3.84375 0.96875,1.609375 2.79688,2.375 1.84375,0.78125 4.07812,0.78125 2.39063,0 4,-0.8125 1.60938,-0.796875 2.40625,-1.9375 h 1.65625 q -0.46875,0.953125 -1.59375,1.9375 -1.125,1 -2.6875,1.578125 -1.5625,0.578125 -3.75,0.578125 -2.03125,0 -3.73437,-0.515625 -1.70313,-0.515625 -2.90625,-1.5625 -1.20313,-1.046875 -1.8125,-2.40625 -0.76563,-1.71875 -0.76563,-3.703125 0,-2.234375 0.90625,-4.25 1.10938,-2.46875 3.15625,-3.765625 2.04688,-1.3125 4.95313,-1.3125 2.26562,0 4.0625,0.921875 1.79687,0.921875 2.84375,2.75 0.875,1.578125 0.875,3.421875 0,2.640625 -1.85938,4.703125 -1.65625,1.828125 -3.625,1.828125 -0.625,0 -1.01562,-0.1875 -0.375,-0.1875 -0.5625,-0.546875 -0.125,-0.21875 -0.17188,-0.78125 z m -4.40625,-2.46875 q 0,1.25 0.57813,1.9375 0.59375,0.6875 1.35937,0.6875 0.51563,0 1.07813,-0.296875 0.5625,-0.3125 1.07812,-0.90625 0.51563,-0.609375 0.84375,-1.53125 0.32813,-0.921875 0.32813,-1.84375 0,-1.25 -0.60938,-1.921875 -0.60937,-0.6875 -1.5,-0.6875 -0.57812,0 -1.09375,0.296875 -0.51562,0.296875 -1,0.953125 -0.48437,0.65625 -0.78125,1.59375 -0.28125,0.9375 -0.28125,1.71875 z m 14.00115,3.953125 v -9.671875 h 1.46875 v 1.375 q 1.0625,-1.59375 3.07812,-1.59375 0.875,0 1.60938,0.3125 0.73437,0.3125 1.09375,0.828125 0.375,0.5 0.51562,1.203125 0.0937,0.453125 0.0937,1.59375 V 80.4725 h -1.64062 v -5.890625 q 0,-1 -0.20313,-1.484375 -0.1875,-0.5 -0.67187,-0.796875 -0.48438,-0.296875 -1.14063,-0.296875 -1.04687,0 -1.8125,0.671875 -0.75,0.65625 -0.75,2.515625 v 5.28125 z m 16.68821,-1.1875 q -0.92187,0.765625 -1.76562,1.09375 -0.82813,0.3125 -1.79688,0.3125 -1.59375,0 -2.45312,-0.78125 -0.85938,-0.78125 -0.85938,-1.984375 0,-0.71875 0.32813,-1.296875 0.32812,-0.59375 0.84375,-0.9375 0.53125,-0.359375 1.1875,-0.546875 0.46875,-0.125 1.45312,-0.25 1.98438,-0.234375 2.92188,-0.5625 0.0156,-0.34375 0.0156,-0.421875 0,-1 -0.46875,-1.421875 -0.625,-0.546875 -1.875,-0.546875 -1.15625,0 -1.70312,0.40625 -0.54688,0.40625 -0.8125,1.421875 l -1.60938,-0.21875 Q 127.9064,72.535 128.4064,71.91 q 0.5,-0.640625 1.45313,-0.984375 0.95312,-0.34375 2.1875,-0.34375 1.25,0 2.01562,0.296875 0.78125,0.28125 1.14063,0.734375 0.375,0.4375 0.51562,1.109375 0.0781,0.421875 0.0781,1.515625 v 2.1875 q 0,2.28125 0.10937,2.890625 0.10938,0.59375 0.40625,1.15625 h -1.70312 q -0.26563,-0.515625 -0.32813,-1.1875 z m -0.14062,-3.671875 q -0.89063,0.375 -2.67188,0.625 -1.01562,0.140625 -1.4375,0.328125 -0.42187,0.1875 -0.65625,0.53125 -0.21875,0.34375 -0.21875,0.78125 0,0.65625 0.5,1.09375 0.5,0.4375 1.45313,0.4375 0.9375,0 1.67187,-0.40625 0.75,-0.421875 1.09375,-1.140625 0.26563,-0.5625 0.26563,-1.640625 z m 4.20384,4.859375 v -9.671875 h 1.46875 V 72.16 q 0.45313,-0.71875 1.20313,-1.140625 0.76562,-0.4375 1.71875,-0.4375 1.07812,0 1.76562,0.453125 0.6875,0.4375 0.96875,1.234375 1.15625,-1.6875 2.98438,-1.6875 1.45312,0 2.21875,0.796875 0.78125,0.796875 0.78125,2.453125 V 80.4725 h -1.64063 v -6.09375 q 0,-0.984375 -0.15625,-1.40625 -0.15625,-0.4375 -0.57812,-0.703125 -0.42188,-0.265625 -0.98438,-0.265625 -1.01562,0 -1.6875,0.6875 -0.67187,0.671875 -0.67187,2.15625 v 5.625 h -1.64063 v -6.28125 q 0,-1.09375 -0.40625,-1.640625 -0.40625,-0.546875 -1.3125,-0.546875 -0.6875,0 -1.28125,0.359375 -0.59375,0.359375 -0.85937,1.0625 -0.25,0.703125 -0.25,2.03125 V 80.4725 Z m 22.1658,-3.109375 1.6875,0.203125 q -0.40625,1.484375 -1.48437,2.3125 -1.07813,0.8125 -2.76563,0.8125 -2.125,0 -3.375,-1.296875 -1.23437,-1.3125 -1.23437,-3.671875 0,-2.453125 1.25,-3.796875 1.26562,-1.34375 3.26562,-1.34375 1.9375,0 3.15625,1.328125 1.23438,1.3125 1.23438,3.703125 0,0.15625 0,0.4375 h -7.21875 q 0.0937,1.59375 0.90625,2.453125 0.8125,0.84375 2.01562,0.84375 0.90625,0 1.54688,-0.46875 0.64062,-0.484375 1.01562,-1.515625 z m -5.39062,-2.65625 h 5.40625 q -0.10938,-1.21875 -0.625,-1.828125 -0.78125,-0.953125 -2.03125,-0.953125 -1.125,0 -1.90625,0.765625 -0.76563,0.75 -0.84375,2.015625 z m 11.87572,9.46875 h -3.60938 V 82.81625 h 1.96875 V 68.4725 h -1.96875 v -1.359375 h 3.60938 z"
     fill-rule="nonzero"
     id="path47" />
  <path
     fill="#d9ead3"
     d="M 20.127297,114.07218 H 182.23753 v 28.91338 H 20.127297 Z"
     fill-rule="evenodd"
     id="path49" />
  <path
     stroke="#000000"
     stroke-width="1"
     stroke-linejoin="round"
     stroke-linecap="butt"
     d="M 20.127297,114.07218 H 182.23753 v 28.91338 H 20.127297 Z"
     fill-rule="evenodd"
     id="path51" />
  <path
     fill="#000000"
     d="m 88.36348,133.98012 0.23438,1.45312 q -0.6875,0.14063 -1.23438,0.14063 -0.89062,0 -1.39062,-0.28125 -0.48438,-0.28125 -0.6875,-0.73438 -0.20313,-0.46875 -0.20313,-1.9375 v -5.57812 h -1.20312 v -1.26563 h 1.20312 v -2.39062 l 1.625,-0.98438 v 3.375 h 1.65625 v 1.26563 h -1.65625 v 5.67187 q 0,0.6875 0.0781,0.89063 0.0937,0.20312 0.28125,0.32812 0.20312,0.10938 0.57812,0.10938 0.26563,0 0.71875,-0.0625 z m 1.52705,5.1875 -0.1875,-1.53125 q 0.54688,0.14062 0.9375,0.14062 0.54688,0 0.875,-0.1875 0.32813,-0.17187 0.54688,-0.5 0.15625,-0.25 0.5,-1.21875 0.0469,-0.14062 0.14062,-0.40625 l -3.67187,-9.6875 h 1.76562 l 2.01563,5.59375 q 0.39062,1.07813 0.70312,2.25 0.28125,-1.125 0.67188,-2.20312 l 2.07812,-5.64063 h 1.64063 l -3.6875,9.82813 q -0.59375,1.60937 -0.92188,2.20312 -0.4375,0.8125 -1,1.1875 -0.5625,0.375 -1.34375,0.375 -0.48437,0 -1.0625,-0.20312 z m 9.40625,-0.0156 v -13.375 h 1.48439 v 1.25 q 0.53125,-0.73437 1.1875,-1.09375 0.67187,-0.375 1.625,-0.375 1.23437,0 2.17187,0.64063 0.95313,0.625 1.4375,1.79687 0.48438,1.15625 0.48438,2.54688 0,1.48437 -0.53125,2.67187 -0.53125,1.1875 -1.54688,1.82813 -1.01562,0.625 -2.14062,0.625 -0.8125,0 -1.46875,-0.34375 -0.65625,-0.34375 -1.0625,-0.875 v 4.70312 z m 1.48439,-8.48437 q 0,1.85937 0.75,2.76562 0.76562,0.89063 1.82812,0.89063 1.09375,0 1.875,-0.92188 0.78125,-0.9375 0.78125,-2.875 0,-1.84375 -0.76562,-2.76562 -0.75,-0.92188 -1.8125,-0.92188 -1.04688,0 -1.85938,0.98438 -0.79687,0.96875 -0.79687,2.84375 z m 15.51634,1.67187 1.6875,0.20313 q -0.40625,1.48437 -1.48438,2.3125 -1.07812,0.8125 -2.76562,0.8125 -2.125,0 -3.375,-1.29688 -1.23438,-1.3125 -1.23438,-3.67187 0,-2.45313 1.25,-3.79688 1.26563,-1.34375 3.26563,-1.34375 1.9375,0 3.15625,1.32813 1.23437,1.3125 1.23437,3.70312 0,0.15625 0,0.4375 h -7.21875 q 0.0937,1.59375 0.90625,2.45313 0.8125,0.84375 2.01563,0.84375 0.90625,0 1.54687,-0.46875 0.64063,-0.48438 1.01563,-1.51563 z m -5.39063,-2.65625 h 5.40625 q -0.10937,-1.21875 -0.625,-1.82812 -0.78125,-0.95313 -2.03125,-0.95313 -1.125,0 -1.90625,0.76563 -0.76562,0.75 -0.84375,2.01562 z"
     fill-rule="nonzero"
     id="path53" />
  <path
     fill="#ead1dc"
     d="M 391.82806,96.16142 H 553.93829 V 125.0748 H 391.82806 Z"
     fill-rule="evenodd"
     id="path55" />
  <path
     stroke="#000000"
     stroke-width="1"
     stroke-linejoin="round"
     stroke-linecap="butt"
     d="M 391.82806,96.16142 H 553.93829 V 125.0748 H 391.82806 Z"
     fill-rule="evenodd"
     id="path57" />
  <path
     fill="#000000"
     d="m 442.87894,114.42874 1.6875,0.20312 q -0.40625,1.48438 -1.48438,2.3125 -1.07812,0.8125 -2.76562,0.8125 -2.125,0 -3.375,-1.29687 -1.23438,-1.3125 -1.23438,-3.67188 0,-2.45312 1.25,-3.79687 1.26563,-1.34375 3.26563,-1.34375 1.9375,0 3.15625,1.32812 1.23437,1.3125 1.23437,3.70313 0,0.15625 0,0.4375 h -7.21875 q 0.0937,1.59375 0.90625,2.45312 0.8125,0.84375 2.01563,0.84375 0.90625,0 1.54687,-0.46875 0.64063,-0.48437 1.01563,-1.51562 z m -5.39063,-2.65625 h 5.40625 q -0.10937,-1.21875 -0.625,-1.82813 -0.78125,-0.95312 -2.03125,-0.95312 -1.125,0 -1.90625,0.76562 -0.76562,0.75 -0.84375,2.01563 z m 9.14136,5.76562 v -9.67187 h 1.46875 v 1.375 q 1.0625,-1.59375 3.07813,-1.59375 0.875,0 1.60937,0.3125 0.73438,0.3125 1.09375,0.82812 0.375,0.5 0.51563,1.20313 0.0937,0.45312 0.0937,1.59375 v 5.95312 h -1.64063 v -5.89062 q 0,-1 -0.20312,-1.48438 -0.1875,-0.5 -0.67188,-0.79687 -0.48437,-0.29688 -1.14062,-0.29688 -1.04688,0 -1.8125,0.67188 -0.75,0.65625 -0.75,2.51562 v 5.28125 z m 16.6882,-3.54687 1.60938,0.21875 q -0.26563,1.65625 -1.35938,2.60937 -1.07812,0.9375 -2.67187,0.9375 -1.98438,0 -3.1875,-1.29687 -1.20313,-1.29688 -1.20313,-3.71875 0,-1.57813 0.51563,-2.75 0.51562,-1.17188 1.57812,-1.75 1.0625,-0.59375 2.3125,-0.59375 1.57813,0 2.57813,0.79687 1,0.79688 1.28125,2.26563 l -1.59375,0.23437 q -0.23438,-0.96875 -0.8125,-1.45312 -0.57813,-0.5 -1.39063,-0.5 -1.23437,0 -2.01562,0.89062 -0.78125,0.89063 -0.78125,2.8125 0,1.95313 0.75,2.84375 0.75,0.875 1.95312,0.875 0.96875,0 1.60938,-0.59375 0.65625,-0.59375 0.82812,-1.82812 z m 2.40625,-1.29688 q 0,-2.6875 1.48438,-3.96875 1.25,-1.07812 3.04687,-1.07812 2,0 3.26563,1.3125 1.26562,1.29687 1.26562,3.60937 0,1.85938 -0.5625,2.9375 -0.5625,1.0625 -1.64062,1.65625 -1.0625,0.59375 -2.32813,0.59375 -2.03125,0 -3.28125,-1.29687 -1.25,-1.3125 -1.25,-3.76563 z m 1.6875,0 q 0,1.85938 0.79688,2.79688 0.8125,0.92187 2.04687,0.92187 1.21875,0 2.03125,-0.92187 0.8125,-0.9375 0.8125,-2.84375 0,-1.79688 -0.8125,-2.71875 -0.8125,-0.92188 -2.03125,-0.92188 -1.23437,0 -2.04687,0.92188 -0.79688,0.90625 -0.79688,2.76562 z m 15.56324,4.84375 v -1.21875 q -0.90625,1.4375 -2.70313,1.4375 -1.15625,0 -2.125,-0.64062 -0.96875,-0.64063 -1.5,-1.78125 -0.53125,-1.14063 -0.53125,-2.625 0,-1.45313 0.48438,-2.625 0.48437,-1.1875 1.4375,-1.8125 0.96875,-0.625 2.17187,-0.625 0.875,0 1.54688,0.375 0.6875,0.35937 1.10937,0.95312 v -4.79687 h 1.64063 v 13.35937 z m -5.17188,-4.82812 q 0,1.85937 0.78125,2.78125 0.78125,0.92187 1.84375,0.92187 1.07813,0 1.82813,-0.875 0.75,-0.89062 0.75,-2.6875 0,-1.98437 -0.76563,-2.90625 -0.76562,-0.9375 -1.89062,-0.9375 -1.07813,0 -1.8125,0.89063 -0.73438,0.89062 -0.73438,2.8125 z m 9.28198,-6.64063 v -1.89062 h 1.64063 v 1.89062 z m 0,11.46875 v -9.67187 h 1.64063 v 9.67187 z m 4.14478,0 v -9.67187 h 1.46875 v 1.375 q 1.0625,-1.59375 3.07812,-1.59375 0.875,0 1.60938,0.3125 0.73437,0.3125 1.09375,0.82812 0.375,0.5 0.51562,1.20313 0.0937,0.45312 0.0937,1.59375 v 5.95312 h -1.64062 v -5.89062 q 0,-1 -0.20313,-1.48438 -0.1875,-0.5 -0.67187,-0.79687 -0.48438,-0.29688 -1.14063,-0.29688 -1.04687,0 -1.8125,0.67188 -0.75,0.65625 -0.75,2.51562 v 5.28125 z m 10.06323,0.79688 1.59375,0.23437 q 0.10938,0.75 0.5625,1.07813 0.60938,0.45312 1.67188,0.45312 1.14062,0 1.75,-0.45312 0.625,-0.45313 0.84375,-1.26563 0.125,-0.5 0.10937,-2.10937 -1.0625,1.26562 -2.67187,1.26562 -2,0 -3.09375,-1.4375 -1.09375,-1.4375 -1.09375,-3.45312 0,-1.39063 0.5,-2.5625 0.51562,-1.17188 1.45312,-1.79688 0.95313,-0.64062 2.25,-0.64062 1.70313,0 2.8125,1.375 v -1.15625 h 1.51563 v 8.35937 q 0,2.26563 -0.46875,3.20313 -0.45313,0.9375 -1.45313,1.48438 -0.98437,0.54687 -2.45312,0.54687 -1.71875,0 -2.79688,-0.78125 -1.0625,-0.76563 -1.03125,-2.34375 z m 1.35938,-5.8125 q 0,1.90625 0.75,2.78125 0.76562,0.875 1.90625,0.875 1.125,0 1.89062,-0.85938 0.76563,-0.875 0.76563,-2.73437 0,-1.78125 -0.79688,-2.67188 -0.78125,-0.90625 -1.89062,-0.90625 -1.09375,0 -1.85938,0.89063 -0.76562,0.875 -0.76562,2.625 z"
     fill-rule="nonzero"
     id="path59" />
  <path
     fill="#ead1dc"
     d="m 391.82806,132.81233 h 162.11023 v 28.91339 H 391.82806 Z"
     fill-rule="evenodd"
     id="path61" />
  <path
     stroke="#000000"
     stroke-width="1"
     stroke-linejoin="round"
     stroke-linecap="butt"
     d="m 391.82806,132.81233 h 162.11023 v 28.91339 H 391.82806 Z"
     fill-rule="evenodd"
     id="path63" />
  <path
     fill="#000000"
     d="m 448.07243,154.18903 v -8.40625 h -1.45313 v -1.26563 h 1.45313 v -1.03125 q 0,-0.96875 0.17187,-1.45312 0.23438,-0.64063 0.82813,-1.03125 0.59375,-0.39063 1.67187,-0.39063 0.6875,0 1.53125,0.15625 l -0.25,1.4375 q -0.5,-0.0937 -0.95312,-0.0937 -0.75,0 -1.0625,0.32813 -0.3125,0.3125 -0.3125,1.1875 v 0.89062 h 1.89062 v 1.26563 h -1.89062 v 8.40625 z m 4.18332,-4.84375 q 0,-2.6875 1.48437,-3.96875 1.25,-1.07813 3.04688,-1.07813 2,0 3.26562,1.3125 1.26563,1.29688 1.26563,3.60938 0,1.85937 -0.5625,2.9375 -0.5625,1.0625 -1.64063,1.65625 -1.0625,0.59375 -2.32812,0.59375 -2.03125,0 -3.28125,-1.29688 -1.25,-1.3125 -1.25,-3.76562 z m 1.6875,0 q 0,1.85937 0.79687,2.79687 0.8125,0.92188 2.04688,0.92188 1.21875,0 2.03125,-0.92188 0.8125,-0.9375 0.8125,-2.84375 0,-1.79687 -0.8125,-2.71875 -0.8125,-0.92187 -2.03125,-0.92187 -1.23438,0 -2.04688,0.92187 -0.79687,0.90625 -0.79687,2.76563 z m 9.28195,4.84375 v -9.67188 h 1.46875 v 1.46875 q 0.5625,-1.03125 1.03125,-1.35937 0.48438,-0.32813 1.0625,-0.32813 0.82813,0 1.6875,0.53125 l -0.5625,1.51563 q -0.60937,-0.35938 -1.20312,-0.35938 -0.54688,0 -0.96875,0.32813 -0.42188,0.32812 -0.60938,0.89062 -0.28125,0.875 -0.28125,1.92188 v 5.0625 z m 6.2283,0 v -9.67188 h 1.46875 v 1.35938 q 0.45313,-0.71875 1.20313,-1.14063 0.76562,-0.4375 1.71875,-0.4375 1.07812,0 1.76562,0.45313 0.6875,0.4375 0.96875,1.23437 1.15625,-1.6875 2.98438,-1.6875 1.45312,0 2.21875,0.79688 0.78125,0.79687 0.78125,2.45312 v 6.64063 h -1.64063 v -6.09375 q 0,-0.98438 -0.15625,-1.40625 -0.15625,-0.4375 -0.57812,-0.70313 -0.42188,-0.26562 -0.98438,-0.26562 -1.01562,0 -1.6875,0.6875 -0.67187,0.67187 -0.67187,2.15625 v 5.625 h -1.64063 v -6.28125 q 0,-1.09375 -0.40625,-1.64063 -0.40625,-0.54687 -1.3125,-0.54687 -0.6875,0 -1.28125,0.35937 -0.59375,0.35938 -0.85937,1.0625 -0.25,0.70313 -0.25,2.03125 v 5.01563 z m 21.85334,-1.1875 q -0.92188,0.76562 -1.76563,1.09375 -0.82812,0.3125 -1.79687,0.3125 -1.59375,0 -2.45313,-0.78125 -0.8594,-0.78125 -0.8594,-1.98438 0,-0.71875 0.32815,-1.29687 0.32813,-0.59375 0.84375,-0.9375 0.53125,-0.35938 1.1875,-0.54688 0.46875,-0.125 1.45313,-0.25 1.98437,-0.23437 2.92187,-0.5625 0.0156,-0.34375 0.0156,-0.42187 0,-1 -0.46875,-1.42188 -0.625,-0.54687 -1.875,-0.54687 -1.15625,0 -1.70313,0.40625 -0.54687,0.40625 -0.8125,1.42187 l -1.60937,-0.21875 q 0.21875,-1.01562 0.71875,-1.64062 0.5,-0.64063 1.45312,-0.98438 0.95313,-0.34375 2.1875,-0.34375 1.25,0 2.01563,0.29688 0.78125,0.28125 1.14062,0.73437 0.375,0.4375 0.51563,1.10938 0.0781,0.42187 0.0781,1.51562 v 2.1875 q 0,2.28125 0.10938,2.89063 0.10937,0.59375 0.40625,1.15625 h -1.70313 q -0.26562,-0.51563 -0.32812,-1.1875 z m -0.14063,-3.67188 q -0.89062,0.375 -2.67187,0.625 -1.01563,0.14063 -1.4375,0.32813 -0.42188,0.1875 -0.65625,0.53125 -0.21875,0.34375 -0.21875,0.78125 0,0.65625 0.5,1.09375 0.5,0.4375 1.45312,0.4375 0.9375,0 1.67188,-0.40625 0.75,-0.42188 1.09375,-1.14063 0.26562,-0.5625 0.26562,-1.64062 z m 7.78192,3.39063 0.23438,1.45312 q -0.6875,0.14063 -1.23438,0.14063 -0.89062,0 -1.39062,-0.28125 -0.48438,-0.28125 -0.6875,-0.73438 -0.20313,-0.46875 -0.20313,-1.9375 v -5.57812 h -1.20312 v -1.26563 h 1.20312 v -2.39062 l 1.625,-0.98438 v 3.375 h 1.65625 v 1.26563 h -1.65625 v 5.67187 q 0,0.6875 0.0781,0.89063 0.0937,0.20312 0.28125,0.32812 0.20312,0.10938 0.57812,0.10938 0.26563,0 0.71875,-0.0625 z"
     fill-rule="nonzero"
     id="path65" />
  <path
     fill="#ead1dc"
     d="M 391.82806,59.5105 H 553.93829 V 88.423883 H 391.82806 Z"
     fill-rule="evenodd"
     id="path67" />
  <path
     stroke="#000000"
     stroke-width="1"
     stroke-linejoin="round"
     stroke-linecap="butt"
     d="M 391.82806,59.5105 H 553.93829 V 88.423883 H 391.82806 Z"
     fill-rule="evenodd"
     id="path69" />
  <path
     fill="#000000"
     d="m 449.9473,81.68407 1.59375,0.234375 q 0.10937,0.75 0.5625,1.078125 0.60937,0.453125 1.67187,0.453125 1.14063,0 1.75,-0.453125 0.625,-0.453125 0.84375,-1.265625 0.125,-0.5 0.10938,-2.109375 -1.0625,1.265625 -2.67188,1.265625 -2,0 -3.09375,-1.4375 -1.09375,-1.4375 -1.09375,-3.453125 0,-1.390625 0.5,-2.5625 0.51563,-1.171875 1.45313,-1.796875 0.95312,-0.640625 2.25,-0.640625 1.70312,0 2.8125,1.375 v -1.15625 h 1.51562 v 8.359375 q 0,2.265625 -0.46875,3.203125 -0.45312,0.9375 -1.45312,1.484375 -0.98438,0.546875 -2.45313,0.546875 -1.71875,0 -2.79687,-0.78125 -1.0625,-0.765625 -1.03125,-2.34375 z m 1.35937,-5.8125 q 0,1.90625 0.75,2.78125 0.76563,0.875 1.90625,0.875 1.125,0 1.89063,-0.859375 0.76562,-0.875 0.76562,-2.734375 0,-1.78125 -0.79687,-2.671875 -0.78125,-0.90625 -1.89063,-0.90625 -1.09375,0 -1.85937,0.890625 -0.76563,0.875 -0.76563,2.625 z m 9.31321,5.015625 V 71.21532 h 1.46875 v 1.46875 q 0.5625,-1.03125 1.03125,-1.359375 0.48437,-0.328125 1.0625,-0.328125 0.82812,0 1.6875,0.53125 l -0.5625,1.515625 q -0.60938,-0.359375 -1.20313,-0.359375 -0.54687,0 -0.96875,0.328125 -0.42187,0.328125 -0.60937,0.890625 -0.28125,0.875 -0.28125,1.921875 v 5.0625 z m 5.61892,-4.84375 q 0,-2.6875 1.48438,-3.96875 1.25,-1.078125 3.04687,-1.078125 2,0 3.26563,1.3125 1.26562,1.296875 1.26562,3.609375 0,1.859375 -0.5625,2.9375 -0.5625,1.0625 -1.64062,1.65625 -1.0625,0.59375 -2.32813,0.59375 -2.03125,0 -3.28125,-1.296875 -1.25,-1.3125 -1.25,-3.765625 z m 1.6875,0 q 0,1.859375 0.79688,2.796875 0.8125,0.921875 2.04687,0.921875 1.21875,0 2.03125,-0.921875 0.8125,-0.9375 0.8125,-2.84375 0,-1.796875 -0.8125,-2.71875 -0.8125,-0.921875 -2.03125,-0.921875 -1.23437,0 -2.04687,0.921875 -0.79688,0.90625 -0.79688,2.765625 z m 15.62574,4.84375 V 79.46532 q -1.125,1.640625 -3.0625,1.640625 -0.85938,0 -1.60938,-0.328125 -0.73437,-0.328125 -1.09375,-0.828125 -0.35937,-0.5 -0.5,-1.21875 -0.10937,-0.46875 -0.10937,-1.53125 V 71.21532 h 1.64062 v 5.359375 q 0,1.28125 0.10938,1.734375 0.15625,0.640625 0.65625,1.015625 0.5,0.375 1.23437,0.375 0.73438,0 1.375,-0.375 0.65625,-0.390625 0.92188,-1.03125 0.26562,-0.65625 0.26562,-1.890625 v -5.1875 h 1.6406 v 9.671875 z m 4.04757,3.703125 v -13.375 h 1.48438 v 1.25 q 0.53125,-0.734375 1.1875,-1.09375 0.67187,-0.375 1.625,-0.375 1.23437,0 2.17187,0.640625 0.95313,0.625 1.4375,1.796875 0.48438,1.15625 0.48438,2.546875 0,1.484375 -0.53125,2.671875 -0.53125,1.1875 -1.54688,1.828125 -1.01562,0.625 -2.14062,0.625 -0.8125,0 -1.46875,-0.34375 -0.65625,-0.34375 -1.0625,-0.875 v 4.703125 z m 1.48438,-8.484375 q 0,1.859375 0.75,2.765625 0.76562,0.890625 1.82812,0.890625 1.09375,0 1.875,-0.921875 0.78125,-0.9375 0.78125,-2.875 0,-1.84375 -0.76562,-2.765625 -0.75,-0.921875 -1.8125,-0.921875 -1.04688,0 -1.85938,0.984375 -0.79687,0.96875 -0.79687,2.84375 z"
     fill-rule="nonzero"
     id="path71" />
  <path
     fill="#ead1dc"
     d="m 391.83596,279.41338 h 162.11023 v 28.91339 H 391.83596 Z"
     fill-rule="evenodd"
     id="path73" />
  <path
     stroke="#000000"
     stroke-width="1"
     stroke-linejoin="round"
     stroke-linecap="butt"
     d="m 391.83596,279.41338 h 162.11023 v 28.91339 H 391.83596 Z"
     fill-rule="evenodd"
     id="path75" />
  <path
     fill="#000000"
     d="m 450.86994,295.94634 q 0,-2.6875 1.48437,-3.96875 1.25,-1.07812 3.04688,-1.07812 2,0 3.26562,1.3125 1.26563,1.29687 1.26563,3.60937 0,1.85938 -0.5625,2.9375 -0.5625,1.0625 -1.64063,1.65625 -1.0625,0.59375 -2.32812,0.59375 -2.03125,0 -3.28125,-1.29687 -1.25,-1.3125 -1.25,-3.76563 z m 1.6875,0 q 0,1.85938 0.79687,2.79688 0.8125,0.92187 2.04688,0.92187 1.21875,0 2.03125,-0.92187 0.8125,-0.9375 0.8125,-2.84375 0,-1.79688 -0.8125,-2.71875 -0.8125,-0.92188 -2.03125,-0.92188 -1.23438,0 -2.04688,0.92188 -0.79687,0.90625 -0.79687,2.76562 z m 9.68823,4.84375 v -8.40625 h -1.45312 v -1.26562 h 1.45312 v -1.03125 q 0,-0.96875 0.17188,-1.45313 0.23437,-0.64062 0.82812,-1.03125 0.59375,-0.39062 1.67188,-0.39062 0.6875,0 1.53125,0.15625 l -0.25,1.4375 q -0.5,-0.0937 -0.95313,-0.0937 -0.75,0 -1.0625,0.32812 -0.3125,0.3125 -0.3125,1.1875 v 0.89063 h 1.89063 v 1.26562 h -1.89063 v 8.40625 z m 4.84607,0 v -8.40625 h -1.45312 v -1.26562 h 1.45312 v -1.03125 q 0,-0.96875 0.17188,-1.45313 0.23437,-0.64062 0.82812,-1.03125 0.59375,-0.39062 1.67188,-0.39062 0.6875,0 1.53125,0.15625 l -0.25,1.4375 q -0.5,-0.0937 -0.95313,-0.0937 -0.75,0 -1.0625,0.32812 -0.3125,0.3125 -0.3125,1.1875 v 0.89063 h 1.89063 v 1.26562 h -1.89063 v 8.40625 z m 4.13641,-2.89062 1.625,-0.25 q 0.125,0.96875 0.75,1.5 0.625,0.51562 1.75,0.51562 1.125,0 1.67188,-0.45312 0.54687,-0.46875 0.54687,-1.09375 0,-0.54688 -0.48437,-0.875 -0.32813,-0.21875 -1.67188,-0.54688 -1.8125,-0.46875 -2.51562,-0.79687 -0.6875,-0.32813 -1.04688,-0.90625 -0.35937,-0.59375 -0.35937,-1.3125 0,-0.64063 0.29687,-1.1875 0.29688,-0.5625 0.8125,-0.92188 0.375,-0.28125 1.03125,-0.46875 0.67188,-0.20312 1.42188,-0.20312 1.14062,0 2,0.32812 0.85937,0.32813 1.26562,0.89063 0.42188,0.5625 0.57813,1.5 l -1.60938,0.21875 q -0.10937,-0.75 -0.64062,-1.17188 -0.51563,-0.42187 -1.46875,-0.42187 -1.14063,0 -1.625,0.375 -0.46875,0.375 -0.46875,0.875 0,0.3125 0.1875,0.57812 0.20312,0.26563 0.64062,0.4375 0.23438,0.0937 1.4375,0.42188 1.75,0.45312 2.4375,0.75 0.6875,0.29687 1.07813,0.85937 0.39062,0.5625 0.39062,1.40625 0,0.82813 -0.48437,1.54688 -0.46875,0.71875 -1.375,1.125 -0.90625,0.39062 -2.04688,0.39062 -1.875,0 -2.875,-0.78125 -0.98437,-0.78125 -1.25,-2.32812 z m 16.60938,-0.21875 1.6875,0.20312 q -0.40625,1.48438 -1.48438,2.3125 -1.07812,0.8125 -2.76562,0.8125 -2.125,0 -3.375,-1.29687 -1.23438,-1.3125 -1.23438,-3.67188 0,-2.45312 1.25,-3.79687 1.26563,-1.34375 3.26563,-1.34375 1.9375,0 3.15625,1.32812 1.23437,1.3125 1.23437,3.70313 0,0.15625 0,0.4375 h -7.21875 q 0.0937,1.59375 0.90625,2.45312 0.8125,0.84375 2.01563,0.84375 0.90625,0 1.54687,-0.46875 0.64063,-0.48437 1.01563,-1.51562 z m -5.39063,-2.65625 h 5.40625 q -0.10937,-1.21875 -0.625,-1.82813 -0.78125,-0.95312 -2.03125,-0.95312 -1.125,0 -1.90625,0.76562 -0.76562,0.75 -0.84375,2.01563 z m 12.71949,4.29687 0.23437,1.45313 q -0.6875,0.14062 -1.23437,0.14062 -0.89063,0 -1.39063,-0.28125 -0.48437,-0.28125 -0.6875,-0.73437 -0.20312,-0.46875 -0.20312,-1.9375 v -5.57813 h -1.20313 v -1.26562 h 1.20313 v -2.39063 l 1.625,-0.98437 v 3.375 h 1.65625 v 1.26562 h -1.65625 v 5.67188 q 0,0.6875 0.0781,0.89062 0.0937,0.20313 0.28125,0.32813 0.20313,0.10937 0.57813,0.10937 0.26562,0 0.71875,-0.0625 z"
     fill-rule="nonzero"
     id="path77" />
  <path
     fill="#ead1dc"
     d="m 391.83596,347.31102 h 162.11023 v 28.91339 H 391.83596 Z"
     fill-rule="evenodd"
     id="path79" />
  <path
     stroke="#000000"
     stroke-width="1"
     stroke-linejoin="round"
     stroke-linecap="butt"
     d="m 391.83596,347.31102 h 162.11023 v 28.91339 H 391.83596 Z"
     fill-rule="evenodd"
     id="path81" />
  <path
     fill="#000000"
     d="m 447.25206,367.50023 q -0.92188,0.76562 -1.76563,1.09375 -0.82812,0.3125 -1.79687,0.3125 -1.59375,0 -2.45313,-0.78125 -0.85937,-0.78125 -0.85937,-1.98438 0,-0.71875 0.32812,-1.29687 0.32813,-0.59375 0.84375,-0.9375 0.53125,-0.35938 1.1875,-0.54688 0.46875,-0.125 1.45313,-0.25 1.98437,-0.23437 2.92187,-0.5625 0.0156,-0.34375 0.0156,-0.42187 0,-1 -0.46875,-1.42188 -0.625,-0.54687 -1.875,-0.54687 -1.15625,0 -1.70313,0.40625 -0.54687,0.40625 -0.8125,1.42187 l -1.60937,-0.21875 q 0.21875,-1.01562 0.71875,-1.64062 0.5,-0.64063 1.45312,-0.98438 0.95313,-0.34375 2.1875,-0.34375 1.25,0 2.01563,0.29688 0.78125,0.28125 1.14062,0.73437 0.375,0.4375 0.51563,1.10938 0.0781,0.42187 0.0781,1.51562 v 2.1875 q 0,2.28125 0.10938,2.89063 0.10937,0.59375 0.40625,1.15625 h -1.70313 q -0.26562,-0.51563 -0.32812,-1.1875 z m -0.14063,-3.67188 q -0.89062,0.375 -2.67187,0.625 -1.01563,0.14063 -1.4375,0.32813 -0.42188,0.1875 -0.65625,0.53125 -0.21875,0.34375 -0.21875,0.78125 0,0.65625 0.5,1.09375 0.5,0.4375 1.45312,0.4375 0.9375,0 1.67188,-0.40625 0.75,-0.42188 1.09375,-1.14063 0.26562,-0.5625 0.26562,-1.64062 z m 4.15696,4.85938 v -13.35938 h 1.64062 v 13.35938 z m 7.76983,-1.46875 0.23438,1.45312 q -0.6875,0.14063 -1.23438,0.14063 -0.89062,0 -1.39062,-0.28125 -0.48438,-0.28125 -0.6875,-0.73438 -0.20313,-0.46875 -0.20313,-1.9375 v -5.57812 h -1.20312 v -1.26563 h 1.20312 v -2.39062 l 1.625,-0.98438 v 3.375 h 1.65625 v 1.26563 h -1.65625 v 5.67187 q 0,0.6875 0.0781,0.89063 0.0937,0.20312 0.28125,0.32812 0.20312,0.10938 0.57812,0.10938 0.26563,0 0.71875,-0.0625 z m 1.60517,1.46875 v -9.67188 h 1.46875 v 1.375 q 1.0625,-1.59375 3.07812,-1.59375 0.875,0 1.60938,0.3125 0.73437,0.3125 1.09375,0.82813 0.375,0.5 0.51562,1.20312 0.0937,0.45313 0.0937,1.59375 v 5.95313 h -1.64062 v -5.89063 q 0,-1 -0.20313,-1.48437 -0.1875,-0.5 -0.67187,-0.79688 -0.48438,-0.29687 -1.14063,-0.29687 -1.04687,0 -1.8125,0.67187 -0.75,0.65625 -0.75,2.51563 v 5.28125 z m 16.68823,-1.1875 q -0.92188,0.76562 -1.76563,1.09375 -0.82812,0.3125 -1.79687,0.3125 -1.59375,0 -2.45313,-0.78125 -0.85937,-0.78125 -0.85937,-1.98438 0,-0.71875 0.32812,-1.29687 0.32813,-0.59375 0.84375,-0.9375 0.53125,-0.35938 1.1875,-0.54688 0.46875,-0.125 1.45313,-0.25 1.98437,-0.23437 2.92187,-0.5625 0.0156,-0.34375 0.0156,-0.42187 0,-1 -0.46875,-1.42188 -0.625,-0.54687 -1.875,-0.54687 -1.15625,0 -1.70313,0.40625 -0.54687,0.40625 -0.8125,1.42187 l -1.60937,-0.21875 q 0.21875,-1.01562 0.71875,-1.64062 0.5,-0.64063 1.45312,-0.98438 0.95313,-0.34375 2.1875,-0.34375 1.25,0 2.01563,0.29688 0.78125,0.28125 1.14062,0.73437 0.375,0.4375 0.51563,1.10938 0.0781,0.42187 0.0781,1.51562 v 2.1875 q 0,2.28125 0.10938,2.89063 0.10937,0.59375 0.40625,1.15625 h -1.70313 q -0.26562,-0.51563 -0.32812,-1.1875 z m -0.14063,-3.67188 q -0.89062,0.375 -2.67187,0.625 -1.01563,0.14063 -1.4375,0.32813 -0.42188,0.1875 -0.65625,0.53125 -0.21875,0.34375 -0.21875,0.78125 0,0.65625 0.5,1.09375 0.5,0.4375 1.45312,0.4375 0.9375,0 1.67188,-0.40625 0.75,-0.42188 1.09375,-1.14063 0.26562,-0.5625 0.26562,-1.64062 z m 4.20383,4.85938 v -9.67188 h 1.46875 v 1.35938 q 0.45313,-0.71875 1.20313,-1.14063 0.76565,-0.4375 1.71878,-0.4375 1.07812,0 1.76562,0.45313 0.6875,0.4375 0.96875,1.23437 1.15625,-1.6875 2.98438,-1.6875 1.45312,0 2.21875,0.79688 0.78125,0.79687 0.78125,2.45312 v 6.64063 h -1.64063 v -6.09375 q 0,-0.98438 -0.15625,-1.40625 -0.15625,-0.4375 -0.57812,-0.70313 -0.42188,-0.26562 -0.98438,-0.26562 -1.01562,0 -1.6875,0.6875 -0.67187,0.67187 -0.67187,2.15625 v 5.625 h -1.64063 v -6.28125 q 0,-1.09375 -0.40625,-1.64063 -0.40625,-0.54687 -1.3125,-0.54687 -0.6875,0 -1.28128,0.35937 -0.59375,0.35938 -0.85937,1.0625 -0.25,0.70313 -0.25,2.03125 v 5.01563 z m 22.1658,-3.10938 1.6875,0.20313 q -0.40625,1.48437 -1.48437,2.3125 -1.07813,0.8125 -2.76563,0.8125 -2.125,0 -3.375,-1.29688 -1.23437,-1.3125 -1.23437,-3.67187 0,-2.45313 1.25,-3.79688 1.26562,-1.34375 3.26562,-1.34375 1.9375,0 3.15625,1.32813 1.23438,1.3125 1.23438,3.70312 0,0.15625 0,0.4375 h -7.21875 q 0.0937,1.59375 0.90625,2.45313 0.8125,0.84375 2.01562,0.84375 0.90625,0 1.54688,-0.46875 0.64062,-0.48438 1.01562,-1.51563 z M 498.17,362.9221 h 5.40625 q -0.10938,-1.21875 -0.625,-1.82812 -0.78125,-0.95313 -2.03125,-0.95313 -1.125,0 -1.90625,0.76563 -0.76563,0.75 -0.84375,2.01562 z"
     fill-rule="nonzero"
     id="path83" />
  <path
     fill="#000000"
     fill-opacity="0"
     d="M 182.23753,128.52887 H 287.03648 V 110.60761 H 391.84382"
     fill-rule="evenodd"
     id="path85" />
  <path
     stroke="#000000"
     stroke-width="1"
     stroke-linejoin="round"
     stroke-linecap="butt"
     d="m 182.23753,128.52887 h 104.79898 v -17.92126 h 98.80731"
     fill-rule="evenodd"
     id="path87" />
  <path
     fill="#000000"
     stroke="#000000"
     stroke-width="1"
     stroke-linecap="butt"
     d="m 385.84382,112.25935 4.53812,-1.65173 -4.53812,-1.65174 z"
     fill-rule="evenodd"
     id="path89" />
  <path
     fill="#000000"
     fill-opacity="0"
     d="m 182.23753,128.52887 h 104.79895 v 18.74016 h 104.80734"
     fill-rule="evenodd"
     id="path91" />
  <path
     stroke="#000000"
     stroke-width="1"
     stroke-linejoin="round"
     stroke-linecap="butt"
     d="m 188.23753,128.52887 h 98.79898 v 18.74016 h 98.80731"
     fill-rule="evenodd"
     id="path93" />
  <path
     fill="#000000"
     stroke="#000000"
     stroke-width="1"
     stroke-linecap="butt"
     d="m 188.23753,126.87714 -4.53809,1.65173 4.53809,1.65174 z"
     fill-rule="evenodd"
     id="path95" />
  <path
     fill="#000000"
     stroke="#000000"
     stroke-width="1"
     stroke-linecap="butt"
     d="m 385.84382,148.92076 4.53812,-1.65173 -4.53812,-1.65174 z"
     fill-rule="evenodd"
     id="path97" />
  <path
     fill="#000000"
     fill-opacity="0"
     d="m 182.2454,275.12862 h 104.79895 v 18.74014 h 104.80734"
     fill-rule="evenodd"
     id="path99" />
  <path
     stroke="#000000"
     stroke-width="1"
     stroke-linejoin="round"
     stroke-linecap="butt"
     d="m 182.2454,275.12862 h 104.79895 v 18.74014 h 104.80734"
     fill-rule="evenodd"
     id="path101" />
  <path
     fill="#000000"
     fill-opacity="0"
     d="M 182.2454,311.77953 H 287.04435 V 293.85827 H 391.85169"
     fill-rule="evenodd"
     id="path103" />
  <path
     stroke="#000000"
     stroke-width="1"
     stroke-linejoin="round"
     stroke-linecap="butt"
     d="m 182.2454,311.77953 h 104.79898 v -17.92126 h 98.80731"
     fill-rule="evenodd"
     id="path105" />
  <path
     fill="#000000"
     stroke="#000000"
     stroke-width="1"
     stroke-linecap="butt"
     d="m 385.85169,295.51 4.53812,-1.65173 -4.53812,-1.65174 z"
     fill-rule="evenodd"
     id="path107" />
  <path
     fill="#ead1dc"
     d="m 391.83596,385.48686 h 162.11023 v 28.91339 H 391.83596 Z"
     fill-rule="evenodd"
     id="path109" />
  <path
     stroke="#000000"
     stroke-width="1"
     stroke-linejoin="round"
     stroke-linecap="butt"
     d="m 391.83596,385.48686 h 162.11023 v 28.91339 H 391.83596 Z"
     fill-rule="evenodd"
     id="path111" />
  <path
     fill="#000000"
     d="m 443.2187,407.66046 1.59375,0.23437 q 0.10938,0.75 0.5625,1.07813 0.60938,0.45312 1.67188,0.45312 1.14062,0 1.75,-0.45312 0.625,-0.45313 0.84375,-1.26563 0.125,-0.5 0.10937,-2.10937 -1.0625,1.26562 -2.67187,1.26562 -2,0 -3.09375,-1.4375 -1.09375,-1.4375 -1.09375,-3.45312 0,-1.39063 0.5,-2.5625 0.51562,-1.17188 1.45312,-1.79688 0.95313,-0.64062 2.25,-0.64062 1.70313,0 2.8125,1.375 v -1.15625 h 1.51563 v 8.35937 q 0,2.26563 -0.46875,3.20313 -0.45313,0.9375 -1.45313,1.48437 -0.98437,0.54688 -2.45312,0.54688 -1.71875,0 -2.79688,-0.78125 -1.0625,-0.76563 -1.03125,-2.34375 z m 1.35938,-5.8125 q 0,1.90625 0.75,2.78125 0.76562,0.875 1.90625,0.875 1.125,0 1.89062,-0.85938 0.76563,-0.875 0.76563,-2.73437 0,-1.78125 -0.79688,-2.67188 -0.78125,-0.90625 -1.89062,-0.90625 -1.09375,0 -1.85938,0.89063 -0.76562,0.875 -0.76562,2.625 z m 15.95385,1.90625 1.6875,0.20312 q -0.40625,1.48438 -1.48437,2.3125 -1.07813,0.8125 -2.76563,0.8125 -2.125,0 -3.375,-1.29687 -1.23437,-1.3125 -1.23437,-3.67188 0,-2.45312 1.25,-3.79687 1.26562,-1.34375 3.26562,-1.34375 1.9375,0 3.15625,1.32812 1.23438,1.3125 1.23438,3.70313 0,0.15625 0,0.4375 h -7.21875 q 0.0937,1.59375 0.90625,2.45312 0.8125,0.84375 2.01562,0.84375 0.90625,0 1.54688,-0.46875 0.64062,-0.48437 1.01562,-1.51562 z m -5.39062,-2.65625 h 5.40625 q -0.10938,-1.21875 -0.625,-1.82813 -0.78125,-0.95312 -2.03125,-0.95312 -1.125,0 -1.90625,0.76562 -0.76563,0.75 -0.84375,2.01563 z m 9.14132,5.76562 v -9.67187 h 1.46875 v 1.375 q 1.0625,-1.59375 3.07813,-1.59375 0.875,0 1.60937,0.3125 0.73438,0.3125 1.09375,0.82812 0.375,0.5 0.51563,1.20313 0.0937,0.45312 0.0937,1.59375 v 5.95312 h -1.64063 v -5.89062 q 0,-1 -0.20312,-1.48438 -0.1875,-0.5 -0.67188,-0.79687 -0.48437,-0.29688 -1.14062,-0.29688 -1.04688,0 -1.8125,0.67188 -0.75,0.65625 -0.75,2.51562 v 5.28125 z m 17.00074,-3.10937 1.6875,0.20312 q -0.40625,1.48438 -1.48438,2.3125 -1.07812,0.8125 -2.76562,0.8125 -2.125,0 -3.375,-1.29687 -1.23438,-1.3125 -1.23438,-3.67188 0,-2.45312 1.25,-3.79687 1.26563,-1.34375 3.26563,-1.34375 1.9375,0 3.15625,1.32812 1.23437,1.3125 1.23437,3.70313 0,0.15625 0,0.4375 h -7.21875 q 0.0937,1.59375 0.90625,2.45312 0.8125,0.84375 2.01563,0.84375 0.90625,0 1.54687,-0.46875 0.64063,-0.48437 1.01563,-1.51562 z m -5.39063,-2.65625 h 5.40625 q -0.10937,-1.21875 -0.625,-1.82813 -0.78125,-0.95312 -2.03125,-0.95312 -1.125,0 -1.90625,0.76562 -0.76562,0.75 -0.84375,2.01563 z m 9.1257,5.76562 v -9.67187 h 1.46875 v 1.46875 q 0.5625,-1.03125 1.03125,-1.35938 0.48438,-0.32812 1.0625,-0.32812 0.82813,0 1.6875,0.53125 l -0.5625,1.51562 q -0.60937,-0.35937 -1.20312,-0.35937 -0.54688,0 -0.96875,0.32812 -0.42188,0.32813 -0.60938,0.89063 -0.28125,0.875 -0.28125,1.92187 v 5.0625 z m 6.22834,-11.46875 v -1.89062 h 1.64062 v 1.89062 z m 0,11.46875 v -9.67187 h 1.64062 v 9.67187 z m 10.45727,-3.54687 1.60938,0.21875 q -0.26563,1.65625 -1.35938,2.60937 -1.07812,0.9375 -2.67187,0.9375 -1.98438,0 -3.1875,-1.29687 -1.20313,-1.29688 -1.20313,-3.71875 0,-1.57813 0.51563,-2.75 0.51562,-1.17188 1.57812,-1.75 1.0625,-0.59375 2.3125,-0.59375 1.57813,0 2.57813,0.79687 1,0.79688 1.28125,2.26563 l -1.59375,0.23437 q -0.23438,-0.96875 -0.8125,-1.45312 -0.57813,-0.5 -1.39063,-0.5 -1.23437,0 -2.01562,0.89062 -0.78125,0.89063 -0.78125,2.8125 0,1.95313 0.75,2.84375 0.75,0.875 1.95312,0.875 0.96875,0 1.60938,-0.59375 0.65625,-0.59375 0.82812,-1.82812 z"
     fill-rule="nonzero"
     id="path113" />
  <path
     fill="#ead1dc"
     d="m 391.82806,187.02493 h 162.11023 v 28.91339 H 391.82806 Z"
     fill-rule="evenodd"
     id="path115" />
  <path
     stroke="#000000"
     stroke-width="1"
     stroke-linejoin="round"
     stroke-linecap="butt"
     d="m 391.82806,187.02493 h 162.11023 v 28.91339 H 391.82806 Z"
     fill-rule="evenodd"
     id="path117" />
  <path
     fill="#000000"
     d="m 409.7067,205.29226 1.6875,0.20312 q -0.40625,1.48438 -1.48437,2.3125 -1.07813,0.8125 -2.76563,0.8125 -2.125,0 -3.375,-1.29687 -1.23437,-1.3125 -1.23437,-3.67188 0,-2.45312 1.25,-3.79687 1.26562,-1.34375 3.26562,-1.34375 1.9375,0 3.15625,1.32812 1.23438,1.3125 1.23438,3.70313 0,0.15625 0,0.4375 h -7.21875 q 0.0937,1.59375 0.90625,2.45312 0.8125,0.84375 2.01562,0.84375 0.90625,0 1.54688,-0.46875 0.64062,-0.48437 1.01562,-1.51562 z m -5.39062,-2.65625 h 5.40625 q -0.10938,-1.21875 -0.625,-1.82813 -0.78125,-0.95312 -2.03125,-0.95312 -1.125,0 -1.90625,0.76562 -0.76563,0.75 -0.84375,2.01563 z m 9.14135,5.76562 v -13.35937 h 1.64063 v 4.79687 q 1.14062,-1.32812 2.89062,-1.32812 1.07813,0 1.85938,0.42187 0.79687,0.42188 1.14062,1.17188 0.34375,0.75 0.34375,2.17187 v 6.125 h -1.64062 v -6.125 q 0,-1.23437 -0.53125,-1.79687 -0.53125,-0.5625 -1.51563,-0.5625 -0.71875,0 -1.35937,0.39062 -0.64063,0.375 -0.92188,1.01563 -0.26562,0.64062 -0.26562,1.78125 v 5.29687 z m 10.76633,0 v -8.40625 h -1.45313 v -1.26562 h 1.45313 v -1.03125 q 0,-0.96875 0.17187,-1.45313 0.23438,-0.64062 0.82813,-1.03125 0.59375,-0.39062 1.67187,-0.39062 0.6875,0 1.53125,0.15625 l -0.25,1.4375 q -0.5,-0.0937 -0.95312,-0.0937 -0.75,0 -1.0625,0.32812 -0.3125,0.3125 -0.3125,1.1875 v 0.89063 h 1.89062 v 1.26562 h -1.89062 v 8.40625 z m 4.77707,0 v -9.67187 h 1.46875 v 1.46875 q 0.5625,-1.03125 1.03125,-1.35938 0.48437,-0.32812 1.0625,-0.32812 0.82812,0 1.6875,0.53125 l -0.5625,1.51562 q -0.60938,-0.35937 -1.20313,-0.35937 -0.54687,0 -0.96875,0.32812 -0.42187,0.32813 -0.60937,0.89063 -0.28125,0.875 -0.28125,1.92187 v 5.0625 z m 12.5408,-1.1875 q -0.92188,0.76563 -1.76563,1.09375 -0.82812,0.3125 -1.79687,0.3125 -1.59375,0 -2.45313,-0.78125 -0.85937,-0.78125 -0.85937,-1.98437 0,-0.71875 0.32812,-1.29688 0.32813,-0.59375 0.84375,-0.9375 0.53125,-0.35937 1.1875,-0.54687 0.46875,-0.125 1.45313,-0.25 1.98437,-0.23438 2.92187,-0.5625 0.0156,-0.34375 0.0156,-0.42188 0,-1 -0.46875,-1.42187 -0.625,-0.54688 -1.875,-0.54688 -1.15625,0 -1.70313,0.40625 -0.54687,0.40625 -0.8125,1.42188 l -1.60937,-0.21875 q 0.21875,-1.01563 0.71875,-1.64063 0.5,-0.64062 1.45312,-0.98437 0.95313,-0.34375 2.1875,-0.34375 1.25,0 2.01563,0.29687 0.78125,0.28125 1.14062,0.73438 0.375,0.4375 0.51563,1.10937 0.0781,0.42188 0.0781,1.51563 v 2.1875 q 0,2.28125 0.10938,2.89062 0.10937,0.59375 0.40625,1.15625 h -1.70313 q -0.26562,-0.51562 -0.32812,-1.1875 z m -0.14063,-3.67187 q -0.89062,0.375 -2.67187,0.625 -1.01563,0.14062 -1.4375,0.32812 -0.42188,0.1875 -0.65625,0.53125 -0.21875,0.34375 -0.21875,0.78125 0,0.65625 0.5,1.09375 0.5,0.4375 1.45312,0.4375 0.9375,0 1.67188,-0.40625 0.75,-0.42187 1.09375,-1.14062 0.26562,-0.5625 0.26562,-1.64063 z m 4.20383,4.85937 v -9.67187 h 1.46875 v 1.35937 q 0.45313,-0.71875 1.20313,-1.14062 0.76562,-0.4375 1.71875,-0.4375 1.07812,0 1.76562,0.45312 0.6875,0.4375 0.96875,1.23438 1.15625,-1.6875 2.98438,-1.6875 1.45312,0 2.21875,0.79687 0.78125,0.79688 0.78125,2.45313 v 6.64062 h -1.64063 v -6.09375 q 0,-0.98437 -0.15625,-1.40625 -0.15625,-0.4375 -0.57812,-0.70312 -0.42188,-0.26563 -0.98438,-0.26563 -1.01562,0 -1.6875,0.6875 -0.67187,0.67188 -0.67187,2.15625 v 5.625 h -1.64063 v -6.28125 q 0,-1.09375 -0.40625,-1.64062 -0.40625,-0.54688 -1.3125,-0.54688 -0.6875,0 -1.28125,0.35938 -0.59375,0.35937 -0.85937,1.0625 -0.25,0.70312 -0.25,2.03125 v 5.01562 z m 22.1658,-3.10937 1.6875,0.20312 q -0.40625,1.48438 -1.48437,2.3125 -1.07813,0.8125 -2.76563,0.8125 -2.125,0 -3.375,-1.29687 -1.23437,-1.3125 -1.23437,-3.67188 0,-2.45312 1.25,-3.79687 1.26562,-1.34375 3.26562,-1.34375 1.9375,0 3.15625,1.32812 1.23438,1.3125 1.23438,3.70313 0,0.15625 0,0.4375 h -7.21875 q 0.0937,1.59375 0.90625,2.45312 0.8125,0.84375 2.01562,0.84375 0.90625,0 1.54688,-0.46875 0.64062,-0.48437 1.01562,-1.51562 z m -5.39062,-2.65625 h 5.40625 q -0.10938,-1.21875 -0.625,-1.82813 -0.78125,-0.95312 -2.03125,-0.95312 -1.125,0 -1.90625,0.76562 -0.76563,0.75 -0.84375,2.01563 z m 7.62573,9.46875 v -1.1875 h 10.85938 v 1.1875 z m 11.8757,-3.70313 v -9.67187 h 1.46875 v 1.46875 q 0.5625,-1.03125 1.03125,-1.35938 0.48441,-0.32812 1.06253,-0.32812 0.82813,0 1.6875,0.53125 l -0.5625,1.51562 q -0.60937,-0.35937 -1.20312,-0.35937 -0.54688,0 -0.96878,0.32812 -0.42188,0.32813 -0.60938,0.89063 -0.28125,0.875 -0.28125,1.92187 v 5.0625 z m 12.85331,-3.10937 1.6875,0.20312 q -0.40625,1.48438 -1.48438,2.3125 -1.07812,0.8125 -2.76562,0.8125 -2.125,0 -3.375,-1.29687 -1.23438,-1.3125 -1.23438,-3.67188 0,-2.45312 1.25,-3.79687 1.26563,-1.34375 3.26563,-1.34375 1.9375,0 3.15625,1.32812 1.23437,1.3125 1.23437,3.70313 0,0.15625 0,0.4375 h -7.21875 q 0.0937,1.59375 0.90625,2.45312 0.8125,0.84375 2.01563,0.84375 0.90625,0 1.54687,-0.46875 0.64063,-0.48437 1.01563,-1.51562 z m -5.39063,-2.65625 h 5.40625 q -0.10937,-1.21875 -0.625,-1.82813 -0.78125,-0.95312 -2.03125,-0.95312 -1.125,0 -1.90625,0.76562 -0.76562,0.75 -0.84375,2.01563 z m 8.82886,6.5625 1.59375,0.23437 q 0.10937,0.75 0.5625,1.07813 0.60937,0.45312 1.67187,0.45312 1.14063,0 1.75,-0.45312 0.625,-0.45313 0.84375,-1.26563 0.125,-0.5 0.10938,-2.10937 -1.0625,1.26562 -2.67188,1.26562 -2,0 -3.09375,-1.4375 -1.09375,-1.4375 -1.09375,-3.45312 0,-1.39063 0.5,-2.5625 0.51563,-1.17188 1.45313,-1.79688 0.95312,-0.64062 2.25,-0.64062 1.70312,0 2.8125,1.375 v -1.15625 h 1.51562 v 8.35937 q 0,2.26563 -0.46875,3.20313 -0.45312,0.9375 -1.45312,1.48437 -0.98438,0.54688 -2.45313,0.54688 -1.71875,0 -2.79687,-0.78125 -1.0625,-0.76563 -1.03125,-2.34375 z m 1.35937,-5.8125 q 0,1.90625 0.75,2.78125 0.76563,0.875 1.90625,0.875 1.125,0 1.89063,-0.85938 0.76562,-0.875 0.76562,-2.73437 0,-1.78125 -0.79687,-2.67188 -0.78125,-0.90625 -1.89063,-0.90625 -1.09375,0 -1.85937,0.89063 -0.76563,0.875 -0.76563,2.625 z m 9.32886,5.01562 v -9.67187 h 1.46875 v 1.375 q 1.0625,-1.59375 3.07812,-1.59375 0.875,0 1.60938,0.3125 0.73437,0.3125 1.09375,0.82812 0.375,0.5 0.51562,1.20313 0.0937,0.45312 0.0937,1.59375 v 5.95312 h -1.64062 v -5.89062 q 0,-1 -0.20313,-1.48438 -0.1875,-0.5 -0.67187,-0.79687 -0.48438,-0.29688 -1.14063,-0.29688 -1.04687,0 -1.8125,0.67188 -0.75,0.65625 -0.75,2.51562 v 5.28125 z m 16.7038,0 v -1.42187 q -1.125,1.64062 -3.0625,1.64062 -0.85938,0 -1.60938,-0.32812 -0.73437,-0.32813 -1.09375,-0.82813 -0.35937,-0.5 -0.5,-1.21875 -0.10937,-0.46875 -0.10937,-1.53125 v -5.98437 h 1.64062 v 5.35937 q 0,1.28125 0.10938,1.73438 0.15625,0.64062 0.65625,1.01562 0.5,0.375 1.23437,0.375 0.73438,0 1.375,-0.375 0.65625,-0.39062 0.92188,-1.03125 0.26562,-0.65625 0.26562,-1.89062 v -5.1875 h 1.64063 v 9.67187 z m 4.0476,0 v -9.67187 h 1.46875 v 1.35937 q 0.45313,-0.71875 1.20313,-1.14062 0.76562,-0.4375 1.71875,-0.4375 1.07812,0 1.76562,0.45312 0.6875,0.4375 0.96875,1.23438 1.15625,-1.6875 2.98438,-1.6875 1.45312,0 2.21875,0.79687 0.78125,0.79688 0.78125,2.45313 v 6.64062 h -1.64063 v -6.09375 q 0,-0.98437 -0.15625,-1.40625 -0.15625,-0.4375 -0.57812,-0.70312 -0.42188,-0.26563 -0.98438,-0.26563 -1.01562,0 -1.6875,0.6875 -0.67187,0.67188 -0.67187,2.15625 v 5.625 h -1.64063 v -6.28125 q 0,-1.09375 -0.40625,-1.64062 -0.40625,-0.54688 -1.3125,-0.54688 -0.6875,0 -1.28125,0.35938 -0.59375,0.35937 -0.85937,1.0625 -0.25,0.70312 -0.25,2.03125 v 5.01562 z"
     fill-rule="nonzero"
     id="path119" />
  <path
     fill="#ead1dc"
     d="m 391.82806,225.20079 h 162.11023 v 28.91339 H 391.82806 Z"
     fill-rule="evenodd"
     id="path121" />
  <path
     stroke="#000000"
     stroke-width="1"
     stroke-linejoin="round"
     stroke-linecap="butt"
     d="m 391.82806,225.20079 h 162.11023 v 28.91339 H 391.82806 Z"
     fill-rule="evenodd"
     id="path123" />
  <path
     fill="#000000"
     d="m 420.757,246.57749 v -1.21875 q -0.90625,1.4375 -2.70312,1.4375 -1.15625,0 -2.125,-0.64063 -0.96875,-0.64062 -1.5,-1.78125 -0.53125,-1.14062 -0.53125,-2.625 0,-1.45312 0.48437,-2.625 0.48438,-1.1875 1.4375,-1.8125 0.96875,-0.625 2.17188,-0.625 0.875,0 1.54687,0.375 0.6875,0.35938 1.10938,0.95313 v -4.79688 h 1.64062 v 13.35938 z m -5.17187,-4.82813 q 0,1.85938 0.78125,2.78125 0.78125,0.92188 1.84375,0.92188 1.07812,0 1.82812,-0.875 0.75,-0.89063 0.75,-2.6875 0,-1.98438 -0.76562,-2.90625 -0.76563,-0.9375 -1.89063,-0.9375 -1.07812,0 -1.8125,0.89062 -0.73437,0.89063 -0.73437,2.8125 z m 11.0632,4.82813 -2.96875,-9.67188 h 1.70312 l 1.53125,5.57813 0.57813,2.07812 q 0.0469,-0.15625 0.5,-2 l 1.54687,-5.65625 h 1.6875 l 1.4375,5.60938 0.48438,1.84375 0.5625,-1.85938 1.65625,-5.59375 h 1.59375 l -3.03125,9.67188 h -1.70313 l -1.53125,-5.79688 -0.375,-1.64062 -1.95312,7.4375 z m 18.00421,-1.1875 q -0.92188,0.76562 -1.76563,1.09375 -0.82812,0.3125 -1.79687,0.3125 -1.59375,0 -2.45313,-0.78125 -0.85937,-0.78125 -0.85937,-1.98438 0,-0.71875 0.32812,-1.29687 0.32813,-0.59375 0.84375,-0.9375 0.53125,-0.35938 1.1875,-0.54688 0.46875,-0.125 1.45313,-0.25 1.98437,-0.23437 2.92187,-0.5625 0.0156,-0.34375 0.0156,-0.42187 0,-1 -0.46875,-1.42188 -0.625,-0.54687 -1.875,-0.54687 -1.15625,0 -1.70313,0.40625 -0.54687,0.40625 -0.8125,1.42187 l -1.60937,-0.21875 q 0.21875,-1.01562 0.71875,-1.64062 0.5,-0.64063 1.45312,-0.98438 0.95313,-0.34375 2.1875,-0.34375 1.25,0 2.01563,0.29688 0.78125,0.28125 1.14062,0.73437 0.375,0.4375 0.51563,1.10938 0.0781,0.42187 0.0781,1.51562 v 2.1875 q 0,2.28125 0.10938,2.89063 0.10937,0.59375 0.40625,1.15625 h -1.70313 q -0.26562,-0.51563 -0.32812,-1.1875 z m -0.14063,-3.67188 q -0.89062,0.375 -2.67187,0.625 -1.01563,0.14063 -1.4375,0.32813 -0.42188,0.1875 -0.65625,0.53125 -0.21875,0.34375 -0.21875,0.78125 0,0.65625 0.5,1.09375 0.5,0.4375 1.45312,0.4375 0.9375,0 1.67188,-0.40625 0.75,-0.42188 1.09375,-1.14063 0.26562,-0.5625 0.26562,-1.64062 z m 4.1882,4.85938 v -9.67188 h 1.46875 v 1.46875 q 0.5625,-1.03125 1.03125,-1.35937 0.48438,-0.32813 1.0625,-0.32813 0.82813,0 1.6875,0.53125 l -0.5625,1.51563 q -0.60937,-0.35938 -1.20312,-0.35938 -0.54688,0 -0.96875,0.32813 -0.42188,0.32812 -0.60938,0.89062 -0.28125,0.875 -0.28125,1.92188 v 5.0625 z m 6.61893,0 v -8.40625 h -1.45312 v -1.26563 h 1.45312 v -1.03125 q 0,-0.96875 0.17188,-1.45312 0.23437,-0.64063 0.82812,-1.03125 0.59375,-0.39063 1.67188,-0.39063 0.6875,0 1.53125,0.15625 l -0.25,1.4375 q -0.5,-0.0937 -0.95313,-0.0937 -0.75,0 -1.0625,0.32813 -0.3125,0.3125 -0.3125,1.1875 v 0.89062 h 1.89063 v 1.26563 h -1.89063 v 8.40625 z m 3.27707,3.70311 v -1.1875 h 10.85938 v 1.1875 z m 11.8757,-3.70311 v -9.67187 h 1.46875 v 1.46875 q 0.5625,-1.03125 1.03125,-1.35938 0.48438,-0.32812 1.0625,-0.32812 0.82813,0 1.6875,0.53125 l -0.5625,1.51562 q -0.60937,-0.35937 -1.20312,-0.35937 -0.54688,0 -0.96875,0.32812 -0.42188,0.32813 -0.60938,0.89063 -0.28125,0.875 -0.28125,1.92187 v 5.0625 z m 12.8533,-3.10937 1.68754,0.20312 q -0.40629,1.48438 -1.48441,2.3125 -1.07813,0.8125 -2.76563,0.8125 -2.125,0 -3.375,-1.29687 -1.23437,-1.3125 -1.23437,-3.67188 0,-2.45312 1.25,-3.79687 1.26562,-1.34375 3.26562,-1.34375 1.9375,0 3.15625,1.32812 1.23441,1.3125 1.23441,3.70313 0,0.15625 0,0.4375 h -7.21878 q 0.0937,1.59375 0.90625,2.45312 0.8125,0.84375 2.01562,0.84375 0.90625,0 1.54688,-0.46875 0.64062,-0.48437 1.01562,-1.51562 z m -5.39062,-2.65625 h 5.40625 q -0.10938,-1.21875 -0.625,-1.82813 -0.78125,-0.95312 -2.03125,-0.95312 -1.125,0 -1.90625,0.76562 -0.76563,0.75 -0.84375,2.01563 z m 8.82883,6.5625 1.59375,0.23437 q 0.10937,0.74998 0.5625,1.07811 0.60937,0.45312 1.67187,0.45312 1.14063,0 1.75,-0.45312 0.625,-0.45311 0.84375,-1.26561 0.125,-0.5 0.10938,-2.10937 -1.0625,1.26562 -2.67188,1.26562 -2,0 -3.09375,-1.4375 -1.09375,-1.4375 -1.09375,-3.45312 0,-1.39063 0.5,-2.5625 0.51563,-1.17188 1.45313,-1.79688 0.95312,-0.64062 2.25,-0.64062 1.70312,0 2.8125,1.375 v -1.15625 h 1.51562 v 8.35937 q 0,2.26563 -0.46875,3.20311 -0.45312,0.9375 -1.45312,1.48437 -0.98438,0.54688 -2.45313,0.54688 -1.71875,0 -2.79687,-0.78125 -1.0625,-0.76563 -1.03125,-2.34373 z m 1.35937,-5.8125 q 0,1.90625 0.75,2.78125 0.76563,0.875 1.90625,0.875 1.125,0 1.89063,-0.85938 0.76562,-0.875 0.76562,-2.73437 0,-1.78125 -0.79687,-2.67188 -0.78125,-0.90625 -1.89063,-0.90625 -1.09375,0 -1.85937,0.89063 -0.76563,0.875 -0.76563,2.625 z m 9.32886,5.01562 v -9.67187 h 1.46875 v 1.375 q 1.0625,-1.59375 3.07812,-1.59375 0.875,0 1.60938,0.3125 0.73437,0.3125 1.09375,0.82812 0.375,0.5 0.51562,1.20313 0.0937,0.45312 0.0937,1.59375 v 5.95312 h -1.64062 v -5.89062 q 0,-1 -0.20313,-1.48438 -0.1875,-0.5 -0.67187,-0.79687 -0.48438,-0.29688 -1.14063,-0.29688 -1.04687,0 -1.8125,0.67188 -0.75,0.65625 -0.75,2.51562 v 5.28125 z m 16.70386,0 v -1.42187 q -1.125,1.64062 -3.0625,1.64062 -0.85938,0 -1.60938,-0.32812 -0.73437,-0.32813 -1.09375,-0.82813 -0.35937,-0.5 -0.5,-1.21875 -0.10937,-0.46875 -0.10937,-1.53125 v -5.98437 h 1.64062 v 5.35937 q 0,1.28125 0.10938,1.73438 0.15625,0.64062 0.65625,1.01562 0.5,0.375 1.23437,0.375 0.73438,0 1.375,-0.375 0.65625,-0.39062 0.92188,-1.03125 0.26562,-0.65625 0.26562,-1.89062 v -5.1875 h 1.64063 v 9.67187 z m 4.0476,0 v -9.67187 h 1.46875 v 1.35937 q 0.45313,-0.71875 1.20313,-1.14062 0.76562,-0.4375 1.71875,-0.4375 1.07812,0 1.76562,0.45312 0.6875,0.4375 0.96875,1.23438 1.15625,-1.6875 2.98438,-1.6875 1.45312,0 2.21875,0.79687 0.78125,0.79688 0.78125,2.45313 v 6.64062 h -1.64063 v -6.09375 q 0,-0.98437 -0.15625,-1.40625 -0.15625,-0.4375 -0.57812,-0.70312 -0.42188,-0.26563 -0.98438,-0.26563 -1.01562,0 -1.6875,0.6875 -0.67187,0.67188 -0.67187,2.15625 v 5.625 h -1.64063 v -6.28125 q 0,-1.09375 -0.40625,-1.64062 -0.40625,-0.54688 -1.3125,-0.54688 -0.6875,0 -1.28125,0.35938 -0.59375,0.35937 -0.85937,1.0625 -0.25,0.70312 -0.25,2.03125 v 5.01562 z"
     fill-rule="nonzero"
     id="path125" />
  <path
     fill="#000000"
     fill-opacity="0"
     d="M 182.2454,381.21916 H 287.04435 V 361.75459 H 391.85169"
     fill-rule="evenodd"
     id="path127" />
  <path
     stroke="#000000"
     stroke-width="1"
     stroke-linejoin="round"
     stroke-linecap="butt"
     d="m 182.2454,381.21916 h 104.79898 v -19.46457 h 98.80731"
     fill-rule="evenodd"
     id="path129" />
  <path
     fill="#000000"
     stroke="#000000"
     stroke-width="1"
     stroke-linecap="butt"
     d="m 385.85169,363.40633 4.53812,-1.65173 -4.53812,-1.65174 z"
     fill-rule="evenodd"
     id="path131" />
  <path
     fill="#000000"
     fill-opacity="0"
     d="M 182.2454,381.21916 H 287.04435 V 399.9593 H 391.85169"
     fill-rule="evenodd"
     id="path133" />
  <path
     stroke="#000000"
     stroke-width="1"
     stroke-linejoin="round"
     stroke-linecap="butt"
     d="m 182.2454,381.21916 h 104.79898 v 18.74014 h 98.80731"
     fill-rule="evenodd"
     id="path135" />
  <path
     fill="#000000"
     stroke="#000000"
     stroke-width="1"
     stroke-linecap="butt"
     d="m 385.85169,401.61104 4.53812,-1.65173 -4.53812,-1.65174 z"
     fill-rule="evenodd"
     id="path137" />
  <path
     fill="#000000"
     fill-opacity="0"
     d="m 182.23753,73.55249 209.6063,0.409454"
     fill-rule="evenodd"
     id="path139" />
  <path
     stroke="#000000"
     stroke-width="1"
     stroke-linejoin="round"
     stroke-linecap="butt"
     d="m 188.23751,73.56421 197.60631,0.386017"
     fill-rule="evenodd"
     id="path141" />
  <path
     fill="#000000"
     stroke="#000000"
     stroke-width="1"
     stroke-linecap="butt"
     d="m 188.24075,71.912485 -4.54131,1.642868 4.53486,1.660591 z"
     fill-rule="evenodd"
     id="path143" />
  <path
     fill="#000000"
     stroke="#000000"
     stroke-width="1"
     stroke-linecap="butt"
     d="m 385.84061,75.60195 4.54132,-1.642868 -4.53485,-1.660591 z"
     fill-rule="evenodd"
     id="path145" />
</svg>
