<?xml version="1.0" encoding="UTF-8" standalone="no"?>
<svg
   xmlns:dc="http://purl.org/dc/elements/1.1/"
   xmlns:cc="http://creativecommons.org/ns#"
   xmlns:rdf="http://www.w3.org/1999/02/22-rdf-syntax-ns#"
   xmlns:svg="http://www.w3.org/2000/svg"
   xmlns="http://www.w3.org/2000/svg"
   xmlns:sodipodi="http://sodipodi.sourceforge.net/DTD/sodipodi-0.dtd"
   xmlns:inkscape="http://www.inkscape.org/namespaces/inkscape"
   version="1.1"
   viewBox="0 0 853.55558 452.30707"
   fill="none"
   stroke="none"
   stroke-linecap="square"
   stroke-miterlimit="10"
   id="svg97"
   sodipodi:docname="gdb-protocol-fstat-fallback.svg"
   width="853.5556"
   height="452.30707"
   inkscape:version="1.0.1 (3bc2e813f5, 2020-09-07)">
  <metadata
     id="metadata103">
    <rdf:RDF>
      <cc:Work
         rdf:about="">
        <dc:format>image/svg+xml</dc:format>
        <dc:type
           rdf:resource="http://purl.org/dc/dcmitype/StillImage" />
        <dc:title></dc:title>
      </cc:Work>
    </rdf:RDF>
  </metadata>
  <defs
     id="defs101" />
  <sodipodi:namedview
     pagecolor="#ffffff"
     bordercolor="#666666"
     borderopacity="1"
     objecttolerance="10"
     gridtolerance="10"
     guidetolerance="10"
     inkscape:pageopacity="0"
     inkscape:pageshadow="2"
     inkscape:window-width="1364"
     inkscape:window-height="747"
     id="namedview99"
     showgrid="false"
     inkscape:zoom="0.75555669"
     inkscape:cx="523.60022"
     inkscape:cy="285.55692"
     inkscape:window-x="0"
     inkscape:window-y="19"
     inkscape:window-maximized="0"
     inkscape:current-layer="svg97" />
  <clipPath
     id="p.0">
    <path
       d="M 0,0 H 720 V 540 H 0 Z"
       clip-rule="nonzero"
       id="path2" />
  </clipPath>
  <path
     fill="#000000"
     fill-opacity="0"
     d="M 196.15161,-9.822835 H 916.15164 V 530.17716 H 196.15161 Z"
     fill-rule="evenodd"
     id="path5" />
  <path
     fill="#d9ead3"
     d="M 634.96527,0.5 V 451.08267 H 579.21722 V 0.5 Z"
     fill-rule="evenodd"
     id="path7" />
  <path
     stroke="#000000"
     stroke-width="1"
     stroke-linejoin="round"
     stroke-linecap="butt"
     d="M 634.96527,0.5 V 451.08267 H 579.21722 V 0.5 Z"
     fill-rule="evenodd"
     id="path9" />
  <path
     fill="#000000"
     d="m 603.06186,200.45293 0.25,1.625 q -0.96875,0.125 -1.5,0.75 -0.51562,0.625 -0.51562,1.75 0,1.125 0.45312,1.67187 0.46875,0.54688 1.09375,0.54688 0.54688,0 0.875,-0.48438 0.21875,-0.32812 0.54688,-1.67187 0.46875,-1.8125 0.79687,-2.51563 0.32813,-0.6875 0.90625,-1.04687 0.59375,-0.35938 1.3125,-0.35938 0.64063,0 1.1875,0.29688 0.5625,0.29687 0.92188,0.8125 0.28125,0.375 0.46875,1.03125 0.20312,0.67187 0.20312,1.42187 0,1.14063 -0.32812,2 -0.32813,0.85938 -0.89063,1.26563 -0.5625,0.42187 -1.5,0.57812 l -0.21875,-1.60937 q 0.75,-0.10938 1.17188,-0.64063 0.42187,-0.51562 0.42187,-1.46875 0,-1.14062 -0.375,-1.625 -0.375,-0.46875 -0.875,-0.46875 -0.3125,0 -0.57812,0.1875 -0.26563,0.20313 -0.4375,0.64063 -0.0937,0.23437 -0.42188,1.4375 -0.45312,1.75 -0.75,2.4375 -0.29687,0.6875 -0.85937,1.07812 -0.5625,0.39063 -1.40625,0.39063 -0.82813,0 -1.54688,-0.48438 -0.71875,-0.46875 -1.125,-1.375 -0.39062,-0.90625 -0.39062,-2.04687 0,-1.875 0.78125,-2.875 0.78125,-0.98438 2.32812,-1.25 z m 0.21875,16.60937 -0.20312,1.6875 q -1.48438,-0.40625 -2.3125,-1.48437 -0.8125,-1.07813 -0.8125,-2.76563 0,-2.125 1.29687,-3.375 1.3125,-1.23437 3.67188,-1.23437 2.45312,0 3.79687,1.25 1.34375,1.26562 1.34375,3.26562 0,1.9375 -1.32812,3.15625 -1.3125,1.23438 -3.70313,1.23438 -0.15625,0 -0.4375,0 v -7.21875 q -1.59375,0.0937 -2.45312,0.90625 -0.84375,0.8125 -0.84375,2.01562 0,0.90625 0.46875,1.54688 0.48437,0.64062 1.51562,1.01562 z m 2.65625,-5.39062 v 5.40625 q 1.21875,-0.10938 1.82813,-0.625 0.95312,-0.78125 0.95312,-2.03125 0,-1.125 -0.76562,-1.90625 -0.75,-0.76563 -2.01563,-0.84375 z m -5.76562,9.12572 h 9.67187 v 1.46875 h -1.46875 q 1.03125,0.5625 1.35938,1.03125 0.32812,0.48437 0.32812,1.0625 0,0.82812 -0.53125,1.6875 l -1.51562,-0.5625 q 0.35937,-0.60938 0.35937,-1.20313 0,-0.54687 -0.32812,-0.96875 -0.32813,-0.42187 -0.89063,-0.60937 -0.875,-0.28125 -1.92187,-0.28125 h -5.0625 z m 0,8.9158 9.67187,-3.6875 v 1.73437 l -5.79687,2.07813 q -0.9375,0.32812 -1.9375,0.625 0.76562,0.20312 1.82812,0.60937 l 5.90625,2.14063 v 1.6875 l -9.67187,-3.65625 z m 3.10937,13.26562 -0.20312,1.6875 q -1.48438,-0.40625 -2.3125,-1.48437 -0.8125,-1.07813 -0.8125,-2.76563 0,-2.125 1.29687,-3.375 1.3125,-1.23437 3.67188,-1.23437 2.45312,0 3.79687,1.25 1.34375,1.26562 1.34375,3.26562 0,1.9375 -1.32812,3.15625 -1.3125,1.23438 -3.70313,1.23438 -0.15625,0 -0.4375,0 v -7.21875 q -1.59375,0.0937 -2.45312,0.90625 -0.84375,0.8125 -0.84375,2.01562 0,0.90625 0.46875,1.54688 0.48437,0.64062 1.51562,1.01562 z m 2.65625,-5.39062 v 5.40625 q 1.21875,-0.10938 1.82813,-0.625 0.95312,-0.78125 0.95312,-2.03125 0,-1.125 -0.76562,-1.90625 -0.75,-0.76563 -2.01563,-0.84375 z m -5.76562,9.12573 h 9.67187 v 1.46875 h -1.46875 q 1.03125,0.5625 1.35938,1.03125 0.32812,0.48438 0.32812,1.0625 0,0.82813 -0.53125,1.6875 l -1.51562,-0.5625 q 0.35937,-0.60937 0.35937,-1.20312 0,-0.54688 -0.32812,-0.96875 -0.32813,-0.42188 -0.89063,-0.60938 -0.875,-0.28125 -1.92187,-0.28125 h -5.0625 z"
     fill-rule="nonzero"
     id="path11" />
  <path
     fill="#d9d2e9"
     d="M 271.00201,0.5 V 451.80707 H 215.25398 V 0.5 Z"
     fill-rule="evenodd"
     id="path13" />
  <path
     stroke="#000000"
     stroke-width="1"
     stroke-linejoin="round"
     stroke-linecap="butt"
     d="M 271.00201,0.5 V 451.80707 H 215.25398 V 0.5 Z"
     fill-rule="evenodd"
     id="path15" />
  <path
     fill="#000000"
     d="m 239.75487,211.92417 -0.21875,1.60937 q -1.65625,-0.26562 -2.60938,-1.35937 -0.9375,-1.07813 -0.9375,-2.67188 0,-1.98437 1.29688,-3.1875 1.29687,-1.20312 3.71875,-1.20312 1.57812,0 2.75,0.51562 1.17187,0.51563 1.75,1.57813 0.59375,1.0625 0.59375,2.3125 0,1.57812 -0.79688,2.57812 -0.79687,1 -2.26562,1.28125 l -0.23438,-1.59375 q 0.96875,-0.23437 1.45313,-0.8125 0.5,-0.57812 0.5,-1.39062 0,-1.23438 -0.89063,-2.01563 -0.89062,-0.78125 -2.8125,-0.78125 -1.95312,0 -2.84375,0.75 -0.875,0.75 -0.875,1.95313 0,0.96875 0.59375,1.60937 0.59375,0.65625 1.82813,0.82813 z m -3.54688,2.96875 h 13.35938 v 1.64062 h -13.35938 z m 11.46875,4.1917 h 1.89063 v 1.64062 h -1.89063 z m -11.46875,0 h 9.67188 v 1.64062 h -9.67188 z m 3.10938,10.76982 -0.20313,1.6875 q -1.48437,-0.40625 -2.3125,-1.48438 -0.8125,-1.07812 -0.8125,-2.76562 0,-2.125 1.29688,-3.375 1.3125,-1.23438 3.67187,-1.23438 2.45313,0 3.79688,1.25 1.34375,1.26563 1.34375,3.26563 0,1.9375 -1.32813,3.15625 -1.3125,1.23437 -3.70312,1.23437 -0.15625,0 -0.4375,0 v -7.21875 q -1.59375,0.0937 -2.45313,0.90625 -0.84375,0.8125 -0.84375,2.01563 0,0.90625 0.46875,1.54687 0.48438,0.64063 1.51563,1.01563 z m 2.65625,-5.39063 v 5.40625 q 1.21875,-0.10937 1.82812,-0.625 0.95313,-0.78125 0.95313,-2.03125 0,-1.125 -0.76563,-1.90625 -0.75,-0.76562 -2.01562,-0.84375 z m -5.76563,9.14135 h 9.67188 v 1.46875 h -1.375 q 1.59375,1.0625 1.59375,3.07812 0,0.875 -0.3125,1.60938 -0.3125,0.73437 -0.82813,1.09375 -0.5,0.375 -1.20312,0.51562 -0.45313,0.0937 -1.59375,0.0937 h -5.95313 v -1.64063 h 5.89063 q 1,0 1.48437,-0.20312 0.5,-0.1875 0.79688,-0.67188 0.29687,-0.48437 0.29687,-1.14062 0,-1.04688 -0.67187,-1.8125 -0.65625,-0.75 -2.51563,-0.75 h -5.28125 z m 1.46875,13.95386 -1.45312,0.23438 q -0.14063,-0.6875 -0.14063,-1.23438 0,-0.89064 0.28125,-1.39064 0.28125,-0.48437 0.73438,-0.6875 0.46875,-0.20312 1.9375,-0.20312 h 5.57812 v -1.20313 h 1.26563 v 1.20313 h 2.39062 l 0.98438,1.625 h -3.375 v 1.65626 h -1.26563 v -1.65626 h -5.67187 q -0.6875,0 -0.89063,0.0781 -0.20312,0.0937 -0.32812,0.28127 -0.10938,0.20312 -0.10938,0.57812 0,0.26563 0.0625,0.71875 z"
     fill-rule="nonzero"
     id="path17" />
  <path
     fill="#cfe2f3"
     d="m 271.00201,15.988189 h 291.70077 l 16.5197,16.519684 -16.5197,16.519688 H 271.00201 Z"
     fill-rule="evenodd"
     id="path19" />
  <path
     stroke="#000000"
     stroke-width="1"
     stroke-linejoin="round"
     stroke-linecap="butt"
     d="m 271.00201,15.988189 h 291.70077 l 16.5197,16.519684 -16.5197,16.519688 H 271.00201 Z"
     fill-rule="evenodd"
     id="path21" />
  <path
     fill="#000000"
     d="m 365.28253,39.427871 -3.6875,-9.671875 h 1.73438 l 2.07812,5.796875 q 0.32813,0.9375 0.625,1.9375 0.20313,-0.765625 0.60938,-1.828125 l 2.14062,-5.90625 h 1.6875 l -3.65625,9.671875 z m 6.9375,0 V 26.068496 h 9.01563 v 1.578125 h -7.25 v 4.140625 h 6.26562 v 1.578125 h -6.26562 v 6.0625 z m 11.09911,-11.46875 v -1.890625 h 1.64063 v 1.890625 z m 0,11.46875 v -9.671875 h 1.64063 v 9.671875 z m 4.09794,0 V 26.068496 h 1.64063 v 13.359375 z m 10.8167,-3.109375 1.6875,0.203125 q -0.40625,1.484375 -1.48438,2.3125 -1.07812,0.8125 -2.76562,0.8125 -2.125,0 -3.375,-1.296875 -1.23438,-1.3125 -1.23438,-3.671875 0,-2.453125 1.25,-3.796875 1.26563,-1.34375 3.26563,-1.34375 1.9375,0 3.15625,1.328125 1.23437,1.3125 1.23437,3.703125 0,0.15625 0,0.4375 h -7.21875 q 0.0937,1.59375 0.90625,2.453125 0.8125,0.84375 2.01563,0.84375 0.90625,0 1.54687,-0.46875 0.64063,-0.484375 1.01563,-1.515625 z m -5.39063,-2.65625 h 5.40625 q -0.10937,-1.21875 -0.625,-1.828125 -0.78125,-0.953125 -2.03125,-0.953125 -1.125,0 -1.90625,0.765625 -0.76562,0.75 -0.84375,2.015625 z m 9.59448,-2.046875 v -1.859375 h 1.85937 v 1.859375 z m 0,7.8125 v -1.875 h 1.85937 v 1.875 z m 4.07392,-2.890625 1.625,-0.25 q 0.125,0.96875 0.75,1.5 0.625,0.515625 1.75,0.515625 1.125,0 1.67188,-0.453125 0.54687,-0.46875 0.54687,-1.09375 0,-0.546875 -0.48437,-0.875 -0.32813,-0.21875 -1.67188,-0.546875 -1.8125,-0.46875 -2.51562,-0.796875 -0.6875,-0.328125 -1.04688,-0.90625 -0.35937,-0.59375 -0.35937,-1.3125 0,-0.640625 0.29687,-1.1875 0.29688,-0.5625 0.8125,-0.921875 0.375,-0.28125 1.03125,-0.46875 0.67188,-0.203125 1.42188,-0.203125 1.14062,0 2,0.328125 0.85937,0.328125 1.26562,0.890625 0.42188,0.5625 0.57813,1.5 l -1.60938,0.21875 q -0.10937,-0.75 -0.64062,-1.171875 -0.51563,-0.421875 -1.46875,-0.421875 -1.14063,0 -1.625,0.375 -0.46875,0.375 -0.46875,0.875 0,0.3125 0.1875,0.578125 0.20312,0.265625 0.64062,0.4375 0.23438,0.09375 1.4375,0.421875 1.75,0.453125 2.4375,0.75 0.6875,0.296875 1.07813,0.859375 0.39062,0.5625 0.39062,1.40625 0,0.828125 -0.48437,1.546875 -0.46875,0.71875 -1.375,1.125 -0.90625,0.390625 -2.04688,0.390625 -1.875,0 -2.875,-0.78125 -0.98437,-0.78125 -1.25,-2.328125 z m 9.98438,-8.578125 v -1.890625 h 1.64062 v 1.890625 z m 0,11.46875 v -9.671875 h 1.64062 v 9.671875 z m 3.26983,0 v -1.328125 l 6.15625,-7.078125 q -1.04688,0.0625 -1.84375,0.0625 h -3.9375 v -1.328125 h 7.90625 v 1.078125 l -5.25,6.140625 -1,1.125 q 1.09375,-0.07813 2.0625,-0.07813 h 4.46875 v 1.40625 z m 16.82812,-3.109375 1.6875,0.203125 q -0.40625,1.484375 -1.48437,2.3125 -1.07813,0.8125 -2.76563,0.8125 -2.125,0 -3.375,-1.296875 -1.23437,-1.3125 -1.23437,-3.671875 0,-2.453125 1.25,-3.796875 1.26562,-1.34375 3.26562,-1.34375 1.9375,0 3.15625,1.328125 1.23438,1.3125 1.23438,3.703125 0,0.15625 0,0.4375 h -7.21875 q 0.0937,1.59375 0.90625,2.453125 0.8125,0.84375 2.01562,0.84375 0.90625,0 1.54688,-0.46875 0.64062,-0.484375 1.01562,-1.515625 z m -5.39062,-2.65625 h 5.40625 q -0.10938,-1.21875 -0.625,-1.828125 -0.78125,-0.953125 -2.03125,-0.953125 -1.125,0 -1.90625,0.765625 -0.76563,0.75 -0.84375,2.015625 z m 9.59446,-2.046875 v -1.859375 h 1.85938 v 1.859375 z m 0,7.8125 v -1.875 h 1.85938 v 1.875 z"
     fill-rule="nonzero"
     id="path23" />
  <path
     fill="#000000"
     d="m 444.10601,43.130995 2.79688,-13.375 h 1.51562 l -0.28125,1.34375 q 0.84375,-0.875 1.51563,-1.21875 0.67187,-0.34375 1.42187,-0.34375 1.375,0 2.28125,1.015625 0.92187,1 0.92187,2.875 0,1.515625 -0.5,2.765625 -0.5,1.234375 -1.23437,2 -0.71875,0.75 -1.46875,1.109375 -0.75,0.34375 -1.53125,0.34375 -1.75,0 -2.70313,-1.765625 l -1.09375,5.25 z m 3.25,-7.65625 q 0,1.078125 0.15625,1.5 0.23438,0.59375 0.75,0.96875 0.51563,0.359375 1.20313,0.359375 1.42187,0 2.29687,-1.59375 0.875,-1.609375 0.875,-3.28125 0,-1.21875 -0.59375,-1.890625 -0.57813,-0.671875 -1.45313,-0.671875 -0.625,0 -1.17187,0.34375 -0.53125,0.328125 -1,0.984375 -0.45313,0.65625 -0.76563,1.609375 -0.29687,0.953125 -0.29687,1.671875 z m 14.45386,2.75 q -0.85938,0.734375 -1.65625,1.078125 -0.78125,0.34375 -1.6875,0.34375 -1.34375,0 -2.17188,-0.78125 -0.8125,-0.796875 -0.8125,-2.03125 0,-0.796875 0.375,-1.421875 0.375,-0.625 0.98438,-1 0.60937,-0.390625 1.48437,-0.546875 0.5625,-0.109375 2.10938,-0.171875 1.5625,-0.0625 2.23437,-0.328125 0.1875,-0.671875 0.1875,-1.125 0,-0.578125 -0.42187,-0.90625 -0.5625,-0.453125 -1.67188,-0.453125 -1.03125,0 -1.70312,0.46875 -0.65625,0.453125 -0.95313,1.296875 l -1.67187,-0.140625 q 0.51562,-1.4375 1.60937,-2.203125 1.10938,-0.765625 2.79688,-0.765625 1.79687,0 2.84375,0.859375 0.79687,0.625 0.79687,1.65625 0,0.765625 -0.21875,1.796875 l -0.53125,2.40625 q -0.26562,1.140625 -0.26562,1.859375 0,0.453125 0.20312,1.3125 h -1.67187 q -0.125,-0.46875 -0.1875,-1.203125 z m 0.60937,-3.703125 q -0.34375,0.140625 -0.75,0.21875 -0.39062,0.0625 -1.3125,0.15625 -1.4375,0.125 -2.03125,0.328125 -0.59375,0.1875 -0.90625,0.625 -0.29687,0.421875 -0.29687,0.9375 0,0.6875 0.48437,1.140625 0.48438,0.4375 1.35938,0.4375 0.82812,0 1.57812,-0.421875 0.75,-0.4375 1.1875,-1.203125 0.4375,-0.78125 0.6875,-2.21875 z m 7.09445,3.5625 -0.26562,1.359375 q -0.59375,0.140625 -1.15625,0.140625 -0.98438,0 -1.5625,-0.46875 -0.4375,-0.375 -0.4375,-1 0,-0.3125 0.23437,-1.46875 l 1.17188,-5.625 h -1.29688 l 0.26563,-1.265625 h 1.29687 l 0.5,-2.375 1.89063,-1.140625 -0.73438,3.515625 h 1.625 l -0.28125,1.265625 h -1.60937 l -1.125,5.359375 q -0.20313,1.015625 -0.20313,1.21875 0,0.28125 0.15625,0.4375 0.17188,0.15625 0.5625,0.15625 0.54688,0 0.96875,-0.109375 z m 1.33957,1.34375 2.78125,-13.359375 h 1.65625 l -1.07812,5.140625 q 0.92187,-0.90625 1.71875,-1.28125 0.79687,-0.390625 1.625,-0.390625 1.20312,0 1.85937,0.640625 0.67188,0.625 0.67188,1.65625 0,0.515625 -0.28125,1.875 l -1.20313,5.71875 h -1.64062 l 1.23437,-5.859375 q 0.25,-1.265625 0.25,-1.59375 0,-0.484375 -0.32812,-0.78125 -0.32813,-0.296875 -0.9375,-0.296875 -0.89063,0 -1.70313,0.46875 -0.8125,0.46875 -1.28125,1.28125 -0.45312,0.8125 -0.82812,2.625 l -0.875,4.15625 z"
     fill-rule="nonzero"
     id="path25" />
  <path
     fill="#6fa8dc"
     d="M 579.22247,61.930445 H 287.52169 l -16.51968,16.519684 16.51968,16.519686 h 291.70079 z"
     fill-rule="evenodd"
     id="path27" />
  <path
     stroke="#000000"
     stroke-width="1"
     stroke-linejoin="round"
     stroke-linecap="butt"
     d="M 579.22247,61.930445 H 287.52169 l -16.51968,16.519684 16.51968,16.519686 h 291.70079 z"
     fill-rule="evenodd"
     id="path29" />
  <path
     fill="#000000"
     d="M 296.15903,85.370125 V 72.01075 h 1.78125 V 83.792 h 6.5625 v 1.578125 z m 10.37572,0 V 72.01075 H 308.316 V 83.792 h 6.56251 v 1.578125 z m 10.45384,0 V 72.01075 h 4.60938 q 1.54687,0 2.375,0.203125 1.14062,0.25 1.95312,0.953125 1.0625,0.890625 1.57813,2.28125 0.53125,1.390625 0.53125,3.171875 0,1.515625 -0.35938,2.703125 -0.35937,1.171875 -0.92187,1.9375 -0.54688,0.765625 -1.20313,1.21875 -0.65625,0.4375 -1.59374,0.671875 -0.9375,0.21875 -2.14063,0.21875 z M 318.75422,83.792 h 2.85937 q 1.3125,0 2.0625,-0.234375 0.75,-0.25 1.20313,-0.703125 0.625,-0.625 0.96875,-1.6875 0.35937,-1.0625 0.35937,-2.578125 0,-2.09375 -0.6875,-3.21875 -0.6875,-1.125 -1.67187,-1.5 -0.70312,-0.28125 -2.28125,-0.28125 h -2.8125 z m 11.62918,1.578125 V 72.01075 h 5.01563 q 1.53125,0 2.45312,0.40625 0.92188,0.40625 1.4375,1.25 0.53125,0.84375 0.53125,1.765625 0,0.859375 -0.46875,1.625 -0.45312,0.75 -1.39062,1.203125 1.20312,0.359375 1.85937,1.21875 0.65625,0.859375 0.65625,2.015625 0,0.9375 -0.40625,1.75 -0.39062,0.796875 -0.98437,1.234375 -0.57813,0.4375 -1.45313,0.671875 -0.875,0.21875 -2.15625,0.21875 z m 1.78125,-7.75 h 2.875 q 1.1875,0 1.6875,-0.140625 0.67188,-0.203125 1.01563,-0.671875 0.34375,-0.46875 0.34375,-1.171875 0,-0.65625 -0.32813,-1.15625 -0.3125,-0.515625 -0.90625,-0.703125 -0.59375,-0.1875 -2.03125,-0.1875 h -2.65625 z m 0,6.171875 h 3.3125 q 0.85938,0 1.20313,-0.0625 0.60937,-0.109375 1.01562,-0.359375 0.42188,-0.265625 0.6875,-0.75 0.26563,-0.484375 0.26563,-1.125 0,-0.75 -0.39063,-1.296875 -0.375,-0.546875 -1.0625,-0.765625 -0.67187,-0.234375 -1.95312,-0.234375 h -3.07813 z M 343.1551,77.557625 V 75.69825 h 1.85938 v 1.859375 z m 0,7.8125 v -1.875 h 1.85938 v 1.875 z m 10.21037,0 V 72.01075 h 9.01562 v 1.578125 h -7.25 V 77.7295 h 6.26563 v 1.578125 h -6.26563 v 6.0625 z"
     fill-rule="nonzero"
     id="path31" />
  <path
     fill="#000000"
     d="m 364.01144,82.057625 1.64062,-0.09375 q 0,0.703125 0.21875,1.21875 0.21875,0.5 0.79688,0.8125 0.59375,0.3125 1.375,0.3125 1.09375,0 1.64062,-0.4375 0.54688,-0.4375 0.54688,-1.015625 0,-0.4375 -0.32813,-0.8125 -0.32812,-0.390625 -1.64062,-0.953125 -1.3125,-0.5625 -1.67188,-0.78125 -0.60937,-0.375 -0.92187,-0.875 -0.3125,-0.515625 -0.3125,-1.171875 0,-1.140625 0.90625,-1.953125 0.92187,-0.828125 2.5625,-0.828125 1.82812,0 2.76562,0.84375 0.95313,0.84375 1,2.21875 l -1.60937,0.109375 q -0.0469,-0.875 -0.625,-1.390625 -0.57813,-0.515625 -1.65625,-0.515625 -0.84375,0 -1.32813,0.40625 -0.46875,0.390625 -0.46875,0.84375 0,0.453125 0.40625,0.796875 0.28125,0.234375 1.42188,0.734375 1.89062,0.8125 2.375,1.28125 0.78125,0.765625 0.78125,1.84375 0,0.71875 -0.4375,1.421875 -0.4375,0.6875 -1.34375,1.109375 -0.90625,0.40625 -2.14063,0.40625 -1.67187,0 -2.84375,-0.828125 -1.1875,-0.828125 -1.10937,-2.703125 z m 11.5,-8.171875 0.40625,-1.875 h 1.625 l -0.39063,1.875 z m -2.39063,11.484375 2.01563,-9.671875 h 1.65625 l -2.03125,9.671875 z m 3.9417,0 0.26563,-1.28125 5.20312,-5.84375 q 0.5625,-0.625 1.23438,-1.296875 -1.17188,0.125 -1.67188,0.125 h -3.60937 l 0.29687,-1.375 h 7.48438 l -0.21875,1.03125 -5.25,5.90625 q -0.45313,0.5 -1.32813,1.375 1.375,-0.09375 1.875,-0.09375 h 3.8125 l -0.29687,1.453125 z m 16.6875,-3.28125 1.60938,0.15625 q -0.34375,1.1875 -1.59375,2.265625 -1.23438,1.078125 -2.96875,1.078125 -1.0625,0 -1.96875,-0.5 -0.89063,-0.5 -1.35938,-1.4375 -0.46875,-0.953125 -0.46875,-2.15625 0,-1.59375 0.73438,-3.078125 0.73437,-1.484375 1.89062,-2.203125 1.17188,-0.734375 2.53125,-0.734375 1.73438,0 2.76563,1.078125 1.03125,1.0625 1.03125,2.921875 0,0.71875 -0.125,1.46875 h -7.125 q -0.0469,0.28125 -0.0469,0.5 0,1.359375 0.625,2.078125 0.625,0.71875 1.53125,0.71875 0.84375,0 1.65625,-0.546875 0.82813,-0.5625 1.28125,-1.609375 z m -4.78125,-2.40625 h 5.42188 q 0.0156,-0.25 0.0156,-0.359375 0,-1.234375 -0.625,-1.890625 -0.625,-0.671875 -1.59375,-0.671875 -1.0625,0 -1.9375,0.734375 -0.85937,0.71875 -1.28125,2.1875 z M 403.30903,89.292 v -17.5 h 1.42188 v 17.5 z m 4.84625,0 v -17.5 h 1.42188 v 17.5 z m 15.95144,-9.1875 0.32812,-1.515625 h 5.84375 l -1.14062,5.4375 q -1.10938,0.703125 -2.51563,1.140625 -1.40625,0.4375 -2.78125,0.4375 -2.90625,0 -4.34375,-1.765625 -1.21875,-1.484375 -1.21875,-3.8125 0,-2.40625 1.0625,-4.375 1.0625,-1.984375 2.67188,-2.921875 1.625,-0.9375 3.59375,-0.9375 1.42187,0 2.54687,0.515625 1.14063,0.515625 1.73438,1.375 0.60937,0.859375 0.875,2.234375 l -1.75,0.203125 q -0.28125,-1.375 -1.17188,-2.109375 -0.89062,-0.734375 -2.28125,-0.734375 -1.45312,0 -2.71875,0.796875 -1.25,0.78125 -2,2.375 -0.75,1.578125 -0.75,3.609375 0,2 0.98438,3.03125 1,1.03125 2.75,1.03125 1.73437,0 3.75,-1.140625 l 0.59375,-2.875 z m 7.69892,5.265625 2.78125,-13.359375 h 4.03125 q 1.45313,0 2.21875,0.21875 1.09375,0.28125 1.85938,1 0.78125,0.71875 1.17187,1.8125 0.39063,1.078125 0.39063,2.4375 0,1.609375 -0.48438,2.9375 -0.48437,1.3125 -1.28125,2.328125 -0.78125,1 -1.64062,1.578125 -0.85938,0.5625 -2.04688,0.84375 -0.89062,0.203125 -2.1875,0.203125 z m 2.10938,-1.515625 h 2.10937 q 1.4375,0 2.54688,-0.265625 0.6875,-0.15625 1.17187,-0.484375 0.65625,-0.40625 1.1875,-1.078125 0.6875,-0.890625 1.09375,-2.03125 0.42188,-1.140625 0.42188,-2.609375 0,-1.609375 -0.5625,-2.484375 -0.5625,-0.875 -1.4375,-1.15625 Q 439.79002,73.542 438.43064,73.542 h -2.35937 z m 11.34795,1.515625 2.79687,-13.359375 h 4.14063 q 1.125,0 1.67187,0.09375 0.89063,0.15625 1.5,0.546875 0.625,0.390625 0.95313,1.0625 0.34375,0.65625 0.34375,1.46875 0,1.109375 -0.60938,1.953125 -0.60937,0.828125 -1.85937,1.265625 1.09375,0.359375 1.625,1.078125 0.54687,0.703125 0.54687,1.65625 0,1.109375 -0.64062,2.125 -0.625,1 -1.67188,1.5625 -1.04687,0.546875 -2.32812,0.546875 z m 3.39062,-7.65625 h 2.70313 q 1.9375,0 2.78125,-0.609375 0.85937,-0.625 0.85937,-1.8125 0,-0.5625 -0.26562,-0.96875 -0.26563,-0.40625 -0.70313,-0.59375 -0.4375,-0.1875 -1.65625,-0.1875 h -2.84375 z m -1.28125,6.140625 h 3.03125 q 1.21875,0 1.64063,-0.07813 0.84375,-0.140625 1.35937,-0.484375 0.53125,-0.359375 0.82813,-0.9375 0.3125,-0.578125 0.3125,-1.203125 0,-0.9375 -0.59375,-1.421875 -0.57813,-0.484375 -2.23438,-0.484375 h -3.39062 z m 12.22482,-6.296875 0.39063,-1.859375 h 1.85937 l -0.39062,1.859375 z m -1.64062,7.8125 0.39062,-1.875 h 1.875 l -0.40625,1.875 z m 16.44473,-10.875 -0.39062,1.859375 h -1.875 l 0.34375,-1.640625 q 0.29687,-1.453125 0.95312,-2.140625 0.65625,-0.6875 1.53125,-0.78125 l -0.14062,0.71875 q -1.0625,0.28125 -1.4375,1.984375 z m -2.90625,0 -0.39062,1.859375 h -1.875 l 0.34375,-1.640625 q 0.29687,-1.453125 0.95312,-2.140625 0.65625,-0.6875 1.53125,-0.78125 l -0.14062,0.71875 q -1.0625,0.28125 -1.4375,1.984375 z m 4.49393,-0.5625 0.39062,-1.859375 h 1.875 l -0.32812,1.640625 q -0.3125,1.46875 -0.96875,2.140625 -0.65625,0.671875 -1.53125,0.78125 L 475.5827,75.917 q 1.0625,-0.296875 1.42187,-1.984375 z m 3,0 0.39062,-1.859375 h 1.875 l -0.34375,1.640625 q -0.29687,1.46875 -0.95312,2.140625 -0.64063,0.671875 -1.53125,0.78125 l 0.14062,-0.71875 q 1.07813,-0.296875 1.45313,-1.984375 z M 487.86932,89.292 q -1.42188,-3.125 -1.42188,-6.4375 0,-2.203125 0.57813,-4.09375 0.57812,-1.90625 1.76562,-3.765625 0.78125,-1.234375 2.5,-3.203125 h 1.28125 q -1.0625,1.140625 -2.25,3.203125 -1.1875,2.0625 -1.73437,4.0625 -0.53125,2 -0.53125,4 0,3.015625 1.04687,6.234375 z m 10.43143,-5.671875 q -1.73438,1.96875 -3.5625,1.96875 -1.10938,0 -1.79688,-0.640625 -0.6875,-0.640625 -0.6875,-1.578125 0,-0.609375 0.29688,-2.09375 l 1.17187,-5.578125 h 1.65625 l -1.29687,6.1875 q -0.17188,0.765625 -0.17188,1.203125 0,0.546875 0.32813,0.859375 0.34375,0.296875 0.98437,0.296875 0.70313,0 1.35938,-0.328125 0.65625,-0.34375 1.125,-0.921875 0.48437,-0.578125 0.79687,-1.359375 0.1875,-0.5 0.45313,-1.765625 l 0.875,-4.171875 h 1.65625 l -2.03125,9.671875 h -1.51563 z m 3.78195,1.75 2.01562,-9.671875 h 1.5 l -0.35937,1.6875 q 0.96875,-1 1.8125,-1.453125 0.85937,-0.453125 1.73437,-0.453125 1.1875,0 1.84375,0.640625 0.67188,0.625 0.67188,1.703125 0,0.53125 -0.23438,1.6875 l -1.23437,5.859375 h -1.64063 l 1.28125,-6.125 q 0.1875,-0.890625 0.1875,-1.328125 0,-0.484375 -0.32812,-0.78125 -0.32813,-0.296875 -0.95313,-0.296875 -1.28125,0 -2.26562,0.90625 -0.98438,0.90625 -1.45313,3.125 l -0.9375,4.5 z m 10.53198,-3.3125 1.64063,-0.09375 q 0,0.703125 0.21875,1.21875 0.21875,0.5 0.79687,0.8125 0.59375,0.3125 1.375,0.3125 1.09375,0 1.64063,-0.4375 0.54687,-0.4375 0.54687,-1.015625 0,-0.4375 -0.32812,-0.8125 -0.32813,-0.390625 -1.64063,-0.953125 -1.3125,-0.5625 -1.67187,-0.78125 -0.60938,-0.375 -0.92188,-0.875 -0.3125,-0.515625 -0.3125,-1.171875 0,-1.140625 0.90625,-1.953125 0.92188,-0.828125 2.5625,-0.828125 1.82813,0 2.76563,0.84375 0.95312,0.84375 1,2.21875 l -1.60938,0.109375 q -0.0469,-0.875 -0.625,-1.390625 -0.57812,-0.515625 -1.65625,-0.515625 -0.84375,0 -1.32812,0.40625 -0.46875,0.390625 -0.46875,0.84375 0,0.453125 0.40625,0.796875 0.28125,0.234375 1.42187,0.734375 1.89063,0.8125 2.375,1.28125 0.78125,0.765625 0.78125,1.84375 0,0.71875 -0.4375,1.421875 -0.4375,0.6875 -1.34375,1.109375 -0.90625,0.40625 -2.14062,0.40625 -1.67188,0 -2.84375,-0.828125 -1.1875,-0.828125 -1.10938,-2.703125 z m 15.76563,1.5625 q -1.73438,1.96875 -3.5625,1.96875 -1.10938,0 -1.79688,-0.640625 -0.6875,-0.640625 -0.6875,-1.578125 0,-0.609375 0.29688,-2.09375 l 1.17187,-5.578125 h 1.65625 l -1.29687,6.1875 q -0.17188,0.765625 -0.17188,1.203125 0,0.546875 0.32813,0.859375 0.34375,0.296875 0.98437,0.296875 0.70313,0 1.35938,-0.328125 0.65625,-0.34375 1.125,-0.921875 0.48437,-0.578125 0.79687,-1.359375 0.1875,-0.5 0.45313,-1.765625 l 0.875,-4.171875 h 1.65625 l -2.03125,9.671875 h -1.51563 z m 2.96945,5.453125 2.79687,-13.375 h 1.51563 l -0.28125,1.34375 q 0.84375,-0.875 1.51562,-1.21875 0.67188,-0.34375 1.42188,-0.34375 1.375,0 2.28125,1.015625 0.92187,1 0.92187,2.875 0,1.515625 -0.5,2.765625 -0.5,1.234375 -1.23437,2 -0.71875,0.75 -1.46875,1.109375 -0.75,0.34375 -1.53125,0.34375 -1.75,0 -2.70313,-1.765625 l -1.09375,5.25 z m 3.25,-7.65625 q 0,1.078125 0.15625,1.5 0.23437,0.59375 0.75,0.96875 0.51562,0.359375 1.20312,0.359375 1.42188,0 2.29688,-1.59375 0.875,-1.609375 0.875,-3.28125 0,-1.21875 -0.59375,-1.890625 -0.57813,-0.671875 -1.45313,-0.671875 -0.625,0 -1.17187,0.34375 -0.53125,0.328125 -1,0.984375 -0.45313,0.65625 -0.76563,1.609375 -0.29687,0.953125 -0.29687,1.671875 z m 7.1257,7.65625 2.79687,-13.375 h 1.51563 l -0.28125,1.34375 q 0.84375,-0.875 1.51562,-1.21875 0.67188,-0.34375 1.42188,-0.34375 1.375,0 2.28125,1.015625 0.92187,1 0.92187,2.875 0,1.515625 -0.5,2.765625 -0.5,1.234375 -1.23437,2 -0.71875,0.75 -1.46875,1.109375 -0.75,0.34375 -1.53125,0.34375 -1.75,0 -2.70313,-1.765625 l -1.09375,5.25 z m 3.25,-7.65625 q 0,1.078125 0.15625,1.5 0.23437,0.59375 0.75,0.96875 0.51562,0.359375 1.20312,0.359375 1.42188,0 2.29688,-1.59375 0.875,-1.609375 0.875,-3.28125 0,-1.21875 -0.59375,-1.890625 -0.57813,-0.671875 -1.45313,-0.671875 -0.625,0 -1.17187,0.34375 -0.53125,0.328125 -1,0.984375 -0.45313,0.65625 -0.76563,1.609375 -0.29687,0.953125 -0.29687,1.671875 z m 8.39136,3.953125 0.39062,-1.875 h 1.85938 l -0.39063,1.875 z M 561.17511,71.792 q 1.4375,3.125 1.4375,6.421875 0,2.21875 -0.57813,4.125 -0.57812,1.890625 -1.76562,3.75 -0.79688,1.234375 -2.5,3.203125 h -1.29688 q 1.0625,-1.140625 2.25,-3.21875 1.20313,-2.0625 1.73438,-4.046875 0.53125,-2 0.53125,-4.015625 0,-3 -1.04688,-6.21875 z"
     fill-rule="nonzero"
     id="path33" />
  <path
     fill="#fff2cc"
     d="m 270.99676,245.69947 h 291.70078 l 16.51968,16.51968 -16.51968,16.5197 H 270.99676 Z"
     fill-rule="evenodd"
     id="path35" />
  <path
     stroke="#000000"
     stroke-width="1"
     stroke-linejoin="round"
     stroke-linecap="butt"
     d="m 270.99676,245.69947 h 291.70078 l 16.51968,16.51968 -16.51968,16.5197 H 270.99676 Z"
     fill-rule="evenodd"
     id="path37" />
  <path
     fill="#000000"
     d="m 374.61451,269.13916 -3.6875,-9.67188 h 1.73437 l 2.07813,5.79688 q 0.32812,0.9375 0.625,1.9375 0.20312,-0.76563 0.60937,-1.82813 l 2.14063,-5.90625 h 1.6875 l -3.65625,9.67188 z m 6.9375,0 v -13.35938 h 9.01562 v 1.57813 h -7.25 v 4.14062 h 6.26563 v 1.57813 h -6.26563 v 6.0625 z m 11.09911,-11.46875 v -1.89063 h 1.64062 v 1.89063 z m 0,11.46875 v -9.67188 h 1.64062 v 9.67188 z m 4.09794,0 v -13.35938 h 1.64063 v 13.35938 z m 10.8167,-3.10938 1.6875,0.20313 q -0.40625,1.48437 -1.48438,2.3125 -1.07812,0.8125 -2.76562,0.8125 -2.125,0 -3.375,-1.29688 -1.23438,-1.3125 -1.23438,-3.67187 0,-2.45313 1.25,-3.79688 1.26563,-1.34375 3.26563,-1.34375 1.9375,0 3.15625,1.32813 1.23437,1.3125 1.23437,3.70312 0,0.15625 0,0.4375 h -7.21875 q 0.0937,1.59375 0.90625,2.45313 0.8125,0.84375 2.01563,0.84375 0.90625,0 1.54687,-0.46875 0.64063,-0.48438 1.01563,-1.51563 z m -5.39063,-2.65625 h 5.40625 q -0.10937,-1.21875 -0.625,-1.82812 -0.78125,-0.95313 -2.03125,-0.95313 -1.125,0 -1.90625,0.76563 -0.76562,0.75 -0.84375,2.01562 z m 9.59447,-2.04687 v -1.85938 h 1.85938 v 1.85938 z m 0,7.8125 v -1.875 h 1.85938 v 1.875 z m 5.1208,0 v -8.40625 h -1.45312 v -1.26563 h 1.45312 v -1.03125 q 0,-0.96875 0.17188,-1.45312 0.23437,-0.64063 0.82812,-1.03125 0.59375,-0.39063 1.67188,-0.39063 0.6875,0 1.53125,0.15625 l -0.25,1.4375 q -0.5,-0.0937 -0.95313,-0.0937 -0.75,0 -1.0625,0.32813 -0.3125,0.3125 -0.3125,1.1875 v 0.89062 h 1.89063 v 1.26563 h -1.89063 v 8.40625 z m 4.13643,-2.89063 1.625,-0.25 q 0.125,0.96875 0.75,1.5 0.625,0.51563 1.75,0.51563 1.125,0 1.67188,-0.45313 0.54687,-0.46875 0.54687,-1.09375 0,-0.54687 -0.48437,-0.875 -0.32813,-0.21875 -1.67188,-0.54687 -1.8125,-0.46875 -2.51562,-0.79688 -0.6875,-0.32812 -1.04688,-0.90625 -0.35937,-0.59375 -0.35937,-1.3125 0,-0.64062 0.29687,-1.1875 0.29688,-0.5625 0.8125,-0.92187 0.375,-0.28125 1.03125,-0.46875 0.67188,-0.20313 1.42188,-0.20313 1.14062,0 2,0.32813 0.85937,0.32812 1.26562,0.89062 0.42188,0.5625 0.57813,1.5 l -1.60938,0.21875 q -0.10937,-0.75 -0.64062,-1.17187 -0.51563,-0.42188 -1.46875,-0.42188 -1.14063,0 -1.625,0.375 -0.46875,0.375 -0.46875,0.875 0,0.3125 0.1875,0.57813 0.20312,0.26562 0.64062,0.4375 0.23438,0.0937 1.4375,0.42187 1.75,0.45313 2.4375,0.75 0.6875,0.29688 1.07813,0.85938 0.39062,0.5625 0.39062,1.40625 0,0.82812 -0.48437,1.54687 -0.46875,0.71875 -1.375,1.125 -0.90625,0.39063 -2.04688,0.39063 -1.875,0 -2.875,-0.78125 -0.98437,-0.78125 -1.25,-2.32813 z m 13.5625,1.42188 0.23438,1.45312 q -0.6875,0.14063 -1.23438,0.14063 -0.89062,0 -1.39062,-0.28125 -0.48438,-0.28125 -0.6875,-0.73438 -0.20313,-0.46875 -0.20313,-1.9375 v -5.57812 h -1.20312 v -1.26563 h 1.20312 v -2.39062 l 1.625,-0.98438 v 3.375 h 1.65625 v 1.26563 h -1.65625 v 5.67187 q 0,0.6875 0.0781,0.89063 0.0937,0.20312 0.28125,0.32812 0.20312,0.10938 0.57812,0.10938 0.26563,0 0.71875,-0.0625 z m 7.91768,0.28125 q -0.92187,0.76562 -1.76562,1.09375 -0.82813,0.3125 -1.79688,0.3125 -1.59375,0 -2.45312,-0.78125 -0.85938,-0.78125 -0.85938,-1.98438 0,-0.71875 0.32813,-1.29687 0.32812,-0.59375 0.84375,-0.9375 0.53125,-0.35938 1.1875,-0.54688 0.46875,-0.125 1.45312,-0.25 1.98438,-0.23437 2.92188,-0.5625 0.0156,-0.34375 0.0156,-0.42187 0,-1 -0.46875,-1.42188 -0.625,-0.54687 -1.875,-0.54687 -1.15625,0 -1.70312,0.40625 -0.54688,0.40625 -0.8125,1.42187 l -1.60938,-0.21875 q 0.21875,-1.01562 0.71875,-1.64062 0.5,-0.64063 1.45313,-0.98438 0.95312,-0.34375 2.1875,-0.34375 1.25,0 2.01562,0.29688 0.78125,0.28125 1.14063,0.73437 0.375,0.4375 0.51562,1.10938 0.0781,0.42187 0.0781,1.51562 v 2.1875 q 0,2.28125 0.10937,2.89063 0.10938,0.59375 0.40625,1.15625 h -1.70312 q -0.26563,-0.51563 -0.32813,-1.1875 z m -0.14062,-3.67188 q -0.89063,0.375 -2.67188,0.625 -1.01562,0.14063 -1.4375,0.32813 -0.42187,0.1875 -0.65625,0.53125 -0.21875,0.34375 -0.21875,0.78125 0,0.65625 0.5,1.09375 0.5,0.4375 1.45313,0.4375 0.9375,0 1.67187,-0.40625 0.75,-0.42188 1.09375,-1.14063 0.26563,-0.5625 0.26563,-1.64062 z m 7.78196,3.39063 0.23438,1.45312 q -0.6875,0.14063 -1.23438,0.14063 -0.89062,0 -1.39062,-0.28125 -0.48438,-0.28125 -0.6875,-0.73438 -0.20313,-0.46875 -0.20313,-1.9375 v -5.57812 h -1.20312 v -1.26563 h 1.20312 v -2.39062 l 1.625,-0.98438 v 3.375 h 1.65625 v 1.26563 h -1.65625 v 5.67187 q 0,0.6875 0.0781,0.89063 0.0937,0.20312 0.28125,0.32812 0.20312,0.10938 0.57812,0.10938 0.26563,0 0.71875,-0.0625 z m 2.05831,-6.34375 v -1.85938 h 1.85937 v 1.85938 z m 0,7.8125 v -1.875 h 1.85937 v 1.875 z"
     fill-rule="nonzero"
     id="path39" />
  <path
     fill="#000000"
     d="m 456.54623,269.13916 1.76562,-8.40625 h -1.48437 l 0.26562,-1.26563 h 1.48438 l 0.28125,-1.375 q 0.21875,-1.03125 0.4375,-1.48437 0.23437,-0.45313 0.75,-0.75 0.53125,-0.29688 1.4375,-0.29688 0.625,0 1.82812,0.26563 l -0.29687,1.4375 q -0.84375,-0.21875 -1.40625,-0.21875 -0.48438,0 -0.73438,0.25 -0.25,0.23437 -0.4375,1.125 l -0.21875,1.04687 h 1.84375 l -0.26562,1.26563 h -1.84375 l -1.75,8.40625 z m 11.48016,-1.40625 q -1.40625,1.625 -2.95312,1.625 -1.375,0 -2.29688,-1.01563 -0.90625,-1.01562 -0.90625,-2.95312 0,-1.76563 0.71875,-3.21875 0.73438,-1.46875 1.8125,-2.1875 1.09375,-0.73438 2.1875,-0.73438 1.79688,0 2.71875,1.73438 l 1.09375,-5.20313 h 1.64063 l -2.78125,13.35938 h -1.53125 z m -4.51562,-2.64063 q 0,1 0.20312,1.59375 0.20313,0.57813 0.67188,0.96875 0.48437,0.375 1.17187,0.375 1.10938,0 2.03125,-1.15625 1.21875,-1.54687 1.21875,-3.82812 0,-1.14063 -0.60937,-1.78125 -0.59375,-0.65625 -1.51563,-0.65625 -0.59375,0 -1.07812,0.26562 -0.48438,0.26563 -0.96875,0.90625 -0.46875,0.625 -0.79688,1.59375 -0.32812,0.96875 -0.32812,1.71875 z"
     fill-rule="nonzero"
     id="path41" />
  <path
     fill="#ffd966"
     d="M 579.21721,291.64173 H 287.51643 l -16.51968,16.51968 16.51968,16.51969 h 291.70078 z"
     fill-rule="evenodd"
     id="path43" />
  <path
     stroke="#000000"
     stroke-width="1"
     stroke-linejoin="round"
     stroke-linecap="butt"
     d="M 579.21721,291.64173 H 287.51643 l -16.51968,16.51968 16.51968,16.51969 h 291.70078 z"
     fill-rule="evenodd"
     id="path45" />
  <path
     fill="#000000"
     d="m 381.50401,315.08141 v -13.35938 h 9.01562 v 1.57813 h -7.25 v 4.14062 h 6.26563 v 1.57813 h -6.26563 v 6.0625 z"
     fill-rule="nonzero"
     id="path47" />
  <path
     fill="#000000"
     d="m 398.66561,311.55016 1.65625,0.17187 q -0.625,1.8125 -1.76563,2.70313 -1.14062,0.875 -2.60937,0.875 -1.57813,0 -2.5625,-1.01563 -0.96875,-1.03125 -0.96875,-2.85937 0,-1.57813 0.625,-3.10938 0.64062,-1.53125 1.79687,-2.32812 1.17188,-0.79688 2.6875,-0.79688 1.54688,0 2.45313,0.875 0.92187,0.875 0.92187,2.32813 l -1.625,0.10937 q -0.0156,-0.92187 -0.54687,-1.4375 -0.51563,-0.51562 -1.35938,-0.51562 -1,0 -1.73437,0.625 -0.71875,0.625 -1.14063,1.90625 -0.40625,1.28125 -0.40625,2.46875 0,1.23437 0.54688,1.85937 0.54687,0.60938 1.34375,0.60938 0.79687,0 1.53125,-0.60938 0.73437,-0.60937 1.15625,-1.85937 z m 2.9375,-0.14063 q 0,-2.82812 1.67187,-4.6875 1.375,-1.53125 3.60938,-1.53125 1.75,0 2.8125,1.09375 1.07812,1.09375 1.07812,2.95313 0,1.65625 -0.67187,3.09375 -0.67188,1.4375 -1.92188,2.20312 -1.25,0.76563 -2.625,0.76563 -1.125,0 -2.04687,-0.48438 -0.92188,-0.48437 -1.42188,-1.35937 -0.48437,-0.89063 -0.48437,-2.04688 z m 1.65625,-0.15625 q 0,1.35938 0.65625,2.0625 0.65625,0.70313 1.65625,0.70313 0.53125,0 1.04687,-0.20313 0.53125,-0.21875 0.96875,-0.65625 0.45313,-0.4375 0.76563,-1 0.3125,-0.5625 0.5,-1.20312 0.28125,-0.90625 0.28125,-1.73438 0,-1.3125 -0.65625,-2.03125 -0.65625,-0.73437 -1.65625,-0.73437 -0.78125,0 -1.42188,0.375 -0.625,0.375 -1.14062,1.09375 -0.51563,0.70312 -0.76563,1.64062 -0.23437,0.9375 -0.23437,1.6875 z m 15.03197,2.07813 q -1.73438,1.96875 -3.5625,1.96875 -1.10938,0 -1.79688,-0.64063 -0.6875,-0.64062 -0.6875,-1.57812 0,-0.60938 0.29688,-2.09375 l 1.17187,-5.57813 h 1.65625 l -1.29687,6.1875 q -0.17188,0.76563 -0.17188,1.20313 0,0.54687 0.32813,0.85937 0.34375,0.29688 0.98437,0.29688 0.70313,0 1.35938,-0.32813 0.65625,-0.34375 1.125,-0.92187 0.48437,-0.57813 0.79687,-1.35938 0.1875,-0.5 0.45313,-1.76562 l 0.875,-4.17188 h 1.65625 l -2.03125,9.67188 h -1.51563 z m 3.78196,1.75 2.01562,-9.67188 h 1.5 l -0.35937,1.6875 q 0.96875,-1 1.8125,-1.45312 0.85937,-0.45313 1.73437,-0.45313 1.1875,0 1.84375,0.64063 0.67188,0.625 0.67188,1.70312 0,0.53125 -0.23438,1.6875 l -1.23437,5.85938 h -1.64063 l 1.28125,-6.125 q 0.1875,-0.89063 0.1875,-1.32813 0,-0.48437 -0.32812,-0.78125 -0.32813,-0.29687 -0.95313,-0.29687 -1.28125,0 -2.26562,0.90625 -0.98438,0.90625 -1.45313,3.125 l -0.9375,4.5 z m 14.21947,-1.34375 -0.26563,1.35937 q -0.59375,0.14063 -1.15625,0.14063 -0.98437,0 -1.5625,-0.46875 -0.4375,-0.375 -0.4375,-1 0,-0.3125 0.23438,-1.46875 l 1.17187,-5.625 h -1.29687 l 0.26562,-1.26563 h 1.29688 l 0.5,-2.375 1.89062,-1.14062 -0.73437,3.51562 h 1.625 l -0.28125,1.26563 h -1.60938 l -1.125,5.35937 q -0.20312,1.01563 -0.20312,1.21875 0,0.28125 0.15625,0.4375 0.17187,0.15625 0.5625,0.15625 0.54687,0 0.96875,-0.10937 z m 1.73017,1.34375 0.39063,-1.875 h 1.875 l -0.34375,1.64062 q -0.3125,1.46875 -0.96875,2.14063 -0.64063,0.6875 -1.51563,0.79687 l 0.14063,-0.71875 q 1.09375,-0.3125 1.4375,-1.98437 z m 11.3083,-1.40625 q -1.40625,1.625 -2.95312,1.625 -1.375,0 -2.29688,-1.01563 -0.90625,-1.01562 -0.90625,-2.95312 0,-1.76563 0.71875,-3.21875 0.73438,-1.46875 1.8125,-2.1875 1.09375,-0.73438 2.1875,-0.73438 1.79688,0 2.71875,1.73438 l 1.09375,-5.20313 h 1.64063 l -2.78125,13.35938 h -1.53125 z m -4.51562,-2.64063 q 0,1 0.20312,1.59375 0.20313,0.57813 0.67188,0.96875 0.48437,0.375 1.17187,0.375 1.10938,0 2.03125,-1.15625 1.21875,-1.54687 1.21875,-3.82812 0,-1.14063 -0.60937,-1.78125 -0.59375,-0.65625 -1.51563,-0.65625 -0.59375,0 -1.07812,0.26562 -0.48438,0.26563 -0.96875,0.90625 -0.46875,0.625 -0.79688,1.59375 -0.32812,0.96875 -0.32812,1.71875 z m 14.89137,2.84375 q -0.85938,0.73438 -1.65625,1.07813 -0.78125,0.34375 -1.6875,0.34375 -1.34375,0 -2.17188,-0.78125 -0.8125,-0.79688 -0.8125,-2.03125 0,-0.79688 0.375,-1.42188 0.375,-0.625 0.98438,-1 0.60937,-0.39062 1.48437,-0.54687 0.5625,-0.10938 2.10938,-0.17188 1.5625,-0.0625 2.23437,-0.32812 0.1875,-0.67188 0.1875,-1.125 0,-0.57813 -0.42187,-0.90625 -0.5625,-0.45313 -1.67188,-0.45313 -1.03125,0 -1.70312,0.46875 -0.65625,0.45313 -0.95313,1.29688 l -1.67187,-0.14063 q 0.51562,-1.4375 1.60937,-2.20312 1.10938,-0.76563 2.79688,-0.76563 1.79687,0 2.84375,0.85938 0.79687,0.625 0.79687,1.65625 0,0.76562 -0.21875,1.79687 l -0.53125,2.40625 q -0.26562,1.14063 -0.26562,1.85938 0,0.45312 0.20312,1.3125 h -1.67187 q -0.125,-0.46875 -0.1875,-1.20313 z m 0.60937,-3.70312 q -0.34375,0.14062 -0.75,0.21875 -0.39062,0.0625 -1.3125,0.15625 -1.4375,0.125 -2.03125,0.32812 -0.59375,0.1875 -0.90625,0.625 -0.29687,0.42188 -0.29687,0.9375 0,0.6875 0.48437,1.14063 0.48438,0.4375 1.35938,0.4375 0.82812,0 1.57812,-0.42188 0.75,-0.4375 1.1875,-1.20312 0.4375,-0.78125 0.6875,-2.21875 z m 7.09445,3.5625 -0.26563,1.35937 q -0.59375,0.14063 -1.15625,0.14063 -0.98437,0 -1.5625,-0.46875 -0.4375,-0.375 -0.4375,-1 0,-0.3125 0.23438,-1.46875 l 1.17187,-5.625 h -1.29687 l 0.26562,-1.26563 h 1.29688 l 0.5,-2.375 1.89062,-1.14062 -0.73437,3.51562 h 1.625 l -0.28125,1.26563 h -1.60938 l -1.125,5.35937 q -0.20312,1.01563 -0.20312,1.21875 0,0.28125 0.15625,0.4375 0.17187,0.15625 0.5625,0.15625 0.54687,0 0.96875,-0.10937 z m 7.8552,0.14062 q -0.85938,0.73438 -1.65625,1.07813 -0.78125,0.34375 -1.6875,0.34375 -1.34375,0 -2.17188,-0.78125 -0.8125,-0.79688 -0.8125,-2.03125 0,-0.79688 0.375,-1.42188 0.375,-0.625 0.98438,-1 0.60937,-0.39062 1.48437,-0.54687 0.5625,-0.10938 2.10938,-0.17188 1.5625,-0.0625 2.23437,-0.32812 0.1875,-0.67188 0.1875,-1.125 0,-0.57813 -0.42187,-0.90625 -0.5625,-0.45313 -1.67188,-0.45313 -1.03125,0 -1.70312,0.46875 -0.65625,0.45313 -0.95313,1.29688 l -1.67187,-0.14063 q 0.51562,-1.4375 1.60937,-2.20312 1.10938,-0.76563 2.79688,-0.76563 1.79687,0 2.84375,0.85938 0.79687,0.625 0.79687,1.65625 0,0.76562 -0.21875,1.79687 l -0.53125,2.40625 q -0.26562,1.14063 -0.26562,1.85938 0,0.45312 0.20312,1.3125 h -1.67187 q -0.125,-0.46875 -0.1875,-1.20313 z m 0.60937,-3.70312 q -0.34375,0.14062 -0.75,0.21875 -0.39062,0.0625 -1.3125,0.15625 -1.4375,0.125 -2.03125,0.32812 -0.59375,0.1875 -0.90625,0.625 -0.29687,0.42188 -0.29687,0.9375 0,0.6875 0.48437,1.14063 0.48438,0.4375 1.35938,0.4375 0.82812,0 1.57812,-0.42188 0.75,-0.4375 1.1875,-1.20312 0.4375,-0.78125 0.6875,-2.21875 z"
     fill-rule="nonzero"
     id="path49" />
  <path
     fill="#ead1dc"
     d="m 270.99676,337.584 h 291.70078 l 16.51968,16.51967 -16.51968,16.5197 H 270.99676 Z"
     fill-rule="evenodd"
     id="path51" />
  <path
     stroke="#000000"
     stroke-width="1"
     stroke-linejoin="round"
     stroke-linecap="butt"
     d="m 270.99676,337.584 h 291.70078 l 16.51968,16.51967 -16.51968,16.5197 H 270.99676 Z"
     fill-rule="evenodd"
     id="path53" />
  <path
     fill="#000000"
     d="m 370.46515,361.02366 -3.6875,-9.67188 h 1.73437 l 2.07813,5.79688 q 0.32812,0.9375 0.625,1.9375 0.20312,-0.76563 0.60937,-1.82813 l 2.14063,-5.90625 h 1.6875 l -3.65625,9.67188 z m 6.9375,0 v -13.35938 h 9.01562 v 1.57813 h -7.25 v 4.14062 h 6.26563 v 1.57813 h -6.26563 v 6.0625 z m 11.09911,-11.46875 v -1.89063 h 1.64062 v 1.89063 z m 0,11.46875 v -9.67188 h 1.64062 v 9.67188 z m 4.09794,0 v -13.35938 h 1.64063 v 13.35938 z m 10.8167,-3.10938 1.6875,0.20313 q -0.40625,1.48437 -1.48438,2.3125 -1.07812,0.8125 -2.76562,0.8125 -2.125,0 -3.375,-1.29688 -1.23438,-1.3125 -1.23438,-3.67187 0,-2.45313 1.25,-3.79688 1.26563,-1.34375 3.26563,-1.34375 1.9375,0 3.15625,1.32813 1.23437,1.3125 1.23437,3.70312 0,0.15625 0,0.4375 h -7.21875 q 0.0937,1.59375 0.90625,2.45313 0.8125,0.84375 2.01563,0.84375 0.90625,0 1.54687,-0.46875 0.64063,-0.48438 1.01563,-1.51563 z m -5.39063,-2.65625 h 5.40625 q -0.10937,-1.21875 -0.625,-1.82812 -0.78125,-0.95313 -2.03125,-0.95313 -1.125,0 -1.90625,0.76563 -0.76562,0.75 -0.84375,2.01562 z m 9.59445,-2.04687 v -1.85938 h 1.85938 v 1.85938 z m 0,7.8125 v -1.875 h 1.85938 v 1.875 z m 11.0427,-3.54688 1.60937,0.21875 q -0.26562,1.65625 -1.35937,2.60938 -1.07813,0.9375 -2.67188,0.9375 -1.98437,0 -3.1875,-1.29688 -1.20312,-1.29687 -1.20312,-3.71875 0,-1.57812 0.51562,-2.75 0.51563,-1.17187 1.57813,-1.75 1.0625,-0.59375 2.3125,-0.59375 1.57812,0 2.57812,0.79688 1,0.79687 1.28125,2.26562 l -1.59375,0.23438 q -0.23437,-0.96875 -0.8125,-1.45313 -0.57812,-0.5 -1.39062,-0.5 -1.23438,0 -2.01563,0.89063 -0.78125,0.89062 -0.78125,2.8125 0,1.95312 0.75,2.84375 0.75,0.875 1.95313,0.875 0.96875,0 1.60937,-0.59375 0.65625,-0.59375 0.82813,-1.82813 z m 2.96875,3.54688 v -13.35938 h 1.64062 v 13.35938 z m 3.5823,-4.84375 q 0,-2.6875 1.48438,-3.96875 1.25,-1.07813 3.04687,-1.07813 2,0 3.26563,1.3125 1.26562,1.29688 1.26562,3.60938 0,1.85937 -0.5625,2.9375 -0.5625,1.0625 -1.64062,1.65625 -1.0625,0.59375 -2.32813,0.59375 -2.03125,0 -3.28125,-1.29688 -1.25,-1.3125 -1.25,-3.76562 z m 1.6875,0 q 0,1.85937 0.79688,2.79687 0.8125,0.92188 2.04687,0.92188 1.21875,0 2.03125,-0.92188 0.8125,-0.9375 0.8125,-2.84375 0,-1.79687 -0.8125,-2.71875 -0.8125,-0.92187 -2.03125,-0.92187 -1.23437,0 -2.04687,0.92187 -0.79688,0.90625 -0.79688,2.76563 z m 8.64136,1.95312 1.625,-0.25 q 0.125,0.96875 0.75,1.5 0.625,0.51563 1.75,0.51563 1.125,0 1.67188,-0.45313 0.54687,-0.46875 0.54687,-1.09375 0,-0.54687 -0.48437,-0.875 -0.32813,-0.21875 -1.67188,-0.54687 -1.8125,-0.46875 -2.51562,-0.79688 -0.6875,-0.32812 -1.04688,-0.90625 -0.35937,-0.59375 -0.35937,-1.3125 0,-0.64062 0.29687,-1.1875 0.29688,-0.5625 0.8125,-0.92187 0.375,-0.28125 1.03125,-0.46875 0.67188,-0.20313 1.42188,-0.20313 1.14062,0 2,0.32813 0.85937,0.32812 1.26562,0.89062 0.42188,0.5625 0.57813,1.5 l -1.60938,0.21875 q -0.10937,-0.75 -0.64062,-1.17187 -0.51563,-0.42188 -1.46875,-0.42188 -1.14063,0 -1.625,0.375 -0.46875,0.375 -0.46875,0.875 0,0.3125 0.1875,0.57813 0.20312,0.26562 0.64062,0.4375 0.23438,0.0937 1.4375,0.42187 1.75,0.45313 2.4375,0.75 0.6875,0.29688 1.07813,0.85938 0.39062,0.5625 0.39062,1.40625 0,0.82812 -0.48437,1.54687 -0.46875,0.71875 -1.375,1.125 -0.90625,0.39063 -2.04688,0.39063 -1.875,0 -2.875,-0.78125 -0.98437,-0.78125 -1.25,-2.32813 z m 16.60939,-0.21875 1.6875,0.20313 q -0.40625,1.48437 -1.48437,2.3125 -1.07814,0.8125 -2.76564,0.8125 -2.125,0 -3.375,-1.29688 -1.23438,-1.3125 -1.23438,-3.67187 0,-2.45313 1.25,-3.79688 1.26563,-1.34375 3.26563,-1.34375 1.9375,0 3.15626,1.32813 1.23438,1.3125 1.23438,3.70312 0,0.15625 0,0.4375 h -7.21877 q 0.0937,1.59375 0.90625,2.45313 0.8125,0.84375 2.01563,0.84375 0.90625,0 1.54687,-0.46875 0.64063,-0.48438 1.01564,-1.51563 z m -5.39064,-2.65625 h 5.40627 q -0.10939,-1.21875 -0.62502,-1.82812 -0.78125,-0.95313 -2.03125,-0.95313 -1.125,0 -1.90625,0.76563 -0.76562,0.75 -0.84375,2.01562 z m 9.59447,-2.04687 v -1.85938 h 1.85937 v 1.85938 z m 0,7.8125 v -1.875 h 1.85937 v 1.875 z"
     fill-rule="nonzero"
     id="path55" />
  <path
     fill="#000000"
     d="m 460.69561,361.02366 1.76562,-8.40625 h -1.48437 l 0.26562,-1.26563 h 1.48438 l 0.28125,-1.375 q 0.21875,-1.03125 0.4375,-1.48437 0.23437,-0.45313 0.75,-0.75 0.53125,-0.29688 1.4375,-0.29688 0.625,0 1.82812,0.26563 l -0.29687,1.4375 q -0.84375,-0.21875 -1.40625,-0.21875 -0.48438,0 -0.73438,0.25 -0.25,0.23437 -0.4375,1.125 l -0.21875,1.04687 h 1.84375 l -0.26562,1.26563 h -1.84375 l -1.75,8.40625 z m 11.48016,-1.40625 q -1.40625,1.625 -2.95312,1.625 -1.375,0 -2.29688,-1.01563 -0.90625,-1.01562 -0.90625,-2.95312 0,-1.76563 0.71875,-3.21875 0.73438,-1.46875 1.8125,-2.1875 1.09375,-0.73438 2.1875,-0.73438 1.79688,0 2.71875,1.73438 l 1.09375,-5.20313 h 1.64063 l -2.78125,13.35938 h -1.53125 z m -4.51562,-2.64063 q 0,1 0.20312,1.59375 0.20313,0.57813 0.67188,0.96875 0.48437,0.375 1.17187,0.375 1.10938,0 2.03125,-1.15625 1.21875,-1.54687 1.21875,-3.82812 0,-1.14063 -0.60937,-1.78125 -0.59375,-0.65625 -1.51563,-0.65625 -0.59375,0 -1.07812,0.26562 -0.48438,0.26563 -0.96875,0.90625 -0.46875,0.625 -0.79688,1.59375 -0.32812,0.96875 -0.32812,1.71875 z"
     fill-rule="nonzero"
     id="path57" />
  <path
     fill="#c27ba0"
     d="M 579.21721,383.52627 H 287.51643 l -16.51968,16.51968 16.51968,16.51968 h 291.70078 z"
     fill-rule="evenodd"
     id="path59" />
  <path
     stroke="#000000"
     stroke-width="1"
     stroke-linejoin="round"
     stroke-linecap="butt"
     d="M 579.21721,383.52627 H 287.51643 l -16.51968,16.51968 16.51968,16.51968 h 291.70078 z"
     fill-rule="evenodd"
     id="path61" />
  <path
     fill="#000000"
     d="m 419.88232,406.96593 v -13.35937 h 9.01562 v 1.57812 h -7.25 v 4.14063 h 6.26563 v 1.57812 h -6.26563 v 6.0625 z m 10.64598,-6.59375 q 0,-2.35937 0.48438,-3.79687 0.48437,-1.45313 1.4375,-2.23438 0.96875,-0.78125 2.42187,-0.78125 1.07813,0 1.89063,0.4375 0.8125,0.42188 1.32812,1.25 0.53125,0.8125 0.82813,1.98438 0.3125,1.15625 0.3125,3.14062 0,2.35938 -0.48438,3.8125 -0.48437,1.4375 -1.45312,2.23438 -0.95313,0.78125 -2.42188,0.78125 -1.92187,0 -3.03125,-1.39063 -1.3125,-1.67187 -1.3125,-5.4375 z m 1.67188,0 q 0,3.29688 0.76562,4.39063 0.78125,1.07812 1.90625,1.07812 1.14063,0 1.90625,-1.09375 0.76563,-1.09375 0.76563,-4.375 0,-3.29687 -0.76563,-4.375 -0.76562,-1.07812 -1.92187,-1.07812 -1.125,0 -1.79688,0.95312 -0.85937,1.21875 -0.85937,4.5 z"
     fill-rule="nonzero"
     id="path63" />
  <path
     fill="#cfe2f3"
     d="m 270.99676,153.81496 h 291.70078 l 16.51968,16.51968 -16.51968,16.51969 H 270.99676 Z"
     fill-rule="evenodd"
     id="path65" />
  <path
     stroke="#000000"
     stroke-width="1"
     stroke-linejoin="round"
     stroke-linecap="butt"
     d="m 270.99676,153.81496 h 291.70078 l 16.51968,16.51968 -16.51968,16.51969 H 270.99676 Z"
     fill-rule="evenodd"
     id="path67" />
  <path
     fill="#000000"
     d="m 306.68045,177.25464 -3.6875,-9.67187 h 1.73438 l 2.07812,5.79687 q 0.32813,0.9375 0.625,1.9375 0.20313,-0.76562 0.60938,-1.82812 l 2.14062,-5.90625 h 1.6875 l -3.65625,9.67187 z m 6.9375,0 v -13.35938 h 9.01563 v 1.57813 h -7.25 v 4.14062 h 6.26563 v 1.57813 h -6.26563 v 6.0625 z m 11.09912,-11.46875 v -1.89062 h 1.64062 v 1.89062 z m 0,11.46875 v -9.67187 h 1.64062 v 9.67187 z m 4.09794,0 v -13.35938 h 1.64062 v 13.35938 z m 10.81669,-3.10937 1.6875,0.20312 q -0.40625,1.48438 -1.48437,2.3125 -1.07813,0.8125 -2.76563,0.8125 -2.125,0 -3.375,-1.29687 -1.23437,-1.3125 -1.23437,-3.67188 0,-2.45312 1.25,-3.79687 1.26562,-1.34375 3.26562,-1.34375 1.9375,0 3.15625,1.32812 1.23438,1.3125 1.23438,3.70313 0,0.15625 0,0.4375 h -7.21875 q 0.0937,1.59375 0.90625,2.45312 0.8125,0.84375 2.01562,0.84375 0.90625,0 1.54688,-0.46875 0.64062,-0.48437 1.01562,-1.51562 z m -5.39062,-2.65625 h 5.40625 q -0.10938,-1.21875 -0.625,-1.82813 -0.78125,-0.95312 -2.03125,-0.95312 -1.125,0 -1.90625,0.76562 -0.76563,0.75 -0.84375,2.01563 z m 9.59446,-2.04688 v -1.85937 h 1.85938 v 1.85937 z m 0,7.8125 v -1.875 h 1.85938 v 1.875 z m 4.12081,-4.84375 q 0,-2.6875 1.48437,-3.96875 1.25,-1.07812 3.04688,-1.07812 2,0 3.26562,1.3125 1.26563,1.29687 1.26563,3.60937 0,1.85938 -0.5625,2.9375 -0.5625,1.0625 -1.64063,1.65625 -1.0625,0.59375 -2.32812,0.59375 -2.03125,0 -3.28125,-1.29687 -1.25,-1.3125 -1.25,-3.76563 z m 1.6875,0 q 0,1.85938 0.79687,2.79688 0.8125,0.92187 2.04688,0.92187 1.21875,0 2.03125,-0.92187 0.8125,-0.9375 0.8125,-2.84375 0,-1.79688 -0.8125,-2.71875 -0.8125,-0.92188 -2.03125,-0.92188 -1.23438,0 -2.04688,0.92188 -0.79687,0.90625 -0.79687,2.76562 z m 9.29759,8.54688 v -13.375 h 1.48438 v 1.25 q 0.53125,-0.73438 1.1875,-1.09375 0.67187,-0.375 1.625,-0.375 1.23437,0 2.17187,0.64062 0.95313,0.625 1.4375,1.79688 0.48438,1.15625 0.48438,2.54687 0,1.48438 -0.53125,2.67188 -0.53125,1.1875 -1.54688,1.82812 -1.01562,0.625 -2.14062,0.625 -0.8125,0 -1.46875,-0.34375 -0.65625,-0.34375 -1.0625,-0.875 v 4.70313 z m 1.48438,-8.48438 q 0,1.85938 0.75,2.76563 0.76562,0.89062 1.82812,0.89062 1.09375,0 1.875,-0.92187 0.78125,-0.9375 0.78125,-2.875 0,-1.84375 -0.76562,-2.76563 -0.75,-0.92187 -1.8125,-0.92187 -1.04688,0 -1.85938,0.98437 -0.79687,0.96875 -0.79687,2.84375 z m 15.51634,1.67188 1.6875,0.20312 q -0.40625,1.48438 -1.48437,2.3125 -1.07813,0.8125 -2.76563,0.8125 -2.125,0 -3.375,-1.29687 -1.23437,-1.3125 -1.23437,-3.67188 0,-2.45312 1.25,-3.79687 1.26562,-1.34375 3.26562,-1.34375 1.9375,0 3.15625,1.32812 1.23438,1.3125 1.23438,3.70313 0,0.15625 0,0.4375 h -7.21875 q 0.0937,1.59375 0.90625,2.45312 0.8125,0.84375 2.01562,0.84375 0.90625,0 1.54688,-0.46875 0.64062,-0.48437 1.01562,-1.51562 z m -5.39062,-2.65625 h 5.40625 q -0.10938,-1.21875 -0.625,-1.82813 -0.78125,-0.95312 -2.03125,-0.95312 -1.125,0 -1.90625,0.76562 -0.76563,0.75 -0.84375,2.01563 z m 9.14134,5.76562 v -9.67187 h 1.46875 v 1.375 q 1.0625,-1.59375 3.07813,-1.59375 0.875,0 1.60937,0.3125 0.73438,0.3125 1.09375,0.82812 0.375,0.5 0.51563,1.20313 0.0937,0.45312 0.0937,1.59375 v 5.95312 h -1.64063 v -5.89062 q 0,-1 -0.20312,-1.48438 -0.1875,-0.5 -0.67188,-0.79687 -0.48437,-0.29688 -1.14062,-0.29688 -1.04688,0 -1.8125,0.67188 -0.75,0.65625 -0.75,2.51562 v 5.28125 z m 10.82884,-7.8125 v -1.85937 h 1.85938 v 1.85937 z m 0,7.8125 v -1.875 h 1.85938 v 1.875 z"
     fill-rule="nonzero"
     id="path69" />
  <path
     fill="#000000"
     d="m 393.83002,180.95777 2.79687,-13.375 h 1.51563 l -0.28125,1.34375 q 0.84375,-0.875 1.51561,-1.21875 0.67187,-0.34375 1.42187,-0.34375 1.375,0 2.28125,1.01562 0.92188,1 0.92188,2.875 0,1.51563 -0.5,2.76563 -0.5,1.23437 -1.23438,2 -0.71875,0.75 -1.46875,1.10937 -0.75,0.34375 -1.53125,0.34375 -1.74998,0 -2.70311,-1.76562 l -1.09375,5.25 z m 3.25,-7.65625 q 0,1.07812 0.15625,1.5 0.23437,0.59375 0.75,0.96875 0.51562,0.35937 1.20311,0.35937 1.42187,0 2.29687,-1.59375 0.875,-1.60937 0.875,-3.28125 0,-1.21875 -0.59375,-1.89062 -0.57812,-0.67188 -1.45312,-0.67188 -0.625,0 -1.17188,0.34375 -0.53123,0.32813 -0.99998,0.98438 -0.45313,0.65625 -0.76563,1.60937 -0.29687,0.95313 -0.29687,1.67188 z m 14.45384,2.75 q -0.85937,0.73437 -1.65625,1.07812 -0.78125,0.34375 -1.6875,0.34375 -1.34375,0 -2.17187,-0.78125 -0.8125,-0.79687 -0.8125,-2.03125 0,-0.79687 0.375,-1.42187 0.375,-0.625 0.98437,-1 0.60938,-0.39063 1.48438,-0.54688 0.5625,-0.10937 2.10937,-0.17187 1.5625,-0.0625 2.23438,-0.32813 0.1875,-0.67187 0.1875,-1.125 0,-0.57812 -0.42188,-0.90625 -0.5625,-0.45312 -1.67187,-0.45312 -1.03125,0 -1.70313,0.46875 -0.65625,0.45312 -0.95312,1.29687 l -1.67188,-0.14062 q 0.51563,-1.4375 1.60938,-2.20313 1.10937,-0.76562 2.79687,-0.76562 1.79688,0 2.84375,0.85937 0.79688,0.625 0.79688,1.65625 0,0.76563 -0.21875,1.79688 l -0.53125,2.40625 q -0.26563,1.14062 -0.26563,1.85937 0,0.45313 0.20313,1.3125 h -1.67188 q -0.125,-0.46875 -0.1875,-1.20312 z m 0.60938,-3.70313 q -0.34375,0.14063 -0.75,0.21875 -0.39063,0.0625 -1.3125,0.15625 -1.4375,0.125 -2.03125,0.32813 -0.59375,0.1875 -0.90625,0.625 -0.29688,0.42187 -0.29688,0.9375 0,0.6875 0.48438,1.14062 0.48437,0.4375 1.35937,0.4375 0.82813,0 1.57813,-0.42187 0.75,-0.4375 1.1875,-1.20313 0.4375,-0.78125 0.6875,-2.21875 z m 7.09445,3.5625 -0.26563,1.35938 q -0.59375,0.14062 -1.15625,0.14062 -0.98437,0 -1.5625,-0.46875 -0.4375,-0.375 -0.4375,-1 0,-0.3125 0.23438,-1.46875 l 1.17187,-5.625 h -1.29687 l 0.26562,-1.26562 h 1.29688 l 0.5,-2.375 1.89062,-1.14063 -0.73437,3.51563 h 1.625 l -0.28125,1.26562 h -1.60938 l -1.125,5.35938 q -0.20312,1.01562 -0.20312,1.21875 0,0.28125 0.15625,0.4375 0.17187,0.15625 0.5625,0.15625 0.54687,0 0.96875,-0.10938 z m 1.33957,1.34375 2.78125,-13.35937 h 1.65625 l -1.07813,5.14062 q 0.92188,-0.90625 1.71875,-1.28125 0.79688,-0.39062 1.625,-0.39062 1.20313,0 1.85938,0.64062 0.67187,0.625 0.67187,1.65625 0,0.51563 -0.28125,1.875 l -1.20312,5.71875 h -1.64063 l 1.23438,-5.85937 q 0.25,-1.26563 0.25,-1.59375 0,-0.48438 -0.32813,-0.78125 -0.32812,-0.29688 -0.9375,-0.29688 -0.89062,0 -1.70312,0.46875 -0.8125,0.46875 -1.28125,1.28125 -0.45313,0.8125 -0.82813,2.625 l -0.875,4.15625 z"
     fill-rule="nonzero"
     id="path71" />
  <path
     fill="#000000"
     d="m 431.98422,177.25464 v -1.875 h 1.875 v 1.875 q 0,1.03125 -0.375,1.65625 -0.35938,0.64063 -1.15625,0.98438 l -0.45313,-0.70313 q 0.51563,-0.21875 0.76563,-0.67187 0.25,-0.4375 0.28125,-1.26563 z"
     fill-rule="nonzero"
     id="path73" />
  <path
     fill="#000000"
     d="m 436.12066,177.25464 2.01562,-9.67187 h 1.65625 l -0.34375,1.59375 q 0.92188,-1.03125 1.64063,-1.42188 0.73437,-0.39062 1.57812,-0.39062 0.90625,0 1.51563,0.48437 0.60937,0.46875 0.79687,1.32813 0.73438,-0.90625 1.54688,-1.35938 0.8125,-0.45312 1.71875,-0.45312 1.21875,0 1.8125,0.57812 0.60937,0.5625 0.60937,1.60938 0,0.4375 -0.20312,1.46875 l -1.3125,6.23437 h -1.64063 l 1.32813,-6.39062 q 0.17187,-0.78125 0.17187,-1.125 0,-0.46875 -0.29687,-0.73438 -0.29688,-0.28125 -0.84375,-0.28125 -0.75,0 -1.51563,0.45313 -0.76562,0.4375 -1.1875,1.17187 -0.42187,0.71875 -0.73437,2.21875 l -0.98438,4.6875 h -1.65625 l 1.375,-6.53125 q 0.14063,-0.67187 0.14063,-0.95312 0,-0.46875 -0.29688,-0.75 -0.29687,-0.29688 -0.76562,-0.29688 -0.70313,0 -1.48438,0.45313 -0.76562,0.4375 -1.25,1.23437 -0.46875,0.79688 -0.78125,2.26563 l -0.95312,4.57812 z m 15.83768,-3.67187 q 0,-2.82813 1.67188,-4.6875 1.375,-1.53125 3.60938,-1.53125 1.75,0 2.8125,1.09375 1.07812,1.09375 1.07812,2.95312 0,1.65625 -0.67187,3.09375 -0.67188,1.4375 -1.92188,2.20313 -1.25,0.76562 -2.625,0.76562 -1.125,0 -2.04687,-0.48437 -0.92188,-0.48438 -1.42188,-1.35938 -0.48438,-0.89062 -0.48438,-2.04687 z m 1.65626,-0.15625 q 0,1.35937 0.65625,2.0625 0.65625,0.70312 1.65625,0.70312 0.53125,0 1.04687,-0.20312 0.53125,-0.21875 0.96875,-0.65625 0.45313,-0.4375 0.76563,-1 0.3125,-0.5625 0.5,-1.20313 0.28125,-0.90625 0.28125,-1.73437 0,-1.3125 -0.65625,-2.03125 -0.65625,-0.73438 -1.65625,-0.73438 -0.78125,0 -1.42188,0.375 -0.625,0.375 -1.14062,1.09375 -0.51563,0.70313 -0.76563,1.64063 -0.23437,0.9375 -0.23437,1.6875 z m 14.95382,2.42187 q -1.40625,1.625 -2.95312,1.625 -1.375,0 -2.29688,-1.01562 -0.90625,-1.01563 -0.90625,-2.95313 0,-1.76562 0.71875,-3.21875 0.73438,-1.46875 1.8125,-2.1875 1.09375,-0.73437 2.1875,-0.73437 1.79688,0 2.71875,1.73437 l 1.09375,-5.20312 h 1.64062 l -2.78124,13.35937 h -1.53125 z m -4.51562,-2.64062 q 0,1 0.20312,1.59375 0.20313,0.57812 0.67188,0.96875 0.48437,0.375 1.17187,0.375 1.10938,0 2.03125,-1.15625 1.21875,-1.54688 1.21875,-3.82813 0,-1.14062 -0.60937,-1.78125 -0.59375,-0.65625 -1.51563,-0.65625 -0.59375,0 -1.07812,0.26563 -0.48438,0.26562 -0.96875,0.90625 -0.46875,0.625 -0.79688,1.59375 -0.32812,0.96875 -0.32812,1.71875 z m 15.46948,0.76562 1.60937,0.15625 q -0.34375,1.1875 -1.59375,2.26563 -1.23437,1.07812 -2.96875,1.07812 -1.0625,0 -1.96875,-0.5 -0.89062,-0.5 -1.35937,-1.4375 -0.46875,-0.95312 -0.46875,-2.15625 0,-1.59375 0.73437,-3.07812 0.73438,-1.48438 1.89063,-2.20313 1.17187,-0.73437 2.53125,-0.73437 1.73437,0 2.76562,1.07812 1.03125,1.0625 1.03125,2.92188 0,0.71875 -0.125,1.46875 h -7.125 q -0.0469,0.28125 -0.0469,0.5 0,1.35937 0.625,2.07812 0.625,0.71875 1.53125,0.71875 0.84375,0 1.65625,-0.54687 0.82812,-0.5625 1.28125,-1.60938 z m -4.78125,-2.40625 h 5.42187 q 0.0156,-0.25 0.0156,-0.35937 0,-1.23438 -0.625,-1.89063 -0.625,-0.67187 -1.59375,-0.67187 -1.0625,0 -1.9375,0.73437 -0.85938,0.71875 -1.28125,2.1875 z"
     fill-rule="nonzero"
     id="path75" />
  <path
     fill="#000000"
     d="m 483.83548,177.25464 v -1.875 h 1.875 v 1.875 q 0,1.03125 -0.375,1.65625 -0.35937,0.64063 -1.15625,0.98438 l -0.45312,-0.70313 q 0.51562,-0.21875 0.76562,-0.67187 0.25,-0.4375 0.28125,-1.26563 z"
     fill-rule="nonzero"
     id="path77" />
  <path
     fill="#000000"
     d="m 487.17505,180.95777 2.79687,-13.375 h 1.51563 l -0.28125,1.34375 q 0.84375,-0.875 1.51562,-1.21875 0.67188,-0.34375 1.42188,-0.34375 1.375,0 2.28125,1.01562 0.92187,1 0.92187,2.875 0,1.51563 -0.5,2.76563 -0.5,1.23437 -1.23437,2 -0.71875,0.75 -1.46875,1.10937 -0.75,0.34375 -1.53125,0.34375 -1.75,0 -2.70313,-1.76562 l -1.09375,5.25 z m 3.25,-7.65625 q 0,1.07812 0.15625,1.5 0.23437,0.59375 0.75,0.96875 0.51562,0.35937 1.20312,0.35937 1.42188,0 2.29688,-1.59375 0.875,-1.60937 0.875,-3.28125 0,-1.21875 -0.59375,-1.89062 -0.57813,-0.67188 -1.45313,-0.67188 -0.625,0 -1.17187,0.34375 -0.53125,0.32813 -1,0.98438 -0.45313,0.65625 -0.76563,1.60937 -0.29687,0.95313 -0.29687,1.67188 z m 15.03195,0.67187 1.60938,0.15625 q -0.34375,1.1875 -1.59375,2.26563 -1.23438,1.07812 -2.96875,1.07812 -1.0625,0 -1.96875,-0.5 -0.89063,-0.5 -1.35938,-1.4375 -0.46875,-0.95312 -0.46875,-2.15625 0,-1.59375 0.73438,-3.07812 0.73437,-1.48438 1.89062,-2.20313 1.17188,-0.73437 2.53125,-0.73437 1.73438,0 2.76563,1.07812 1.03125,1.0625 1.03125,2.92188 0,0.71875 -0.125,1.46875 h -7.125 q -0.0469,0.28125 -0.0469,0.5 0,1.35937 0.625,2.07812 0.625,0.71875 1.53125,0.71875 0.84375,0 1.65625,-0.54687 0.82813,-0.5625 1.28125,-1.60938 z m -4.78125,-2.40625 h 5.42188 q 0.0156,-0.25 0.0156,-0.35937 0,-1.23438 -0.625,-1.89063 -0.625,-0.67187 -1.59375,-0.67187 -1.0625,0 -1.9375,0.73437 -0.85937,0.71875 -1.28125,2.1875 z m 8.06323,5.6875 2.01563,-9.67187 h 1.45312 l -0.40625,1.96875 q 0.75,-1.10938 1.45313,-1.64063 0.71875,-0.54687 1.46875,-0.54687 0.5,0 1.21875,0.35937 l -0.67188,1.53125 q -0.4375,-0.3125 -0.9375,-0.3125 -0.875,0 -1.78125,0.96875 -0.90625,0.95313 -1.4375,3.46875 l -0.8125,3.875 z m 6.19706,0 2.01562,-9.67187 h 1.65625 l -0.34375,1.59375 q 0.92188,-1.03125 1.64063,-1.42188 0.73437,-0.39062 1.57812,-0.39062 0.90625,0 1.51563,0.48437 0.60937,0.46875 0.79687,1.32813 0.73438,-0.90625 1.54688,-1.35938 0.8125,-0.45312 1.71875,-0.45312 1.21875,0 1.8125,0.57812 0.60937,0.5625 0.60937,1.60938 0,0.4375 -0.20312,1.46875 l -1.3125,6.23437 h -1.64063 l 1.32813,-6.39062 q 0.17187,-0.78125 0.17187,-1.125 0,-0.46875 -0.29687,-0.73438 -0.29688,-0.28125 -0.84375,-0.28125 -0.75,0 -1.51563,0.45313 -0.76562,0.4375 -1.1875,1.17187 -0.42187,0.71875 -0.73437,2.21875 l -0.98438,4.6875 h -1.65625 l 1.375,-6.53125 q 0.14063,-0.67187 0.14063,-0.95312 0,-0.46875 -0.29688,-0.75 -0.29687,-0.29688 -0.76562,-0.29688 -0.70313,0 -1.48438,0.45313 -0.76562,0.4375 -1.25,1.23437 -0.46875,0.79688 -0.78125,2.26563 l -0.95312,4.57812 z m 15.71267,-3.3125 1.64063,-0.0937 q 0,0.70313 0.21875,1.21875 0.21875,0.5 0.79687,0.8125 0.59375,0.3125 1.375,0.3125 1.09375,0 1.64063,-0.4375 0.54687,-0.4375 0.54687,-1.01562 0,-0.4375 -0.32812,-0.8125 -0.32813,-0.39063 -1.64063,-0.95313 -1.3125,-0.5625 -1.67187,-0.78125 -0.60938,-0.375 -0.92188,-0.875 -0.3125,-0.51562 -0.3125,-1.17187 0,-1.14063 0.90625,-1.95313 0.92188,-0.82812 2.5625,-0.82812 1.82813,0 2.76563,0.84375 0.95312,0.84375 1,2.21875 l -1.60938,0.10937 q -0.0469,-0.875 -0.625,-1.39062 -0.57812,-0.51563 -1.65625,-0.51563 -0.84375,0 -1.32812,0.40625 -0.46875,0.39063 -0.46875,0.84375 0,0.45313 0.40625,0.79688 0.28125,0.23437 1.42187,0.73437 1.89063,0.8125 2.375,1.28125 0.78125,0.76563 0.78125,1.84375 0,0.71875 -0.4375,1.42188 -0.4375,0.6875 -1.34375,1.10937 -0.90625,0.40625 -2.14062,0.40625 -1.67188,0 -2.84375,-0.82812 -1.1875,-0.82813 -1.10938,-2.70313 z"
     fill-rule="nonzero"
     id="path79" />
  <path
     fill="#6fa8dc"
     d="M 579.21721,199.75721 H 287.51643 l -16.51968,16.51968 16.51968,16.51969 h 291.70078 z"
     fill-rule="evenodd"
     id="path81" />
  <path
     stroke="#000000"
     stroke-width="1"
     stroke-linejoin="round"
     stroke-linecap="butt"
     d="M 579.21721,199.75721 H 287.51643 l -16.51968,16.51968 16.51968,16.51969 h 291.70078 z"
     fill-rule="evenodd"
     id="path83" />
  <path
     fill="#000000"
     d="m 417.29065,223.19689 v -13.35937 h 9.01563 v 1.57812 h -7.25 v 4.14063 h 6.26562 v 1.57812 h -6.26562 v 6.0625 z"
     fill-rule="nonzero"
     id="path85" />
  <path
     fill="#000000"
     d="m 427.99913,223.19689 1.76563,-8.40625 h -1.48438 l 0.26563,-1.26562 h 1.48437 l 0.28125,-1.375 q 0.21875,-1.03125 0.4375,-1.48438 0.23438,-0.45312 0.75,-0.75 0.53125,-0.29687 1.4375,-0.29687 0.625,0 1.82813,0.26562 l -0.29688,1.4375 q -0.84375,-0.21875 -1.40625,-0.21875 -0.48437,0 -0.73437,0.25 -0.25,0.23438 -0.4375,1.125 l -0.21875,1.04688 h 1.84375 l -0.26563,1.26562 h -1.84375 l -1.75,8.40625 z m 11.48018,-1.40625 q -1.40625,1.625 -2.95312,1.625 -1.375,0 -2.29688,-1.01562 -0.90625,-1.01563 -0.90625,-2.95313 0,-1.76562 0.71875,-3.21875 0.73438,-1.46875 1.8125,-2.1875 1.09375,-0.73437 2.1875,-0.73437 1.79688,0 2.71875,1.73437 l 1.09375,-5.20312 h 1.64063 l -2.78125,13.35937 h -1.53125 z m -4.51562,-2.64062 q 0,1 0.20312,1.59375 0.20313,0.57812 0.67188,0.96875 0.48437,0.375 1.17187,0.375 1.10938,0 2.03125,-1.15625 1.21875,-1.54688 1.21875,-3.82813 0,-1.14062 -0.60937,-1.78125 -0.59375,-0.65625 -1.51563,-0.65625 -0.59375,0 -1.07812,0.26563 -0.48438,0.26562 -0.96875,0.90625 -0.46875,0.625 -0.79688,1.59375 -0.32812,0.96875 -0.32812,1.71875 z"
     fill-rule="nonzero"
     id="path87" />
  <path
     fill="#d9d9d9"
     d="M 292.91933,104.50526 H 556.1634 v 32.04848 H 430.70672 v 4.94362 h 6.16535 l -12.33071,12.33074 -12.33071,-12.33073 h 6.16536 v -4.94362 h -125.4567 z"
     fill-rule="evenodd"
     id="path89" />
  <path
     stroke="#000000"
     stroke-width="1"
     stroke-linejoin="round"
     stroke-linecap="butt"
     d="M 292.91933,104.50526 H 556.1634 v 32.04848 H 430.70672 v 4.94362 h 6.16535 l -12.33071,12.33074 -12.33071,-12.33073 h 6.16536 v -4.94362 h -125.4567 z"
     fill-rule="evenodd"
     id="path91" />
  <path
     fill="#000000"
     d="m 349.76333,128.24636 1.59375,0.23438 q 0.10937,0.75 0.5625,1.07812 0.60937,0.45313 1.67187,0.45313 1.14063,0 1.75,-0.45313 0.625,-0.45312 0.84375,-1.26562 0.125,-0.5 0.10938,-2.10936 -1.0625,1.26561 -2.67188,1.26561 -2,0 -3.09375,-1.4375 -1.09375,-1.4375 -1.09375,-3.45311 0,-1.39064 0.5,-2.5625 0.51563,-1.17189 1.45313,-1.79689 0.95312,-0.64062 2.25,-0.64062 1.70312,0 2.8125,1.37501 v -1.15627 h 1.51562 v 8.35938 q 0,2.26562 -0.46875,3.20312 -0.45312,0.9375 -1.45312,1.48438 -0.98438,0.54687 -2.45313,0.54687 -1.71875,0 -2.79687,-0.78125 -1.0625,-0.76562 -1.03125,-2.34375 z m 1.35937,-5.81247 q 0,1.90625 0.75,2.78125 0.76563,0.875 1.90625,0.875 1.125,0 1.89063,-0.85939 0.76562,-0.875 0.76562,-2.73436 0,-1.78125 -0.79687,-2.67189 -0.78125,-0.90625 -1.89063,-0.90625 -1.09375,0 -1.85937,0.89064 -0.76563,0.875 -0.76563,2.625 z m 15.59448,5.01561 v -1.21875 q -0.90625,1.4375 -2.70313,1.4375 -1.15625,0 -2.125,-0.64061 -0.96875,-0.64064 -1.5,-1.78125 -0.53125,-1.14064 -0.53125,-2.625 0,-1.45314 0.48438,-2.625 0.48437,-1.1875 1.4375,-1.8125 0.96875,-0.62503 2.17187,-0.62503 0.875,0 1.54688,0.375 0.6875,0.35938 1.10937,0.95313 v -4.79687 h 1.64063 v 13.35938 z m -5.17188,-4.82811 q 0,1.85936 0.78125,2.78125 0.78125,0.92186 1.84375,0.92186 1.07813,0 1.82813,-0.875 0.75,-0.89061 0.75,-2.6875 0,-1.98436 -0.76563,-2.90625 -0.76562,-0.9375 -1.89062,-0.9375 -1.07813,0 -1.8125,0.89064 -0.73438,0.89061 -0.73438,2.8125 z m 10.78196,4.82811 h -1.51562 v -13.35937 h 1.64062 v 4.76562 q 1.04688,-1.29687 2.65625,-1.29687 0.89063,0 1.6875,0.35937 0.79688,0.35939 1.3125,1.01564 0.51563,0.64061 0.79688,1.5625 0.29687,0.92186 0.29687,1.96875 0,2.48436 -1.23437,3.84375 -1.21875,1.35936 -2.95313,1.35936 -1.70312,0 -2.6875,-1.4375 z m -0.0156,-4.90625 q 0,1.73439 0.48437,2.51564 0.76563,1.26561 2.09375,1.26561 1.07813,0 1.85938,-0.9375 0.78125,-0.9375 0.78125,-2.78125 0,-1.89061 -0.75,-2.79686 -0.75,-0.90625 -1.82813,-0.90625 -1.0625,0 -1.85937,0.9375 -0.78125,0.9375 -0.78125,2.70311 z m 8.23509,2.01564 1.625,-0.25 q 0.125,0.96875 0.75,1.5 0.625,0.51561 1.75,0.51561 1.125,0 1.67188,-0.45311 0.54687,-0.46875 0.54687,-1.09375 0,-0.54689 -0.48437,-0.875 -0.32813,-0.21875 -1.67188,-0.54689 -1.8125,-0.46875 -2.51562,-0.79686 -0.6875,-0.32814 -1.04688,-0.90625 -0.35937,-0.59375 -0.35937,-1.3125 0,-0.64064 0.29687,-1.1875 0.29688,-0.5625 0.8125,-0.92189 0.375,-0.28125 1.03125,-0.46875 0.67188,-0.20312 1.42188,-0.20312 1.14062,0 2,0.32812 0.85937,0.32814 1.26562,0.89064 0.42188,0.5625 0.57813,1.5 l -1.60938,0.21875 q -0.10937,-0.75 -0.64062,-1.17189 -0.51563,-0.42186 -1.46875,-0.42186 -1.14063,0 -1.625,0.375 -0.46875,0.375 -0.46875,0.875 0,0.3125 0.1875,0.57811 0.20312,0.26564 0.64062,0.4375 0.23438,0.0937 1.4375,0.42189 1.75,0.45311 2.4375,0.75 0.6875,0.29686 1.07813,0.85936 0.39062,0.5625 0.39062,1.40625 0,0.82814 -0.48437,1.54689 -0.46875,0.71875 -1.375,1.125 -0.90625,0.39061 -2.04688,0.39061 -1.875,0 -2.875,-0.78125 -0.98437,-0.78125 -1.25,-2.32811 z m 16.60938,-0.21875 1.6875,0.20311 q -0.40625,1.48439 -1.48438,2.3125 -1.07812,0.8125 -2.76562,0.8125 -2.125,0 -3.375,-1.29686 -1.23438,-1.3125 -1.23438,-3.67189 0,-2.45311 1.25,-3.79686 1.26563,-1.34378 3.26563,-1.34378 1.9375,0 3.15625,1.32813 1.23437,1.3125 1.23437,3.70312 0,0.15625 0,0.4375 h -7.21875 q 0.0937,1.59375 0.90625,2.45313 0.8125,0.84375 2.01563,0.84375 0.90625,0 1.54687,-0.46875 0.64063,-0.48438 1.01563,-1.5156 z m -5.39063,-2.65625 h 5.40625 q -0.10937,-1.21875 -0.625,-1.82814 -0.78125,-0.95311 -2.03125,-0.95311 -1.125,0 -1.90625,0.76561 -0.76562,0.75 -0.84375,2.01564 z m 9.12572,5.76561 v -9.67187 h 1.46875 v 1.46876 q 0.5625,-1.03125 1.03125,-1.35939 0.48437,-0.32814 1.0625,-0.32814 0.82812,0 1.6875,0.53125 l -0.5625,1.51563 q -0.60938,-0.35938 -1.20313,-0.35938 -0.54687,0 -0.96875,0.32813 -0.42187,0.32812 -0.60937,0.89062 -0.28125,0.875 -0.28125,1.92188 v 5.0625 z m 8.9158,0 -3.6875,-9.67187 h 1.73437 l 2.07813,5.79687 q 0.32812,0.9375 0.625,1.9375 0.20312,-0.76561 0.60937,-1.82811 l 2.14063,-5.90628 h 1.6875 l -3.65625,9.67188 z m 13.26561,-3.10936 1.6875,0.20311 q -0.40625,1.48439 -1.48437,2.3125 -1.07813,0.8125 -2.76561,0.8125 -2.125,0 -3.375,-1.29686 -1.23438,-1.3125 -1.23438,-3.67189 0,-2.45311 1.25,-3.79686 1.26563,-1.34378 3.26563,-1.34378 1.93748,0 3.15623,1.32813 1.23438,1.3125 1.23438,3.70312 0,0.15625 0,0.4375 h -7.21874 q 0.0937,1.59375 0.90625,2.45313 0.8125,0.84375 2.01563,0.84375 0.90623,0 1.54686,-0.46875 0.64062,-0.48438 1.01562,-1.5156 z m -5.39061,-2.65625 h 5.40624 q -0.10938,-1.21875 -0.625,-1.82814 -0.78125,-0.95311 -2.03124,-0.95311 -1.125,0 -1.90625,0.76561 -0.76562,0.75 -0.84375,2.01564 z m 9.12572,5.76561 v -9.67187 h 1.46875 v 1.46876 q 0.5625,-1.03125 1.03125,-1.35939 0.48437,-0.32814 1.0625,-0.32814 0.82812,0 1.6875,0.53125 l -0.5625,1.51563 q -0.60938,-0.35938 -1.20313,-0.35938 -0.54687,0 -0.96875,0.32813 -0.42187,0.32812 -0.60937,0.89062 -0.28125,0.875 -0.28125,1.92188 v 5.0625 z m 11.80221,0 v -8.40625 h -1.45312 v -1.26562 h 1.45312 v -1.03125 q 0,-0.96875 0.17188,-1.45313 0.23437,-0.64062 0.82812,-1.03125 0.59375,-0.39062 1.67188,-0.39062 0.6875,0 1.53125,0.15625 l -0.25,1.4375 q -0.5,-0.0937 -0.95313,-0.0937 -0.75,0 -1.0625,0.32814 -0.3125,0.3125 -0.3125,1.1875 v 0.89061 h 1.89063 v 1.26564 h -1.89063 v 8.40625 z m 11.1052,-1.1875 q -0.92188,0.76564 -1.76563,1.09375 -0.82812,0.3125 -1.79687,0.3125 -1.59375,0 -2.45313,-0.78125 -0.85937,-0.78125 -0.85937,-1.98436 0,-0.71875 0.32812,-1.29689 0.32813,-0.59375 0.84375,-0.9375 0.53125,-0.35936 1.1875,-0.54686 0.46875,-0.125 1.45313,-0.25 1.98437,-0.23439 2.92187,-0.5625 0.0156,-0.34375 0.0156,-0.42189 0,-1 -0.46875,-1.42186 -0.625,-0.54689 -1.875,-0.54689 -1.15625,0 -1.70313,0.40625 -0.54687,0.40625 -0.8125,1.42189 l -1.60937,-0.21875 q 0.21875,-1.01564 0.71875,-1.64064 0.5,-0.64061 1.45312,-0.98437 0.95313,-0.34375 2.1875,-0.34375 1.25,0 2.01563,0.29687 0.78125,0.28125 1.14062,0.73439 0.375,0.4375 0.51563,1.10936 0.0781,0.42189 0.0781,1.51564 v 2.1875 q 0,2.28125 0.10938,2.89061 0.10937,0.59375 0.40625,1.15625 h -1.70313 q -0.26562,-0.51561 -0.32812,-1.1875 z m -0.14063,-3.67186 q -0.89062,0.375 -2.67187,0.625 -1.01563,0.14061 -1.4375,0.32811 -0.42188,0.1875 -0.65625,0.53125 -0.21875,0.34375 -0.21875,0.78125 0,0.65625 0.5,1.09375 0.5,0.4375 1.45312,0.4375 0.9375,0 1.67188,-0.40625 0.75,-0.42186 1.09375,-1.14061 0.26562,-0.5625 0.26562,-1.64064 z m 4.15697,4.85936 v -13.35937 h 1.64062 v 13.35937 z m 4.14484,0 v -13.35937 h 1.64062 v 13.35937 z m 5.69168,0 h -1.51563 v -13.35937 h 1.64063 v 4.76562 q 1.04687,-1.29687 2.65625,-1.29687 0.89062,0 1.6875,0.35937 0.79687,0.35939 1.3125,1.01564 0.51562,0.64061 0.79687,1.5625 0.29688,0.92186 0.29688,1.96875 0,2.48436 -1.23438,3.84375 -1.21875,1.35936 -2.95312,1.35936 -1.70313,0 -2.6875,-1.4375 z m -0.0156,-4.90625 q 0,1.73439 0.48438,2.51564 0.76562,1.26561 2.09375,1.26561 1.07812,0 1.85937,-0.9375 0.78125,-0.9375 0.78125,-2.78125 0,-1.89061 -0.75,-2.79686 -0.75,-0.90625 -1.82812,-0.90625 -1.0625,0 -1.85938,0.9375 -0.78125,0.9375 -0.78125,2.70311 z m 15.20386,3.71875 q -0.92188,0.76564 -1.76563,1.09375 -0.82812,0.3125 -1.79687,0.3125 -1.59375,0 -2.45313,-0.78125 -0.85937,-0.78125 -0.85937,-1.98436 0,-0.71875 0.32812,-1.29689 0.32813,-0.59375 0.84375,-0.9375 0.53125,-0.35936 1.1875,-0.54686 0.46875,-0.125 1.45313,-0.25 1.98437,-0.23439 2.92187,-0.5625 0.0156,-0.34375 0.0156,-0.42189 0,-1 -0.46875,-1.42186 -0.625,-0.54689 -1.875,-0.54689 -1.15625,0 -1.70313,0.40625 -0.54687,0.40625 -0.8125,1.42189 l -1.60937,-0.21875 q 0.21875,-1.01564 0.71875,-1.64064 0.5,-0.64061 1.45312,-0.98437 0.95313,-0.34375 2.1875,-0.34375 1.25,0 2.01563,0.29687 0.78125,0.28125 1.14062,0.73439 0.375,0.4375 0.51563,1.10936 0.0781,0.42189 0.0781,1.51564 v 2.1875 q 0,2.28125 0.10938,2.89061 0.10937,0.59375 0.40625,1.15625 h -1.70313 q -0.26562,-0.51561 -0.32812,-1.1875 z m -0.14063,-3.67186 q -0.89062,0.375 -2.67187,0.625 -1.01563,0.14061 -1.4375,0.32811 -0.42188,0.1875 -0.65625,0.53125 -0.21875,0.34375 -0.21875,0.78125 0,0.65625 0.5,1.09375 0.5,0.4375 1.45312,0.4375 0.9375,0 1.67188,-0.40625 0.75,-0.42186 1.09375,-1.14061 0.26562,-0.5625 0.26562,-1.64064 z m 10.51633,1.3125 1.60938,0.21875 q -0.26563,1.65625 -1.35938,2.60936 -1.07812,0.9375 -2.67187,0.9375 -1.98438,0 -3.1875,-1.29686 -1.20313,-1.29689 -1.20313,-3.71875 0,-1.57814 0.51563,-2.75 0.51562,-1.17189 1.57812,-1.75003 1.0625,-0.59375 2.3125,-0.59375 1.57813,0 2.57813,0.79688 1,0.79687 1.28125,2.26562 l -1.59375,0.23438 q -0.23438,-0.96875 -0.8125,-1.45313 -0.57813,-0.5 -1.39063,-0.5 -1.23437,0 -2.01562,0.89063 -0.78125,0.89062 -0.78125,2.8125 0,1.95312 0.75,2.84375 0.75,0.875 1.95312,0.875 0.96875,0 1.60938,-0.59375 0.65625,-0.59375 0.82812,-1.8281 z m 3.01563,3.54686 v -13.35937 h 1.64062 v 7.62501 l 3.89063,-3.93753 h 2.10937 l -3.6875,3.59378 4.0625,6.07811 h -2.01562 l -3.20313,-4.95311 -1.15625,1.125 v 3.82811 z"
     fill-rule="nonzero"
     id="path93" />
</svg>
