<?xml version="1.0" encoding="UTF-8" standalone="no"?>
<svg
   xmlns:dc="http://purl.org/dc/elements/1.1/"
   xmlns:cc="http://creativecommons.org/ns#"
   xmlns:rdf="http://www.w3.org/1999/02/22-rdf-syntax-ns#"
   xmlns:svg="http://www.w3.org/2000/svg"
   xmlns="http://www.w3.org/2000/svg"
   xmlns:sodipodi="http://sodipodi.sourceforge.net/DTD/sodipodi-0.dtd"
   xmlns:inkscape="http://www.inkscape.org/namespaces/inkscape"
   version="1.1"
   viewBox="0 0 758.6441 386.13385"
   fill="none"
   stroke="none"
   stroke-linecap="square"
   stroke-miterlimit="10"
   id="svg107"
   sodipodi:docname="gdb-protocol-read-write.svg"
   width="758.6441"
   height="386.13385"
   inkscape:version="1.0.1 (3bc2e813f5, 2020-09-07)">
  <metadata
     id="metadata113">
    <rdf:RDF>
      <cc:Work
         rdf:about="">
        <dc:format>image/svg+xml</dc:format>
        <dc:type
           rdf:resource="http://purl.org/dc/dcmitype/StillImage" />
        <dc:title></dc:title>
      </cc:Work>
    </rdf:RDF>
  </metadata>
  <defs
     id="defs111" />
  <sodipodi:namedview
     pagecolor="#ffffff"
     bordercolor="#666666"
     borderopacity="1"
     objecttolerance="10"
     gridtolerance="10"
     guidetolerance="10"
     inkscape:pageopacity="0"
     inkscape:pageshadow="2"
     inkscape:window-width="1364"
     inkscape:window-height="747"
     id="namedview109"
     showgrid="false"
     inkscape:zoom="1.0685185"
     inkscape:cx="509.45933"
     inkscape:cy="185.30715"
     inkscape:window-x="0"
     inkscape:window-y="19"
     inkscape:window-maximized="0"
     inkscape:current-layer="svg107" />
  <clipPath
     id="p.0">
    <path
       d="M 0,0 H 720 V 540 H 0 Z"
       clip-rule="nonzero"
       id="path2" />
  </clipPath>
  <path
     fill="#000000"
     fill-opacity="0"
     d="m 149.45933,-9.822835 h 720 V 530.17716 h -720 z"
     fill-rule="evenodd"
     id="path5" />
  <path
     fill="#d9ead3"
     d="M 588.27298,0.5 V 384.59447 H 532.52493 V 0.5 Z"
     fill-rule="evenodd"
     id="path7" />
  <path
     stroke="#000000"
     stroke-width="1"
     stroke-linejoin="round"
     stroke-linecap="butt"
     d="M 588.27298,0.5 V 384.59447 H 532.52493 V 0.5 Z"
     fill-rule="evenodd"
     id="path9" />
  <path
     fill="#000000"
     d="m 556.36957,167.20884 0.25,1.625 q -0.96875,0.125 -1.5,0.75 -0.51562,0.625 -0.51562,1.75 0,1.125 0.45312,1.67187 0.46875,0.54688 1.09375,0.54688 0.54688,0 0.875,-0.48438 0.21875,-0.32812 0.54688,-1.67187 0.46875,-1.8125 0.79687,-2.51563 0.32813,-0.6875 0.90625,-1.04687 0.59375,-0.35938 1.3125,-0.35938 0.64063,0 1.1875,0.29688 0.5625,0.29687 0.92188,0.8125 0.28125,0.375 0.46875,1.03125 0.20312,0.67187 0.20312,1.42187 0,1.14063 -0.32812,2 -0.32813,0.85938 -0.89063,1.26563 -0.5625,0.42187 -1.5,0.57812 l -0.21875,-1.60937 q 0.75,-0.10938 1.17188,-0.64063 0.42187,-0.51562 0.42187,-1.46875 0,-1.14062 -0.375,-1.625 -0.375,-0.46875 -0.875,-0.46875 -0.3125,0 -0.57812,0.1875 -0.26563,0.20313 -0.4375,0.64063 -0.0937,0.23437 -0.42188,1.4375 -0.45312,1.75 -0.75,2.4375 -0.29687,0.6875 -0.85937,1.07812 -0.5625,0.39063 -1.40625,0.39063 -0.82813,0 -1.54688,-0.48438 -0.71875,-0.46875 -1.125,-1.375 -0.39062,-0.90625 -0.39062,-2.04687 0,-1.875 0.78125,-2.875 0.78125,-0.98438 2.32812,-1.25 z m 0.21875,16.60937 -0.20312,1.6875 q -1.48438,-0.40625 -2.3125,-1.48437 -0.8125,-1.07813 -0.8125,-2.76563 0,-2.125 1.29687,-3.375 1.3125,-1.23437 3.67188,-1.23437 2.45312,0 3.79687,1.25 1.34375,1.26562 1.34375,3.26562 0,1.9375 -1.32812,3.15625 -1.3125,1.23438 -3.70313,1.23438 -0.15625,0 -0.4375,0 v -7.21875 q -1.59375,0.0937 -2.45312,0.90625 -0.84375,0.8125 -0.84375,2.01562 0,0.90625 0.46875,1.54688 0.48437,0.64062 1.51562,1.01562 z m 2.65625,-5.39062 v 5.40625 q 1.21875,-0.10938 1.82813,-0.625 0.95312,-0.78125 0.95312,-2.03125 0,-1.125 -0.76562,-1.90625 -0.75,-0.76563 -2.01563,-0.84375 z m -5.76562,9.12572 h 9.67187 v 1.46875 h -1.46875 q 1.03125,0.5625 1.35938,1.03125 0.32812,0.48437 0.32812,1.0625 0,0.82812 -0.53125,1.6875 l -1.51562,-0.5625 q 0.35937,-0.60938 0.35937,-1.20313 0,-0.54687 -0.32812,-0.96875 -0.32813,-0.42187 -0.89063,-0.60937 -0.875,-0.28125 -1.92187,-0.28125 h -5.0625 z m 0,8.9158 9.67187,-3.6875 v 1.73437 l -5.79687,2.07813 q -0.9375,0.32812 -1.9375,0.625 0.76562,0.20312 1.82812,0.60937 l 5.90625,2.14063 v 1.6875 l -9.67187,-3.65625 z m 3.10937,13.26562 -0.20312,1.6875 q -1.48438,-0.40625 -2.3125,-1.48437 -0.8125,-1.07813 -0.8125,-2.76563 0,-2.125 1.29687,-3.375 1.3125,-1.23437 3.67188,-1.23437 2.45312,0 3.79687,1.25 1.34375,1.26562 1.34375,3.26562 0,1.9375 -1.32812,3.15625 -1.3125,1.23438 -3.70313,1.23438 -0.15625,0 -0.4375,0 v -7.21875 q -1.59375,0.0937 -2.45312,0.90625 -0.84375,0.8125 -0.84375,2.01562 0,0.90625 0.46875,1.54688 0.48437,0.64062 1.51562,1.01562 z m 2.65625,-5.39062 v 5.40625 q 1.21875,-0.10938 1.82813,-0.625 0.95312,-0.78125 0.95312,-2.03125 0,-1.125 -0.76562,-1.90625 -0.75,-0.76563 -2.01563,-0.84375 z m -5.76562,9.12572 h 9.67187 v 1.46875 h -1.46875 q 1.03125,0.5625 1.35938,1.03125 0.32812,0.48437 0.32812,1.0625 0,0.82812 -0.53125,1.6875 l -1.51562,-0.5625 q 0.35937,-0.60938 0.35937,-1.20313 0,-0.54687 -0.32812,-0.96875 -0.32813,-0.42187 -0.89063,-0.60937 -0.875,-0.28125 -1.92187,-0.28125 h -5.0625 z"
     fill-rule="nonzero"
     id="path11" />
  <path
     fill="#d9d2e9"
     d="M 224.30972,0.5 V 385.63384 H 168.56169 V 0.5 Z"
     fill-rule="evenodd"
     id="path13" />
  <path
     stroke="#000000"
     stroke-width="1"
     stroke-linejoin="round"
     stroke-linecap="butt"
     d="M 224.30972,0.5 V 385.63384 H 168.56169 V 0.5 Z"
     fill-rule="evenodd"
     id="path15" />
  <path
     fill="#000000"
     d="m 193.06258,178.83755 -0.21875,1.60938 q -1.65625,-0.26563 -2.60937,-1.35938 -0.9375,-1.07812 -0.9375,-2.67187 0,-1.98438 1.29687,-3.1875 1.29688,-1.20313 3.71875,-1.20313 1.57813,0 2.75,0.51563 1.17188,0.51562 1.75,1.57812 0.59375,1.0625 0.59375,2.3125 0,1.57813 -0.79687,2.57813 -0.79688,1 -2.26563,1.28125 l -0.23437,-1.59375 q 0.96875,-0.23438 1.45312,-0.8125 0.5,-0.57813 0.5,-1.39063 0,-1.23437 -0.89062,-2.01562 -0.89063,-0.78125 -2.8125,-0.78125 -1.95313,0 -2.84375,0.75 -0.875,0.75 -0.875,1.95312 0,0.96875 0.59375,1.60938 0.59375,0.65625 1.82812,0.82812 z m -3.54687,2.96875 h 13.35937 v 1.64063 h -13.35937 z m 11.46875,4.1917 h 1.89062 v 1.64063 h -1.89062 z m -11.46875,0 h 9.67187 v 1.64063 h -9.67187 z m 3.10937,10.76983 -0.20312,1.6875 q -1.48438,-0.40625 -2.3125,-1.48438 -0.8125,-1.07812 -0.8125,-2.76562 0,-2.125 1.29687,-3.375 1.3125,-1.23438 3.67188,-1.23438 2.45312,0 3.79687,1.25 1.34375,1.26563 1.34375,3.26563 0,1.9375 -1.32812,3.15625 -1.3125,1.23437 -3.70313,1.23437 -0.15625,0 -0.4375,0 v -7.21875 q -1.59375,0.0937 -2.45312,0.90625 -0.84375,0.8125 -0.84375,2.01563 0,0.90625 0.46875,1.54687 0.48437,0.64063 1.51562,1.01563 z m 2.65625,-5.39063 v 5.40625 q 1.21875,-0.10937 1.82813,-0.625 0.95312,-0.78125 0.95312,-2.03125 0,-1.125 -0.76562,-1.90625 -0.75,-0.76562 -2.01563,-0.84375 z m -5.76562,9.14134 h 9.67187 v 1.46875 h -1.375 q 1.59375,1.0625 1.59375,3.07813 0,0.875 -0.3125,1.60937 -0.3125,0.73438 -0.82812,1.09375 -0.5,0.375 -1.20313,0.51563 -0.45312,0.0937 -1.59375,0.0937 h -5.95312 v -1.64063 h 5.89062 q 1,0 1.48438,-0.20312 0.5,-0.1875 0.79687,-0.67188 0.29688,-0.48437 0.29688,-1.14062 0,-1.04688 -0.67188,-1.8125 -0.65625,-0.75 -2.51562,-0.75 h -5.28125 z m 1.46875,13.95385 -1.45313,0.23437 q -0.14062,-0.6875 -0.14062,-1.23437 0,-0.89063 0.28125,-1.39063 0.28125,-0.48437 0.73437,-0.6875 0.46875,-0.20312 1.9375,-0.20312 h 5.57813 v -1.20313 h 1.26562 v 1.20313 h 2.39063 l 0.98437,1.625 h -3.375 v 1.65625 h -1.26562 v -1.65625 h -5.67188 q -0.6875,0 -0.89062,0.0781 -0.20313,0.0937 -0.32813,0.28125 -0.10937,0.20313 -0.10937,0.57813 0,0.26562 0.0625,0.71875 z"
     fill-rule="nonzero"
     id="path17" />
  <path
     fill="#cfe2f3"
     d="m 224.30972,15.988189 h 291.70077 l 16.5197,16.519684 -16.5197,16.519688 H 224.30972 Z"
     fill-rule="evenodd"
     id="path19" />
  <path
     stroke="#000000"
     stroke-width="1"
     stroke-linejoin="round"
     stroke-linecap="butt"
     d="m 224.30972,15.988189 h 291.70077 l 16.5197,16.519684 -16.5197,16.519688 H 224.30972 Z"
     fill-rule="evenodd"
     id="path21" />
  <path
     fill="#000000"
     d="m 259.99342,39.427871 -3.6875,-9.671875 h 1.73438 l 2.07812,5.796875 q 0.32813,0.9375 0.625,1.9375 0.20313,-0.765625 0.60938,-1.828125 l 2.14062,-5.90625 h 1.6875 l -3.65625,9.671875 z m 6.9375,0 V 26.068496 h 9.01563 v 1.578125 h -7.25 v 4.140625 h 6.26562 v 1.578125 h -6.26562 v 6.0625 z m 11.09911,-11.46875 v -1.890625 h 1.64062 v 1.890625 z m 0,11.46875 v -9.671875 h 1.64062 v 9.671875 z m 4.09794,0 V 26.068496 h 1.64063 v 13.359375 z m 10.8167,-3.109375 1.6875,0.203125 q -0.40625,1.484375 -1.48438,2.3125 -1.07812,0.8125 -2.76562,0.8125 -2.125,0 -3.375,-1.296875 -1.23438,-1.3125 -1.23438,-3.671875 0,-2.453125 1.25,-3.796875 1.26563,-1.34375 3.26563,-1.34375 1.9375,0 3.15625,1.328125 1.23437,1.3125 1.23437,3.703125 0,0.15625 0,0.4375 h -7.21875 q 0.0937,1.59375 0.90625,2.453125 0.8125,0.84375 2.01563,0.84375 0.90625,0 1.54687,-0.46875 0.64063,-0.484375 1.01563,-1.515625 z m -5.39063,-2.65625 h 5.40625 q -0.10937,-1.21875 -0.625,-1.828125 -0.78125,-0.953125 -2.03125,-0.953125 -1.125,0 -1.90625,0.765625 -0.76562,0.75 -0.84375,2.015625 z m 9.59447,-2.046875 v -1.859375 h 1.85938 v 1.859375 z m 0,7.8125 v -1.875 h 1.85938 v 1.875 z m 4.1208,-4.84375 q 0,-2.6875 1.48438,-3.96875 1.25,-1.078125 3.04687,-1.078125 2,0 3.26563,1.3125 1.26562,1.296875 1.26562,3.609375 0,1.859375 -0.5625,2.9375 -0.5625,1.0625 -1.64062,1.65625 -1.0625,0.59375 -2.32813,0.59375 -2.03125,0 -3.28125,-1.296875 -1.25,-1.3125 -1.25,-3.765625 z m 1.6875,0 q 0,1.859375 0.79688,2.796875 0.8125,0.921875 2.04687,0.921875 1.21875,0 2.03125,-0.921875 0.8125,-0.9375 0.8125,-2.84375 0,-1.796875 -0.8125,-2.71875 -0.8125,-0.921875 -2.03125,-0.921875 -1.23437,0 -2.04687,0.921875 -0.79688,0.90625 -0.79688,2.765625 z m 9.2976,8.546875 v -13.375 h 1.48437 v 1.25 q 0.53125,-0.734375 1.1875,-1.09375 0.67188,-0.375 1.625,-0.375 1.23438,0 2.17188,0.640625 0.95312,0.625 1.4375,1.796875 0.48437,1.15625 0.48437,2.546875 0,1.484375 -0.53125,2.671875 -0.53125,1.1875 -1.54687,1.828125 -1.01563,0.625 -2.14063,0.625 -0.8125,0 -1.46875,-0.34375 -0.65625,-0.34375 -1.0625,-0.875 v 4.703125 z m 1.48437,-8.484375 q 0,1.859375 0.75,2.765625 0.76563,0.890625 1.82813,0.890625 1.09375,0 1.875,-0.921875 0.78125,-0.9375 0.78125,-2.875 0,-1.84375 -0.76563,-2.765625 -0.75,-0.921875 -1.8125,-0.921875 -1.04687,0 -1.85937,0.984375 -0.79688,0.96875 -0.79688,2.84375 z m 15.51634,1.671875 1.6875,0.203125 q -0.40625,1.484375 -1.48438,2.3125 -1.07812,0.8125 -2.76562,0.8125 -2.125,0 -3.375,-1.296875 -1.23438,-1.3125 -1.23438,-3.671875 0,-2.453125 1.25,-3.796875 1.26563,-1.34375 3.26563,-1.34375 1.9375,0 3.15625,1.328125 1.23437,1.3125 1.23437,3.703125 0,0.15625 0,0.4375 h -7.21875 q 0.0937,1.59375 0.90625,2.453125 0.8125,0.84375 2.01563,0.84375 0.90625,0 1.54687,-0.46875 0.64063,-0.484375 1.01563,-1.515625 z m -5.39063,-2.65625 h 5.40625 q -0.10937,-1.21875 -0.625,-1.828125 -0.78125,-0.953125 -2.03125,-0.953125 -1.125,0 -1.90625,0.765625 -0.76562,0.75 -0.84375,2.015625 z m 9.14135,5.765625 v -9.671875 h 1.46875 v 1.375 q 1.0625,-1.59375 3.07812,-1.59375 0.875,0 1.60938,0.3125 0.73437,0.3125 1.09375,0.828125 0.375,0.5 0.51562,1.203125 0.0937,0.453125 0.0937,1.59375 v 5.953125 h -1.64063 v -5.890625 q 0,-1 -0.20312,-1.484375 -0.1875,-0.5 -0.67188,-0.796875 -0.48437,-0.296875 -1.14062,-0.296875 -1.04688,0 -1.8125,0.671875 -0.75,0.65625 -0.75,2.515625 v 5.28125 z m 10.82884,-7.8125 v -1.859375 h 1.85938 v 1.859375 z m 0,7.8125 v -1.875 h 1.85938 v 1.875 z"
     fill-rule="nonzero"
     id="path23" />
  <path
     fill="#000000"
     d="m 347.14297,43.130995 2.79688,-13.375 h 1.51562 l -0.28125,1.34375 q 0.84375,-0.875 1.51562,-1.21875 0.67187,-0.34375 1.42187,-0.34375 1.375,0 2.28125,1.015625 0.92188,1 0.92188,2.875 0,1.515625 -0.5,2.765625 -0.5,1.234375 -1.23438,2 -0.71875,0.75 -1.46875,1.109375 -0.75,0.34375 -1.53125,0.34375 -1.74998,0 -2.70311,-1.765625 l -1.09375,5.25 z m 3.25,-7.65625 q 0,1.078125 0.15625,1.5 0.23438,0.59375 0.75,0.96875 0.51563,0.359375 1.20312,0.359375 1.42187,0 2.29687,-1.59375 0.875,-1.609375 0.875,-3.28125 0,-1.21875 -0.59375,-1.890625 -0.57812,-0.671875 -1.45312,-0.671875 -0.625,0 -1.17188,0.34375 -0.53123,0.328125 -0.99998,0.984375 -0.45313,0.65625 -0.76563,1.609375 -0.29687,0.953125 -0.29688,1.671875 z m 14.45385,2.75 q -0.85938,0.734375 -1.65625,1.078125 -0.78125,0.34375 -1.6875,0.34375 -1.34375,0 -2.17188,-0.78125 -0.8125,-0.796875 -0.8125,-2.03125 0,-0.796875 0.375,-1.421875 0.375,-0.625 0.98438,-1 0.60937,-0.390625 1.48437,-0.546875 0.5625,-0.109375 2.10938,-0.171875 1.5625,-0.0625 2.23437,-0.328125 0.1875,-0.671875 0.1875,-1.125 0,-0.578125 -0.42187,-0.90625 -0.5625,-0.453125 -1.67188,-0.453125 -1.03125,0 -1.70312,0.46875 -0.65625,0.453125 -0.95313,1.296875 l -1.67187,-0.140625 q 0.51562,-1.4375 1.60937,-2.203125 1.10938,-0.765625 2.79688,-0.765625 1.79687,0 2.84375,0.859375 0.79687,0.625 0.79687,1.65625 0,0.765625 -0.21875,1.796875 l -0.53125,2.40625 q -0.26562,1.140625 -0.26562,1.859375 0,0.453125 0.20312,1.3125 h -1.67187 q -0.125,-0.46875 -0.1875,-1.203125 z m 0.60937,-3.703125 q -0.34375,0.140625 -0.75,0.21875 -0.39062,0.0625 -1.3125,0.15625 -1.4375,0.125 -2.03125,0.328125 -0.59375,0.1875 -0.90625,0.625 -0.29687,0.421875 -0.29687,0.9375 0,0.6875 0.48437,1.140625 0.48438,0.4375 1.35938,0.4375 0.82812,0 1.57812,-0.421875 0.75,-0.4375 1.1875,-1.203125 0.4375,-0.78125 0.6875,-2.21875 z m 7.09445,3.5625 -0.26562,1.359375 q -0.59375,0.140625 -1.15625,0.140625 -0.98438,0 -1.5625,-0.46875 -0.4375,-0.375 -0.4375,-1 0,-0.3125 0.23437,-1.46875 l 1.17188,-5.625 h -1.29688 l 0.26563,-1.265625 h 1.29687 l 0.5,-2.375 1.89063,-1.140625 -0.73438,3.515625 h 1.625 l -0.28125,1.265625 h -1.60937 l -1.125,5.359375 q -0.20313,1.015625 -0.20313,1.21875 0,0.28125 0.15625,0.4375 0.17188,0.15625 0.5625,0.15625 0.54688,0 0.96875,-0.109375 z m 1.33958,1.34375 2.78125,-13.359375 h 1.65625 l -1.07813,5.140625 q 0.92188,-0.90625 1.71875,-1.28125 0.79688,-0.390625 1.625,-0.390625 1.20313,0 1.85938,0.640625 0.67187,0.625 0.67187,1.65625 0,0.515625 -0.28125,1.875 l -1.20312,5.71875 h -1.64063 l 1.23438,-5.859375 q 0.25,-1.265625 0.25,-1.59375 0,-0.484375 -0.32813,-0.78125 -0.32812,-0.296875 -0.9375,-0.296875 -0.89062,0 -1.70312,0.46875 -0.8125,0.46875 -1.28125,1.28125 -0.45313,0.8125 -0.82813,2.625 l -0.875,4.15625 z"
     fill-rule="nonzero"
     id="path25" />
  <path
     fill="#000000"
     d="m 385.29716,39.427871 v -1.875 h 1.875 v 1.875 q 0,1.03125 -0.375,1.65625 -0.35937,0.640625 -1.15625,0.984375 l -0.45312,-0.703125 q 0.51562,-0.21875 0.76562,-0.671875 0.25,-0.4375 0.28125,-1.265625 z"
     fill-rule="nonzero"
     id="path27" />
  <path
     fill="#000000"
     d="m 389.43361,39.427871 2.01563,-9.671875 h 1.65625 l -0.34375,1.59375 q 0.92187,-1.03125 1.64062,-1.421875 0.73438,-0.390625 1.57813,-0.390625 0.90625,0 1.51562,0.484375 0.60938,0.46875 0.79688,1.328125 0.73437,-0.90625 1.54687,-1.359375 0.8125,-0.453125 1.71875,-0.453125 1.21875,0 1.8125,0.578125 0.60938,0.5625 0.60938,1.609375 0,0.4375 -0.20313,1.46875 l -1.3125,6.234375 h -1.64062 l 1.32812,-6.390625 q 0.17188,-0.78125 0.17188,-1.125 0,-0.46875 -0.29688,-0.734375 -0.29687,-0.28125 -0.84375,-0.28125 -0.75,0 -1.51562,0.453125 -0.76563,0.4375 -1.1875,1.171875 -0.42188,0.71875 -0.73438,2.21875 l -0.98437,4.6875 h -1.65625 l 1.375,-6.53125 q 0.14062,-0.671875 0.14062,-0.953125 0,-0.46875 -0.29687,-0.75 -0.29688,-0.296875 -0.76563,-0.296875 -0.70312,0 -1.48437,0.453125 -0.76563,0.4375 -1.25,1.234375 -0.46875,0.796875 -0.78125,2.265625 l -0.95313,4.578125 z m 15.83768,-3.671875 q 0,-2.828125 1.67189,-4.6875 1.375,-1.53125 3.60938,-1.53125 1.75,0 2.8125,1.09375 1.07812,1.09375 1.07812,2.953125 0,1.65625 -0.67187,3.09375 -0.67188,1.4375 -1.92188,2.203125 -1.25,0.765625 -2.625,0.765625 -1.125,0 -2.04687,-0.484375 -0.92188,-0.484375 -1.42188,-1.359375 -0.48439,-0.890625 -0.48439,-2.046875 z m 1.65627,-0.15625 q 0,1.359375 0.65625,2.0625 0.65625,0.703125 1.65625,0.703125 0.53125,0 1.04687,-0.203125 0.53125,-0.21875 0.96875,-0.65625 0.45313,-0.4375 0.76563,-1 0.3125,-0.5625 0.5,-1.203125 0.28125,-0.90625 0.28125,-1.734375 0,-1.3125 -0.65625,-2.03125 -0.65625,-0.734375 -1.65625,-0.734375 -0.78125,0 -1.42188,0.375 -0.625,0.375 -1.14062,1.09375 -0.51563,0.703125 -0.76563,1.640625 -0.23437,0.9375 -0.23437,1.6875 z m 14.95382,2.421875 q -1.40625,1.625 -2.95313,1.625 -1.375,0 -2.29687,-1.015625 -0.90625,-1.015625 -0.90625,-2.953125 0,-1.765625 0.71875,-3.21875 0.73437,-1.46875 1.8125,-2.1875 1.09375,-0.734375 2.1875,-0.734375 1.79687,0 2.71875,1.734375 l 1.09375,-5.203125 h 1.64062 l -2.78125,13.359375 h -1.53125 z m -4.51563,-2.640625 q 0,1 0.20313,1.59375 0.20312,0.578125 0.67187,0.96875 0.48438,0.375 1.17188,0.375 1.10937,0 2.03125,-1.15625 1.21875,-1.546875 1.21875,-3.828125 0,-1.140625 -0.60938,-1.78125 -0.59375,-0.65625 -1.51562,-0.65625 -0.59375,0 -1.07813,0.265625 -0.48437,0.265625 -0.96875,0.90625 -0.46875,0.625 -0.79687,1.59375 -0.32813,0.96875 -0.32813,1.71875 z m 15.46949,0.765625 1.60937,0.15625 q -0.34375,1.1875 -1.59375,2.265625 -1.23437,1.078125 -2.96875,1.078125 -1.0625,0 -1.96875,-0.5 -0.89062,-0.5 -1.35937,-1.4375 -0.46875,-0.953125 -0.46875,-2.15625 0,-1.59375 0.73437,-3.078125 0.73438,-1.484375 1.89063,-2.203125 1.17187,-0.734375 2.53125,-0.734375 1.73437,0 2.76562,1.078125 1.03125,1.0625 1.03125,2.921875 0,0.71875 -0.125,1.46875 h -7.125 q -0.0469,0.28125 -0.0469,0.5 0,1.359375 0.625,2.078125 0.625,0.71875 1.53125,0.71875 0.84375,0 1.65625,-0.546875 0.82813,-0.5625 1.28125,-1.609375 z m -4.78125,-2.40625 h 5.42187 q 0.0156,-0.25 0.0156,-0.359375 0,-1.234375 -0.625,-1.890625 -0.625,-0.671875 -1.59375,-0.671875 -1.0625,0 -1.9375,0.734375 -0.85937,0.71875 -1.28125,2.1875 z"
     fill-rule="nonzero"
     id="path29" />
  <path
     fill="#000000"
     d="m 437.14844,39.427871 v -1.875 h 1.875 v 1.875 q 0,1.03125 -0.375,1.65625 -0.35938,0.640625 -1.15625,0.984375 l -0.45313,-0.703125 q 0.51563,-0.21875 0.76563,-0.671875 0.25,-0.4375 0.28125,-1.265625 z"
     fill-rule="nonzero"
     id="path31" />
  <path
     fill="#000000"
     d="m 440.48802,43.130995 2.79688,-13.375 h 1.51562 l -0.28125,1.34375 q 0.84375,-0.875 1.51563,-1.21875 0.67187,-0.34375 1.42187,-0.34375 1.375,0 2.28125,1.015625 0.92188,1 0.92188,2.875 0,1.515625 -0.5,2.765625 -0.5,1.234375 -1.23438,2 -0.71875,0.75 -1.46875,1.109375 -0.75,0.34375 -1.53125,0.34375 -1.75,0 -2.70312,-1.765625 l -1.09375,5.25 z m 3.25,-7.65625 q 0,1.078125 0.15625,1.5 0.23438,0.59375 0.75,0.96875 0.51563,0.359375 1.20313,0.359375 1.42187,0 2.29687,-1.59375 0.875,-1.609375 0.875,-3.28125 0,-1.21875 -0.59375,-1.890625 -0.57812,-0.671875 -1.45312,-0.671875 -0.625,0 -1.17188,0.34375 -0.53125,0.328125 -1,0.984375 -0.45312,0.65625 -0.76562,1.609375 -0.29688,0.953125 -0.29688,1.671875 z m 15.03195,0.671875 1.60938,0.15625 q -0.34375,1.1875 -1.59375,2.265625 -1.23438,1.078125 -2.96875,1.078125 -1.0625,0 -1.96875,-0.5 -0.89063,-0.5 -1.35938,-1.4375 -0.46875,-0.953125 -0.46875,-2.15625 0,-1.59375 0.73438,-3.078125 0.73437,-1.484375 1.89062,-2.203125 1.17188,-0.734375 2.53125,-0.734375 1.73438,0 2.76563,1.078125 1.03125,1.0625 1.03125,2.921875 0,0.71875 -0.125,1.46875 h -7.125 q -0.0469,0.28125 -0.0469,0.5 0,1.359375 0.625,2.078125 0.625,0.71875 1.53125,0.71875 0.84375,0 1.65625,-0.546875 0.82813,-0.5625 1.28125,-1.609375 z m -4.78125,-2.40625 h 5.42188 q 0.0156,-0.25 0.0156,-0.359375 0,-1.234375 -0.625,-1.890625 -0.625,-0.671875 -1.59375,-0.671875 -1.0625,0 -1.9375,0.734375 -0.85937,0.71875 -1.28125,2.1875 z m 8.06323,5.6875 2.01563,-9.671875 h 1.45312 l -0.40625,1.96875 q 0.75,-1.109375 1.45313,-1.640625 0.71875,-0.546875 1.46875,-0.546875 0.5,0 1.21875,0.359375 l -0.67188,1.53125 q -0.4375,-0.3125 -0.9375,-0.3125 -0.875,0 -1.78125,0.96875 -0.90625,0.953125 -1.4375,3.46875 l -0.8125,3.875 z m 6.19706,0 2.01562,-9.671875 h 1.65625 l -0.34375,1.59375 q 0.92188,-1.03125 1.64063,-1.421875 0.73437,-0.390625 1.57812,-0.390625 0.90625,0 1.51563,0.484375 0.60937,0.46875 0.79687,1.328125 0.73438,-0.90625 1.54688,-1.359375 0.8125,-0.453125 1.71875,-0.453125 1.21875,0 1.8125,0.578125 0.60937,0.5625 0.60937,1.609375 0,0.4375 -0.20312,1.46875 l -1.3125,6.234375 h -1.64063 l 1.32813,-6.390625 q 0.17187,-0.78125 0.17187,-1.125 0,-0.46875 -0.29687,-0.734375 -0.29688,-0.28125 -0.84375,-0.28125 -0.75,0 -1.51563,0.453125 -0.76562,0.4375 -1.1875,1.171875 -0.42187,0.71875 -0.73437,2.21875 l -0.98438,4.6875 h -1.65625 l 1.375,-6.53125 q 0.14063,-0.671875 0.14063,-0.953125 0,-0.46875 -0.29688,-0.75 -0.29687,-0.296875 -0.76562,-0.296875 -0.70313,0 -1.48438,0.453125 -0.76562,0.4375 -1.25,1.234375 -0.46875,0.796875 -0.78125,2.265625 l -0.95312,4.578125 z m 15.71267,-3.3125 1.64063,-0.09375 q 0,0.703125 0.21875,1.21875 0.21875,0.5 0.79687,0.8125 0.59375,0.3125 1.375,0.3125 1.09375,0 1.64063,-0.4375 0.54687,-0.4375 0.54687,-1.015625 0,-0.4375 -0.32812,-0.8125 -0.32813,-0.390625 -1.64063,-0.953125 -1.3125,-0.5625 -1.67187,-0.78125 -0.60938,-0.375 -0.92188,-0.875 -0.3125,-0.515625 -0.3125,-1.171875 0,-1.140625 0.90625,-1.953125 0.92188,-0.828125 2.5625,-0.828125 1.82813,0 2.76563,0.84375 0.95312,0.84375 1,2.21875 l -1.60938,0.109375 q -0.0469,-0.875 -0.625,-1.390625 -0.57812,-0.515625 -1.65625,-0.515625 -0.84375,0 -1.32812,0.40625 -0.46875,0.390625 -0.46875,0.84375 0,0.453125 0.40625,0.796875 0.28125,0.234375 1.42187,0.734375 1.89063,0.8125 2.375,1.28125 0.78125,0.765625 0.78125,1.84375 0,0.71875 -0.4375,1.421875 -0.4375,0.6875 -1.34375,1.109375 -0.90625,0.40625 -2.14062,0.40625 -1.67188,0 -2.84375,-0.828125 -1.1875,-0.828125 -1.10938,-2.703125 z"
     fill-rule="nonzero"
     id="path33" />
  <path
     fill="#6fa8dc"
     d="M 532.53018,61.930445 H 240.82941 l -16.51969,16.519684 16.51969,16.519686 h 291.70078 z"
     fill-rule="evenodd"
     id="path35" />
  <path
     stroke="#000000"
     stroke-width="1"
     stroke-linejoin="round"
     stroke-linecap="butt"
     d="M 532.53018,61.930445 H 240.82941 l -16.51969,16.519684 16.51969,16.519686 h 291.70078 z"
     fill-rule="evenodd"
     id="path37" />
  <path
     fill="#000000"
     d="M 370.60362,85.370125 V 72.01075 h 9.01562 v 1.578125 h -7.25 V 77.7295 h 6.26563 v 1.578125 h -6.26563 v 6.0625 z"
     fill-rule="nonzero"
     id="path39" />
  <path
     fill="#000000"
     d="m 381.31209,85.370125 1.76563,-8.40625 h -1.48438 l 0.26563,-1.265625 h 1.48437 l 0.28125,-1.375 q 0.21875,-1.03125 0.4375,-1.484375 0.23438,-0.453125 0.75,-0.75 0.53125,-0.296875 1.4375,-0.296875 0.625,0 1.82813,0.265625 l -0.29688,1.4375 q -0.84375,-0.21875 -1.40625,-0.21875 -0.48437,0 -0.73437,0.25 -0.25,0.234375 -0.4375,1.125 l -0.21875,1.046875 h 1.84375 l -0.26563,1.265625 h -1.84375 l -1.75,8.40625 z m 11.48018,-1.40625 q -1.40625,1.625 -2.95313,1.625 -1.375,0 -2.29687,-1.015625 -0.90625,-1.015625 -0.90625,-2.953125 0,-1.765625 0.71875,-3.21875 0.73437,-1.46875 1.8125,-2.1875 1.09375,-0.734375 2.1875,-0.734375 1.79687,0 2.71875,1.734375 l 1.09375,-5.203125 h 1.64062 l -2.78125,13.359375 h -1.53125 z m -4.51563,-2.640625 q 0,1 0.20313,1.59375 0.20312,0.578125 0.67187,0.96875 0.48438,0.375 1.17188,0.375 1.10937,0 2.03125,-1.15625 1.21875,-1.546875 1.21875,-3.828125 0,-1.140625 -0.60938,-1.78125 -0.59375,-0.65625 -1.51562,-0.65625 -0.59375,0 -1.07813,0.265625 -0.48437,0.265625 -0.96875,0.90625 -0.46875,0.625 -0.79687,1.59375 -0.32813,0.96875 -0.32813,1.71875 z"
     fill-rule="nonzero"
     id="path41" />
  <path
     fill="#fff2cc"
     d="m 224.30972,107.8727 h 291.70077 l 16.5197,16.51968 -16.5197,16.51969 H 224.30972 Z"
     fill-rule="evenodd"
     id="path43" />
  <path
     stroke="#000000"
     stroke-width="1"
     stroke-linejoin="round"
     stroke-linecap="butt"
     d="m 224.30972,107.8727 h 291.70077 l 16.5197,16.51968 -16.5197,16.51969 H 224.30972 Z"
     fill-rule="evenodd"
     id="path45" />
  <path
     fill="#000000"
     d="m 270.87927,131.31238 -3.6875,-9.67187 h 1.73436 l 2.07814,5.79688 q 0.32811,0.93749 0.625,1.93749 0.20311,-0.76562 0.60936,-1.82812 l 2.14064,-5.90625 h 1.6875 l -3.65625,9.67187 z m 6.9375,0 v -13.35936 h 9.01562 v 1.57812 h -7.25 v 4.14062 h 6.26563 v 1.57813 h -6.26563 v 6.06249 z m 11.09911,-11.46874 v -1.89062 h 1.64062 v 1.89062 z m 0,11.46874 v -9.67187 h 1.64062 v 9.67187 z m 4.09793,0 v -13.35936 h 1.64063 v 13.35936 z m 10.8167,-3.10937 1.6875,0.20312 q -0.40625,1.48438 -1.48438,2.3125 -1.07812,0.8125 -2.76562,0.8125 -2.125,0 -3.375,-1.29687 -1.23438,-1.3125 -1.23438,-3.67187 0,-2.45313 1.25,-3.79688 1.26563,-1.34375 3.26563,-1.34375 1.9375,0 3.15625,1.32813 1.23437,1.3125 1.23437,3.70312 0,0.15625 0,0.4375 h -7.21875 q 0.0937,1.59375 0.90625,2.45312 0.8125,0.84375 2.01563,0.84375 0.90625,0 1.54687,-0.46875 0.64063,-0.48437 1.01563,-1.51562 z m -5.39063,-2.65625 h 5.40625 q -0.10937,-1.21875 -0.625,-1.82812 -0.78125,-0.95313 -2.03125,-0.95313 -1.125,0 -1.90625,0.76563 -0.76562,0.75 -0.84375,2.01562 z m 9.59447,-2.04687 v -1.85938 h 1.85938 v 1.85938 z m 0,7.81249 v -1.875 h 1.85938 v 1.875 z m 4.73018,3.70313 v -13.375 h 1.48437 v 1.25 q 0.53125,-0.73437 1.1875,-1.09375 0.67188,-0.375 1.625,-0.375 1.23438,0 2.17188,0.64063 0.95312,0.625 1.4375,1.79687 0.48437,1.15625 0.48437,2.54688 0,1.48437 -0.53125,2.67187 -0.53125,1.1875 -1.54687,1.82812 -1.01563,0.625 -2.14063,0.625 -0.8125,0 -1.46875,-0.34375 -0.65625,-0.34375 -1.0625,-0.875 v 4.70313 z m 1.48437,-8.48437 q 0,1.85937 0.75,2.76562 0.76563,0.89062 1.82813,0.89062 1.09375,0 1.875,-0.92187 0.78125,-0.9375 0.78125,-2.875 0,-1.84375 -0.76563,-2.76562 -0.75,-0.92188 -1.8125,-0.92188 -1.04687,0 -1.85937,0.98438 -0.79688,0.96875 -0.79688,2.84375 z m 8.87572,4.78124 v -9.67187 h 1.46875 v 1.46875 q 0.5625,-1.03125 1.03125,-1.35937 0.48438,-0.32813 1.0625,-0.32813 0.82813,0 1.6875,0.53125 l -0.5625,1.51563 q -0.60937,-0.35938 -1.20312,-0.35938 -0.54688,0 -0.96875,0.32813 -0.42188,0.32812 -0.60938,0.89062 -0.28125,0.875 -0.28125,1.92188 v 5.06249 z m 12.8533,-3.10937 1.6875,0.20312 q -0.40625,1.48438 -1.48437,2.3125 -1.07813,0.8125 -2.76563,0.8125 -2.125,0 -3.375,-1.29687 -1.23437,-1.3125 -1.23437,-3.67187 0,-2.45313 1.25,-3.79688 1.26562,-1.34375 3.26562,-1.34375 1.9375,0 3.15625,1.32813 1.23438,1.3125 1.23438,3.70312 0,0.15625 0,0.4375 h -7.21875 q 0.0937,1.59375 0.90625,2.45312 0.8125,0.84375 2.01562,0.84375 0.90625,0 1.54688,-0.46875 0.64062,-0.48437 1.01562,-1.51562 z m -5.39062,-2.65625 h 5.40625 q -0.10938,-1.21875 -0.625,-1.82812 -0.78125,-0.95313 -2.03125,-0.95313 -1.125,0 -1.90625,0.76563 -0.76563,0.75 -0.84375,2.01562 z m 15.45384,4.57812 q -0.92187,0.76563 -1.76562,1.09375 -0.82813,0.3125 -1.79688,0.3125 -1.59375,0 -2.45312,-0.78125 -0.85938,-0.78125 -0.85938,-1.98437 0,-0.71875 0.32813,-1.29687 0.32812,-0.59375 0.84375,-0.9375 0.53125,-0.35938 1.1875,-0.54688 0.46875,-0.125 1.45312,-0.25 1.98438,-0.23437 2.92188,-0.5625 0.0156,-0.34375 0.0156,-0.42187 0,-1 -0.46875,-1.42188 -0.625,-0.54687 -1.875,-0.54687 -1.15625,0 -1.70312,0.40625 -0.54688,0.40625 -0.8125,1.42187 l -1.60938,-0.21875 q 0.21875,-1.01562 0.71875,-1.64062 0.5,-0.64063 1.45313,-0.98438 0.95312,-0.34375 2.1875,-0.34375 1.25,0 2.01562,0.29688 0.78125,0.28125 1.14063,0.73437 0.375,0.4375 0.51562,1.10938 0.0781,0.42187 0.0781,1.51562 v 2.1875 q 0,2.28125 0.10938,2.89062 0.10937,0.59375 0.40625,1.15625 h -1.70313 q -0.26562,-0.51562 -0.32812,-1.1875 z m -0.14062,-3.67187 q -0.89063,0.375 -2.67188,0.625 -1.01562,0.14063 -1.4375,0.32813 -0.42187,0.1875 -0.65625,0.53125 -0.21875,0.34374 -0.21875,0.78124 0,0.65625 0.5,1.09375 0.5,0.4375 1.45313,0.4375 0.9375,0 1.67187,-0.40625 0.75,-0.42187 1.09375,-1.14062 0.26563,-0.5625 0.26563,-1.64062 z m 10.46946,4.85937 v -1.21875 q -0.90625,1.4375 -2.70312,1.4375 -1.15625,0 -2.125,-0.64062 -0.96875,-0.64063 -1.5,-1.78125 -0.53125,-1.14062 -0.53125,-2.625 0,-1.45312 0.48437,-2.625 0.48438,-1.1875 1.4375,-1.8125 0.96875,-0.625 2.17188,-0.625 0.875,0 1.54687,0.375 0.6875,0.35938 1.10938,0.95313 v -4.79687 h 1.64062 v 13.35936 z m -5.17187,-4.82812 q 0,1.85937 0.78125,2.78125 0.78125,0.92187 1.84375,0.92187 1.07812,0 1.82812,-0.875 0.75,-0.89062 0.75,-2.68749 0,-1.98438 -0.76562,-2.90625 -0.76563,-0.9375 -1.89063,-0.9375 -1.07812,0 -1.8125,0.89062 -0.73437,0.89063 -0.73437,2.8125 z m 9.73507,-2.98437 v -1.85938 h 1.85938 v 1.85938 z m 0,7.81249 v -1.875 h 1.85938 v 1.875 z"
     fill-rule="nonzero"
     id="path47" />
  <path
     fill="#000000"
     d="m 365.27276,131.31238 1.76562,-8.40624 h -1.48437 l 0.26562,-1.26563 h 1.48438 l 0.28125,-1.375 q 0.21875,-1.03125 0.4375,-1.48437 0.23437,-0.45313 0.75,-0.75 0.53125,-0.29687 1.4375,-0.29687 0.625,0 1.82812,0.26562 l -0.29687,1.4375 q -0.84375,-0.21875 -1.40625,-0.21875 -0.48438,0 -0.73438,0.25 -0.25,0.23437 -0.4375,1.125 l -0.21875,1.04687 h 1.84375 l -0.26562,1.26563 h -1.84375 l -1.75,8.40624 z m 11.48017,-1.40625 q -1.40625,1.625 -2.95312,1.625 -1.375,0 -2.29688,-1.01562 -0.90625,-1.01563 -0.90625,-2.95312 0,-1.76563 0.71875,-3.21875 0.73438,-1.46875 1.8125,-2.1875 1.09375,-0.73438 2.1875,-0.73438 1.79688,0 2.71875,1.73438 l 1.09375,-5.20312 h 1.64063 l -2.78125,13.35936 h -1.53125 z m -4.51562,-2.64062 q 0,1 0.20312,1.59375 0.20313,0.57812 0.67188,0.96875 0.48437,0.375 1.17187,0.375 1.10938,0 2.03125,-1.15625 1.21875,-1.54687 1.21875,-3.82812 0,-1.14063 -0.60937,-1.78125 -0.59375,-0.65625 -1.51563,-0.65625 -0.59375,0 -1.07812,0.26562 -0.48438,0.26563 -0.96875,0.90625 -0.46875,0.625 -0.79688,1.59375 -0.32812,0.96875 -0.32812,1.71875 z"
     fill-rule="nonzero"
     id="path49" />
  <path
     fill="#000000"
     d="m 381.64427,131.31238 v -1.875 h 1.875 v 1.875 q 0,1.03125 -0.375,1.65625 -0.35938,0.64063 -1.15625,0.98438 l -0.45313,-0.70313 q 0.51563,-0.21875 0.76563,-0.67187 0.25,-0.4375 0.28125,-1.26563 z"
     fill-rule="nonzero"
     id="path51" />
  <path
     fill="#000000"
     d="m 392.46819,127.78114 1.65625,0.17187 q -0.625,1.8125 -1.76562,2.70312 -1.14063,0.875 -2.60938,0.875 -1.57812,0 -2.5625,-1.01562 -0.96875,-1.03125 -0.96875,-2.85937 0,-1.57813 0.625,-3.10938 0.64063,-1.53125 1.79688,-2.32812 1.17187,-0.79688 2.6875,-0.79688 1.54687,0 2.45312,0.875 0.92188,0.875 0.92188,2.32813 l -1.625,0.10937 q -0.0156,-0.92187 -0.54688,-1.4375 -0.51562,-0.51562 -1.35937,-0.51562 -1,0 -1.73438,0.625 -0.71875,0.625 -1.14062,1.90625 -0.40625,1.28125 -0.40625,2.46875 0,1.23437 0.54687,1.85937 0.54688,0.60937 1.34375,0.60937 0.79688,0 1.53125,-0.60937 0.73438,-0.60938 1.15625,-1.85937 z m 2.9375,-0.14063 q 0,-2.82812 1.67188,-4.6875 1.375,-1.53125 3.60937,-1.53125 1.75,0 2.8125,1.09375 1.07813,1.09375 1.07813,2.95313 0,1.65625 -0.67188,3.09374 -0.67187,1.4375 -1.92187,2.20313 -1.25,0.76562 -2.625,0.76562 -1.125,0 -2.04688,-0.48437 -0.92187,-0.48438 -1.42187,-1.35938 -0.48438,-0.89062 -0.48438,-2.04687 z m 1.65625,-0.15625 q 0,1.35937 0.65625,2.0625 0.65625,0.70312 1.65625,0.70312 0.53125,0 1.04688,-0.20312 0.53125,-0.21875 0.96875,-0.65625 0.45312,-0.4375 0.76562,-1 0.3125,-0.5625 0.5,-1.20312 0.28125,-0.90625 0.28125,-1.73438 0,-1.3125 -0.65625,-2.03125 -0.65625,-0.73437 -1.65625,-0.73437 -0.78125,0 -1.42187,0.375 -0.625,0.375 -1.14063,1.09375 -0.51562,0.70312 -0.76562,1.64062 -0.23438,0.9375 -0.23438,1.6875 z m 15.03197,2.07812 q -1.73437,1.96875 -3.5625,1.96875 -1.10937,0 -1.79687,-0.64062 -0.6875,-0.64063 -0.6875,-1.57813 0,-0.60937 0.29687,-2.09374 l 1.17188,-5.57813 h 1.65625 l -1.29688,6.1875 q -0.17187,0.76562 -0.17187,1.20312 0,0.54688 0.32812,0.85938 0.34375,0.29687 0.98438,0.29687 0.70312,0 1.35937,-0.32812 0.65625,-0.34375 1.125,-0.92188 0.48438,-0.57812 0.79688,-1.35937 0.1875,-0.5 0.45312,-1.76562 l 0.875,-4.17188 h 1.65625 l -2.03125,9.67187 h -1.51562 z m 3.78198,1.75 2.01562,-9.67187 h 1.5 l -0.35937,1.6875 q 0.96875,-1 1.8125,-1.45312 0.85937,-0.45313 1.73437,-0.45313 1.1875,0 1.84375,0.64063 0.67188,0.625 0.67188,1.70312 0,0.53125 -0.23438,1.6875 l -1.23437,5.85937 h -1.64063 l 1.28125,-6.12499 q 0.1875,-0.89063 0.1875,-1.32813 0,-0.48437 -0.32812,-0.78125 -0.32813,-0.29687 -0.95313,-0.29687 -1.28125,0 -2.26562,0.90625 -0.98438,0.90625 -1.45313,3.125 l -0.9375,4.49999 z m 14.21945,-1.34375 -0.26562,1.35938 q -0.59375,0.14062 -1.15625,0.14062 -0.98438,0 -1.5625,-0.46875 -0.4375,-0.375 -0.4375,-1 0,-0.3125 0.23437,-1.46875 l 1.17188,-5.62499 h -1.29688 l 0.26563,-1.26563 h 1.29687 l 0.5,-2.375 1.89063,-1.14062 -0.73438,3.51562 h 1.625 l -0.28125,1.26563 h -1.60937 l -1.125,5.35937 q -0.20313,1.01562 -0.20313,1.21875 0,0.28125 0.15625,0.4375 0.17188,0.15625 0.5625,0.15625 0.54688,0 0.96875,-0.10938 z"
     fill-rule="nonzero"
     id="path53" />
  <path
     fill="#000000"
     d="m 432.46616,131.31238 v -1.875 h 1.875 v 1.875 q 0,1.03125 -0.375,1.65625 -0.35938,0.64063 -1.15625,0.98438 l -0.45313,-0.70313 q 0.51563,-0.21875 0.76563,-0.67187 0.25,-0.4375 0.28125,-1.26563 z"
     fill-rule="nonzero"
     id="path55" />
  <path
     fill="#000000"
     d="m 436.89948,127.64051 q 0,-2.82812 1.67187,-4.6875 1.375,-1.53125 3.60938,-1.53125 1.75,0 2.8125,1.09375 1.07812,1.09375 1.07812,2.95313 0,1.65625 -0.67187,3.09374 -0.67188,1.4375 -1.92188,2.20313 -1.25,0.76562 -2.625,0.76562 -1.125,0 -2.04687,-0.48437 -0.92188,-0.48438 -1.42188,-1.35938 -0.48437,-0.89062 -0.48437,-2.04687 z m 1.65625,-0.15625 q 0,1.35937 0.65625,2.0625 0.65625,0.70312 1.65625,0.70312 0.53125,0 1.04687,-0.20312 0.53125,-0.21875 0.96875,-0.65625 0.45313,-0.4375 0.76563,-1 0.3125,-0.5625 0.5,-1.20312 0.28125,-0.90625 0.28125,-1.73438 0,-1.3125 -0.65625,-2.03125 -0.65625,-0.73437 -1.65625,-0.73437 -0.78125,0 -1.42188,0.375 -0.625,0.375 -1.14062,1.09375 -0.51563,0.70312 -0.76563,1.64062 -0.23437,0.9375 -0.23437,1.6875 z m 8.65695,3.82812 1.76563,-8.40624 h -1.48438 l 0.26563,-1.26563 h 1.48437 l 0.28125,-1.375 q 0.21875,-1.03125 0.4375,-1.48437 0.23438,-0.45313 0.75,-0.75 0.53125,-0.29687 1.4375,-0.29687 0.625,0 1.82813,0.26562 l -0.29688,1.4375 q -0.84375,-0.21875 -1.40625,-0.21875 -0.48437,0 -0.73437,0.25 -0.25,0.23437 -0.4375,1.125 l -0.21875,1.04687 h 1.84375 l -0.26563,1.26563 h -1.84375 l -1.75,8.40624 z m 5.18332,0 1.76563,-8.40624 h -1.48438 l 0.26563,-1.26563 h 1.48437 l 0.28125,-1.375 q 0.21875,-1.03125 0.4375,-1.48437 0.23438,-0.45313 0.75,-0.75 0.53125,-0.29687 1.4375,-0.29687 0.625,0 1.82813,0.26562 l -0.29688,1.4375 q -0.84375,-0.21875 -1.40625,-0.21875 -0.48437,0 -0.73437,0.25 -0.25,0.23437 -0.4375,1.125 l -0.21875,1.04687 h 1.84375 l -0.26563,1.26563 h -1.84375 l -1.75,8.40624 z m 5.12079,-3.31249 1.64062,-0.0937 q 0,0.70313 0.21875,1.21875 0.21875,0.5 0.79688,0.8125 0.59375,0.3125 1.375,0.3125 1.09375,0 1.64062,-0.4375 0.54688,-0.4375 0.54688,-1.01562 0,-0.4375 -0.32813,-0.8125 -0.32812,-0.39063 -1.64062,-0.95313 -1.3125,-0.5625 -1.67188,-0.78125 -0.60937,-0.375 -0.92187,-0.875 -0.3125,-0.51562 -0.3125,-1.17187 0,-1.14063 0.90625,-1.95313 0.92187,-0.82812 2.5625,-0.82812 1.82812,0 2.76562,0.84375 0.95313,0.84375 1,2.21875 l -1.60937,0.10937 q -0.0469,-0.875 -0.625,-1.39062 -0.57813,-0.51563 -1.65625,-0.51563 -0.84375,0 -1.32813,0.40625 -0.46875,0.39063 -0.46875,0.84375 0,0.45313 0.40625,0.79688 0.28125,0.23437 1.42188,0.73437 1.89062,0.8125 2.375,1.28125 0.78125,0.76563 0.78125,1.84375 0,0.71875 -0.4375,1.42188 -0.4375,0.6875 -1.34375,1.10937 -0.90625,0.40625 -2.14063,0.40625 -1.67187,0 -2.84375,-0.82812 -1.1875,-0.82813 -1.10937,-2.70313 z m 16.26562,0.0312 1.60938,0.15625 q -0.34375,1.1875 -1.59375,2.26562 -1.23438,1.07813 -2.96875,1.07813 -1.0625,0 -1.96875,-0.5 -0.89063,-0.5 -1.35938,-1.4375 -0.46875,-0.95313 -0.46875,-2.15625 0,-1.59375 0.73438,-3.07812 0.73437,-1.48438 1.89062,-2.20313 1.17188,-0.73437 2.53125,-0.73437 1.73438,0 2.76563,1.07812 1.03125,1.0625 1.03125,2.92188 0,0.71875 -0.125,1.46875 h -7.125 q -0.0469,0.28125 -0.0469,0.5 0,1.35937 0.625,2.07812 0.625,0.71875 1.53125,0.71875 0.84375,0 1.65625,-0.54688 0.82813,-0.5625 1.28125,-1.60937 z m -4.78125,-2.40625 h 5.42188 q 0.0156,-0.25 0.0156,-0.35937 0,-1.23438 -0.625,-1.89063 -0.625,-0.67187 -1.59375,-0.67187 -1.0625,0 -1.9375,0.73437 -0.85937,0.71875 -1.28125,2.1875 z m 11.90699,4.34375 -0.26563,1.35937 q -0.59375,0.14063 -1.15625,0.14063 -0.98437,0 -1.5625,-0.46875 -0.4375,-0.375 -0.4375,-1 0,-0.3125 0.23438,-1.46875 l 1.17187,-5.625 h -1.29687 l 0.26562,-1.26562 h 1.29688 l 0.5,-2.375 1.89062,-1.14063 -0.73437,3.51563 h 1.625 l -0.28125,1.26562 h -1.60938 l -1.125,5.35937 q -0.20312,1.01563 -0.20312,1.21875 0,0.28125 0.15625,0.4375 0.17187,0.15625 0.5625,0.15625 0.54687,0 0.96875,-0.10937 z"
     fill-rule="nonzero"
     id="path57" />
  <path
     fill="#ffd966"
     d="M 532.53018,153.81496 H 240.82941 l -16.51969,16.51968 16.51969,16.51969 h 291.70078 z"
     fill-rule="evenodd"
     id="path59" />
  <path
     stroke="#000000"
     stroke-width="1"
     stroke-linejoin="round"
     stroke-linecap="butt"
     d="M 532.53018,153.81496 H 240.82941 l -16.51969,16.51968 16.51969,16.51969 h 291.70078 z"
     fill-rule="evenodd"
     id="path61" />
  <path
     fill="#000000"
     d="m 334.81696,177.25464 v -13.35938 h 9.01563 v 1.57813 h -7.25 v 4.14062 h 6.26562 v 1.57813 h -6.26562 v 6.0625 z"
     fill-rule="nonzero"
     id="path63" />
  <path
     fill="#000000"
     d="m 351.97856,173.72339 1.65625,0.17188 q -0.625,1.8125 -1.76562,2.70312 -1.14063,0.875 -2.60938,0.875 -1.57812,0 -2.5625,-1.01562 -0.96875,-1.03125 -0.96875,-2.85938 0,-1.57812 0.625,-3.10937 0.64063,-1.53125 1.79688,-2.32813 1.17187,-0.79687 2.6875,-0.79687 1.54687,0 2.45312,0.875 0.92188,0.875 0.92188,2.32812 l -1.625,0.10938 q -0.0156,-0.92188 -0.54688,-1.4375 -0.51562,-0.51563 -1.35937,-0.51563 -1,0 -1.73438,0.625 -0.71875,0.625 -1.14062,1.90625 -0.40625,1.28125 -0.40625,2.46875 0,1.23438 0.54687,1.85938 0.54688,0.60937 1.34375,0.60937 0.79688,0 1.53125,-0.60937 0.73438,-0.60938 1.15625,-1.85938 z m 2.9375,-0.14062 q 0,-2.82813 1.67188,-4.6875 1.375,-1.53125 3.60937,-1.53125 1.75,0 2.8125,1.09375 1.07813,1.09375 1.07813,2.95312 0,1.65625 -0.67188,3.09375 -0.67187,1.4375 -1.92187,2.20313 -1.25,0.76562 -2.625,0.76562 -1.125,0 -2.04688,-0.48437 -0.92187,-0.48438 -1.42187,-1.35938 -0.48438,-0.89062 -0.48438,-2.04687 z m 1.65625,-0.15625 q 0,1.35937 0.65625,2.0625 0.65625,0.70312 1.65625,0.70312 0.53125,0 1.04688,-0.20312 0.53125,-0.21875 0.96875,-0.65625 0.45312,-0.4375 0.76562,-1 0.3125,-0.5625 0.5,-1.20313 0.28125,-0.90625 0.28125,-1.73437 0,-1.3125 -0.65625,-2.03125 -0.65625,-0.73438 -1.65625,-0.73438 -0.78125,0 -1.42187,0.375 -0.625,0.375 -1.14063,1.09375 -0.51562,0.70313 -0.76562,1.64063 -0.23438,0.9375 -0.23438,1.6875 z m 15.03197,2.07812 q -1.73437,1.96875 -3.5625,1.96875 -1.10937,0 -1.79687,-0.64062 -0.6875,-0.64063 -0.6875,-1.57813 0,-0.60937 0.29687,-2.09375 l 1.17188,-5.57812 h 1.65625 l -1.29688,6.1875 q -0.17187,0.76562 -0.17187,1.20312 0,0.54688 0.32812,0.85938 0.34375,0.29687 0.98438,0.29687 0.70312,0 1.35937,-0.32812 0.65625,-0.34375 1.125,-0.92188 0.48438,-0.57812 0.79688,-1.35937 0.1875,-0.5 0.45312,-1.76563 l 0.875,-4.17187 h 1.65625 l -2.03125,9.67187 h -1.51562 z m 3.78196,1.75 2.01563,-9.67187 h 1.5 l -0.35938,1.6875 q 0.96875,-1 1.8125,-1.45313 0.85938,-0.45312 1.73438,-0.45312 1.1875,0 1.84375,0.64062 0.67187,0.625 0.67187,1.70313 0,0.53125 -0.23437,1.6875 l -1.23438,5.85937 h -1.64062 l 1.28125,-6.125 q 0.1875,-0.89062 0.1875,-1.32812 0,-0.48438 -0.32813,-0.78125 -0.32812,-0.29688 -0.95312,-0.29688 -1.28125,0 -2.26563,0.90625 -0.98437,0.90625 -1.45312,3.125 l -0.9375,4.5 z m 14.21947,-1.34375 -0.26562,1.35938 q -0.59375,0.14062 -1.15625,0.14062 -0.98438,0 -1.5625,-0.46875 -0.4375,-0.375 -0.4375,-1 0,-0.3125 0.23437,-1.46875 l 1.17188,-5.625 h -1.29688 l 0.26563,-1.26562 h 1.29687 l 0.5,-2.375 1.89063,-1.14063 -0.73438,3.51563 h 1.625 l -0.28125,1.26562 h -1.60937 l -1.125,5.35938 q -0.20313,1.01562 -0.20313,1.21875 0,0.28125 0.15625,0.4375 0.17188,0.15625 0.5625,0.15625 0.54688,0 0.96875,-0.10938 z m 1.73018,1.34375 0.39063,-1.875 h 1.875 l -0.34375,1.64063 q -0.3125,1.46875 -0.96875,2.14062 -0.64063,0.6875 -1.51563,0.79688 l 0.14063,-0.71875 q 1.09375,-0.3125 1.4375,-1.98438 z m 11.3083,-1.40625 q -1.40625,1.625 -2.95312,1.625 -1.375,0 -2.29688,-1.01562 -0.90625,-1.01563 -0.90625,-2.95313 0,-1.76562 0.71875,-3.21875 0.73438,-1.46875 1.8125,-2.1875 1.09375,-0.73437 2.1875,-0.73437 1.79688,0 2.71875,1.73437 l 1.09375,-5.20312 h 1.64063 l -2.78125,13.35937 h -1.53124 z m -4.51562,-2.64062 q 0,1 0.20312,1.59375 0.20313,0.57812 0.67188,0.96875 0.48437,0.375 1.17187,0.375 1.10938,0 2.03125,-1.15625 1.21875,-1.54688 1.21875,-3.82813 0,-1.14062 -0.60937,-1.78125 -0.59375,-0.65625 -1.51563,-0.65625 -0.59375,0 -1.07812,0.26563 -0.48438,0.26562 -0.96875,0.90625 -0.46875,0.625 -0.79688,1.59375 -0.32812,0.96875 -0.32812,1.71875 z m 14.89136,2.84375 q -0.85937,0.73437 -1.65625,1.07812 -0.78125,0.34375 -1.6875,0.34375 -1.34375,0 -2.17187,-0.78125 -0.8125,-0.79687 -0.8125,-2.03125 0,-0.79687 0.375,-1.42187 0.375,-0.625 0.98437,-1 0.60938,-0.39063 1.48438,-0.54688 0.5625,-0.10937 2.10937,-0.17187 1.5625,-0.0625 2.23438,-0.32813 0.1875,-0.67187 0.1875,-1.125 0,-0.57812 -0.42188,-0.90625 -0.5625,-0.45312 -1.67187,-0.45312 -1.03125,0 -1.70313,0.46875 -0.65625,0.45312 -0.95312,1.29687 l -1.67188,-0.14062 q 0.51563,-1.4375 1.60938,-2.20313 1.10937,-0.76562 2.79687,-0.76562 1.79688,0 2.84375,0.85937 0.79688,0.625 0.79688,1.65625 0,0.76563 -0.21875,1.79688 l -0.53125,2.40625 q -0.26563,1.14062 -0.26563,1.85937 0,0.45313 0.20313,1.3125 h -1.67188 q -0.125,-0.46875 -0.1875,-1.20312 z m 0.60938,-3.70313 q -0.34375,0.14063 -0.75,0.21875 -0.39063,0.0625 -1.3125,0.15625 -1.4375,0.125 -2.03125,0.32813 -0.59375,0.1875 -0.90625,0.625 -0.29688,0.42187 -0.29688,0.9375 0,0.6875 0.48438,1.14062 0.48437,0.4375 1.35937,0.4375 0.82813,0 1.57813,-0.42187 0.75,-0.4375 1.1875,-1.20313 0.4375,-0.78125 0.6875,-2.21875 z m 7.09444,3.5625 -0.26562,1.35938 q -0.59375,0.14062 -1.15625,0.14062 -0.98438,0 -1.5625,-0.46875 -0.4375,-0.375 -0.4375,-1 0,-0.3125 0.23437,-1.46875 l 1.17188,-5.625 h -1.29688 l 0.26563,-1.26562 h 1.29687 l 0.5,-2.375 1.89063,-1.14063 -0.73438,3.51563 h 1.625 l -0.28125,1.26562 h -1.60937 l -1.125,5.35938 q -0.20313,1.01562 -0.20313,1.21875 0,0.28125 0.15625,0.4375 0.17188,0.15625 0.5625,0.15625 0.54688,0 0.96875,-0.10938 z m 7.8552,0.14063 q -0.85937,0.73437 -1.65625,1.07812 -0.78125,0.34375 -1.6875,0.34375 -1.34374,0 -2.17187,-0.78125 -0.8125,-0.79687 -0.8125,-2.03125 0,-0.79687 0.375,-1.42187 0.375,-0.625 0.98438,-1 0.60937,-0.39063 1.48437,-0.54688 0.5625,-0.10937 2.10937,-0.17187 1.5625,-0.0625 2.23438,-0.32813 0.1875,-0.67187 0.1875,-1.125 0,-0.57812 -0.42188,-0.90625 -0.5625,-0.45312 -1.67187,-0.45312 -1.03125,0 -1.70313,0.46875 -0.65625,0.45312 -0.95312,1.29687 l -1.67187,-0.14062 q 0.51562,-1.4375 1.60937,-2.20313 1.10937,-0.76562 2.79687,-0.76562 1.79688,0 2.84375,0.85937 0.79688,0.625 0.79688,1.65625 0,0.76563 -0.21875,1.79688 l -0.53125,2.40625 q -0.26563,1.14062 -0.26563,1.85937 0,0.45313 0.20313,1.3125 h -1.67188 q -0.125,-0.46875 -0.1875,-1.20312 z m 0.60938,-3.70313 q -0.34375,0.14063 -0.75,0.21875 -0.39063,0.0625 -1.3125,0.15625 -1.4375,0.125 -2.03125,0.32813 -0.59375,0.1875 -0.90625,0.625 -0.29687,0.42187 -0.29687,0.9375 0,0.6875 0.48437,1.14062 0.48437,0.4375 1.35937,0.4375 0.82813,0 1.57813,-0.42187 0.75,-0.4375 1.1875,-1.20313 0.4375,-0.78125 0.6875,-2.21875 z"
     fill-rule="nonzero"
     id="path65" />
  <path
     fill="#f4cccc"
     d="m 224.30972,199.75721 h 291.70077 l 16.5197,16.51968 -16.5197,16.51969 H 224.30972 Z"
     fill-rule="evenodd"
     id="path67" />
  <path
     stroke="#000000"
     stroke-width="1"
     stroke-linejoin="round"
     stroke-linecap="butt"
     d="m 224.30972,199.75721 h 291.70077 l 16.5197,16.51968 -16.5197,16.51969 H 224.30972 Z"
     fill-rule="evenodd"
     id="path69" />
  <path
     fill="#000000"
     d="m 274.51851,223.19689 -3.6875,-9.67187 h 1.73436 l 2.07814,5.79687 q 0.32811,0.9375 0.625,1.9375 0.20311,-0.76562 0.60936,-1.82812 l 2.14063,-5.90625 h 1.6875 l -3.65624,9.67187 z m 6.93749,0 v -13.35937 h 9.01562 v 1.57812 h -7.25 v 4.14063 h 6.26563 v 1.57812 h -6.26563 v 6.0625 z m 11.09911,-11.46875 v -1.89062 h 1.64062 v 1.89062 z m 0,11.46875 v -9.67187 h 1.64062 v 9.67187 z m 4.09793,0 v -13.35937 h 1.64063 v 13.35937 z m 10.8167,-3.10937 1.6875,0.20312 q -0.40625,1.48438 -1.48437,2.3125 -1.07813,0.8125 -2.76563,0.8125 -2.125,0 -3.375,-1.29687 -1.23437,-1.3125 -1.23437,-3.67188 0,-2.45312 1.25,-3.79687 1.26562,-1.34375 3.26562,-1.34375 1.9375,0 3.15625,1.32812 1.23438,1.3125 1.23438,3.70313 0,0.15625 0,0.4375 h -7.21875 q 0.0937,1.59375 0.90625,2.45312 0.8125,0.84375 2.01562,0.84375 0.90625,0 1.54688,-0.46875 0.64062,-0.48437 1.01562,-1.51562 z m -5.39062,-2.65625 h 5.40625 q -0.10938,-1.21875 -0.625,-1.82813 -0.78125,-0.95312 -2.03125,-0.95312 -1.125,0 -1.90625,0.76562 -0.76563,0.75 -0.84375,2.01563 z m 9.59446,-2.04688 v -1.85937 h 1.85938 v 1.85937 z m 0,7.8125 v -1.875 h 1.85938 v 1.875 z m 4.73018,3.70313 v -13.375 h 1.48438 v 1.25 q 0.53125,-0.73438 1.1875,-1.09375 0.67187,-0.375 1.625,-0.375 1.23437,0 2.17187,0.64062 0.95313,0.625 1.4375,1.79688 0.48438,1.15625 0.48438,2.54687 0,1.48438 -0.53125,2.67188 -0.53125,1.1875 -1.54688,1.82812 -1.01562,0.625 -2.14062,0.625 -0.8125,0 -1.46875,-0.34375 -0.65625,-0.34375 -1.0625,-0.875 v 4.70313 z m 1.48438,-8.48438 q 0,1.85938 0.75,2.76563 0.76562,0.89062 1.82812,0.89062 1.09375,0 1.875,-0.92187 0.78125,-0.9375 0.78125,-2.875 0,-1.84375 -0.76562,-2.76563 -0.75,-0.92187 -1.8125,-0.92187 -1.04688,0 -1.85938,0.98437 -0.79687,0.96875 -0.79687,2.84375 z m 10.67259,4.78125 -2.96875,-9.67187 h 1.70312 l 1.53125,5.57812 0.57813,2.07813 q 0.0469,-0.15625 0.5,-2 l 1.54687,-5.65625 h 1.6875 l 1.4375,5.60937 0.48438,1.84375 0.5625,-1.85937 1.65625,-5.59375 h 1.59375 l -3.03125,9.67187 h -1.70313 l -1.53125,-5.79687 -0.375,-1.64063 -1.95312,7.4375 z m 11.67607,0 v -9.67187 h 1.46875 v 1.46875 q 0.5625,-1.03125 1.03125,-1.35938 0.48437,-0.32812 1.0625,-0.32812 0.82812,0 1.6875,0.53125 l -0.5625,1.51562 q -0.60938,-0.35937 -1.20313,-0.35937 -0.54687,0 -0.96875,0.32812 -0.42187,0.32813 -0.60937,0.89063 -0.28125,0.875 -0.28125,1.92187 v 5.0625 z m 6.2283,-11.46875 v -1.89062 h 1.64063 v 1.89062 z m 0,11.46875 v -9.67187 h 1.64063 v 9.67187 z m 7.72295,-1.46875 0.23437,1.45313 q -0.6875,0.14062 -1.23437,0.14062 -0.89063,0 -1.39063,-0.28125 -0.48437,-0.28125 -0.6875,-0.73437 -0.20312,-0.46875 -0.20312,-1.9375 v -5.57813 h -1.20313 v -1.26562 h 1.20313 v -2.39063 l 1.625,-0.98437 v 3.375 h 1.65625 v 1.26562 h -1.65625 v 5.67188 q 0,0.6875 0.0781,0.89062 0.0937,0.20313 0.28125,0.32813 0.20313,0.10937 0.57813,0.10937 0.26562,0 0.71875,-0.0625 z m 8.23018,-1.64062 1.6875,0.20312 q -0.40625,1.48438 -1.48438,2.3125 -1.07812,0.8125 -2.76562,0.8125 -2.125,0 -3.375,-1.29687 -1.23438,-1.3125 -1.23438,-3.67188 0,-2.45312 1.25,-3.79687 1.26563,-1.34375 3.26563,-1.34375 1.9375,0 3.15625,1.32812 1.23437,1.3125 1.23437,3.70313 0,0.15625 0,0.4375 h -7.21875 q 0.0937,1.59375 0.90625,2.45312 0.8125,0.84375 2.01563,0.84375 0.90625,0 1.54687,-0.46875 0.64063,-0.48437 1.01563,-1.51562 z m -5.39063,-2.65625 h 5.40625 q -0.10937,-1.21875 -0.625,-1.82813 -0.78125,-0.95312 -2.03125,-0.95312 -1.125,0 -1.90625,0.76562 -0.76562,0.75 -0.84375,2.01563 z m 9.59447,-2.04688 v -1.85937 h 1.85937 v 1.85937 z m 0,7.8125 v -1.875 h 1.85937 v 1.875 z"
     fill-rule="nonzero"
     id="path71" />
  <path
     fill="#000000"
     d="m 370.96162,223.19689 1.76562,-8.40625 h -1.48437 l 0.26562,-1.26562 h 1.48438 l 0.28125,-1.375 q 0.21875,-1.03125 0.4375,-1.48438 0.23437,-0.45312 0.75,-0.75 0.53125,-0.29687 1.4375,-0.29687 0.625,0 1.82812,0.26562 l -0.29687,1.4375 q -0.84375,-0.21875 -1.40625,-0.21875 -0.48438,0 -0.73438,0.25 -0.25,0.23438 -0.4375,1.125 l -0.21875,1.04688 h 1.84375 l -0.26562,1.26562 h -1.84375 l -1.75,8.40625 z m 11.48018,-1.40625 q -1.40625,1.625 -2.95313,1.625 -1.375,0 -2.29687,-1.01562 -0.90625,-1.01563 -0.90625,-2.95313 0,-1.76562 0.71875,-3.21875 0.73437,-1.46875 1.8125,-2.1875 1.09375,-0.73437 2.1875,-0.73437 1.79687,0 2.71875,1.73437 l 1.09375,-5.20312 h 1.64062 l -2.78125,13.35937 h -1.53125 z m -4.51563,-2.64062 q 0,1 0.20313,1.59375 0.20312,0.57812 0.67187,0.96875 0.48438,0.375 1.17188,0.375 1.10937,0 2.03125,-1.15625 1.21875,-1.54688 1.21875,-3.82813 0,-1.14062 -0.60938,-1.78125 -0.59375,-0.65625 -1.51562,-0.65625 -0.59375,0 -1.07813,0.26563 -0.48437,0.26562 -0.96875,0.90625 -0.46875,0.625 -0.79687,1.59375 -0.32813,0.96875 -0.32813,1.71875 z"
     fill-rule="nonzero"
     id="path73" />
  <path
     fill="#000000"
     d="m 387.33315,223.19689 v -1.875 h 1.875 v 1.875 q 0,1.03125 -0.375,1.65625 -0.35937,0.64063 -1.15625,0.98438 l -0.45312,-0.70313 q 0.51562,-0.21875 0.76562,-0.67187 0.25,-0.4375 0.28125,-1.26563 z"
     fill-rule="nonzero"
     id="path75" />
  <path
     fill="#000000"
     d="m 391.76645,219.52501 q 0,-2.82813 1.67188,-4.6875 1.375,-1.53125 3.60937,-1.53125 1.75,0 2.8125,1.09375 1.07813,1.09375 1.07813,2.95312 0,1.65625 -0.67188,3.09375 -0.67187,1.4375 -1.92187,2.20313 -1.25,0.76562 -2.625,0.76562 -1.125,0 -2.04688,-0.48437 -0.92187,-0.48438 -1.42187,-1.35938 -0.48438,-0.89062 -0.48438,-2.04687 z m 1.65625,-0.15625 q 0,1.35937 0.65625,2.0625 0.65625,0.70312 1.65625,0.70312 0.53125,0 1.04688,-0.20312 0.53125,-0.21875 0.96875,-0.65625 0.45312,-0.4375 0.76562,-1 0.3125,-0.5625 0.5,-1.20313 0.28125,-0.90625 0.28125,-1.73437 0,-1.3125 -0.65625,-2.03125 -0.65625,-0.73438 -1.65625,-0.73438 -0.78125,0 -1.42187,0.375 -0.625,0.375 -1.14063,1.09375 -0.51562,0.70313 -0.76562,1.64063 -0.23438,0.9375 -0.23438,1.6875 z m 8.65697,3.82812 1.76563,-8.40625 h -1.48438 l 0.26563,-1.26562 h 1.48437 l 0.28125,-1.375 q 0.21875,-1.03125 0.4375,-1.48438 0.23438,-0.45312 0.75002,-0.75 0.53125,-0.29687 1.4375,-0.29687 0.625,0 1.82812,0.26562 l -0.29687,1.4375 q -0.84375,-0.21875 -1.40625,-0.21875 -0.48438,0 -0.73438,0.25 -0.25,0.23438 -0.4375,1.125 l -0.21875,1.04688 h 1.84375 l -0.26562,1.26562 h -1.84375 l -1.75002,8.40625 z m 5.18331,0 1.76562,-8.40625 h -1.48437 l 0.26562,-1.26562 h 1.48438 l 0.28125,-1.375 q 0.21875,-1.03125 0.4375,-1.48438 0.23437,-0.45312 0.75,-0.75 0.53125,-0.29687 1.4375,-0.29687 0.625,0 1.82812,0.26562 l -0.29687,1.4375 q -0.84375,-0.21875 -1.40625,-0.21875 -0.48438,0 -0.73438,0.25 -0.25,0.23438 -0.4375,1.125 l -0.21875,1.04688 h 1.84375 l -0.26562,1.26562 h -1.84375 l -1.75,8.40625 z m 5.12081,-3.3125 1.64062,-0.0937 q 0,0.70313 0.21875,1.21875 0.21875,0.5 0.79688,0.8125 0.59375,0.3125 1.375,0.3125 1.09375,0 1.64062,-0.4375 0.54688,-0.4375 0.54688,-1.01562 0,-0.4375 -0.32813,-0.8125 -0.32812,-0.39063 -1.64062,-0.95313 -1.3125,-0.5625 -1.67188,-0.78125 -0.60937,-0.375 -0.92187,-0.875 -0.3125,-0.51562 -0.3125,-1.17187 0,-1.14063 0.90625,-1.95313 0.92187,-0.82812 2.5625,-0.82812 1.82812,0 2.76562,0.84375 0.95313,0.84375 1,2.21875 l -1.60937,0.10937 q -0.0469,-0.875 -0.625,-1.39062 -0.57813,-0.51563 -1.65625,-0.51563 -0.84375,0 -1.32813,0.40625 -0.46875,0.39063 -0.46875,0.84375 0,0.45313 0.40625,0.79688 0.28125,0.23437 1.42188,0.73437 1.89062,0.8125 2.375,1.28125 0.78125,0.76563 0.78125,1.84375 0,0.71875 -0.4375,1.42188 -0.4375,0.6875 -1.34375,1.10937 -0.90625,0.40625 -2.14063,0.40625 -1.67187,0 -2.84375,-0.82812 -1.1875,-0.82813 -1.10937,-2.70313 z m 16.26562,0.0312 1.60938,0.15625 q -0.34375,1.1875 -1.59375,2.26562 -1.23438,1.07813 -2.96875,1.07813 -1.0625,0 -1.96875,-0.5 -0.89063,-0.5 -1.35938,-1.4375 -0.46875,-0.95313 -0.46875,-2.15625 0,-1.59375 0.73438,-3.07813 0.73437,-1.48437 1.89062,-2.20312 1.17188,-0.73438 2.53125,-0.73438 1.73438,0 2.76563,1.07813 1.03125,1.0625 1.03125,2.92187 0,0.71875 -0.125,1.46875 h -7.125 q -0.0469,0.28125 -0.0469,0.5 0,1.35938 0.625,2.07813 0.625,0.71875 1.53125,0.71875 0.84375,0 1.65625,-0.54688 0.82813,-0.5625 1.28125,-1.60937 z m -4.78125,-2.40625 h 5.42188 q 0.0156,-0.25 0.0156,-0.35938 0,-1.23437 -0.625,-1.89062 -0.625,-0.67188 -1.59375,-0.67188 -1.0625,0 -1.9375,0.73438 -0.85937,0.71875 -1.28125,2.1875 z m 11.90696,4.34375 -0.26562,1.35937 q -0.59375,0.14063 -1.15625,0.14063 -0.98438,0 -1.5625,-0.46875 -0.4375,-0.375 -0.4375,-1 0,-0.3125 0.23437,-1.46875 l 1.17188,-5.625 h -1.29688 l 0.26563,-1.26563 h 1.29687 l 0.5,-2.375 1.89063,-1.14062 -0.73438,3.51562 h 1.625 l -0.28125,1.26563 h -1.60937 l -1.125,5.35937 q -0.20313,1.01563 -0.20313,1.21875 0,0.28125 0.15625,0.4375 0.17188,0.15625 0.5625,0.15625 0.54688,0 0.96875,-0.10937 z"
     fill-rule="nonzero"
     id="path77" />
  <path
     fill="#000000"
     d="m 438.14592,223.19689 v -1.875 h 1.875 v 1.875 q 0,1.03125 -0.375,1.65625 -0.35938,0.64063 -1.15625,0.98438 l -0.45313,-0.70313 q 0.51563,-0.21875 0.76563,-0.67187 0.25,-0.4375 0.28125,-1.26563 z"
     fill-rule="nonzero"
     id="path79" />
  <path
     fill="#000000"
     d="m 448.8136,221.79064 q -1.40625,1.625 -2.95312,1.625 -1.375,0 -2.29688,-1.01562 -0.90625,-1.01563 -0.90625,-2.95313 0,-1.76562 0.71875,-3.21875 0.73438,-1.46875 1.8125,-2.1875 1.09375,-0.73437 2.1875,-0.73437 1.79688,0 2.71875,1.73437 l 1.09375,-5.20312 h 1.64063 l -2.78125,13.35937 h -1.53125 z m -4.51562,-2.64062 q 0,1 0.20312,1.59375 0.20313,0.57812 0.67188,0.96875 0.48437,0.375 1.17187,0.375 1.10938,0 2.03125,-1.15625 1.21875,-1.54688 1.21875,-3.82813 0,-1.14062 -0.60937,-1.78125 -0.59375,-0.65625 -1.51563,-0.65625 -0.59375,0 -1.07812,0.26563 -0.48438,0.26562 -0.96875,0.90625 -0.46875,0.625 -0.79688,1.59375 -0.32812,0.96875 -0.32812,1.71875 z m 14.89135,2.84375 q -0.85937,0.73437 -1.65625,1.07812 -0.78125,0.34375 -1.6875,0.34375 -1.34375,0 -2.17187,-0.78125 -0.8125,-0.79687 -0.8125,-2.03125 0,-0.79687 0.375,-1.42187 0.375,-0.625 0.98437,-1 0.60938,-0.39063 1.48438,-0.54688 0.5625,-0.10937 2.10937,-0.17187 1.5625,-0.0625 2.23438,-0.32813 0.1875,-0.67187 0.1875,-1.125 0,-0.57812 -0.42188,-0.90625 -0.5625,-0.45312 -1.67187,-0.45312 -1.03125,0 -1.70313,0.46875 -0.65625,0.45312 -0.95312,1.29687 l -1.67188,-0.14062 q 0.51563,-1.4375 1.60938,-2.20313 1.10937,-0.76562 2.79687,-0.76562 1.79688,0 2.84375,0.85937 0.79688,0.625 0.79688,1.65625 0,0.76563 -0.21875,1.79688 l -0.53125,2.40625 q -0.26563,1.14062 -0.26563,1.85937 0,0.45313 0.20313,1.3125 h -1.67188 q -0.125,-0.46875 -0.1875,-1.20312 z m 0.60938,-3.70313 q -0.34375,0.14063 -0.75,0.21875 -0.39063,0.0625 -1.3125,0.15625 -1.4375,0.125 -2.03125,0.32813 -0.59375,0.1875 -0.90625,0.625 -0.29688,0.42187 -0.29688,0.9375 0,0.6875 0.48438,1.14062 0.48437,0.4375 1.35937,0.4375 0.82813,0 1.57813,-0.42187 0.75,-0.4375 1.1875,-1.20313 0.4375,-0.78125 0.6875,-2.21875 z m 7.09445,3.5625 -0.26563,1.35938 q -0.59375,0.14062 -1.15625,0.14062 -0.98437,0 -1.5625,-0.46875 -0.4375,-0.375 -0.4375,-1 0,-0.3125 0.23438,-1.46875 l 1.17187,-5.625 h -1.29687 l 0.26562,-1.26562 h 1.29688 l 0.5,-2.375 1.89062,-1.14063 -0.73437,3.51563 h 1.625 l -0.28125,1.26562 h -1.60938 l -1.125,5.35938 q -0.20312,1.01562 -0.20312,1.21875 0,0.28125 0.15625,0.4375 0.17187,0.15625 0.5625,0.15625 0.54687,0 0.96875,-0.10938 z m 7.85519,0.14063 q -0.85937,0.73437 -1.65625,1.07812 -0.78125,0.34375 -1.6875,0.34375 -1.34375,0 -2.17187,-0.78125 -0.8125,-0.79687 -0.8125,-2.03125 0,-0.79687 0.375,-1.42187 0.375,-0.625 0.98437,-1 0.60938,-0.39063 1.48438,-0.54688 0.5625,-0.10937 2.10937,-0.17187 1.5625,-0.0625 2.23438,-0.32813 0.1875,-0.67187 0.1875,-1.125 0,-0.57812 -0.42188,-0.90625 -0.5625,-0.45312 -1.67187,-0.45312 -1.03125,0 -1.70313,0.46875 -0.65625,0.45312 -0.95312,1.29687 l -1.67188,-0.14062 q 0.51563,-1.4375 1.60938,-2.20313 1.10937,-0.76562 2.79687,-0.76562 1.79688,0 2.84375,0.85937 0.79688,0.625 0.79688,1.65625 0,0.76563 -0.21875,1.79688 l -0.53125,2.40625 q -0.26563,1.14062 -0.26563,1.85937 0,0.45313 0.20313,1.3125 h -1.67188 q -0.125,-0.46875 -0.1875,-1.20312 z m 0.60938,-3.70313 q -0.34375,0.14063 -0.75,0.21875 -0.39063,0.0625 -1.3125,0.15625 -1.4375,0.125 -2.03125,0.32813 -0.59375,0.1875 -0.90625,0.625 -0.29688,0.42187 -0.29688,0.9375 0,0.6875 0.48438,1.14062 0.48437,0.4375 1.35937,0.4375 0.82813,0 1.57813,-0.42187 0.75,-0.4375 1.1875,-1.20313 0.4375,-0.78125 0.6875,-2.21875 z"
     fill-rule="nonzero"
     id="path81" />
  <path
     fill="#e06666"
     d="M 532.53018,245.69947 H 240.82941 l -16.51969,16.51968 16.51969,16.5197 h 291.70078 z"
     fill-rule="evenodd"
     id="path83" />
  <path
     stroke="#000000"
     stroke-width="1"
     stroke-linejoin="round"
     stroke-linecap="butt"
     d="M 532.53018,245.69947 H 240.82941 l -16.51969,16.51968 16.51969,16.5197 h 291.70078 z"
     fill-rule="evenodd"
     id="path85" />
  <path
     fill="#000000"
     d="m 355.56385,269.13916 v -13.35938 h 9.01562 v 1.57813 h -7.25 v 4.14062 h 6.26563 v 1.57813 h -6.26563 v 6.0625 z"
     fill-rule="nonzero"
     id="path87" />
  <path
     fill="#000000"
     d="m 372.72543,265.60793 1.65625,0.17187 q -0.625,1.8125 -1.76562,2.70313 -1.14063,0.875 -2.60938,0.875 -1.57812,0 -2.5625,-1.01563 -0.96875,-1.03125 -0.96875,-2.85937 0,-1.57813 0.625,-3.10938 0.64063,-1.53125 1.79688,-2.32812 1.17187,-0.79688 2.6875,-0.79688 1.54687,0 2.45312,0.875 0.92188,0.875 0.92188,2.32813 l -1.625,0.10937 q -0.0156,-0.92187 -0.54688,-1.4375 -0.51562,-0.51562 -1.35937,-0.51562 -1,0 -1.73438,0.625 -0.71875,0.625 -1.14062,1.90625 -0.40625,1.28125 -0.40625,2.46875 0,1.23437 0.54687,1.85937 0.54688,0.60938 1.34375,0.60938 0.79688,0 1.53125,-0.60938 0.73438,-0.60937 1.15625,-1.85937 z m 2.9375,-0.14063 q 0,-2.82812 1.67188,-4.6875 1.375,-1.53125 3.60937,-1.53125 1.75,0 2.8125,1.09375 1.07813,1.09375 1.07813,2.95313 0,1.65625 -0.67188,3.09375 -0.67187,1.4375 -1.92187,2.20312 -1.25,0.76563 -2.625,0.76563 -1.125,0 -2.04688,-0.48438 -0.92187,-0.48437 -1.42187,-1.35937 -0.48438,-0.89063 -0.48438,-2.04688 z m 1.65625,-0.15625 q 0,1.35938 0.65625,2.0625 0.65625,0.70313 1.65625,0.70313 0.53125,0 1.04688,-0.20313 0.53125,-0.21875 0.96875,-0.65625 0.45312,-0.4375 0.76562,-1 0.3125,-0.5625 0.5,-1.20312 0.28125,-0.90625 0.28125,-1.73438 0,-1.3125 -0.65625,-2.03125 -0.65625,-0.73437 -1.65625,-0.73437 -0.78125,0 -1.42187,0.375 -0.625,0.375 -1.14063,1.09375 -0.51562,0.70312 -0.76562,1.64062 -0.23438,0.9375 -0.23438,1.6875 z m 15.03197,2.07813 q -1.73437,1.96875 -3.5625,1.96875 -1.10937,0 -1.79687,-0.64063 -0.6875,-0.64062 -0.6875,-1.57812 0,-0.60938 0.29687,-2.09375 l 1.17188,-5.57813 h 1.65625 l -1.29688,6.1875 q -0.17187,0.76563 -0.17187,1.20313 0,0.54687 0.32812,0.85937 0.34375,0.29688 0.98438,0.29688 0.70312,0 1.35937,-0.32813 0.65625,-0.34375 1.125,-0.92187 0.48438,-0.57813 0.79688,-1.35938 0.1875,-0.5 0.45312,-1.76562 l 0.875,-4.17188 h 1.65625 l -2.03125,9.67188 h -1.51562 z m 3.78196,1.75 2.01563,-9.67188 h 1.5 l -0.35938,1.6875 q 0.96875,-1 1.8125,-1.45312 0.85938,-0.45313 1.73438,-0.45313 1.1875,0 1.84375,0.64063 0.67187,0.625 0.67187,1.70312 0,0.53125 -0.23437,1.6875 l -1.23438,5.85938 h -1.64062 l 1.28125,-6.125 q 0.1875,-0.89063 0.1875,-1.32813 0,-0.48437 -0.32813,-0.78125 -0.32812,-0.29687 -0.95312,-0.29687 -1.28125,0 -2.26563,0.90625 -0.98437,0.90625 -1.45312,3.125 l -0.9375,4.5 z m 14.21949,-1.34375 -0.26562,1.35937 q -0.59375,0.14063 -1.15625,0.14063 -0.98438,0 -1.5625,-0.46875 -0.4375,-0.375 -0.4375,-1 0,-0.3125 0.23437,-1.46875 l 1.17188,-5.625 h -1.29688 l 0.26563,-1.26563 h 1.29687 l 0.5,-2.375 1.89063,-1.14062 -0.73438,3.51562 h 1.625 l -0.28125,1.26563 h -1.60937 l -1.125,5.35937 q -0.20313,1.01563 -0.20313,1.21875 0,0.28125 0.15625,0.4375 0.17188,0.15625 0.5625,0.15625 0.54688,0 0.96875,-0.10937 z"
     fill-rule="nonzero"
     id="path89" />
  <path
     fill="#ead1dc"
     d="m 224.30972,291.64173 h 291.70077 l 16.5197,16.51968 -16.5197,16.51969 H 224.30972 Z"
     fill-rule="evenodd"
     id="path91" />
  <path
     stroke="#000000"
     stroke-width="1"
     stroke-linejoin="round"
     stroke-linecap="butt"
     d="m 224.30972,291.64173 h 291.70077 l 16.5197,16.51968 -16.5197,16.51969 H 224.30972 Z"
     fill-rule="evenodd"
     id="path93" />
  <path
     fill="#000000"
     d="m 323.77812,315.08141 -3.6875,-9.67188 h 1.73437 l 2.07813,5.79688 q 0.32812,0.9375 0.625,1.9375 0.20312,-0.76563 0.60937,-1.82813 l 2.14063,-5.90625 h 1.6875 l -3.65625,9.67188 z m 6.9375,0 v -13.35938 h 9.01562 v 1.57813 h -7.25 v 4.14062 h 6.26563 v 1.57813 h -6.26563 v 6.0625 z m 11.0991,-11.46875 v -1.89063 h 1.64063 v 1.89063 z m 0,11.46875 v -9.67188 h 1.64063 v 9.67188 z m 4.09794,0 v -13.35938 h 1.64063 v 13.35938 z m 10.8167,-3.10938 1.6875,0.20313 q -0.40625,1.48437 -1.48437,2.3125 -1.07813,0.8125 -2.76563,0.8125 -2.125,0 -3.375,-1.29688 -1.23437,-1.3125 -1.23437,-3.67187 0,-2.45313 1.25,-3.79688 1.26562,-1.34375 3.26562,-1.34375 1.9375,0 3.15625,1.32813 1.23438,1.3125 1.23438,3.70312 0,0.15625 0,0.4375 h -7.21875 q 0.0937,1.59375 0.90625,2.45313 0.8125,0.84375 2.01562,0.84375 0.90625,0 1.54688,-0.46875 0.64062,-0.48438 1.01562,-1.51563 z m -5.39062,-2.65625 h 5.40625 q -0.10938,-1.21875 -0.625,-1.82812 -0.78125,-0.95313 -2.03125,-0.95313 -1.125,0 -1.90625,0.76563 -0.76563,0.75 -0.84375,2.01562 z m 9.59446,-2.04687 v -1.85938 h 1.85937 v 1.85938 z m 0,7.8125 v -1.875 h 1.85937 v 1.875 z m 11.04268,-3.54688 1.60938,0.21875 q -0.26563,1.65625 -1.35938,2.60938 -1.07812,0.9375 -2.67187,0.9375 -1.98438,0 -3.1875,-1.29688 -1.20313,-1.29687 -1.20313,-3.71875 0,-1.57812 0.51563,-2.75 0.51562,-1.17187 1.57812,-1.75 1.0625,-0.59375 2.3125,-0.59375 1.57813,0 2.57813,0.79688 1,0.79687 1.28125,2.26562 l -1.59375,0.23438 q -0.23438,-0.96875 -0.8125,-1.45313 -0.57813,-0.5 -1.39063,-0.5 -1.23437,0 -2.01562,0.89063 -0.78125,0.89062 -0.78125,2.8125 0,1.95312 0.75,2.84375 0.75,0.875 1.95312,0.875 0.96875,0 1.60938,-0.59375 0.65625,-0.59375 0.82812,-1.82813 z m 2.96875,3.54688 v -13.35938 h 1.64063 v 13.35938 z m 3.58232,-4.84375 q 0,-2.6875 1.48437,-3.96875 1.25,-1.07813 3.04688,-1.07813 2,0 3.26562,1.3125 1.26563,1.29688 1.26563,3.60938 0,1.85937 -0.5625,2.9375 -0.5625,1.0625 -1.64063,1.65625 -1.0625,0.59375 -2.32812,0.59375 -2.03125,0 -3.28125,-1.29688 -1.25,-1.3125 -1.25,-3.76562 z m 1.6875,0 q 0,1.85937 0.79687,2.79687 0.8125,0.92188 2.04688,0.92188 1.21875,0 2.03125,-0.92188 0.8125,-0.9375 0.8125,-2.84375 0,-1.79687 -0.8125,-2.71875 -0.8125,-0.92187 -2.03125,-0.92187 -1.23438,0 -2.04688,0.92187 -0.79687,0.90625 -0.79687,2.76563 z m 8.64134,1.95312 1.625,-0.25 q 0.125,0.96875 0.75,1.5 0.625,0.51563 1.75,0.51563 1.125,0 1.67188,-0.45313 0.54687,-0.46875 0.54687,-1.09375 0,-0.54687 -0.48437,-0.875 -0.32813,-0.21875 -1.67188,-0.54687 -1.8125,-0.46875 -2.51562,-0.79688 -0.6875,-0.32812 -1.04688,-0.90625 -0.35937,-0.59375 -0.35937,-1.3125 0,-0.64062 0.29687,-1.1875 0.29688,-0.5625 0.8125,-0.92187 0.375,-0.28125 1.03125,-0.46875 0.67188,-0.20313 1.42188,-0.20313 1.14062,0 2,0.32813 0.85937,0.32812 1.26562,0.89062 0.42188,0.5625 0.57813,1.5 l -1.60938,0.21875 q -0.10937,-0.75 -0.64062,-1.17187 -0.51563,-0.42188 -1.46875,-0.42188 -1.14063,0 -1.625,0.375 -0.46875,0.375 -0.46875,0.875 0,0.3125 0.1875,0.57813 0.20312,0.26562 0.64062,0.4375 0.23438,0.0937 1.4375,0.42187 1.75,0.45313 2.4375,0.75 0.6875,0.29688 1.07813,0.85938 0.39062,0.5625 0.39062,1.40625 0,0.82812 -0.48437,1.54687 -0.46875,0.71875 -1.375,1.125 -0.90625,0.39063 -2.04688,0.39063 -1.875,0 -2.875,-0.78125 -0.98437,-0.78125 -1.25,-2.32813 z m 16.60939,-0.21875 1.6875,0.20313 q -0.40625,1.48437 -1.48437,2.3125 -1.07814,0.8125 -2.76564,0.8125 -2.125,0 -3.375,-1.29688 -1.23438,-1.3125 -1.23438,-3.67187 0,-2.45313 1.25,-3.79688 1.26563,-1.34375 3.26563,-1.34375 1.9375,0 3.15626,1.32813 1.23438,1.3125 1.23438,3.70312 0,0.15625 0,0.4375 h -7.21877 q 0.0937,1.59375 0.90625,2.45313 0.8125,0.84375 2.01563,0.84375 0.90625,0 1.54687,-0.46875 0.64063,-0.48438 1.01564,-1.51563 z m -5.39064,-2.65625 h 5.40627 q -0.10939,-1.21875 -0.62502,-1.82812 -0.78125,-0.95313 -2.03125,-0.95313 -1.125,0 -1.90625,0.76563 -0.76562,0.75 -0.84375,2.01562 z m 9.59447,-2.04687 v -1.85938 h 1.85937 v 1.85938 z m 0,7.8125 v -1.875 h 1.85937 v 1.875 z"
     fill-rule="nonzero"
     id="path95" />
  <path
     fill="#000000"
     d="m 414.00858,315.08141 1.76563,-8.40625 h -1.48438 l 0.26563,-1.26563 h 1.48437 l 0.28125,-1.375 q 0.21875,-1.03125 0.4375,-1.48437 0.23438,-0.45313 0.75,-0.75 0.53125,-0.29688 1.4375,-0.29688 0.625,0 1.82813,0.26563 l -0.29688,1.4375 q -0.84375,-0.21875 -1.40625,-0.21875 -0.48437,0 -0.73437,0.25 -0.25,0.23437 -0.4375,1.125 l -0.21875,1.04687 h 1.84375 l -0.26563,1.26563 h -1.84375 l -1.75,8.40625 z m 11.48016,-1.40625 q -1.40625,1.625 -2.95312,1.625 -1.375,0 -2.29687,-1.01563 -0.90625,-1.01562 -0.90625,-2.95312 0,-1.76563 0.71875,-3.21875 0.73437,-1.46875 1.8125,-2.1875 1.09375,-0.73438 2.1875,-0.73438 1.79687,0 2.71874,1.73438 l 1.09375,-5.20313 h 1.64063 l -2.78125,13.35938 h -1.53125 z m -4.51562,-2.64063 q 0,1 0.20313,1.59375 0.20312,0.57813 0.67187,0.96875 0.48438,0.375 1.17188,0.375 1.10937,0 2.03124,-1.15625 1.21875,-1.54687 1.21875,-3.82812 0,-1.14063 -0.60937,-1.78125 -0.59375,-0.65625 -1.51563,-0.65625 -0.59374,0 -1.07812,0.26562 -0.48437,0.26563 -0.96875,0.90625 -0.46875,0.625 -0.79687,1.59375 -0.32813,0.96875 -0.32813,1.71875 z"
     fill-rule="nonzero"
     id="path97" />
  <path
     fill="#c27ba0"
     d="M 532.53018,337.584 H 240.82941 l -16.51969,16.51967 16.51969,16.51969 h 291.70078 z"
     fill-rule="evenodd"
     id="path99" />
  <path
     stroke="#000000"
     stroke-width="1"
     stroke-linejoin="round"
     stroke-linecap="butt"
     d="M 532.53018,337.584 H 240.82941 l -16.51969,16.51967 16.51969,16.51969 h 291.70078 z"
     fill-rule="evenodd"
     id="path101" />
  <path
     fill="#000000"
     d="m 373.19527,361.02366 v -13.35938 h 9.01563 v 1.57813 h -7.25 v 4.14062 h 6.26562 v 1.57813 h -6.26562 v 6.0625 z m 10.64599,-6.59375 q 0,-2.35938 0.48437,-3.79688 0.48438,-1.45312 1.4375,-2.23437 0.96875,-0.78125 2.42188,-0.78125 1.07812,0 1.89062,0.4375 0.8125,0.42187 1.32813,1.25 0.53125,0.8125 0.82812,1.98437 0.3125,1.15625 0.3125,3.14063 0,2.35937 -0.48437,3.8125 -0.48438,1.4375 -1.45313,2.23437 -0.95312,0.78125 -2.42187,0.78125 -1.92188,0 -3.03125,-1.39062 -1.3125,-1.67188 -1.3125,-5.4375 z m 1.67187,0 q 0,3.29687 0.76563,4.39062 0.78125,1.07813 1.90625,1.07813 1.14062,0 1.90625,-1.09375 0.76562,-1.09375 0.76562,-4.375 0,-3.29688 -0.76562,-4.375 -0.76563,-1.07813 -1.92188,-1.07813 -1.125,0 -1.79687,0.95313 -0.85938,1.21875 -0.85938,4.5 z"
     fill-rule="nonzero"
     id="path103" />
</svg>
