<?xml version="1.0" encoding="UTF-8" standalone="no"?>
<svg
   xmlns:dc="http://purl.org/dc/elements/1.1/"
   xmlns:cc="http://creativecommons.org/ns#"
   xmlns:rdf="http://www.w3.org/1999/02/22-rdf-syntax-ns#"
   xmlns:svg="http://www.w3.org/2000/svg"
   xmlns="http://www.w3.org/2000/svg"
   xmlns:sodipodi="http://sodipodi.sourceforge.net/DTD/sodipodi-0.dtd"
   xmlns:inkscape="http://www.inkscape.org/namespaces/inkscape"
   version="1.1"
   viewBox="0 0 909.91943 349.70081"
   fill="none"
   stroke="none"
   stroke-linecap="square"
   stroke-miterlimit="10"
   id="svg89"
   sodipodi:docname="gdb-remote-protocol.svg"
   width="909.91943"
   height="349.70081"
   inkscape:version="1.0.1 (3bc2e813f5, 2020-09-07)">
  <metadata
     id="metadata95">
    <rdf:RDF>
      <cc:Work
         rdf:about="">
        <dc:format>image/svg+xml</dc:format>
        <dc:type
           rdf:resource="http://purl.org/dc/dcmitype/StillImage" />
      </cc:Work>
    </rdf:RDF>
  </metadata>
  <defs
     id="defs93" />
  <sodipodi:namedview
     pagecolor="#ffffff"
     bordercolor="#666666"
     borderopacity="1"
     objecttolerance="10"
     gridtolerance="10"
     guidetolerance="10"
     inkscape:pageopacity="0"
     inkscape:pageshadow="2"
     inkscape:window-width="1364"
     inkscape:window-height="747"
     id="namedview91"
     showgrid="false"
     inkscape:zoom="1.0685185"
     inkscape:cx="455.63034"
     inkscape:cy="184.80452"
     inkscape:window-x="0"
     inkscape:window-y="19"
     inkscape:window-maximized="0"
     inkscape:current-layer="svg89" />
  <clipPath
     id="p.0">
    <path
       d="M 0,0 H 720 V 540 H 0 Z"
       clip-rule="nonzero"
       id="path2" />
  </clipPath>
  <path
     fill="#000000"
     fill-opacity="0"
     d="m 149.85213,-5.1627297 h 720 V 534.83727 h -720 z"
     fill-rule="evenodd"
     id="path5" />
  <path
     fill="#cfe2f3"
     d="m 204.57391,70.553975 v 0 c 0,-4.75177 3.85207,-8.603844 8.60385,-8.603844 H 347.7496 c 2.28189,0 4.47031,0.906471 6.08385,2.520004 1.61352,1.613541 2.52,3.801957 2.52,6.08384 v 34.414355 c 0,4.75177 -3.85206,8.60385 -8.60385,8.60385 H 213.17776 c -4.75178,0 -8.60385,-3.85208 -8.60385,-8.60385 z"
     fill-rule="evenodd"
     id="path7" />
  <path
     stroke="#000000"
     stroke-width="1"
     stroke-linejoin="round"
     stroke-linecap="butt"
     d="m 204.57391,70.553975 v 0 c 0,-4.75177 3.85207,-8.603844 8.60385,-8.603844 H 347.7496 c 2.28189,0 4.47031,0.906471 6.08385,2.520004 1.61352,1.613541 2.52,3.801957 2.52,6.08384 v 34.414355 c 0,4.75177 -3.85206,8.60385 -8.60385,8.60385 H 213.17776 c -4.75178,0 -8.60385,-3.85208 -8.60385,-8.60385 z"
     fill-rule="evenodd"
     id="path9" />
  <path
     fill="#000000"
     d="M 237.35662,89.446775 V 87.86865 h 5.65625 v 4.953125 q -1.29688,1.046875 -2.6875,1.578125 -1.375,0.51563 -2.84375,0.51563 -1.96875,0 -3.57813,-0.843755 -1.60937,-0.84375 -2.42187,-2.4375 -0.8125,-1.59375 -0.8125,-3.5625 0,-1.953125 0.8125,-3.640625 0.8125,-1.6875 2.34375,-2.5 1.53125,-0.828125 3.51562,-0.828125 1.45313,0 2.625,0.46875 1.17188,0.46875 1.82813,1.3125 0.67187,0.828125 1.01562,2.171875 l -1.59375,0.4375 q -0.29687,-1.015625 -0.75,-1.59375 -0.4375,-0.59375 -1.26562,-0.9375 -0.82813,-0.34375 -1.84375,-0.34375 -1.20313,0 -2.09375,0.375 -0.89063,0.359375 -1.4375,0.96875 -0.53125,0.59375 -0.82813,1.3125 -0.51562,1.234375 -0.51562,2.6875 0,1.78125 0.60937,2.984375 0.625,1.203125 1.79688,1.796875 1.17187,0.578125 2.5,0.578125 1.14062,0 2.23437,-0.4375 1.09375,-0.453125 1.65625,-0.953125 v -2.484375 z m 8.26143,5.234375 V 81.321775 h 4.60937 q 1.54688,0 2.375,0.203125 1.14063,0.25 1.95313,0.953125 1.0625,0.890625 1.57812,2.28125 0.53125,1.390625 0.53125,3.171875 0,1.515625 -0.35937,2.703125 -0.35938,1.171875 -0.92188,1.9375 -0.54687,0.765625 -1.20312,1.21875 -0.65625,0.4375 -1.59375,0.671875 -0.9375,0.21875 -2.14063,0.21875 z m 1.76562,-1.578125 h 2.85938 q 1.3125,0 2.0625,-0.234375 0.75,-0.25 1.20312,-0.703125 0.625,-0.625 0.96875,-1.6875 0.35938,-1.0625 0.35938,-2.578125 0,-2.09375 -0.6875,-3.21875 -0.6875,-1.125 -1.67188,-1.5 -0.70312,-0.28125 -2.28125,-0.28125 h -2.8125 z m 11.6292,1.578125 V 81.321775 h 5.01563 q 1.53125,0 2.45312,0.40625 0.92188,0.40625 1.4375,1.25 0.53125,0.84375 0.53125,1.765625 0,0.859375 -0.46875,1.625 -0.45312,0.75 -1.39062,1.203125 1.20312,0.359375 1.85937,1.21875 0.65625,0.859375 0.65625,2.015625 0,0.9375 -0.40625,1.75 -0.39062,0.796875 -0.98437,1.234375 -0.57813,0.4375 -1.45313,0.671875 -0.875,0.21875 -2.15625,0.21875 z m 1.78125,-7.75 h 2.875 q 1.1875,0 1.6875,-0.140625 0.67188,-0.203125 1.01563,-0.671875 0.34375,-0.46875 0.34375,-1.171875 0,-0.65625 -0.32813,-1.15625 -0.3125,-0.515625 -0.90625,-0.703125 -0.59375,-0.1875 -2.03125,-0.1875 h -2.65625 z m 0,6.171875 h 3.3125 q 0.85938,0 1.20313,-0.0625 0.60937,-0.109375 1.01562,-0.359375 0.42188,-0.265625 0.6875,-0.75 0.26563,-0.484375 0.26563,-1.125 0,-0.75 -0.39063,-1.296875 -0.375,-0.546875 -1.0625,-0.765625 -0.67187,-0.234375 -1.95312,-0.234375 h -3.07813 z m 18.84562,5.500005 q -1.35938,-1.70313 -2.29687,-4.000005 -0.9375,-2.296875 -0.9375,-4.765625 0,-2.15625 0.70313,-4.140625 0.82811,-2.3125 2.53124,-4.59375 h 1.17187 q -1.09375,1.890625 -1.45312,2.703125 -0.54688,1.25 -0.875,2.625 -0.39063,1.703125 -0.39063,3.421875 0,4.375 2.71875,8.750005 z m 9.40018,-7.468755 1.60937,0.21875 q -0.26562,1.65625 -1.35937,2.609375 -1.07813,0.9375 -2.67188,0.9375 -1.98437,0 -3.1875,-1.296875 -1.20312,-1.296875 -1.20312,-3.71875 0,-1.578125 0.51562,-2.75 0.51563,-1.171875 1.57813,-1.75 1.0625,-0.59375 2.3125,-0.59375 1.57812,0 2.57812,0.796875 1,0.796875 1.28125,2.265625 l -1.59375,0.234375 q -0.23437,-0.96875 -0.8125,-1.453125 -0.57812,-0.5 -1.39062,-0.5 -1.23438,0 -2.01563,0.890625 -0.78125,0.890625 -0.78125,2.8125 0,1.953125 0.75,2.84375 0.75,0.875 1.95313,0.875 0.96875,0 1.60937,-0.59375 0.65625,-0.59375 0.82813,-1.828125 z m 2.96875,3.546875 V 81.321775 h 1.64062 V 94.68115 Z m 4.19169,-11.46875 v -1.890625 h 1.64063 V 83.2124 Z m 0,11.46875 v -9.671875 h 1.64063 v 9.671875 z m 10.76982,-3.109375 1.6875,0.203125 q -0.40625,1.484375 -1.48437,2.3125 -1.07813,0.8125 -2.76563,0.8125 -2.125,0 -3.375,-1.296875 -1.23437,-1.3125 -1.23437,-3.671875 0,-2.453125 1.25,-3.796875 1.26562,-1.34375 3.26562,-1.34375 1.9375,0 3.15625,1.328125 1.23438,1.3125 1.23438,3.703125 0,0.15625 0,0.4375 h -7.21875 q 0.0937,1.59375 0.90625,2.453125 0.8125,0.84375 2.01562,0.84375 0.90625,0 1.54688,-0.46875 0.64062,-0.484375 1.01562,-1.515625 z m -5.39062,-2.65625 h 5.40625 q -0.10938,-1.21875 -0.625,-1.828125 -0.78125,-0.953125 -2.03125,-0.953125 -1.125,0 -1.90625,0.765625 -0.76563,0.75 -0.84375,2.015625 z m 9.14134,5.765625 v -9.671875 h 1.46875 v 1.375 q 1.0625,-1.59375 3.07813,-1.59375 0.875,0 1.60937,0.3125 0.73438,0.3125 1.09375,0.828125 0.375,0.5 0.51563,1.203125 0.0937,0.453125 0.0937,1.59375 v 5.953125 h -1.64063 v -5.890625 q 0,-1 -0.20312,-1.484375 -0.1875,-0.5 -0.67188,-0.796875 -0.48437,-0.296875 -1.14062,-0.296875 -1.04688,0 -1.8125,0.671875 -0.75,0.65625 -0.75,2.515625 v 5.28125 z m 13.95384,-1.46875 0.23438,1.453125 q -0.6875,0.140625 -1.23438,0.140625 -0.89062,0 -1.39062,-0.28125 -0.48438,-0.28125 -0.6875,-0.734375 -0.20313,-0.46875 -0.20313,-1.9375 V 86.2749 h -1.20312 v -1.265625 h 1.20312 V 82.61865 l 1.625,-0.984375 v 3.375 h 1.65625 V 86.2749 h -1.65625 v 5.671875 q 0,0.6875 0.0781,0.890625 0.0937,0.203125 0.28125,0.328125 0.20312,0.109375 0.57812,0.109375 0.26563,0 0.71875,-0.0625 z m 2.68331,5.39063 h -1.1875 q 2.73437,-4.375005 2.73437,-8.750005 0,-1.71875 -0.39062,-3.390625 -0.3125,-1.375 -0.875,-2.625 -0.35938,-0.828125 -1.46875,-2.734375 h 1.1875 q 1.70312,2.28125 2.53125,4.59375 0.6875,1.984375 0.6875,4.140625 0,2.46875 -0.9375,4.765625 -0.9375,2.296875 -2.28125,4.000005 z"
     fill-rule="nonzero"
     id="path11" />
  <path
     fill="#ead1dc"
     d="m 204.57391,211.48574 v 0 c 0,-4.75177 3.85207,-8.60385 8.60385,-8.60385 H 347.7496 c 2.28189,0 4.47031,0.90648 6.08385,2.52 1.61352,1.61354 2.52,3.80196 2.52,6.08385 v 34.41435 c 0,4.75177 -3.85206,8.60384 -8.60385,8.60384 H 213.17776 c -4.75178,0 -8.60385,-3.85207 -8.60385,-8.60384 z"
     fill-rule="evenodd"
     id="path13" />
  <path
     stroke="#000000"
     stroke-width="1"
     stroke-linejoin="round"
     stroke-linecap="butt"
     d="m 204.57391,211.48574 v 0 c 0,-4.75177 3.85207,-8.60385 8.60385,-8.60385 H 347.7496 c 2.28189,0 4.47031,0.90648 6.08385,2.52 1.61352,1.61354 2.52,3.80196 2.52,6.08385 v 34.41435 c 0,4.75177 -3.85206,8.60384 -8.60385,8.60384 H 213.17776 c -4.75178,0 -8.60385,-3.85207 -8.60385,-8.60384 z"
     fill-rule="evenodd"
     id="path15" />
  <path
     fill="#000000"
     d="m 227.90849,235.6129 v -13.35938 h 1.78125 v 11.78125 h 6.5625 v 1.57813 z m 10.37572,0 v -13.35938 h 1.78125 v 11.78125 h 6.5625 v 1.57813 z m 10.45384,0 v -13.35938 h 4.60938 q 1.54687,0 2.375,0.20313 1.14062,0.25 1.95312,0.95312 1.0625,0.89063 1.57813,2.28125 0.53125,1.39063 0.53125,3.17188 0,1.51562 -0.35938,2.70312 -0.35937,1.17188 -0.92187,1.9375 -0.54688,0.76563 -1.20313,1.21875 -0.65625,0.4375 -1.59375,0.67188 -0.9375,0.21875 -2.14062,0.21875 z m 1.76563,-1.57813 h 2.85937 q 1.3125,0 2.0625,-0.23437 0.75,-0.25 1.20313,-0.70313 0.625,-0.625 0.96875,-1.6875 0.35937,-1.0625 0.35937,-2.57812 0,-2.09375 -0.6875,-3.21875 -0.6875,-1.125 -1.67187,-1.5 -0.70313,-0.28125 -2.28125,-0.28125 h -2.8125 z m 11.6292,1.57813 v -13.35938 h 5.01562 q 1.53125,0 2.45313,0.40625 0.92187,0.40625 1.4375,1.25 0.53125,0.84375 0.53125,1.76563 0,0.85937 -0.46875,1.625 -0.45313,0.75 -1.39063,1.20312 1.20313,0.35938 1.85938,1.21875 0.65625,0.85938 0.65625,2.01563 0,0.9375 -0.40625,1.75 -0.39063,0.79687 -0.98438,1.23437 -0.57812,0.4375 -1.45312,0.67188 -0.875,0.21875 -2.15625,0.21875 z m 1.78125,-7.75 h 2.875 q 1.1875,0 1.6875,-0.14063 0.67187,-0.20312 1.01562,-0.67187 0.34375,-0.46875 0.34375,-1.17188 0,-0.65625 -0.32812,-1.15625 -0.3125,-0.51562 -0.90625,-0.70312 -0.59375,-0.1875 -2.03125,-0.1875 h -2.65625 z m 0,6.17187 h 3.3125 q 0.85937,0 1.20312,-0.0625 0.60938,-0.10937 1.01563,-0.35937 0.42187,-0.26563 0.6875,-0.75 0.26562,-0.48438 0.26562,-1.125 0,-0.75 -0.39062,-1.29688 -0.375,-0.54687 -1.0625,-0.76562 -0.67188,-0.23438 -1.95313,-0.23438 h -3.07812 z m 18.84562,5.5 q -1.35937,-1.70312 -2.29687,-4 -0.9375,-2.29687 -0.9375,-4.76562 0,-2.15625 0.70312,-4.14063 0.82813,-2.3125 2.53125,-4.59375 h 1.17188 q -1.09375,1.89063 -1.45313,2.70313 -0.54687,1.25 -0.875,2.625 -0.39062,1.70312 -0.39062,3.42187 0,4.375 2.71875,8.75 z m 9.40018,-7.46875 1.60937,0.21875 q -0.26562,1.65625 -1.35937,2.60938 -1.07813,0.9375 -2.67188,0.9375 -1.98437,0 -3.1875,-1.29688 -1.20312,-1.29687 -1.20312,-3.71875 0,-1.57812 0.51562,-2.75 0.51563,-1.17187 1.57813,-1.75 1.0625,-0.59375 2.3125,-0.59375 1.57812,0 2.57812,0.79688 1,0.79687 1.28125,2.26562 l -1.59375,0.23438 q -0.23437,-0.96875 -0.8125,-1.45313 -0.57812,-0.5 -1.39062,-0.5 -1.23438,0 -2.01563,0.89063 -0.78125,0.89062 -0.78125,2.8125 0,1.95312 0.75,2.84375 0.75,0.875 1.95313,0.875 0.96875,0 1.60937,-0.59375 0.65625,-0.59375 0.82813,-1.82813 z m 2.96875,3.54688 v -13.35938 h 1.64062 v 13.35938 z m 4.1917,-11.46875 v -1.89063 h 1.64062 v 1.89063 z m 0,11.46875 v -9.67188 h 1.64062 v 9.67188 z m 10.76982,-3.10938 1.6875,0.20313 q -0.40625,1.48437 -1.48438,2.3125 -1.07812,0.8125 -2.76562,0.8125 -2.125,0 -3.375,-1.29688 -1.23438,-1.3125 -1.23438,-3.67187 0,-2.45313 1.25,-3.79688 1.26563,-1.34375 3.26563,-1.34375 1.9375,0 3.15625,1.32813 1.23437,1.3125 1.23437,3.70312 0,0.15625 0,0.4375 h -7.21875 q 0.0937,1.59375 0.90625,2.45313 0.8125,0.84375 2.01563,0.84375 0.90625,0 1.54687,-0.46875 0.64063,-0.48438 1.01563,-1.51563 z m -5.39063,-2.65625 h 5.40625 q -0.10937,-1.21875 -0.625,-1.82812 -0.78125,-0.95313 -2.03125,-0.95313 -1.125,0 -1.90625,0.76563 -0.76562,0.75 -0.84375,2.01562 z m 9.14134,5.76563 v -9.67188 h 1.46875 v 1.375 q 1.0625,-1.59375 3.07813,-1.59375 0.875,0 1.60937,0.3125 0.73438,0.3125 1.09375,0.82813 0.375,0.5 0.51563,1.20312 0.0937,0.45313 0.0937,1.59375 v 5.95313 h -1.64063 v -5.89063 q 0,-1 -0.20312,-1.48437 -0.1875,-0.5 -0.67188,-0.79688 -0.48437,-0.29687 -1.14062,-0.29687 -1.04688,0 -1.8125,0.67187 -0.75,0.65625 -0.75,2.51563 v 5.28125 z m 13.95385,-1.46875 0.23437,1.45312 q -0.6875,0.14063 -1.23437,0.14063 -0.89063,0 -1.39063,-0.28125 -0.48437,-0.28125 -0.6875,-0.73438 -0.20312,-0.46875 -0.20312,-1.9375 v -5.57812 h -1.20313 v -1.26563 h 1.20313 v -2.39062 l 1.625,-0.98438 v 3.375 h 1.65625 v 1.26563 h -1.65625 v 5.67187 q 0,0.6875 0.0781,0.89063 0.0937,0.20312 0.28125,0.32812 0.20313,0.10938 0.57813,0.10938 0.26562,0 0.71875,-0.0625 z m 2.6833,5.39062 h -1.1875 q 2.73437,-4.375 2.73437,-8.75 0,-1.71875 -0.39062,-3.39062 -0.3125,-1.375 -0.875,-2.625 -0.35938,-0.82813 -1.46875,-2.73438 h 1.1875 q 1.70312,2.28125 2.53125,4.59375 0.6875,1.98438 0.6875,4.14063 0,2.46875 -0.9375,4.76562 -0.9375,2.29688 -2.28125,4 z"
     fill-rule="nonzero"
     id="path17" />
  <path
     fill="#000000"
     fill-opacity="0"
     d="M 414.17235,0 V 307.68506"
     fill-rule="evenodd"
     id="path19" />
  <path
     stroke="#000000"
     stroke-width="1"
     stroke-linejoin="round"
     stroke-linecap="butt"
     d="M 414.17235,0 V 307.68506"
     fill-rule="evenodd"
     id="path21" />
  <path
     fill="#d9d2e9"
     d="M 471.99123,93.446195 H 705.34554 V 145.06824 H 471.99123 Z"
     fill-rule="evenodd"
     id="path23" />
  <path
     stroke="#000000"
     stroke-width="1"
     stroke-linejoin="round"
     stroke-linecap="butt"
     d="M 471.99123,93.446195 H 705.34554 V 145.06824 H 471.99123 Z"
     fill-rule="evenodd"
     id="path25" />
  <path
     fill="#000000"
     d="m 514.17421,126.17722 v -13.35938 h 1.64063 v 13.35938 z m 4.14481,0 v -13.35938 h 1.64062 v 13.35938 z m 10.45733,0 v -1.21875 q -0.90625,1.4375 -2.70312,1.4375 -1.15625,0 -2.125,-0.64063 -0.96875,-0.64062 -1.5,-1.78125 -0.53125,-1.14063 -0.53125,-2.625 0,-1.45313 0.48437,-2.625 0.48438,-1.1875 1.4375,-1.8125 0.96875,-0.625 2.17188,-0.625 0.875,0 1.54687,0.375 0.6875,0.35937 1.10938,0.95312 v -4.79687 h 1.64062 v 13.35938 z m -5.17187,-4.82813 q 0,1.85938 0.78125,2.78125 0.78125,0.92188 1.84375,0.92188 1.07812,0 1.82812,-0.875 0.75,-0.89063 0.75,-2.68751 0,-1.98437 -0.76562,-2.90625 -0.76563,-0.9375 -1.89063,-0.9375 -1.07812,0 -1.8125,0.89063 -0.73437,0.89062 -0.73437,2.8125 z m 10.78195,4.82813 h -1.51563 v -13.35938 h 1.64063 v 4.76562 q 1.04687,-1.29687 2.65625,-1.29687 0.89062,0 1.6875,0.35937 0.79687,0.35938 1.3125,1.01563 0.51562,0.64062 0.79687,1.5625 0.29688,0.92187 0.29688,1.96875 0,2.48438 -1.23438,3.84375 -1.21875,1.35938 -2.95312,1.35938 -1.70313,0 -2.6875,-1.4375 z m -0.0156,-4.90626 q 0,1.73438 0.48438,2.51563 0.76562,1.26563 2.09375,1.26563 1.07812,0 1.85937,-0.9375 0.78125,-0.9375 0.78125,-2.78126 0,-1.89062 -0.75,-2.79687 -0.75,-0.90625 -1.82812,-0.90625 -1.0625,0 -1.85938,0.9375 -0.78125,0.9375 -0.78125,2.70312 z m 8.25074,0.89063 v -1.64063 h 5.03125 v 1.64063 z m 6.19705,1.125 1.625,-0.25 q 0.125,0.96875 0.75,1.5 0.625,0.51563 1.75,0.51563 1.125,0 1.67187,-0.45313 0.54688,-0.46875 0.54688,-1.09375 0,-0.54687 -0.48438,-0.875 -0.32812,-0.21875 -1.67187,-0.54688 -1.8125,-0.46875 -2.51563,-0.79687 -0.6875,-0.32813 -1.04687,-0.90625 -0.35938,-0.59375 -0.35938,-1.3125 0,-0.64063 0.29688,-1.1875 0.29687,-0.5625 0.8125,-0.92188 0.375,-0.28125 1.03125,-0.46875 0.67187,-0.20312 1.42187,-0.20312 1.14063,0 2,0.32812 0.85938,0.32813 1.26563,0.89063 0.42187,0.5625 0.57812,1.5 l -1.60937,0.21875 q -0.10938,-0.75 -0.64063,-1.17188 -0.51562,-0.42187 -1.46875,-0.42187 -1.14062,0 -1.625,0.375 -0.46875,0.375 -0.46875,0.875 0,0.3125 0.1875,0.57812 0.20313,0.26563 0.64063,0.4375 0.23437,0.0937 1.4375,0.42188 1.75,0.45312 2.4375,0.75 0.6875,0.29687 1.07812,0.85937 0.39063,0.5625 0.39063,1.40626 0,0.82812 -0.48438,1.54687 -0.46875,0.71875 -1.375,1.125 -0.90625,0.39063 -2.04687,0.39063 -1.875,0 -2.875,-0.78125 -0.98438,-0.78125 -1.25,-2.32813 z m 16.60937,-0.21875 1.6875,0.20313 q -0.40625,1.48437 -1.48437,2.3125 -1.07813,0.8125 -2.76563,0.8125 -2.125,0 -3.375,-1.29688 -1.23437,-1.3125 -1.23437,-3.67188 0,-2.45312 1.25,-3.79687 1.26562,-1.34375 3.26562,-1.34375 1.9375,0 3.15625,1.32812 1.23438,1.3125 1.23438,3.70313 0,0.15625 0,0.4375 h -7.21875 q 0.0937,1.59375 0.90625,2.45313 0.8125,0.84375 2.01562,0.84375 0.90625,0 1.54688,-0.46875 0.64062,-0.48438 1.01562,-1.51563 z m -5.39062,-2.65625 h 5.40625 q -0.10938,-1.21875 -0.625,-1.82813 -0.78125,-0.95312 -2.03125,-0.95312 -1.125,0 -1.90625,0.76562 -0.76563,0.75 -0.84375,2.01563 z m 9.1257,5.76563 v -9.67188 h 1.46875 v 1.46875 q 0.5625,-1.03125 1.03125,-1.35938 0.48437,-0.32812 1.0625,-0.32812 0.82812,0 1.6875,0.53125 l -0.5625,1.51562 q -0.60938,-0.35937 -1.20313,-0.35937 -0.54687,0 -0.96875,0.32812 -0.42187,0.32813 -0.60937,0.89063 -0.28125,0.875 -0.28125,1.92187 v 5.06251 z m 8.9158,0 -3.6875,-9.67188 h 1.73438 l 2.07812,5.79687 q 0.32813,0.93751 0.625,1.93751 0.20313,-0.76563 0.60938,-1.82813 l 2.14062,-5.90625 h 1.6875 l -3.65625,9.67188 z m 13.26563,-3.10938 1.6875,0.20313 q -0.40625,1.48437 -1.48438,2.3125 -1.07812,0.8125 -2.76562,0.8125 -2.125,0 -3.375,-1.29688 -1.23438,-1.3125 -1.23438,-3.67188 0,-2.45312 1.25,-3.79687 1.26563,-1.34375 3.26563,-1.34375 1.9375,0 3.15625,1.32812 1.23437,1.3125 1.23437,3.70313 0,0.15625 0,0.4375 h -7.21875 q 0.0937,1.59375 0.90625,2.45313 0.8125,0.84375 2.01563,0.84375 0.90625,0 1.54687,-0.46875 0.64063,-0.48438 1.01563,-1.51563 z m -5.39063,-2.65625 h 5.40625 q -0.10937,-1.21875 -0.625,-1.82813 -0.78125,-0.95312 -2.03125,-0.95312 -1.125,0 -1.90625,0.76562 -0.76562,0.75 -0.84375,2.01563 z m 9.12573,5.76563 v -9.67188 h 1.46875 v 1.46875 q 0.5625,-1.03125 1.03125,-1.35938 0.48438,-0.32812 1.0625,-0.32812 0.82813,0 1.68747,0.53125 l -0.56247,1.51562 q -0.60937,-0.35937 -1.20312,-0.35937 -0.54688,0 -0.96875,0.32812 -0.42188,0.32813 -0.60938,0.89063 -0.28125,0.875 -0.28125,1.92187 v 5.06251 z m 14.53659,3.92187 q -1.35937,-1.70312 -2.29687,-4 -0.9375,-2.29687 -0.9375,-4.76563 0,-2.15625 0.70312,-4.14062 0.82813,-2.3125 2.53125,-4.59375 h 1.17188 q -1.09375,1.89062 -1.45313,2.70312 -0.54687,1.25 -0.875,2.625 -0.39062,1.70313 -0.39062,3.42188 0,4.375 2.71875,8.75001 z m 3.21268,-3.92187 v -13.35938 h 1.78125 v 11.78125 h 6.5625 v 1.57813 z m 10.3757,0 v -13.35938 h 1.78125 v 11.78125 h 6.5625 v 1.57813 z m 10.45386,0 v -13.35938 h 4.60938 q 1.54687,0 2.375,0.20312 1.14062,0.25 1.95312,0.95313 1.0625,0.89062 1.57813,2.28125 0.53125,1.39062 0.53125,3.17187 0,1.51563 -0.35938,2.70313 -0.35937,1.17188 -0.92187,1.9375 -0.54688,0.76563 -1.20313,1.21875 -0.65625,0.4375 -1.59375,0.67188 -0.9375,0.21875 -2.14062,0.21875 z m 1.76563,-1.57813 h 2.85937 q 1.3125,0 2.0625,-0.23437 0.75,-0.25 1.20313,-0.70313 0.625,-0.625 0.96875,-1.6875 0.35937,-1.0625 0.35937,-2.57813 0,-2.09375 -0.6875,-3.21875 -0.6875,-1.125 -1.67187,-1.5 -0.70313,-0.28125 -2.28125,-0.28125 h -2.8125 z m 11.62918,1.57813 v -13.35938 h 5.01562 q 1.53125,0 2.45313,0.40625 0.92187,0.40625 1.4375,1.25 0.53125,0.84375 0.53125,1.76562 0,0.85938 -0.46875,1.625 -0.45313,0.75 -1.39063,1.20313 1.20313,0.35937 1.85938,1.21875 0.65625,0.85937 0.65625,2.01562 0,0.93751 -0.40625,1.75001 -0.39063,0.79687 -0.98438,1.23437 -0.57812,0.4375 -1.45312,0.67188 -0.875,0.21875 -2.15625,0.21875 z m 1.78125,-7.75001 h 2.875 q 1.1875,0 1.6875,-0.14062 0.67187,-0.20313 1.01562,-0.67188 0.34375,-0.46875 0.34375,-1.17187 0,-0.65625 -0.32812,-1.15625 -0.3125,-0.51563 -0.90625,-0.70313 -0.59375,-0.1875 -2.03125,-0.1875 h -2.65625 z m 0,6.17188 h 3.3125 q 0.85937,0 1.20312,-0.0625 0.60938,-0.10937 1.01563,-0.35937 0.42187,-0.26563 0.6875,-0.75 0.26562,-0.48438 0.26562,-1.12501 0,-0.75 -0.39062,-1.29687 -0.375,-0.54688 -1.0625,-0.76563 -0.67188,-0.23437 -1.95313,-0.23437 h -3.07812 z m 11.61544,5.5 h -1.1875 q 2.73438,-4.375 2.73438,-8.75 0,-1.71875 -0.39063,-3.39063 -0.3125,-1.375 -0.875,-2.625 -0.35937,-0.82812 -1.46875,-2.73437 h 1.1875 q 1.70313,2.28125 2.53125,4.59375 0.6875,1.98437 0.6875,4.14062 0,2.46876 -0.9375,4.76563 -0.9375,2.29688 -2.28125,4 z"
     fill-rule="nonzero"
     id="path27" />
  <path
     fill="#c9daf8"
     d="M 471.99123,21.173228 H 705.34554 V 72.795275 H 471.99123 Z"
     fill-rule="evenodd"
     id="path29" />
  <path
     stroke="#000000"
     stroke-width="1"
     stroke-linejoin="round"
     stroke-linecap="butt"
     d="M 471.99123,21.173228 H 705.34554 V 72.795275 H 471.99123 Z"
     fill-rule="evenodd"
     id="path31" />
  <path
     fill="#000000"
     d="m 519.09188,54.701123 1.59375,0.234375 q 0.10938,0.75 0.5625,1.078125 0.60938,0.453125 1.67188,0.453125 1.14062,0 1.75,-0.453125 0.625,-0.453125 0.84375,-1.265625 0.125,-0.5 0.10937,-2.109375 -1.0625,1.265625 -2.67187,1.265625 -2,0 -3.09375,-1.4375 -1.09375,-1.4375 -1.09375,-3.453125 0,-1.390625 0.5,-2.5625 0.51562,-1.171875 1.45312,-1.796875 0.95313,-0.640625 2.25,-0.640625 1.70313,0 2.8125,1.375 v -1.15625 h 1.51563 v 8.359375 q 0,2.265625 -0.46875,3.203125 -0.45313,0.9375 -1.45313,1.484375 -0.98437,0.546875 -2.45312,0.546875 -1.71875,0 -2.79688,-0.78125 -1.0625,-0.765625 -1.03125,-2.34375 z m 1.35938,-5.8125 q 0,1.90625 0.75,2.78125 0.76562,0.875 1.90625,0.875 1.125,0 1.89062,-0.859375 0.76563,-0.875 0.76563,-2.734375 0,-1.78125 -0.79688,-2.671875 -0.78125,-0.90625 -1.89062,-0.90625 -1.09375,0 -1.85938,0.890625 -0.76562,0.875 -0.76562,2.625 z m 15.59448,5.015625 v -1.21875 q -0.90625,1.4375 -2.70313,1.4375 -1.15625,0 -2.125,-0.640625 -0.96875,-0.640625 -1.5,-1.78125 -0.53125,-1.140625 -0.53125,-2.625 0,-1.453125 0.48438,-2.625 0.48437,-1.1875 1.4375,-1.8125 0.96875,-0.625 2.17187,-0.625 0.875,0 1.54688,0.375 0.6875,0.359375 1.10937,0.953125 v -4.796875 h 1.64063 v 13.359375 z m -5.17188,-4.828125 q 0,1.859375 0.78125,2.78125 0.78125,0.921875 1.84375,0.921875 1.07813,0 1.82813,-0.875 0.75,-0.890625 0.75,-2.6875 0,-1.984375 -0.76563,-2.90625 -0.76562,-0.9375 -1.89062,-0.9375 -1.07813,0 -1.8125,0.890625 -0.73438,0.890625 -0.73438,2.8125 z m 10.78195,4.828125 h -1.51562 V 40.544873 h 1.64062 v 4.765625 q 1.04688,-1.296875 2.65625,-1.296875 0.89063,0 1.6875,0.359375 0.79688,0.359375 1.3125,1.015625 0.51563,0.640625 0.79688,1.5625 0.29687,0.921875 0.29687,1.96875 0,2.484375 -1.23437,3.84375 -1.21875,1.359375 -2.95313,1.359375 -1.70312,0 -2.6875,-1.4375 z m -0.0156,-4.90625 q 0,1.734375 0.48437,2.515625 0.76563,1.265625 2.09375,1.265625 1.07813,0 1.85938,-0.9375 0.78125,-0.9375 0.78125,-2.78125 0,-1.890625 -0.75,-2.796875 -0.75,-0.90625 -1.82813,-0.90625 -1.0625,0 -1.85937,0.9375 -0.78125,0.9375 -0.78125,2.703125 z m 8.23511,2.015625 1.625,-0.25 q 0.125,0.96875 0.75,1.5 0.625,0.515625 1.75,0.515625 1.125,0 1.67187,-0.453125 0.54688,-0.46875 0.54688,-1.09375 0,-0.546875 -0.48438,-0.875 -0.32812,-0.21875 -1.67187,-0.546875 -1.8125,-0.46875 -2.51563,-0.796875 -0.6875,-0.328125 -1.04687,-0.90625 -0.35938,-0.59375 -0.35938,-1.3125 0,-0.640625 0.29688,-1.1875 0.29687,-0.5625 0.8125,-0.921875 0.375,-0.28125 1.03125,-0.46875 0.67187,-0.203125 1.42187,-0.203125 1.14063,0 2,0.328125 0.85938,0.328125 1.26563,0.890625 0.42187,0.5625 0.57812,1.5 l -1.60937,0.21875 q -0.10938,-0.75 -0.64063,-1.171875 -0.51562,-0.421875 -1.46875,-0.421875 -1.14062,0 -1.625,0.375 -0.46875,0.375 -0.46875,0.875 0,0.3125 0.1875,0.578125 0.20313,0.265625 0.64063,0.4375 0.23437,0.09375 1.4375,0.421875 1.75,0.453125 2.4375,0.75 0.6875,0.296875 1.07812,0.859375 0.39063,0.5625 0.39063,1.40625 0,0.828125 -0.48438,1.546875 -0.46875,0.71875 -1.375,1.125 -0.90625,0.390625 -2.04687,0.390625 -1.875,0 -2.875,-0.78125 -0.98438,-0.78125 -1.25,-2.328125 z m 16.60937,-0.21875 1.6875,0.203125 q -0.40625,1.484375 -1.48437,2.3125 -1.07813,0.8125 -2.76563,0.8125 -2.125,0 -3.375,-1.296875 -1.23437,-1.3125 -1.23437,-3.671875 0,-2.453125 1.25,-3.796875 1.26562,-1.34375 3.26562,-1.34375 1.9375,0 3.15625,1.328125 1.23438,1.3125 1.23438,3.703125 0,0.15625 0,0.4375 h -7.21875 q 0.0937,1.59375 0.90625,2.453125 0.8125,0.84375 2.01562,0.84375 0.90625,0 1.54688,-0.46875 0.64062,-0.484375 1.01562,-1.515625 z m -5.39062,-2.65625 h 5.40625 q -0.10938,-1.21875 -0.625,-1.828125 -0.78125,-0.953125 -2.03125,-0.953125 -1.125,0 -1.90625,0.765625 -0.76563,0.75 -0.84375,2.015625 z m 9.1257,5.765625 v -9.671875 h 1.46875 v 1.46875 q 0.5625,-1.03125 1.03125,-1.359375 0.48437,-0.328125 1.0625,-0.328125 0.82812,0 1.6875,0.53125 l -0.5625,1.515625 q -0.60938,-0.359375 -1.20313,-0.359375 -0.54687,0 -0.96875,0.328125 -0.42187,0.328125 -0.60937,0.890625 -0.28125,0.875 -0.28125,1.921875 v 5.0625 z m 8.9158,0 -3.6875,-9.671875 h 1.73438 l 2.07812,5.796875 q 0.32813,0.9375 0.625,1.9375 0.20313,-0.765625 0.60938,-1.828125 l 2.14062,-5.90625 h 1.6875 l -3.65625,9.671875 z m 13.26563,-3.109375 1.6875,0.203125 q -0.40625,1.484375 -1.48438,2.3125 -1.07812,0.8125 -2.76562,0.8125 -2.125,0 -3.375,-1.296875 -1.23438,-1.3125 -1.23438,-3.671875 0,-2.453125 1.25,-3.796875 1.26563,-1.34375 3.26563,-1.34375 1.9375,0 3.15625,1.328125 1.23437,1.3125 1.23437,3.703125 0,0.15625 0,0.4375 h -7.21875 q 0.0937,1.59375 0.90625,2.453125 0.8125,0.84375 2.01563,0.84375 0.90625,0 1.54687,-0.46875 0.64063,-0.484375 1.01563,-1.515625 z m -5.39063,-2.65625 h 5.40625 q -0.10937,-1.21875 -0.625,-1.828125 -0.78125,-0.953125 -2.03125,-0.953125 -1.125,0 -1.90625,0.765625 -0.76562,0.75 -0.84375,2.015625 z m 9.12573,5.765625 v -9.671875 h 1.46875 v 1.46875 q 0.5625,-1.03125 1.03125,-1.359375 0.48438,-0.328125 1.0625,-0.328125 0.8281,0 1.68747,0.53125 l -0.5625,1.515625 q -0.60937,-0.359375 -1.20309,-0.359375 -0.54688,0 -0.96875,0.328125 -0.42188,0.328125 -0.60938,0.890625 -0.28125,0.875 -0.28125,1.921875 v 5.0625 z m 14.53659,3.921875 q -1.35937,-1.703125 -2.29687,-4 -0.9375,-2.296875 -0.9375,-4.765625 0,-2.15625 0.70312,-4.140625 0.82813,-2.3125 2.53125,-4.59375 h 1.17188 q -1.09375,1.890625 -1.45313,2.703125 -0.54687,1.25 -0.875,2.625 -0.39062,1.703125 -0.39062,3.421875 0,4.375 2.71875,8.75 z m 9.54081,-9.15625 v -1.578125 h 5.65625 v 4.953125 q -1.29688,1.046875 -2.6875,1.578125 -1.375,0.515625 -2.84375,0.515625 -1.96875,0 -3.57813,-0.84375 -1.60937,-0.84375 -2.42187,-2.4375 -0.8125,-1.59375 -0.8125,-3.5625 0,-1.953125 0.8125,-3.640625 0.8125,-1.6875 2.34375,-2.5 1.53125,-0.828125 3.51562,-0.828125 1.45313,0 2.625,0.46875 1.17188,0.46875 1.82813,1.3125 0.67187,0.828125 1.01562,2.171875 l -1.59375,0.4375 q -0.29687,-1.015625 -0.75,-1.59375 -0.4375,-0.59375 -1.26562,-0.9375 -0.82813,-0.34375 -1.84375,-0.34375 -1.20313,0 -2.09375,0.375 -0.89063,0.359375 -1.4375,0.96875 -0.53125,0.59375 -0.82813,1.3125 -0.51562,1.234375 -0.51562,2.6875 0,1.78125 0.60937,2.984375 0.625,1.203125 1.79688,1.796875 1.17187,0.578125 2.5,0.578125 1.14062,0 2.23437,-0.4375 1.09375,-0.453125 1.65625,-0.953125 v -2.484375 z m 8.26141,5.234375 V 40.544873 h 4.60937 q 1.54688,0 2.375,0.203125 1.14063,0.25 1.95313,0.953125 1.0625,0.890625 1.57812,2.28125 0.53125,1.390625 0.53125,3.171875 0,1.515625 -0.35937,2.703125 -0.35938,1.171875 -0.92188,1.9375 -0.54687,0.765625 -1.20312,1.21875 -0.65625,0.4375 -1.59375,0.671875 -0.9375,0.21875 -2.14063,0.21875 z m 1.76562,-1.578125 h 2.85938 q 1.3125,0 2.0625,-0.234375 0.75,-0.25 1.20312,-0.703125 0.625,-0.625 0.96875,-1.6875 0.35938,-1.0625 0.35938,-2.578125 0,-2.09375 -0.6875,-3.21875 -0.6875,-1.125 -1.67188,-1.5 -0.70312,-0.28125 -2.28125,-0.28125 h -2.8125 z m 11.62922,1.578125 V 40.544873 h 5.01562 q 1.53125,0 2.45313,0.40625 0.92187,0.40625 1.4375,1.25 0.53125,0.84375 0.53125,1.765625 0,0.859375 -0.46875,1.625 -0.45313,0.75 -1.39063,1.203125 1.20313,0.359375 1.85938,1.21875 0.65625,0.859375 0.65625,2.015625 0,0.9375 -0.40625,1.75 -0.39063,0.796875 -0.98438,1.234375 -0.57812,0.4375 -1.45312,0.671875 -0.875,0.21875 -2.15625,0.21875 z m 1.78125,-7.75 h 2.875 q 1.1875,0 1.6875,-0.140625 0.67187,-0.203125 1.01562,-0.671875 0.34375,-0.46875 0.34375,-1.171875 0,-0.65625 -0.32812,-1.15625 -0.3125,-0.515625 -0.90625,-0.703125 -0.59375,-0.1875 -2.03125,-0.1875 h -2.65625 z m 0,6.171875 h 3.3125 q 0.85937,0 1.20312,-0.0625 0.60938,-0.109375 1.01563,-0.359375 0.42187,-0.265625 0.6875,-0.75 0.26562,-0.484375 0.26562,-1.125 0,-0.75 -0.39062,-1.296875 -0.375,-0.546875 -1.0625,-0.765625 -0.67188,-0.234375 -1.95313,-0.234375 h -3.07812 z m 11.61544,5.5 h -1.1875 q 2.73438,-4.375 2.73438,-8.75 0,-1.71875 -0.39063,-3.390625 -0.3125,-1.375 -0.875,-2.625 -0.35937,-0.828125 -1.46875,-2.734375 h 1.1875 q 1.70313,2.28125 2.53125,4.59375 0.6875,1.984375 0.6875,4.140625 0,2.46875 -0.9375,4.765625 -0.9375,2.296875 -2.28125,4 z"
     fill-rule="nonzero"
     id="path33" />
  <path
     fill="#fff2cc"
     d="m 471.99123,165.71917 h 233.35431 v 51.62204 H 471.99123 Z"
     fill-rule="evenodd"
     id="path35" />
  <path
     stroke="#000000"
     stroke-width="1"
     stroke-linejoin="round"
     stroke-linecap="butt"
     d="m 471.99123,165.71917 h 233.35431 v 51.62204 H 471.99123 Z"
     fill-rule="evenodd"
     id="path37" />
  <path
     fill="#000000"
     d="m 507.93376,202.15331 v -4.73438 q -0.375,0.54688 -1.0625,0.90625 -0.6875,0.34375 -1.46875,0.34375 -1.71875,0 -2.96875,-1.375 -1.23437,-1.375 -1.23437,-3.76562 0,-1.46875 0.5,-2.625 0.51562,-1.15625 1.46875,-1.75 0.96875,-0.59375 2.10937,-0.59375 1.79688,0 2.82813,1.51562 v -1.29687 h 1.46875 v 13.375 z m -5.04687,-8.5625 q 0,1.85937 0.78125,2.79687 0.78125,0.9375 1.875,0.9375 1.04687,0 1.79687,-0.89062 0.76563,-0.89063 0.76563,-2.70313 0,-1.9375 -0.79688,-2.90625 -0.79687,-0.96875 -1.875,-0.96875 -1.0625,0 -1.8125,0.90625 -0.73437,0.90625 -0.73437,2.82813 z m 15.89132,1.75 1.6875,0.20312 q -0.40625,1.48438 -1.48437,2.3125 -1.07813,0.8125 -2.76563,0.8125 -2.125,0 -3.375,-1.29687 -1.23437,-1.3125 -1.23437,-3.67188 0,-2.45312 1.25,-3.79687 1.26562,-1.34375 3.26562,-1.34375 1.9375,0 3.15625,1.32812 1.23438,1.3125 1.23438,3.70313 0,0.15625 0,0.4375 h -7.21875 q 0.0937,1.59375 0.90625,2.45312 0.8125,0.84375 2.01562,0.84375 0.90625,0 1.54688,-0.46875 0.64062,-0.48437 1.01562,-1.51562 z m -5.39062,-2.65625 h 5.40625 q -0.10938,-1.21875 -0.625,-1.82813 -0.78125,-0.95312 -2.03125,-0.95312 -1.125,0 -1.90625,0.76562 -0.76563,0.75 -0.84375,2.01563 z m 9.14135,5.76562 v -9.67187 h 1.46875 v 1.35937 q 0.45313,-0.71875 1.20313,-1.14062 0.76562,-0.4375 1.71875,-0.4375 1.07812,0 1.76562,0.45312 0.6875,0.4375 0.96875,1.23438 1.15625,-1.6875 2.98438,-1.6875 1.45312,0 2.21875,0.79687 0.78125,0.79688 0.78125,2.45313 v 6.64062 h -1.64063 v -6.09375 q 0,-0.98437 -0.15625,-1.40625 -0.15625,-0.4375 -0.57812,-0.70312 -0.42188,-0.26563 -0.98438,-0.26563 -1.01562,0 -1.6875,0.6875 -0.67187,0.67188 -0.67187,2.15625 v 5.625 h -1.64063 v -6.28125 q 0,-1.09375 -0.40625,-1.64062 -0.40625,-0.54688 -1.3125,-0.54688 -0.6875,0 -1.28125,0.35938 -0.59375,0.35937 -0.85937,1.0625 -0.25,0.70312 -0.25,2.03125 v 5.01562 z m 21.86893,0 v -1.42187 q -1.125,1.64062 -3.0625,1.64062 -0.85937,0 -1.60937,-0.32812 -0.73438,-0.32813 -1.09375,-0.82813 -0.35938,-0.5 -0.5,-1.21875 -0.10938,-0.46875 -0.10938,-1.53125 v -5.98437 h 1.64063 v 5.35937 q 0,1.28125 0.10937,1.73438 0.15625,0.64062 0.65625,1.01562 0.5,0.375 1.23438,0.375 0.73437,0 1.375,-0.375 0.65625,-0.39062 0.92187,-1.03125 0.26563,-0.65625 0.26563,-1.89062 v -5.1875 h 1.64062 v 9.67187 z m 3.40695,-4.01562 v -1.64063 h 5.03125 v 1.64063 z m 6.19705,1.125 1.625,-0.25 q 0.125,0.96875 0.75,1.5 0.625,0.51562 1.75,0.51562 1.125,0 1.67188,-0.45312 0.54687,-0.46875 0.54687,-1.09375 0,-0.54688 -0.48437,-0.875 -0.32813,-0.21875 -1.67188,-0.54688 -1.8125,-0.46875 -2.51562,-0.79687 -0.6875,-0.32813 -1.04688,-0.90625 -0.35937,-0.59375 -0.35937,-1.3125 0,-0.64063 0.29687,-1.1875 0.29688,-0.5625 0.8125,-0.92188 0.375,-0.28125 1.03125,-0.46875 0.67188,-0.20312 1.42188,-0.20312 1.14062,0 2,0.32812 0.85937,0.32813 1.26562,0.89063 0.42188,0.5625 0.57813,1.5 l -1.60938,0.21875 q -0.10937,-0.75 -0.64062,-1.17188 -0.51563,-0.42187 -1.46875,-0.42187 -1.14063,0 -1.625,0.375 -0.46875,0.375 -0.46875,0.875 0,0.3125 0.1875,0.57812 0.20312,0.26563 0.64062,0.4375 0.23438,0.0937 1.4375,0.42188 1.75,0.45312 2.4375,0.75 0.6875,0.29687 1.07813,0.85937 0.39062,0.5625 0.39062,1.40625 0,0.82813 -0.48437,1.54688 -0.46875,0.71875 -1.375,1.125 -0.90625,0.39062 -2.04688,0.39062 -1.875,0 -2.875,-0.78125 -0.98437,-0.78125 -1.25,-2.32812 z m 9.90625,6.60937 -0.1875,-1.53125 q 0.54688,0.14063 0.9375,0.14063 0.54688,0 0.875,-0.1875 0.32813,-0.17188 0.54688,-0.5 0.15625,-0.25 0.5,-1.21875 0.0469,-0.14063 0.14062,-0.40625 l -3.67187,-9.6875 h 1.76562 l 2.01563,5.59375 q 0.39062,1.07812 0.70312,2.25 0.28125,-1.125 0.67188,-2.20313 l 2.07812,-5.64062 h 1.64063 l -3.6875,9.82812 q -0.59375,1.60938 -0.92188,2.20313 -0.4375,0.8125 -1,1.1875 -0.5625,0.375 -1.34375,0.375 -0.48437,0 -1.0625,-0.20313 z m 8.75,-6.60937 1.625,-0.25 q 0.125,0.96875 0.75,1.5 0.625,0.51562 1.75,0.51562 1.125,0 1.67188,-0.45312 0.54687,-0.46875 0.54687,-1.09375 0,-0.54688 -0.48437,-0.875 -0.32813,-0.21875 -1.67188,-0.54688 -1.8125,-0.46875 -2.51562,-0.79687 -0.6875,-0.32813 -1.04688,-0.90625 -0.35937,-0.59375 -0.35937,-1.3125 0,-0.64063 0.29687,-1.1875 0.29688,-0.5625 0.8125,-0.92188 0.375,-0.28125 1.03125,-0.46875 0.67188,-0.20312 1.42188,-0.20312 1.14062,0 2,0.32812 0.85937,0.32813 1.26562,0.89063 0.42188,0.5625 0.57813,1.5 l -1.60938,0.21875 q -0.10937,-0.75 -0.64062,-1.17188 -0.51563,-0.42187 -1.46875,-0.42187 -1.14063,0 -1.625,0.375 -0.46875,0.375 -0.46875,0.875 0,0.3125 0.1875,0.57812 0.20312,0.26563 0.64062,0.4375 0.23438,0.0937 1.4375,0.42188 1.75,0.45312 2.4375,0.75 0.6875,0.29687 1.07813,0.85937 0.39062,0.5625 0.39062,1.40625 0,0.82813 -0.48437,1.54688 -0.46875,0.71875 -1.375,1.125 -0.90625,0.39062 -2.04688,0.39062 -1.875,0 -2.875,-0.78125 -0.98437,-0.78125 -1.25,-2.32812 z m 13.5625,1.42187 0.23438,1.45313 q -0.6875,0.14062 -1.23438,0.14062 -0.89062,0 -1.39062,-0.28125 -0.48438,-0.28125 -0.6875,-0.73437 -0.20313,-0.46875 -0.20313,-1.9375 v -5.57813 h -1.20312 v -1.26562 h 1.20312 v -2.39063 l 1.625,-0.98437 v 3.375 h 1.65625 v 1.26562 h -1.65625 v 5.67188 q 0,0.6875 0.0781,0.89062 0.0937,0.20313 0.28125,0.32813 0.20312,0.10937 0.57812,0.10937 0.26563,0 0.71875,-0.0625 z m 8.2302,-1.64062 1.6875,0.20312 q -0.40625,1.48438 -1.48438,2.3125 -1.07812,0.8125 -2.76562,0.8125 -2.125,0 -3.375,-1.29687 -1.23438,-1.3125 -1.23438,-3.67188 0,-2.45312 1.25,-3.79687 1.26563,-1.34375 3.26563,-1.34375 1.9375,0 3.15625,1.32812 1.23437,1.3125 1.23437,3.70313 0,0.15625 0,0.4375 h -7.21875 q 0.0937,1.59375 0.90625,2.45312 0.8125,0.84375 2.01563,0.84375 0.90625,0 1.54687,-0.46875 0.64063,-0.48437 1.01563,-1.51562 z m -5.39063,-2.65625 h 5.40625 q -0.10937,-1.21875 -0.625,-1.82813 -0.78125,-0.95312 -2.03125,-0.95312 -1.125,0 -1.90625,0.76562 -0.76562,0.75 -0.84375,2.01563 z m 9.14133,5.76562 v -9.67187 h 1.46875 v 1.35937 q 0.45313,-0.71875 1.20313,-1.14062 0.76562,-0.4375 1.71875,-0.4375 1.07812,0 1.76562,0.45312 0.6875,0.4375 0.96875,1.23438 1.15625,-1.6875 2.98438,-1.6875 1.45312,0 2.21875,0.79687 0.78125,0.79688 0.78125,2.45313 v 6.64062 h -1.64063 v -6.09375 q 0,-0.98437 -0.15625,-1.40625 -0.15625,-0.4375 -0.57812,-0.70312 -0.42188,-0.26563 -0.98438,-0.26563 -1.01562,0 -1.6875,0.6875 -0.67187,0.67188 -0.67187,2.15625 v 5.625 h -1.64063 v -6.28125 q 0,-1.09375 -0.40625,-1.64062 -0.40625,-0.54688 -1.3125,-0.54688 -0.6875,0 -1.28125,0.35938 -0.59375,0.35937 -0.85937,1.0625 -0.25,0.70312 -0.25,2.03125 v 5.01562 z m 14.90018,-4.01562 v -1.64063 h 5.03125 v 1.64063 z m 7.30642,4.01562 v -1.875 h 1.875 v 1.875 z m 5.18329,0 v -1.875 h 1.875 v 1.875 z m 5.18332,0 v -1.875 h 1.875 v 1.875 z m 9.27286,-4.01562 v -1.64063 h 5.03125 v 1.64063 z m 6.5408,4.8125 1.59375,0.23437 q 0.10938,0.75 0.5625,1.07813 0.60938,0.45312 1.67188,0.45312 1.14062,0 1.75,-0.45312 0.625,-0.45313 0.84375,-1.26563 0.125,-0.5 0.10937,-2.10937 -1.0625,1.26562 -2.67187,1.26562 -2,0 -3.09375,-1.4375 -1.09375,-1.4375 -1.09375,-3.45312 0,-1.39063 0.5,-2.5625 0.51562,-1.17188 1.45312,-1.79688 0.95313,-0.64062 2.25,-0.64062 1.70313,0 2.8125,1.375 v -1.15625 h 1.51563 v 8.35937 q 0,2.26563 -0.46875,3.20313 -0.45313,0.9375 -1.45313,1.48437 -0.98437,0.54688 -2.45312,0.54688 -1.71875,0 -2.79688,-0.78125 -1.0625,-0.76563 -1.03125,-2.34375 z m 1.35938,-5.8125 q 0,1.90625 0.75,2.78125 0.76562,0.875 1.90625,0.875 1.125,0 1.89062,-0.85938 0.76563,-0.875 0.76563,-2.73437 0,-1.78125 -0.79688,-2.67188 -0.78125,-0.90625 -1.89062,-0.90625 -1.09375,0 -1.85938,0.89063 -0.76562,0.875 -0.76562,2.625 z m 15.59448,5.01562 v -1.21875 q -0.90625,1.4375 -2.70316,1.4375 -1.15625,0 -2.125,-0.64062 -0.96875,-0.64063 -1.5,-1.78125 -0.53125,-1.14063 -0.53125,-2.625 0,-1.45313 0.48438,-2.625 0.48437,-1.1875 1.4375,-1.8125 0.96875,-0.625 2.17187,-0.625 0.875,0 1.54691,0.375 0.6875,0.35937 1.10937,0.95312 v -4.79687 h 1.64063 v 13.35937 z m -5.17191,-4.82812 q 0,1.85937 0.78125,2.78125 0.78125,0.92187 1.84375,0.92187 1.07816,0 1.82816,-0.875 0.75,-0.89062 0.75,-2.6875 0,-1.98437 -0.76563,-2.90625 -0.76562,-0.9375 -1.89065,-0.9375 -1.07813,0 -1.8125,0.89063 -0.73438,0.89062 -0.73438,2.8125 z m 10.78202,4.82812 h -1.51563 v -13.35937 h 1.64063 v 4.76562 q 1.04687,-1.29687 2.65625,-1.29687 0.89062,0 1.6875,0.35937 0.79687,0.35938 1.3125,1.01563 0.51562,0.64062 0.79687,1.5625 0.29688,0.92187 0.29688,1.96875 0,2.48437 -1.23438,3.84375 -1.21875,1.35937 -2.95312,1.35937 -1.70313,0 -2.6875,-1.4375 z m -0.0156,-4.90625 q 0,1.73438 0.48438,2.51563 0.76562,1.26562 2.09375,1.26562 1.07812,0 1.85937,-0.9375 0.78125,-0.9375 0.78125,-2.78125 0,-1.89062 -0.75,-2.79687 -0.75,-0.90625 -1.82812,-0.90625 -1.0625,0 -1.85938,0.9375 -0.78125,0.9375 -0.78125,2.70312 z"
     fill-rule="nonzero"
     id="path39" />
  <path
     fill="#d9ead3"
     d="m 471.99123,237.99213 h 233.35431 v 51.62206 H 471.99123 Z"
     fill-rule="evenodd"
     id="path41" />
  <path
     stroke="#000000"
     stroke-width="1"
     stroke-linejoin="round"
     stroke-linecap="butt"
     d="m 471.99123,237.99213 h 233.35431 v 51.62206 H 471.99123 Z"
     fill-rule="evenodd"
     id="path43" />
  <path
     fill="#000000"
     d="m 514.41053,270.72313 v -13.35938 h 4.60937 q 1.54688,0 2.375,0.20313 1.14063,0.25 1.95313,0.95312 1.0625,0.89063 1.57812,2.28125 0.53125,1.39063 0.53125,3.17188 0,1.51562 -0.35937,2.70312 -0.35938,1.17188 -0.92188,1.9375 -0.54687,0.76563 -1.20312,1.21875 -0.65625,0.4375 -1.59375,0.67188 -0.9375,0.21875 -2.14063,0.21875 z m 1.76562,-1.57813 h 2.85938 q 1.3125,0 2.0625,-0.23437 0.75,-0.25 1.20312,-0.70313 0.625,-0.625 0.96875,-1.6875 0.35938,-1.0625 0.35938,-2.57812 0,-2.09375 -0.6875,-3.21875 -0.6875,-1.125 -1.67188,-1.5 -0.70312,-0.28125 -2.28125,-0.28125 h -2.8125 z m 11.70731,1.57813 v -13.35938 h 4.60938 q 1.54687,0 2.375,0.20313 1.14062,0.25 1.95312,0.95312 1.0625,0.89063 1.57813,2.28125 0.53125,1.39063 0.53125,3.17188 0,1.51562 -0.35938,2.70312 -0.35937,1.17188 -0.92187,1.9375 -0.54688,0.76563 -1.20313,1.21875 -0.65625,0.4375 -1.59375,0.67188 -0.9375,0.21875 -2.14062,0.21875 z m 1.76563,-1.57813 h 2.85937 q 1.3125,0 2.0625,-0.23437 0.75,-0.25 1.20313,-0.70313 0.625,-0.625 0.96875,-1.6875 0.35937,-1.0625 0.35937,-2.57812 0,-2.09375 -0.6875,-3.21875 -0.6875,-1.125 -1.67187,-1.5 -0.70313,-0.28125 -2.28125,-0.28125 h -2.8125 z m 11.62921,1.57813 v -13.35938 h 5.01562 q 1.53125,0 2.45313,0.40625 0.92187,0.40625 1.4375,1.25 0.53125,0.84375 0.53125,1.76563 0,0.85937 -0.46875,1.625 -0.45313,0.75 -1.39063,1.20312 1.20313,0.35938 1.85938,1.21875 0.65625,0.85938 0.65625,2.01563 0,0.9375 -0.40625,1.75 -0.39063,0.79687 -0.98438,1.23437 -0.57812,0.4375 -1.45312,0.67188 -0.875,0.21875 -2.15625,0.21875 z m 1.78125,-7.75 h 2.875 q 1.1875,0 1.6875,-0.14063 0.67187,-0.20312 1.01562,-0.67187 0.34375,-0.46875 0.34375,-1.17188 0,-0.65625 -0.32812,-1.15625 -0.3125,-0.51562 -0.90625,-0.70312 -0.59375,-0.1875 -2.03125,-0.1875 h -2.65625 z m 0,6.17187 h 3.3125 q 0.85937,0 1.20312,-0.0625 0.60938,-0.10937 1.01563,-0.35937 0.42187,-0.26563 0.6875,-0.75 0.26562,-0.48438 0.26562,-1.125 0,-0.75 -0.39062,-1.29688 -0.375,-0.54687 -1.0625,-0.76562 -0.67188,-0.23438 -1.95313,-0.23438 h -3.07812 z m 28.65811,-6.40625 q 1.20312,1.32813 2.07812,2.01563 0.89063,0.6875 1.67188,1.01562 v 0.42188 q -0.89063,0.4375 -1.75,1.125 -0.84375,0.67187 -2.01563,1.96875 h -0.70312 q 0.85937,-1.82813 1.79687,-2.8125 h -14.53125 v -0.92188 h 14.53125 q -0.6875,-0.875 -0.96875,-1.29687 -0.26562,-0.4375 -0.8125,-1.51563 z m 10.58957,8.78125 1.59375,0.23438 q 0.10937,0.75 0.5625,1.07812 0.60937,0.45313 1.67187,0.45313 1.14063,0 1.75,-0.45313 0.625,-0.45312 0.84375,-1.26562 0.125,-0.5 0.10938,-2.10938 -1.0625,1.26563 -2.67188,1.26563 -2,0 -3.09375,-1.4375 -1.09375,-1.4375 -1.09375,-3.45313 0,-1.39062 0.5,-2.5625 0.51563,-1.17187 1.45313,-1.79687 0.95312,-0.64063 2.25,-0.64063 1.70312,0 2.8125,1.375 v -1.15625 h 1.51562 v 8.35938 q 0,2.26562 -0.46875,3.20312 -0.45312,0.9375 -1.45312,1.48438 -0.98438,0.54687 -2.45313,0.54687 -1.71875,0 -2.79687,-0.78125 -1.0625,-0.76562 -1.03125,-2.34375 z m 1.35937,-5.8125 q 0,1.90625 0.75,2.78125 0.76563,0.875 1.90625,0.875 1.125,0 1.89063,-0.85937 0.76562,-0.875 0.76562,-2.73438 0,-1.78125 -0.79687,-2.67187 -0.78125,-0.90625 -1.89063,-0.90625 -1.09375,0 -1.85937,0.89062 -0.76563,0.875 -0.76563,2.625 z m 15.59445,5.01563 v -1.21875 q -0.90625,1.4375 -2.70312,1.4375 -1.15625,0 -2.125,-0.64063 -0.96875,-0.64062 -1.5,-1.78125 -0.53125,-1.14062 -0.53125,-2.625 0,-1.45312 0.48437,-2.625 0.48438,-1.1875 1.4375,-1.8125 0.96875,-0.625 2.17188,-0.625 0.875,0 1.54687,0.375 0.6875,0.35938 1.10938,0.95313 v -4.79688 h 1.64062 v 13.35938 z m -5.17187,-4.82813 q 0,1.85938 0.78125,2.78125 0.78125,0.92188 1.84375,0.92188 1.07812,0 1.82812,-0.875 0.75,-0.89063 0.75,-2.6875 0,-1.98438 -0.76562,-2.90625 -0.76563,-0.9375 -1.89063,-0.9375 -1.07812,0 -1.8125,0.89062 -0.73437,0.89063 -0.73437,2.8125 z m 10.78198,4.82813 h -1.51562 v -13.35938 h 1.64062 v 4.76563 q 1.04688,-1.29688 2.65625,-1.29688 0.89063,0 1.6875,0.35938 0.79688,0.35937 1.3125,1.01562 0.51563,0.64063 0.79688,1.5625 0.29687,0.92188 0.29687,1.96875 0,2.48438 -1.23437,3.84375 -1.21875,1.35938 -2.95313,1.35938 -1.70312,0 -2.6875,-1.4375 z m -0.0156,-4.90625 q 0,1.73437 0.48437,2.51562 0.76563,1.26563 2.09375,1.26563 1.07813,0 1.85938,-0.9375 0.78125,-0.9375 0.78125,-2.78125 0,-1.89063 -0.75,-2.79688 -0.75,-0.90625 -1.82813,-0.90625 -1.0625,0 -1.85937,0.9375 -0.78125,0.9375 -0.78125,2.70313 z m 14.07464,4.90625 v -9.67188 h 1.46875 v 1.35938 q 0.45313,-0.71875 1.20313,-1.14063 0.76562,-0.4375 1.71875,-0.4375 1.07812,0 1.76562,0.45313 0.6875,0.4375 0.96875,1.23437 1.15625,-1.6875 2.98438,-1.6875 1.45312,0 2.21875,0.79688 0.78125,0.79687 0.78125,2.45312 v 6.64063 h -1.64063 v -6.09375 q 0,-0.98438 -0.15625,-1.40625 -0.15625,-0.4375 -0.57812,-0.70313 -0.42188,-0.26562 -0.98438,-0.26562 -1.01562,0 -1.6875,0.6875 -0.67187,0.67187 -0.67187,2.15625 v 5.625 h -1.64063 v -6.28125 q 0,-1.09375 -0.40625,-1.64063 -0.40625,-0.54687 -1.3125,-0.54687 -0.6875,0 -1.28125,0.35937 -0.59375,0.35938 -0.85937,1.0625 -0.25,0.70313 -0.25,2.03125 v 5.01563 z m 14.93143,-4.84375 q 0,-2.6875 1.48437,-3.96875 1.25,-1.07813 3.04688,-1.07813 2,0 3.26562,1.3125 1.26563,1.29688 1.26563,3.60938 0,1.85937 -0.5625,2.9375 -0.5625,1.0625 -1.64063,1.65625 -1.0625,0.59375 -2.32812,0.59375 -2.03125,0 -3.28125,-1.29688 -1.25,-1.3125 -1.25,-3.76562 z m 1.6875,0 q 0,1.85937 0.79687,2.79687 0.8125,0.92188 2.04688,0.92188 1.21875,0 2.03125,-0.92188 0.8125,-0.9375 0.8125,-2.84375 0,-1.79687 -0.8125,-2.71875 -0.8125,-0.92187 -2.03125,-0.92187 -1.23438,0 -2.04688,0.92187 -0.79687,0.90625 -0.79687,2.76563 z m 15.5632,4.84375 v -1.21875 q -0.90625,1.4375 -2.70312,1.4375 -1.15625,0 -2.125,-0.64063 -0.96875,-0.64062 -1.5,-1.78125 -0.53125,-1.14062 -0.53125,-2.625 0,-1.45312 0.48437,-2.625 0.48438,-1.1875 1.4375,-1.8125 0.96875,-0.625 2.17188,-0.625 0.875,0 1.54687,0.375 0.6875,0.35938 1.10938,0.95313 v -4.79688 h 1.64062 v 13.35938 z m -5.17187,-4.82813 q 0,1.85938 0.78125,2.78125 0.78125,0.92188 1.84375,0.92188 1.07812,0 1.82812,-0.875 0.75,-0.89063 0.75,-2.6875 0,-1.98438 -0.76562,-2.90625 -0.76563,-0.9375 -1.89063,-0.9375 -1.07812,0 -1.8125,0.89062 -0.73437,0.89063 -0.73437,2.8125 z m 15.90698,1.71875 1.6875,0.20313 q -0.40625,1.48437 -1.48438,2.3125 -1.07812,0.8125 -2.76562,0.8125 -2.125,0 -3.375,-1.29688 -1.23438,-1.3125 -1.23438,-3.67187 0,-2.45313 1.25,-3.79688 1.26563,-1.34375 3.26563,-1.34375 1.9375,0 3.15625,1.32813 1.23437,1.3125 1.23437,3.70312 0,0.15625 0,0.4375 h -7.21875 q 0.0937,1.59375 0.90625,2.45313 0.8125,0.84375 2.01563,0.84375 0.90625,0 1.54687,-0.46875 0.64063,-0.48438 1.01563,-1.51563 z m -5.39063,-2.65625 h 5.40625 q -0.10937,-1.21875 -0.625,-1.82812 -0.78125,-0.95313 -2.03125,-0.95313 -1.125,0 -1.90625,0.76563 -0.76562,0.75 -0.84375,2.01562 z"
     fill-rule="nonzero"
     id="path45" />
  <path
     fill="#000000"
     fill-opacity="0"
     d="m 356.35344,87.76115 h 57.82678"
     fill-rule="evenodd"
     id="path47" />
  <path
     stroke="#000000"
     stroke-width="1"
     stroke-linejoin="round"
     stroke-linecap="butt"
     d="m 356.35344,87.76115 h 51.82678"
     fill-rule="evenodd"
     id="path49" />
  <path
     fill="#000000"
     stroke="#000000"
     stroke-width="1"
     stroke-linecap="butt"
     d="m 408.18023,89.412885 4.53809,-1.651733 -4.53809,-1.651726 z"
     fill-rule="evenodd"
     id="path51" />
  <path
     fill="#000000"
     fill-opacity="0"
     d="M 471.99123,46.98425 H 414.16448"
     fill-rule="evenodd"
     id="path53" />
  <path
     stroke="#000000"
     stroke-width="1"
     stroke-linejoin="round"
     stroke-linecap="butt"
     d="M 465.99123,46.98425 H 414.16448"
     fill-rule="evenodd"
     id="path55" />
  <path
     fill="#000000"
     stroke="#000000"
     stroke-width="1"
     stroke-linecap="butt"
     d="m 465.99123,48.635984 4.53812,-1.651733 -4.53812,-1.65173 z"
     fill-rule="evenodd"
     id="path57" />
  <path
     fill="#000000"
     fill-opacity="0"
     d="M 471.99123,119.25722 H 414.16448"
     fill-rule="evenodd"
     id="path59" />
  <path
     stroke="#000000"
     stroke-width="1"
     stroke-linejoin="round"
     stroke-linecap="butt"
     d="M 465.99123,119.25722 H 414.16448"
     fill-rule="evenodd"
     id="path61" />
  <path
     fill="#000000"
     stroke="#000000"
     stroke-width="1"
     stroke-linecap="butt"
     d="m 465.99123,120.90895 4.53812,-1.65173 -4.53812,-1.65174 z"
     fill-rule="evenodd"
     id="path63" />
  <path
     fill="#000000"
     fill-opacity="0"
     d="M 471.99123,191.53019 H 414.16448"
     fill-rule="evenodd"
     id="path65" />
  <path
     stroke="#000000"
     stroke-width="1"
     stroke-linejoin="round"
     stroke-linecap="butt"
     d="M 465.99123,191.53019 H 414.16448"
     fill-rule="evenodd"
     id="path67" />
  <path
     fill="#000000"
     stroke="#000000"
     stroke-width="1"
     stroke-linecap="butt"
     d="m 465.99123,193.18192 4.53812,-1.65173 -4.53812,-1.65174 z"
     fill-rule="evenodd"
     id="path69" />
  <path
     fill="#000000"
     fill-opacity="0"
     d="M 471.99123,264.83727 H 414.16448"
     fill-rule="evenodd"
     id="path71" />
  <path
     stroke="#000000"
     stroke-width="1"
     stroke-linejoin="round"
     stroke-linecap="butt"
     d="M 465.99123,264.83727 H 414.16448"
     fill-rule="evenodd"
     id="path73" />
  <path
     fill="#000000"
     stroke="#000000"
     stroke-width="1"
     stroke-linecap="butt"
     d="m 465.99123,266.489 4.53812,-1.65173 -4.53812,-1.65174 z"
     fill-rule="evenodd"
     id="path75" />
  <path
     fill="#000000"
     fill-opacity="0"
     d="m 356.35344,228.69291 h 57.82678"
     fill-rule="evenodd"
     id="path77" />
  <path
     stroke="#000000"
     stroke-width="1"
     stroke-linejoin="round"
     stroke-linecap="butt"
     d="m 356.35344,228.69291 h 51.82678"
     fill-rule="evenodd"
     id="path79" />
  <path
     fill="#000000"
     stroke="#000000"
     stroke-width="1"
     stroke-linecap="butt"
     d="m 408.18023,230.34464 4.53809,-1.65173 -4.53809,-1.65174 z"
     fill-rule="evenodd"
     id="path81" />
  <path
     fill="#000000"
     fill-opacity="0"
     d="M 311.43218,307.68505 H 516.9125 V 349.7008 H 311.43218 Z"
     fill-rule="evenodd"
     id="path83" />
  <path
     fill="#000000"
     d="m 329.58063,329.37067 v -1.57813 h 5.65625 v 4.95313 q -1.29688,1.04687 -2.6875,1.57812 -1.375,0.51563 -2.84375,0.51563 -1.96875,0 -3.57813,-0.84375 -1.60937,-0.84375 -2.42187,-2.4375 -0.8125,-1.59375 -0.8125,-3.5625 0,-1.95313 0.8125,-3.64063 0.8125,-1.6875 2.34375,-2.5 1.53125,-0.82812 3.51562,-0.82812 1.45313,0 2.625,0.46875 1.17188,0.46875 1.82813,1.3125 0.67187,0.82812 1.01562,2.17187 l -1.59375,0.4375 q -0.29687,-1.01562 -0.75,-1.59375 -0.4375,-0.59375 -1.26562,-0.9375 -0.82813,-0.34375 -1.84375,-0.34375 -1.20313,0 -2.09375,0.375 -0.89063,0.35938 -1.4375,0.96875 -0.53125,0.59375 -0.82813,1.3125 -0.51562,1.23438 -0.51562,2.6875 0,1.78125 0.60937,2.98438 0.625,1.20312 1.79688,1.79687 1.17187,0.57813 2.5,0.57813 1.14062,0 2.23437,-0.4375 1.09375,-0.45313 1.65625,-0.95313 v -2.48437 z m 8.26143,5.23437 v -13.35937 h 4.60937 q 1.54688,0 2.375,0.20312 1.14063,0.25 1.95313,0.95313 1.0625,0.89062 1.57812,2.28125 0.53125,1.39062 0.53125,3.17187 0,1.51563 -0.35937,2.70313 -0.35938,1.17187 -0.92188,1.9375 -0.54687,0.76562 -1.20312,1.21875 -0.65625,0.4375 -1.59375,0.67187 -0.9375,0.21875 -2.14063,0.21875 z m 1.76562,-1.57812 h 2.85938 q 1.3125,0 2.0625,-0.23438 0.75,-0.25 1.20312,-0.70312 0.625,-0.625 0.96875,-1.6875 0.35938,-1.0625 0.35938,-2.57813 0,-2.09375 -0.6875,-3.21875 -0.6875,-1.125 -1.67188,-1.5 -0.70312,-0.28125 -2.28125,-0.28125 h -2.8125 z m 11.6292,1.57812 v -13.35937 h 5.01562 q 1.53125,0 2.45313,0.40625 0.92187,0.40625 1.4375,1.25 0.53125,0.84375 0.53125,1.76562 0,0.85938 -0.46875,1.625 -0.45313,0.75 -1.39063,1.20313 1.20313,0.35937 1.85938,1.21875 0.65625,0.85937 0.65625,2.01562 0,0.9375 -0.40625,1.75 -0.39063,0.79688 -0.98438,1.23438 -0.57812,0.4375 -1.45312,0.67187 -0.875,0.21875 -2.15625,0.21875 z m 1.78125,-7.75 h 2.875 q 1.1875,0 1.6875,-0.14062 0.67187,-0.20313 1.01562,-0.67188 0.34375,-0.46875 0.34375,-1.17187 0,-0.65625 -0.32812,-1.15625 -0.3125,-0.51563 -0.90625,-0.70313 -0.59375,-0.1875 -2.03125,-0.1875 h -2.65625 z m 0,6.17188 h 3.3125 q 0.85937,0 1.20312,-0.0625 0.60938,-0.10938 1.01563,-0.35938 0.42187,-0.26562 0.6875,-0.75 0.26562,-0.48437 0.26562,-1.125 0,-0.75 -0.39062,-1.29687 -0.375,-0.54688 -1.0625,-0.76563 -0.67188,-0.23437 -1.95313,-0.23437 h -3.07812 z m 15.955,1.57812 v -13.35937 h 5.92188 q 1.78125,0 2.70312,0.35937 0.9375,0.35938 1.48438,1.28125 0.5625,0.90625 0.5625,2.01563 0,1.40625 -0.92188,2.39062 -0.92187,0.96875 -2.84375,1.23438 0.70313,0.34375 1.07813,0.67187 0.76562,0.70313 1.45312,1.76563 l 2.32813,3.64062 h -2.21875 l -1.76563,-2.78125 q -0.78125,-1.20312 -1.28125,-1.82812 -0.5,-0.64063 -0.90625,-0.89063 -0.39062,-0.26562 -0.79687,-0.35937 -0.29688,-0.0781 -0.98438,-0.0781 h -2.04687 v 5.9375 z m 1.76563,-7.45312 h 3.79687 q 1.21875,0 1.89063,-0.25 0.6875,-0.26563 1.04687,-0.8125 0.35938,-0.54688 0.35938,-1.1875 0,-0.95313 -0.6875,-1.5625 -0.6875,-0.60938 -2.1875,-0.60938 h -4.21875 z m 18.09794,4.34375 1.6875,0.20312 q -0.40625,1.48438 -1.48437,2.3125 -1.07813,0.8125 -2.76563,0.8125 -2.125,0 -3.375,-1.29687 -1.23437,-1.3125 -1.23437,-3.67188 0,-2.45312 1.25,-3.79687 1.26562,-1.34375 3.26562,-1.34375 1.9375,0 3.15625,1.32812 1.23438,1.3125 1.23438,3.70313 0,0.15625 0,0.4375 h -7.21875 q 0.0937,1.59375 0.90625,2.45312 0.8125,0.84375 2.01562,0.84375 0.90625,0 1.54688,-0.46875 0.64062,-0.48437 1.01562,-1.51562 z m -5.39062,-2.65625 h 5.40625 q -0.10938,-1.21875 -0.625,-1.82813 -0.78125,-0.95312 -2.03125,-0.95312 -1.125,0 -1.90625,0.76562 -0.76563,0.75 -0.84375,2.01563 z m 9.14134,5.76562 v -9.67187 h 1.46875 v 1.35937 q 0.45313,-0.71875 1.20313,-1.14062 0.76562,-0.4375 1.71875,-0.4375 1.07812,0 1.76562,0.45312 0.6875,0.4375 0.96875,1.23438 1.15625,-1.6875 2.98438,-1.6875 1.45312,0 2.21875,0.79687 0.78125,0.79688 0.78125,2.45313 v 6.64062 h -1.64063 v -6.09375 q 0,-0.98437 -0.15625,-1.40625 -0.15625,-0.4375 -0.57812,-0.70312 -0.42188,-0.26563 -0.98438,-0.26563 -1.01562,0 -1.6875,0.6875 -0.67187,0.67188 -0.67187,2.15625 v 5.625 h -1.64063 v -6.28125 q 0,-1.09375 -0.40625,-1.64062 -0.40625,-0.54688 -1.3125,-0.54688 -0.6875,0 -1.28125,0.35938 -0.59375,0.35937 -0.85937,1.0625 -0.25,0.70312 -0.25,2.03125 v 5.01562 z m 14.93143,-4.84375 q 0,-2.6875 1.48437,-3.96875 1.25,-1.07812 3.04688,-1.07812 2,0 3.26562,1.3125 1.26563,1.29687 1.26563,3.60937 0,1.85938 -0.5625,2.9375 -0.5625,1.0625 -1.64063,1.65625 -1.0625,0.59375 -2.32812,0.59375 -2.03125,0 -3.28125,-1.29687 -1.25,-1.3125 -1.25,-3.76563 z m 1.6875,0 q 0,1.85938 0.79687,2.79688 0.8125,0.92187 2.04688,0.92187 1.21875,0 2.03125,-0.92187 0.8125,-0.9375 0.8125,-2.84375 0,-1.79688 -0.8125,-2.71875 -0.8125,-0.92188 -2.03125,-0.92188 -1.23438,0 -2.04688,0.92188 -0.79687,0.90625 -0.79687,2.76562 z m 12.87573,3.375 0.23437,1.45313 q -0.6875,0.14062 -1.23437,0.14062 -0.89063,0 -1.39063,-0.28125 -0.48437,-0.28125 -0.6875,-0.73437 -0.20312,-0.46875 -0.20312,-1.9375 v -5.57813 h -1.20313 v -1.26562 h 1.20313 v -2.39063 l 1.625,-0.98437 v 3.375 h 1.65625 v 1.26562 h -1.65625 v 5.67188 q 0,0.6875 0.0781,0.89062 0.0937,0.20313 0.28125,0.32813 0.20313,0.10937 0.57813,0.10937 0.26562,0 0.71875,-0.0625 z m 8.23016,-1.64062 1.6875,0.20312 q -0.40625,1.48438 -1.48437,2.3125 -1.07813,0.8125 -2.76563,0.8125 -2.125,0 -3.375,-1.29687 -1.23437,-1.3125 -1.23437,-3.67188 0,-2.45312 1.25,-3.79687 1.26562,-1.34375 3.26562,-1.34375 1.9375,0 3.15625,1.32812 1.23438,1.3125 1.23438,3.70313 0,0.15625 0,0.4375 h -7.21875 q 0.0937,1.59375 0.90625,2.45312 0.8125,0.84375 2.01562,0.84375 0.90625,0 1.54688,-0.46875 0.64062,-0.48437 1.01562,-1.51562 z m -5.39062,-2.65625 h 5.40625 q -0.10938,-1.21875 -0.625,-1.82813 -0.78125,-0.95312 -2.03125,-0.95312 -1.125,0 -1.90625,0.76562 -0.76563,0.75 -0.84375,2.01563 z m 14.52777,5.76562 v -13.35937 h 5.04687 q 1.32813,0 2.03125,0.125 0.96875,0.17187 1.64063,0.64062 0.67187,0.45313 1.07812,1.28125 0.40625,0.82813 0.40625,1.82813 0,1.70312 -1.09375,2.89062 -1.07812,1.17188 -3.92187,1.17188 h -3.42188 v 5.42187 z m 1.76562,-7 h 3.45313 q 1.71875,0 2.4375,-0.64062 0.71875,-0.64063 0.71875,-1.79688 0,-0.84375 -0.42188,-1.4375 -0.42187,-0.59375 -1.125,-0.78125 -0.4375,-0.125 -1.64062,-0.125 h -3.42188 z m 10.4592,7 v -9.67187 h 1.46875 v 1.46875 q 0.5625,-1.03125 1.03125,-1.35938 0.48438,-0.32812 1.0625,-0.32812 0.82813,0 1.6875,0.53125 l -0.5625,1.51562 q -0.60937,-0.35937 -1.20312,-0.35937 -0.54688,0 -0.96875,0.32812 -0.42188,0.32813 -0.60938,0.89063 -0.28125,0.875 -0.28125,1.92187 v 5.0625 z m 5.61893,-4.84375 q 0,-2.6875 1.48437,-3.96875 1.25,-1.07812 3.04688,-1.07812 2,0 3.26562,1.3125 1.26563,1.29687 1.26563,3.60937 0,1.85938 -0.5625,2.9375 -0.5625,1.0625 -1.64063,1.65625 -1.0625,0.59375 -2.32812,0.59375 -2.03125,0 -3.28125,-1.29687 -1.25,-1.3125 -1.25,-3.76563 z m 1.6875,0 q 0,1.85938 0.79687,2.79688 0.8125,0.92187 2.04688,0.92187 1.21875,0 2.03125,-0.92187 0.8125,-0.9375 0.8125,-2.84375 0,-1.79688 -0.8125,-2.71875 -0.8125,-0.92188 -2.03125,-0.92188 -1.23438,0 -2.04688,0.92188 -0.79687,0.90625 -0.79687,2.76562 z m 12.87573,3.375 0.23438,1.45313 q -0.6875,0.14062 -1.23438,0.14062 -0.89062,0 -1.39062,-0.28125 -0.48438,-0.28125 -0.6875,-0.73437 -0.20313,-0.46875 -0.20313,-1.9375 v -5.57813 H 467.372 v -1.26562 h 1.20312 v -2.39063 l 1.625,-0.98437 v 3.375 h 1.65625 v 1.26562 h -1.65625 v 5.67188 q 0,0.6875 0.0781,0.89062 0.0937,0.20313 0.28125,0.32813 0.20312,0.10937 0.57812,0.10937 0.26563,0 0.71875,-0.0625 z m 0.99579,-3.375 q 0,-2.6875 1.48437,-3.96875 1.25,-1.07812 3.04688,-1.07812 2,0 3.26562,1.3125 1.26563,1.29687 1.26563,3.60937 0,1.85938 -0.5625,2.9375 -0.5625,1.0625 -1.64063,1.65625 -1.0625,0.59375 -2.32812,0.59375 -2.03125,0 -3.28125,-1.29687 -1.25,-1.3125 -1.25,-3.76563 z m 1.6875,0 q 0,1.85938 0.79687,2.79688 0.8125,0.92187 2.04688,0.92187 1.21875,0 2.03125,-0.92187 0.8125,-0.9375 0.8125,-2.84375 0,-1.79688 -0.8125,-2.71875 -0.8125,-0.92188 -2.03125,-0.92188 -1.23438,0 -2.04688,0.92188 -0.79687,0.90625 -0.79687,2.76562 z m 15.61011,1.29688 1.60937,0.21875 q -0.26562,1.65625 -1.35937,2.60937 -1.07813,0.9375 -2.67188,0.9375 -1.98437,0 -3.1875,-1.29687 -1.20312,-1.29688 -1.20312,-3.71875 0,-1.57813 0.51562,-2.75 0.51563,-1.17188 1.57813,-1.75 1.0625,-0.59375 2.3125,-0.59375 1.57812,0 2.57812,0.79687 1,0.79688 1.28125,2.26563 l -1.59375,0.23437 q -0.23437,-0.96875 -0.8125,-1.45312 -0.57812,-0.5 -1.39062,-0.5 -1.23438,0 -2.01563,0.89062 -0.78125,0.89063 -0.78125,2.8125 0,1.95313 0.75,2.84375 0.75,0.875 1.95313,0.875 0.96875,0 1.60937,-0.59375 0.65625,-0.59375 0.82813,-1.82812 z m 2.40625,-1.29688 q 0,-2.6875 1.48437,-3.96875 1.25,-1.07812 3.04688,-1.07812 2,0 3.26562,1.3125 1.26563,1.29687 1.26563,3.60937 0,1.85938 -0.5625,2.9375 -0.5625,1.0625 -1.64063,1.65625 -1.0625,0.59375 -2.32812,0.59375 -2.03125,0 -3.28125,-1.29687 -1.25,-1.3125 -1.25,-3.76563 z m 1.6875,0 q 0,1.85938 0.79687,2.79688 0.8125,0.92187 2.04688,0.92187 1.21875,0 2.03125,-0.92187 0.8125,-0.9375 0.8125,-2.84375 0,-1.79688 -0.8125,-2.71875 -0.8125,-0.92188 -2.03125,-0.92188 -1.23438,0 -2.04688,0.92188 -0.79687,0.90625 -0.79687,2.76562 z m 9.2507,4.84375 v -13.35937 h 1.64062 v 13.35937 z"
     fill-rule="nonzero"
     id="path85" />
</svg>
