<?xml version="1.0" encoding="UTF-8" standalone="no"?>
<svg
   xmlns:dc="http://purl.org/dc/elements/1.1/"
   xmlns:cc="http://creativecommons.org/ns#"
   xmlns:rdf="http://www.w3.org/1999/02/22-rdf-syntax-ns#"
   xmlns:svg="http://www.w3.org/2000/svg"
   xmlns="http://www.w3.org/2000/svg"
   xmlns:sodipodi="http://sodipodi.sourceforge.net/DTD/sodipodi-0.dtd"
   xmlns:inkscape="http://www.inkscape.org/namespaces/inkscape"
   inkscape:version="1.0 (4035a4fb49, 2020-05-01)"
   height="487.8504"
   width="690.82153"
   sodipodi:docname="iot_cloud.svg"
   id="svg1225"
   stroke-miterlimit="10"
   stroke-linecap="square"
   stroke="none"
   fill="none"
   viewBox="0 0 690.82153 487.8504"
   version="1.1">
  <metadata
     id="metadata1231">
    <rdf:RDF>
      <cc:Work
         rdf:about="">
        <dc:format>image/svg+xml</dc:format>
        <dc:type
           rdf:resource="http://purl.org/dc/dcmitype/StillImage" />
      </cc:Work>
    </rdf:RDF>
  </metadata>
  <defs
     id="defs1229" />
  <sodipodi:namedview
     inkscape:current-layer="svg1225"
     inkscape:window-maximized="0"
     inkscape:window-y="19"
     inkscape:window-x="3286"
     inkscape:cy="213.08815"
     inkscape:cx="482.24712"
     inkscape:zoom="1.360002"
     showgrid="false"
     id="namedview1227"
     inkscape:window-height="1059"
     inkscape:window-width="1918"
     inkscape:pageshadow="2"
     inkscape:pageopacity="0"
     guidetolerance="10"
     gridtolerance="10"
     objecttolerance="10"
     borderopacity="1"
     bordercolor="#666666"
     pagecolor="#ffffff" />
  <clipPath
     id="p.0">
    <path
       id="path1088"
       clip-rule="nonzero"
       d="M 0,0 H 800 V 600 H 0 Z" />
  </clipPath>
  <path
     fill="#000000"
     fill-opacity="0"
     d="M -60.392387,-4.17979 H 739.60761 v 600 H -60.392387 Z"
     fill-rule="evenodd"
     id="path1091" />
  <path
     fill="#f3f3f3"
     d="m 196.31693,194.59339 v 0 c -2.5392,-19.17699 5.79752,-38.16104 21.47256,-48.89653 15.67505,-10.73549 35.9394,-11.33963 52.19409,-1.55608 v 0 c 5.75794,-11.1503 16.29657,-18.8488 28.42826,-20.76688 12.13168,-1.91808 24.43142,2.16958 33.17886,11.02651 v 0 c 4.905,-10.10957 14.53607,-16.90192 25.47559,-17.96676 10.93951,-1.06483 21.63925,3.74855 28.30243,12.7321 v 0 c 8.8616,-10.71613 22.96063,-15.22806 36.19638,-11.58347 13.23572,3.6446 23.23089,14.79112 25.66055,28.61641 v 0 c 10.85693,3.04341 19.90057,10.78021 24.79431,21.21143 4.89368,10.43121 5.15741,22.53357 0.72296,33.1802 v 0 c 10.69098,14.29961 13.19184,33.35367 6.5694,50.05153 -6.6225,16.69786 -21.37335,28.53087 -38.74786,31.08318 -0.12244,15.67154 -8.48563,30.05154 -21.866,37.59735 -13.38034,7.54581 -29.68851,7.0791 -42.63858,-1.22022 -5.51605,18.76938 -21.04187,32.57972 -39.86975,35.46442 -18.82785,2.88471 -37.58252,-5.67334 -48.16125,-21.97677 -12.96729,8.03601 -28.52701,10.35095 -43.16913,6.42257 -14.64212,-3.92837 -27.1333,-13.76913 -34.65576,-27.3024 v 0 c -13.25098,1.59357 -26.06282,-5.46188 -32.07709,-17.66479 -6.01425,-12.20291 -3.95064,-26.95554 5.1667,-36.93622 v 0 c -11.82021,-7.14971 -17.85159,-21.33707 -14.94902,-35.16394 2.90257,-13.82688 14.08136,-24.16005 27.70706,-25.61118 z"
     fill-rule="evenodd"
     id="path1093" />
  <path
     fill="#000000"
     fill-opacity="0"
     d="m 183.29694,256.10759 v 0 c 5.57799,3.37396 12.02188,4.90445 18.46646,4.38602 m 8.44104,50.21621 c 2.77139,-0.33328 5.48792,-1.03906 8.07944,-2.09915 m 69.74158,22.97812 c -1.94922,-3.00406 -3.58121,-6.21414 -4.86817,-9.57559 m 92.90253,-3.91263 v 0 c 1.00565,-3.42193 1.65723,-6.94385 1.94385,-10.50699 m 62.55829,-25.86883 c 0.1304,-16.68479 -9.09085,-31.96154 -23.70291,-39.26845 m 55.88107,-41.86449 c -2.36633,5.68149 -5.97888,10.72145 -10.55432,14.72473 m -14.96075,-69.11786 v 0 c 0.4032,2.29431 0.58981,4.6231 0.55722,6.9541 m -62.41309,-23.98635 v 0 c -2.21054,2.67314 -4.0317,5.66034 -5.40686,8.86859 m -48.37167,-3.63509 v 0 c -1.17801,2.42799 -2.05768,4.99722 -2.61875,7.64851 m -58.98925,2.09206 v 0 c 3.43948,2.07019 6.62149,4.56189 9.47607,7.42037 m -83.14178,43.03251 v 0 c 0.34997,2.64308 0.90292,5.25359 1.65371,7.80707"
     fill-rule="evenodd"
     id="path1095" />
  <path
     stroke="#000000"
     stroke-width="1"
     stroke-linejoin="round"
     stroke-linecap="butt"
     d="m 196.31693,194.59339 v 0 c -2.5392,-19.17699 5.79752,-38.16104 21.47256,-48.89653 15.67505,-10.73549 35.9394,-11.33963 52.19409,-1.55608 v 0 c 5.75794,-11.1503 16.29657,-18.8488 28.42826,-20.76688 12.13168,-1.91808 24.43142,2.16958 33.17886,11.02651 v 0 c 4.905,-10.10957 14.53607,-16.90192 25.47559,-17.96676 10.93951,-1.06483 21.63925,3.74855 28.30243,12.7321 v 0 c 8.8616,-10.71613 22.96063,-15.22806 36.19638,-11.58347 13.23572,3.6446 23.23089,14.79112 25.66055,28.61641 v 0 c 10.85693,3.04341 19.90057,10.78021 24.79431,21.21143 4.89368,10.43121 5.15741,22.53357 0.72296,33.1802 v 0 c 10.69098,14.29961 13.19184,33.35367 6.5694,50.05153 -6.6225,16.69786 -21.37335,28.53087 -38.74786,31.08318 -0.12244,15.67154 -8.48563,30.05154 -21.866,37.59735 -13.38034,7.54581 -29.68851,7.0791 -42.63858,-1.22022 -5.51605,18.76938 -21.04187,32.57972 -39.86975,35.46442 -18.82785,2.88471 -37.58252,-5.67334 -48.16125,-21.97677 -12.96729,8.03601 -28.52701,10.35095 -43.16913,6.42257 -14.64212,-3.92837 -27.1333,-13.76913 -34.65576,-27.3024 v 0 c -13.25098,1.59357 -26.06282,-5.46188 -32.07709,-17.66479 -6.01425,-12.20291 -3.95064,-26.95554 5.1667,-36.93622 v 0 c -11.82021,-7.14971 -17.85159,-21.33707 -14.94902,-35.16394 2.90257,-13.82688 14.08136,-24.16005 27.70706,-25.61118 z"
     fill-rule="evenodd"
     id="path1097" />
  <path
     stroke="#000000"
     stroke-width="1"
     stroke-linejoin="round"
     stroke-linecap="butt"
     d="m 183.29694,256.10759 v 0 c 5.57799,3.37396 12.02188,4.90445 18.46646,4.38602 m 8.44104,50.21621 c 2.77139,-0.33328 5.48792,-1.03906 8.07944,-2.09915 m 69.74158,22.97812 c -1.94922,-3.00406 -3.58121,-6.21414 -4.86817,-9.57559 m 92.90253,-3.91263 v 0 c 1.00565,-3.42193 1.65723,-6.94385 1.94385,-10.50699 m 62.55829,-25.86883 c 0.1304,-16.68479 -9.09085,-31.96154 -23.70291,-39.26845 m 55.88107,-41.86449 c -2.36633,5.68149 -5.97888,10.72145 -10.55432,14.72473 m -14.96075,-69.11786 v 0 c 0.4032,2.29431 0.58981,4.6231 0.55722,6.9541 m -62.41309,-23.98635 v 0 c -2.21054,2.67314 -4.0317,5.66034 -5.40686,8.86859 m -48.37167,-3.63509 v 0 c -1.17801,2.42799 -2.05768,4.99722 -2.61875,7.64851 m -58.98925,2.09206 v 0 c 3.43948,2.07019 6.62149,4.56189 9.47607,7.42037 m -83.14178,43.03251 v 0 c 0.34997,2.64308 0.90292,5.25359 1.65371,7.80707"
     fill-rule="evenodd"
     id="path1099" />
  <path
     fill="#000000"
     d="m 238.12165,221.59251 v -22.90625 h 4.625 v 22.90625 z m 24.09375,0 h -4.39062 v -8.46875 q 0,-2.6875 -0.28125,-3.46875 -0.28125,-0.79688 -0.92188,-1.23438 -0.625,-0.4375 -1.51562,-0.4375 -1.14063,0 -2.04688,0.625 -0.90625,0.625 -1.25,1.65625 -0.32812,1.03125 -0.32812,3.8125 v 7.51563 h -4.39063 v -16.59375 h 4.07813 v 2.4375 q 2.17187,-2.8125 5.46875,-2.8125 1.45312,0 2.65625,0.53125 1.20312,0.51562 1.8125,1.32812 0.625,0.8125 0.85937,1.84375 0.25,1.03125 0.25,2.95313 z m 12.0625,-16.59375 v 3.5 h -3 v 6.6875 q 0,2.03125 0.0781,2.375 0.0937,0.32812 0.39062,0.54687 0.3125,0.21875 0.75,0.21875 0.60938,0 1.76563,-0.42187 l 0.375,3.40625 q -1.53125,0.65625 -3.46875,0.65625 -1.1875,0 -2.14063,-0.39063 -0.95312,-0.40625 -1.40625,-1.03125 -0.4375,-0.64062 -0.60937,-1.71875 -0.14063,-0.76562 -0.14063,-3.09375 v -7.23437 H 264.856 v -3.5 h 2.01562 v -3.29688 l 4.40625,-2.5625 v 5.85938 z m 12.65625,11.3125 4.375,0.73437 q -0.84375,2.40625 -2.67187,3.67188 -1.8125,1.25 -4.54688,1.25 -4.32812,0 -6.40625,-2.82813 -1.64062,-2.26562 -1.64062,-5.71875 0,-4.125 2.15625,-6.45312 2.15625,-2.34375 5.45312,-2.34375 3.70313,0 5.84375,2.45312 2.14063,2.4375 2.04688,7.48438 h -11 q 0.0469,1.95312 1.0625,3.04687 1.01562,1.07813 2.53125,1.07813 1.03125,0 1.73437,-0.5625 0.70313,-0.5625 1.0625,-1.8125 z m 0.25,-4.4375 q -0.0469,-1.90625 -0.98437,-2.89063 -0.9375,-1 -2.28125,-1 -1.4375,0 -2.375,1.04688 -0.9375,1.04687 -0.92188,2.84375 z m 12.14063,9.71875 h -4.39063 v -16.59375 h 4.07813 v 2.35937 q 1.04687,-1.67187 1.875,-2.20312 0.84375,-0.53125 1.90625,-0.53125 1.5,0 2.89062,0.82812 l -1.35937,3.82813 q -1.10938,-0.71875 -2.0625,-0.71875 -0.92188,0 -1.5625,0.51562 -0.64063,0.5 -1.01563,1.82813 -0.35937,1.32812 -0.35937,5.5625 z m 23.34375,0 h -4.39063 v -8.46875 q 0,-2.6875 -0.28125,-3.46875 -0.28125,-0.79688 -0.92187,-1.23438 -0.625,-0.4375 -1.51563,-0.4375 -1.14062,0 -2.04687,0.625 -0.90625,0.625 -1.25,1.65625 -0.32813,1.03125 -0.32813,3.8125 v 7.51563 h -4.39062 v -16.59375 h 4.07812 v 2.4375 q 2.17188,-2.8125 5.46875,-2.8125 1.45313,0 2.65625,0.53125 1.20313,0.51562 1.8125,1.32812 0.625,0.8125 0.85938,1.84375 0.25,1.03125 0.25,2.95313 z m 14.0625,-5.28125 4.37503,0.73437 q -0.84375,2.40625 -2.67191,3.67188 -1.8125,1.25 -4.54687,1.25 -4.32813,0 -6.40625,-2.82813 -1.64063,-2.26562 -1.64063,-5.71875 0,-4.125 2.15625,-6.45312 2.15625,-2.34375 5.45313,-2.34375 3.70312,0 5.84378,2.45312 2.14062,2.4375 2.04687,7.48438 H 330.3404 q 0.0469,1.95312 1.0625,3.04687 1.01563,1.07813 2.53125,1.07813 1.03125,0 1.73438,-0.5625 0.70312,-0.5625 1.0625,-1.8125 z m 0.25,-4.4375 q -0.0469,-1.90625 -0.98438,-2.89063 -0.9375,-1 -2.28125,-1 -1.4375,0 -2.375,1.04688 -0.9375,1.04687 -0.92187,2.84375 z m 15.5469,-6.875 v 3.5 h -3 v 6.6875 q 0,2.03125 0.0781,2.375 0.0937,0.32812 0.39062,0.54687 0.3125,0.21875 0.75,0.21875 0.60938,0 1.76563,-0.42187 l 0.375,3.40625 q -1.53125,0.65625 -3.46875,0.65625 -1.1875,0 -2.14063,-0.39063 -0.95312,-0.40625 -1.40625,-1.03125 -0.4375,-0.64062 -0.60937,-1.71875 -0.14063,-0.76562 -0.14063,-3.09375 v -7.23437 h -2.01562 v -3.5 h 2.01562 v -3.29688 l 4.40625,-2.5625 v 5.85938 z m 10.92188,8.0625 q 0,-2.1875 1.07812,-4.23438 1.07813,-2.04687 3.04688,-3.125 1.98437,-1.07812 4.42187,-1.07812 3.76563,0 6.17188,2.45312 2.40625,2.4375 2.40625,6.17188 0,3.76562 -2.4375,6.25 -2.42188,2.46875 -6.10938,2.46875 -2.28125,0 -4.35937,-1.03125 -2.0625,-1.03125 -3.14063,-3.01563 -1.07812,-2 -1.07812,-4.85937 z m 4.5,0.23437 q 0,2.46875 1.17187,3.78125 1.17188,1.3125 2.89063,1.3125 1.71875,0 2.875,-1.3125 1.17187,-1.3125 1.17187,-3.8125 0,-2.4375 -1.17187,-3.75 -1.15625,-1.3125 -2.875,-1.3125 -1.71875,0 -2.89063,1.3125 -1.17187,1.3125 -1.17187,3.78125 z m 14.14062,-8.29687 h 2.4375 v -1.25 q 0,-2.09375 0.4375,-3.125 0.45313,-1.03125 1.64063,-1.67188 1.20312,-0.65625 3.03125,-0.65625 1.875,0 3.67187,0.5625 l -0.59375,3.0625 q -1.04687,-0.25 -2.01562,-0.25 -0.95313,0 -1.375,0.45313 -0.40625,0.4375 -0.40625,1.70312 v 1.17188 h 3.28125 v 3.45312 h -3.28125 v 13.14063 h -4.39063 v -13.14063 h -2.4375 z"
     fill-rule="nonzero"
     id="path1101" />
  <path
     fill="#000000"
     d="m 269.19977,259.59249 v -19.03123 h -6.79688 v -3.875 h 18.20313 v 3.875 h -6.78125 v 19.03123 z m 18.73437,-22.90623 v 8.42187 q 2.125,-2.48437 5.07813,-2.48437 1.51562,0 2.73437,0.5625 1.21875,0.5625 1.82813,1.4375 0.625,0.875 0.84375,1.9375 0.23437,1.0625 0.23437,3.29687 v 9.73436 h -4.39062 v -8.76561 q 0,-2.60937 -0.25,-3.3125 -0.25,-0.70312 -0.89063,-1.10937 -0.625,-0.42188 -1.57812,-0.42188 -1.09375,0 -1.95313,0.53125 -0.85937,0.53125 -1.26562,1.60938 -0.39063,1.0625 -0.39063,3.15625 v 8.31248 h -4.39062 v -22.90623 z m 15.17188,4.0625 v -4.0625 h 4.39062 v 4.0625 z m 0,18.84373 v -16.59373 h 4.39062 v 16.59373 z m 23.98437,0 h -4.39062 v -8.46873 q 0,-2.6875 -0.28125,-3.46875 -0.28125,-0.79688 -0.92188,-1.23438 -0.625,-0.4375 -1.51562,-0.4375 -1.14063,0 -2.04688,0.625 -0.90625,0.625 -1.25,1.65625 -0.32812,1.03125 -0.32812,3.81248 v 7.51563 h -4.39063 v -16.59374 h 4.07813 v 2.4375 q 2.17187,-2.8125 5.46875,-2.8125 1.45312,0 2.65625,0.53125 1.20312,0.51563 1.8125,1.32813 0.625,0.8125 0.85937,1.84375 0.25,1.03125 0.25,2.95312 z m 4.04688,1.09375 5.01562,0.60938 q 0.125,0.875 0.57813,1.20312 0.625,0.46875 1.96875,0.46875 1.71878,0 2.57816,-0.51562 0.57812,-0.34375 0.875,-1.10938 0.20312,-0.54687 0.20312,-2.01562 v -2.42188 q -1.96875,2.6875 -4.96878,2.6875 -3.34375,0 -5.29688,-2.82812 -1.53125,-2.23438 -1.53125,-5.56249 0,-4.17187 2,-6.375 2.01563,-2.20312 5,-2.20312 3.07816,0 5.07816,2.70312 v -2.32812 h 4.10938 v 14.89061 q 0,2.9375 -0.48438,4.39062 -0.48437,1.45313 -1.35937,2.28125 -0.875,0.82813 -2.34375,1.29688 -1.45313,0.46875 -3.68754,0.46875 -4.21875,0 -5.98437,-1.45313 -1.76563,-1.4375 -1.76563,-3.65625 0,-0.21875 0.0156,-0.53125 z m 3.92187,-9.73436 q 0,2.64061 1.01563,3.87498 1.03125,1.21875 2.53125,1.21875 1.60941,0 2.71878,-1.25 1.10938,-1.26562 1.10938,-3.73435 0,-2.57813 -1.0625,-3.82813 -1.0625,-1.25 -2.68754,-1.25 -1.57812,0 -2.60937,1.23438 -1.01563,1.21875 -1.01563,3.73437 z m 14.48441,3.90623 4.40625,-0.67187 q 0.28125,1.28125 1.14063,1.95312 0.85937,0.65625 2.40625,0.65625 1.70312,0 2.5625,-0.625 0.57812,-0.4375 0.57812,-1.17187 0,-0.5 -0.3125,-0.82813 -0.32812,-0.3125 -1.46875,-0.57812 -5.3125,-1.17188 -6.73437,-2.14061 -1.96875,-1.34375 -1.96875,-3.73437 0,-2.15625 1.70312,-3.625 1.70313,-1.46875 5.28125,-1.46875 3.40625,0 5.0625,1.10937 1.65625,1.10938 2.28125,3.28125 l -4.14062,0.76563 q -0.26563,-0.96875 -1.01563,-1.48438 -0.73437,-0.51562 -2.10937,-0.51562 -1.73438,0 -2.48438,0.48437 -0.5,0.34375 -0.5,0.89063 0,0.46875 0.4375,0.79687 0.59375,0.4375 4.09375,1.23438 3.51563,0.79687 4.90625,1.95312 1.375,1.17186 1.375,3.26561 0,2.28125 -1.90625,3.92187 -1.90625,1.64063 -5.64062,1.64063 -3.39063,0 -5.375,-1.375 -1.96875,-1.375 -2.57813,-3.73438 z"
     fill-rule="nonzero"
     id="path1103" />
  <path
     fill="#cfe2f3"
     d="m 0.5,211.43438 v 0 c 0,-22.16966 26.954575,-40.14172 60.204723,-40.14172 v 0 c 33.25015,0 60.204717,17.97206 60.204717,40.14172 v 0 c 0,22.16968 -26.954567,40.14174 -60.204717,40.14174 v 0 C 27.454574,251.57612 0.5,233.60406 0.5,211.43438 Z"
     fill-rule="evenodd"
     id="path1105" />
  <path
     stroke="#000000"
     stroke-width="1"
     stroke-linejoin="round"
     stroke-linecap="butt"
     d="m 0.5,211.43438 v 0 c 0,-22.16966 26.954575,-40.14172 60.204723,-40.14172 v 0 c 33.25015,0 60.204717,17.97206 60.204717,40.14172 v 0 c 0,22.16968 -26.954567,40.14174 -60.204717,40.14174 v 0 C 27.454574,251.57612 0.5,233.60406 0.5,211.43438 Z"
     fill-rule="evenodd"
     id="path1107" />
  <path
     fill="#000000"
     d="M 39.091443,220.48188 V 208.9975 h 1.28125 v 1.07813 q 0.45312,-0.64063 1.01562,-0.95313 0.57813,-0.3125 1.39063,-0.3125 1.0625,0 1.875,0.54688 0.8125,0.54687 1.21875,1.54687 0.42187,0.98438 0.42187,2.17188 0,1.28125 -0.46875,2.29687 -0.45312,1.01563 -1.32812,1.5625 -0.85938,0.54688 -1.82813,0.54688 -0.70312,0 -1.26562,-0.29688 -0.54688,-0.29687 -0.90625,-0.75 v 4.04688 z m 1.26562,-7.29688 q 0,1.60938 0.64063,2.375 0.65625,0.76563 1.57812,0.76563 0.9375,0 1.60938,-0.79688 0.67187,-0.79687 0.67187,-2.45312 0,-1.59375 -0.65625,-2.375 -0.65625,-0.79688 -1.5625,-0.79688 -0.89062,0 -1.59375,0.84375 -0.6875,0.84375 -0.6875,2.4375 z m 7.61719,4.10938 v -8.29688 h 1.26563 v 1.25 q 0.48437,-0.875 0.89062,-1.15625 0.40625,-0.28125 0.90625,-0.28125 0.70313,0 1.4375,0.45313 l -0.48437,1.29687 q -0.51563,-0.29687 -1.03125,-0.29687 -0.45313,0 -0.82813,0.28125 -0.35937,0.26562 -0.51562,0.76562 -0.23438,0.75 -0.23438,1.64063 v 4.34375 z m 5.34375,-9.84375 v -1.60938 h 1.40625 v 1.60938 z m 0,9.84375 v -8.29688 h 1.40625 v 8.29688 z m 3.55469,0 v -8.29688 h 1.26562 v 1.17188 q 0.90625,-1.35938 2.64063,-1.35938 0.75,0 1.375,0.26563 0.625,0.26562 0.9375,0.70312 0.3125,0.4375 0.4375,1.04688 0.0781,0.39062 0.0781,1.35937 v 5.10938 h -1.40625 v -5.04688 q 0,-0.85937 -0.17187,-1.28125 -0.15625,-0.4375 -0.57813,-0.6875 -0.40625,-0.25 -0.96875,-0.25 -0.90625,0 -1.5625,0.57813 -0.64062,0.5625 -0.64062,2.15625 v 4.53125 z m 11.96093,-1.26563 0.20312,1.25 q -0.59375,0.125 -1.0625,0.125 -0.76561,0 -1.18749,-0.23437 -0.42187,-0.25 -0.59375,-0.64063 -0.17187,-0.40625 -0.17187,-1.67187 v -4.76563 h -1.03125 v -1.09375 h 1.03125 v -2.0625 l 1.40625,-0.84375 v 2.90625 h 1.40624 v 1.09375 h -1.40624 v 4.84375 q 0,0.60938 0.0625,0.78125 0.0781,0.17188 0.24999,0.28125 0.17187,0.0937 0.48437,0.0937 0.23438,0 0.60938,-0.0625 z m 7.05469,-1.40625 1.45312,0.17188 q -0.34375,1.28125 -1.28125,1.98437 -0.92187,0.70313 -2.35937,0.70313 -1.82813,0 -2.89063,-1.125 -1.0625,-1.125 -1.0625,-3.14063 0,-2.09375 1.07813,-3.25 1.07812,-1.15625 2.79687,-1.15625 1.65625,0 2.70313,1.14063 1.0625,1.125 1.0625,3.17187 0,0.125 0,0.375 h -6.1875 q 0.0781,1.375 0.76562,2.10938 0.70313,0.71875 1.73438,0.71875 0.78125,0 1.32812,-0.40625 0.54688,-0.40625 0.85938,-1.29688 z m -4.60938,-2.28125 h 4.625 q -0.0937,-1.04687 -0.53125,-1.5625 -0.67187,-0.8125 -1.73437,-0.8125 -0.96875,0 -1.64063,0.65625 -0.65625,0.64063 -0.71875,1.71875 z m 7.82031,4.95313 v -8.29688 h 1.26563 v 1.25 q 0.48437,-0.875 0.89062,-1.15625 0.40625,-0.28125 0.90625,-0.28125 0.70313,0 1.4375,0.45313 l -0.48437,1.29687 q -0.51563,-0.29687 -1.03125,-0.29687 -0.45313,0 -0.82813,0.28125 -0.35937,0.26562 -0.51562,0.76562 -0.23438,0.75 -0.23438,1.64063 v 4.34375 z"
     fill-rule="nonzero"
     id="path1109" />
  <path
     fill="#cfe2f3"
     d="m 14.442263,335.96193 v 0 c 0,-22.16965 26.95457,-40.14172 60.20472,-40.14172 v 0 c 33.250147,0 60.204727,17.97207 60.204727,40.14172 v 0 c 0,22.16968 -26.95458,40.14175 -60.204727,40.14175 v 0 c -33.25015,0 -60.20472,-17.97207 -60.20472,-40.14175 z"
     fill-rule="evenodd"
     id="path1111" />
  <path
     stroke="#000000"
     stroke-width="1"
     stroke-linejoin="round"
     stroke-linecap="butt"
     d="m 14.442263,335.96193 v 0 c 0,-22.16965 26.95457,-40.14172 60.20472,-40.14172 v 0 c 33.250147,0 60.204727,17.97207 60.204727,40.14172 v 0 c 0,22.16968 -26.95458,40.14175 -60.204727,40.14175 v 0 c -33.25015,0 -60.20472,-17.97207 -60.20472,-40.14175 z"
     fill-rule="evenodd"
     id="path1113" />
  <path
     fill="#000000"
     d="m 56.342293,341.82195 -2.54688,-8.29688 h 1.45313 l 1.32812,4.78125 0.48438,1.78125 q 0.0312,-0.125 0.4375,-1.70312 l 1.3125,-4.85938 h 1.45312 l 1.23438,4.8125 0.42187,1.57813 0.46875,-1.59375 1.42188,-4.79688 h 1.375 l -2.59375,8.29688 h -1.46875 l -1.3125,-4.96875 -0.32813,-1.42188 -1.67187,6.39063 z m 15.42969,-1.03125 q -0.78125,0.67187 -1.5,0.95312 -0.71875,0.26563 -1.54688,0.26563 -1.375,0 -2.10937,-0.67188 -0.73438,-0.67187 -0.73438,-1.70312 0,-0.60938 0.28125,-1.10938 0.28125,-0.51562 0.71875,-0.8125 0.45313,-0.3125 1.01563,-0.46875 0.42187,-0.10937 1.25,-0.20312 1.70312,-0.20313 2.51562,-0.48438 0,-0.29687 0,-0.375 0,-0.85937 -0.39062,-1.20312 -0.54688,-0.48438 -1.60938,-0.48438 -0.98437,0 -1.46875,0.35938 -0.46875,0.34375 -0.6875,1.21875 l -1.375,-0.1875 q 0.1875,-0.875 0.60938,-1.42188 0.4375,-0.54687 1.25,-0.82812 0.8125,-0.29688 1.875,-0.29688 1.0625,0 1.71875,0.25 0.67187,0.25 0.98437,0.625 0.3125,0.375 0.4375,0.95313 0.0781,0.35937 0.0781,1.29687 v 1.875 q 0,1.96875 0.0781,2.48438 0.0937,0.51562 0.35938,1 h -1.46875 q -0.21875,-0.4375 -0.28125,-1.03125 z m -0.10938,-3.14063 q -0.76562,0.3125 -2.29687,0.53125 -0.875,0.125 -1.23438,0.28125 -0.35937,0.15625 -0.5625,0.46875 -0.1875,0.29688 -0.1875,0.65625 0,0.5625 0.42188,0.9375 0.4375,0.375 1.25,0.375 0.8125,0 1.4375,-0.34375 0.64062,-0.35937 0.9375,-0.98437 0.23437,-0.46875 0.23437,-1.40625 z m 6.66406,2.90625 0.20313,1.25 q -0.59375,0.125 -1.0625,0.125 -0.76563,0 -1.1875,-0.23437 -0.42188,-0.25 -0.59375,-0.64063 -0.17188,-0.40625 -0.17188,-1.67187 v -4.76563 h -1.03125 v -1.09375 h 1.03125 v -2.0625 l 1.40625,-0.84375 v 2.90625 h 1.40625 v 1.09375 h -1.40625 v 4.84375 q 0,0.60938 0.0625,0.78125 0.0781,0.17188 0.25,0.28125 0.17188,0.0937 0.48438,0.0937 0.23437,0 0.60937,-0.0625 z m 6.78907,-1.78125 1.39062,0.1875 q -0.23437,1.42188 -1.17187,2.23438 -0.92188,0.8125 -2.28125,0.8125 -1.70313,0 -2.75,-1.10938 -1.03125,-1.125 -1.03125,-3.20312 0,-1.34375 0.4375,-2.34375 0.45312,-1.01563 1.35937,-1.51563 0.92188,-0.5 1.98438,-0.5 1.35937,0 2.21875,0.6875 0.85937,0.67188 1.09375,1.9375 l -1.35938,0.20313 q -0.20312,-0.82813 -0.70312,-1.25 -0.48438,-0.42188 -1.1875,-0.42188 -1.0625,0 -1.73438,0.76563 -0.65625,0.75 -0.65625,2.40625 0,1.67187 0.64063,2.4375 0.64062,0.75 1.67187,0.75 0.82813,0 1.375,-0.5 0.5625,-0.51563 0.70313,-1.57813 z m 2.59375,3.04688 v -11.45313 h 1.40625 v 4.10938 q 0.98437,-1.14063 2.48437,-1.14063 0.92188,0 1.59375,0.35938 0.6875,0.35937 0.96875,1 0.29688,0.64062 0.29688,1.85937 v 5.26563 h -1.40625 v -5.26563 q 0,-1.04687 -0.45313,-1.53125 -0.45312,-0.48437 -1.29687,-0.48437 -0.625,0 -1.17188,0.32812 -0.54687,0.32813 -0.78125,0.89063 -0.23437,0.54687 -0.23437,1.51562 v 4.54688 z"
     fill-rule="nonzero"
     id="path1115" />
  <path
     fill="#cfe2f3"
     d="m 151.8832,426.06167 v 0 c 0,-22.16965 26.95457,-40.14172 60.20473,-40.14172 v 0 c 33.25015,0 60.20471,17.97207 60.20471,40.14172 v 0 c 0,22.16968 -26.95456,40.14175 -60.20471,40.14175 v 0 c -33.25016,0 -60.20473,-17.97207 -60.20473,-40.14175 z"
     fill-rule="evenodd"
     id="path1117" />
  <path
     stroke="#000000"
     stroke-width="1"
     stroke-linejoin="round"
     stroke-linecap="butt"
     d="m 151.8832,426.06167 v 0 c 0,-22.16965 26.95457,-40.14172 60.20473,-40.14172 v 0 c 33.25015,0 60.20471,17.97207 60.20471,40.14172 v 0 c 0,22.16968 -26.95456,40.14175 -60.20471,40.14175 v 0 c -33.25016,0 -60.20473,-17.97207 -60.20473,-40.14175 z"
     fill-rule="evenodd"
     id="path1119" />
  <path
     fill="#000000"
     d="m 189.58402,422.42168 v -8.29688 h 1.25 v 1.15625 q 0.39062,-0.60937 1.03125,-0.96875 0.65625,-0.375 1.48437,-0.375 0.92188,0 1.51563,0.39063 0.59375,0.375 0.82812,1.0625 0.98438,-1.45313 2.5625,-1.45313 1.23438,0 1.89063,0.6875 0.67187,0.67188 0.67187,2.09375 v 5.70313 h -1.39062 v -5.23438 q 0,-0.84375 -0.14063,-1.20312 -0.14062,-0.375 -0.5,-0.59375 -0.35937,-0.23438 -0.84375,-0.23438 -0.875,0 -1.45312,0.57813 -0.57813,0.57812 -0.57813,1.85937 v 4.82813 h -1.40625 v -5.39063 q 0,-0.9375 -0.34375,-1.40625 -0.34375,-0.46875 -1.125,-0.46875 -0.59375,0 -1.09375,0.3125 -0.5,0.3125 -0.73437,0.92188 -0.21875,0.59375 -0.21875,1.71875 v 4.3125 z m 12.79687,-4.15625 q 0,-2.29688 1.28125,-3.40625 1.07813,-0.92188 2.60938,-0.92188 1.71875,0 2.79687,1.125 1.09375,1.10938 1.09375,3.09375 0,1.59375 -0.48437,2.51563 -0.48438,0.92187 -1.40625,1.4375 -0.90625,0.5 -2,0.5 -1.73438,0 -2.8125,-1.10938 -1.07813,-1.125 -1.07813,-3.23437 z m 1.45313,0 q 0,1.59375 0.6875,2.39062 0.70312,0.79688 1.75,0.79688 1.04687,0 1.73437,-0.79688 0.70313,-0.79687 0.70313,-2.4375 0,-1.53125 -0.70313,-2.32812 -0.6875,-0.79688 -1.73437,-0.79688 -1.04688,0 -1.75,0.79688 -0.6875,0.78125 -0.6875,2.375 z m 9.27344,4.15625 h -1.3125 v -11.45313 h 1.40625 v 4.07813 q 0.89062,-1.10938 2.28125,-1.10938 0.76562,0 1.4375,0.3125 0.6875,0.29688 1.125,0.85938 0.45312,0.5625 0.70312,1.35937 0.25,0.78125 0.25,1.67188 0,2.14062 -1.0625,3.3125 -1.04687,1.15625 -2.53125,1.15625 -1.46875,0 -2.29687,-1.23438 z m -0.0156,-4.21875 q 0,1.5 0.40625,2.15625 0.65625,1.09375 1.79688,1.09375 0.92187,0 1.59375,-0.79688 0.67187,-0.8125 0.67187,-2.39062 0,-1.625 -0.65625,-2.39063 -0.64062,-0.78125 -1.54687,-0.78125 -0.92188,0 -1.59375,0.79688 -0.67188,0.79687 -0.67188,2.3125 z m 7.61719,-5.625 v -1.60938 h 1.40625 v 1.60938 z m 0,9.84375 v -8.29688 h 1.40625 v 8.29688 z m 3.52344,0 v -11.45313 h 1.40625 v 11.45313 z m 9.25781,-2.67188 1.45312,0.17188 q -0.34375,1.28125 -1.28125,1.98437 -0.92187,0.70313 -2.35937,0.70313 -1.82813,0 -2.89063,-1.125 -1.0625,-1.125 -1.0625,-3.14063 0,-2.09375 1.07813,-3.25 1.07812,-1.15625 2.79687,-1.15625 1.65625,0 2.70313,1.14063 1.0625,1.125 1.0625,3.17187 0,0.125 0,0.375 h -6.1875 q 0.0781,1.375 0.76562,2.10938 0.70313,0.71875 1.73438,0.71875 0.78125,0 1.32812,-0.40625 0.54688,-0.40625 0.85938,-1.29688 z m -4.60938,-2.28125 h 4.625 q -0.0937,-1.04687 -0.53125,-1.5625 -0.67187,-0.8125 -1.73437,-0.8125 -0.96875,0 -1.64063,0.65625 -0.65625,0.64063 -0.71875,1.71875 z"
     fill-rule="nonzero"
     id="path1121" />
  <path
     fill="#000000"
     d="M 190.90433,444.60918 V 433.1248 h 1.28125 v 1.07813 q 0.45312,-0.64063 1.01562,-0.95313 0.57813,-0.3125 1.39063,-0.3125 1.0625,0 1.875,0.54688 0.8125,0.54687 1.21875,1.54687 0.42187,0.98438 0.42187,2.17188 0,1.28125 -0.46875,2.29687 -0.45312,1.01563 -1.32812,1.5625 -0.85938,0.54688 -1.82813,0.54688 -0.70312,0 -1.26562,-0.29688 -0.54688,-0.29687 -0.90625,-0.75 v 4.04688 z m 1.26562,-7.29688 q 0,1.60938 0.64063,2.375 0.65625,0.76563 1.57812,0.76563 0.9375,0 1.60938,-0.79688 0.67187,-0.79687 0.67187,-2.45312 0,-1.59375 -0.65625,-2.375 -0.65625,-0.79688 -1.5625,-0.79688 -0.89062,0 -1.59375,0.84375 -0.6875,0.84375 -0.6875,2.4375 z m 7.63282,4.10938 v -11.45313 h 1.40625 v 4.10938 q 0.98437,-1.14063 2.48437,-1.14063 0.92188,0 1.59375,0.35938 0.6875,0.35937 0.96875,1 0.29688,0.64062 0.29688,1.85937 v 5.26563 h -1.40625 v -5.26563 q 0,-1.04687 -0.45313,-1.53125 -0.45312,-0.48437 -1.29687,-0.48437 -0.625,0 -1.17188,0.32812 -0.54687,0.32813 -0.78125,0.89063 -0.23437,0.54687 -0.23437,1.51562 v 4.54688 z m 8.36718,-4.15625 q 0,-2.29688 1.28125,-3.40625 1.07813,-0.92188 2.60938,-0.92188 1.71875,0 2.79687,1.125 1.09375,1.10938 1.09375,3.09375 0,1.59375 -0.48437,2.51563 -0.48438,0.92187 -1.40625,1.4375 -0.90625,0.5 -2,0.5 -1.73438,0 -2.8125,-1.10938 -1.07813,-1.125 -1.07813,-3.23437 z m 1.45313,0 q 0,1.59375 0.6875,2.39062 0.70312,0.79688 1.75,0.79688 1.04687,0 1.73437,-0.79688 0.70313,-0.79687 0.70313,-2.4375 0,-1.53125 -0.70313,-2.32812 -0.6875,-0.79688 -1.73437,-0.79688 -1.04688,0 -1.75,0.79688 -0.6875,0.78125 -0.6875,2.375 z m 7.97656,4.15625 v -8.29688 h 1.26563 v 1.17188 q 0.90625,-1.35938 2.64062,-1.35938 0.75,0 1.375,0.26563 0.625,0.26562 0.9375,0.70312 0.3125,0.4375 0.4375,1.04688 0.0781,0.39062 0.0781,1.35937 v 5.10938 h -1.40625 v -5.04688 q 0,-0.85937 -0.17188,-1.28125 -0.15625,-0.4375 -0.57812,-0.6875 -0.40625,-0.25 -0.96875,-0.25 -0.90625,0 -1.5625,0.57813 -0.64063,0.5625 -0.64063,2.15625 v 4.53125 z m 14.57031,-2.67188 1.45313,0.17188 q -0.34375,1.28125 -1.28125,1.98437 -0.92188,0.70313 -2.35938,0.70313 -1.82812,0 -2.89062,-1.125 -1.0625,-1.125 -1.0625,-3.14063 0,-2.09375 1.07812,-3.25 1.07813,-1.15625 2.79688,-1.15625 1.65625,0 2.70312,1.14063 1.0625,1.125 1.0625,3.17187 0,0.125 0,0.375 h -6.1875 q 0.0781,1.375 0.76563,2.10938 0.70312,0.71875 1.73437,0.71875 0.78125,0 1.32813,-0.40625 0.54687,-0.40625 0.85937,-1.29688 z m -4.60937,-2.28125 h 4.625 q -0.0937,-1.04687 -0.53125,-1.5625 -0.67188,-0.8125 -1.73438,-0.8125 -0.96875,0 -1.64062,0.65625 -0.65625,0.64063 -0.71875,1.71875 z"
     fill-rule="nonzero"
     id="path1123" />
  <path
     fill="#cfe2f3"
     d="m 323.28476,447.20867 v 0 c 0,-22.16968 26.95459,-40.14175 60.20474,-40.14175 v 0 c 33.25015,0 60.20471,17.97207 60.20471,40.14175 v 0 c 0,22.16965 -26.95456,40.14172 -60.20471,40.14172 v 0 c -33.25015,0 -60.20474,-17.97207 -60.20474,-40.14172 z"
     fill-rule="evenodd"
     id="path1125" />
  <path
     stroke="#000000"
     stroke-width="1"
     stroke-linejoin="round"
     stroke-linecap="butt"
     d="m 323.28476,447.20867 v 0 c 0,-22.16968 26.95459,-40.14175 60.20474,-40.14175 v 0 c 33.25015,0 60.20471,17.97207 60.20471,40.14175 v 0 c 0,22.16965 -26.95456,40.14172 -60.20471,40.14172 v 0 c -33.25015,0 -60.20474,-17.97207 -60.20474,-40.14172 z"
     fill-rule="evenodd"
     id="path1127" />
  <path
     fill="#000000"
     d="m 371.11841,439.55303 1.51563,0.375 q -0.46875,1.875 -1.71875,2.85937 -1.23438,0.98438 -3.01563,0.98438 -1.85937,0 -3.01562,-0.75 -1.15625,-0.76563 -1.76563,-2.1875 -0.60937,-1.4375 -0.60937,-3.07813 0,-1.79687 0.6875,-3.125 0.6875,-1.32812 1.9375,-2.01562 1.26562,-0.70313 2.78125,-0.70313 1.71875,0 2.89062,0.875 1.17188,0.875 1.64063,2.46875 l -1.5,0.34375 q -0.39063,-1.25 -1.15625,-1.8125 -0.75,-0.57812 -1.90625,-0.57812 -1.3125,0 -2.20313,0.64062 -0.89062,0.625 -1.25,1.70313 -0.35937,1.0625 -0.35937,2.1875 0,1.46875 0.42187,2.5625 0.4375,1.07812 1.32813,1.625 0.90625,0.53125 1.95312,0.53125 1.26563,0 2.14063,-0.73438 0.89062,-0.73437 1.20312,-2.17187 z m 11.55469,0 1.51562,0.375 q -0.46875,1.875 -1.71875,2.85937 -1.23437,0.98438 -3.01562,0.98438 -1.85938,0 -3.01563,-0.75 -1.15625,-0.76563 -1.76562,-2.1875 -0.60938,-1.4375 -0.60938,-3.07813 0,-1.79687 0.6875,-3.125 0.6875,-1.32812 1.9375,-2.01562 1.26563,-0.70313 2.78125,-0.70313 1.71875,0 2.89063,0.875 1.17187,0.875 1.64062,2.46875 l -1.5,0.34375 q -0.39062,-1.25 -1.15625,-1.8125 -0.75,-0.57812 -1.90625,-0.57812 -1.3125,0 -2.20312,0.64062 -0.89063,0.625 -1.25,1.70313 -0.35938,1.0625 -0.35938,2.1875 0,1.46875 0.42188,2.5625 0.4375,1.07812 1.32812,1.625 0.90625,0.53125 1.95313,0.53125 1.26562,0 2.14062,-0.73438 0.89063,-0.73437 1.20313,-2.17187 z m 6.30469,4.01562 v -10.10937 h -3.78125 v -1.34375 h 9.07812 v 1.34375 h -3.78125 v 10.10937 z m 10.13281,0 -4.4375,-11.45312 h 1.64062 l 2.96875,8.3125 q 0.35938,1 0.60938,1.875 0.26562,-0.9375 0.60937,-1.875 l 3.09375,-8.3125 h 1.54688 l -4.48438,11.45312 z"
     fill-rule="nonzero"
     id="path1129" />
  <path
     fill="#000000"
     d="m 363.28248,459.52178 1.39062,0.1875 q -0.23437,1.42187 -1.17187,2.23437 -0.92188,0.8125 -2.28125,0.8125 -1.70313,0 -2.75,-1.10937 -1.03125,-1.125 -1.03125,-3.20313 0,-1.34375 0.4375,-2.34375 0.45312,-1.01562 1.35937,-1.51562 0.92188,-0.5 1.98438,-0.5 1.35937,0 2.21875,0.6875 0.85937,0.67187 1.09375,1.9375 l -1.35938,0.20312 q -0.20312,-0.82812 -0.70312,-1.25 -0.48438,-0.42187 -1.1875,-0.42187 -1.0625,0 -1.73438,0.76562 -0.65625,0.75 -0.65625,2.40625 0,1.67188 0.64063,2.4375 0.64062,0.75 1.67187,0.75 0.82813,0 1.375,-0.5 0.5625,-0.51562 0.70313,-1.57812 z m 8,2.01562 q -0.78125,0.67188 -1.5,0.95313 -0.71875,0.26562 -1.54688,0.26562 -1.375,0 -2.10937,-0.67187 -0.73438,-0.67188 -0.73438,-1.70313 0,-0.60937 0.28125,-1.10937 0.28125,-0.51563 0.71875,-0.8125 0.45313,-0.3125 1.01563,-0.46875 0.42187,-0.10938 1.25,-0.20313 1.70312,-0.20312 2.51562,-0.48437 0,-0.29688 0,-0.375 0,-0.85938 -0.39062,-1.20313 -0.54688,-0.48437 -1.60938,-0.48437 -0.98437,0 -1.46875,0.35937 -0.46875,0.34375 -0.6875,1.21875 l -1.375,-0.1875 q 0.1875,-0.875 0.60938,-1.42187 0.4375,-0.54688 1.25,-0.82813 0.8125,-0.29687 1.875,-0.29687 1.0625,0 1.71875,0.25 0.67187,0.25 0.98437,0.625 0.3125,0.375 0.4375,0.95312 0.0781,0.35938 0.0781,1.29688 v 1.875 q 0,1.96875 0.0781,2.48437 0.0937,0.51563 0.35938,1 h -1.46875 q -0.21875,-0.4375 -0.28125,-1.03125 z m -0.10938,-3.14062 q -0.76562,0.3125 -2.29687,0.53125 -0.875,0.125 -1.23438,0.28125 -0.35937,0.15625 -0.5625,0.46875 -0.1875,0.29687 -0.1875,0.65625 0,0.5625 0.42188,0.9375 0.4375,0.375 1.25,0.375 0.8125,0 1.4375,-0.34375 0.64062,-0.35938 0.9375,-0.98438 0.23437,-0.46875 0.23437,-1.40625 z m 3.60157,4.17187 v -8.29687 h 1.25 v 1.15625 q 0.39062,-0.60938 1.03125,-0.96875 0.65625,-0.375 1.48437,-0.375 0.92188,0 1.51563,0.39062 0.59375,0.375 0.82812,1.0625 0.98438,-1.45312 2.5625,-1.45312 1.23438,0 1.89063,0.6875 0.67187,0.67187 0.67187,2.09375 v 5.70312 h -1.39062 v -5.23437 q 0,-0.84375 -0.14063,-1.20313 -0.14062,-0.375 -0.5,-0.59375 -0.35937,-0.23437 -0.84375,-0.23437 -0.875,0 -1.45312,0.57812 -0.57813,0.57813 -0.57813,1.85938 v 4.82812 h -1.40625 v -5.39062 q 0,-0.9375 -0.34375,-1.40625 -0.34375,-0.46875 -1.125,-0.46875 -0.59375,0 -1.09375,0.3125 -0.5,0.3125 -0.73437,0.92187 -0.21875,0.59375 -0.21875,1.71875 v 4.3125 z m 19,-2.67187 1.45312,0.17187 q -0.34375,1.28125 -1.28125,1.98438 -0.92187,0.70312 -2.35937,0.70312 -1.82813,0 -2.89063,-1.125 -1.0625,-1.125 -1.0625,-3.14062 0,-2.09375 1.07813,-3.25 1.07812,-1.15625 2.79687,-1.15625 1.65625,0 2.70313,1.14062 1.0625,1.125 1.0625,3.17188 0,0.125 0,0.375 h -6.1875 q 0.0781,1.375 0.76562,2.10937 0.70313,0.71875 1.73438,0.71875 0.78125,0 1.32812,-0.40625 0.54688,-0.40625 0.85938,-1.29687 z m -4.60938,-2.28125 h 4.625 q -0.0937,-1.04688 -0.53125,-1.5625 -0.67187,-0.8125 -1.73437,-0.8125 -0.96875,0 -1.64063,0.65625 -0.65625,0.64062 -0.71875,1.71875 z m 7.82031,4.95312 v -8.29687 h 1.26563 v 1.25 q 0.48437,-0.875 0.89062,-1.15625 0.40625,-0.28125 0.90625,-0.28125 0.70313,0 1.4375,0.45312 l -0.48437,1.29688 q -0.51563,-0.29688 -1.03125,-0.29688 -0.45313,0 -0.82813,0.28125 -0.35937,0.26563 -0.51562,0.76563 -0.23438,0.75 -0.23438,1.64062 v 4.34375 z m 10.75,-1.03125 q -0.78125,0.67188 -1.5,0.95313 -0.71875,0.26562 -1.54687,0.26562 -1.375,0 -2.10938,-0.67187 -0.73437,-0.67188 -0.73437,-1.70313 0,-0.60937 0.28125,-1.10937 0.28125,-0.51563 0.71875,-0.8125 0.45312,-0.3125 1.01562,-0.46875 0.42188,-0.10938 1.25,-0.20313 1.70313,-0.20312 2.51563,-0.48437 0,-0.29688 0,-0.375 0,-0.85938 -0.39063,-1.20313 -0.54687,-0.48437 -1.60937,-0.48437 -0.98438,0 -1.46875,0.35937 -0.46875,0.34375 -0.6875,1.21875 l -1.375,-0.1875 q 0.1875,-0.875 0.60937,-1.42187 0.4375,-0.54688 1.25,-0.82813 0.8125,-0.29687 1.875,-0.29687 1.0625,0 1.71875,0.25 0.67188,0.25 0.98438,0.625 0.3125,0.375 0.4375,0.95312 0.0781,0.35938 0.0781,1.29688 v 1.875 q 0,1.96875 0.0781,2.48437 0.0937,0.51563 0.35937,1 h -1.46875 q -0.21875,-0.4375 -0.28125,-1.03125 z m -0.10937,-3.14062 q -0.76563,0.3125 -2.29688,0.53125 -0.875,0.125 -1.23437,0.28125 -0.35938,0.15625 -0.5625,0.46875 -0.1875,0.29687 -0.1875,0.65625 0,0.5625 0.42187,0.9375 0.4375,0.375 1.25,0.375 0.8125,0 1.4375,-0.34375 0.64063,-0.35938 0.9375,-0.98438 0.23438,-0.46875 0.23438,-1.40625 z"
     fill-rule="nonzero"
     id="path1131" />
  <path
     fill="#cfe2f3"
     d="m 471.01701,399.40026 v 0 c 0,-22.16965 26.95459,-40.14172 60.20477,-40.14172 v 0 c 33.25013,0 60.20472,17.97207 60.20472,40.14172 v 0 c 0,22.16968 -26.9546,40.14172 -60.20472,40.14172 v 0 c -33.25018,0 -60.20477,-17.97204 -60.20477,-40.14172 z"
     fill-rule="evenodd"
     id="path1133" />
  <path
     stroke="#000000"
     stroke-width="1"
     stroke-linejoin="round"
     stroke-linecap="butt"
     d="m 471.01701,399.40026 v 0 c 0,-22.16965 26.95459,-40.14172 60.20477,-40.14172 v 0 c 33.25013,0 60.20472,17.97207 60.20472,40.14172 v 0 c 0,22.16968 -26.9546,40.14172 -60.20472,40.14172 v 0 c -33.25018,0 -60.20477,-17.97204 -60.20477,-40.14172 z"
     fill-rule="evenodd"
     id="path1135" />
  <path
     fill="#000000"
     d="m 526.57728,402.21341 1.39062,0.1875 q -0.23437,1.42187 -1.17187,2.23437 -0.92188,0.8125 -2.28125,0.8125 -1.70313,0 -2.75,-1.10937 -1.03125,-1.125 -1.03125,-3.20313 0,-1.34375 0.4375,-2.34375 0.45312,-1.01562 1.35937,-1.51562 0.92188,-0.5 1.98438,-0.5 1.35937,0 2.21875,0.6875 0.85937,0.67187 1.09375,1.9375 l -1.35938,0.20312 q -0.20312,-0.82812 -0.70312,-1.25 -0.48438,-0.42187 -1.1875,-0.42187 -1.0625,0 -1.73438,0.76562 -0.65625,0.75 -0.65625,2.40625 0,1.67188 0.64063,2.4375 0.64062,0.75 1.67187,0.75 0.82813,0 1.375,-0.5 0.5625,-0.51562 0.70313,-1.57812 z m 8,2.01562 q -0.78125,0.67188 -1.5,0.95313 -0.71875,0.26562 -1.54688,0.26562 -1.375,0 -2.10937,-0.67187 -0.73438,-0.67188 -0.73438,-1.70313 0,-0.60937 0.28125,-1.10937 0.28125,-0.51563 0.71875,-0.8125 0.45313,-0.3125 1.01563,-0.46875 0.42187,-0.10938 1.25,-0.20313 1.70312,-0.20312 2.51562,-0.48437 0,-0.29688 0,-0.375 0,-0.85938 -0.39062,-1.20313 -0.54688,-0.48437 -1.60938,-0.48437 -0.98437,0 -1.46875,0.35937 -0.46875,0.34375 -0.6875,1.21875 l -1.375,-0.1875 q 0.1875,-0.875 0.60938,-1.42187 0.4375,-0.54688 1.25,-0.82813 0.8125,-0.29687 1.875,-0.29687 1.0625,0 1.71875,0.25 0.67187,0.25 0.98437,0.625 0.3125,0.375 0.4375,0.95312 0.0781,0.35938 0.0781,1.29688 v 1.875 q 0,1.96875 0.0781,2.48437 0.0937,0.51563 0.35938,1 h -1.46875 q -0.21875,-0.4375 -0.28125,-1.03125 z m -0.10938,-3.14062 q -0.76562,0.3125 -2.29687,0.53125 -0.875,0.125 -1.23438,0.28125 -0.35937,0.15625 -0.5625,0.46875 -0.1875,0.29687 -0.1875,0.65625 0,0.5625 0.42188,0.9375 0.4375,0.375 1.25,0.375 0.8125,0 1.4375,-0.34375 0.64062,-0.35938 0.9375,-0.98438 0.23437,-0.46875 0.23437,-1.40625 z m 3.58594,4.17187 v -8.29687 h 1.26563 v 1.25 q 0.48437,-0.875 0.89062,-1.15625 0.40625,-0.28125 0.90625,-0.28125 0.70313,0 1.4375,0.45312 l -0.48437,1.29688 q -0.51563,-0.29688 -1.03125,-0.29688 -0.45313,0 -0.82813,0.28125 -0.35937,0.26563 -0.51562,0.76563 -0.23438,0.75 -0.23438,1.64062 v 4.34375 z"
     fill-rule="nonzero"
     id="path1137" />
  <path
     fill="#cfe2f3"
     d="m 548.76511,295.82021 v 0 c 0,-22.16968 26.95459,-40.14172 60.20471,-40.14172 v 0 c 33.25018,0 60.20478,17.97204 60.20478,40.14172 v 0 c 0,22.16968 -26.9546,40.14172 -60.20478,40.14172 v 0 c -33.25012,0 -60.20471,-17.97204 -60.20471,-40.14172 z"
     fill-rule="evenodd"
     id="path1139" />
  <path
     stroke="#000000"
     stroke-width="1"
     stroke-linejoin="round"
     stroke-linecap="butt"
     d="m 548.76511,295.82021 v 0 c 0,-22.16968 26.95459,-40.14172 60.20471,-40.14172 v 0 c 33.25018,0 60.20478,17.97204 60.20478,40.14172 v 0 c 0,22.16968 -26.9546,40.14172 -60.20478,40.14172 v 0 c -33.25012,0 -60.20471,-17.97204 -60.20471,-40.14172 z"
     fill-rule="evenodd"
     id="path1141" />
  <path
     fill="#000000"
     d="m 600.73151,292.18021 v -1.04687 q -0.78125,1.23437 -2.3125,1.23437 -1,0 -1.82812,-0.54687 -0.82813,-0.54688 -1.29688,-1.53125 -0.45312,-0.98438 -0.45312,-2.25 0,-1.25 0.40625,-2.25 0.42187,-1.01563 1.25,-1.54688 0.82812,-0.54687 1.85937,-0.54687 0.75,0 1.32813,0.3125 0.59375,0.3125 0.95312,0.82812 v -4.10937 h 1.40625 v 11.45312 z m -4.4375,-4.14062 q 0,1.59375 0.67188,2.39062 0.67187,0.78125 1.57812,0.78125 0.92188,0 1.5625,-0.75 0.65625,-0.76562 0.65625,-2.3125 0,-1.70312 -0.65625,-2.5 -0.65625,-0.79687 -1.625,-0.79687 -0.9375,0 -1.5625,0.76562 -0.625,0.76563 -0.625,2.42188 z m 7.96094,-5.70313 v -1.60937 h 1.40625 v 1.60937 z m 0,9.84375 v -8.29687 h 1.40625 v 8.29687 z m 2.99219,-2.48437 1.39062,-0.21875 q 0.10938,0.84375 0.64063,1.29687 0.54687,0.4375 1.5,0.4375 0.96875,0 1.4375,-0.39062 0.46875,-0.40625 0.46875,-0.9375 0,-0.46875 -0.40625,-0.75 -0.29688,-0.1875 -1.4375,-0.46875 -1.54688,-0.39063 -2.15625,-0.67188 -0.59375,-0.29687 -0.90625,-0.79687 -0.29688,-0.5 -0.29688,-1.10938 0,-0.5625 0.25,-1.03125 0.25,-0.46875 0.6875,-0.78125 0.32813,-0.25 0.89063,-0.40625 0.57812,-0.17187 1.21875,-0.17187 0.98437,0 1.71875,0.28125 0.73437,0.28125 1.07812,0.76562 0.35938,0.46875 0.5,1.28125 l -1.375,0.1875 q -0.0937,-0.64062 -0.54687,-1 -0.45313,-0.35937 -1.26563,-0.35937 -0.96875,0 -1.39062,0.32812 -0.40625,0.3125 -0.40625,0.73438 0,0.28125 0.17187,0.5 0.17188,0.21875 0.53125,0.375 0.21875,0.0781 1.25,0.35937 1.48438,0.39063 2.07813,0.65625 0.59375,0.25 0.92187,0.73438 0.34375,0.48437 0.34375,1.20312 0,0.70313 -0.42187,1.32813 -0.40625,0.60937 -1.1875,0.95312 -0.76563,0.34375 -1.73438,0.34375 -1.625,0 -2.46875,-0.67187 -0.84375,-0.67188 -1.07812,-2 z m 8.5625,2.48437 v -11.45312 h 1.40625 v 4.10937 q 0.98437,-1.14062 2.48437,-1.14062 0.92188,0 1.59375,0.35937 0.6875,0.35938 0.96875,1 0.29688,0.64063 0.29688,1.85938 v 5.26562 h -1.40625 v -5.26562 q 0,-1.04688 -0.45313,-1.53125 -0.45312,-0.48438 -1.29687,-0.48438 -0.625,0 -1.17188,0.32813 -0.54687,0.32812 -0.78125,0.89062 -0.23437,0.54688 -0.23437,1.51563 v 4.54687 z"
     fill-rule="nonzero"
     id="path1143" />
  <path
     fill="#000000"
     d="m 597.18071,311.18021 v -1.04687 q -0.78125,1.23437 -2.3125,1.23437 -1,0 -1.82813,-0.54687 -0.82812,-0.54688 -1.29687,-1.53125 -0.45313,-0.98438 -0.45313,-2.25 0,-1.25 0.40625,-2.25 0.42188,-1.01563 1.25,-1.54688 0.82813,-0.54687 1.85938,-0.54687 0.75,0 1.32812,0.3125 0.59375,0.3125 0.95313,0.82812 v -4.10937 h 1.40625 v 11.45312 z m -4.4375,-4.14062 q 0,1.59375 0.67187,2.39062 0.67188,0.78125 1.57813,0.78125 0.92187,0 1.5625,-0.75 0.65625,-0.76562 0.65625,-2.3125 0,-1.70312 -0.65625,-2.5 -0.65625,-0.79687 -1.625,-0.79687 -0.9375,0 -1.5625,0.76562 -0.625,0.76563 -0.625,2.42188 z m 7.94531,4.14062 v -8.29687 h 1.26563 v 1.25 q 0.48437,-0.875 0.89062,-1.15625 0.40625,-0.28125 0.90625,-0.28125 0.70313,0 1.4375,0.45312 l -0.48437,1.29688 q -0.51563,-0.29688 -1.03125,-0.29688 -0.45313,0 -0.82813,0.28125 -0.35937,0.26563 -0.51562,0.76563 -0.23438,0.75 -0.23438,1.64062 v 4.34375 z m 5.28125,3.20313 -0.15625,-1.32813 q 0.45313,0.125 0.79688,0.125 0.46875,0 0.75,-0.15625 0.28125,-0.15625 0.46875,-0.4375 0.125,-0.20312 0.42187,-1.04687 0.0469,-0.10938 0.125,-0.34375 l -3.14062,-8.3125 h 1.51562 l 1.71875,4.79687 q 0.34375,0.92188 0.60938,1.92188 0.23437,-0.96875 0.57812,-1.89063 l 1.76563,-4.82812 h 1.40625 l -3.15625,8.4375 q -0.5,1.375 -0.78125,1.89062 -0.375,0.6875 -0.85938,1.01563 -0.48437,0.32812 -1.15625,0.32812 -0.40625,0 -0.90625,-0.17187 z m 13.73438,-5.875 1.45312,0.17187 q -0.34375,1.28125 -1.28125,1.98438 -0.92187,0.70312 -2.35937,0.70312 -1.82813,0 -2.89063,-1.125 -1.0625,-1.125 -1.0625,-3.14062 0,-2.09375 1.07813,-3.25 1.07812,-1.15625 2.79687,-1.15625 1.65625,0 2.70313,1.14062 1.0625,1.125 1.0625,3.17188 0,0.125 0,0.375 h -6.1875 q 0.0781,1.375 0.76562,2.10937 0.70313,0.71875 1.73438,0.71875 0.78125,0 1.32812,-0.40625 0.54688,-0.40625 0.85938,-1.29687 z m -4.60938,-2.28125 h 4.625 q -0.0937,-1.04688 -0.53125,-1.5625 -0.67187,-0.8125 -1.73437,-0.8125 -0.96875,0 -1.64063,0.65625 -0.65625,0.64062 -0.71875,1.71875 z m 7.82031,4.95312 v -8.29687 h 1.26563 v 1.25 q 0.48437,-0.875 0.89062,-1.15625 0.40625,-0.28125 0.90625,-0.28125 0.70313,0 1.4375,0.45312 l -0.48437,1.29688 q -0.51563,-0.29688 -1.03125,-0.29688 -0.45313,0 -0.82813,0.28125 -0.35937,0.26563 -0.51562,0.76563 -0.23438,0.75 -0.23438,1.64062 v 4.34375 z"
     fill-rule="nonzero"
     id="path1145" />
  <path
     fill="#cfe2f3"
     d="m 569.91205,178.03019 v 0 c 0,-22.16966 26.95459,-40.14174 60.20477,-40.14174 v 0 c 33.25013,0 60.20472,17.97208 60.20472,40.14174 v 0 c 0,22.16966 -26.9546,40.14172 -60.20472,40.14172 v 0 c -33.25018,0 -60.20477,-17.97206 -60.20477,-40.14172 z"
     fill-rule="evenodd"
     id="path1147" />
  <path
     stroke="#000000"
     stroke-width="1"
     stroke-linejoin="round"
     stroke-linecap="butt"
     d="m 569.91205,178.03019 v 0 c 0,-22.16966 26.95459,-40.14174 60.20477,-40.14174 v 0 c 33.25013,0 60.20472,17.97208 60.20472,40.14174 v 0 c 0,22.16966 -26.9546,40.14172 -60.20472,40.14172 v 0 c -33.25018,0 -60.20477,-17.97206 -60.20477,-40.14172 z"
     fill-rule="evenodd"
     id="path1149" />
  <path
     fill="#000000"
     d="m 613.37458,183.89019 v -8.29688 h 1.26563 v 1.25 q 0.48437,-0.875 0.89062,-1.15625 0.40625,-0.28125 0.90625,-0.28125 0.70313,0 1.4375,0.45313 l -0.48437,1.29687 q -0.51563,-0.29687 -1.03125,-0.29687 -0.45313,0 -0.82813,0.28125 -0.35937,0.26562 -0.51562,0.76562 -0.23438,0.75 -0.23438,1.64063 v 4.34375 z m 10.75,-1.03125 q -0.78125,0.67187 -1.5,0.95312 -0.71875,0.26563 -1.54687,0.26563 -1.375,0 -2.10938,-0.67188 -0.73437,-0.67187 -0.73437,-1.70312 0,-0.60938 0.28125,-1.10938 0.28125,-0.51562 0.71875,-0.8125 0.45312,-0.3125 1.01562,-0.46875 0.42188,-0.10937 1.25,-0.20312 1.70313,-0.20313 2.51563,-0.48438 0,-0.29687 0,-0.375 0,-0.85937 -0.39063,-1.20312 -0.54687,-0.48438 -1.60937,-0.48438 -0.98438,0 -1.46875,0.35938 -0.46875,0.34375 -0.6875,1.21875 l -1.375,-0.1875 q 0.1875,-0.875 0.60937,-1.42188 0.4375,-0.54687 1.25,-0.82812 0.8125,-0.29688 1.875,-0.29688 1.0625,0 1.71875,0.25 0.67188,0.25 0.98438,0.625 0.3125,0.375 0.4375,0.95313 0.0781,0.35937 0.0781,1.29687 v 1.875 q 0,1.96875 0.0781,2.48438 0.0937,0.51562 0.35937,1 h -1.46875 q -0.21875,-0.4375 -0.28125,-1.03125 z m -0.10937,-3.14063 q -0.76563,0.3125 -2.29688,0.53125 -0.875,0.125 -1.23437,0.28125 -0.35938,0.15625 -0.5625,0.46875 -0.1875,0.29688 -0.1875,0.65625 0,0.5625 0.42187,0.9375 0.4375,0.375 1.25,0.375 0.8125,0 1.4375,-0.34375 0.64063,-0.35937 0.9375,-0.98437 0.23438,-0.46875 0.23438,-1.40625 z m 8.97656,4.17188 v -1.04688 q -0.78125,1.23438 -2.3125,1.23438 -1,0 -1.82813,-0.54688 -0.82812,-0.54687 -1.29687,-1.53125 -0.45313,-0.98437 -0.45313,-2.25 0,-1.25 0.40625,-2.25 0.42188,-1.01562 1.25,-1.54687 0.82813,-0.54688 1.85938,-0.54688 0.75,0 1.32812,0.3125 0.59375,0.3125 0.95313,0.82813 v -4.10938 h 1.40625 v 11.45313 z m -4.4375,-4.14063 q 0,1.59375 0.67187,2.39063 0.67188,0.78125 1.57813,0.78125 0.92187,0 1.5625,-0.75 0.65625,-0.76563 0.65625,-2.3125 0,-1.70313 -0.65625,-2.5 -0.65625,-0.79688 -1.625,-0.79688 -0.9375,0 -1.5625,0.76563 -0.625,0.76562 -0.625,2.42187 z m 7.96094,-5.70312 v -1.60938 h 1.40625 v 1.60938 z m 0,9.84375 v -8.29688 h 1.40625 v 8.29688 z m 3.02343,-4.15625 q 0,-2.29688 1.28125,-3.40625 1.07813,-0.92188 2.60938,-0.92188 1.71875,0 2.79687,1.125 1.09375,1.10938 1.09375,3.09375 0,1.59375 -0.48437,2.51563 -0.48438,0.92187 -1.40625,1.4375 -0.90625,0.5 -2,0.5 -1.73438,0 -2.8125,-1.10938 -1.07813,-1.125 -1.07813,-3.23437 z m 1.45313,0 q 0,1.59375 0.6875,2.39062 0.70312,0.79688 1.75,0.79688 1.04687,0 1.73437,-0.79688 0.70313,-0.79687 0.70313,-2.4375 0,-1.53125 -0.70313,-2.32812 -0.6875,-0.79688 -1.73437,-0.79688 -1.04688,0 -1.75,0.79688 -0.6875,0.78125 -0.6875,2.375 z"
     fill-rule="nonzero"
     id="path1151" />
  <path
     fill="#cfe2f3"
     d="m 31.473753,97.74672 v 0 c 0,-22.169666 26.95458,-40.141731 60.20472,-40.141731 v 0 c 33.250147,0 60.204727,17.972065 60.204727,40.141731 v 0 c 0,22.16967 -26.95458,40.14173 -60.204727,40.14173 v 0 c -33.25014,0 -60.20472,-17.97206 -60.20472,-40.14173 z"
     fill-rule="evenodd"
     id="path1153" />
  <path
     stroke="#000000"
     stroke-width="1"
     stroke-linejoin="round"
     stroke-linecap="butt"
     d="m 31.473753,97.74672 v 0 c 0,-22.169666 26.95458,-40.141731 60.20472,-40.141731 v 0 c 33.250147,0 60.204727,17.972065 60.204727,40.141731 v 0 c 0,22.16967 -26.95458,40.14173 -60.204727,40.14173 v 0 c -33.25014,0 -60.20472,-17.97206 -60.20472,-40.14173 z"
     fill-rule="evenodd"
     id="path1155" />
  <path
     fill="#000000"
     d="M 85.612073,103.60672 V 93.497345 h -3.78125 v -1.34375 h 9.07812 v 1.34375 h -3.78125 v 10.109375 z m 10.13281,0 -4.4375,-11.453125 h 1.64063 l 2.96875,8.312505 q 0.35937,1 0.60937,1.875 0.26563,-0.9375 0.60938,-1.875 l 3.093747,-8.312505 h 1.54687 l -4.484367,11.453125 z"
     fill-rule="nonzero"
     id="path1157" />
  <path
     fill="#cfe2f3"
     d="m 186.41076,50.368767 v 0 c 0,-22.169666 26.95457,-40.14173 60.20473,-40.14173 v 0 c 33.25015,0 60.20471,17.972067 60.20471,40.14173 v 0 c 0,22.169666 -26.95456,40.141735 -60.20471,40.141735 v 0 c -33.25016,0 -60.20473,-17.972069 -60.20473,-40.141735 z"
     fill-rule="evenodd"
     id="path1159" />
  <path
     stroke="#000000"
     stroke-width="1"
     stroke-linejoin="round"
     stroke-linecap="butt"
     d="m 186.41076,50.368767 v 0 c 0,-22.169666 26.95457,-40.14173 60.20473,-40.14173 v 0 c 33.25015,0 60.20471,17.972067 60.20471,40.14173 v 0 c 0,22.169666 -26.95456,40.141735 -60.20471,40.141735 v 0 c -33.25016,0 -60.20473,-17.972069 -60.20473,-40.141735 z"
     fill-rule="evenodd"
     id="path1161" />
  <path
     fill="#000000"
     d="M 230.30689,56.228768 V 44.775643 h 1.40625 v 11.453125 z m 8.99219,-1.03125 q -0.78125,0.671875 -1.5,0.953125 -0.71875,0.265625 -1.54688,0.265625 -1.375,0 -2.10937,-0.671875 -0.73438,-0.671875 -0.73438,-1.703125 0,-0.609375 0.28125,-1.109375 0.28125,-0.515625 0.71875,-0.8125 0.45313,-0.3125 1.01563,-0.46875 0.42187,-0.109375 1.25,-0.203125 1.70312,-0.203125 2.51562,-0.484375 0,-0.296875 0,-0.375 0,-0.859375 -0.39062,-1.203125 -0.54688,-0.484375 -1.60938,-0.484375 -0.98437,0 -1.46875,0.359375 -0.46875,0.34375 -0.6875,1.21875 l -1.375,-0.1875 q 0.1875,-0.875 0.60938,-1.421875 0.4375,-0.546875 1.25,-0.828125 0.8125,-0.296875 1.875,-0.296875 1.0625,0 1.71875,0.25 0.67187,0.25 0.98437,0.625 0.3125,0.375 0.4375,0.953125 0.0781,0.359375 0.0781,1.296875 v 1.875 q 0,1.96875 0.0781,2.484375 0.0937,0.515625 0.35938,1 h -1.46875 q -0.21875,-0.4375 -0.28125,-1.03125 z m -0.10938,-3.140625 q -0.76562,0.3125 -2.29687,0.53125 -0.875,0.125 -1.23438,0.28125 -0.35937,0.15625 -0.5625,0.46875 -0.1875,0.296875 -0.1875,0.65625 0,0.5625 0.42188,0.9375 0.4375,0.375 1.25,0.375 0.8125,0 1.4375,-0.34375 0.64062,-0.359375 0.9375,-0.984375 0.23437,-0.46875 0.23437,-1.40625 z m 3.60156,4.171875 v -8.296875 h 1.25 v 1.15625 q 0.39063,-0.609375 1.03125,-0.96875 0.65625,-0.375 1.48438,-0.375 0.92187,0 1.51562,0.390625 0.59375,0.375 0.82813,1.0625 0.98437,-1.453125 2.5625,-1.453125 1.23437,0 1.89062,0.6875 0.67188,0.671875 0.67188,2.09375 v 5.703125 h -1.39063 v -5.234375 q 0,-0.84375 -0.14062,-1.203125 -0.14063,-0.375 -0.5,-0.59375 -0.35938,-0.234375 -0.84375,-0.234375 -0.875,0 -1.45313,0.578125 -0.57812,0.578125 -0.57812,1.859375 v 4.828125 h -1.40625 v -5.390625 q 0,-0.9375 -0.34375,-1.40625 -0.34375,-0.46875 -1.125,-0.46875 -0.59375,0 -1.09375,0.3125 -0.5,0.3125 -0.73438,0.921875 -0.21875,0.59375 -0.21875,1.71875 v 4.3125 z m 13.32813,3.1875 V 47.931893 h 1.28125 v 1.078125 q 0.45312,-0.640625 1.01562,-0.953125 0.57813,-0.3125 1.39063,-0.3125 1.0625,0 1.875,0.546875 0.8125,0.546875 1.21875,1.546875 0.42187,0.984375 0.42187,2.171875 0,1.28125 -0.46875,2.296875 -0.45312,1.015625 -1.32812,1.5625 -0.85938,0.546875 -1.82813,0.546875 -0.70312,0 -1.26562,-0.296875 -0.54688,-0.296875 -0.90625,-0.75 v 4.046875 z m 1.26562,-7.296875 q 0,1.609375 0.64063,2.375 0.65625,0.765625 1.57812,0.765625 0.9375,0 1.60938,-0.796875 0.67187,-0.796875 0.67187,-2.453125 0,-1.59375 -0.65625,-2.375 -0.65625,-0.796875 -1.5625,-0.796875 -0.89062,0 -1.59375,0.84375 -0.6875,0.84375 -0.6875,2.4375 z"
     fill-rule="nonzero"
     id="path1163" />
  <path
     fill="#cfe2f3"
     d="m 345.78871,40.64173 v 0 C 345.78871,18.472064 372.7433,0.5 405.99345,0.5 v 0 c 33.25016,0 60.20474,17.972065 60.20474,40.14173 v 0 c 0,22.169666 -26.95459,40.141735 -60.20474,40.141735 v 0 c -33.25015,0 -60.20474,-17.972069 -60.20474,-40.141735 z"
     fill-rule="evenodd"
     id="path1165" />
  <path
     stroke="#000000"
     stroke-width="1"
     stroke-linejoin="round"
     stroke-linecap="butt"
     d="m 345.78871,40.64173 v 0 C 345.78871,18.472064 372.7433,0.5 405.99345,0.5 v 0 c 33.25016,0 60.20474,17.972065 60.20474,40.14173 v 0 c 0,22.169666 -26.95459,40.141735 -60.20474,40.141735 v 0 c -33.25015,0 -60.20474,-17.972069 -60.20474,-40.141735 z"
     fill-rule="evenodd"
     id="path1167" />
  <path
     fill="#000000"
     d="m 387.37235,46.501732 v -7.203125 h -1.23437 v -1.09375 h 1.23437 v -0.890625 q 0,-0.828125 0.15625,-1.234375 0.20313,-0.546875 0.70313,-0.890625 0.51562,-0.34375 1.4375,-0.34375 0.59375,0 1.3125,0.140625 l -0.20313,1.234375 q -0.4375,-0.07813 -0.82812,-0.07813 -0.64063,0 -0.90625,0.28125 -0.26563,0.265625 -0.26563,1.015625 v 0.765625 h 1.60938 v 1.09375 h -1.60938 v 7.203125 z m 4.10156,0 v -8.296875 h 1.26563 v 1.25 q 0.48437,-0.875 0.89062,-1.15625 0.40625,-0.28125 0.90625,-0.28125 0.70313,0 1.4375,0.453125 l -0.48437,1.296875 q -0.51563,-0.296875 -1.03125,-0.296875 -0.45313,0 -0.82813,0.28125 -0.35937,0.265625 -0.51562,0.765625 -0.23438,0.75 -0.23438,1.640625 v 4.34375 z m 5.34375,-9.84375 v -1.609375 h 1.40625 v 1.609375 z m 0,9.84375 v -8.296875 h 1.40625 v 8.296875 z m 8.92969,0 v -1.046875 q -0.78125,1.234375 -2.3125,1.234375 -1,0 -1.82812,-0.546875 -0.82813,-0.546875 -1.29688,-1.53125 -0.45312,-0.984375 -0.45312,-2.25 0,-1.25 0.40625,-2.25 0.42187,-1.015625 1.25,-1.546875 0.82812,-0.546875 1.85937,-0.546875 0.75,0 1.32813,0.3125 0.59375,0.3125 0.95312,0.828125 v -4.109375 h 1.40625 v 11.453125 z m -4.4375,-4.140625 q 0,1.59375 0.67188,2.390625 0.67187,0.78125 1.57812,0.78125 0.92188,0 1.5625,-0.75 0.65625,-0.765625 0.65625,-2.3125 0,-1.703125 -0.65625,-2.5 -0.65625,-0.796875 -1.625,-0.796875 -0.9375,0 -1.5625,0.765625 -0.625,0.765625 -0.625,2.421875 z m 7.69531,4.828125 1.375,0.203125 q 0.0781,0.640625 0.46875,0.921875 0.53125,0.390625 1.4375,0.390625 0.96875,0 1.5,-0.390625 0.53125,-0.390625 0.71875,-1.09375 0.10938,-0.421875 0.10938,-1.8125 -0.92188,1.09375 -2.29688,1.09375 -1.71875,0 -2.65625,-1.234375 -0.9375,-1.234375 -0.9375,-2.96875 0,-1.1875 0.42188,-2.1875 0.4375,-1 1.25,-1.546875 0.82812,-0.546875 1.92187,-0.546875 1.46875,0 2.42188,1.1875 v -1 h 1.29687 v 7.171875 q 0,1.9375 -0.39062,2.75 -0.39063,0.8125 -1.25,1.28125 -0.85938,0.46875 -2.10938,0.46875 -1.48437,0 -2.40625,-0.671875 -0.90625,-0.671875 -0.875,-2.015625 z m 1.17188,-4.984375 q 0,1.625 0.64062,2.375 0.65625,0.75 1.625,0.75 0.96875,0 1.625,-0.734375 0.65625,-0.75 0.65625,-2.34375 0,-1.53125 -0.67187,-2.296875 -0.67188,-0.78125 -1.625,-0.78125 -0.9375,0 -1.59375,0.765625 -0.65625,0.765625 -0.65625,2.265625 z m 13.66406,1.625 1.45313,0.171875 q -0.34375,1.28125 -1.28125,1.984375 -0.92188,0.703125 -2.35938,0.703125 -1.82812,0 -2.89062,-1.125 -1.0625,-1.125 -1.0625,-3.140625 0,-2.09375 1.07812,-3.25 1.07813,-1.15625 2.79688,-1.15625 1.65625,0 2.70312,1.140625 1.0625,1.125 1.0625,3.171875 0,0.125 0,0.375 h -6.1875 q 0.0781,1.375 0.76563,2.109375 0.70312,0.71875 1.73437,0.71875 0.78125,0 1.32813,-0.40625 0.54687,-0.40625 0.85937,-1.296875 z m -4.60937,-2.28125 h 4.625 q -0.0937,-1.046875 -0.53125,-1.5625 -0.67188,-0.8125 -1.73438,-0.8125 -0.96875,0 -1.64062,0.65625 -0.65625,0.640625 -0.71875,1.71875 z"
     fill-rule="nonzero"
     id="path1169" />
  <path
     fill="#cfe2f3"
     d="m 489.40291,75.37139 v 0 c 0,-22.169662 32.47522,-40.141727 72.5354,-40.141727 v 0 c 40.06024,0 72.53546,17.972065 72.53546,40.141727 v 0 c 0,22.16967 -32.47522,40.14174 -72.53546,40.14174 v 0 c -40.06018,0 -72.5354,-17.97207 -72.5354,-40.14174 z"
     fill-rule="evenodd"
     id="path1171" />
  <path
     stroke="#000000"
     stroke-width="1"
     stroke-linejoin="round"
     stroke-linecap="butt"
     d="m 489.40291,75.37139 v 0 c 0,-22.169662 32.47522,-40.141727 72.5354,-40.141727 v 0 c 40.06024,0 72.53546,17.972065 72.53546,40.141727 v 0 c 0,22.16967 -32.47522,40.14174 -72.53546,40.14174 v 0 c -40.06018,0 -72.5354,-17.97207 -72.5354,-40.14174 z"
     fill-rule="evenodd"
     id="path1173" />
  <path
     fill="#000000"
     d="m 546.49301,70.46576 0.20312,1.25 q -0.59375,0.125 -1.0625,0.125 -0.76562,0 -1.1875,-0.234375 -0.42187,-0.25 -0.59375,-0.640625 -0.17187,-0.40625 -0.17187,-1.671875 V 64.52826 h -1.03125 v -1.09375 h 1.03125 v -2.0625 l 1.40625,-0.84375 v 2.90625 h 1.40625 v 1.09375 h -1.40625 v 4.84375 q 0,0.609375 0.0625,0.78125 0.0781,0.171875 0.25,0.28125 0.17187,0.09375 0.48437,0.09375 0.23438,0 0.60938,-0.0625 z m 6.78906,0.234375 q -0.78125,0.671875 -1.5,0.953125 -0.71875,0.265625 -1.54687,0.265625 -1.375,0 -2.10938,-0.671875 -0.73437,-0.671875 -0.73437,-1.703125 0,-0.609375 0.28125,-1.109375 0.28125,-0.515625 0.71875,-0.8125 0.45312,-0.3125 1.01562,-0.46875 0.42188,-0.109375 1.25,-0.203125 1.70313,-0.203125 2.51563,-0.484375 0,-0.296875 0,-0.375 0,-0.859375 -0.39063,-1.203125 -0.54687,-0.484375 -1.60937,-0.484375 -0.98438,0 -1.46875,0.359375 -0.46875,0.34375 -0.6875,1.21875 l -1.375,-0.1875 q 0.1875,-0.875 0.60937,-1.421875 0.4375,-0.546875 1.25,-0.828125 0.8125,-0.296875 1.875,-0.296875 1.0625,0 1.71875,0.25 0.67188,0.25 0.98438,0.625 0.3125,0.375 0.4375,0.953125 0.0781,0.359375 0.0781,1.296875 v 1.875 q 0,1.96875 0.0781,2.484375 0.0937,0.515625 0.35937,1 h -1.46875 q -0.21875,-0.4375 -0.28125,-1.03125 z M 553.1727,67.55951 q -0.76563,0.3125 -2.29688,0.53125 -0.875,0.125 -1.23437,0.28125 -0.35938,0.15625 -0.5625,0.46875 -0.1875,0.296875 -0.1875,0.65625 0,0.5625 0.42187,0.9375 0.4375,0.375 1.25,0.375 0.8125,0 1.4375,-0.34375 0.64063,-0.359375 0.9375,-0.984375 0.23438,-0.46875 0.23438,-1.40625 z m 4.89843,4.171875 h -1.3125 V 60.27826 h 1.40625 v 4.078125 q 0.89063,-1.109375 2.28125,-1.109375 0.76563,0 1.4375,0.3125 0.6875,0.296875 1.125,0.859375 0.45313,0.5625 0.70313,1.359375 0.25,0.78125 0.25,1.671875 0,2.140625 -1.0625,3.3125 -1.04688,1.15625 -2.53125,1.15625 -1.46875,0 -2.29688,-1.234375 z m -0.0156,-4.21875 q 0,1.5 0.40625,2.15625 0.65625,1.09375 1.79687,1.09375 0.92188,0 1.59375,-0.796875 0.67188,-0.8125 0.67188,-2.390625 0,-1.625 -0.65625,-2.390625 -0.64063,-0.78125 -1.54688,-0.78125 -0.92187,0 -1.59375,0.796875 -0.67187,0.796875 -0.67187,2.3125 z m 7.58594,4.21875 V 60.27826 h 1.40625 v 11.453125 z m 9.25781,-2.671875 1.45312,0.171875 q -0.34375,1.28125 -1.28125,1.984375 -0.92187,0.703125 -2.35937,0.703125 -1.82813,0 -2.89063,-1.125 -1.0625,-1.125 -1.0625,-3.140625 0,-2.09375 1.07813,-3.25 1.07812,-1.15625 2.79687,-1.15625 1.65625,0 2.70313,1.140625 1.0625,1.125 1.0625,3.171875 0,0.125 0,0.375 h -6.1875 q 0.0781,1.375 0.76562,2.109375 0.70313,0.71875 1.73438,0.71875 0.78125,0 1.32812,-0.40625 0.54688,-0.40625 0.85938,-1.296875 z m -4.60938,-2.28125 h 4.625 q -0.0937,-1.046875 -0.53125,-1.5625 -0.67187,-0.8125 -1.73437,-0.8125 -0.96875,0 -1.64063,0.65625 -0.65625,0.640625 -0.71875,1.71875 z m 10.89844,3.6875 0.20313,1.25 q -0.59375,0.125 -1.0625,0.125 -0.76563,0 -1.1875,-0.234375 -0.42188,-0.25 -0.59375,-0.640625 -0.17188,-0.40625 -0.17188,-1.671875 V 64.52826 h -1.03125 v -1.09375 h 1.03125 v -2.0625 l 1.40625,-0.84375 v 2.90625 h 1.40625 v 1.09375 h -1.40625 v 4.84375 q 0,0.609375 0.0625,0.78125 0.0781,0.171875 0.25,0.28125 0.17188,0.09375 0.48438,0.09375 0.23437,0 0.60937,-0.0625 z"
     fill-rule="nonzero"
     id="path1175" />
  <path
     fill="#000000"
     d="m 535.05941,87.68451 1.39063,0.1875 q -0.23438,1.421875 -1.17188,2.234375 -0.92187,0.8125 -2.28125,0.8125 -1.70312,0 -2.75,-1.109375 -1.03125,-1.125 -1.03125,-3.203125 0,-1.34375 0.4375,-2.34375 0.45313,-1.015625 1.35938,-1.515625 0.92187,-0.5 1.98437,-0.5 1.35938,0 2.21875,0.6875 0.85938,0.671875 1.09375,1.9375 l -1.35937,0.203125 q -0.20313,-0.828125 -0.70313,-1.25 -0.48437,-0.421875 -1.1875,-0.421875 -1.0625,0 -1.73437,0.765625 -0.65625,0.75 -0.65625,2.40625 0,1.671875 0.64062,2.4375 0.64063,0.75 1.67188,0.75 0.82812,0 1.375,-0.5 0.5625,-0.515625 0.70312,-1.578125 z m 2.0625,-1.109375 q 0,-2.296875 1.28125,-3.40625 1.07813,-0.921875 2.60938,-0.921875 1.71875,0 2.79687,1.125 1.09375,1.109375 1.09375,3.09375 0,1.59375 -0.48437,2.515625 -0.48438,0.921875 -1.40625,1.4375 -0.90625,0.5 -2,0.5 -1.73438,0 -2.8125,-1.109375 -1.07813,-1.125 -1.07813,-3.234375 z m 1.45313,0 q 0,1.59375 0.6875,2.390625 0.70312,0.796875 1.75,0.796875 1.04687,0 1.73437,-0.796875 0.70313,-0.796875 0.70313,-2.4375 0,-1.53125 -0.70313,-2.328125 -0.6875,-0.796875 -1.73437,-0.796875 -1.04688,0 -1.75,0.796875 -0.6875,0.78125 -0.6875,2.375 z m 7.97656,4.15625 V 82.43451 h 1.25 v 1.15625 q 0.39062,-0.609375 1.03125,-0.96875 0.65625,-0.375 1.48437,-0.375 0.92188,0 1.51563,0.390625 0.59375,0.375 0.82812,1.0625 0.98438,-1.453125 2.5625,-1.453125 1.23438,0 1.89063,0.6875 0.67187,0.671875 0.67187,2.09375 v 5.703125 h -1.39062 V 85.49701 q 0,-0.84375 -0.14063,-1.203125 -0.14062,-0.375 -0.5,-0.59375 -0.35937,-0.234375 -0.84375,-0.234375 -0.875,0 -1.45312,0.578125 -0.57813,0.578125 -0.57813,1.859375 v 4.828125 h -1.40625 V 85.34076 q 0,-0.9375 -0.34375,-1.40625 -0.34375,-0.46875 -1.125,-0.46875 -0.59375,0 -1.09375,0.3125 -0.5,0.3125 -0.73437,0.921875 -0.21875,0.59375 -0.21875,1.71875 v 4.3125 z m 13.32812,3.1875 V 82.43451 h 1.28125 v 1.078125 q 0.45313,-0.640625 1.01563,-0.953125 0.57812,-0.3125 1.39062,-0.3125 1.0625,0 1.875,0.546875 0.8125,0.546875 1.21875,1.546875 0.42188,0.984375 0.42188,2.171875 0,1.28125 -0.46875,2.296875 -0.45313,1.015625 -1.32813,1.5625 -0.85937,0.546875 -1.82812,0.546875 -0.70313,0 -1.26563,-0.296875 -0.54687,-0.296875 -0.90625,-0.75 v 4.046875 z m 1.26563,-7.296875 q 0,1.609375 0.64062,2.375 0.65625,0.765625 1.57813,0.765625 0.9375,0 1.60937,-0.796875 0.67188,-0.796875 0.67188,-2.453125 0,-1.59375 -0.65625,-2.375 -0.65625,-0.796875 -1.5625,-0.796875 -0.89063,0 -1.59375,0.84375 -0.6875,0.84375 -0.6875,2.4375 z m 13.07031,4.109375 v -1.21875 q -0.96875,1.40625 -2.64062,1.40625 -0.73438,0 -1.375,-0.28125 -0.625,-0.28125 -0.9375,-0.703125 -0.3125,-0.4375 -0.4375,-1.046875 -0.0781,-0.421875 -0.0781,-1.3125 V 82.43451 h 1.40625 v 4.59375 q 0,1.109375 0.0781,1.484375 0.14062,0.5625 0.5625,0.875 0.4375,0.3125 1.0625,0.3125 0.64062,0 1.1875,-0.3125 0.5625,-0.328125 0.78125,-0.890625 0.23437,-0.5625 0.23437,-1.625 v -4.4375 h 1.40625 v 8.296875 z m 6.52344,-1.265625 0.20312,1.25 q -0.59375,0.125 -1.0625,0.125 -0.76562,0 -1.1875,-0.234375 -0.42187,-0.25 -0.59375,-0.640625 -0.17187,-0.40625 -0.17187,-1.671875 V 83.52826 h -1.03125 v -1.09375 h 1.03125 v -2.0625 l 1.40625,-0.84375 v 2.90625 h 1.40625 v 1.09375 h -1.40625 v 4.84375 q 0,0.609375 0.0625,0.78125 0.0781,0.171875 0.25,0.28125 0.17187,0.09375 0.48437,0.09375 0.23438,0 0.60938,-0.0625 z m 7.05469,-1.40625 1.45312,0.171875 q -0.34375,1.28125 -1.28125,1.984375 -0.92187,0.703125 -2.35937,0.703125 -1.82813,0 -2.89063,-1.125 -1.0625,-1.125 -1.0625,-3.140625 0,-2.09375 1.07813,-3.25 1.07812,-1.15625 2.79687,-1.15625 1.65625,0 2.70313,1.140625 1.0625,1.125 1.0625,3.171875 0,0.125 0,0.375 h -6.1875 q 0.0781,1.375 0.76562,2.109375 0.70313,0.71875 1.73438,0.71875 0.78125,0 1.32812,-0.40625 0.54688,-0.40625 0.85938,-1.296875 z m -4.60938,-2.28125 h 4.625 q -0.0937,-1.046875 -0.53125,-1.5625 -0.67187,-0.8125 -1.73437,-0.8125 -0.96875,0 -1.64063,0.65625 -0.65625,0.640625 -0.71875,1.71875 z m 7.82031,4.953125 V 82.43451 h 1.26563 v 1.25 q 0.48437,-0.875 0.89062,-1.15625 0.40625,-0.28125 0.90625,-0.28125 0.70313,0 1.4375,0.453125 l -0.48437,1.296875 q -0.51563,-0.296875 -1.03125,-0.296875 -0.45313,0 -0.82813,0.28125 -0.35937,0.265625 -0.51562,0.765625 -0.23438,0.75 -0.23438,1.640625 v 4.34375 z"
     fill-rule="nonzero"
     id="path1177" />
  <path
     fill="#000000"
     fill-opacity="0"
     d="m 151.8832,97.74672 c 3.93504,0 5.74803,34.15748 7.87009,68.31496 2.12204,34.15749 4.55314,68.31496 9.10629,68.31496"
     fill-rule="evenodd"
     id="path1179" />
  <path
     stroke="#000000"
     stroke-width="1"
     stroke-linejoin="round"
     stroke-linecap="butt"
     d="m 151.8832,97.74672 c 3.93504,0 5.74803,34.15748 7.87009,68.31496 2.12204,34.15749 4.55314,68.31496 9.10629,68.31496"
     fill-rule="evenodd"
     id="path1181" />
  <path
     fill="#000000"
     fill-opacity="0"
     d="m 103.2759,239.81887 c 0,18.37863 11.75018,34.67001 20.49507,36.75726 8.74487,2.08722 14.48445,-10.02972 20.49507,-21.10305 6.01064,-11.07331 12.29233,-21.10302 24.58466,-21.10302"
     fill-rule="evenodd"
     id="path1183" />
  <path
     stroke="#000000"
     stroke-width="1"
     stroke-linejoin="round"
     stroke-linecap="butt"
     d="m 103.2759,239.81887 c 0,18.37863 11.75018,34.67001 20.49507,36.75726 8.74487,2.08722 14.48445,-10.02972 20.49507,-21.10305 6.01064,-11.07331 12.29233,-21.10302 24.58466,-21.10302"
     fill-rule="evenodd"
     id="path1185" />
  <path
     fill="#000000"
     fill-opacity="0"
     d="m 134.85171,335.96193 c 8.19286,0 12.13376,-25.39371 16.38573,-50.78738 4.25197,-25.39371 8.815,-50.78742 17.63002,-50.78742"
     fill-rule="evenodd"
     id="path1187" />
  <path
     stroke="#000000"
     stroke-width="1"
     stroke-linejoin="round"
     stroke-linecap="butt"
     d="m 134.85171,335.96193 c 8.19286,0 12.13376,-25.39371 16.38573,-50.78738 4.25197,-25.39371 8.815,-50.78742 17.63002,-50.78742"
     fill-rule="evenodd"
     id="path1189" />
  <path
     fill="#000000"
     fill-opacity="0"
     d="m 212.08793,385.91994 c 0,-7.95004 28.31497,-11.78595 56.62991,-15.90012 28.31497,-4.11416 56.62992,-8.50662 56.62992,-17.01327"
     fill-rule="evenodd"
     id="path1191" />
  <path
     stroke="#000000"
     stroke-width="1"
     stroke-linejoin="round"
     stroke-linecap="butt"
     d="m 212.08793,385.91994 c 0,-7.95004 28.31497,-11.78595 56.62991,-15.90012 28.31497,-4.11416 56.62992,-8.50662 56.62992,-17.01327"
     fill-rule="evenodd"
     id="path1193" />
  <path
     fill="#000000"
     fill-opacity="0"
     d="m 340.91834,418.82418 c 0,-19.11545 -3.88977,-30.00253 -7.77954,-38.23087 -3.88977,-8.22836 -7.77951,-13.79797 -7.77951,-27.59591"
     fill-rule="evenodd"
     id="path1195" />
  <path
     stroke="#000000"
     stroke-width="1"
     stroke-linejoin="round"
     stroke-linecap="butt"
     d="m 340.91834,418.82418 c 0,-19.11545 -3.88977,-30.00253 -7.77954,-38.23087 -3.88977,-8.22836 -7.77951,-13.79797 -7.77951,-27.59591"
     fill-rule="evenodd"
     id="path1197" />
  <path
     fill="#000000"
     fill-opacity="0"
     d="m 488.65061,371.01577 c 0,-68.31494 -3.05511,-136.62991 -6.11029,-136.62991"
     fill-rule="evenodd"
     id="path1199" />
  <path
     stroke="#000000"
     stroke-width="1"
     stroke-linejoin="round"
     stroke-linecap="butt"
     d="m 488.65061,371.01577 c 0,-68.31494 -3.05511,-136.62991 -6.11029,-136.62991"
     fill-rule="evenodd"
     id="path1201" />
  <path
     fill="#000000"
     fill-opacity="0"
     d="m 548.76511,295.82021 c -16.45019,0 -24.62482,-15.36221 -32.90045,-30.7244 -8.27557,-15.36221 -16.6521,-30.72442 -33.30426,-30.72442"
     fill-rule="evenodd"
     id="path1203" />
  <path
     stroke="#000000"
     stroke-width="1"
     stroke-linejoin="round"
     stroke-linecap="butt"
     d="m 548.76511,295.82021 c -16.45019,0 -24.62482,-15.36221 -32.90045,-30.7244 -8.27557,-15.36221 -16.6521,-30.72442 -33.30426,-30.72442"
     fill-rule="evenodd"
     id="path1205" />
  <path
     fill="#000000"
     fill-opacity="0"
     d="m 587.54561,206.41468 c 0,13.98425 -52.50391,27.96851 -105.00787,27.96851"
     fill-rule="evenodd"
     id="path1207" />
  <path
     stroke="#000000"
     stroke-width="1"
     stroke-linejoin="round"
     stroke-linecap="butt"
     d="m 587.54561,206.41468 c 0,13.98425 -52.50391,27.96851 -105.00787,27.96851"
     fill-rule="evenodd"
     id="path1209" />
  <path
     fill="#000000"
     fill-opacity="0"
     d="m 561.93831,115.51313 c 0,59.43307 -39.685,118.86613 -79.37006,118.86613"
     fill-rule="evenodd"
     id="path1211" />
  <path
     stroke="#000000"
     stroke-width="1"
     stroke-linejoin="round"
     stroke-linecap="butt"
     d="m 561.93831,115.51313 c 0,59.43307 -39.685,118.86613 -79.37006,118.86613"
     fill-rule="evenodd"
     id="path1213" />
  <path
     fill="#000000"
     fill-opacity="0"
     d="m 405.99344,80.78347 c 0,8.875938 -20.1575,11.712509 -40.31497,17.75188 -20.15747,6.03937 -40.31494,15.28154 -40.31494,30.56308"
     fill-rule="evenodd"
     id="path1215" />
  <path
     stroke="#000000"
     stroke-width="1"
     stroke-linejoin="round"
     stroke-linecap="butt"
     d="m 405.99344,80.78347 c 0,8.875938 -20.1575,11.712509 -40.31497,17.75188 -20.15747,6.03937 -40.31494,15.28154 -40.31494,30.56308"
     fill-rule="evenodd"
     id="path1217" />
  <path
     fill="#000000"
     fill-opacity="0"
     d="m 289.18665,78.753254 c 0,12.322876 9.03937,18.350476 18.07874,24.645756 9.03936,6.29528 18.07873,12.85823 18.07873,25.71646"
     fill-rule="evenodd"
     id="path1219" />
  <path
     stroke="#000000"
     stroke-width="1"
     stroke-linejoin="round"
     stroke-linecap="butt"
     d="m 289.18665,78.753254 c 0,12.322876 9.03937,18.350476 18.07874,24.645756 9.03936,6.29528 18.07873,12.85823 18.07873,25.71646"
     fill-rule="evenodd"
     id="path1221" />
</svg>
