<?xml version="1.0" encoding="UTF-8" standalone="no"?>
<svg
   xmlns:dc="http://purl.org/dc/elements/1.1/"
   xmlns:cc="http://creativecommons.org/ns#"
   xmlns:rdf="http://www.w3.org/1999/02/22-rdf-syntax-ns#"
   xmlns:svg="http://www.w3.org/2000/svg"
   xmlns="http://www.w3.org/2000/svg"
   xmlns:sodipodi="http://sodipodi.sourceforge.net/DTD/sodipodi-0.dtd"
   xmlns:inkscape="http://www.inkscape.org/namespaces/inkscape"
   version="1.1"
   viewBox="0 0 615.33594 271"
   fill="none"
   stroke="none"
   stroke-linecap="square"
   stroke-miterlimit="10"
   id="svg77"
   sodipodi:docname="libkvm-vs-libfbsdvmcore.svg"
   width="615.33594"
   height="271"
   inkscape:version="1.0.1 (3bc2e813f5, 2020-09-07)">
  <metadata
     id="metadata83">
    <rdf:RDF>
      <cc:Work
         rdf:about="">
        <dc:format>image/svg+xml</dc:format>
        <dc:type
           rdf:resource="http://purl.org/dc/dcmitype/StillImage" />
        <dc:title></dc:title>
      </cc:Work>
    </rdf:RDF>
  </metadata>
  <defs
     id="defs81" />
  <sodipodi:namedview
     pagecolor="#ffffff"
     bordercolor="#666666"
     borderopacity="1"
     objecttolerance="10"
     gridtolerance="10"
     guidetolerance="10"
     inkscape:pageopacity="0"
     inkscape:pageshadow="2"
     inkscape:window-width="1364"
     inkscape:window-height="747"
     id="namedview79"
     showgrid="false"
     inkscape:zoom="1.0685185"
     inkscape:cx="273.7518"
     inkscape:cy="195.62998"
     inkscape:window-x="0"
     inkscape:window-y="19"
     inkscape:window-maximized="0"
     inkscape:current-layer="svg77" />
  <clipPath
     id="p.0">
    <path
       d="M 0,0 H 720 V 540 H 0 Z"
       clip-rule="nonzero"
       id="path2" />
  </clipPath>
  <path
     fill="#000000"
     fill-opacity="0"
     d="M -61.447506,0.5 H 658.55249 v 540 H -61.447506 Z"
     fill-rule="evenodd"
     id="path5" />
  <path
     fill="#cfe2f3"
     d="M 452.47375,226.62599 H 614.30053 V 270.5 H 452.47375 Z"
     fill-rule="evenodd"
     id="path7" />
  <path
     stroke="#000000"
     stroke-width="1"
     stroke-linejoin="round"
     stroke-linecap="butt"
     d="M 452.47375,226.62599 H 614.30053 V 270.5 H 452.47375 Z"
     fill-rule="evenodd"
     id="path9" />
  <path
     fill="#cfe2f3"
     d="M 290.11154,226.62599 H 451.93829 V 270.5 H 290.11154 Z"
     fill-rule="evenodd"
     id="path11" />
  <path
     stroke="#000000"
     stroke-width="1"
     stroke-linejoin="round"
     stroke-linecap="butt"
     d="M 290.11154,226.62599 H 451.93829 V 270.5 H 290.11154 Z"
     fill-rule="evenodd"
     id="path13" />
  <path
     fill="#d9d2e9"
     d="M 0.5,226.62599 H 224.56299 V 270.5 H 0.5 Z"
     fill-rule="evenodd"
     id="path15" />
  <path
     stroke="#000000"
     stroke-width="1"
     stroke-linejoin="round"
     stroke-linecap="butt"
     d="M 0.5,226.62599 H 224.56299 V 270.5 H 0.5 Z"
     fill-rule="evenodd"
     id="path17" />
  <path
     fill="#000000"
     d="m 68.780644,255.48299 v -13.35938 h 1.78125 v 11.78125 h 6.5625 v 1.57813 z m 10.25072,-11.46875 v -1.89063 h 1.64062 v 1.89063 z m 0,11.46875 v -9.67188 h 1.64062 v 9.67188 z m 6.83232,0 -3.6875,-9.67188 h 1.73437 l 2.07813,5.79688 q 0.32812,0.9375 0.625,1.9375 0.20312,-0.76563 0.60937,-1.82813 l 2.14063,-5.90625 h 1.6875 l -3.65625,9.67188 z m 13.26562,-3.10938 1.687496,0.20313 q -0.40625,1.48437 -1.484366,2.3125 -1.07813,0.8125 -2.76563,0.8125 -2.125,0 -3.375,-1.29688 -1.23437,-1.3125 -1.23437,-3.67187 0,-2.45313 1.25,-3.79688 1.26562,-1.34375 3.26562,-1.34375 1.9375,0 3.15625,1.32813 1.234376,1.3125 1.234376,3.70312 0,0.15625 0,0.4375 h -7.218746 q 0.0937,1.59375 0.90625,2.45313 0.8125,0.84375 2.01562,0.84375 0.90625,0 1.54688,-0.46875 0.64062,-0.48438 1.01562,-1.51563 z m -5.39062,-2.65625 h 5.40625 q -0.10938,-1.21875 -0.625,-1.82812 -0.78125,-0.95313 -2.03125,-0.95313 -1.125,0 -1.90625,0.76563 -0.76563,0.75 -0.84375,2.01562 z m 14.324636,5.76563 v -13.35938 h 1.64063 v 7.625 l 3.89062,-3.9375 h 2.10938 l -3.6875,3.59375 4.0625,6.07813 h -2.01563 l -3.20312,-4.95313 -1.15625,1.125 v 3.82813 z m 15.95313,-3.10938 1.6875,0.20313 q -0.40625,1.48437 -1.48438,2.3125 -1.07812,0.8125 -2.76562,0.8125 -2.125,0 -3.375,-1.29688 -1.23438,-1.3125 -1.23438,-3.67187 0,-2.45313 1.25,-3.79688 1.26563,-1.34375 3.26563,-1.34375 1.9375,0 3.15625,1.32813 1.23437,1.3125 1.23437,3.70312 0,0.15625 0,0.4375 h -7.21875 q 0.0937,1.59375 0.90625,2.45313 0.8125,0.84375 2.01563,0.84375 0.90625,0 1.54687,-0.46875 0.64063,-0.48438 1.01563,-1.51563 z m -5.39063,-2.65625 h 5.40625 q -0.10937,-1.21875 -0.625,-1.82812 -0.78125,-0.95313 -2.03125,-0.95313 -1.125,0 -1.90625,0.76563 -0.76562,0.75 -0.84375,2.01562 z m 9.12572,5.76563 v -9.67188 h 1.46875 v 1.46875 q 0.5625,-1.03125 1.03125,-1.35937 0.48438,-0.32813 1.0625,-0.32813 0.82813,0 1.6875,0.53125 l -0.5625,1.51563 q -0.60937,-0.35938 -1.20312,-0.35938 -0.54688,0 -0.96875,0.32813 -0.42188,0.32812 -0.60938,0.89062 -0.28125,0.875 -0.28125,1.92188 v 5.0625 z m 6.2283,0 v -9.67188 h 1.46875 v 1.375 q 1.0625,-1.59375 3.07813,-1.59375 0.875,0 1.60937,0.3125 0.73438,0.3125 1.09375,0.82813 0.375,0.5 0.51563,1.20312 0.0937,0.45313 0.0937,1.59375 v 5.95313 h -1.64063 v -5.89063 q 0,-1 -0.20312,-1.48437 -0.1875,-0.5 -0.67188,-0.79688 -0.48437,-0.29687 -1.14062,-0.29687 -1.04688,0 -1.8125,0.67187 -0.75,0.65625 -0.75,2.51563 v 5.28125 z m 17.00072,-3.10938 1.6875,0.20313 q -0.40625,1.48437 -1.48437,2.3125 -1.07813,0.8125 -2.76563,0.8125 -2.125,0 -3.375,-1.29688 -1.23437,-1.3125 -1.23437,-3.67187 0,-2.45313 1.25,-3.79688 1.26562,-1.34375 3.26562,-1.34375 1.9375,0 3.15625,1.32813 1.23438,1.3125 1.23438,3.70312 0,0.15625 0,0.4375 h -7.21875 q 0.0937,1.59375 0.90625,2.45313 0.8125,0.84375 2.01562,0.84375 0.90625,0 1.54688,-0.46875 0.64062,-0.48438 1.01562,-1.51563 z m -5.39062,-2.65625 h 5.40625 q -0.10938,-1.21875 -0.625,-1.82812 -0.78125,-0.95313 -2.03125,-0.95313 -1.125,0 -1.90625,0.76563 -0.76563,0.75 -0.84375,2.01562 z m 9.09446,5.76563 v -13.35938 h 1.64063 v 13.35938 z"
     fill-rule="nonzero"
     id="path19" />
  <path
     fill="#ead1dc"
     d="m 290.11154,226.62599 h 324.7244 V 270.5 h -324.7244 z"
     fill-rule="evenodd"
     id="path21" />
  <path
     stroke="#000000"
     stroke-width="1"
     stroke-linejoin="round"
     stroke-linecap="butt"
     d="m 290.11154,226.62599 h 324.7244 V 270.5 h -324.7244 z"
     fill-rule="evenodd"
     id="path23" />
  <path
     fill="#000000"
     d="m 417.29834,250.79549 1.76563,0.45312 q -0.5625,2.17188 -2,3.32813 -1.4375,1.14062 -3.53125,1.14062 -2.15625,0 -3.51563,-0.875 -1.34375,-0.89062 -2.0625,-2.54687 -0.70312,-1.67188 -0.70312,-3.59375 0,-2.07813 0.79687,-3.625 0.79688,-1.5625 2.26563,-2.35938 1.48437,-0.8125 3.25,-0.8125 2,0 3.35937,1.01563 1.375,1.01562 1.90625,2.875 l -1.73437,0.40625 q -0.46875,-1.45313 -1.35938,-2.10938 -0.875,-0.67187 -2.20312,-0.67187 -1.54688,0 -2.57813,0.73437 -1.03125,0.73438 -1.45312,1.98438 -0.42188,1.23437 -0.42188,2.5625 0,1.70312 0.5,2.96875 0.5,1.26562 1.54688,1.90625 1.04687,0.625 2.26562,0.625 1.48438,0 2.51563,-0.85938 1.03125,-0.85937 1.39062,-2.54687 z m 3.12918,-0.15625 q 0,-2.6875 1.48438,-3.96875 1.25,-1.07813 3.04687,-1.07813 2,0 3.26563,1.3125 1.26562,1.29688 1.26562,3.60938 0,1.85937 -0.5625,2.9375 -0.5625,1.0625 -1.64062,1.65625 -1.0625,0.59375 -2.32813,0.59375 -2.03125,0 -3.28125,-1.29688 -1.25,-1.3125 -1.25,-3.76562 z m 1.6875,0 q 0,1.85937 0.79688,2.79687 0.8125,0.92188 2.04687,0.92188 1.21875,0 2.03125,-0.92188 0.8125,-0.9375 0.8125,-2.84375 0,-1.79687 -0.8125,-2.71875 -0.8125,-0.92187 -2.03125,-0.92187 -1.23437,0 -2.04687,0.92187 -0.79688,0.90625 -0.79688,2.76563 z m 9.28198,4.84375 v -9.67188 h 1.46875 v 1.46875 q 0.5625,-1.03125 1.03125,-1.35937 0.48438,-0.32813 1.0625,-0.32813 0.82813,0 1.6875,0.53125 l -0.5625,1.51563 q -0.60937,-0.35938 -1.20312,-0.35938 -0.54688,0 -0.96875,0.32813 -0.42188,0.32812 -0.60938,0.89062 -0.28125,0.875 -0.28125,1.92188 v 5.0625 z m 12.8533,-3.10938 1.6875,0.20313 q -0.40625,1.48437 -1.48437,2.3125 -1.07813,0.8125 -2.76563,0.8125 -2.125,0 -3.375,-1.29688 -1.23437,-1.3125 -1.23437,-3.67187 0,-2.45313 1.25,-3.79688 1.26562,-1.34375 3.26562,-1.34375 1.9375,0 3.15625,1.32813 1.23438,1.3125 1.23438,3.70312 0,0.15625 0,0.4375 h -7.21875 q 0.0937,1.59375 0.90625,2.45313 0.8125,0.84375 2.01562,0.84375 0.90625,0 1.54688,-0.46875 0.64062,-0.48438 1.01562,-1.51563 z m -5.39062,-2.65625 h 5.40625 q -0.10938,-1.21875 -0.625,-1.82812 -0.78125,-0.95313 -2.03125,-0.95313 -1.125,0 -1.90625,0.76563 -0.76563,0.75 -0.84375,2.01562 z m 20.59027,5.76563 v -1.21875 q -0.90625,1.4375 -2.70312,1.4375 -1.15625,0 -2.125,-0.64063 -0.96875,-0.64062 -1.5,-1.78125 -0.53125,-1.14062 -0.53125,-2.625 0,-1.45312 0.48437,-2.625 0.48438,-1.1875 1.4375,-1.8125 0.96875,-0.625 2.17188,-0.625 0.875,0 1.54687,0.375 0.6875,0.35938 1.10938,0.95313 v -4.79688 h 1.64062 v 13.35938 z m -5.17187,-4.82813 q 0,1.85938 0.78125,2.78125 0.78125,0.92188 1.84375,0.92188 1.07812,0 1.82812,-0.875 0.75,-0.89063 0.75,-2.6875 0,-1.98438 -0.76562,-2.90625 -0.76563,-0.9375 -1.89063,-0.9375 -1.07812,0 -1.8125,0.89062 -0.73437,0.89063 -0.73437,2.8125 z m 15.6101,4.82813 v -1.42188 q -1.125,1.64063 -3.0625,1.64063 -0.85937,0 -1.60937,-0.32813 -0.73438,-0.32812 -1.09375,-0.82812 -0.35938,-0.5 -0.5,-1.21875 -0.10938,-0.46875 -0.10938,-1.53125 v -5.98438 h 1.64063 v 5.35938 q 0,1.28125 0.10937,1.73437 0.15625,0.64063 0.65625,1.01563 0.5,0.375 1.23438,0.375 0.73437,0 1.375,-0.375 0.65625,-0.39063 0.92187,-1.03125 0.26563,-0.65625 0.26563,-1.89063 v -5.1875 h 1.64062 v 9.67188 z m 4.04761,0 v -9.67188 h 1.46875 v 1.35938 q 0.45313,-0.71875 1.20313,-1.14063 0.76562,-0.4375 1.71875,-0.4375 1.07812,0 1.76562,0.45313 0.6875,0.4375 0.96875,1.23437 1.15625,-1.6875 2.98438,-1.6875 1.45312,0 2.21875,0.79688 0.78125,0.79687 0.78125,2.45312 v 6.64063 h -1.64063 v -6.09375 q 0,-0.98438 -0.15625,-1.40625 -0.15625,-0.4375 -0.57812,-0.70313 -0.42188,-0.26562 -0.98438,-0.26562 -1.01562,0 -1.6875,0.6875 -0.67187,0.67187 -0.67187,2.15625 v 5.625 h -1.64063 v -6.28125 q 0,-1.09375 -0.40625,-1.64063 -0.40625,-0.54687 -1.3125,-0.54687 -0.6875,0 -1.28125,0.35937 -0.59375,0.35938 -0.85937,1.0625 -0.25,0.70313 -0.25,2.03125 v 5.01563 z m 15.54077,3.70314 v -13.37501 h 1.48438 v 1.25 q 0.53125,-0.73438 1.1875,-1.09375 0.67187,-0.375 1.625,-0.375 1.23437,0 2.17187,0.64062 0.95313,0.625 1.4375,1.79688 0.48438,1.15625 0.48438,2.54687 0,1.48438 -0.53125,2.67188 -0.53125,1.1875 -1.54688,1.82812 -1.01562,0.625 -2.14062,0.625 -0.8125,0 -1.46875,-0.34375 -0.65625,-0.34375 -1.0625,-0.875 v 4.70314 z m 1.48438,-8.48439 q 0,1.85938 0.75,2.76563 0.76562,0.89062 1.82812,0.89062 1.09375,0 1.875,-0.92187 0.78125,-0.9375 0.78125,-2.875 0,-1.84375 -0.76562,-2.76563 -0.75,-0.92187 -1.8125,-0.92187 -1.04688,0 -1.85938,0.98437 -0.79687,0.96875 -0.79687,2.84375 z"
     fill-rule="nonzero"
     id="path25" />
  <path
     fill="#d9ead3"
     d="m 0.5,113.563 h 346.92914 v 43.87401 H 0.5 Z"
     fill-rule="evenodd"
     id="path27" />
  <path
     stroke="#000000"
     stroke-width="1"
     stroke-linejoin="round"
     stroke-linecap="butt"
     d="m 0.5,113.563 h 346.92914 v 43.87401 H 0.5 Z"
     fill-rule="evenodd"
     id="path29" />
  <path
     fill="#000000"
     d="m 101.55644,142.42 v -13.35938 h 1.64062 V 142.42 Z m 4.1917,-11.46875 v -1.89063 h 1.64062 v 1.89063 z m 0,11.46875 v -9.67188 h 1.64062 V 142.42 Z m 5.64482,0 h -1.51563 v -13.35938 h 1.64063 v 4.76563 q 1.04687,-1.29688 2.65625,-1.29688 0.89062,0 1.6875,0.35938 0.79687,0.35937 1.3125,1.01562 0.51562,0.64063 0.79687,1.5625 0.29688,0.92188 0.29688,1.96875 0,2.48438 -1.23438,3.84375 -1.21875,1.35938 -2.95312,1.35938 -1.70313,0 -2.6875,-1.4375 z m -0.0156,-4.90625 q 0,1.73437 0.48438,2.51562 0.76562,1.26563 2.09375,1.26563 1.07812,0 1.85937,-0.9375 0.78125,-0.9375 0.78125,-2.78125 0,-1.89063 -0.75,-2.79688 -0.75,-0.90625 -1.82812,-0.90625 -1.0625,0 -1.85938,0.9375 -0.78125,0.9375 -0.78125,2.70313 z m 8.89134,4.90625 v -13.35938 h 1.64063 v 7.625 l 3.89062,-3.9375 h 2.10938 l -3.6875,3.59375 4.0625,6.07813 h -2.01563 l -3.20312,-4.95313 -1.15625,1.125 V 142.42 Z m 12.01563,0 -3.6875,-9.67188 h 1.73437 l 2.07813,5.79688 q 0.32812,0.9375 0.625,1.9375 0.20312,-0.76563 0.60937,-1.82813 l 2.14063,-5.90625 h 1.6875 l -3.65625,9.67188 z m 6.64062,0 v -9.67188 h 1.46875 v 1.35938 q 0.45313,-0.71875 1.20313,-1.14063 0.76562,-0.4375 1.71875,-0.4375 1.07812,0 1.76562,0.45313 0.6875,0.4375 0.96875,1.23437 1.15625,-1.6875 2.98438,-1.6875 1.45312,0 2.21875,0.79688 0.78125,0.79687 0.78125,2.45312 V 142.42 h -1.64063 v -6.09375 q 0,-0.98438 -0.15625,-1.40625 -0.15625,-0.4375 -0.57812,-0.70313 -0.42188,-0.26562 -0.98438,-0.26562 -1.01562,0 -1.6875,0.6875 -0.67187,0.67187 -0.67187,2.15625 v 5.625 h -1.64063 v -6.28125 q 0,-1.09375 -0.40625,-1.64063 -0.40625,-0.54687 -1.3125,-0.54687 -0.6875,0 -1.28125,0.35937 -0.59375,0.35938 -0.85937,1.0625 -0.25,0.70313 -0.25,2.03125 V 142.42 Z m 23.84911,3.92187 q -1.35937,-1.70312 -2.29687,-4 -0.9375,-2.29687 -0.9375,-4.76562 0,-2.15625 0.70312,-4.14063 0.82813,-2.3125 2.53125,-4.59375 h 1.17188 q -1.09375,1.89063 -1.45313,2.70313 -0.54687,1.25 -0.875,2.625 -0.39062,1.70312 -0.39062,3.42187 0,4.375 2.71875,8.75 z m 3.38455,-3.92187 v -13.35938 h 9.01563 v 1.57813 h -7.25 v 4.14062 h 6.26562 v 1.57813 h -6.26562 v 6.0625 z m 11.08348,0 v -9.67188 h 1.46875 v 1.46875 q 0.5625,-1.03125 1.03125,-1.35937 0.48438,-0.32813 1.0625,-0.32813 0.82813,0 1.6875,0.53125 l -0.5625,1.51563 q -0.60937,-0.35938 -1.20312,-0.35938 -0.54688,0 -0.96875,0.32813 -0.42188,0.32812 -0.60938,0.89062 -0.28125,0.875 -0.28125,1.92188 v 5.0625 z m 12.85331,-3.10938 1.6875,0.20313 q -0.40625,1.48437 -1.48438,2.3125 -1.07812,0.8125 -2.76562,0.8125 -2.125,0 -3.375,-1.29688 -1.23438,-1.3125 -1.23438,-3.67187 0,-2.45313 1.25,-3.79688 1.26563,-1.34375 3.26563,-1.34375 1.9375,0 3.15625,1.32813 1.23437,1.3125 1.23437,3.70312 0,0.15625 0,0.4375 h -7.21875 q 0.0937,1.59375 0.90625,2.45313 0.8125,0.84375 2.01563,0.84375 0.90625,0 1.54687,-0.46875 0.64063,-0.48438 1.01563,-1.51563 z m -5.39063,-2.65625 h 5.40625 q -0.10937,-1.21875 -0.625,-1.82812 -0.78125,-0.95313 -2.03125,-0.95313 -1.125,0 -1.90625,0.76563 -0.76562,0.75 -0.84375,2.01562 z m 15.76633,2.65625 1.6875,0.20313 q -0.40625,1.48437 -1.48438,2.3125 -1.07812,0.8125 -2.76562,0.8125 -2.125,0 -3.37499,-1.29688 -1.23437,-1.3125 -1.23437,-3.67187 0,-2.45313 1.25,-3.79688 1.26561,-1.34375 3.26561,-1.34375 1.9375,0 3.15625,1.32813 1.23437,1.3125 1.23437,3.70312 0,0.15625 0,0.4375 h -7.21875 q 0.0937,1.59375 0.90625,2.45313 0.8125,0.84375 2.01563,0.84375 0.90625,0 1.54687,-0.46875 0.64063,-0.48438 1.01563,-1.51563 z m -5.39063,-2.65625 h 5.40625 q -0.10937,-1.21875 -0.625,-1.82812 -0.78125,-0.95313 -2.03125,-0.95313 -1.125,0 -1.90625,0.76563 -0.76562,0.75 -0.84375,2.01562 z m 9.26636,5.76563 v -13.35938 h 5.01562 q 1.53125,0 2.45313,0.40625 0.92187,0.40625 1.4375,1.25 0.53125,0.84375 0.53125,1.76563 0,0.85937 -0.46875,1.625 -0.45313,0.75 -1.39063,1.20312 1.20313,0.35938 1.85938,1.21875 0.65625,0.85938 0.65625,2.01563 0,0.9375 -0.40625,1.75 -0.39063,0.79687 -0.98438,1.23437 -0.57812,0.4375 -1.45312,0.67188 -0.875,0.21875 -2.15625,0.21875 z m 1.78125,-7.75 h 2.875 q 1.1875,0 1.6875,-0.14063 0.67187,-0.20312 1.01562,-0.67187 0.34375,-0.46875 0.34375,-1.17188 0,-0.65625 -0.32812,-1.15625 -0.3125,-0.51562 -0.90625,-0.70312 -0.59375,-0.1875 -2.03125,-0.1875 h -2.65625 z m 0,6.17187 h 3.3125 q 0.85937,0 1.20312,-0.0625 0.60938,-0.10937 1.01563,-0.35937 0.42187,-0.26563 0.6875,-0.75 0.26562,-0.48438 0.26562,-1.125 0,-0.75 -0.39062,-1.29688 -0.375,-0.54687 -1.0625,-0.76562 -0.67188,-0.23438 -1.95313,-0.23438 h -3.07812 z m 10.1467,-2.71875 1.65625,-0.14062 q 0.125,1 0.54687,1.64062 0.4375,0.64063 1.34375,1.04688 0.92188,0.39062 2.0625,0.39062 1,0 1.78125,-0.29687 0.78125,-0.29688 1.15625,-0.8125 0.375,-0.53125 0.375,-1.15625 0,-0.625 -0.375,-1.09375 -0.35937,-0.46875 -1.1875,-0.79688 -0.54687,-0.20312 -2.39062,-0.64062 -1.82813,-0.45313 -2.5625,-0.84375 -0.96875,-0.5 -1.4375,-1.23438 -0.46875,-0.75 -0.46875,-1.67187 0,-1 0.57812,-1.875 0.57813,-0.89063 1.67188,-1.34375 1.10937,-0.45313 2.45312,-0.45313 1.48438,0 2.60938,0.48438 1.14062,0.46875 1.75,1.40625 0.60937,0.92187 0.65625,2.09375 l -1.6875,0.125 q -0.14063,-1.26563 -0.9375,-1.90625 -0.78125,-0.65625 -2.3125,-0.65625 -1.60938,0 -2.34375,0.59375 -0.73438,0.59375 -0.73438,1.42187 0,0.71875 0.53125,1.17188 0.5,0.46875 2.65625,0.96875 2.15625,0.48437 2.95313,0.84375 1.17187,0.53125 1.71875,1.35937 0.5625,0.82813 0.5625,1.90625 0,1.0625 -0.60938,2.01563 -0.60937,0.9375 -1.75,1.46875 -1.14062,0.51562 -2.57812,0.51562 -1.8125,0 -3.04688,-0.53125 -1.21875,-0.53125 -1.92187,-1.59375 -0.6875,-1.0625 -0.71875,-2.40625 z M 229.3121,142.42 v -13.35938 h 4.60938 q 1.54687,0 2.375,0.20313 1.14062,0.25 1.95312,0.95312 1.0625,0.89063 1.57813,2.28125 0.53125,1.39063 0.53125,3.17188 0,1.51562 -0.35938,2.70312 -0.35937,1.17188 -0.92187,1.9375 -0.54688,0.76563 -1.20313,1.21875 -0.65625,0.4375 -1.59375,0.67188 -0.9375,0.21875 -2.14062,0.21875 z m 1.76563,-1.57813 h 2.85937 q 1.3125,0 2.0625,-0.23437 0.75,-0.25 1.20313,-0.70313 0.625,-0.625 0.96875,-1.6875 0.35937,-1.0625 0.35937,-2.57812 0,-2.09375 -0.6875,-3.21875 -0.6875,-1.125 -1.67187,-1.5 -0.70313,-0.28125 -2.28125,-0.28125 h -2.8125 z m 12.5823,5.5 h -1.1875 q 2.73438,-4.375 2.73438,-8.75 0,-1.71875 -0.39063,-3.39062 -0.3125,-1.375 -0.875,-2.625 -0.35937,-0.82813 -1.46875,-2.73438 h 1.1875 q 1.70313,2.28125 2.53125,4.59375 0.6875,1.98438 0.6875,4.14063 0,2.46875 -0.9375,4.76562 -0.9375,2.29688 -2.28125,4 z"
     fill-rule="nonzero"
     id="path31" />
  <path
     fill="#c9daf8"
     d="m 390.77295,113.563 h 224.06299 v 43.87401 H 390.77295 Z"
     fill-rule="evenodd"
     id="path33" />
  <path
     stroke="#000000"
     stroke-width="1"
     stroke-linejoin="round"
     stroke-linecap="butt"
     d="m 390.77295,113.563 h 224.06299 v 43.87401 H 390.77295 Z"
     fill-rule="evenodd"
     id="path35" />
  <path
     fill="#000000"
     d="m 446.44727,142.42 v -13.35938 h 1.64063 V 142.42 Z m 4.19171,-11.46875 v -1.89063 h 1.64063 v 1.89063 z m 0,11.46875 v -9.67188 h 1.64063 V 142.42 Z m 5.64478,0 h -1.51563 v -13.35938 h 1.64063 v 4.76563 q 1.04687,-1.29688 2.65625,-1.29688 0.89062,0 1.6875,0.35938 0.79687,0.35937 1.3125,1.01562 0.51562,0.64063 0.79687,1.5625 0.29688,0.92188 0.29688,1.96875 0,2.48438 -1.23438,3.84375 -1.21875,1.35938 -2.95312,1.35938 -1.70313,0 -2.6875,-1.4375 z m -0.0156,-4.90625 q 0,1.73437 0.48438,2.51562 0.76562,1.26563 2.09375,1.26563 1.07812,0 1.85937,-0.9375 0.78125,-0.9375 0.78125,-2.78125 0,-1.89063 -0.75,-2.79688 -0.75,-0.90625 -1.82812,-0.90625 -1.0625,0 -1.85938,0.9375 -0.78125,0.9375 -0.78125,2.70313 z m 9.28198,4.90625 v -8.40625 h -1.45312 v -1.26563 h 1.45312 v -1.03125 q 0,-0.96875 0.17188,-1.45312 0.23437,-0.64063 0.82812,-1.03125 0.59375,-0.39063 1.67188,-0.39063 0.6875,0 1.53125,0.15625 l -0.25,1.4375 q -0.5,-0.0937 -0.95313,-0.0937 -0.75,0 -1.0625,0.32813 -0.3125,0.3125 -0.3125,1.1875 v 0.89062 h 1.89063 v 1.26563 h -1.89063 v 8.4062 z m 6.29267,0 h -1.51563 v -13.35938 h 1.64063 v 4.76563 q 1.04687,-1.29688 2.65625,-1.29688 0.89062,0 1.6875,0.35938 0.79687,0.35937 1.3125,1.01562 0.51562,0.64063 0.79687,1.5625 0.29688,0.92188 0.29688,1.96875 0,2.48438 -1.23438,3.84375 -1.21875,1.35938 -2.95312,1.35938 -1.70313,0 -2.6875,-1.4375 z m -0.0156,-4.90625 q 0,1.73437 0.48438,2.51562 0.76562,1.26563 2.09375,1.26563 1.07812,0 1.85937,-0.9375 0.78125,-0.9375 0.78125,-2.78125 0,-1.89063 -0.75,-2.79688 -0.75,-0.90625 -1.82812,-0.90625 -1.0625,0 -1.85938,0.9375 -0.78125,0.9375 -0.78125,2.70313 z m 8.23511,2.01562 1.625,-0.25 q 0.125,0.96875 0.75,1.5 0.625,0.51563 1.75,0.51563 1.125,0 1.67187,-0.45313 0.54688,-0.46875 0.54688,-1.09375 0,-0.54687 -0.48438,-0.875 -0.32812,-0.21875 -1.67187,-0.54687 -1.8125,-0.46875 -2.51563,-0.79688 -0.6875,-0.32812 -1.04687,-0.90625 -0.35938,-0.59375 -0.35938,-1.3125 0,-0.64062 0.29688,-1.1875 0.29687,-0.5625 0.8125,-0.92187 0.375,-0.28125 1.03125,-0.46875 0.67187,-0.20313 1.42187,-0.20313 1.14063,0 2,0.32813 0.85938,0.32812 1.26563,0.89062 0.42187,0.5625 0.57812,1.5 l -1.60937,0.21875 q -0.10938,-0.75 -0.64063,-1.17187 -0.51562,-0.42188 -1.46875,-0.42188 -1.14062,0 -1.625,0.375 -0.46875,0.375 -0.46875,0.875 0,0.3125 0.1875,0.57813 0.20313,0.26562 0.64063,0.4375 0.23437,0.0937 1.4375,0.42187 1.75,0.45313 2.4375,0.75 0.6875,0.29688 1.07812,0.85938 0.39063,0.5625 0.39063,1.40625 0,0.82812 -0.48438,1.54687 -0.46875,0.71875 -1.375,1.125 -0.90625,0.39063 -2.04687,0.39063 -1.875,0 -2.875,-0.78125 -0.98438,-0.78125 -1.25,-2.32813 z m 16.25,2.89063 v -1.21875 q -0.90625,1.4375 -2.70313,1.4375 -1.15625,0 -2.125,-0.64063 -0.96875,-0.64062 -1.5,-1.78125 -0.53125,-1.14062 -0.53125,-2.625 0,-1.45312 0.48438,-2.625 0.48437,-1.1875 1.4375,-1.8125 0.96875,-0.625 2.17187,-0.625 0.875,0 1.54688,0.375 0.6875,0.35938 1.10937,0.95313 v -4.79688 h 1.64063 V 142.42 Z m -5.17188,-4.82813 q 0,1.85938 0.78125,2.78125 0.78125,0.92188 1.84375,0.92188 1.07813,0 1.82813,-0.875 0.75,-0.89063 0.75,-2.6875 0,-1.98438 -0.76563,-2.90625 -0.76562,-0.9375 -1.89062,-0.9375 -1.07813,0 -1.8125,0.89062 -0.73438,0.89063 -0.73438,2.8125 z m 11.96949,4.82813 -3.6875,-9.67188 h 1.73437 l 2.07813,5.79688 q 0.32812,0.9375 0.625,1.9375 0.20312,-0.76563 0.60937,-1.82813 l 2.14063,-5.90625 h 1.6875 l -3.65625,9.67188 z m 6.64062,0 v -9.67188 h 1.46875 v 1.35938 q 0.45313,-0.71875 1.20313,-1.14063 0.76562,-0.4375 1.71875,-0.4375 1.07812,0 1.76562,0.45313 0.6875,0.4375 0.96875,1.23437 1.15625,-1.6875 2.98438,-1.6875 1.45312,0 2.21875,0.79688 0.78125,0.79687 0.78125,2.45312 V 142.42 h -1.64063 v -6.09375 q 0,-0.98438 -0.15625,-1.40625 -0.15625,-0.4375 -0.57812,-0.70313 -0.42188,-0.26562 -0.98438,-0.26562 -1.01562,0 -1.6875,0.6875 -0.67187,0.67187 -0.67187,2.15625 v 5.625 h -1.64069 v -6.28125 q 0,-1.09375 -0.40625,-1.64063 -0.40625,-0.54687 -1.3125,-0.54687 -0.6875,0 -1.28125,0.35937 -0.59375,0.35938 -0.85937,1.0625 -0.25,0.70313 -0.25,2.03125 V 142.42 Z m 21.85327,-3.54688 1.60938,0.21875 q -0.26563,1.65625 -1.35938,2.60938 -1.07812,0.9375 -2.67187,0.9375 -1.98438,0 -3.1875,-1.29688 -1.20313,-1.29687 -1.20313,-3.71875 0,-1.57812 0.51563,-2.75 0.51562,-1.17187 1.57812,-1.75 1.0625,-0.59375 2.3125,-0.59375 1.57813,0 2.57813,0.79688 1,0.79687 1.28125,2.26562 l -1.59375,0.23438 q -0.23438,-0.96875 -0.8125,-1.45313 -0.57813,-0.5 -1.39063,-0.5 -1.23437,0 -2.01562,0.89063 -0.78125,0.89062 -0.78125,2.8125 0,1.95312 0.75,2.84375 0.75,0.875 1.95312,0.875 0.96875,0 1.60938,-0.59375 0.65625,-0.59375 0.82812,-1.82813 z m 2.40625,-1.29687 q 0,-2.6875 1.48438,-3.96875 1.25,-1.07813 3.04687,-1.07813 2,0 3.26563,1.3125 1.26562,1.29688 1.26562,3.60938 0,1.85937 -0.5625,2.9375 -0.5625,1.0625 -1.64062,1.65625 -1.0625,0.59375 -2.32813,0.59375 -2.03125,0 -3.28125,-1.29688 -1.25,-1.3125 -1.25,-3.76562 z m 1.6875,0 q 0,1.85937 0.79688,2.79687 0.8125,0.92188 2.04687,0.92188 1.21875,0 2.03125,-0.92188 0.8125,-0.9375 0.8125,-2.84375 0,-1.79687 -0.8125,-2.71875 -0.8125,-0.92187 -2.03125,-0.92187 -1.23437,0 -2.04687,0.92187 -0.79688,0.90625 -0.79688,2.76563 z m 9.28192,4.84375 v -9.67188 h 1.46875 v 1.46875 q 0.5625,-1.03125 1.03125,-1.35937 0.48438,-0.32813 1.0625,-0.32813 0.82813,0 1.6875,0.53125 l -0.5625,1.51563 q -0.60937,-0.35938 -1.20312,-0.35938 -0.54688,0 -0.96875,0.32813 -0.42188,0.32812 -0.60938,0.89062 -0.28125,0.875 -0.28125,1.92188 v 5.0625 z m 12.85334,-3.10938 1.6875,0.20313 q -0.40625,1.48437 -1.48438,2.3125 -1.07812,0.8125 -2.76562,0.8125 -2.125,0 -3.375,-1.29688 -1.23438,-1.3125 -1.23438,-3.67187 0,-2.45313 1.25,-3.79688 1.26563,-1.34375 3.26563,-1.34375 1.9375,0 3.15625,1.32813 1.23437,1.3125 1.23437,3.70312 0,0.15625 0,0.4375 h -7.21875 q 0.0937,1.59375 0.90625,2.45313 0.8125,0.84375 2.01563,0.84375 0.90625,0 1.54687,-0.46875 0.64063,-0.48438 1.01563,-1.51563 z m -5.39063,-2.65625 h 5.40625 q -0.10937,-1.21875 -0.625,-1.82812 -0.78125,-0.95313 -2.03125,-0.95313 -1.125,0 -1.90625,0.76563 -0.76562,0.75 -0.84375,2.01562 z"
     fill-rule="nonzero"
     id="path37" />
  <path
     fill="#fff2cc"
     d="M 0.5,0.5 H 614.8307 V 44.374016 H 0.5 Z"
     fill-rule="evenodd"
     id="path39" />
  <path
     stroke="#000000"
     stroke-width="1"
     stroke-linejoin="round"
     stroke-linecap="butt"
     d="M 0.5,0.5 H 614.8307 V 44.374016 H 0.5 Z"
     fill-rule="evenodd"
     id="path41" />
  <path
     fill="#000000"
     d="M 285.69073,29.357006 V 15.997631 h 1.78125 v 11.78125 h 6.5625 v 1.578125 z m 10.37573,0 V 15.997631 h 1.78125 v 11.78125 h 6.5625 v 1.578125 z m 10.45383,0 V 15.997631 h 4.60937 q 1.54688,0 2.375,0.203125 1.14063,0.25 1.95313,0.953125 1.0625,0.890625 1.57812,2.28125 0.53125,1.390625 0.53125,3.171875 0,1.515625 -0.35937,2.703125 -0.35938,1.171875 -0.92188,1.9375 -0.54687,0.765625 -1.20312,1.21875 -0.65625,0.4375 -1.59375,0.671875 -0.9375,0.21875 -2.14063,0.21875 z m 1.76562,-1.578125 h 2.85938 q 1.3125,0 2.0625,-0.234375 0.75,-0.25 1.20312,-0.703125 0.625,-0.625 0.96875,-1.6875 0.35938,-1.0625 0.35938,-2.578125 0,-2.09375 -0.6875,-3.21875 -0.6875,-1.125 -1.67188,-1.5 -0.70312,-0.28125 -2.28125,-0.28125 h -2.8125 z m 11.62918,1.578125 V 15.997631 h 5.01563 q 1.53125,0 2.45312,0.40625 0.92188,0.40625 1.4375,1.25 0.53125,0.84375 0.53125,1.765625 0,0.859375 -0.46875,1.625 -0.45312,0.75 -1.39062,1.203125 1.20312,0.359375 1.85937,1.21875 0.65625,0.859375 0.65625,2.015625 0,0.9375 -0.40625,1.75 -0.39062,0.796875 -0.98437,1.234375 -0.57813,0.4375 -1.45313,0.671875 -0.875,0.21875 -2.15625,0.21875 z m 1.78125,-7.75 h 2.875 q 1.1875,0 1.6875,-0.140625 0.67188,-0.203125 1.01563,-0.671875 0.34375,-0.46875 0.34375,-1.171875 0,-0.65625 -0.32813,-1.15625 -0.3125,-0.515625 -0.90625,-0.703125 -0.59375,-0.1875 -2.03125,-0.1875 h -2.65625 z m 0,6.171875 h 3.3125 q 0.85938,0 1.20313,-0.0625 0.60937,-0.109375 1.01562,-0.359375 0.42188,-0.265625 0.6875,-0.75 0.26563,-0.484375 0.26563,-1.125 0,-0.75 -0.39063,-1.296875 -0.375,-0.546875 -1.0625,-0.765625 -0.67187,-0.234375 -1.95312,-0.234375 h -3.07813 z"
     fill-rule="nonzero"
     id="path43" />
  <path
     fill="#000000"
     fill-opacity="0"
     d="M 307.66534,44.374016 V 78.968292 H 173.96456 v 34.602578"
     fill-rule="evenodd"
     id="path45" />
  <path
     stroke="#000000"
     stroke-width="1"
     stroke-linejoin="round"
     stroke-linecap="butt"
     d="M 307.66534,44.374016 V 78.968292 H 173.96456 v 28.602578"
     fill-rule="evenodd"
     id="path47" />
  <path
     fill="#000000"
     stroke="#000000"
     stroke-width="1"
     stroke-linecap="butt"
     d="m 172.31284,107.57087 1.65173,4.53809 1.65174,-4.53809 z"
     fill-rule="evenodd"
     id="path49" />
  <path
     fill="#000000"
     fill-opacity="0"
     d="m 307.66534,44.374016 v 34.594276 h 195.1496 v 34.602578"
     fill-rule="evenodd"
     id="path51" />
  <path
     stroke="#000000"
     stroke-width="1"
     stroke-linejoin="round"
     stroke-linecap="butt"
     d="m 307.66534,44.374016 v 34.594276 h 195.1496 v 28.602578"
     fill-rule="evenodd"
     id="path53" />
  <path
     fill="#000000"
     stroke="#000000"
     stroke-width="1"
     stroke-linecap="butt"
     d="m 501.16319,107.57087 1.65173,4.53809 1.65174,-4.53809 z"
     fill-rule="evenodd"
     id="path55" />
  <path
     fill="#000000"
     fill-opacity="0"
     d="m 173.96457,157.43701 v 34.59427 h -61.41733 v 34.60258"
     fill-rule="evenodd"
     id="path57" />
  <path
     stroke="#000000"
     stroke-width="1"
     stroke-linejoin="round"
     stroke-linecap="butt"
     d="m 173.96457,157.43701 v 34.59428 h -61.41733 v 28.60257"
     fill-rule="evenodd"
     id="path59" />
  <path
     fill="#000000"
     stroke="#000000"
     stroke-width="1"
     stroke-linecap="butt"
     d="m 110.89551,220.63387 1.65173,4.53809 1.65174,-4.53809 z"
     fill-rule="evenodd"
     id="path61" />
  <path
     fill="#000000"
     fill-opacity="0"
     d="m 173.96457,157.43701 v 34.59427 h 197.07086 v 34.60258"
     fill-rule="evenodd"
     id="path63" />
  <path
     stroke="#000000"
     stroke-width="1"
     stroke-linejoin="round"
     stroke-linecap="butt"
     d="m 173.96457,157.43701 v 34.59428 h 197.07086 v 28.60257"
     fill-rule="evenodd"
     id="path65" />
  <path
     fill="#000000"
     stroke="#000000"
     stroke-width="1"
     stroke-linecap="butt"
     d="m 369.38369,220.63387 1.65173,4.53809 1.65174,-4.53809 z"
     fill-rule="evenodd"
     id="path67" />
  <path
     fill="#000000"
     fill-opacity="0"
     d="m 502.80444,157.43701 v 34.59427 h 30.5827 v 34.60258"
     fill-rule="evenodd"
     id="path69" />
  <path
     stroke="#000000"
     stroke-width="1"
     stroke-linejoin="round"
     stroke-linecap="butt"
     d="m 502.80444,157.43701 v 34.59428 h 30.5827 v 28.60257"
     fill-rule="evenodd"
     id="path71" />
  <path
     fill="#000000"
     stroke="#000000"
     stroke-width="1"
     stroke-linecap="butt"
     d="m 531.73539,220.63387 1.65173,4.53809 1.65174,-4.53809 z"
     fill-rule="evenodd"
     id="path73" />
</svg>
