<?xml version="1.0" encoding="UTF-8" standalone="no"?>
<svg
   xmlns:dc="http://purl.org/dc/elements/1.1/"
   xmlns:cc="http://creativecommons.org/ns#"
   xmlns:rdf="http://www.w3.org/1999/02/22-rdf-syntax-ns#"
   xmlns:svg="http://www.w3.org/2000/svg"
   xmlns="http://www.w3.org/2000/svg"
   xmlns:sodipodi="http://sodipodi.sourceforge.net/DTD/sodipodi-0.dtd"
   xmlns:inkscape="http://www.inkscape.org/namespaces/inkscape"
   version="1.1"
   viewBox="0 0 698.06299 333.8819"
   fill="none"
   stroke="none"
   stroke-linecap="square"
   stroke-miterlimit="10"
   id="svg57"
   sodipodi:docname="lldb_plugins.svg"
   width="698.06299"
   height="333.8819"
   inkscape:version="1.0.1 (3bc2e813f5, 2020-09-07)">
  <metadata
     id="metadata63">
    <rdf:RDF>
      <cc:Work
         rdf:about="">
        <dc:format>image/svg+xml</dc:format>
        <dc:type
           rdf:resource="http://purl.org/dc/dcmitype/StillImage" />
      </cc:Work>
    </rdf:RDF>
  </metadata>
  <defs
     id="defs61" />
  <sodipodi:namedview
     pagecolor="#ffffff"
     bordercolor="#666666"
     borderopacity="1"
     objecttolerance="10"
     gridtolerance="10"
     guidetolerance="10"
     inkscape:pageopacity="0"
     inkscape:pageshadow="2"
     inkscape:window-width="1750"
     inkscape:window-height="1006"
     id="namedview59"
     showgrid="false"
     inkscape:zoom="0.75130208"
     inkscape:cx="211.68698"
     inkscape:cy="333.36877"
     inkscape:window-x="3286"
     inkscape:window-y="19"
     inkscape:window-maximized="0"
     inkscape:current-layer="svg57" />
  <clipPath
     id="p.0">
    <path
       d="M 0,0 H 1024 V 768 H 0 Z"
       clip-rule="nonzero"
       id="path2" />
  </clipPath>
  <path
     fill="#000000"
     fill-opacity="0"
     d="M -41.429134,-50.631233 H 982.57087 V 717.36877 H -41.429134 Z"
     fill-rule="evenodd"
     id="path5" />
  <path
     fill="#cfe2f3"
     d="M 0.5,0.5 H 330.7992 V 333.3819 H 0.5 Z"
     fill-rule="evenodd"
     id="path7" />
  <path
     stroke="#000000"
     stroke-width="1"
     stroke-linejoin="round"
     stroke-linecap="butt"
     d="M 0.5,0.5 H 330.7992 V 333.3819 H 0.5 Z"
     fill-rule="evenodd"
     id="path9" />
  <path
     fill="#000000"
     d="M 10.859376,27.419997 V 14.060622 h 1.78125 v 11.78125 h 6.5625 v 1.578125 z m 10.375717,0 V 14.060622 h 1.781246 v 11.78125 h 6.5625 v 1.578125 z m 10.453838,0 V 14.060622 h 4.609375 q 1.546875,0 2.375,0.203125 1.140625,0.25 1.953125,0.953125 1.0625,0.890625 1.578125,2.28125 0.53125,1.390625 0.53125,3.171875 0,1.515625 -0.359375,2.703125 -0.359375,1.171875 -0.921875,1.9375 -0.546875,0.765625 -1.203125,1.21875 -0.65625,0.4375 -1.59375,0.671875 -0.9375,0.21875 -2.140625,0.21875 z m 1.765625,-1.578125 h 2.859375 q 1.3125,0 2.0625,-0.234375 0.75,-0.25 1.203125,-0.703125 0.625,-0.625 0.96875,-1.6875 0.359375,-1.0625 0.359375,-2.578125 0,-2.09375 -0.6875,-3.21875 -0.6875,-1.125 -1.671875,-1.5 -0.703125,-0.28125 -2.28125,-0.28125 h -2.8125 z m 11.629196,1.578125 V 14.060622 h 5.015625 q 1.53125,0 2.453125,0.40625 0.921875,0.40625 1.4375,1.25 0.53125,0.84375 0.53125,1.765625 0,0.859375 -0.46875,1.625 -0.453125,0.75 -1.390625,1.203125 1.203125,0.359375 1.859375,1.21875 0.65625,0.859375 0.65625,2.015625 0,0.9375 -0.40625,1.75 -0.390625,0.796875 -0.984375,1.234375 -0.578125,0.4375 -1.453125,0.671875 -0.875,0.21875 -2.15625,0.21875 z m 1.78125,-7.75 h 2.875 q 1.1875,0 1.6875,-0.140625 0.671875,-0.203125 1.015625,-0.671875 0.34375,-0.46875 0.34375,-1.171875 0,-0.65625 -0.328125,-1.15625 -0.3125,-0.515625 -0.90625,-0.703125 -0.59375,-0.1875 -2.03125,-0.1875 h -2.65625 z m 0,6.171875 h 3.3125 q 0.859375,0 1.203125,-0.0625 0.609375,-0.109375 1.015625,-0.359375 0.421875,-0.265625 0.6875,-0.75 0.265625,-0.484375 0.265625,-1.125 0,-0.75 -0.390625,-1.296875 -0.375,-0.546875 -1.0625,-0.765625 -0.671875,-0.234375 -1.953125,-0.234375 h -3.078125 z m 22.033124,-1.96875 1.60938,0.21875 q -0.26563,1.65625 -1.35938,2.609375 -1.07812,0.9375 -2.67187,0.9375 -1.98438,0 -3.1875,-1.296875 -1.20313,-1.296875 -1.20313,-3.71875 0,-1.578125 0.51563,-2.75 0.51562,-1.171875 1.57812,-1.75 1.0625,-0.59375 2.3125,-0.59375 1.57813,0 2.57813,0.796875 1,0.796875 1.28125,2.265625 l -1.59375,0.234375 q -0.23438,-0.96875 -0.8125,-1.453125 -0.57813,-0.5 -1.39063,-0.5 -1.23437,0 -2.01562,0.890625 -0.78125,0.890625 -0.78125,2.8125 0,1.953125 0.75,2.84375 0.75,0.875 1.95312,0.875 0.96875,0 1.60938,-0.59375 0.65625,-0.59375 0.82812,-1.828125 z m 2.96875,3.546875 V 14.060622 h 1.64063 v 13.359375 z m 4.1917,-11.46875 v -1.890625 h 1.64062 v 1.890625 z m 0,11.46875 v -9.671875 h 1.64062 v 9.671875 z m 10.76983,-3.109375 1.6875,0.203125 q -0.40625,1.484375 -1.48438,2.3125 -1.07813,0.8125 -2.76563,0.8125 -2.125,0 -3.375,-1.296875 -1.23437,-1.3125 -1.23437,-3.671875 0,-2.453125 1.25,-3.796875 1.26562,-1.34375 3.26562,-1.34375 1.9375,0 3.15626,1.328125 1.23437,1.3125 1.23437,3.703125 0,0.15625 0,0.4375 h -7.21875 q 0.0937,1.59375 0.90625,2.453125 0.8125,0.84375 2.01562,0.84375 0.90625,0 1.54688,-0.46875 0.64062,-0.484375 1.01563,-1.515625 z m -5.39063,-2.65625 h 5.40625 q -0.10937,-1.21875 -0.625,-1.828125 -0.78125,-0.953125 -2.03125,-0.953125 -1.125,0 -1.90625,0.765625 -0.76563,0.75 -0.84375,2.015625 z m 9.14135,5.765625 v -9.671875 h 1.46875 v 1.375 q 1.0625,-1.59375 3.07812,-1.59375 0.875,0 1.60938,0.3125 0.73437,0.3125 1.09375,0.828125 0.375,0.5 0.51562,1.203125 0.0937,0.453125 0.0937,1.59375 v 5.953125 h -1.64062 v -5.890625 q 0,-1 -0.20313,-1.484375 -0.1875,-0.5 -0.67187,-0.796875 -0.48438,-0.296875 -1.14063,-0.296875 -1.04687,0 -1.8125,0.671875 -0.75,0.65625 -0.75,2.515625 v 5.28125 z m 13.953844,-1.46875 0.23437,1.453125 q -0.6875,0.140625 -1.23437,0.140625 -0.89063,0 -1.39063,-0.28125 -0.48437,-0.28125 -0.6875,-0.734375 -0.20312,-0.46875 -0.20312,-1.9375 v -5.578125 h -1.20313 v -1.265625 h 1.20313 v -2.390625 l 1.625,-0.984375 v 3.375 h 1.65625 v 1.265625 h -1.65625 v 5.671875 q 0,0.6875 0.0781,0.890625 0.0937,0.203125 0.28125,0.328125 0.20313,0.109375 0.57813,0.109375 0.26562,0 0.71875,-0.0625 z"
     fill-rule="nonzero"
     id="path11" />
  <path
     fill="#d9ead3"
     d="M 20.951443,59.812337 H 310.36878 v 38.86613 H 20.951443 Z"
     fill-rule="evenodd"
     id="path13" />
  <path
     stroke="#000000"
     stroke-width="1"
     stroke-linejoin="round"
     stroke-linecap="butt"
     d="M 20.951443,59.812337 H 310.36878 v 38.86613 H 20.951443 Z"
     fill-rule="evenodd"
     id="path15" />
  <path
     fill="#000000"
     d="m 68.500276,86.165417 v -13.35938 h 1.78125 v 11.78125 h 6.5625 v 1.57813 z m 16.87571,-3.10938 1.68751,0.20313 q -0.40625,1.48437 -1.48438,2.3125 -1.07813,0.8125 -2.76563,0.8125 -2.125,0 -3.375,-1.29688 -1.23437,-1.3125 -1.23437,-3.67187 0,-2.45313 1.25,-3.79688 1.26562,-1.34375 3.26562,-1.34375 1.9375,0 3.15625,1.32813 1.23438,1.3125 1.23438,3.70312 0,0.15625 0,0.4375 h -7.21875 q 0.0937,1.59375 0.90625,2.45313 0.8125,0.84375 2.01562,0.84375 0.90625,0 1.54688,-0.46875 0.64062,-0.48438 1.01562,-1.51563 z m -5.39062,-2.65625 h 5.40625 q -0.10938,-1.21875 -0.625,-1.82812 -0.78125,-0.95313 -2.03125,-0.95313 -1.125,0 -1.90625,0.76563 -0.76563,0.75 -0.84375,2.01562 z m 8.82885,6.5625 1.59375,0.23438 q 0.10937,0.75 0.5625,1.07812 0.60937,0.45313 1.67187,0.45313 1.14063,0 1.75,-0.45313 0.625,-0.45312 0.84375,-1.26562 0.125,-0.5 0.10938,-2.10938 -1.0625,1.26563 -2.67188,1.26563 -2,0 -3.09375,-1.4375 -1.09375,-1.4375 -1.09375,-3.45313 0,-1.39062 0.5,-2.5625 0.51563,-1.17187 1.45313,-1.79688 0.95312,-0.64062 2.25,-0.64062 1.70312,0 2.8125,1.375 v -1.15625 h 1.51562 v 8.35938 q 0,2.26563 -0.46875,3.20313 -0.45312,0.9375 -1.45312,1.48437 -0.98438,0.54688 -2.45313,0.54688 -1.71875,0 -2.79687,-0.78125 -1.0625,-0.76563 -1.03125,-2.34376 z m 1.35937,-5.8125 q 0,1.90625 0.75,2.78125 0.76563,0.875 1.90625,0.875 1.125,0 1.89063,-0.85937 0.76562,-0.875 0.76562,-2.73438 0,-1.78125 -0.79687,-2.67187 -0.78125,-0.90625 -1.89063,-0.90625 -1.09375,0 -1.85937,0.89062 -0.76563,0.875 -0.76563,2.625 z m 15.641344,3.82813 q -0.92187,0.76562 -1.76562,1.09375 -0.82813,0.3125 -1.79688,0.3125 -1.59375,0 -2.453124,-0.78125 -0.85938,-0.78125 -0.85938,-1.98438 0,-0.71875 0.32813,-1.29687 0.32812,-0.59375 0.843754,-0.9375 0.53125,-0.35938 1.1875,-0.54688 0.46875,-0.125 1.45312,-0.25 1.98438,-0.23437 2.92188,-0.5625 0.0156,-0.34375 0.0156,-0.42187 0,-1 -0.46875,-1.42188 -0.625,-0.54687 -1.875,-0.54687 -1.15625,0 -1.70312,0.40625 -0.54688,0.40625 -0.8125,1.42187 l -1.609384,-0.21875 q 0.21875,-1.01562 0.71875,-1.64062 0.500004,-0.64063 1.453134,-0.98438 0.95312,-0.34375 2.1875,-0.34375 1.25,0 2.01562,0.29687 0.78125,0.28125 1.14063,0.73438 0.375,0.43751 0.51562,1.10938 0.0781,0.42187 0.0781,1.51562 v 2.1875 q 0,2.28125 0.10937,2.89063 0.10938,0.59375 0.40625,1.15625 h -1.70312 q -0.26563,-0.51563 -0.32813,-1.1875 z m -0.14062,-3.67188 q -0.89063,0.375 -2.67188,0.625 -1.01562,0.14063 -1.4375,0.32813 -0.42187,0.1875 -0.65625,0.53125 -0.21875,0.34375 -0.21875,0.78125 0,0.65625 0.5,1.09375 0.5,0.4375 1.45313,0.4375 0.9375,0 1.67187,-0.40625 0.75,-0.42188 1.09375,-1.14063 0.26563,-0.5625 0.26563,-1.64062 z m 10.51634,1.3125 1.60938,0.21875 q -0.26563,1.65625 -1.35938,2.60938 -1.07812,0.9375 -2.67187,0.9375 -1.98438,0 -3.1875,-1.29688 -1.20313,-1.29687 -1.20313,-3.71875 0,-1.57812 0.51563,-2.75 0.51562,-1.17187 1.57812,-1.75 1.0625,-0.59375 2.3125,-0.59375 1.57813,0 2.57813,0.79687 1,0.79688 1.28125,2.26563 l -1.59375,0.23438 q -0.23438,-0.96875 -0.8125,-1.45313 -0.57813,-0.5 -1.39063,-0.5 -1.23437,0 -2.01562,0.89063 -0.78125,0.89062 -0.78125,2.8125 0,1.95312 0.75,2.84375 0.75,0.875 1.95312,0.875 0.96875,0 1.60938,-0.59375 0.65625,-0.59375 0.82812,-1.82813 z m 2.9375,7.26563 -0.1875,-1.53125 q 0.54688,0.14062 0.9375,0.14062 0.54688,0 0.875,-0.1875 0.32813,-0.17187 0.54688,-0.5 0.15625,-0.25 0.5,-1.21875 0.0469,-0.14062 0.14062,-0.40625 l -3.67187,-9.6875 h 1.76562 l 2.01563,5.59375 q 0.39062,1.07813 0.70312,2.25 0.28125,-1.125 0.67188,-2.20312 l 2.07812,-5.64063 h 1.64063 l -3.6875,9.82813 q -0.59375,1.60937 -0.92188,2.20312 -0.4375,0.8125 -1,1.1875 -0.5625,0.375 -1.34375,0.375 -0.48437,0 -1.0625,-0.20312 z m 14.88643,-3.71875 v -13.35938 h 9.01562 v 1.57812 h -7.25 v 4.14063 h 6.26563 v 1.57813 h -6.26563 v 6.0625 z m 11.08348,0 v -9.67188 h 1.46875 v 1.46875 q 0.5625,-1.03125 1.03125,-1.35938 0.48438,-0.32812 1.0625,-0.32812 0.82813,0 1.6875,0.53125 l -0.5625,1.51563 q -0.60937,-0.35938 -1.20312,-0.35938 -0.54688,0 -0.96875,0.32813 -0.42188,0.32812 -0.60938,0.89062 -0.28125,0.875 -0.28125,1.92188 v 5.0625 z m 12.8533,-3.10938 1.6875,0.20313 q -0.40625,1.48437 -1.48437,2.3125 -1.07813,0.8125 -2.76563,0.8125 -2.125,0 -3.375,-1.29688 -1.23437,-1.3125 -1.23437,-3.67187 0,-2.45313 1.25,-3.79688 1.26562,-1.34375 3.26562,-1.34375 1.9375,0 3.15625,1.32813 1.23438,1.3125 1.23438,3.70312 0,0.15625 0,0.4375 h -7.21875 q 0.0937,1.59375 0.90625,2.45313 0.8125,0.84375 2.01562,0.84375 0.90625,0 1.54688,-0.46875 0.64062,-0.48438 1.01562,-1.51563 z m -5.39062,-2.65625 h 5.40625 q -0.10938,-1.21875 -0.625,-1.82812 -0.78125,-0.95313 -2.03125,-0.95313 -1.125,0 -1.90625,0.76563 -0.76563,0.75 -0.84375,2.01562 z m 15.76634,2.65625 1.6875,0.20313 q -0.40625,1.48437 -1.48438,2.3125 -1.07812,0.8125 -2.76562,0.8125 -2.125,0 -3.375,-1.29688 -1.23438,-1.3125 -1.23438,-3.67187 0,-2.45313 1.25,-3.79688 1.26563,-1.34375 3.26563,-1.34375 1.9375,0 3.15625,1.32813 1.23437,1.3125 1.23437,3.70312 0,0.15625 0,0.4375 h -7.21875 q 0.0937,1.59375 0.90625,2.45313 0.8125,0.84375 2.01563,0.84375 0.90625,0 1.54687,-0.46875 0.64063,-0.48438 1.01563,-1.51563 z m -5.39063,-2.65625 h 5.40625 q -0.10937,-1.21875 -0.625,-1.82812 -0.78125,-0.95313 -2.03125,-0.95313 -1.125,0 -1.90625,0.76563 -0.76562,0.75 -0.84375,2.01562 z m 9.26635,5.76563 v -13.35938 h 5.01562 q 1.53125,0 2.45313,0.40625 0.92187,0.40625 1.4375,1.25 0.53125,0.84375 0.53125,1.76562 0,0.85938 -0.46875,1.62501 -0.45313,0.75 -1.39063,1.20312 1.20313,0.35938 1.85938,1.21875 0.65625,0.85938 0.65625,2.01563 0,0.9375 -0.40625,1.75 -0.39063,0.79687 -0.98438,1.23437 -0.57812,0.4375 -1.45312,0.67188 -0.875,0.21875 -2.15625,0.21875 z m 1.78125,-7.75 h 2.875 q 1.1875,0 1.6875,-0.14063 0.67187,-0.20312 1.01562,-0.67187 0.34375,-0.46876 0.34375,-1.17188 0,-0.65625 -0.32812,-1.15625 -0.3125,-0.51563 -0.90625,-0.70313 -0.59375,-0.1875 -2.03125,-0.1875 h -2.65625 z m 0,6.17187 h 3.3125 q 0.85937,0 1.20312,-0.0625 0.60938,-0.10937 1.01563,-0.35937 0.42187,-0.26563 0.6875,-0.75 0.26562,-0.48438 0.26562,-1.125 0,-0.75 -0.39062,-1.29688 -0.375,-0.54687 -1.0625,-0.76562 -0.67188,-0.23438 -1.95313,-0.23438 h -3.07812 z m 10.1467,-2.71875 1.65625,-0.14062 q 0.125,1 0.54687,1.64062 0.4375,0.64063 1.34375,1.04688 0.92188,0.39062 2.0625,0.39062 1,0 1.78125,-0.29687 0.78125,-0.29688 1.15625,-0.8125 0.375,-0.53125 0.375,-1.15625 0,-0.625 -0.375,-1.09375 -0.35937,-0.46875 -1.1875,-0.79688 -0.54687,-0.20312 -2.39062,-0.64062 -1.82813,-0.45313 -2.5625,-0.84375 -0.96875,-0.5 -1.4375,-1.23438 -0.46875,-0.75 -0.46875,-1.67188 0,-1 0.57812,-1.875 0.57813,-0.89062 1.67188,-1.34375 1.10937,-0.45312 2.45312,-0.45312 1.48438,0 2.60938,0.48437 1.14062,0.46875 1.75,1.40625 0.60937,0.92188 0.65625,2.09375 l -1.6875,0.125 q -0.14063,-1.26562 -0.9375,-1.90625 -0.78125,-0.65625 -2.3125,-0.65625 -1.60938,0 -2.34375,0.59375 -0.73438,0.59375 -0.73438,1.42188 0,0.71875 0.53125,1.17187 0.5,0.46876 2.65625,0.96876 2.15625,0.48437 2.95313,0.84375 1.17187,0.53125 1.71875,1.35937 0.5625,0.82813 0.5625,1.90625 0,1.0625 -0.60938,2.01563 -0.60937,0.9375 -1.75,1.46875 -1.14062,0.51562 -2.57812,0.51562 -1.8125,0 -3.04688,-0.53125 -1.21875,-0.53125 -1.92187,-1.59375 -0.6875,-1.0625 -0.71875,-2.40625 z m 13.03732,4.29688 v -13.35938 h 4.60937 q 1.54688,0 2.375,0.20312 1.14063,0.25 1.95313,0.95313 1.0625,0.89062 1.57812,2.28125 0.53125,1.39063 0.53125,3.17188 0,1.51562 -0.35937,2.70312 -0.35938,1.17188 -0.92188,1.9375 -0.54687,0.76563 -1.20312,1.21875 -0.65625,0.4375 -1.59375,0.67188 -0.9375,0.21875 -2.14063,0.21875 z m 1.76562,-1.57813 h 2.85938 q 1.3125,0 2.0625,-0.23437 0.75,-0.25 1.20312,-0.70313 0.625,-0.625 0.96875,-1.6875 0.35938,-1.0625 0.35938,-2.57812 0,-2.09376 -0.6875,-3.21876 -0.6875,-1.125 -1.67188,-1.5 -0.70312,-0.28125 -2.28125,-0.28125 h -2.8125 z m 16.6875,5.28125 v -13.375 h 1.48438 v 1.25 q 0.53125,-0.73438 1.1875,-1.09375 0.67187,-0.375 1.625,-0.375 1.23437,0 2.17187,0.64062 0.95313,0.62501 1.4375,1.79688 0.48438,1.15625 0.48438,2.54688 0,1.48437 -0.53125,2.67187 -0.53125,1.1875 -1.54688,1.82813 -1.01562,0.625 -2.14062,0.625 -0.8125,0 -1.46875,-0.34375 -0.65625,-0.34375 -1.0625,-0.875 v 4.70312 z m 1.48438,-8.48437 q 0,1.85937 0.75,2.76562 0.76562,0.89063 1.82812,0.89063 1.09375,0 1.875,-0.92188 0.78125,-0.9375 0.78125,-2.875 0,-1.84375 -0.76562,-2.76562 -0.75,-0.92188 -1.8125,-0.92188 -1.04688,0 -1.85938,0.98438 -0.79687,0.96875 -0.79687,2.84375 z m 8.84445,4.78125 v -13.35938 h 1.64063 v 13.35938 z m 10.51984,0 v -1.42188 q -1.125,1.64063 -3.0625,1.64063 -0.85938,0 -1.60938,-0.32813 -0.73437,-0.32812 -1.09375,-0.82812 -0.35937,-0.5 -0.5,-1.21875 -0.10937,-0.46875 -0.10937,-1.53125 v -5.98438 h 1.64062 v 5.35938 q 0,1.28125 0.10938,1.73437 0.15625,0.64063 0.65625,1.01563 0.5,0.375 1.23437,0.375 0.73438,0 1.375,-0.375 0.65625,-0.39063 0.92188,-1.03125 0.26562,-0.65625 0.26562,-1.89063 v -5.1875 h 1.64063 v 9.67188 z m 3.73507,0.79687 1.59375,0.23438 q 0.10938,0.75 0.5625,1.07812 0.60938,0.45313 1.67188,0.45313 1.14062,0 1.75,-0.45313 0.625,-0.45312 0.84375,-1.26562 0.125,-0.5 0.10937,-2.10938 -1.0625,1.26563 -2.67187,1.26563 -2,0 -3.09375,-1.4375 -1.09375,-1.4375 -1.09375,-3.45313 0,-1.39062 0.5,-2.5625 0.51562,-1.17187 1.45312,-1.79688 0.95313,-0.64062 2.25,-0.64062 1.70313,0 2.8125,1.375 v -1.15625 h 1.51563 v 8.35938 q 0,2.26563 -0.46875,3.20313 -0.45313,0.9375 -1.45313,1.48437 -0.98437,0.54688 -2.45312,0.54688 -1.71875,0 -2.79688,-0.78125 -1.0625,-0.76563 -1.03125,-2.34376 z m 1.35938,-5.8125 q 0,1.90625 0.75,2.78125 0.76562,0.875 1.90625,0.875 1.125,0 1.89062,-0.85937 0.76563,-0.875 0.76563,-2.73438 0,-1.78125 -0.79688,-2.67187 -0.78125,-0.90625 -1.89062,-0.90625 -1.09375,0 -1.85938,0.89062 -0.76562,0.875 -0.76562,2.625 z m 9.32886,-6.45313 v -1.89062 h 1.64062 v 1.89062 z m 0,11.46876 v -9.67188 h 1.64062 v 9.67188 z m 4.1448,0 v -9.67188 h 1.46875 v 1.375 q 1.0625,-1.59375 3.07813,-1.59375 0.875,0 1.60937,0.3125 0.73438,0.3125 1.09375,0.82813 0.375,0.5 0.51563,1.20312 0.0937,0.45313 0.0937,1.59375 v 5.95313 h -1.64063 v -5.89063 q 0,-1 -0.20312,-1.48437 -0.1875,-0.5 -0.67188,-0.79688 -0.48437,-0.29687 -1.14062,-0.29687 -1.04688,0 -1.8125,0.67187 -0.75,0.65625 -0.75,2.51563 v 5.28125 z"
     fill-rule="nonzero"
     id="path17" />
  <path
     fill="#fff2cc"
     d="M 20.940946,113.64961 H 310.35828 v 38.86615 H 20.940946 Z"
     fill-rule="evenodd"
     id="path19" />
  <path
     stroke="#000000"
     stroke-width="1"
     stroke-linejoin="round"
     stroke-linecap="butt"
     d="M 20.940946,113.64961 H 310.35828 v 38.86615 H 20.940946 Z"
     fill-rule="evenodd"
     id="path21" />
  <path
     fill="#000000"
     d="m 91.381686,140.79956 1.59375,0.23437 q 0.10937,0.75 0.5625,1.07813 0.60937,0.45312 1.67187,0.45312 1.14063,0 1.75,-0.45312 0.625,-0.45313 0.84375,-1.26563 0.125,-0.5 0.10938,-2.10937 -1.0625,1.26562 -2.67188,1.26562 -2,0 -3.09375,-1.4375 -1.09375,-1.4375 -1.09375,-3.45312 0,-1.39063 0.5,-2.5625 0.51563,-1.17188 1.45313,-1.79688 0.95312,-0.64062 2.25,-0.64062 1.70312,0 2.8125,1.375 v -1.15625 h 1.51562 v 8.35937 q 0,2.26563 -0.46875,3.20313 -0.45312,0.9375 -1.45312,1.48437 -0.98438,0.54688 -2.45313,0.54688 -1.71875,0 -2.79687,-0.78125 -1.0625,-0.76563 -1.03125,-2.34375 z m 1.35937,-5.8125 q 0,1.90625 0.75,2.78125 0.76563,0.875 1.90625,0.875 1.125,0 1.89063,-0.85938 0.76562,-0.875 0.76562,-2.73437 0,-1.78125 -0.79687,-2.67188 -0.78125,-0.90625 -1.89063,-0.90625 -1.09375,0 -1.85937,0.89063 -0.76563,0.875 -0.76563,2.625 z m 15.594474,5.01562 v -1.21875 q -0.90625,1.4375 -2.70312,1.4375 -1.15625,0 -2.125,-0.64062 -0.96875,-0.64063 -1.5,-1.78125 -0.53125,-1.14063 -0.53125,-2.625 0,-1.45313 0.48437,-2.625 0.48438,-1.1875 1.4375,-1.8125 0.96875,-0.625 2.17188,-0.625 0.875,0 1.54687,0.375 0.6875,0.35937 1.10938,0.95312 v -4.79687 h 1.64062 v 13.35937 z m -5.17187,-4.82812 q 0,1.85937 0.78125,2.78125 0.78125,0.92187 1.84375,0.92187 1.07812,0 1.82812,-0.875 0.75,-0.89062 0.75,-2.6875 0,-1.98437 -0.76562,-2.90625 -0.76563,-0.9375 -1.89063,-0.9375 -1.07812,0 -1.8125,0.89063 -0.73437,0.89062 -0.73437,2.8125 z m 10.78196,4.82812 H 112.43 v -13.35937 h 1.64062 v 4.76562 q 1.04688,-1.29687 2.65625,-1.29687 0.89063,0 1.6875,0.35937 0.79688,0.35938 1.3125,1.01563 0.51563,0.64062 0.79688,1.5625 0.29687,0.92187 0.29687,1.96875 0,2.48437 -1.23437,3.84375 -1.21875,1.35937 -2.95313,1.35937 -1.70312,0 -2.6875,-1.4375 z m -0.0156,-4.90625 q 0,1.73438 0.48437,2.51563 0.76563,1.26562 2.09375,1.26562 1.07813,0 1.85938,-0.9375 0.78125,-0.9375 0.78125,-2.78125 0,-1.89062 -0.75,-2.79687 -0.75,-0.90625 -1.82813,-0.90625 -1.0625,0 -1.85937,0.9375 -0.78125,0.9375 -0.78125,2.70312 z m 8.25072,0.89063 v -1.64063 h 5.03125 v 1.64063 z m 6.83767,4.01562 v -9.67187 h 1.46875 v 1.46875 q 0.5625,-1.03125 1.03125,-1.35938 0.48438,-0.32812 1.0625,-0.32812 0.82813,0 1.6875,0.53125 l -0.5625,1.51562 q -0.60937,-0.35937 -1.20312,-0.35937 -0.54688,0 -0.96875,0.32812 -0.42188,0.32813 -0.60938,0.89063 -0.28125,0.875 -0.28125,1.92187 v 5.0625 z m 12.85331,-3.10937 1.6875,0.20312 q -0.40625,1.48438 -1.48438,2.3125 -1.07812,0.8125 -2.76562,0.8125 -2.125,0 -3.375,-1.29687 -1.23438,-1.3125 -1.23438,-3.67188 0,-2.45312 1.25,-3.79687 1.26563,-1.34375 3.26563,-1.34375 1.9375,0 3.15625,1.32812 1.23437,1.3125 1.23437,3.70313 0,0.15625 0,0.4375 h -7.21875 q 0.0937,1.59375 0.90625,2.45312 0.8125,0.84375 2.01563,0.84375 0.90625,0 1.54687,-0.46875 0.64063,-0.48437 1.01563,-1.51562 z m -5.39063,-2.65625 h 5.40625 q -0.10937,-1.21875 -0.625,-1.82813 -0.78125,-0.95312 -2.03125,-0.95312 -1.125,0 -1.90625,0.76562 -0.76562,0.75 -0.84375,2.01563 z m 9.14134,5.76562 v -9.67187 h 1.46875 v 1.35937 q 0.45313,-0.71875 1.20313,-1.14062 0.76562,-0.4375 1.71875,-0.4375 1.07812,0 1.76562,0.45312 0.6875,0.4375 0.96875,1.23438 1.15625,-1.6875 2.98438,-1.6875 1.45312,0 2.21875,0.79687 0.78125,0.79688 0.78125,2.45313 v 6.64062 h -1.64063 v -6.09375 q 0,-0.98437 -0.15625,-1.40625 -0.15625,-0.4375 -0.57812,-0.70312 -0.42188,-0.26563 -0.98438,-0.26563 -1.01562,0 -1.6875,0.6875 -0.67187,0.67188 -0.67187,2.15625 v 5.625 h -1.64063 v -6.28125 q 0,-1.09375 -0.40625,-1.64062 -0.40625,-0.54688 -1.3125,-0.54688 -0.6875,0 -1.28125,0.35938 -0.59375,0.35937 -0.85937,1.0625 -0.25,0.70312 -0.25,2.03125 v 5.01562 z m 14.93143,-4.84375 q 0,-2.6875 1.48437,-3.96875 1.25,-1.07812 3.04688,-1.07812 2,0 3.26562,1.3125 1.26563,1.29687 1.26563,3.60937 0,1.85938 -0.5625,2.9375 -0.5625,1.0625 -1.64063,1.65625 -1.0625,0.59375 -2.32812,0.59375 -2.03125,0 -3.28125,-1.29687 -1.25,-1.3125 -1.25,-3.76563 z m 1.6875,0 q 0,1.85938 0.79687,2.79688 0.8125,0.92187 2.04688,0.92187 1.21875,0 2.03125,-0.92187 0.8125,-0.9375 0.8125,-2.84375 0,-1.79688 -0.8125,-2.71875 -0.8125,-0.92188 -2.03125,-0.92188 -1.23438,0 -2.04688,0.92188 -0.79687,0.90625 -0.79687,2.76562 z m 12.87572,3.375 0.23437,1.45313 q -0.6875,0.14062 -1.23437,0.14062 -0.89063,0 -1.39063,-0.28125 -0.48437,-0.28125 -0.6875,-0.73437 -0.20312,-0.46875 -0.20312,-1.9375 v -5.57813 h -1.20313 v -1.26562 h 1.20313 v -2.39063 l 1.625,-0.98437 v 3.375 h 1.65625 v 1.26562 h -1.65625 v 5.67188 q 0,0.6875 0.0781,0.89062 0.0937,0.20313 0.28125,0.32813 0.20313,0.10937 0.57813,0.10937 0.26562,0 0.71875,-0.0625 z m 8.23018,-1.64062 1.6875,0.20312 q -0.40625,1.48438 -1.48438,2.3125 -1.07812,0.8125 -2.76562,0.8125 -2.125,0 -3.375,-1.29687 -1.23438,-1.3125 -1.23438,-3.67188 0,-2.45312 1.25,-3.79687 1.26563,-1.34375 3.26563,-1.34375 1.9375,0 3.15625,1.32812 1.23437,1.3125 1.23437,3.70313 0,0.15625 0,0.4375 h -7.21875 q 0.0937,1.59375 0.90625,2.45312 0.8125,0.84375 2.01563,0.84375 0.90625,0 1.54687,-0.46875 0.64063,-0.48437 1.01563,-1.51562 z m -5.39063,-2.65625 h 5.40625 q -0.10937,-1.21875 -0.625,-1.82813 -0.78125,-0.95312 -2.03125,-0.95312 -1.125,0 -1.90625,0.76562 -0.76562,0.75 -0.84375,2.01563 z m 14.32465,9.46875 v -13.375 h 1.48437 v 1.25 q 0.53125,-0.73438 1.1875,-1.09375 0.67188,-0.375 1.625,-0.375 1.23438,0 2.17188,0.64062 0.95312,0.625 1.4375,1.79688 0.48437,1.15625 0.48437,2.54687 0,1.48438 -0.53125,2.67188 -0.53125,1.1875 -1.54687,1.82812 -1.01563,0.625 -2.14063,0.625 -0.8125,0 -1.46875,-0.34375 -0.65625,-0.34375 -1.0625,-0.875 v 4.70313 z m 1.48437,-8.48438 q 0,1.85938 0.75,2.76563 0.76563,0.89062 1.82813,0.89062 1.09375,0 1.875,-0.92187 0.78125,-0.9375 0.78125,-2.875 0,-1.84375 -0.76563,-2.76563 -0.75,-0.92187 -1.8125,-0.92187 -1.04687,0 -1.85937,0.98437 -0.79688,0.96875 -0.79688,2.84375 z m 8.84447,4.78125 v -13.35937 h 1.64062 v 13.35937 z m 10.51982,0 v -1.42187 q -1.125,1.64062 -3.0625,1.64062 -0.85938,0 -1.60938,-0.32812 -0.73437,-0.32813 -1.09375,-0.82813 -0.35937,-0.5 -0.5,-1.21875 -0.10937,-0.46875 -0.10937,-1.53125 v -5.98437 h 1.64062 v 5.35937 q 0,1.28125 0.10938,1.73438 0.15625,0.64062 0.65625,1.01562 0.5,0.375 1.23437,0.375 0.73438,0 1.375,-0.375 0.65625,-0.39062 0.92188,-1.03125 0.26562,-0.65625 0.26562,-1.89062 v -5.1875 h 1.64063 v 9.67187 z m 3.73511,0.79688 1.59375,0.23437 q 0.10937,0.75 0.5625,1.07813 0.60937,0.45312 1.67187,0.45312 1.14063,0 1.75,-0.45312 0.625,-0.45313 0.84375,-1.26563 0.125,-0.5 0.10938,-2.10937 -1.0625,1.26562 -2.67188,1.26562 -2,0 -3.09375,-1.4375 -1.09375,-1.4375 -1.09375,-3.45312 0,-1.39063 0.5,-2.5625 0.51563,-1.17188 1.45313,-1.79688 0.95312,-0.64062 2.25,-0.64062 1.70312,0 2.8125,1.375 v -1.15625 h 1.51562 v 8.35937 q 0,2.26563 -0.46875,3.20313 -0.45312,0.9375 -1.45312,1.48437 -0.98438,0.54688 -2.45313,0.54688 -1.71875,0 -2.79687,-0.78125 -1.0625,-0.76563 -1.03125,-2.34375 z m 1.35937,-5.8125 q 0,1.90625 0.75,2.78125 0.76563,0.875 1.90625,0.875 1.125,0 1.89063,-0.85938 0.76562,-0.875 0.76562,-2.73437 0,-1.78125 -0.79687,-2.67188 -0.78125,-0.90625 -1.89063,-0.90625 -1.09375,0 -1.85937,0.89063 -0.76563,0.875 -0.76563,2.625 z m 9.32883,-6.45313 v -1.89062 h 1.64062 v 1.89062 z m 0,11.46875 v -9.67187 h 1.64062 v 9.67187 z m 4.14483,0 v -9.67187 h 1.46875 v 1.375 q 1.0625,-1.59375 3.07813,-1.59375 0.875,0 1.60937,0.3125 0.73438,0.3125 1.09375,0.82812 0.375,0.5 0.51563,1.20313 0.0937,0.45312 0.0937,1.59375 v 5.95312 h -1.64063 v -5.89062 q 0,-1 -0.20312,-1.48438 -0.1875,-0.5 -0.67188,-0.79687 -0.48437,-0.29688 -1.14062,-0.29688 -1.04688,0 -1.8125,0.67188 -0.75,0.65625 -0.75,2.51562 v 5.28125 z"
     fill-rule="nonzero"
     id="path23" />
  <path
     fill="#efefef"
     d="M 20.951443,167.48687 H 310.36878 v 38.86615 H 20.951443 Z"
     fill-rule="evenodd"
     id="path25" />
  <path
     stroke="#000000"
     stroke-width="1"
     stroke-linejoin="round"
     stroke-linecap="butt"
     d="M 20.951443,167.48687 H 310.36878 v 38.86615 H 20.951443 Z"
     fill-rule="evenodd"
     id="path27" />
  <path
     fill="#000000"
     d="m 80.837506,197.76182 q -1.35938,-1.70313 -2.29688,-4 -0.9375,-2.29688 -0.9375,-4.76563 0,-2.15625 0.70313,-4.14062 0.82812,-2.3125 2.53125,-4.59375 h 1.17187 q -1.09375,1.89062 -1.45312,2.70312 -0.54688,1.25 -0.875,2.625 -0.39063,1.70313 -0.39063,3.42188 0,4.375 2.71875,8.75 z m 2.4783,-8.76563 q 0,-2.6875 1.48438,-3.96875 1.25,-1.07812 3.04688,-1.07812 2,0 3.26562,1.3125 1.26563,1.29687 1.26563,3.60937 0,1.85938 -0.5625,2.9375 -0.5625,1.0625 -1.64063,1.65625 -1.0625,0.59375 -2.32812,0.59375 -2.03126,0 -3.28126,-1.29687 -1.25,-1.3125 -1.25,-3.76563 z m 1.6875,0 q 0,1.85938 0.79688,2.79688 0.8125,0.92187 2.04688,0.92187 1.21875,0 2.03125,-0.92187 0.8125,-0.9375 0.8125,-2.84375 0,-1.79688 -0.8125,-2.71875 -0.8125,-0.92188 -2.03125,-0.92188 -1.23438,0 -2.04688,0.92188 -0.79688,0.90625 -0.79688,2.76562 z m 12.87573,3.375 0.23437,1.45313 q -0.6875,0.14062 -1.23437,0.14062 -0.89063,0 -1.39063,-0.28125 -0.48437,-0.28125 -0.6875,-0.73437 -0.20312,-0.46875 -0.20312,-1.9375 v -5.57813 h -1.20313 v -1.26562 h 1.20313 v -2.39063 l 1.625,-0.98437 v 3.375 h 1.65625 v 1.26562 h -1.65625 v 5.67188 q 0,0.6875 0.0781,0.89062 0.0937,0.20313 0.28125,0.32813 0.20313,0.10937 0.57813,0.10937 0.26562,0 0.71875,-0.0625 z m 1.60518,1.46875 v -13.35937 h 1.640624 v 4.79687 q 1.14063,-1.32812 2.89063,-1.32812 1.07812,0 1.85937,0.42187 0.79688,0.42188 1.14063,1.17188 0.34375,0.75 0.34375,2.17187 v 6.125 h -1.64063 v -6.125 q 0,-1.23437 -0.53125,-1.79687 -0.53125,-0.5625 -1.51562,-0.5625 -0.71875,0 -1.35938,0.39062 -0.64062,0.375 -0.92187,1.01563 -0.26563,0.64062 -0.26563,1.78125 v 5.29687 z m 17.000714,-3.10937 1.6875,0.20312 q -0.40625,1.48438 -1.48437,2.3125 -1.07813,0.8125 -2.76563,0.8125 -2.125,0 -3.375,-1.29687 -1.23437,-1.3125 -1.23437,-3.67188 0,-2.45312 1.25,-3.79687 1.26562,-1.34375 3.26562,-1.34375 1.9375,0 3.15625,1.32812 1.23438,1.3125 1.23438,3.70313 0,0.15625 0,0.4375 h -7.21875 q 0.0937,1.59375 0.90625,2.45312 0.8125,0.84375 2.01562,0.84375 0.90625,0 1.54688,-0.46875 0.64062,-0.48437 1.01562,-1.51562 z m -5.39062,-2.65625 h 5.40625 q -0.10938,-1.21875 -0.625,-1.82813 -0.78125,-0.95312 -2.03125,-0.95312 -1.125,0 -1.90625,0.76562 -0.76563,0.75 -0.84375,2.01563 z m 9.12571,5.76562 v -9.67187 h 1.46875 v 1.46875 q 0.5625,-1.03125 1.03125,-1.35938 0.48438,-0.32812 1.0625,-0.32812 0.82813,0 1.6875,0.53125 l -0.5625,1.51562 q -0.60937,-0.35937 -1.20312,-0.35937 -0.54688,0 -0.96875,0.32812 -0.42188,0.32813 -0.60938,0.89063 -0.28125,0.875 -0.28125,1.92187 v 5.0625 z m 11.36474,0 v -13.35937 h 1.64062 v 13.35937 z m 10.81669,-3.10937 1.6875,0.20312 q -0.40625,1.48438 -1.48437,2.3125 -1.07813,0.8125 -2.76563,0.8125 -2.125,0 -3.375,-1.29687 -1.23437,-1.3125 -1.23437,-3.67188 0,-2.45312 1.25,-3.79687 1.26562,-1.34375 3.26562,-1.34375 1.9375,0 3.15625,1.32812 1.23438,1.3125 1.23438,3.70313 0,0.15625 0,0.4375 h -7.21875 q 0.0937,1.59375 0.90625,2.45312 0.8125,0.84375 2.01562,0.84375 0.90625,0 1.54688,-0.46875 0.64062,-0.48437 1.01562,-1.51562 z m -5.39062,-2.65625 h 5.40625 q -0.10938,-1.21875 -0.625,-1.82813 -0.78125,-0.95312 -2.03125,-0.95312 -1.125,0 -1.90625,0.76562 -0.76563,0.75 -0.84375,2.01563 z m 8.82884,6.5625 1.59375,0.23437 q 0.10937,0.75 0.5625,1.07813 0.60937,0.45312 1.67187,0.45312 1.14063,0 1.75,-0.45312 0.625,-0.45313 0.84375,-1.26563 0.125,-0.5 0.10938,-2.10937 -1.0625,1.26562 -2.67188,1.26562 -2,0 -3.09375,-1.4375 -1.09375,-1.4375 -1.09375,-3.45312 0,-1.39063 0.5,-2.5625 0.51563,-1.17188 1.45313,-1.79688 0.95312,-0.64062 2.25,-0.64062 1.70312,0 2.8125,1.375 v -1.15625 h 1.51562 v 8.35937 q 0,2.26563 -0.46875,3.20313 -0.45312,0.9375 -1.45312,1.48437 -0.98438,0.54688 -2.45313,0.54688 -1.71875,0 -2.79687,-0.78125 -1.0625,-0.76563 -1.03125,-2.34375 z m 1.35937,-5.8125 q 0,1.90625 0.75,2.78125 0.76563,0.875 1.90625,0.875 1.125,0 1.89063,-0.85938 0.76562,-0.875 0.76562,-2.73437 0,-1.78125 -0.79687,-2.67188 -0.78125,-0.90625 -1.89063,-0.90625 -1.09375,0 -1.85937,0.89063 -0.76563,0.875 -0.76563,2.625 z m 15.64135,3.82812 q -0.92188,0.76563 -1.76563,1.09375 -0.82812,0.3125 -1.79687,0.3125 -1.59375,0 -2.45313,-0.78125 -0.85937,-0.78125 -0.85937,-1.98437 0,-0.71875 0.32812,-1.29688 0.32813,-0.59375 0.84375,-0.9375 0.53125,-0.35937 1.1875,-0.54687 0.46875,-0.125 1.45313,-0.25 1.98437,-0.23438 2.92187,-0.5625 0.0156,-0.34375 0.0156,-0.42188 0,-1 -0.46875,-1.42187 -0.625,-0.54688 -1.875,-0.54688 -1.15625,0 -1.70313,0.40625 -0.54687,0.40625 -0.8125,1.42188 l -1.60937,-0.21875 q 0.21875,-1.01563 0.71875,-1.64063 0.5,-0.64062 1.45312,-0.98437 0.95313,-0.34375 2.1875,-0.34375 1.25,0 2.01563,0.29687 0.78125,0.28125 1.14062,0.73438 0.375,0.4375 0.51563,1.10937 0.0781,0.42188 0.0781,1.51563 v 2.1875 q 0,2.28125 0.10938,2.89062 0.10937,0.59375 0.40625,1.15625 h -1.70313 q -0.26562,-0.51562 -0.32812,-1.1875 z m -0.14063,-3.67187 q -0.89062,0.375 -2.67187,0.625 -1.01563,0.14062 -1.4375,0.32812 -0.42188,0.1875 -0.65625,0.53125 -0.21875,0.34375 -0.21875,0.78125 0,0.65625 0.5,1.09375 0.5,0.4375 1.45312,0.4375 0.9375,0 1.67188,-0.40625 0.75,-0.42187 1.09375,-1.14062 0.26562,-0.5625 0.26562,-1.64063 z m 10.51634,1.3125 1.60938,0.21875 q -0.26563,1.65625 -1.35938,2.60937 -1.07812,0.9375 -2.67187,0.9375 -1.98438,0 -3.1875,-1.29687 -1.20313,-1.29688 -1.20313,-3.71875 0,-1.57813 0.51563,-2.75 0.51562,-1.17188 1.57812,-1.75 1.0625,-0.59375 2.3125,-0.59375 1.57813,0 2.57813,0.79687 1,0.79688 1.28125,2.26563 l -1.59375,0.23437 q -0.23438,-0.96875 -0.8125,-1.45312 -0.57813,-0.5 -1.39063,-0.5 -1.23437,0 -2.01562,0.89062 -0.78125,0.89063 -0.78125,2.8125 0,1.95313 0.75,2.84375 0.75,0.875 1.95312,0.875 0.96875,0 1.60938,-0.59375 0.65625,-0.59375 0.82812,-1.82812 z m 2.9375,7.26562 -0.1875,-1.53125 q 0.54688,0.14063 0.9375,0.14063 0.54688,0 0.875,-0.1875 0.32813,-0.17188 0.54688,-0.5 0.15625,-0.25 0.5,-1.21875 0.0469,-0.14063 0.14062,-0.40625 l -3.67187,-9.6875 h 1.76562 l 2.01563,5.59375 q 0.39062,1.07812 0.70312,2.25 0.28125,-1.125 0.67188,-2.20313 l 2.07812,-5.64062 h 1.64063 l -3.6875,9.82812 q -0.59375,1.60938 -0.92188,2.20313 -0.4375,0.8125 -1,1.1875 -0.5625,0.375 -1.34375,0.375 -0.48437,0 -1.0625,-0.20313 z m 14.58956,-0.0156 v -13.375 h 1.48437 v 1.25 q 0.53125,-0.73438 1.1875,-1.09375 0.67188,-0.375 1.625,-0.375 1.23438,0 2.17188,0.64062 0.95312,0.625 1.4375,1.79688 0.48437,1.15625 0.48437,2.54687 0,1.48438 -0.53125,2.67188 -0.53125,1.1875 -1.54687,1.82812 -1.01563,0.625 -2.14063,0.625 -0.8125,0 -1.46875,-0.34375 -0.65625,-0.34375 -1.0625,-0.875 v 4.70313 z m 1.48437,-8.48438 q 0,1.85938 0.75,2.76563 0.76563,0.89062 1.82813,0.89062 1.09375,0 1.875,-0.92187 0.78125,-0.9375 0.78125,-2.875 0,-1.84375 -0.76563,-2.76563 -0.75,-0.92187 -1.8125,-0.92187 -1.04687,0 -1.85937,0.98437 -0.79688,0.96875 -0.79688,2.84375 z m 8.84447,4.78125 v -13.35939 h 1.64062 v 13.35937 z m 10.51982,0 v -1.42187 q -1.125,1.64062 -3.0625,1.64062 -0.85938,0 -1.60938,-0.32812 -0.73437,-0.32813 -1.09375,-0.82813 -0.35937,-0.5 -0.5,-1.21875 -0.10937,-0.46875 -0.10937,-1.53125 v -5.98437 h 1.64062 v 5.35937 q 0,1.28125 0.10938,1.73438 0.15625,0.64062 0.65625,1.01562 0.5,0.375 1.23437,0.375 0.73438,0 1.375,-0.375 0.65625,-0.39062 0.92188,-1.03125 0.26562,-0.65625 0.26562,-1.89062 v -5.1875 h 1.64063 v 9.67187 z m 3.73509,0.79688 1.59375,0.23437 q 0.10938,0.75 0.5625,1.07813 0.60938,0.45312 1.67188,0.45312 1.14062,0 1.75,-0.45312 0.625,-0.45313 0.84375,-1.26563 0.125,-0.5 0.10937,-2.10937 -1.0625,1.26562 -2.67187,1.26562 -2,0 -3.09375,-1.4375 -1.09375,-1.4375 -1.09375,-3.45312 0,-1.39063 0.5,-2.5625 0.51562,-1.17188 1.45312,-1.79688 0.95313,-0.64062 2.25,-0.64062 1.70313,0 2.8125,1.375 v -1.15625 h 1.51563 v 8.35937 q 0,2.26563 -0.46875,3.20313 -0.45313,0.9375 -1.45313,1.48437 -0.98437,0.54688 -2.45312,0.54688 -1.71875,0 -2.79688,-0.78125 -1.0625,-0.76563 -1.03125,-2.34375 z m 1.35938,-5.8125 q 0,1.90625 0.75,2.78125 0.76562,0.875 1.90625,0.875 1.125,0 1.89062,-0.85938 0.76563,-0.875 0.76563,-2.73437 0,-1.78125 -0.79688,-2.67188 -0.78125,-0.90625 -1.89062,-0.90625 -1.09375,0 -1.85938,0.89063 -0.76562,0.875 -0.76562,2.625 z m 9.32882,-6.45313 v -1.89062 h 1.64063 v 1.89062 z m 0,11.46875 v -9.67187 h 1.64063 v 9.67187 z m 4.14484,0 v -9.67187 h 1.46875 v 1.375 q 1.0625,-1.59375 3.07813,-1.59375 0.875,0 1.60937,0.3125 0.73438,0.3125 1.09375,0.82812 0.375,0.5 0.51563,1.20313 0.0937,0.45312 0.0937,1.59375 v 5.95312 h -1.64063 v -5.89062 q 0,-1 -0.20312,-1.48438 -0.1875,-0.5 -0.67188,-0.79687 -0.48437,-0.29688 -1.14062,-0.29688 -1.04688,0 -1.8125,0.67188 -0.75,0.65625 -0.75,2.51562 v 5.28125 z m 9.71945,-2.89062 1.625,-0.25 q 0.125,0.96875 0.75,1.5 0.625,0.51562 1.75,0.51562 1.125,0 1.67188,-0.45312 0.54687,-0.46875 0.54687,-1.09375 0,-0.54688 -0.48437,-0.875 -0.32813,-0.21875 -1.67188,-0.54688 -1.8125,-0.46875 -2.51562,-0.79687 -0.6875,-0.32813 -1.04688,-0.90625 -0.35937,-0.59375 -0.35937,-1.3125 0,-0.64063 0.29687,-1.1875 0.29688,-0.5625 0.8125,-0.92188 0.375,-0.28125 1.03125,-0.46875 0.67188,-0.20312 1.42188,-0.20312 1.14062,0 2,0.32812 0.85937,0.32813 1.26562,0.89063 0.42188,0.5625 0.57813,1.5 l -1.60938,0.21875 q -0.10937,-0.75 -0.64062,-1.17188 -0.51563,-0.42187 -1.46875,-0.42187 -1.14063,0 -1.625,0.375 -0.46875,0.375 -0.46875,0.875 0,0.3125 0.1875,0.57812 0.20312,0.26563 0.64062,0.4375 0.23438,0.0937 1.4375,0.42188 1.75,0.45312 2.4375,0.75 0.6875,0.29687 1.07813,0.85937 0.39062,0.5625 0.39062,1.40625 0,0.82813 -0.48437,1.54688 -0.46875,0.71875 -1.375,1.125 -0.90625,0.39062 -2.04688,0.39062 -1.875,0 -2.875,-0.78125 -0.98437,-0.78125 -1.25,-2.32812 z m 11.0625,6.8125 h -1.1875 q 2.73438,-4.375 2.73438,-8.75 0,-1.71875 -0.39063,-3.39063 -0.3125,-1.375 -0.875,-2.625 -0.35937,-0.82812 -1.46875,-2.73437 h 1.1875 q 1.70313,2.28125 2.53125,4.59375 0.6875,1.98437 0.6875,4.14062 0,2.46875 -0.9375,4.76563 -0.9375,2.29687 -2.28125,4 z"
     fill-rule="nonzero"
     id="path29" />
  <path
     fill="#fff2cc"
     d="M 367.26377,167.48687 H 697.56299 V 333.37664 H 367.26377 Z"
     fill-rule="evenodd"
     id="path31" />
  <path
     stroke="#000000"
     stroke-width="1"
     stroke-linejoin="round"
     stroke-linecap="butt"
     d="M 367.26377,167.48687 H 697.56299 V 333.37664 H 367.26377 Z"
     fill-rule="evenodd"
     id="path33" />
  <path
     fill="#000000"
     d="m 377.62315,194.40687 v -13.35938 h 1.78125 v 11.78125 h 6.5625 v 1.57813 z m 10.37573,0 v -13.35938 h 1.78125 v 11.78125 h 6.5625 v 1.57813 z m 10.45383,0 v -13.35938 h 4.60937 q 1.54688,0 2.375,0.20313 1.14063,0.25 1.95313,0.95312 1.0625,0.89063 1.57812,2.28125 0.53125,1.39063 0.53125,3.17188 0,1.51562 -0.35937,2.70312 -0.35938,1.17188 -0.92188,1.9375 -0.54687,0.76563 -1.20312,1.21875 -0.65625,0.4375 -1.59375,0.67188 -0.9375,0.21875 -2.14063,0.21875 z m 1.76562,-1.57813 h 2.85938 q 1.3125,0 2.0625,-0.23437 0.75,-0.25 1.20312,-0.70313 0.625,-0.625 0.96875,-1.6875 0.35938,-1.0625 0.35938,-2.57812 0,-2.09375 -0.6875,-3.21875 -0.6875,-1.125 -1.67188,-1.5 -0.70312,-0.28125 -2.28125,-0.28125 h -2.8125 z m 11.62921,1.57813 v -13.35938 h 5.01563 q 1.53125,0 2.45312,0.40625 0.92188,0.40625 1.4375,1.25 0.53125,0.84375 0.53125,1.76563 0,0.85937 -0.46875,1.625 -0.45312,0.75 -1.39062,1.20312 1.20312,0.35938 1.85937,1.21875 0.65625,0.85938 0.65625,2.01563 0,0.9375 -0.40625,1.75 -0.39062,0.79687 -0.98437,1.23437 -0.57813,0.4375 -1.45313,0.67188 -0.875,0.21875 -2.15625,0.21875 z m 1.78125,-7.75 h 2.875 q 1.1875,0 1.6875,-0.14063 0.67188,-0.20312 1.01563,-0.67187 0.34375,-0.46875 0.34375,-1.17188 0,-0.65625 -0.32813,-1.15625 -0.3125,-0.51562 -0.90625,-0.70312 -0.59375,-0.1875 -2.03125,-0.1875 h -2.65625 z m 0,6.17187 h 3.3125 q 0.85938,0 1.20313,-0.0625 0.60937,-0.10937 1.01562,-0.35937 0.42188,-0.26563 0.6875,-0.75 0.26563,-0.48438 0.26563,-1.125 0,-0.75 -0.39063,-1.29688 -0.375,-0.54687 -1.0625,-0.76562 -0.67187,-0.23438 -1.95312,-0.23438 h -3.07813 z m 15.06437,-1.3125 1.625,-0.25 q 0.125,0.96875 0.75,1.5 0.625,0.51563 1.75,0.51563 1.125,0 1.67187,-0.45313 0.54688,-0.46875 0.54688,-1.09375 0,-0.54687 -0.48438,-0.875 -0.32812,-0.21875 -1.67187,-0.54687 -1.8125,-0.46875 -2.51563,-0.79688 -0.6875,-0.32812 -1.04687,-0.90625 -0.35938,-0.59375 -0.35938,-1.3125 0,-0.64062 0.29688,-1.1875 0.29687,-0.5625 0.8125,-0.92187 0.375,-0.28125 1.03125,-0.46875 0.67187,-0.20313 1.42187,-0.20313 1.14063,0 2,0.32813 0.85938,0.32812 1.26563,0.89062 0.42187,0.5625 0.57812,1.5 l -1.60937,0.21875 q -0.10938,-0.75 -0.64063,-1.17187 -0.51562,-0.42188 -1.46875,-0.42188 -1.14062,0 -1.625,0.375 -0.46875,0.375 -0.46875,0.875 0,0.3125 0.1875,0.57813 0.20313,0.26562 0.64063,0.4375 0.23437,0.0937 1.4375,0.42187 1.75,0.45313 2.4375,0.75 0.6875,0.29688 1.07812,0.85938 0.39063,0.5625 0.39063,1.40625 0,0.82812 -0.48438,1.54687 -0.46875,0.71875 -1.375,1.125 -0.90625,0.39063 -2.04687,0.39063 -1.875,0 -2.875,-0.78125 -0.98438,-0.78125 -1.25,-2.32813 z m 16.60937,-0.21875 1.6875,0.20313 q -0.40625,1.48437 -1.48437,2.3125 -1.07813,0.8125 -2.76563,0.8125 -2.125,0 -3.375,-1.29688 -1.23437,-1.3125 -1.23437,-3.67187 0,-2.45313 1.25,-3.79688 1.26562,-1.34375 3.26562,-1.34375 1.9375,0 3.15625,1.32813 1.23438,1.3125 1.23438,3.70312 0,0.15625 0,0.4375 h -7.21875 q 0.0937,1.59375 0.90625,2.45313 0.8125,0.84375 2.01562,0.84375 0.90625,0 1.54688,-0.46875 0.64062,-0.48438 1.01562,-1.51563 z m -5.39062,-2.65625 h 5.40625 q -0.10938,-1.21875 -0.625,-1.82812 -0.78125,-0.95313 -2.03125,-0.95313 -1.125,0 -1.90625,0.76563 -0.76563,0.75 -0.84375,2.01562 z m 9.12573,5.76563 v -9.67188 h 1.46875 v 1.46875 q 0.5625,-1.03125 1.03125,-1.35937 0.48437,-0.32813 1.0625,-0.32813 0.82812,0 1.6875,0.53125 l -0.5625,1.51563 q -0.60938,-0.35938 -1.20313,-0.35938 -0.54687,0 -0.96875,0.32813 -0.42187,0.32812 -0.60937,0.89062 -0.28125,0.875 -0.28125,1.92188 v 5.0625 z m 8.9158,0 -3.6875,-9.67188 h 1.73438 l 2.07812,5.79688 q 0.32813,0.9375 0.625,1.9375 0.20313,-0.76563 0.60938,-1.82813 l 2.14062,-5.90625 h 1.6875 l -3.65625,9.67188 z m 13.26563,-3.10938 1.6875,0.20313 q -0.40625,1.48437 -1.48438,2.3125 -1.07812,0.8125 -2.76562,0.8125 -2.125,0 -3.375,-1.29688 -1.23438,-1.3125 -1.23438,-3.67187 0,-2.45313 1.25,-3.79688 1.26563,-1.34375 3.26563,-1.34375 1.9375,0 3.15625,1.32813 1.23437,1.3125 1.23437,3.70312 0,0.15625 0,0.4375 h -7.21875 q 0.0937,1.59375 0.90625,2.45313 0.8125,0.84375 2.01563,0.84375 0.90625,0 1.54687,-0.46875 0.64063,-0.48438 1.01563,-1.51563 z m -5.39063,-2.65625 h 5.40625 q -0.10937,-1.21875 -0.625,-1.82812 -0.78125,-0.95313 -2.03125,-0.95313 -1.125,0 -1.90625,0.76563 -0.76562,0.75 -0.84375,2.01562 z m 9.12573,5.76563 v -9.67188 h 1.46875 v 1.46875 q 0.5625,-1.03125 1.03125,-1.35937 0.48438,-0.32813 1.0625,-0.32813 0.82813,0 1.6875,0.53125 l -0.5625,1.51563 q -0.60937,-0.35938 -1.20312,-0.35938 -0.54688,0 -0.96875,0.32813 -0.42188,0.32812 -0.60938,0.89062 -0.28125,0.875 -0.28125,1.92188 v 5.0625 z"
     fill-rule="nonzero"
     id="path35" />
  <path
     fill="#000000"
     fill-opacity="0"
     d="m 310.35827,133.08268 h 222.04724 v 34.39369"
     fill-rule="evenodd"
     id="path37" />
  <path
     stroke="#000000"
     stroke-width="1"
     stroke-linejoin="round"
     stroke-linecap="butt"
     d="m 310.35827,133.08268 h 222.04724 v 28.39369"
     fill-rule="evenodd"
     id="path39" />
  <path
     fill="#000000"
     stroke="#000000"
     stroke-width="1"
     stroke-linecap="butt"
     d="m 530.75377,161.47637 1.65173,4.5381 1.65174,-4.5381 z"
     fill-rule="evenodd"
     id="path41" />
  <path
     fill="#d9d2e9"
     d="m 387.69947,218.6181 h 289.41736 v 38.86615 H 387.69947 Z"
     fill-rule="evenodd"
     id="path43" />
  <path
     stroke="#000000"
     stroke-width="1"
     stroke-linejoin="round"
     stroke-linecap="butt"
     d="m 387.69947,218.6181 h 289.41736 v 38.86615 H 387.69947 Z"
     fill-rule="evenodd"
     id="path45" />
  <path
     fill="#000000"
     d="m 432.77515,244.97119 v -13.35938 h 5.92187 q 1.78125,0 2.70313,0.35938 0.9375,0.35937 1.48437,1.28125 0.5625,0.90625 0.5625,2.01562 0,1.40625 -0.92187,2.39063 -0.92188,0.96875 -2.84375,1.23437 0.70312,0.34375 1.07812,0.67188 0.76563,0.70312 1.45313,1.76562 l 2.32812,3.64063 h -2.21875 l -1.76562,-2.78125 q -0.78125,-1.20313 -1.28125,-1.82813 -0.5,-0.64062 -0.90625,-0.89062 -0.39063,-0.26563 -0.79688,-0.35938 -0.29687,-0.0781 -0.98437,-0.0781 h -2.04688 v 5.9375 z m 1.76562,-7.45313 h 3.79688 q 1.21875,0 1.89062,-0.25 0.6875,-0.26562 1.04688,-0.8125 0.35937,-0.54687 0.35937,-1.1875 0,-0.95312 -0.6875,-1.5625 -0.6875,-0.60937 -2.1875,-0.60937 h -4.21875 z m 18.09793,4.34375 1.6875,0.20313 q -0.40625,1.48437 -1.48437,2.3125 -1.07813,0.8125 -2.76563,0.8125 -2.125,0 -3.375,-1.29688 -1.23437,-1.3125 -1.23437,-3.67187 0,-2.45313 1.25,-3.79688 1.26562,-1.34375 3.26562,-1.34375 1.9375,0 3.15625,1.32813 1.23438,1.3125 1.23438,3.70312 0,0.15625 0,0.4375 h -7.21875 q 0.0937,1.59375 0.90625,2.45313 0.8125,0.84375 2.01562,0.84375 0.90625,0 1.54688,-0.46875 0.64062,-0.48438 1.01562,-1.51563 z m -5.39062,-2.65625 h 5.40625 q -0.10938,-1.21875 -0.625,-1.82812 -0.78125,-0.95313 -2.03125,-0.95313 -1.125,0 -1.90625,0.76563 -0.76563,0.75 -0.84375,2.01562 z m 9.14136,5.76563 v -9.67188 h 1.46875 v 1.35938 q 0.45312,-0.71875 1.20312,-1.14063 0.76563,-0.4375 1.71875,-0.4375 1.07813,0 1.76563,0.45313 0.6875,0.4375 0.96875,1.23437 1.15625,-1.6875 2.98437,-1.6875 1.45313,0 2.21875,0.79688 0.78125,0.79687 0.78125,2.45312 v 6.64063 h -1.64062 v -6.09375 q 0,-0.98438 -0.15625,-1.40625 -0.15625,-0.4375 -0.57813,-0.70313 -0.42187,-0.26562 -0.98437,-0.26562 -1.01563,0 -1.6875,0.6875 -0.67188,0.67187 -0.67188,2.15625 v 5.625 h -1.64062 v -6.28125 q 0,-1.09375 -0.40625,-1.64063 -0.40625,-0.54687 -1.3125,-0.54687 -0.6875,0 -1.28125,0.35937 -0.59375,0.35938 -0.85938,1.0625 -0.25,0.70313 -0.25,2.03125 v 5.01563 z m 14.93142,-4.84375 q 0,-2.6875 1.48438,-3.96875 1.25,-1.07813 3.04687,-1.07813 2,0 3.26563,1.3125 1.26562,1.29688 1.26562,3.60938 0,1.85937 -0.5625,2.9375 -0.5625,1.0625 -1.64062,1.65625 -1.0625,0.59375 -2.32813,0.59375 -2.03125,0 -3.28125,-1.29688 -1.25,-1.3125 -1.25,-3.76562 z m 1.6875,0 q 0,1.85937 0.79688,2.79687 0.8125,0.92188 2.04687,0.92188 1.21875,0 2.03125,-0.92188 0.8125,-0.9375 0.8125,-2.84375 0,-1.79687 -0.8125,-2.71875 -0.8125,-0.92187 -2.03125,-0.92187 -1.23437,0 -2.04687,0.92187 -0.79688,0.90625 -0.79688,2.76563 z m 12.87574,3.375 0.23437,1.45312 q -0.6875,0.14063 -1.23437,0.14063 -0.89063,0 -1.39063,-0.28125 -0.48437,-0.28125 -0.6875,-0.73438 -0.20312,-0.46875 -0.20312,-1.9375 v -5.57812 h -1.20313 v -1.26563 h 1.20313 v -2.39062 l 1.625,-0.98438 v 3.375 h 1.65625 v 1.26563 h -1.65625 v 5.67187 q 0,0.6875 0.0781,0.89063 0.0937,0.20312 0.28125,0.32812 0.20313,0.10938 0.57813,0.10938 0.26562,0 0.71875,-0.0625 z m 8.23016,-1.64063 1.6875,0.20313 q -0.40625,1.48437 -1.48438,2.3125 -1.07812,0.8125 -2.76562,0.8125 -2.125,0 -3.375,-1.29688 -1.23438,-1.3125 -1.23438,-3.67187 0,-2.45313 1.25,-3.79688 1.26563,-1.34375 3.26563,-1.34375 1.9375,0 3.15625,1.32813 1.23437,1.3125 1.23437,3.70312 0,0.15625 0,0.4375 h -7.21875 q 0.0937,1.59375 0.90625,2.45313 0.8125,0.84375 2.01563,0.84375 0.90625,0 1.54687,-0.46875 0.64063,-0.48438 1.01563,-1.51563 z m -5.39063,-2.65625 h 5.40625 q -0.10937,-1.21875 -0.625,-1.82812 -0.78125,-0.95313 -2.03125,-0.95313 -1.125,0 -1.90625,0.76563 -0.76562,0.75 -0.84375,2.01562 z m 14.62153,5.76563 v -13.35938 h 9.01562 v 1.57813 h -7.25 v 4.14062 h 6.26563 v 1.57813 h -6.26563 v 6.0625 z m 11.08349,0 v -9.67188 h 1.46875 v 1.46875 q 0.5625,-1.03125 1.03125,-1.35937 0.48438,-0.32813 1.0625,-0.32813 0.82813,0 1.6875,0.53125 l -0.5625,1.51563 q -0.60937,-0.35938 -1.20312,-0.35938 -0.54688,0 -0.96875,0.32813 -0.42188,0.32812 -0.60938,0.89062 -0.28125,0.875 -0.28125,1.92188 v 5.0625 z m 12.85327,-3.10938 1.6875,0.20313 q -0.40625,1.48437 -1.48437,2.3125 -1.07813,0.8125 -2.76563,0.8125 -2.125,0 -3.375,-1.29688 -1.23437,-1.3125 -1.23437,-3.67187 0,-2.45313 1.25,-3.79688 1.26562,-1.34375 3.26562,-1.34375 1.9375,0 3.15625,1.32813 1.23438,1.3125 1.23438,3.70312 0,0.15625 0,0.4375 h -7.21875 q 0.0937,1.59375 0.90625,2.45313 0.8125,0.84375 2.01562,0.84375 0.90625,0 1.54688,-0.46875 0.64062,-0.48438 1.01562,-1.51563 z m -5.39062,-2.65625 h 5.40625 q -0.10938,-1.21875 -0.625,-1.82812 -0.78125,-0.95313 -2.03125,-0.95313 -1.125,0 -1.90625,0.76563 -0.76563,0.75 -0.84375,2.01562 z m 15.76636,2.65625 1.6875,0.20313 q -0.40625,1.48437 -1.48438,2.3125 -1.07812,0.8125 -2.76562,0.8125 -2.125,0 -3.375,-1.29688 -1.23438,-1.3125 -1.23438,-3.67187 0,-2.45313 1.25,-3.79688 1.26563,-1.34375 3.26563,-1.34375 1.9375,0 3.15625,1.32813 1.23437,1.3125 1.23437,3.70312 0,0.15625 0,0.4375 h -7.21875 q 0.0937,1.59375 0.90625,2.45313 0.8125,0.84375 2.01563,0.84375 0.90625,0 1.54687,-0.46875 0.64063,-0.48438 1.01563,-1.51563 z m -5.39063,-2.65625 h 5.40625 q -0.10937,-1.21875 -0.625,-1.82812 -0.78125,-0.95313 -2.03125,-0.95313 -1.125,0 -1.90625,0.76563 -0.76562,0.75 -0.84375,2.01562 z m 9.26636,5.76563 v -13.35938 h 5.01562 q 1.53125,0 2.45313,0.40625 0.92187,0.40625 1.4375,1.25 0.53125,0.84375 0.53125,1.76563 0,0.85937 -0.46875,1.625 -0.45313,0.75 -1.39063,1.20312 1.20313,0.35938 1.85938,1.21875 0.65625,0.85938 0.65625,2.01563 0,0.9375 -0.40625,1.75 -0.39063,0.79687 -0.98438,1.23437 -0.57812,0.4375 -1.45312,0.67188 -0.875,0.21875 -2.15625,0.21875 z m 1.78125,-7.75 h 2.875 q 1.1875,0 1.6875,-0.14063 0.67187,-0.20312 1.01562,-0.67187 0.34375,-0.46875 0.34375,-1.17188 0,-0.65625 -0.32812,-1.15625 -0.3125,-0.51562 -0.90625,-0.70312 -0.59375,-0.1875 -2.03125,-0.1875 h -2.65625 z m 0,6.17187 h 3.3125 q 0.85937,0 1.20312,-0.0625 0.60938,-0.10937 1.01563,-0.35937 0.42187,-0.26563 0.6875,-0.75 0.26562,-0.48438 0.26562,-1.125 0,-0.75 -0.39062,-1.29688 -0.375,-0.54687 -1.0625,-0.76562 -0.67188,-0.23438 -1.95313,-0.23438 h -3.07812 z m 10.14666,-2.71875 1.65625,-0.14062 q 0.125,1 0.54688,1.64062 0.4375,0.64063 1.34375,1.04688 0.92187,0.39062 2.0625,0.39062 1,0 1.78125,-0.29687 0.78125,-0.29688 1.15625,-0.8125 0.375,-0.53125 0.375,-1.15625 0,-0.625 -0.375,-1.09375 -0.35938,-0.46875 -1.1875,-0.79688 -0.54688,-0.20312 -2.39063,-0.64062 -1.82812,-0.45313 -2.5625,-0.84375 -0.96875,-0.5 -1.4375,-1.23438 -0.46875,-0.75 -0.46875,-1.67187 0,-1 0.57813,-1.875 0.57812,-0.89063 1.67187,-1.34375 1.10938,-0.45313 2.45313,-0.45313 1.48437,0 2.60937,0.48438 1.14063,0.46875 1.75,1.40625 0.60938,0.92187 0.65625,2.09375 l -1.6875,0.125 q -0.14062,-1.26563 -0.9375,-1.90625 -0.78125,-0.65625 -2.3125,-0.65625 -1.60937,0 -2.34375,0.59375 -0.73437,0.59375 -0.73437,1.42187 0,0.71875 0.53125,1.17188 0.5,0.46875 2.65625,0.96875 2.15625,0.48437 2.95312,0.84375 1.17188,0.53125 1.71875,1.35937 0.5625,0.82813 0.5625,1.90625 0,1.0625 -0.60937,2.01563 -0.60938,0.9375 -1.75,1.46875 -1.14063,0.51562 -2.57813,0.51562 -1.8125,0 -3.04687,-0.53125 -1.21875,-0.53125 -1.92188,-1.59375 -0.6875,-1.0625 -0.71875,-2.40625 z m 13.03736,4.29688 v -13.35938 h 4.60937 q 1.54688,0 2.375,0.20313 1.14063,0.25 1.95313,0.95312 1.0625,0.89063 1.57812,2.28125 0.53125,1.39063 0.53125,3.17188 0,1.51562 -0.35937,2.70312 -0.35938,1.17188 -0.92188,1.9375 -0.54687,0.76563 -1.20312,1.21875 -0.65625,0.4375 -1.59375,0.67188 -0.9375,0.21875 -2.14063,0.21875 z m 1.76562,-1.57813 h 2.85938 q 1.3125,0 2.0625,-0.23437 0.75,-0.25 1.20312,-0.70313 0.625,-0.625 0.96875,-1.6875 0.35938,-1.0625 0.35938,-2.57812 0,-2.09375 -0.6875,-3.21875 -0.6875,-1.125 -1.67188,-1.5 -0.70312,-0.28125 -2.28125,-0.28125 h -2.8125 z m 16.6875,5.28125 v -13.375 h 1.48438 v 1.25 q 0.53125,-0.73437 1.1875,-1.09375 0.67187,-0.375 1.625,-0.375 1.23437,0 2.17187,0.64063 0.95313,0.625 1.4375,1.79687 0.48438,1.15625 0.48438,2.54688 0,1.48437 -0.53125,2.67187 -0.53125,1.1875 -1.54688,1.82813 -1.01562,0.625 -2.14062,0.625 -0.8125,0 -1.46875,-0.34375 -0.65625,-0.34375 -1.0625,-0.875 v 4.70312 z m 1.48438,-8.48437 q 0,1.85937 0.75,2.76562 0.76562,0.89063 1.82812,0.89063 1.09375,0 1.875,-0.92188 0.78125,-0.9375 0.78125,-2.875 0,-1.84375 -0.76562,-2.76562 -0.75,-0.92188 -1.8125,-0.92188 -1.04688,0 -1.85938,0.98438 -0.79687,0.96875 -0.79687,2.84375 z m 8.84442,4.78125 v -13.35938 h 1.64062 v 13.35938 z m 10.51984,0 v -1.42188 q -1.125,1.64063 -3.0625,1.64063 -0.85938,0 -1.60938,-0.32813 -0.73437,-0.32812 -1.09375,-0.82812 -0.35937,-0.5 -0.5,-1.21875 -0.10937,-0.46875 -0.10937,-1.53125 v -5.98438 h 1.64062 v 5.35938 q 0,1.28125 0.10938,1.73437 0.15625,0.64063 0.65625,1.01563 0.5,0.375 1.23437,0.375 0.73438,0 1.375,-0.375 0.65625,-0.39063 0.92188,-1.03125 0.26562,-0.65625 0.26562,-1.89063 v -5.1875 h 1.64063 v 9.67188 z m 3.7351,0.79687 1.59375,0.23438 q 0.10938,0.75 0.5625,1.07812 0.60938,0.45313 1.67188,0.45313 1.14062,0 1.75,-0.45313 0.625,-0.45312 0.84375,-1.26562 0.125,-0.5 0.10937,-2.10938 -1.0625,1.26563 -2.67187,1.26563 -2,0 -3.09375,-1.4375 -1.09375,-1.4375 -1.09375,-3.45313 0,-1.39062 0.5,-2.5625 0.51562,-1.17187 1.45312,-1.79687 0.95313,-0.64063 2.25,-0.64063 1.70313,0 2.8125,1.375 v -1.15625 h 1.51563 v 8.35938 q 0,2.26562 -0.46875,3.20312 -0.45313,0.9375 -1.45313,1.48438 -0.98437,0.54687 -2.45312,0.54687 -1.71875,0 -2.79688,-0.78125 -1.0625,-0.76562 -1.03125,-2.34375 z m 1.35938,-5.8125 q 0,1.90625 0.75,2.78125 0.76562,0.875 1.90625,0.875 1.125,0 1.89062,-0.85937 0.76563,-0.875 0.76563,-2.73438 0,-1.78125 -0.79688,-2.67187 -0.78125,-0.90625 -1.89062,-0.90625 -1.09375,0 -1.85938,0.89062 -0.76562,0.875 -0.76562,2.625 z m 9.32885,-6.45312 v -1.89063 h 1.64063 v 1.89063 z m 0,11.46875 v -9.67188 h 1.64063 v 9.67188 z m 4.14478,0 v -9.67188 h 1.46875 v 1.375 q 1.0625,-1.59375 3.07813,-1.59375 0.875,0 1.60937,0.3125 0.73438,0.3125 1.09375,0.82813 0.375,0.5 0.51563,1.20312 0.0937,0.45313 0.0937,1.59375 v 5.95313 h -1.64063 v -5.89063 q 0,-1 -0.20312,-1.48437 -0.1875,-0.5 -0.67188,-0.79688 -0.48437,-0.29687 -1.14062,-0.29687 -1.04688,0 -1.8125,0.67187 -0.75,0.65625 -0.75,2.51563 v 5.28125 z"
     fill-rule="nonzero"
     id="path47" />
  <path
     fill="#efefef"
     d="m 387.70997,272.45537 h 289.41736 v 38.86615 H 387.70997 Z"
     fill-rule="evenodd"
     id="path49" />
  <path
     stroke="#000000"
     stroke-width="1"
     stroke-linejoin="round"
     stroke-linecap="butt"
     d="m 387.70997,272.45537 h 289.41736 v 38.86615 H 387.70997 Z"
     fill-rule="evenodd"
     id="path51" />
  <path
     fill="#000000"
     d="m 445.52817,302.73034 q -1.35938,-1.70313 -2.29688,-4 -0.9375,-2.29688 -0.9375,-4.76563 0,-2.15625 0.70313,-4.14062 0.82812,-2.3125 2.53125,-4.59375 h 1.17187 q -1.09375,1.89062 -1.45312,2.70312 -0.54688,1.25 -0.875,2.625 -0.39063,1.70313 -0.39063,3.42188 0,4.375 2.71875,8.75 z m 2.4783,-8.76563 q 0,-2.6875 1.48438,-3.96875 1.25,-1.07812 3.04687,-1.07812 2,0 3.26563,1.3125 1.26562,1.29687 1.26562,3.60937 0,1.85938 -0.5625,2.9375 -0.5625,1.0625 -1.64062,1.65625 -1.0625,0.59375 -2.32813,0.59375 -2.03125,0 -3.28125,-1.29687 -1.25,-1.3125 -1.25,-3.76563 z m 1.6875,0 q 0,1.85938 0.79688,2.79688 0.8125,0.92187 2.04687,0.92187 1.21875,0 2.03125,-0.92187 0.8125,-0.9375 0.8125,-2.84375 0,-1.79688 -0.8125,-2.71875 -0.8125,-0.92188 -2.03125,-0.92188 -1.23437,0 -2.04687,0.92188 -0.79688,0.90625 -0.79688,2.76562 z m 12.87573,3.375 0.23438,1.45313 q -0.6875,0.14062 -1.23438,0.14062 -0.89062,0 -1.39062,-0.28125 -0.48438,-0.28125 -0.6875,-0.73437 -0.20313,-0.46875 -0.20313,-1.9375 v -5.57813 h -1.20312 v -1.26562 h 1.20312 v -2.39063 l 1.625,-0.98437 v 3.375 h 1.65625 v 1.26562 h -1.65625 v 5.67188 q 0,0.6875 0.0781,0.89062 0.0937,0.20313 0.28125,0.32813 0.20312,0.10937 0.57812,0.10937 0.26563,0 0.71875,-0.0625 z m 1.60517,1.46875 v -13.35937 h 1.64062 v 4.79687 q 1.14063,-1.32812 2.89063,-1.32812 1.07812,0 1.85937,0.42187 0.79688,0.42188 1.14063,1.17188 0.34375,0.75 0.34375,2.17187 v 6.125 h -1.64063 v -6.125 q 0,-1.23437 -0.53125,-1.79687 -0.53125,-0.5625 -1.51562,-0.5625 -0.71875,0 -1.35938,0.39062 -0.64062,0.375 -0.92187,1.01563 -0.26563,0.64062 -0.26563,1.78125 v 5.29687 z m 17.00073,-3.10937 1.6875,0.20312 q -0.40625,1.48438 -1.48438,2.3125 -1.07812,0.8125 -2.76562,0.8125 -2.125,0 -3.375,-1.29687 -1.23438,-1.3125 -1.23438,-3.67188 0,-2.45312 1.25,-3.79687 1.26563,-1.34375 3.26563,-1.34375 1.9375,0 3.15625,1.32812 1.23437,1.3125 1.23437,3.70313 0,0.15625 0,0.4375 h -7.21875 q 0.0937,1.59375 0.90625,2.45312 0.8125,0.84375 2.01563,0.84375 0.90625,0 1.54687,-0.46875 0.64063,-0.48437 1.01563,-1.51562 z m -5.39063,-2.65625 h 5.40625 q -0.10937,-1.21875 -0.625,-1.82813 -0.78125,-0.95312 -2.03125,-0.95312 -1.125,0 -1.90625,0.76562 -0.76562,0.75 -0.84375,2.01563 z m 9.12574,5.76562 v -9.67187 h 1.46875 v 1.46875 q 0.5625,-1.03125 1.03125,-1.35938 0.48437,-0.32812 1.0625,-0.32812 0.82812,0 1.6875,0.53125 l -0.5625,1.51562 q -0.60938,-0.35937 -1.20313,-0.35937 -0.54687,0 -0.96875,0.32812 -0.42187,0.32813 -0.60937,0.89063 -0.28125,0.875 -0.28125,1.92187 v 5.0625 z m 11.39593,0 v -9.67187 h 1.46875 v 1.46875 q 0.5625,-1.03125 1.03125,-1.35938 0.48438,-0.32812 1.0625,-0.32812 0.82813,0 1.6875,0.53125 l -0.5625,1.51562 q -0.60937,-0.35937 -1.20312,-0.35937 -0.54688,0 -0.96875,0.32812 -0.42188,0.32813 -0.60938,0.89063 -0.28125,0.875 -0.28125,1.92187 v 5.0625 z m 12.85333,-3.10937 1.6875,0.20312 q -0.40625,1.48438 -1.48437,2.3125 -1.07813,0.8125 -2.76563,0.8125 -2.125,0 -3.375,-1.29687 -1.23437,-1.3125 -1.23437,-3.67188 0,-2.45312 1.25,-3.79687 1.26562,-1.34375 3.26562,-1.34375 1.9375,0 3.15625,1.32812 1.23438,1.3125 1.23438,3.70313 0,0.15625 0,0.4375 h -7.21875 q 0.0937,1.59375 0.90625,2.45312 0.8125,0.84375 2.01562,0.84375 0.90625,0 1.54688,-0.46875 0.64062,-0.48437 1.01562,-1.51562 z m -5.39062,-2.65625 h 5.40625 q -0.10938,-1.21875 -0.625,-1.82813 -0.78125,-0.95312 -2.03125,-0.95312 -1.125,0 -1.90625,0.76562 -0.76563,0.75 -0.84375,2.01563 z m 9.14136,5.76562 v -9.67187 h 1.46875 v 1.35937 q 0.45312,-0.71875 1.20312,-1.14062 0.76563,-0.4375 1.71875,-0.4375 1.07813,0 1.76563,0.45312 0.6875,0.4375 0.96875,1.23438 1.15625,-1.6875 2.98437,-1.6875 1.45313,0 2.21875,0.79687 0.78125,0.79688 0.78125,2.45313 v 6.64062 h -1.64062 v -6.09375 q 0,-0.98437 -0.15625,-1.40625 -0.15625,-0.4375 -0.57813,-0.70312 -0.42187,-0.26563 -0.98437,-0.26563 -1.01563,0 -1.6875,0.6875 -0.67188,0.67188 -0.67188,2.15625 v 5.625 h -1.64062 v -6.28125 q 0,-1.09375 -0.40625,-1.64062 -0.40625,-0.54688 -1.3125,-0.54688 -0.6875,0 -1.28125,0.35938 -0.59375,0.35937 -0.85938,1.0625 -0.25,0.70312 -0.25,2.03125 v 5.01562 z m 14.93139,-4.84375 q 0,-2.6875 1.48438,-3.96875 1.25,-1.07812 3.04687,-1.07812 2,0 3.26563,1.3125 1.26562,1.29687 1.26562,3.60937 0,1.85938 -0.5625,2.9375 -0.5625,1.0625 -1.64062,1.65625 -1.0625,0.59375 -2.32813,0.59375 -2.03125,0 -3.28125,-1.29687 -1.25,-1.3125 -1.25,-3.76563 z m 1.6875,0 q 0,1.85938 0.79688,2.79688 0.8125,0.92187 2.04687,0.92187 1.21875,0 2.03125,-0.92187 0.8125,-0.9375 0.8125,-2.84375 0,-1.79688 -0.8125,-2.71875 -0.8125,-0.92188 -2.03125,-0.92188 -1.23437,0 -2.04687,0.92188 -0.79688,0.90625 -0.79688,2.76562 z m 12.87573,3.375 0.23438,1.45313 q -0.6875,0.14062 -1.23438,0.14062 -0.89062,0 -1.39062,-0.28125 -0.48438,-0.28125 -0.6875,-0.73437 -0.20313,-0.46875 -0.20313,-1.9375 v -5.57813 h -1.20312 v -1.26562 h 1.20312 v -2.39063 l 1.625,-0.98437 v 3.375 h 1.65625 v 1.26562 h -1.65625 v 5.67188 q 0,0.6875 0.0781,0.89062 0.0937,0.20313 0.28125,0.32813 0.20312,0.10937 0.57812,0.10937 0.26563,0 0.71875,-0.0625 z m 8.23017,-1.64062 1.6875,0.20312 q -0.40625,1.48438 -1.48438,2.3125 -1.07812,0.8125 -2.76562,0.8125 -2.125,0 -3.375,-1.29687 -1.23438,-1.3125 -1.23438,-3.67188 0,-2.45312 1.25,-3.79687 1.26563,-1.34375 3.26563,-1.34375 1.9375,0 3.15625,1.32812 1.23437,1.3125 1.23437,3.70313 0,0.15625 0,0.4375 h -7.21875 q 0.0937,1.59375 0.90625,2.45312 0.8125,0.84375 2.01563,0.84375 0.90625,0 1.54687,-0.46875 0.64063,-0.48437 1.01563,-1.51562 z m -5.39063,-2.65625 h 5.40625 q -0.10937,-1.21875 -0.625,-1.82813 -0.78125,-0.95312 -2.03125,-0.95312 -1.125,0 -1.90625,0.76562 -0.76562,0.75 -0.84375,2.01563 z m 14.32465,9.46875 v -13.375 h 1.48437 v 1.25 q 0.53125,-0.73438 1.1875,-1.09375 0.67188,-0.375 1.625,-0.375 1.23438,0 2.17188,0.64062 0.95312,0.625 1.4375,1.79688 0.48437,1.15625 0.48437,2.54687 0,1.48438 -0.53125,2.67188 -0.53125,1.1875 -1.54687,1.82812 -1.01563,0.625 -2.14063,0.625 -0.8125,0 -1.46875,-0.34375 -0.65625,-0.34375 -1.0625,-0.875 v 4.70313 z m 1.48437,-8.48438 q 0,1.85938 0.75,2.76563 0.76563,0.89062 1.82813,0.89062 1.09375,0 1.875,-0.92187 0.78125,-0.9375 0.78125,-2.875 0,-1.84375 -0.76563,-2.76563 -0.75,-0.92187 -1.8125,-0.92187 -1.04687,0 -1.85937,0.98437 -0.79688,0.96875 -0.79688,2.84375 z m 8.84449,4.78125 v -13.35937 h 1.64062 v 13.35937 z m 10.51983,0 v -1.42187 q -1.125,1.64062 -3.0625,1.64062 -0.85937,0 -1.60937,-0.32812 -0.73438,-0.32813 -1.09375,-0.82813 -0.35938,-0.5 -0.5,-1.21875 -0.10938,-0.46875 -0.10938,-1.53125 v -5.98437 h 1.64063 v 5.35937 q 0,1.28125 0.10937,1.73438 0.15625,0.64062 0.65625,1.01562 0.5,0.375 1.23438,0.375 0.73437,0 1.375,-0.375 0.65625,-0.39062 0.92187,-1.03125 0.26563,-0.65625 0.26563,-1.89062 v -5.1875 h 1.64062 v 9.67187 z m 3.73505,0.79688 1.59375,0.23437 q 0.10937,0.75 0.5625,1.07813 0.60937,0.45312 1.67187,0.45312 1.14063,0 1.75,-0.45312 0.625,-0.45313 0.84375,-1.26563 0.125,-0.5 0.10938,-2.10937 -1.0625,1.26562 -2.67188,1.26562 -2,0 -3.09375,-1.4375 -1.09375,-1.4375 -1.09375,-3.45312 0,-1.39063 0.5,-2.5625 0.51563,-1.17188 1.45313,-1.79688 0.95312,-0.64062 2.25,-0.64062 1.70312,0 2.8125,1.375 v -1.15625 h 1.51562 v 8.35937 q 0,2.26563 -0.46875,3.20313 -0.45312,0.9375 -1.45312,1.48437 -0.98438,0.54688 -2.45313,0.54688 -1.71875,0 -2.79687,-0.78125 -1.0625,-0.76563 -1.03125,-2.34375 z m 1.35937,-5.8125 q 0,1.90625 0.75,2.78125 0.76563,0.875 1.90625,0.875 1.125,0 1.89063,-0.85938 0.76562,-0.875 0.76562,-2.73437 0,-1.78125 -0.79687,-2.67188 -0.78125,-0.90625 -1.89063,-0.90625 -1.09375,0 -1.85937,0.89063 -0.76563,0.875 -0.76563,2.625 z m 9.32886,-6.45313 v -1.89062 h 1.64063 v 1.89062 z m 0,11.46875 v -9.67187 h 1.64063 v 9.67187 z m 4.14484,0 v -9.67187 h 1.46875 v 1.375 q 1.0625,-1.59375 3.07812,-1.59375 0.875,0 1.60938,0.3125 0.73437,0.3125 1.09375,0.82812 0.375,0.5 0.51562,1.20313 0.0937,0.45312 0.0937,1.59375 v 5.95312 h -1.64062 v -5.89062 q 0,-1 -0.20313,-1.48438 -0.1875,-0.5 -0.67187,-0.79687 -0.48438,-0.29688 -1.14063,-0.29688 -1.04687,0 -1.8125,0.67188 -0.75,0.65625 -0.75,2.51562 v 5.28125 z m 9.71948,-2.89062 1.625,-0.25 q 0.125,0.96875 0.75,1.5 0.625,0.51562 1.75,0.51562 1.125,0 1.67187,-0.45312 0.54688,-0.46875 0.54688,-1.09375 0,-0.54688 -0.48438,-0.875 -0.32812,-0.21875 -1.67187,-0.54688 -1.8125,-0.46875 -2.51563,-0.79687 -0.6875,-0.32813 -1.04687,-0.90625 -0.35938,-0.59375 -0.35938,-1.3125 0,-0.64063 0.29688,-1.1875 0.29687,-0.5625 0.8125,-0.92188 0.375,-0.28125 1.03125,-0.46875 0.67187,-0.20312 1.42187,-0.20312 1.14063,0 2,0.32812 0.85938,0.32813 1.26563,0.89063 0.42187,0.5625 0.57812,1.5 l -1.60937,0.21875 q -0.10938,-0.75 -0.64063,-1.17188 -0.51562,-0.42187 -1.46875,-0.42187 -1.14062,0 -1.625,0.375 -0.46875,0.375 -0.46875,0.875 0,0.3125 0.1875,0.57812 0.20313,0.26563 0.64063,0.4375 0.23437,0.0937 1.4375,0.42188 1.75,0.45312 2.4375,0.75 0.6875,0.29687 1.07812,0.85937 0.39063,0.5625 0.39063,1.40625 0,0.82813 -0.48438,1.54688 -0.46875,0.71875 -1.375,1.125 -0.90625,0.39062 -2.04687,0.39062 -1.875,0 -2.875,-0.78125 -0.98438,-0.78125 -1.25,-2.32812 z m 11.0625,6.8125 h -1.1875 q 2.73437,-4.375 2.73437,-8.75 0,-1.71875 -0.39062,-3.39063 -0.3125,-1.375 -0.875,-2.625 -0.35938,-0.82812 -1.46875,-2.73437 h 1.1875 q 1.70312,2.28125 2.53125,4.59375 0.6875,1.98437 0.6875,4.14062 0,2.46875 -0.9375,4.76563 -0.9375,2.29687 -2.28125,4 z"
     fill-rule="nonzero"
     id="path53" />
</svg>
