<?xml version="1.0" encoding="UTF-8" standalone="no"?>
<svg
   xmlns:dc="http://purl.org/dc/elements/1.1/"
   xmlns:cc="http://creativecommons.org/ns#"
   xmlns:rdf="http://www.w3.org/1999/02/22-rdf-syntax-ns#"
   xmlns:svg="http://www.w3.org/2000/svg"
   xmlns="http://www.w3.org/2000/svg"
   xmlns:xlink="http://www.w3.org/1999/xlink"
   xmlns:sodipodi="http://sodipodi.sourceforge.net/DTD/sodipodi-0.dtd"
   xmlns:inkscape="http://www.inkscape.org/namespaces/inkscape"
   version="1.1"
   x="0px"
   y="0px"
   width="7442.9028"
   height="1674.319"
   viewBox="0 0 7442.9028 1674.319"
   enable-background="new 0 0 8000 4000"
   xml:space="preserve"
   id="svg146"
   sodipodi:docname="m.svg"
   inkscape:version="1.0 (4035a4fb49, 2020-05-01)"><metadata
   id="metadata152"><rdf:RDF><cc:Work
       rdf:about=""><dc:format>image/svg+xml</dc:format><dc:type
         rdf:resource="http://purl.org/dc/dcmitype/StillImage" /><dc:title></dc:title></cc:Work></rdf:RDF></metadata><defs
   id="defs150">
		
	
		
	
		
	
		
	
		
	
		
	
		
	
		
	
		
	
		
	
		
	
		
		
		
		
		
		
		
		
		
		
		
		
		
		
		
		
		
	
		
	
		
	
	

	
	

	
	
	
	
	
</defs><sodipodi:namedview
   inkscape:document-rotation="0"
   pagecolor="#ffffff"
   bordercolor="#666666"
   borderopacity="1"
   objecttolerance="10"
   gridtolerance="10"
   guidetolerance="10"
   inkscape:pageopacity="0"
   inkscape:pageshadow="2"
   inkscape:window-width="1625"
   inkscape:window-height="862"
   id="namedview148"
   showgrid="false"
   inkscape:zoom="0.19657569"
   inkscape:cx="1911.3641"
   inkscape:cy="656.1482"
   inkscape:window-x="3534"
   inkscape:window-y="134"
   inkscape:window-maximized="0"
   inkscape:current-layer="svg146" />

<rect
   id="rect93"
   height="122.602"
   width="103.018"
   stroke-miterlimit="10"
   stroke="#000000"
   fill="#020202"
   y="311.15601"
   x="886.29095" />
<g
   id="Layer_13"
   transform="translate(-449.76801,-1189.844)">
</g>
<g
   id="Layer_14"
   transform="translate(-449.76801,-1189.844)">
</g>
<g
   id="Layer_12"
   transform="translate(-449.76801,-1189.844)">
</g>
<g
   id="Layer_17"
   transform="translate(-449.76801,-1189.844)">
</g>
<g
   id="Layer_11"
   transform="translate(-449.76801,-1189.844)">
</g>
<g
   id="Layer_2"
   transform="translate(-449.76801,-1189.844)">
</g>
<g
   id="Layer_4"
   transform="translate(-449.76801,-1189.844)">
</g>
<g
   id="g109"
   transform="translate(-449.76801,-1189.844)">
		<polygon
   id="polygon103"
   points="1165.142,1392.675 1676.359,1690.179 1674.322,2281.658 1161.066,2575.635 649.851,2278.131 651.888,1686.65 "
   fill="#f06a24" />
		<g
   id="g107">
			<path
   id="path105"
   d="m 1646.058,2233.304 c -29.938,17.147 -59.877,34.296 -89.815,51.443 -63.964,36.637 -127.929,73.273 -191.893,109.91 -59.214,33.916 -118.429,67.832 -177.643,101.748 -17.968,10.292 -35.936,20.583 -53.904,30.875 18.843,0 37.686,0 56.528,0 -29.819,-17.354 -59.639,-34.707 -89.458,-52.061 -63.71,-37.076 -127.42,-74.152 -191.13,-111.229 -58.979,-34.322 -117.958,-68.646 -176.937,-102.969 -17.897,-10.415 -35.793,-20.83 -53.69,-31.245 9.245,16.118 18.491,32.236 27.736,48.354 0.119,-34.501 0.238,-69.002 0.356,-103.504 0.254,-73.713 0.508,-147.426 0.762,-221.139 0.235,-68.239 0.47,-136.478 0.705,-204.717 0.071,-20.707 0.143,-41.414 0.214,-62.12 -9.245,16.118 -18.491,32.236 -27.736,48.354 29.938,-17.148 59.876,-34.295 89.815,-51.443 63.964,-36.637 127.928,-73.273 191.892,-109.91 59.214,-33.916 118.428,-67.832 177.642,-101.748 17.968,-10.292 35.936,-20.583 53.904,-30.875 -18.843,0 -37.686,0 -56.528,0 29.819,17.354 59.639,34.707 89.458,52.061 63.71,37.076 127.42,74.152 191.131,111.229 58.979,34.323 117.958,68.646 176.938,102.969 17.896,10.415 35.793,20.83 53.69,31.245 -9.245,-16.118 -18.491,-32.236 -27.736,-48.354 -0.119,34.501 -0.238,69.002 -0.356,103.503 -0.254,73.713 -0.508,147.426 -0.762,221.139 -0.235,68.239 -0.47,136.478 -0.705,204.717 -0.071,20.707 -0.143,41.413 -0.214,62.12 -0.105,30.527 25.553,56 56,56 30.606,0 55.895,-25.475 56,-56 0.119,-34.501 0.238,-69.002 0.356,-103.504 0.254,-73.713 0.508,-147.426 0.762,-221.139 0.235,-68.239 0.47,-136.478 0.705,-204.717 0.062,-18.103 0.125,-36.205 0.187,-54.308 0.01,-2.603 0.018,-5.206 0.027,-7.81 0.07,-20.439 -11.365,-38.83 -28.804,-48.979 -1.406,-0.818 -2.812,-1.636 -4.218,-2.455 -40.813,-23.751 -81.625,-47.502 -122.437,-71.252 -66.013,-38.417 -132.026,-76.833 -198.04,-115.25 -52.592,-30.606 -105.184,-61.212 -157.776,-91.818 -9.226,-5.369 -18.452,-10.738 -27.678,-16.107 -17.44,-10.149 -39.077,-9.995 -56.528,0 -29.938,17.148 -59.876,34.295 -89.815,51.443 -63.964,36.637 -127.928,73.273 -191.892,109.91 -59.214,33.916 -118.428,67.832 -177.642,101.748 -15.708,8.997 -31.417,17.995 -47.125,26.992 -2.259,1.294 -4.518,2.587 -6.777,3.881 -17.769,10.177 -27.673,29.466 -27.743,49.592 -0.005,1.626 -0.011,3.253 -0.017,4.88 -0.163,47.22 -0.325,94.44 -0.488,141.66 -0.263,76.377 -0.526,152.755 -0.79,229.133 -0.209,60.849 -0.419,121.698 -0.628,182.548 -0.037,10.637 -0.073,21.273 -0.11,31.911 -0.119,34.502 24.117,46.36 48.001,60.261 49.85,29.01 99.699,58.021 149.549,87.03 66.36,38.619 132.721,77.237 199.082,115.856 44.25,25.751 88.499,51.502 132.749,77.254 3.19,1.856 6.38,3.713 9.57,5.569 17.44,10.149 39.077,9.995 56.528,0 29.938,-17.147 59.877,-34.296 89.815,-51.443 63.965,-36.637 127.929,-73.273 191.893,-109.91 59.214,-33.916 118.429,-67.832 177.643,-101.748 17.968,-10.292 35.937,-20.583 53.904,-30.875 26.447,-15.148 35.412,-50.463 20.09,-76.618 -15.514,-26.484 -50.12,-35.265 -76.617,-20.088 z"
   fill="#f06a24" />
		</g>
	</g><g
   id="g125"
   transform="translate(-449.76801,-1189.844)">
		<defs
   id="defs112">
			<path
   d="m 580.566,2504.26 c -2.961,0.496 -4.937,-2.218 -5.925,-8.124 -1.731,-10.349 13.763,-44.819 46.505,-103.468 4.671,-8.375 23.803,-41.568 57.393,-99.598 33.574,-58.025 56.776,-98.733 69.569,-122.147 47.479,-88.444 77.99,-154.693 91.503,-198.727 13.515,-44.033 18.063,-79.354 13.613,-105.957 -10.131,-60.577 -65.444,-82.478 -165.917,-65.673 -106.395,17.794 -239.738,69.726 -400.032,155.778 -112.168,60.532 -165.333,108.153 -159.524,142.884 2.099,12.553 12.637,23.33 31.608,32.301 5.661,2.098 5.749,3.804 0.273,5.1 -5.474,1.296 -10.25,1.135 -14.322,-0.467 -24.648,-11.064 -38.932,-28.414 -42.889,-52.07 -3.954,-23.642 -1.055,-48.248 8.733,-73.807 9.772,-25.557 28.758,-49.429 56.96,-71.616 64.131,-52.483 143.591,-99.571 238.395,-141.269 101.824,-45.122 198.916,-75.421 291.277,-90.868 97.527,-16.312 163.353,-8.709 197.492,22.805 22.29,19.813 35.328,40.994 39.096,63.524 3.769,22.531 3.065,45.628 -2.08,69.27 -8.715,47.797 -27.532,96.522 -56.438,146.157 -5.795,10.846 -25.751,44.757 -59.899,101.721 -34.146,56.98 -60.56,102.229 -79.259,135.731 219.765,-325.364 383.953,-497.136 492.569,-515.302 31.029,-5.189 55.416,4.414 73.172,28.774 9.842,13.542 15.707,25.861 17.56,36.934 1.854,11.089 3.214,23.766 4.096,38.044 3.959,37.322 -15.53,111.604 -58.438,222.824 74.432,-108.898 142.731,-195.513 204.897,-259.844 75.088,-77.873 142.92,-121.875 203.497,-132.005 34.729,-5.809 54.536,5.884 59.416,35.062 4.883,29.194 -6.581,74.208 -34.372,135.055 -164.466,356.381 -237.85,587.381 -220.179,693.035 5.561,33.25 18.181,49.751 37.892,49.497 12.182,0.231 24.131,-5.571 35.836,-17.391 4.547,-4.565 9.067,-4.743 13.574,-0.549 4.484,4.162 3.933,9.963 -1.662,17.367 -5.599,7.371 -12.83,11.824 -21.697,13.307 -8.868,1.482 -19.34,2.475 -31.4,2.969 -12.061,0.494 -28.347,-1.529 -48.86,-6.073 -20.513,-4.542 -38.738,-14.796 -54.704,-30.721 -15.967,-15.94 -25.789,-34.995 -29.495,-57.155 -5.313,-31.77 -6.016,-60.901 -2.075,-87.387 10.178,-61.706 79.293,-222.871 207.354,-483.546 38.507,-78.587 55.226,-133.034 50.157,-163.338 -3.828,-22.885 -17.573,-32.366 -41.199,-28.414 -31.785,5.316 -66.387,27.812 -103.791,67.487 -80.005,84.783 -166.14,198.683 -258.424,341.704 -22.625,55.434 -51.232,120.604 -85.792,195.486 -5.053,10.739 -12.008,16.834 -20.859,18.314 -29.564,4.943 -45.449,0.766 -47.676,-12.542 -0.493,-2.945 -0.248,-6.029 0.738,-9.239 87.061,-233.304 132.982,-381.109 137.746,-443.433 0.967,-21.42 0.502,-37.854 -1.415,-49.312 -1.916,-11.459 -3.799,-20.442 -5.65,-26.965 -8.765,-20.554 -23.851,-29.049 -45.272,-25.466 -21.437,3.585 -48.574,20.664 -81.434,51.207 -56.738,51.279 -124.5,129.83 -203.253,235.646 -78.765,105.837 -153.273,214.385 -223.525,325.63 -1.85,2.591 -4.257,4.12 -7.203,4.611 -33.835,61.114 -55.929,92.52 -66.261,94.249 z"
   id="SVGID_1_" />
		</defs>
		<clipPath
   id="SVGID_2_">
			<use
   height="100%"
   width="100%"
   y="0"
   x="0"
   id="use114"
   overflow="visible"
   xlink:href="#SVGID_1_" />
		</clipPath>
		<g
   id="g123"
   clip-path="url(#SVGID_2_)">
			<polygon
   id="polygon117"
   points="1165.064,1392.637 1676.281,1690.141 1674.244,2281.62 1160.989,2575.596 649.773,2278.091 651.811,1686.612 "
   fill="#ffffff" />
			<g
   id="g121">
				<path
   id="path119"
   d="m 1645.979,2233.266 c -29.938,17.147 -59.877,34.295 -89.815,51.443 -63.964,36.637 -127.929,73.273 -191.893,109.91 -59.214,33.916 -118.428,67.832 -177.643,101.748 -17.968,10.291 -35.937,20.582 -53.904,30.874 18.843,0 37.686,0 56.528,0 -29.819,-17.354 -59.639,-34.707 -89.458,-52.061 -63.71,-37.076 -127.42,-74.153 -191.13,-111.229 -58.979,-34.323 -117.958,-68.646 -176.937,-102.969 -17.897,-10.416 -35.793,-20.831 -53.69,-31.246 9.246,16.118 18.491,32.236 27.736,48.354 0.119,-34.501 0.238,-69.002 0.356,-103.503 0.254,-73.713 0.508,-147.426 0.762,-221.139 0.235,-68.239 0.47,-136.478 0.705,-204.716 0.071,-20.707 0.143,-41.414 0.214,-62.12 -9.245,16.118 -18.49,32.236 -27.736,48.354 29.938,-17.148 59.876,-34.295 89.815,-51.443 63.964,-36.637 127.928,-73.273 191.892,-109.91 59.214,-33.916 118.428,-67.832 177.642,-101.748 17.968,-10.292 35.937,-20.583 53.904,-30.875 -18.843,0 -37.686,0 -56.528,0 29.819,17.354 59.639,34.707 89.458,52.061 63.71,37.076 127.421,74.152 191.131,111.229 58.979,34.323 117.958,68.646 176.938,102.969 17.897,10.415 35.793,20.83 53.69,31.245 -9.246,-16.118 -18.491,-32.236 -27.736,-48.354 -0.119,34.501 -0.238,69.002 -0.356,103.503 -0.254,73.713 -0.508,147.426 -0.762,221.139 -0.235,68.239 -0.47,136.479 -0.706,204.717 -0.071,20.707 -0.143,41.414 -0.214,62.12 -0.105,30.528 25.553,56 56,56 30.606,0 55.895,-25.475 56,-56 0.119,-34.501 0.238,-69.003 0.356,-103.504 0.254,-73.713 0.508,-147.426 0.762,-221.139 0.235,-68.239 0.47,-136.478 0.705,-204.717 0.071,-20.707 0.143,-41.414 0.214,-62.12 0.068,-19.684 -10.737,-38.462 -27.736,-48.354 -29.819,-17.354 -59.639,-34.707 -89.458,-52.061 -63.71,-37.076 -127.42,-74.152 -191.131,-111.229 -58.979,-34.323 -117.958,-68.646 -176.938,-102.969 -17.896,-10.415 -35.793,-20.83 -53.69,-31.245 -17.44,-10.149 -39.077,-9.995 -56.528,0 -29.938,17.148 -59.876,34.295 -89.815,51.443 -63.964,36.637 -127.928,73.273 -191.892,109.91 -59.214,33.916 -118.428,67.832 -177.642,101.748 -15.708,8.997 -31.417,17.995 -47.125,26.992 -2.259,1.294 -4.518,2.587 -6.777,3.881 -17.769,10.177 -27.673,29.466 -27.743,49.592 -0.005,1.626 -0.011,3.253 -0.017,4.88 -0.163,47.22 -0.325,94.44 -0.488,141.66 -0.263,76.377 -0.526,152.754 -0.789,229.131 -0.21,60.85 -0.419,121.698 -0.629,182.547 -0.037,10.638 -0.073,21.274 -0.11,31.912 -0.119,34.502 24.117,46.361 48.001,60.261 49.85,29.011 99.699,58.021 149.549,87.03 66.36,38.619 132.721,77.238 199.082,115.857 44.25,25.751 88.499,51.502 132.749,77.254 3.19,1.856 6.38,3.713 9.57,5.569 17.44,10.149 39.077,9.995 56.528,0 29.938,-17.147 59.877,-34.296 89.815,-51.443 63.964,-36.637 127.929,-73.273 191.893,-109.909 59.214,-33.916 118.428,-67.832 177.643,-101.748 17.968,-10.292 35.937,-20.584 53.904,-30.875 26.447,-15.148 35.412,-50.463 20.09,-76.619 -15.512,-26.485 -50.118,-35.265 -76.616,-20.088 z"
   fill="#ffffff" />
			</g>
		</g>
	</g>
<g
   id="Layer_5"
   transform="translate(-449.76801,-1189.844)">
</g>

<g
   id="Layer_15"
   transform="translate(-449.76801,-1189.844)">
</g>
<g
   id="Layer_8"
   transform="translate(-449.76801,-1189.844)">
</g>
<g
   id="Layer_7"
   transform="translate(-449.76801,-1189.844)">
</g>
<g
   id="Layer_18"
   transform="translate(-449.76801,-1189.844)">
</g>
<g
   id="Layer_9"
   transform="translate(-449.76801,-1189.844)">
</g>
<g
   id="Layer_10"
   transform="translate(-449.76801,-1189.844)">
</g>
</svg>
