<?xml version="1.0" encoding="UTF-8" standalone="no"?>
<svg
   xmlns:dc="http://purl.org/dc/elements/1.1/"
   xmlns:cc="http://creativecommons.org/ns#"
   xmlns:rdf="http://www.w3.org/1999/02/22-rdf-syntax-ns#"
   xmlns:svg="http://www.w3.org/2000/svg"
   xmlns="http://www.w3.org/2000/svg"
   xmlns:xlink="http://www.w3.org/1999/xlink"
   xmlns:sodipodi="http://sodipodi.sourceforge.net/DTD/sodipodi-0.dtd"
   xmlns:inkscape="http://www.inkscape.org/namespaces/inkscape"
   inkscape:version="1.0 (4035a4fb49, 2020-05-01)"
   sodipodi:docname="moritz.svg"
   id="svg146"
   xml:space="preserve"
   enable-background="new 0 0 8000 4000"
   viewBox="0 0 7442.9028 1674.319"
   height="1674.319"
   width="7442.9028"
   y="0px"
   x="0px"
   version="1.1"><metadata
   id="metadata152"><rdf:RDF><cc:Work
       rdf:about=""><dc:format>image/svg+xml</dc:format><dc:type
         rdf:resource="http://purl.org/dc/dcmitype/StillImage" /><dc:title></dc:title></cc:Work></rdf:RDF></metadata><defs
   id="defs150">
		
	
		
	
		
	
		
	
		
	
		
	
		
	
		
	
		
	
		
	
		
	
		
		
		
		
		
		
		
		
		
		
		
		
		
		
		
		
		
	
		
	
		
	
	

	
	

	
	
	
	
	
</defs><sodipodi:namedview
   inkscape:current-layer="Layer_1"
   inkscape:window-maximized="0"
   inkscape:window-y="19"
   inkscape:window-x="0"
   inkscape:cy="656.1482"
   inkscape:cx="3582.1555"
   inkscape:zoom="0.19657569"
   showgrid="false"
   id="namedview148"
   inkscape:window-height="1059"
   inkscape:window-width="1918"
   inkscape:pageshadow="2"
   inkscape:pageopacity="0"
   guidetolerance="10"
   gridtolerance="10"
   objecttolerance="10"
   borderopacity="1"
   bordercolor="#666666"
   pagecolor="#ffffff" />
<g
   transform="translate(-449.76801,-1189.844)"
   id="Layer_1">
	
	<path
   fill="#787878"
   d="m 2298,1801.069 c 0,-27.274 13.631,-40.919 40.919,-40.919 h 235.064 c 47.012,0 82.707,12.053 107.084,36.131 24.378,24.091 36.566,59.064 36.566,104.908 0,34.253 -8.707,62.833 -26.119,85.754 -17.413,22.936 -41.789,39.327 -73.131,49.189 l 98.379,128.85 c 24.948,33.083 15.957,49.625 -26.989,49.625 -22.063,0 -39.178,-8.407 -51.365,-25.247 l -107.955,-145.393 h -64.425 c -23.222,0 -34.825,-12.475 -34.825,-37.436 0,-23.792 11.603,-35.695 34.825,-35.695 h 99.248 c 22.052,0 39.464,-6.23 52.236,-18.718 12.761,-12.474 19.154,-29.736 19.154,-51.801 0,-24.949 -5.088,-42.36 -15.235,-52.237 -10.162,-9.862 -28.88,-14.8 -56.155,-14.8 h -186.31 v 341.277 c 0,26.704 -13.644,40.049 -40.918,40.049 -26.703,0 -40.048,-13.345 -40.048,-40.049 z"
   id="path4" />
	<path
   fill="#787878"
   d="m 2958.865,1796.418 c 0,-24.365 12.183,-36.548 36.549,-36.548 h 369.833 c 23.781,0 35.678,12.183 35.678,36.548 0,24.367 -11.896,36.549 -35.678,36.549 h -369.833 c -24.366,0 -36.549,-12.182 -36.549,-36.549 z m 180.131,377.666 v -254.968 c 0,-26.106 13.053,-39.159 39.159,-39.159 h 2.611 c 26.105,0 39.158,13.053 39.158,39.159 v 254.968 c 0,26.69 -13.923,40.03 -41.769,40.03 -26.106,0 -39.159,-13.34 -39.159,-40.03 z"
   id="path8" />
	<path
   fill="#787878"
   d="m 3455.489,2189.127 c 0,-9.376 3.217,-17.885 9.678,-25.513 l 234.021,-268.333 c 7.038,-8.206 16.125,-12.317 27.273,-12.317 h 46.628 c 21.692,0 25.514,8.509 11.438,25.514 l -202.349,232.261 h 253.375 c 24.043,0 36.071,12.318 36.071,36.952 0,24.633 -12.028,36.949 -36.071,36.949 h -355.431 c -16.426,0 -24.633,-8.494 -24.633,-25.513 z m 62.466,-429.332 h 329.916 c 15.835,0 23.754,8.509 23.754,25.514 0,14.077 -5.87,25.665 -17.595,34.751 -11.74,9.1 -24.345,13.636 -37.832,13.636 h -298.244 c -24.635,0 -36.953,-12.316 -36.953,-36.951 0,-24.635 12.319,-36.95 36.954,-36.95 z"
   id="path12" />
	<path
   fill="#787878"
   d="m 2799.15,2175.399 v -377.14 c 0,-25.95 13.841,-38.925 41.521,-38.925 25.95,0 38.925,12.975 38.925,38.925 v 377.14 c 0,25.951 -12.975,38.926 -38.925,38.926 h -2.595 c -25.951,0 -38.926,-12.974 -38.926,-38.926 z"
   id="path16" />
	<path
   fill="#787878"
   d="m 4411.226,1751.795 h 215.857 c 24.569,0 36.854,12.284 36.854,36.854 0,24.57 -12.284,36.854 -36.854,36.854 H 4416.49 c -17.55,0 -31.15,4.689 -40.803,14.04 -9.652,9.364 -14.478,23.116 -14.478,41.241 0,16.973 4.524,30.272 13.601,39.925 9.063,9.652 22.951,14.478 41.68,14.478 h 149.17 c 40.363,0 73.118,11.997 98.276,35.976 25.146,23.993 37.731,56.158 37.731,96.522 0,19.894 -3.373,38.319 -10.092,55.279 -6.73,16.974 -16.096,31.59 -28.078,43.874 -11.996,12.284 -26.324,21.8 -42.996,28.518 -16.672,6.731 -34.961,10.091 -54.842,10.091 h -234.284 c -23.993,0 -35.976,-12.284 -35.976,-36.854 0,-24.57 11.982,-36.854 35.976,-36.854 h 230.774 c 18.714,0 33.344,-5.841 43.873,-17.55 10.529,-11.694 15.795,-27.201 15.795,-46.505 0,-39.185 -19.895,-58.791 -59.668,-58.791 h -150.925 c -19.305,0 -36.854,-3.071 -52.647,-9.214 -15.795,-6.142 -29.396,-14.917 -40.803,-26.324 -11.407,-11.407 -20.333,-25.008 -26.764,-40.802 -6.443,-15.794 -9.651,-33.042 -9.651,-51.771 0,-18.715 3.208,-35.977 9.651,-51.771 6.431,-15.794 15.356,-29.395 26.764,-40.802 11.408,-11.407 25.008,-20.319 40.803,-26.763 15.794,-6.429 33.344,-9.651 52.649,-9.651 z"
   id="path20" />
	<path
   fill="#787878"
   d="m 4785.667,1750.333 h 5.208 c 23.661,0 42.461,9.062 56.385,27.154 l 79.355,104.417 c 7.646,10.447 7.646,20.877 0,31.324 l -25.063,33.416 c -4.184,6.262 -9.046,9.393 -14.615,9.393 -4.185,0 -9.046,-3.131 -14.615,-9.393 l -111.717,-142.002 c -13.939,-17.4 -18.816,-30.805 -14.632,-40.212 4.185,-9.392 17.417,-14.097 39.694,-14.097 z m 139.171,272.442 c 0,-12.523 3.822,-23.646 11.469,-33.4 l 159.623,-211.903 c 13.908,-18.092 32.016,-27.139 54.293,-27.139 h 4.186 c 45.23,0 53.932,18.093 26.1,54.277 l -167.064,219.204 V 2161.6 c 0,29.232 -15.292,43.848 -45.86,43.848 -28.507,0 -42.745,-14.615 -42.745,-43.848 v -138.825 z"
   id="path24" />
	<path
   fill="#787878"
   d="m 5401.852,1750.462 h 216.898 c 24.688,0 37.031,12.344 37.031,37.031 0,24.688 -12.344,37.032 -37.031,37.032 h -211.607 c -17.635,0 -31.301,4.711 -41,14.107 -9.699,9.41 -14.547,23.228 -14.547,41.44 0,17.055 4.545,30.418 13.666,40.117 9.105,9.699 23.061,14.548 41.881,14.548 h 149.889 c 40.559,0 73.471,12.054 98.75,36.149 25.268,24.109 37.914,56.428 37.914,96.988 0,19.99 -3.39,38.505 -10.141,55.546 -6.764,17.056 -16.174,31.742 -28.214,44.085 -12.055,12.345 -26.451,21.905 -43.203,28.656 -16.753,6.764 -35.13,10.14 -55.106,10.14 h -235.414 c -24.109,0 -36.15,-12.343 -36.15,-37.032 0,-24.687 12.041,-37.031 36.15,-37.031 h 231.887 c 18.805,0 33.506,-5.869 44.086,-17.634 10.58,-11.751 15.871,-27.333 15.871,-46.729 0,-39.374 -19.99,-59.074 -59.957,-59.074 h -151.652 c -19.397,0 -37.031,-3.086 -52.901,-9.258 -15.871,-6.172 -29.537,-14.989 -40.999,-26.452 -11.463,-11.462 -20.432,-25.128 -26.893,-40.999 -6.475,-15.871 -9.698,-33.202 -9.698,-52.02 0,-18.806 3.224,-36.15 9.698,-52.021 6.461,-15.871 15.43,-29.537 26.893,-40.999 11.462,-11.462 25.128,-20.417 40.999,-26.892 15.868,-6.461 33.502,-9.698 52.9,-9.698 z"
   id="path28" />
	<path
   fill="#787878"
   d="m 5733.189,1788.737 c 0,-24.386 12.193,-36.579 36.58,-36.579 h 370.141 c 23.799,0 35.707,12.192 35.707,36.579 0,24.387 -11.908,36.58 -35.707,36.58 h -370.14 c -24.387,-10e-4 -36.581,-12.193 -36.581,-36.58 z m 180.282,377.98 v -255.18 c 0,-26.128 13.064,-39.192 39.19,-39.192 h 2.614 c 26.127,0 39.19,13.063 39.19,39.192 v 255.18 c 0,26.713 -13.936,40.061 -41.805,40.061 -26.125,-10e-4 -39.189,-13.348 -39.189,-40.061 z"
   id="path32" />
	<path
   fill="#787878"
   d="m 6252.964,2164.352 v -371.426 c 0,-27.509 13.747,-41.27 41.271,-41.27 h 319.619 c 24.586,0 36.879,12.293 36.879,36.879 0,24.585 -12.293,36.879 -36.879,36.879 h -279.229 v 306.448 h 282.74 c 24.586,0 36.88,12.294 36.88,36.881 0,24.586 -12.294,36.878 -36.88,36.878 h -323.131 c -27.523,0 -41.27,-13.746 -41.27,-41.269 z m 170.347,-225.665 h 143.125 c 23.408,0 35.125,11.716 35.125,35.123 0,24.009 -11.717,36.001 -35.125,36.001 h -143.125 c -23.42,0 -35.123,-11.992 -35.123,-36.001 0,-23.408 11.703,-35.123 35.123,-35.123 z"
   id="path36" />
	<path
   fill="#787878"
   d="M 6727.135,2161.902 V 1794.57 c 0,-28.844 14.77,-43.282 44.338,-43.282 h 27.457 c 13.366,0 24.968,4.934 34.835,14.769 l 157.306,157.226 156.248,-157.226 c 9.85,-9.835 21.814,-14.769 35.889,-14.769 h 50.676 c 9.852,0 14.785,4.934 14.785,14.785 0,7.739 -2.822,14.422 -8.449,20.049 l -218.509,219.502 c -9.866,9.867 -20.065,14.784 -30.609,14.784 -11.271,0 -21.483,-4.917 -30.626,-14.784 l -143.559,-144.553 v 300.833 c 0,29.57 -15.148,44.339 -45.428,44.339 -29.571,0 -44.354,-14.77 -44.354,-44.341 z m 431.752,0.016 V 1964.61 c 0,-13.366 4.949,-24.967 14.848,-34.834 l 51.968,-52.755 c 6.353,-6.321 11.649,-9.489 15.904,-9.489 4.696,0 7.062,6.336 7.062,18.993 v 275.393 c 0,29.555 -14.438,44.323 -43.299,44.323 h -2.128 c -29.57,0 -44.355,-14.768 -44.355,-44.323 z"
   id="path40" />
	<path
   fill="#787878"
   d="m 7456.592,1750.176 h 216.235 c 24.611,0 36.918,12.306 36.918,36.918 0,24.612 -12.307,36.918 -36.918,36.918 h -210.96 c -17.582,0 -31.206,4.697 -40.875,14.064 -9.67,9.381 -14.504,23.157 -14.504,41.314 0,17.002 4.533,30.326 13.625,39.995 9.077,9.668 22.99,14.503 41.754,14.503 h 149.43 c 40.434,0 73.246,12.018 98.448,36.039 25.19,24.035 37.798,56.256 37.798,96.691 0,19.929 -3.379,38.387 -10.109,55.376 -6.743,17.004 -16.125,31.646 -28.127,43.951 -12.019,12.307 -26.371,21.839 -43.072,28.568 -16.702,6.743 -35.022,10.108 -54.938,10.108 h -234.694 c -24.036,0 -36.04,-12.306 -36.04,-36.919 0,-24.611 12.004,-36.918 36.04,-36.918 h 231.179 c 18.747,0 33.401,-5.851 43.949,-17.58 10.549,-11.715 15.824,-27.249 15.824,-46.587 0,-39.253 -19.93,-58.894 -59.773,-58.894 h -151.189 c -19.338,0 -36.918,-3.076 -52.74,-9.229 -15.822,-6.154 -29.447,-14.943 -40.874,-26.372 -11.427,-11.427 -20.368,-25.051 -26.81,-40.873 -6.456,-15.822 -9.668,-33.101 -9.668,-51.861 0,-18.748 3.212,-36.04 9.668,-51.862 6.441,-15.822 15.383,-29.446 26.81,-40.874 11.427,-11.427 25.052,-20.354 40.874,-26.81 15.821,-6.438 33.401,-9.666 52.739,-9.666 z"
   id="path44" />
	<path
   fill="#797979"
   d="m 1912.844,2648.029 h -70.052 c -4.316,0 -7.968,-3.651 -7.968,-8.3 0,-4.315 3.652,-7.968 7.968,-7.968 h 156.041 c 4.316,0 7.968,3.652 7.968,7.968 0,4.648 -3.652,8.3 -7.968,8.3 h -70.052 v 208.165 c 0,4.315 -3.652,7.968 -7.968,7.968 -4.316,0 -7.968,-3.652 -7.968,-7.968 v -208.165 z"
   id="path48" /><path
   fill="#797979"
   d="m 2101.086,2639.729 c 0,-4.315 3.652,-7.968 7.968,-7.968 h 0.664 118.856 c 4.648,0 7.968,3.652 7.968,7.968 0,4.648 -3.32,8.3 -7.968,8.3 h -111.22 v 91.965 h 97.276 c 4.316,0 7.968,3.651 7.968,8.3 0,4.316 -3.652,7.968 -7.968,7.968 h -97.276 v 91.633 h 111.22 c 4.648,0 7.968,3.651 7.968,8.3 0,4.315 -3.32,7.968 -7.968,7.968 h -118.524 -0.996 -0.664 c -3.984,-0.332 -7.304,-3.652 -7.304,-7.968 z"
   id="path50" /><path
   fill="#797979"
   d="m 2441.714,2628.441 c 28.552,0 54.78,9.96 75.032,25.564 3.652,2.987 4.316,8.632 1.328,11.62 -2.656,3.983 -7.968,4.315 -11.288,1.66 -17.928,-13.944 -40.504,-22.576 -65.072,-22.576 -58.1,0 -104.58,45.483 -104.58,102.256 0,55.444 46.48,100.929 104.58,100.929 24.568,0 47.144,-7.969 64.408,-22.576 3.984,-2.656 9.296,-1.992 11.62,1.991 3.32,2.988 2.656,8.965 -0.996,11.62 -20.252,15.604 -46.48,25.232 -75.032,25.232 -66.732,0 -120.848,-52.456 -120.848,-117.196 0,-66.068 54.116,-118.192 120.848,-118.524 z"
   id="path52" /><path
   fill="#797979"
   d="m 2756.117,2755.93 h -119.521 v 100.265 c 0,4.315 -3.652,7.968 -8.3,7.968 -4.315,0 -7.968,-3.652 -7.968,-7.968 V 2639.73 c 0,-4.315 3.652,-7.968 7.968,-7.968 4.648,0 8.3,3.652 8.3,7.968 v 100.265 h 119.521 V 2639.73 c 0,-4.315 3.652,-7.968 7.968,-7.968 4.648,0 8.3,3.652 8.3,7.968 v 216.465 c 0,4.315 -3.652,7.968 -8.3,7.968 -4.316,0 -7.968,-3.652 -7.968,-7.968 z"
   id="path54" /><path
   fill="#797979"
   d="m 2905.849,2665.958 v 190.236 c 0,4.315 -3.652,7.968 -7.968,7.968 -4.316,0 -7.968,-3.652 -7.968,-7.968 V 2643.05 c -0.996,-3.32 0,-6.641 2.988,-8.964 3.652,-2.324 8.964,-1.66 11.288,1.991 l 140.769,195.217 v -189.24 c 0,-4.316 3.652,-7.968 7.968,-7.968 4.648,0 8.3,3.651 8.3,7.968 v 214.141 c 0,4.315 -3.652,7.968 -8.3,7.968 -2.656,0 -4.647,-0.996 -6.308,-2.988 -0.332,-0.332 -0.996,-0.664 -1.328,-1.328 z"
   id="path56" /><path
   fill="#797979"
   d="m 3280.012,2628.441 c 62.084,0 110.889,52.788 111.221,117.86 -0.332,65.072 -49.137,117.86 -111.221,117.86 -62.748,0 -111.884,-52.788 -112.216,-117.86 0.332,-65.072 49.468,-117.86 112.216,-117.86 z m 0,219.454 c 51.128,0 94.288,-44.82 94.62,-101.593 -0.332,-57.436 -43.492,-101.26 -94.62,-101.26 -52.788,0 -95.948,43.824 -95.948,101.26 -10e-4,56.772 43.16,101.593 95.948,101.593 z"
   id="path58" /><path
   fill="#797979"
   d="m 3502.117,2864.162 h -0.665 c -4.315,0 -7.968,-3.652 -7.968,-7.968 v -216.465 c 0,-4.315 3.652,-7.968 7.968,-7.968 4.648,0 8.3,3.652 8.3,7.968 v 208.165 h 111.221 c 4.648,0 8.3,3.651 8.3,8.3 0,4.315 -3.651,7.968 -8.3,7.968 z"
   id="path60" /><path
   fill="#797979"
   d="m 3815.521,2628.441 c 62.085,0 110.888,52.788 111.22,117.86 -0.332,65.072 -49.135,117.86 -111.22,117.86 -62.748,0 -111.885,-52.788 -112.216,-117.86 0.331,-65.072 49.467,-117.86 112.216,-117.86 z m 0,219.454 c 51.128,0 94.289,-44.82 94.62,-101.593 -0.332,-57.436 -43.492,-101.26 -94.62,-101.26 -52.788,0 -95.948,43.824 -95.948,101.26 -10e-4,56.772 43.159,101.593 95.948,101.593 z"
   id="path62" /><path
   fill="#797979"
   d="m 4137.559,2759.582 c -4.648,0 -8.301,-3.32 -8.301,-7.968 0,-4.648 3.652,-8.301 8.301,-8.301 h 71.712 0.995 c 3.984,0.332 7.305,3.984 7.305,8.301 v 79.68 1.328 c -0.332,2.324 -1.328,4.648 -2.988,5.976 -20.584,16.269 -46.48,25.564 -75.031,25.564 -66.732,-0.332 -120.85,-52.456 -120.85,-118.192 0,-64.74 54.117,-117.528 120.85,-117.528 28.883,0 54.447,9.96 75.363,26.229 2.988,2.323 3.984,7.968 0.996,11.288 -2.656,3.319 -7.636,3.983 -11.62,1.328 -16.932,-13.944 -39.84,-22.576 -64.739,-22.576 -58.101,0 -104.581,45.483 -104.581,101.26 0,56.44 46.48,101.925 104.581,101.925 22.575,0 44.155,-7.305 61.42,-19.921 v -68.392 h -63.413 z"
   id="path64" /><path
   fill="#797979"
   d="m 4396.185,2752.61 -78.021,-106.572 c -2.324,-3.652 -1.66,-8.965 1.66,-11.288 3.652,-2.988 8.964,-2.324 11.288,1.327 l 72.708,99.933 73.04,-99.933 c 2.324,-3.651 7.636,-4.315 11.288,-1.327 3.652,2.323 4.316,7.636 1.66,11.288 l -77.688,105.908 v 104.248 c 0,4.315 -3.319,7.968 -7.968,7.968 -4.316,0 -7.968,-3.652 -7.968,-7.968 V 2752.61 Z"
   id="path66" /><path
   fill="#797979"
   d="m 4809.517,2628.441 c 28.552,0 54.78,9.96 75.032,25.564 3.652,2.987 4.316,8.632 1.328,11.62 -2.656,3.983 -7.969,4.315 -11.289,1.66 -17.928,-13.944 -40.504,-22.576 -65.071,-22.576 -58.101,0 -104.581,45.483 -104.581,102.256 0,55.444 46.48,100.929 104.581,100.929 24.567,0 47.144,-7.969 64.408,-22.576 3.983,-2.656 9.296,-1.992 11.62,1.991 3.32,2.988 2.656,8.965 -0.996,11.62 -20.252,15.604 -46.48,25.232 -75.032,25.232 -66.732,0 -120.849,-52.456 -120.849,-117.196 0,-66.068 54.116,-118.192 120.849,-118.524 z"
   id="path68" /><path
   fill="#797979"
   d="m 5090.055,2628.441 c 62.084,0 110.889,52.788 111.221,117.86 -0.332,65.072 -49.137,117.86 -111.221,117.86 -62.748,0 -111.885,-52.788 -112.217,-117.86 0.332,-65.072 49.469,-117.86 112.217,-117.86 z m 0,219.454 c 51.129,0 94.289,-44.82 94.62,-101.593 -0.331,-57.436 -43.491,-101.26 -94.62,-101.26 -52.788,0 -95.948,43.824 -95.948,101.26 0,56.772 43.16,101.593 95.948,101.593 z"
   id="path70" /><path
   fill="#797979"
   d="m 5482.809,2664.962 -74.368,103.252 c -1.66,2.656 -4.315,3.652 -6.64,3.652 h -0.664 c -2.988,0 -5.313,-0.996 -6.973,-3.652 l -74.368,-102.92 v 190.9 c 0,4.315 -3.651,7.968 -7.968,7.968 -4.648,0 -8.3,-3.652 -8.3,-7.968 v -215.137 c 0,-2.656 1.327,-4.98 3.319,-6.308 0,-0.332 0.332,-0.332 0.664,-0.664 3.652,-2.324 8.633,-1.66 11.289,1.991 l 82.668,114.541 82.336,-114.541 c 2.324,-3.651 7.636,-4.315 11.287,-1.991 0.996,0.996 1.66,1.659 2.324,2.655 0.664,1.328 1.328,2.988 1.328,4.316 v 215.137 c 0,4.315 -3.652,7.968 -7.968,7.968 -4.647,0 -7.968,-3.652 -7.968,-7.968 v -191.231 z"
   id="path72" /><path
   fill="#797979"
   d="m 5616.934,2639.729 c 0,-4.315 3.652,-7.968 7.969,-7.968 h 0.996 64.74 c 36.52,0 66.067,29.88 66.067,66.4 0,36.52 -29.548,66.067 -66.067,66.067 l -57.438,0.664 v 91.301 c 0,4.315 -3.651,7.968 -8.299,7.968 -4.316,0 -7.969,-3.652 -7.969,-7.968 v -216.464 z m 73.705,108.897 c 27.555,-0.332 50.131,-22.908 50.131,-50.464 0,-27.557 -22.576,-50.133 -50.131,-50.133 h -57.438 v 100.597 z"
   id="path74" /><path
   fill="#797979"
   d="m 5970.844,2804.07 h -105.908 l -20.584,54.78 c -1.328,3.319 -4.316,5.312 -7.637,5.312 -0.664,0 -1.992,-0.332 -2.988,-0.332 -3.983,-1.66 -6.307,-6.64 -4.647,-10.624 l 80.677,-215.469 c 1.328,-2.987 4.647,-4.979 7.968,-4.979 3.651,0 6.972,1.992 7.968,4.979 l 80.676,215.469 c 1.66,3.984 -0.332,8.964 -4.315,10.624 -1.328,0 -1.992,0.332 -2.988,0.332 -2.987,0 -6.308,-1.992 -7.636,-5.312 z m -99.933,-16.268 h 93.956 l -46.812,-124.832 z"
   id="path76" /><path
   fill="#797979"
   d="m 6108.29,2665.958 v 190.236 c 0,4.315 -3.651,7.968 -7.968,7.968 -4.317,0 -7.969,-3.652 -7.969,-7.968 V 2643.05 c -0.995,-3.32 0,-6.641 2.988,-8.964 3.652,-2.324 8.965,-1.66 11.289,1.991 l 140.768,195.217 v -189.24 c 0,-4.316 3.652,-7.968 7.969,-7.968 4.647,0 8.299,3.651 8.299,7.968 v 214.141 c 0,4.315 -3.651,7.968 -8.299,7.968 -2.656,0 -4.648,-0.996 -6.309,-2.988 -0.332,-0.332 -0.996,-0.664 -1.328,-1.328 z"
   id="path78" /><path
   fill="#797979"
   d="m 6444.272,2752.61 -78.021,-106.572 c -2.323,-3.652 -1.659,-8.965 1.66,-11.288 3.652,-2.988 8.965,-2.324 11.289,1.327 l 72.707,99.933 73.041,-99.933 c 2.324,-3.651 7.637,-4.315 11.287,-1.327 3.652,2.323 4.316,7.636 1.66,11.288 l -77.688,105.908 v 104.248 c 0,4.315 -3.32,7.968 -7.969,7.968 -4.315,0 -7.968,-3.652 -7.968,-7.968 V 2752.61 Z"
   id="path80" />
	<path
   fill="#787878"
   d="m 2109.278,1756.66 c 70.498,0 127.722,40.032 127.722,89.352 v 276.287 c 0,49.318 -57.224,89.352 -127.722,89.352 h -148.557 c -70.498,0 -127.722,-40.033 -127.722,-89.352 v -276.287 c 0,-49.32 57.224,-89.352 127.722,-89.352 z m 0,39.37 h -148.557 c -39.442,0 -71.444,22.389 -71.444,49.982 v 276.287 c 0,27.594 32.002,49.982 71.444,49.982 h 148.557 c 39.442,0 71.444,-22.389 71.444,-49.982 v -276.287 c 10e-4,-27.594 -32.001,-49.982 -71.444,-49.982 z"
   id="path84" />
	<path
   fill="#787878"
   d="m 2099.718,1788.591 c 61.424,0 111.282,34.879 111.282,77.851 v 240.726 c 0,42.971 -49.858,77.85 -111.282,77.85 h -129.436 c -61.424,0 -111.282,-34.879 -111.282,-77.85 v -240.726 c 0,-42.972 49.858,-77.851 111.282,-77.851 z m 0,34.303 h -129.436 c -34.366,0 -62.249,19.507 -62.249,43.548 v 240.726 c 0,24.041 27.883,43.549 62.249,43.549 h 129.436 c 34.366,0 62.249,-19.508 62.249,-43.549 v -240.726 c 0,-24.042 -27.884,-43.548 -62.249,-43.548 z"
   id="path88" />
</g>
<rect
   x="886.29095"
   y="311.15601"
   fill="#020202"
   stroke="#000000"
   stroke-miterlimit="10"
   width="103.018"
   height="122.602"
   id="rect93" />
<g
   transform="translate(-449.76801,-1189.844)"
   id="Layer_13">
</g>
<g
   transform="translate(-449.76801,-1189.844)"
   id="Layer_14">
</g>
<g
   transform="translate(-449.76801,-1189.844)"
   id="Layer_12">
</g>
<g
   transform="translate(-449.76801,-1189.844)"
   id="Layer_17">
</g>
<g
   transform="translate(-449.76801,-1189.844)"
   id="Layer_11">
</g>
<g
   transform="translate(-449.76801,-1189.844)"
   id="Layer_2">
</g>
<g
   transform="translate(-449.76801,-1189.844)"
   id="Layer_4">
</g>
<g
   transform="translate(-449.76801,-1189.844)"
   id="g109">
		<polygon
   fill="#f06a24"
   points="1165.142,1392.675 1676.359,1690.179 1674.322,2281.658 1161.066,2575.635 649.851,2278.131 651.888,1686.65 "
   id="polygon103" />
		<g
   id="g107">
			<path
   fill="#f06a24"
   d="m 1646.058,2233.304 c -29.938,17.147 -59.877,34.296 -89.815,51.443 -63.964,36.637 -127.929,73.273 -191.893,109.91 -59.214,33.916 -118.429,67.832 -177.643,101.748 -17.968,10.292 -35.936,20.583 -53.904,30.875 18.843,0 37.686,0 56.528,0 -29.819,-17.354 -59.639,-34.707 -89.458,-52.061 -63.71,-37.076 -127.42,-74.152 -191.13,-111.229 -58.979,-34.322 -117.958,-68.646 -176.937,-102.969 -17.897,-10.415 -35.793,-20.83 -53.69,-31.245 9.245,16.118 18.491,32.236 27.736,48.354 0.119,-34.501 0.238,-69.002 0.356,-103.504 0.254,-73.713 0.508,-147.426 0.762,-221.139 0.235,-68.239 0.47,-136.478 0.705,-204.717 0.071,-20.707 0.143,-41.414 0.214,-62.12 -9.245,16.118 -18.491,32.236 -27.736,48.354 29.938,-17.148 59.876,-34.295 89.815,-51.443 63.964,-36.637 127.928,-73.273 191.892,-109.91 59.214,-33.916 118.428,-67.832 177.642,-101.748 17.968,-10.292 35.936,-20.583 53.904,-30.875 -18.843,0 -37.686,0 -56.528,0 29.819,17.354 59.639,34.707 89.458,52.061 63.71,37.076 127.42,74.152 191.131,111.229 58.979,34.323 117.958,68.646 176.938,102.969 17.896,10.415 35.793,20.83 53.69,31.245 -9.245,-16.118 -18.491,-32.236 -27.736,-48.354 -0.119,34.501 -0.238,69.002 -0.356,103.503 -0.254,73.713 -0.508,147.426 -0.762,221.139 -0.235,68.239 -0.47,136.478 -0.705,204.717 -0.071,20.707 -0.143,41.413 -0.214,62.12 -0.105,30.527 25.553,56 56,56 30.606,0 55.895,-25.475 56,-56 0.119,-34.501 0.238,-69.002 0.356,-103.504 0.254,-73.713 0.508,-147.426 0.762,-221.139 0.235,-68.239 0.47,-136.478 0.705,-204.717 0.062,-18.103 0.125,-36.205 0.187,-54.308 0.01,-2.603 0.018,-5.206 0.027,-7.81 0.07,-20.439 -11.365,-38.83 -28.804,-48.979 -1.406,-0.818 -2.812,-1.636 -4.218,-2.455 -40.813,-23.751 -81.625,-47.502 -122.437,-71.252 -66.013,-38.417 -132.026,-76.833 -198.04,-115.25 -52.592,-30.606 -105.184,-61.212 -157.776,-91.818 -9.226,-5.369 -18.452,-10.738 -27.678,-16.107 -17.44,-10.149 -39.077,-9.995 -56.528,0 -29.938,17.148 -59.876,34.295 -89.815,51.443 -63.964,36.637 -127.928,73.273 -191.892,109.91 -59.214,33.916 -118.428,67.832 -177.642,101.748 -15.708,8.997 -31.417,17.995 -47.125,26.992 -2.259,1.294 -4.518,2.587 -6.777,3.881 -17.769,10.177 -27.673,29.466 -27.743,49.592 -0.005,1.626 -0.011,3.253 -0.017,4.88 -0.163,47.22 -0.325,94.44 -0.488,141.66 -0.263,76.377 -0.526,152.755 -0.79,229.133 -0.209,60.849 -0.419,121.698 -0.628,182.548 -0.037,10.637 -0.073,21.273 -0.11,31.911 -0.119,34.502 24.117,46.36 48.001,60.261 49.85,29.01 99.699,58.021 149.549,87.03 66.36,38.619 132.721,77.237 199.082,115.856 44.25,25.751 88.499,51.502 132.749,77.254 3.19,1.856 6.38,3.713 9.57,5.569 17.44,10.149 39.077,9.995 56.528,0 29.938,-17.147 59.877,-34.296 89.815,-51.443 63.965,-36.637 127.929,-73.273 191.893,-109.91 59.214,-33.916 118.429,-67.832 177.643,-101.748 17.968,-10.292 35.937,-20.583 53.904,-30.875 26.447,-15.148 35.412,-50.463 20.09,-76.618 -15.514,-26.484 -50.12,-35.265 -76.617,-20.088 z"
   id="path105" />
		</g>
	</g><g
   transform="translate(-449.76801,-1189.844)"
   id="g125">
		<defs
   id="defs112">
			<path
   id="SVGID_1_"
   d="m 580.566,2504.26 c -2.961,0.496 -4.937,-2.218 -5.925,-8.124 -1.731,-10.349 13.763,-44.819 46.505,-103.468 4.671,-8.375 23.803,-41.568 57.393,-99.598 33.574,-58.025 56.776,-98.733 69.569,-122.147 47.479,-88.444 77.99,-154.693 91.503,-198.727 13.515,-44.033 18.063,-79.354 13.613,-105.957 -10.131,-60.577 -65.444,-82.478 -165.917,-65.673 -106.395,17.794 -239.738,69.726 -400.032,155.778 -112.168,60.532 -165.333,108.153 -159.524,142.884 2.099,12.553 12.637,23.33 31.608,32.301 5.661,2.098 5.749,3.804 0.273,5.1 -5.474,1.296 -10.25,1.135 -14.322,-0.467 -24.648,-11.064 -38.932,-28.414 -42.889,-52.07 -3.954,-23.642 -1.055,-48.248 8.733,-73.807 9.772,-25.557 28.758,-49.429 56.96,-71.616 64.131,-52.483 143.591,-99.571 238.395,-141.269 101.824,-45.122 198.916,-75.421 291.277,-90.868 97.527,-16.312 163.353,-8.709 197.492,22.805 22.29,19.813 35.328,40.994 39.096,63.524 3.769,22.531 3.065,45.628 -2.08,69.27 -8.715,47.797 -27.532,96.522 -56.438,146.157 -5.795,10.846 -25.751,44.757 -59.899,101.721 -34.146,56.98 -60.56,102.229 -79.259,135.731 219.765,-325.364 383.953,-497.136 492.569,-515.302 31.029,-5.189 55.416,4.414 73.172,28.774 9.842,13.542 15.707,25.861 17.56,36.934 1.854,11.089 3.214,23.766 4.096,38.044 3.959,37.322 -15.53,111.604 -58.438,222.824 74.432,-108.898 142.731,-195.513 204.897,-259.844 75.088,-77.873 142.92,-121.875 203.497,-132.005 34.729,-5.809 54.536,5.884 59.416,35.062 4.883,29.194 -6.581,74.208 -34.372,135.055 -164.466,356.381 -237.85,587.381 -220.179,693.035 5.561,33.25 18.181,49.751 37.892,49.497 12.182,0.231 24.131,-5.571 35.836,-17.391 4.547,-4.565 9.067,-4.743 13.574,-0.549 4.484,4.162 3.933,9.963 -1.662,17.367 -5.599,7.371 -12.83,11.824 -21.697,13.307 -8.868,1.482 -19.34,2.475 -31.4,2.969 -12.061,0.494 -28.347,-1.529 -48.86,-6.073 -20.513,-4.542 -38.738,-14.796 -54.704,-30.721 -15.967,-15.94 -25.789,-34.995 -29.495,-57.155 -5.313,-31.77 -6.016,-60.901 -2.075,-87.387 10.178,-61.706 79.293,-222.871 207.354,-483.546 38.507,-78.587 55.226,-133.034 50.157,-163.338 -3.828,-22.885 -17.573,-32.366 -41.199,-28.414 -31.785,5.316 -66.387,27.812 -103.791,67.487 -80.005,84.783 -166.14,198.683 -258.424,341.704 -22.625,55.434 -51.232,120.604 -85.792,195.486 -5.053,10.739 -12.008,16.834 -20.859,18.314 -29.564,4.943 -45.449,0.766 -47.676,-12.542 -0.493,-2.945 -0.248,-6.029 0.738,-9.239 87.061,-233.304 132.982,-381.109 137.746,-443.433 0.967,-21.42 0.502,-37.854 -1.415,-49.312 -1.916,-11.459 -3.799,-20.442 -5.65,-26.965 -8.765,-20.554 -23.851,-29.049 -45.272,-25.466 -21.437,3.585 -48.574,20.664 -81.434,51.207 -56.738,51.279 -124.5,129.83 -203.253,235.646 -78.765,105.837 -153.273,214.385 -223.525,325.63 -1.85,2.591 -4.257,4.12 -7.203,4.611 -33.835,61.114 -55.929,92.52 -66.261,94.249 z" />
		</defs>
		<clipPath
   id="SVGID_2_">
			<use
   xlink:href="#SVGID_1_"
   overflow="visible"
   id="use114"
   x="0"
   y="0"
   width="100%"
   height="100%" />
		</clipPath>
		<g
   clip-path="url(#SVGID_2_)"
   id="g123">
			<polygon
   fill="#ffffff"
   points="1165.064,1392.637 1676.281,1690.141 1674.244,2281.62 1160.989,2575.596 649.773,2278.091 651.811,1686.612 "
   id="polygon117" />
			<g
   id="g121">
				<path
   fill="#ffffff"
   d="m 1645.979,2233.266 c -29.938,17.147 -59.877,34.295 -89.815,51.443 -63.964,36.637 -127.929,73.273 -191.893,109.91 -59.214,33.916 -118.428,67.832 -177.643,101.748 -17.968,10.291 -35.937,20.582 -53.904,30.874 18.843,0 37.686,0 56.528,0 -29.819,-17.354 -59.639,-34.707 -89.458,-52.061 -63.71,-37.076 -127.42,-74.153 -191.13,-111.229 -58.979,-34.323 -117.958,-68.646 -176.937,-102.969 -17.897,-10.416 -35.793,-20.831 -53.69,-31.246 9.246,16.118 18.491,32.236 27.736,48.354 0.119,-34.501 0.238,-69.002 0.356,-103.503 0.254,-73.713 0.508,-147.426 0.762,-221.139 0.235,-68.239 0.47,-136.478 0.705,-204.716 0.071,-20.707 0.143,-41.414 0.214,-62.12 -9.245,16.118 -18.49,32.236 -27.736,48.354 29.938,-17.148 59.876,-34.295 89.815,-51.443 63.964,-36.637 127.928,-73.273 191.892,-109.91 59.214,-33.916 118.428,-67.832 177.642,-101.748 17.968,-10.292 35.937,-20.583 53.904,-30.875 -18.843,0 -37.686,0 -56.528,0 29.819,17.354 59.639,34.707 89.458,52.061 63.71,37.076 127.421,74.152 191.131,111.229 58.979,34.323 117.958,68.646 176.938,102.969 17.897,10.415 35.793,20.83 53.69,31.245 -9.246,-16.118 -18.491,-32.236 -27.736,-48.354 -0.119,34.501 -0.238,69.002 -0.356,103.503 -0.254,73.713 -0.508,147.426 -0.762,221.139 -0.235,68.239 -0.47,136.479 -0.706,204.717 -0.071,20.707 -0.143,41.414 -0.214,62.12 -0.105,30.528 25.553,56 56,56 30.606,0 55.895,-25.475 56,-56 0.119,-34.501 0.238,-69.003 0.356,-103.504 0.254,-73.713 0.508,-147.426 0.762,-221.139 0.235,-68.239 0.47,-136.478 0.705,-204.717 0.071,-20.707 0.143,-41.414 0.214,-62.12 0.068,-19.684 -10.737,-38.462 -27.736,-48.354 -29.819,-17.354 -59.639,-34.707 -89.458,-52.061 -63.71,-37.076 -127.42,-74.152 -191.131,-111.229 -58.979,-34.323 -117.958,-68.646 -176.938,-102.969 -17.896,-10.415 -35.793,-20.83 -53.69,-31.245 -17.44,-10.149 -39.077,-9.995 -56.528,0 -29.938,17.148 -59.876,34.295 -89.815,51.443 -63.964,36.637 -127.928,73.273 -191.892,109.91 -59.214,33.916 -118.428,67.832 -177.642,101.748 -15.708,8.997 -31.417,17.995 -47.125,26.992 -2.259,1.294 -4.518,2.587 -6.777,3.881 -17.769,10.177 -27.673,29.466 -27.743,49.592 -0.005,1.626 -0.011,3.253 -0.017,4.88 -0.163,47.22 -0.325,94.44 -0.488,141.66 -0.263,76.377 -0.526,152.754 -0.789,229.131 -0.21,60.85 -0.419,121.698 -0.629,182.547 -0.037,10.638 -0.073,21.274 -0.11,31.912 -0.119,34.502 24.117,46.361 48.001,60.261 49.85,29.011 99.699,58.021 149.549,87.03 66.36,38.619 132.721,77.238 199.082,115.857 44.25,25.751 88.499,51.502 132.749,77.254 3.19,1.856 6.38,3.713 9.57,5.569 17.44,10.149 39.077,9.995 56.528,0 29.938,-17.147 59.877,-34.296 89.815,-51.443 63.964,-36.637 127.929,-73.273 191.893,-109.909 59.214,-33.916 118.428,-67.832 177.643,-101.748 17.968,-10.292 35.937,-20.584 53.904,-30.875 26.447,-15.148 35.412,-50.463 20.09,-76.619 -15.512,-26.485 -50.118,-35.265 -76.616,-20.088 z"
   id="path119" />
			</g>
		</g>
	</g>
<g
   transform="translate(-449.76801,-1189.844)"
   id="Layer_5">
</g>
<rect
   x="0"
   y="1539.7729"
   fill="#787878"
   width="1306.4351"
   height="45.290001"
   id="rect129" /><rect
   x="0"
   y="28.624023"
   fill="#787878"
   width="45.290001"
   height="1545.084"
   id="rect131" /><rect
   x="0"
   y="0"
   fill="#787878"
   width="7436.6611"
   height="45.290001"
   id="rect133" /><rect
   x="7400.6128"
   y="0"
   fill="#787878"
   width="42.290001"
   height="1558.671"
   id="rect135" /><rect
   x="6136.4678"
   y="1539.4729"
   fill="#787878"
   width="1306.4351"
   height="45.290001"
   id="rect137" />
<g
   transform="translate(-449.76801,-1189.844)"
   id="Layer_15">
</g>
<g
   transform="translate(-449.76801,-1189.844)"
   id="Layer_8">
</g>
<g
   transform="translate(-449.76801,-1189.844)"
   id="Layer_7">
</g>
<g
   transform="translate(-449.76801,-1189.844)"
   id="Layer_18">
</g>
<g
   transform="translate(-449.76801,-1189.844)"
   id="Layer_9">
</g>
<g
   transform="translate(-449.76801,-1189.844)"
   id="Layer_10">
</g>
</svg>
