<?xml version="1.0" encoding="UTF-8" standalone="no"?>
<svg
   xmlns:dc="http://purl.org/dc/elements/1.1/"
   xmlns:cc="http://creativecommons.org/ns#"
   xmlns:rdf="http://www.w3.org/1999/02/22-rdf-syntax-ns#"
   xmlns:svg="http://www.w3.org/2000/svg"
   xmlns="http://www.w3.org/2000/svg"
   xmlns:sodipodi="http://sodipodi.sourceforge.net/DTD/sodipodi-0.dtd"
   xmlns:inkscape="http://www.inkscape.org/namespaces/inkscape"
   version="1.1"
   viewBox="0 0 793 78.321526"
   fill="none"
   stroke="none"
   stroke-linecap="square"
   stroke-miterlimit="10"
   id="svg217"
   sodipodi:docname="dok1.svg"
   width="793"
   height="78.321526"
   inkscape:version="1.0.1 (3bc2e813f5, 2020-09-07)">
  <metadata
     id="metadata223">
    <rdf:RDF>
      <cc:Work
         rdf:about="">
        <dc:format>image/svg+xml</dc:format>
        <dc:type
           rdf:resource="http://purl.org/dc/dcmitype/StillImage" />
      </cc:Work>
    </rdf:RDF>
  </metadata>
  <defs
     id="defs221" />
  <sodipodi:namedview
     pagecolor="#ffffff"
     bordercolor="#666666"
     borderopacity="1"
     objecttolerance="10"
     gridtolerance="10"
     guidetolerance="10"
     inkscape:pageopacity="0"
     inkscape:pageshadow="2"
     inkscape:window-width="1918"
     inkscape:window-height="1059"
     id="namedview219"
     showgrid="false"
     inkscape:zoom="0.96166667"
     inkscape:cx="267.19792"
     inkscape:cy="165.03816"
     inkscape:window-x="0"
     inkscape:window-y="19"
     inkscape:window-maximized="0"
     inkscape:current-layer="svg217" />
  <clipPath
     id="p.0">
    <path
       d="M 0,0 H 800 V 600 H 0 Z"
       clip-rule="nonzero"
       id="path2" />
  </clipPath>
  <path
     fill="#000000"
     fill-opacity="0"
     d="m -7.5,-10.178477 h 800 V 589.82152 h -800 z"
     fill-rule="evenodd"
     id="path5" />
  <path
     fill="#cfe2f3"
     d="m 0.5,6.840353 h 94.61417 v 69.16535 H 0.5 Z"
     fill-rule="evenodd"
     id="path7" />
  <path
     stroke="#000000"
     stroke-width="1"
     stroke-linejoin="round"
     stroke-linecap="butt"
     d="m 0.5,6.840353 h 94.61417 v 69.16535 H 0.5 Z"
     fill-rule="evenodd"
     id="path9" />
  <path
     fill="#000000"
     d="m 34.392307,48.34303 v -8.40625 h -1.453125 v -1.265625 h 1.453125 v -1.03125 q 0,-0.96875 0.171875,-1.453125 0.234375,-0.640625 0.828125,-1.03125 0.59375,-0.390625 1.671875,-0.390625 0.6875,0 1.53125,0.15625 l -0.25,1.4375 q -0.5,-0.09375 -0.953125,-0.09375 -0.75,0 -1.0625,0.328125 -0.3125,0.3125 -0.3125,1.1875 v 0.890625 h 1.890625 v 1.265625 h -1.890625 v 8.40625 z m 4.792679,-11.46875 v -1.890625 h 1.640625 v 1.890625 z m 0,11.46875 v -9.671875 h 1.640625 v 9.671875 z m 4.144821,0 v -9.671875 h 1.46875 v 1.375 q 1.0625,-1.59375 3.078125,-1.59375 0.875,0 1.609375,0.3125 0.734375,0.3125 1.09375,0.828125 0.375,0.5 0.515625,1.203125 0.09375,0.453125 0.09375,1.59375 v 5.953125 h -1.640625 v -5.890625 q 0,-1 -0.203125,-1.484375 -0.1875,-0.5 -0.671875,-0.796875 -0.484375,-0.296875 -1.140625,-0.296875 -1.046875,0 -1.8125,0.671875 -0.75,0.65625 -0.75,2.515625 v 5.28125 z m 16.641338,0 v -1.21875 q -0.90625,1.4375 -2.703125,1.4375 -1.156246,0 -2.124996,-0.640625 -0.96875,-0.640625 -1.5,-1.78125 -0.53125,-1.140625 -0.53125,-2.625 0,-1.453125 0.484375,-2.625 0.484375,-1.1875 1.4375,-1.8125 0.96875,-0.625 2.171871,-0.625 0.875,0 1.546875,0.375 0.6875,0.359375 1.109375,0.953125 v -4.796875 h 1.640625 V 48.34303 Z m -5.171871,-4.828125 q 0,1.859375 0.78125,2.78125 0.78125,0.921875 1.843746,0.921875 1.078125,0 1.828125,-0.875 0.75,-0.890625 0.75,-2.6875 0,-1.984375 -0.765625,-2.90625 -0.765625,-0.9375 -1.890625,-0.9375 -1.078121,0 -1.812496,0.890625 -0.734375,0.890625 -0.734375,2.8125 z"
     fill-rule="nonzero"
     id="path11" />
  <path
     fill="#cfe2f3"
     d="m 187.97525,6.840353 h 94.61417 v 69.16535 h -94.61417 z"
     fill-rule="evenodd"
     id="path13" />
  <path
     stroke="#000000"
     stroke-width="1"
     stroke-linejoin="round"
     stroke-linecap="butt"
     d="m 187.97525,6.840353 h 94.61417 v 69.16535 h -94.61417 z"
     fill-rule="evenodd"
     id="path15" />
  <path
     fill="#000000"
     d="m 226.24081,47.15553 q -0.92188,0.765625 -1.76563,1.09375 -0.82812,0.3125 -1.79687,0.3125 -1.59375,0 -2.45313,-0.78125 -0.85937,-0.78125 -0.85937,-1.984375 0,-0.71875 0.32812,-1.296875 0.32813,-0.59375 0.84375,-0.9375 0.53125,-0.359375 1.1875,-0.546875 0.46875,-0.125 1.45313,-0.25 1.98437,-0.234375 2.92187,-0.5625 0.0156,-0.34375 0.0156,-0.421875 0,-1 -0.46875,-1.421875 -0.625,-0.546875 -1.875,-0.546875 -1.15625,0 -1.70313,0.40625 -0.54687,0.40625 -0.8125,1.421875 l -1.60937,-0.21875 q 0.21875,-1.015625 0.71875,-1.640625 0.5,-0.640625 1.45312,-0.984375 0.95313,-0.34375 2.1875,-0.34375 1.25,0 2.01563,0.296875 0.78125,0.28125 1.14062,0.734375 0.375,0.4375 0.51563,1.109375 0.0781,0.421875 0.0781,1.515625 v 2.1875 q 0,2.28125 0.10938,2.890625 0.10937,0.59375 0.40625,1.15625 h -1.70313 q -0.26562,-0.515625 -0.32812,-1.1875 z m -0.14063,-3.671875 q -0.89062,0.375 -2.67187,0.625 -1.01563,0.140625 -1.4375,0.328125 -0.42188,0.1875 -0.65625,0.53125 -0.21875,0.34375 -0.21875,0.78125 0,0.65625 0.5,1.09375 0.5,0.4375 1.45312,0.4375 0.9375,0 1.67188,-0.40625 0.75,-0.421875 1.09375,-1.140625 0.26562,-0.5625 0.26562,-1.640625 z m 5.9851,4.859375 -2.96875,-9.671875 h 1.70312 l 1.53125,5.578125 0.57813,2.078125 q 0.0469,-0.15625 0.5,-2 l 1.54687,-5.65625 h 1.6875 l 1.4375,5.609375 0.48438,1.84375 0.5625,-1.859375 1.65625,-5.59375 h 1.59375 l -3.03125,9.671875 h -1.70313 l -1.53125,-5.796875 -0.375,-1.640625 -1.95312,7.4375 z m 11.69169,0 V 34.983655 h 1.64063 v 7.625 l 3.89062,-3.9375 h 2.10938 l -3.6875,3.59375 4.0625,6.078125 h -2.01563 l -3.20312,-4.953125 -1.15625,1.125 v 3.828125 z"
     fill-rule="nonzero"
     id="path17" />
  <path
     fill="#000000"
     fill-opacity="0"
     d="m 32.5,45.821523 h 62.58268 v 32 H 32.5 Z"
     fill-rule="evenodd"
     id="path19" />
  <path
     fill="#000000"
     d="m 60.09885,67.621523 -2.125,-6.90625 h 1.21875 l 1.09375,3.984375 0.421875,1.484375 q 0.01563,-0.109375 0.359375,-1.421875 l 1.09375,-4.046875 h 1.203125 l 1.03125,4 0.34375,1.328125 0.40625,-1.34375 1.171875,-3.984375 h 1.140625 l -2.15625,6.90625 h -1.21875 l -1.09375,-4.140625 -0.265625,-1.171875 -1.40625,5.3125 z m 8.328278,0 v -6.90625 h 1.0625 v 1.046875 q 0.40625,-0.734375 0.734375,-0.96875 0.34375,-0.234375 0.765625,-0.234375 0.59375,0 1.203125,0.375 l -0.40625,1.078125 q -0.4375,-0.25 -0.859375,-0.25 -0.390625,0 -0.703125,0.234375 -0.296875,0.234375 -0.421875,0.640625 -0.203125,0.625 -0.203125,1.359375 v 3.625 z m 4.46962,-8.1875 v -1.359375 h 1.171875 v 1.359375 z m 0,8.1875 v -6.90625 h 1.171875 v 6.90625 z m 5.507965,-1.046875 0.171875,1.03125 q -0.5,0.109375 -0.890625,0.109375 -0.640625,0 -1,-0.203125 -0.34375,-0.203125 -0.484375,-0.53125 -0.140625,-0.328125 -0.140625,-1.390625 v -3.96875 h -0.859375 v -0.90625 h 0.859375 v -1.71875 l 1.171875,-0.703125 v 2.421875 h 1.171875 v 0.90625 h -1.171875 v 4.046875 q 0,0.5 0.04687,0.640625 0.0625,0.140625 0.203125,0.234375 0.140625,0.07813 0.40625,0.07813 0.203125,0 0.515625,-0.04687 z m 5.874862,-1.171875 1.203125,0.140625 q -0.28125,1.0625 -1.0625,1.65625 -0.765625,0.578125 -1.96875,0.578125 -1.515625,0 -2.40625,-0.9375 -0.890625,-0.9375 -0.890625,-2.609375 0,-1.75 0.890625,-2.703125 0.90625,-0.96875 2.34375,-0.96875 1.390625,0 2.265625,0.9375 0.875,0.9375 0.875,2.65625 0,0.109375 0,0.3125 h -5.15625 q 0.0625,1.140625 0.640625,1.75 0.578125,0.59375 1.4375,0.59375 0.65625,0 1.109375,-0.328125 0.453125,-0.34375 0.71875,-1.078125 z m -3.84375,-1.90625 H 84.2952 q -0.07813,-0.859375 -0.4375,-1.296875 -0.5625,-0.6875 -1.453125,-0.6875 -0.8125,0 -1.359375,0.546875 -0.546875,0.53125 -0.609375,1.4375 z"
     fill-rule="nonzero"
     id="path21" />
  <path
     fill="#000000"
     fill-opacity="0"
     d="M 185.43059,0 H 248.4857 V 29.889763 H 185.43059 Z"
     fill-rule="evenodd"
     id="path23" />
  <path
     fill="#000000"
     d="m 195.28996,21.8 v -6.90625 h 1.0625 v 1.046875 q 0.40625,-0.734375 0.73437,-0.96875 0.34375,-0.234375 0.76563,-0.234375 0.59375,0 1.20312,0.375 l -0.40625,1.078125 q -0.4375,-0.25 -0.85937,-0.25 -0.39063,0 -0.70313,0.234375 -0.29687,0.234375 -0.42187,0.640625 -0.20313,0.625 -0.20313,1.359375 V 21.8 Z m 9.18837,-2.21875 1.20312,0.140625 q -0.28125,1.0625 -1.0625,1.65625 -0.76562,0.578125 -1.96875,0.578125 -1.51562,0 -2.40625,-0.9375 -0.89062,-0.9375 -0.89062,-2.609375 0,-1.75 0.89062,-2.703125 0.90625,-0.96875 2.34375,-0.96875 1.39063,0 2.26563,0.9375 0.875,0.9375 0.875,2.65625 0,0.109375 0,0.3125 h -5.15625 q 0.0625,1.140625 0.64062,1.75 0.57813,0.59375 1.4375,0.59375 0.65625,0 1.10938,-0.328125 0.45312,-0.34375 0.71875,-1.078125 z M 200.63458,17.675 h 3.85937 q -0.0781,-0.859375 -0.4375,-1.296875 -0.5625,-0.6875 -1.45312,-0.6875 -0.8125,0 -1.35938,0.546875 -0.54687,0.53125 -0.60937,1.4375 z m 11.03748,3.265625 q -0.65625,0.5625 -1.26563,0.796875 -0.59375,0.21875 -1.28125,0.21875 -1.14062,0 -1.75,-0.546875 -0.60937,-0.5625 -0.60937,-1.4375 0,-0.5 0.21875,-0.921875 0.23437,-0.421875 0.60937,-0.671875 0.375,-0.25 0.84375,-0.390625 0.34375,-0.07813 1.04688,-0.171875 1.42187,-0.171875 2.09375,-0.40625 0,-0.234375 0,-0.296875 0,-0.71875 -0.32813,-1.015625 -0.45312,-0.390625 -1.34375,-0.390625 -0.8125,0 -1.21875,0.296875 -0.39062,0.28125 -0.57812,1.015625 l -1.14063,-0.15625 q 0.15625,-0.734375 0.51563,-1.1875 0.35937,-0.453125 1.03125,-0.6875 0.67187,-0.25 1.5625,-0.25 0.89062,0 1.4375,0.203125 0.5625,0.203125 0.8125,0.53125 0.26562,0.3125 0.375,0.796875 0.0469,0.296875 0.0469,1.078125 v 1.5625 q 0,1.625 0.0781,2.0625 0.0781,0.4375 0.29687,0.828125 h -1.21875 q -0.1875,-0.359375 -0.23437,-0.859375 z m -0.0937,-2.609375 q -0.64063,0.265625 -1.92188,0.4375 -0.71875,0.109375 -1.01562,0.25 -0.29688,0.125 -0.46875,0.375 -0.15625,0.25 -0.15625,0.546875 0,0.46875 0.34375,0.78125 0.35937,0.3125 1.04687,0.3125 0.67188,0 1.20313,-0.296875 0.53125,-0.296875 0.78125,-0.8125 0.1875,-0.390625 0.1875,-1.171875 z M 219.05333,21.8 v -0.875 q -0.65625,1.03125 -1.9375,1.03125 -0.8125,0 -1.51562,-0.453125 -0.6875,-0.453125 -1.07813,-1.265625 -0.375,-0.828125 -0.375,-1.890625 0,-1.03125 0.34375,-1.875 0.34375,-0.84375 1.03125,-1.28125 0.70313,-0.453125 1.54688,-0.453125 0.625,0 1.10937,0.265625 0.5,0.25 0.79688,0.671875 v -3.421875 h 1.17187 V 21.8 Z m -3.70312,-3.453125 q 0,1.328125 0.5625,1.984375 0.5625,0.65625 1.32812,0.65625 0.76563,0 1.29688,-0.625 0.53125,-0.625 0.53125,-1.90625 0,-1.421875 -0.54688,-2.078125 -0.54687,-0.671875 -1.34375,-0.671875 -0.78125,0 -1.3125,0.640625 -0.51562,0.625 -0.51562,2 z"
     fill-rule="nonzero"
     id="path25" />
  <path
     fill="#000000"
     fill-opacity="0"
     d="m 95.10596,75.992788 h 55.90552"
     fill-rule="evenodd"
     id="path27" />
  <path
     stroke="#000000"
     stroke-width="1"
     stroke-linejoin="round"
     stroke-linecap="butt"
     d="m 95.10596,75.992788 h 55.90552"
     fill-rule="evenodd"
     id="path29" />
  <path
     fill="#000000"
     fill-opacity="0"
     d="m 95.10596,60.239507 h 42.4252"
     fill-rule="evenodd"
     id="path31" />
  <path
     stroke="#000000"
     stroke-width="1"
     stroke-linejoin="round"
     stroke-linecap="butt"
     d="m 95.10596,60.239507 h 42.4252"
     fill-rule="evenodd"
     id="path33" />
  <path
     fill="#000000"
     fill-opacity="0"
     d="m 151.03008,22.219171 h 36.94488"
     fill-rule="evenodd"
     id="path35" />
  <path
     stroke="#000000"
     stroke-width="1"
     stroke-linejoin="round"
     stroke-linecap="butt"
     d="m 151.03008,22.219171 h 36.94488"
     fill-rule="evenodd"
     id="path37" />
  <path
     fill="#000000"
     fill-opacity="0"
     d="m 137.78394,6.465896 h 50.17322"
     fill-rule="evenodd"
     id="path39" />
  <path
     stroke="#000000"
     stroke-width="1"
     stroke-linejoin="round"
     stroke-linecap="butt"
     d="m 137.78394,6.465896 h 50.17322"
     fill-rule="evenodd"
     id="path41" />
  <path
     fill="#000000"
     fill-opacity="0"
     d="m 137.78394,6.465896 v 54.14173"
     fill-rule="evenodd"
     id="path43" />
  <path
     stroke="#000000"
     stroke-width="1"
     stroke-linejoin="round"
     stroke-linecap="butt"
     d="m 137.78394,6.465896 v 54.14173"
     fill-rule="evenodd"
     id="path45" />
  <path
     fill="#000000"
     fill-opacity="0"
     d="M 151.0118,22.031943 V 75.606749"
     fill-rule="evenodd"
     id="path47" />
  <path
     stroke="#000000"
     stroke-width="1"
     stroke-linejoin="round"
     stroke-linecap="butt"
     d="M 151.0118,22.031943 V 75.606749"
     fill-rule="evenodd"
     id="path49" />
  <path
     fill="#000000"
     fill-opacity="0"
     d="m 104.01777,68.788863 h 38.07874"
     fill-rule="evenodd"
     id="path51" />
  <path
     stroke="#000000"
     stroke-width="1"
     stroke-linejoin="round"
     stroke-linecap="butt"
     d="m 104.01777,68.788863 h 32.07874"
     fill-rule="evenodd"
     id="path53" />
  <path
     fill="#000000"
     stroke="#000000"
     stroke-width="1"
     stroke-linecap="butt"
     d="m 136.09651,70.440593 4.5381,-1.651733 -4.5381,-1.651734 z"
     fill-rule="evenodd"
     id="path55" />
  <path
     fill="#000000"
     fill-opacity="0"
     d="m 142.56615,13.537017 h 38.07873"
     fill-rule="evenodd"
     id="path57" />
  <path
     stroke="#000000"
     stroke-width="1"
     stroke-linejoin="round"
     stroke-linecap="butt"
     d="M 142.56615,13.537017 H 174.6449"
     fill-rule="evenodd"
     id="path59" />
  <path
     fill="#000000"
     stroke="#000000"
     stroke-width="1"
     stroke-linecap="butt"
     d="m 174.6449,15.188751 4.53809,-1.651733 -4.53809,-1.651732 z"
     fill-rule="evenodd"
     id="path61" />
  <path
     fill="#cfe2f3"
     d="m 375.22748,6.840353 h 94.61417 v 69.16535 h -94.61417 z"
     fill-rule="evenodd"
     id="path63" />
  <path
     stroke="#000000"
     stroke-width="1"
     stroke-linejoin="round"
     stroke-linecap="butt"
     d="m 375.22748,6.840353 h 94.61417 v 69.16535 h -94.61417 z"
     fill-rule="evenodd"
     id="path65" />
  <path
     fill="#000000"
     d="m 407.56277,45.452405 1.625,-0.25 q 0.125,0.96875 0.75,1.5 0.625,0.515625 1.75,0.515625 1.125,0 1.67187,-0.453125 0.54688,-0.46875 0.54688,-1.09375 0,-0.546875 -0.48438,-0.875 -0.32812,-0.21875 -1.67187,-0.546875 -1.8125,-0.46875 -2.51563,-0.796875 -0.6875,-0.328125 -1.04687,-0.90625 -0.35938,-0.59375 -0.35938,-1.3125 0,-0.640625 0.29688,-1.1875 0.29687,-0.5625 0.8125,-0.921875 0.375,-0.28125 1.03125,-0.46875 0.67187,-0.203125 1.42187,-0.203125 1.14063,0 2,0.328125 0.85938,0.328125 1.26563,0.890625 0.42187,0.5625 0.57812,1.5 l -1.60937,0.21875 q -0.10938,-0.75 -0.64063,-1.171875 -0.51562,-0.421875 -1.46875,-0.421875 -1.14062,0 -1.625,0.375 -0.46875,0.375 -0.46875,0.875 0,0.3125 0.1875,0.578125 0.20313,0.265625 0.64063,0.4375 0.23437,0.09375 1.4375,0.421875 1.75,0.453125 2.4375,0.75 0.6875,0.296875 1.07812,0.859375 0.39063,0.5625 0.39063,1.40625 0,0.828125 -0.48438,1.546875 -0.46875,0.71875 -1.375,1.125 -0.90625,0.390625 -2.04687,0.390625 -1.875,0 -2.875,-0.78125 -0.98438,-0.78125 -1.25,-2.328125 z m 9.375,-1.953125 q 0,-2.6875 1.48437,-3.96875 1.25,-1.078125 3.04688,-1.078125 2,0 3.26562,1.3125 1.26563,1.296875 1.26563,3.609375 0,1.859375 -0.5625,2.9375 -0.5625,1.0625 -1.64063,1.65625 -1.0625,0.59375 -2.32812,0.59375 -2.03125,0 -3.28125,-1.296875 -1.25,-1.3125 -1.25,-3.765625 z m 1.6875,0 q 0,1.859375 0.79687,2.796875 0.8125,0.921875 2.04688,0.921875 1.21875,0 2.03125,-0.921875 0.8125,-0.9375 0.8125,-2.84375 0,-1.796875 -0.8125,-2.71875 -0.8125,-0.921875 -2.03125,-0.921875 -1.23438,0 -2.04688,0.921875 -0.79687,0.90625 -0.79687,2.765625 z m 9.28198,4.84375 v -9.671875 h 1.46875 v 1.46875 q 0.5625,-1.03125 1.03125,-1.359375 0.48438,-0.328125 1.0625,-0.328125 0.82813,0 1.6875,0.53125 l -0.5625,1.515625 q -0.60937,-0.359375 -1.20312,-0.359375 -0.54688,0 -0.96875,0.328125 -0.42188,0.328125 -0.60938,0.890625 -0.28125,0.875 -0.28125,1.921875 v 5.0625 z m 9.80643,-1.46875 0.23437,1.453125 q -0.6875,0.140625 -1.23437,0.140625 -0.89063,0 -1.39063,-0.28125 -0.48437,-0.28125 -0.6875,-0.734375 -0.20312,-0.46875 -0.20312,-1.9375 V 39.93678 h -1.20313 v -1.265625 h 1.20313 V 36.28053 l 1.625,-0.984375 v 3.375 h 1.65625 v 1.265625 h -1.65625 v 5.671875 q 0,0.6875 0.0781,0.890625 0.0937,0.203125 0.28125,0.328125 0.20313,0.109375 0.57813,0.109375 0.26562,0 0.71875,-0.0625 z"
     fill-rule="nonzero"
     id="path67" />
  <path
     fill="#000000"
     fill-opacity="0"
     d="m 224.5,45.821523 h 57.85828 v 32 H 224.5 Z"
     fill-rule="evenodd"
     id="path69" />
  <path
     fill="#000000"
     d="m 247.37445,67.621523 -2.125,-6.90625 h 1.21875 l 1.09375,3.984375 0.42187,1.484375 q 0.0156,-0.109375 0.35938,-1.421875 l 1.09375,-4.046875 h 1.20313 l 1.03125,4 0.34375,1.328125 0.40625,-1.34375 1.17187,-3.984375 h 1.14063 l -2.15625,6.90625 h -1.21875 l -1.09375,-4.140625 -0.26563,-1.171875 -1.40625,5.3125 z m 8.32828,0 v -6.90625 h 1.0625 v 1.046875 q 0.40625,-0.734375 0.73437,-0.96875 0.34375,-0.234375 0.76563,-0.234375 0.59375,0 1.20312,0.375 l -0.40625,1.078125 q -0.4375,-0.25 -0.85937,-0.25 -0.39063,0 -0.70313,0.234375 -0.29687,0.234375 -0.42187,0.640625 -0.20313,0.625 -0.20313,1.359375 v 3.625 z m 4.4696,-8.1875 v -1.359375 h 1.17188 v 1.359375 z m 0,8.1875 v -6.90625 h 1.17188 v 6.90625 z m 5.50797,-1.046875 0.17187,1.03125 q -0.5,0.109375 -0.89062,0.109375 -0.64063,0 -1,-0.203125 -0.34375,-0.203125 -0.48438,-0.53125 -0.14062,-0.328125 -0.14062,-1.390625 v -3.96875 h -0.85938 v -0.90625 h 0.85938 v -1.71875 l 1.17187,-0.703125 v 2.421875 h 1.17188 v 0.90625 h -1.17188 v 4.046875 q 0,0.5 0.0469,0.640625 0.0625,0.140625 0.20312,0.234375 0.14063,0.07813 0.40625,0.07813 0.20313,0 0.51563,-0.04687 z m 5.87488,-1.171875 1.20312,0.140625 q -0.28125,1.0625 -1.0625,1.65625 -0.76562,0.578125 -1.96875,0.578125 -1.51562,0 -2.40625,-0.9375 -0.89062,-0.9375 -0.89062,-2.609375 0,-1.75 0.89062,-2.703125 0.90625,-0.96875 2.34375,-0.96875 1.39063,0 2.26563,0.9375 0.875,0.9375 0.875,2.65625 0,0.109375 0,0.3125 h -5.15625 q 0.0625,1.140625 0.64062,1.75 0.57813,0.59375 1.4375,0.59375 0.65625,0 1.10938,-0.328125 0.45312,-0.34375 0.71875,-1.078125 z m -3.84375,-1.90625 h 3.85937 q -0.0781,-0.859375 -0.4375,-1.296875 -0.5625,-0.6875 -1.45312,-0.6875 -0.8125,0 -1.35938,0.546875 -0.54687,0.53125 -0.60937,1.4375 z"
     fill-rule="nonzero"
     id="path71" />
  <path
     fill="#000000"
     fill-opacity="0"
     d="m 372.6828,0 h 67.81103 V 29.889763 H 372.6828 Z"
     fill-rule="evenodd"
     id="path73" />
  <path
     fill="#000000"
     d="m 382.54218,21.8 v -6.90625 h 1.0625 v 1.046875 q 0.40625,-0.734375 0.73437,-0.96875 0.34375,-0.234375 0.76563,-0.234375 0.59375,0 1.20312,0.375 l -0.40625,1.078125 q -0.4375,-0.25 -0.85937,-0.25 -0.39063,0 -0.70313,0.234375 -0.29687,0.234375 -0.42187,0.640625 -0.20313,0.625 -0.20313,1.359375 V 21.8 Z m 9.18838,-2.21875 1.20313,0.140625 q -0.28125,1.0625 -1.0625,1.65625 -0.76563,0.578125 -1.96875,0.578125 -1.51563,0 -2.40625,-0.9375 -0.89063,-0.9375 -0.89063,-2.609375 0,-1.75 0.89063,-2.703125 0.90625,-0.96875 2.34375,-0.96875 1.39062,0 2.26562,0.9375 0.875,0.9375 0.875,2.65625 0,0.109375 0,0.3125 h -5.15625 q 0.0625,1.140625 0.64063,1.75 0.57812,0.59375 1.4375,0.59375 0.65625,0 1.10937,-0.328125 0.45313,-0.34375 0.71875,-1.078125 z M 387.88681,17.675 h 3.85938 q -0.0781,-0.859375 -0.4375,-1.296875 -0.5625,-0.6875 -1.45313,-0.6875 -0.8125,0 -1.35937,0.546875 -0.54688,0.53125 -0.60938,1.4375 z m 11.03748,3.265625 q -0.65625,0.5625 -1.26562,0.796875 -0.59375,0.21875 -1.28125,0.21875 -1.14063,0 -1.75,-0.546875 -0.60938,-0.5625 -0.60938,-1.4375 0,-0.5 0.21875,-0.921875 0.23438,-0.421875 0.60938,-0.671875 0.375,-0.25 0.84375,-0.390625 0.34375,-0.07813 1.04687,-0.171875 1.42188,-0.171875 2.09375,-0.40625 0,-0.234375 0,-0.296875 0,-0.71875 -0.32812,-1.015625 -0.45313,-0.390625 -1.34375,-0.390625 -0.8125,0 -1.21875,0.296875 -0.39063,0.28125 -0.57813,1.015625 l -1.14062,-0.15625 q 0.15625,-0.734375 0.51562,-1.1875 0.35938,-0.453125 1.03125,-0.6875 0.67188,-0.25 1.5625,-0.25 0.89063,0 1.4375,0.203125 0.5625,0.203125 0.8125,0.53125 0.26563,0.3125 0.375,0.796875 0.0469,0.296875 0.0469,1.078125 v 1.5625 q 0,1.625 0.0781,2.0625 0.0781,0.4375 0.29688,0.828125 h -1.21875 q -0.1875,-0.359375 -0.23438,-0.859375 z m -0.0937,-2.609375 q -0.64062,0.265625 -1.92187,0.4375 -0.71875,0.109375 -1.01563,0.25 -0.29687,0.125 -0.46875,0.375 -0.15625,0.25 -0.15625,0.546875 0,0.46875 0.34375,0.78125 0.35938,0.3125 1.04688,0.3125 0.67187,0 1.20312,-0.296875 0.53125,-0.296875 0.78125,-0.8125 0.1875,-0.390625 0.1875,-1.171875 z M 406.30557,21.8 v -0.875 q -0.65625,1.03125 -1.9375,1.03125 -0.8125,0 -1.51563,-0.453125 -0.6875,-0.453125 -1.07812,-1.265625 -0.375,-0.828125 -0.375,-1.890625 0,-1.03125 0.34375,-1.875 0.34375,-0.84375 1.03125,-1.28125 0.70312,-0.453125 1.54687,-0.453125 0.625,0 1.10938,0.265625 0.5,0.25 0.79687,0.671875 v -3.421875 h 1.17188 V 21.8 Z m -3.70313,-3.453125 q 0,1.328125 0.5625,1.984375 0.5625,0.65625 1.32813,0.65625 0.76562,0 1.29687,-0.625 0.53125,-0.625 0.53125,-1.90625 0,-1.421875 -0.54687,-2.078125 -0.54688,-0.671875 -1.34375,-0.671875 -0.78125,0 -1.3125,0.640625 -0.51563,0.625 -0.51563,2 z"
     fill-rule="nonzero"
     id="path75" />
  <path
     fill="#000000"
     fill-opacity="0"
     d="m 282.3582,75.992788 h 55.90552"
     fill-rule="evenodd"
     id="path77" />
  <path
     stroke="#000000"
     stroke-width="1"
     stroke-linejoin="round"
     stroke-linecap="butt"
     d="m 282.3582,75.992788 h 55.90552"
     fill-rule="evenodd"
     id="path79" />
  <path
     fill="#000000"
     fill-opacity="0"
     d="m 282.3582,60.239507 h 42.4252"
     fill-rule="evenodd"
     id="path81" />
  <path
     stroke="#000000"
     stroke-width="1"
     stroke-linejoin="round"
     stroke-linecap="butt"
     d="m 282.3582,60.239507 h 42.4252"
     fill-rule="evenodd"
     id="path83" />
  <path
     fill="#000000"
     fill-opacity="0"
     d="m 338.28232,22.219171 h 36.94489"
     fill-rule="evenodd"
     id="path85" />
  <path
     stroke="#000000"
     stroke-width="1"
     stroke-linejoin="round"
     stroke-linecap="butt"
     d="m 338.28232,22.219171 h 36.94489"
     fill-rule="evenodd"
     id="path87" />
  <path
     fill="#000000"
     fill-opacity="0"
     d="m 325.03616,6.465896 h 50.17322"
     fill-rule="evenodd"
     id="path89" />
  <path
     stroke="#000000"
     stroke-width="1"
     stroke-linejoin="round"
     stroke-linecap="butt"
     d="m 325.03616,6.465896 h 50.17322"
     fill-rule="evenodd"
     id="path91" />
  <path
     fill="#000000"
     fill-opacity="0"
     d="m 325.03616,6.465896 v 54.14173"
     fill-rule="evenodd"
     id="path93" />
  <path
     stroke="#000000"
     stroke-width="1"
     stroke-linejoin="round"
     stroke-linecap="butt"
     d="m 325.03616,6.465896 v 54.14173"
     fill-rule="evenodd"
     id="path95" />
  <path
     fill="#000000"
     fill-opacity="0"
     d="M 338.26404,22.031943 V 75.606749"
     fill-rule="evenodd"
     id="path97" />
  <path
     stroke="#000000"
     stroke-width="1"
     stroke-linejoin="round"
     stroke-linecap="butt"
     d="M 338.26404,22.031943 V 75.606749"
     fill-rule="evenodd"
     id="path99" />
  <path
     fill="#000000"
     fill-opacity="0"
     d="m 291.27,68.788863 h 38.07873"
     fill-rule="evenodd"
     id="path101" />
  <path
     stroke="#000000"
     stroke-width="1"
     stroke-linejoin="round"
     stroke-linecap="butt"
     d="m 291.27,68.788863 h 32.07873"
     fill-rule="evenodd"
     id="path103" />
  <path
     fill="#000000"
     stroke="#000000"
     stroke-width="1"
     stroke-linecap="butt"
     d="m 323.34872,70.440593 4.53812,-1.651733 -4.53812,-1.651734 z"
     fill-rule="evenodd"
     id="path105" />
  <path
     fill="#000000"
     fill-opacity="0"
     d="m 329.8184,13.537017 h 38.07873"
     fill-rule="evenodd"
     id="path107" />
  <path
     stroke="#000000"
     stroke-width="1"
     stroke-linejoin="round"
     stroke-linecap="butt"
     d="m 329.8184,13.537017 h 32.0787"
     fill-rule="evenodd"
     id="path109" />
  <path
     fill="#000000"
     stroke="#000000"
     stroke-width="1"
     stroke-linecap="butt"
     d="m 361.8971,15.188751 4.53812,-1.651733 -4.53812,-1.651732 z"
     fill-rule="evenodd"
     id="path111" />
  <path
     fill="#cfe2f3"
     d="m 561.88074,6.840353 h 94.61414 v 69.16535 h -94.61414 z"
     fill-rule="evenodd"
     id="path113" />
  <path
     stroke="#000000"
     stroke-width="1"
     stroke-linejoin="round"
     stroke-linecap="butt"
     d="m 561.88074,6.840353 h 94.61414 v 69.16535 h -94.61414 z"
     fill-rule="evenodd"
     id="path115" />
  <path
     fill="#000000"
     d="m 602.076,46.87428 0.23438,1.453125 q -0.6875,0.140625 -1.23438,0.140625 -0.89062,0 -1.39062,-0.28125 -0.48438,-0.28125 -0.6875,-0.734375 -0.20313,-0.46875 -0.20313,-1.9375 V 39.93678 h -1.20312 v -1.265625 h 1.20312 V 36.28053 l 1.625,-0.984375 v 3.375 h 1.65625 v 1.265625 h -1.65625 v 5.671875 q 0,0.6875 0.0781,0.890625 0.0937,0.203125 0.28125,0.328125 0.20312,0.109375 0.57812,0.109375 0.26563,0 0.71875,-0.0625 z m 7.91766,0.28125 q -0.92187,0.765625 -1.76562,1.09375 -0.82813,0.3125 -1.79688,0.3125 -1.59375,0 -2.45312,-0.78125 -0.85938,-0.78125 -0.85938,-1.984375 0,-0.71875 0.32813,-1.296875 0.32812,-0.59375 0.84375,-0.9375 0.53125,-0.359375 1.1875,-0.546875 0.46875,-0.125 1.45312,-0.25 1.98438,-0.234375 2.92188,-0.5625 0.0156,-0.34375 0.0156,-0.421875 0,-1 -0.46875,-1.421875 -0.625,-0.546875 -1.875,-0.546875 -1.15625,0 -1.70312,0.40625 -0.54688,0.40625 -0.8125,1.421875 l -1.60938,-0.21875 q 0.21875,-1.015625 0.71875,-1.640625 0.5,-0.640625 1.45313,-0.984375 0.95312,-0.34375 2.1875,-0.34375 1.25,0 2.01562,0.296875 0.78125,0.28125 1.14063,0.734375 0.375,0.4375 0.51562,1.109375 0.0781,0.421875 0.0781,1.515625 v 2.1875 q 0,2.28125 0.10937,2.890625 0.10938,0.59375 0.40625,1.15625 h -1.70312 q -0.26563,-0.515625 -0.32813,-1.1875 z m -0.14062,-3.671875 q -0.89063,0.375 -2.67188,0.625 -1.01562,0.140625 -1.4375,0.328125 -0.42187,0.1875 -0.65625,0.53125 -0.21875,0.34375 -0.21875,0.78125 0,0.65625 0.5,1.09375 0.5,0.4375 1.45313,0.4375 0.9375,0 1.67187,-0.40625 0.75,-0.421875 1.09375,-1.140625 0.26563,-0.5625 0.26563,-1.640625 z m 4.20386,-6.609375 v -1.890625 h 1.64062 v 1.890625 z m 0,11.46875 v -9.671875 h 1.64062 v 9.671875 z m 4.0979,0 V 34.983655 h 1.64062 V 48.34303 Z"
     fill-rule="nonzero"
     id="path117" />
  <path
     fill="#000000"
     fill-opacity="0"
     d="m 408.5,45.821523 h 60.50394 v 32 H 408.5 Z"
     fill-rule="evenodd"
     id="path119" />
  <path
     fill="#000000"
     d="m 434.0201,67.621523 -2.125,-6.90625 h 1.21875 l 1.09375,3.984375 0.42188,1.484375 q 0.0156,-0.109375 0.35937,-1.421875 l 1.09375,-4.046875 h 1.20313 l 1.03125,4 0.34375,1.328125 0.40625,-1.34375 1.17187,-3.984375 h 1.14063 l -2.15625,6.90625 h -1.21875 l -1.09375,-4.140625 -0.26563,-1.171875 -1.40625,5.3125 z m 8.32828,0 v -6.90625 h 1.0625 v 1.046875 q 0.40625,-0.734375 0.73437,-0.96875 0.34375,-0.234375 0.76563,-0.234375 0.59375,0 1.20312,0.375 l -0.40625,1.078125 q -0.4375,-0.25 -0.85937,-0.25 -0.39063,0 -0.70313,0.234375 -0.29687,0.234375 -0.42187,0.640625 -0.20313,0.625 -0.20313,1.359375 v 3.625 z m 4.4696,-8.1875 v -1.359375 h 1.17188 v 1.359375 z m 0,8.1875 v -6.90625 h 1.17188 v 6.90625 z m 5.508,-1.046875 0.17187,1.03125 q -0.5,0.109375 -0.89062,0.109375 -0.64063,0 -1,-0.203125 -0.34375,-0.203125 -0.48438,-0.53125 -0.14062,-0.328125 -0.14062,-1.390625 v -3.96875 h -0.85938 v -0.90625 h 0.85938 v -1.71875 l 1.17187,-0.703125 v 2.421875 h 1.17188 v 0.90625 h -1.17188 v 4.046875 q 0,0.5 0.0469,0.640625 0.0625,0.140625 0.20312,0.234375 0.14063,0.07813 0.40625,0.07813 0.20313,0 0.51563,-0.04687 z m 5.87485,-1.171875 1.20312,0.140625 q -0.28125,1.0625 -1.0625,1.65625 -0.76562,0.578125 -1.96875,0.578125 -1.51562,0 -2.40625,-0.9375 -0.89062,-0.9375 -0.89062,-2.609375 0,-1.75 0.89062,-2.703125 0.90625,-0.96875 2.34375,-0.96875 1.39063,0 2.26563,0.9375 0.875,0.9375 0.875,2.65625 0,0.109375 0,0.3125 h -5.15625 q 0.0625,1.140625 0.64062,1.75 0.57813,0.59375 1.4375,0.59375 0.65625,0 1.10938,-0.328125 0.45312,-0.34375 0.71875,-1.078125 z m -3.84375,-1.90625 h 3.85937 q -0.0781,-0.859375 -0.4375,-1.296875 -0.5625,-0.6875 -1.45312,-0.6875 -0.8125,0 -1.35938,0.546875 -0.54687,0.53125 -0.60937,1.4375 z"
     fill-rule="nonzero"
     id="path121" />
  <path
     fill="#000000"
     fill-opacity="0"
     d="M 559.33606,0 H 616.5014 V 29.889763 H 559.33606 Z"
     fill-rule="evenodd"
     id="path123" />
  <path
     fill="#000000"
     d="m 569.19543,21.8 v -6.90625 h 1.0625 v 1.046875 q 0.40625,-0.734375 0.73437,-0.96875 0.34375,-0.234375 0.76563,-0.234375 0.59375,0 1.20312,0.375 l -0.40625,1.078125 q -0.4375,-0.25 -0.85937,-0.25 -0.39063,0 -0.70313,0.234375 -0.29687,0.234375 -0.42187,0.640625 -0.20313,0.625 -0.20313,1.359375 V 21.8 Z m 9.18835,-2.21875 1.20313,0.140625 q -0.28125,1.0625 -1.0625,1.65625 -0.76563,0.578125 -1.96875,0.578125 -1.51563,0 -2.40625,-0.9375 -0.89063,-0.9375 -0.89063,-2.609375 0,-1.75 0.89063,-2.703125 0.90625,-0.96875 2.34375,-0.96875 1.39062,0 2.26562,0.9375 0.875,0.9375 0.875,2.65625 0,0.109375 0,0.3125 h -5.15625 q 0.0625,1.140625 0.64063,1.75 0.57812,0.59375 1.4375,0.59375 0.65625,0 1.10937,-0.328125 0.45313,-0.34375 0.71875,-1.078125 z M 574.54003,17.675 h 3.85938 q -0.0781,-0.859375 -0.4375,-1.296875 -0.5625,-0.6875 -1.45313,-0.6875 -0.8125,0 -1.35937,0.546875 -0.54688,0.53125 -0.60938,1.4375 z m 11.03748,3.265625 q -0.65625,0.5625 -1.26562,0.796875 -0.59375,0.21875 -1.28125,0.21875 -1.14063,0 -1.75,-0.546875 -0.60938,-0.5625 -0.60938,-1.4375 0,-0.5 0.21875,-0.921875 0.23438,-0.421875 0.60938,-0.671875 0.375,-0.25 0.84375,-0.390625 0.34375,-0.07813 1.04687,-0.171875 1.42188,-0.171875 2.09375,-0.40625 0,-0.234375 0,-0.296875 0,-0.71875 -0.32812,-1.015625 -0.45313,-0.390625 -1.34375,-0.390625 -0.8125,0 -1.21875,0.296875 -0.39063,0.28125 -0.57813,1.015625 l -1.14062,-0.15625 q 0.15625,-0.734375 0.51562,-1.1875 0.35938,-0.453125 1.03125,-0.6875 0.67188,-0.25 1.5625,-0.25 0.89063,0 1.4375,0.203125 0.5625,0.203125 0.8125,0.53125 0.26563,0.3125 0.375,0.796875 0.0469,0.296875 0.0469,1.078125 v 1.5625 q 0,1.625 0.0781,2.0625 0.0781,0.4375 0.29688,0.828125 h -1.21875 q -0.1875,-0.359375 -0.23438,-0.859375 z m -0.0937,-2.609375 q -0.64062,0.265625 -1.92187,0.4375 -0.71875,0.109375 -1.01563,0.25 -0.29687,0.125 -0.46875,0.375 -0.15625,0.25 -0.15625,0.546875 0,0.46875 0.34375,0.78125 0.35938,0.3125 1.04688,0.3125 0.67187,0 1.20312,-0.296875 0.53125,-0.296875 0.78125,-0.8125 0.1875,-0.390625 0.1875,-1.171875 z M 592.95879,21.8 v -0.875 q -0.65625,1.03125 -1.9375,1.03125 -0.8125,0 -1.51563,-0.453125 -0.6875,-0.453125 -1.07812,-1.265625 -0.375,-0.828125 -0.375,-1.890625 0,-1.03125 0.34375,-1.875 0.34375,-0.84375 1.03125,-1.28125 0.70312,-0.453125 1.54687,-0.453125 0.625,0 1.10938,0.265625 0.5,0.25 0.79687,0.671875 v -3.421875 h 1.17188 V 21.8 Z m -3.70313,-3.453125 q 0,1.328125 0.5625,1.984375 0.5625,0.65625 1.32813,0.65625 0.76562,0 1.29687,-0.625 0.53125,-0.625 0.53125,-1.90625 0,-1.421875 -0.54687,-2.078125 -0.54688,-0.671875 -1.34375,-0.671875 -0.78125,0 -1.3125,0.640625 -0.51563,0.625 -0.51563,2 z"
     fill-rule="nonzero"
     id="path125" />
  <path
     fill="#000000"
     fill-opacity="0"
     d="m 469.0114,75.992788 h 55.90552"
     fill-rule="evenodd"
     id="path127" />
  <path
     stroke="#000000"
     stroke-width="1"
     stroke-linejoin="round"
     stroke-linecap="butt"
     d="m 469.0114,75.992788 h 55.90552"
     fill-rule="evenodd"
     id="path129" />
  <path
     fill="#000000"
     fill-opacity="0"
     d="m 469.0114,60.239507 h 42.42517"
     fill-rule="evenodd"
     id="path131" />
  <path
     stroke="#000000"
     stroke-width="1"
     stroke-linejoin="round"
     stroke-linecap="butt"
     d="m 469.0114,60.239507 h 42.42517"
     fill-rule="evenodd"
     id="path133" />
  <path
     fill="#000000"
     fill-opacity="0"
     d="m 524.93555,22.219171 h 36.94489"
     fill-rule="evenodd"
     id="path135" />
  <path
     stroke="#000000"
     stroke-width="1"
     stroke-linejoin="round"
     stroke-linecap="butt"
     d="m 524.93555,22.219171 h 36.94489"
     fill-rule="evenodd"
     id="path137" />
  <path
     fill="#000000"
     fill-opacity="0"
     d="m 511.6894,6.465896 h 50.17322"
     fill-rule="evenodd"
     id="path139" />
  <path
     stroke="#000000"
     stroke-width="1"
     stroke-linejoin="round"
     stroke-linecap="butt"
     d="m 511.6894,6.465896 h 50.17322"
     fill-rule="evenodd"
     id="path141" />
  <path
     fill="#000000"
     fill-opacity="0"
     d="m 511.6894,6.465896 v 54.14173"
     fill-rule="evenodd"
     id="path143" />
  <path
     stroke="#000000"
     stroke-width="1"
     stroke-linejoin="round"
     stroke-linecap="butt"
     d="m 511.6894,6.465896 v 54.14173"
     fill-rule="evenodd"
     id="path145" />
  <path
     fill="#000000"
     fill-opacity="0"
     d="M 524.91724,22.031943 V 75.606749"
     fill-rule="evenodd"
     id="path147" />
  <path
     stroke="#000000"
     stroke-width="1"
     stroke-linejoin="round"
     stroke-linecap="butt"
     d="M 524.91724,22.031943 V 75.606749"
     fill-rule="evenodd"
     id="path149" />
  <path
     fill="#000000"
     fill-opacity="0"
     d="m 477.92322,68.788863 h 38.07874"
     fill-rule="evenodd"
     id="path151" />
  <path
     stroke="#000000"
     stroke-width="1"
     stroke-linejoin="round"
     stroke-linecap="butt"
     d="m 477.92322,68.788863 h 32.07874"
     fill-rule="evenodd"
     id="path153" />
  <path
     fill="#000000"
     stroke="#000000"
     stroke-width="1"
     stroke-linecap="butt"
     d="m 510.00195,70.440593 4.53809,-1.651733 -4.53809,-1.651734 z"
     fill-rule="evenodd"
     id="path155" />
  <path
     fill="#000000"
     fill-opacity="0"
     d="m 516.4716,13.537017 h 38.07874"
     fill-rule="evenodd"
     id="path157" />
  <path
     stroke="#000000"
     stroke-width="1"
     stroke-linejoin="round"
     stroke-linecap="butt"
     d="m 516.4716,13.537017 h 32.07874"
     fill-rule="evenodd"
     id="path159" />
  <path
     fill="#000000"
     stroke="#000000"
     stroke-width="1"
     stroke-linecap="butt"
     d="m 548.55035,15.188751 4.53809,-1.651733 -4.53809,-1.651732 z"
     fill-rule="evenodd"
     id="path161" />
  <path
     fill="#000000"
     fill-opacity="0"
     d="m 600.5,45.177148 h 54.96063 V 77.177152 H 600.5 Z"
     fill-rule="evenodd"
     id="path163" />
  <path
     fill="#000000"
     d="m 620.4768,66.977147 -2.125,-6.90625 h 1.21875 l 1.09375,3.984375 0.42188,1.484375 q 0.0156,-0.109375 0.35937,-1.421875 l 1.09375,-4.046875 h 1.20313 l 1.03125,4 0.34375,1.328125 0.40625,-1.34375 1.17187,-3.984375 h 1.14063 l -2.15625,6.90625 h -1.21875 l -1.09375,-4.140625 -0.26563,-1.171875 -1.40625,5.3125 z m 8.32825,0 v -6.90625 h 1.0625 v 1.046875 q 0.40625,-0.734375 0.73437,-0.96875 0.34375,-0.234375 0.76563,-0.234375 0.59375,0 1.20312,0.375 l -0.40625,1.078125 q -0.4375,-0.25 -0.85937,-0.25 -0.39063,0 -0.70313,0.234375 -0.29687,0.234375 -0.42187,0.640625 -0.20313,0.625 -0.20313,1.359375 v 3.625 z m 4.46966,-8.1875 v -1.359375 h 1.17188 v 1.359375 z m 0,8.1875 v -6.90625 h 1.17188 v 6.90625 z m 5.50794,-1.046875 0.17187,1.03125 q -0.5,0.109375 -0.89062,0.109375 -0.64063,0 -1,-0.203125 -0.34375,-0.203125 -0.48438,-0.53125 -0.14062,-0.328125 -0.14062,-1.390625 v -3.96875 h -0.85938 v -0.90625 h 0.85938 v -1.71875 l 1.17187,-0.703125 v 2.421875 h 1.17188 v 0.90625 h -1.17188 v 4.046875 q 0,0.5 0.0469,0.640625 0.0625,0.140625 0.20312,0.234375 0.14063,0.07813 0.40625,0.07813 0.20313,0 0.51563,-0.04687 z m 5.87488,-1.171875 1.20312,0.140625 q -0.28125,1.0625 -1.0625,1.65625 -0.76562,0.578125 -1.96875,0.578125 -1.51562,0 -2.40625,-0.9375 -0.89062,-0.9375 -0.89062,-2.609375 0,-1.75 0.89062,-2.703125 0.90625,-0.96875 2.34375,-0.96875 1.39063,0 2.26563,0.9375 0.875,0.9375 0.875,2.65625 0,0.109375 0,0.3125 h -5.15625 q 0.0625,1.140625 0.64062,1.75 0.57813,0.59375 1.4375,0.59375 0.65625,0 1.10938,-0.328125 0.45312,-0.34375 0.71875,-1.078125 z m -3.84375,-1.90625 h 3.85937 q -0.0781,-0.859375 -0.4375,-1.296875 -0.5625,-0.6875 -1.45312,-0.6875 -0.8125,0 -1.35938,0.546875 -0.54687,0.53125 -0.60937,1.4375 z"
     fill-rule="nonzero"
     id="path165" />
  <path
     fill="#000000"
     fill-opacity="0"
     d="m 656.5,75.348409 h 43.30707"
     fill-rule="evenodd"
     id="path167" />
  <path
     stroke="#000000"
     stroke-width="1"
     stroke-linejoin="round"
     stroke-linecap="butt"
     d="m 656.5,75.348409 h 43.30707"
     fill-rule="evenodd"
     id="path169" />
  <path
     fill="#000000"
     fill-opacity="0"
     d="m 656.5,59.595133 h 32.91339"
     fill-rule="evenodd"
     id="path171" />
  <path
     stroke="#000000"
     stroke-width="1"
     stroke-linejoin="round"
     stroke-linecap="butt"
     d="m 656.5,59.595133 h 32.91339"
     fill-rule="evenodd"
     id="path173" />
  <path
     fill="#000000"
     fill-opacity="0"
     d="m 699.8505,21.574798 h 28.62994"
     fill-rule="evenodd"
     id="path175" />
  <path
     stroke="#000000"
     stroke-width="1"
     stroke-linejoin="round"
     stroke-linecap="butt"
     d="m 699.8505,21.574798 h 28.62994"
     fill-rule="evenodd"
     id="path177" />
  <path
     fill="#000000"
     fill-opacity="0"
     d="m 689.5826,5.821523 h 38.92914"
     fill-rule="evenodd"
     id="path179" />
  <path
     stroke="#000000"
     stroke-width="1"
     stroke-linejoin="round"
     stroke-linecap="butt"
     d="m 689.5826,5.821523 h 38.92914"
     fill-rule="evenodd"
     id="path181" />
  <path
     fill="#000000"
     fill-opacity="0"
     d="m 689.5826,5.821523 v 54.14173"
     fill-rule="evenodd"
     id="path183" />
  <path
     stroke="#000000"
     stroke-width="1"
     stroke-linejoin="round"
     stroke-linecap="butt"
     d="m 689.5826,5.821523 v 54.14173"
     fill-rule="evenodd"
     id="path185" />
  <path
     fill="#000000"
     fill-opacity="0"
     d="m 699.83636,21.387569 v 53.5748"
     fill-rule="evenodd"
     id="path187" />
  <path
     stroke="#000000"
     stroke-width="1"
     stroke-linejoin="round"
     stroke-linecap="butt"
     d="m 699.83636,21.387569 v 53.5748"
     fill-rule="evenodd"
     id="path189" />
  <path
     fill="#000000"
     fill-opacity="0"
     d="m 663.40814,68.144493 h 29.51178"
     fill-rule="evenodd"
     id="path191" />
  <path
     stroke="#000000"
     stroke-width="1"
     stroke-linejoin="round"
     stroke-linecap="butt"
     d="m 663.40814,68.144483 h 23.51178"
     fill-rule="evenodd"
     id="path193" />
  <path
     fill="#000000"
     stroke="#000000"
     stroke-width="1"
     stroke-linecap="butt"
     d="m 686.9199,69.796213 4.53815,-1.651733 -4.53815,-1.651726 z"
     fill-rule="evenodd"
     id="path195" />
  <path
     fill="#000000"
     fill-opacity="0"
     d="m 693.28955,12.892644 h 29.51184"
     fill-rule="evenodd"
     id="path197" />
  <path
     stroke="#000000"
     stroke-width="1"
     stroke-linejoin="round"
     stroke-linecap="butt"
     d="m 693.28955,12.892646 h 23.51178"
     fill-rule="evenodd"
     id="path199" />
  <path
     fill="#000000"
     stroke="#000000"
     stroke-width="1"
     stroke-linecap="butt"
     d="m 716.80133,14.544378 4.53809,-1.651732 -4.53809,-1.651733 z"
     fill-rule="evenodd"
     id="path201" />
  <path
     fill="#f9cb9c"
     d="m 728.5,5.821523 h 64 V 67.154645 L 781.83313,77.821523 H 728.5 Z"
     fill-rule="evenodd"
     id="path203" />
  <path
     fill="#c7a27c"
     d="m 781.8331,77.821523 2.13336,-8.533501 8.53351,-2.133377 z"
     fill-rule="evenodd"
     id="path205" />
  <path
     fill="#000000"
     fill-opacity="0"
     d="m 781.8331,77.821523 2.13336,-8.533501 8.53351,-2.133377 -10.66687,10.666878 h -53.33313 v -72 h 64 v 61.333122"
     fill-rule="evenodd"
     id="path207" />
  <path
     stroke="#000000"
     stroke-width="1"
     stroke-linejoin="round"
     stroke-linecap="butt"
     d="m 781.8331,77.821523 2.13336,-8.533501 8.53351,-2.133377 -10.66687,10.666878 h -53.33313 v -72 h 64 v 61.333122"
     fill-rule="evenodd"
     id="path209" />
  <path
     fill="#000000"
     d="m 737.78125,33.010579 0.8125,-0.140625 q 0.0781,0.5 0.39062,0.765625 0.3125,0.25 0.85938,0.25 0.57812,0 0.84375,-0.234375 0.28125,-0.234375 0.28125,-0.53125 0,-0.28125 -0.25,-0.4375 -0.17188,-0.109375 -0.84375,-0.28125 -0.89063,-0.234375 -1.25,-0.390625 -0.34375,-0.171875 -0.53125,-0.46875 -0.17188,-0.296875 -0.17188,-0.640625 0,-0.328125 0.14063,-0.59375 0.15625,-0.28125 0.40625,-0.46875 0.20312,-0.140625 0.53125,-0.234375 0.32812,-0.109375 0.70312,-0.109375 0.57813,0 1,0.171875 0.4375,0.15625 0.64063,0.4375 0.20312,0.28125 0.28125,0.75 l -0.79688,0.109375 q -0.0625,-0.375 -0.32812,-0.578125 -0.26563,-0.203125 -0.73438,-0.203125 -0.5625,0 -0.8125,0.1875 -0.23437,0.171875 -0.23437,0.4375 0,0.15625 0.0937,0.28125 0.10937,0.125 0.3125,0.21875 0.125,0.04687 0.73437,0.203125 0.85938,0.234375 1.20313,0.390625 0.34375,0.140625 0.53125,0.421875 0.20312,0.28125 0.20312,0.703125 0,0.40625 -0.23437,0.78125 -0.23438,0.359375 -0.6875,0.5625 -0.45313,0.1875 -1.01563,0.1875 -0.95312,0 -1.45312,-0.390625 -0.48438,-0.390625 -0.625,-1.15625 z m 6.78906,0.703125 0.10938,0.71875 q -0.34375,0.07813 -0.60938,0.07813 -0.45312,0 -0.70312,-0.140625 -0.23438,-0.140625 -0.34375,-0.359375 -0.0937,-0.234375 -0.0937,-0.984375 v -2.78125 h -0.60938 v -0.640625 h 0.60938 v -1.1875 l 0.8125,-0.5 v 1.6875 h 0.82812 v 0.640625 h -0.82812 v 2.828125 q 0,0.359375 0.0469,0.46875 0.0469,0.09375 0.14063,0.15625 0.0937,0.04687 0.28125,0.04687 0.14062,0 0.35937,-0.03125 z m 3.95105,0.140625 q -0.45312,0.390625 -0.875,0.546875 -0.42187,0.15625 -0.90625,0.15625 -0.79687,0 -1.21875,-0.390625 -0.42187,-0.390625 -0.42187,-1 0,-0.34375 0.15625,-0.640625 0.15625,-0.296875 0.42187,-0.46875 0.26563,-0.1875 0.59375,-0.28125 0.23438,-0.0625 0.71875,-0.109375 1,-0.125 1.46875,-0.28125 0,-0.171875 0,-0.21875 0,-0.5 -0.23437,-0.703125 -0.3125,-0.28125 -0.92188,-0.28125 -0.57812,0 -0.85937,0.203125 -0.28125,0.203125 -0.40625,0.71875 l -0.79688,-0.109375 q 0.10938,-0.515625 0.35938,-0.828125 0.25,-0.328125 0.71875,-0.5 0.46875,-0.171875 1.09375,-0.171875 0.625,0 1,0.15625 0.39062,0.140625 0.57812,0.359375 0.1875,0.21875 0.25,0.5625 0.0469,0.203125 0.0469,0.75 v 1.09375 q 0,1.140625 0.0469,1.453125 0.0625,0.296875 0.21875,0.578125 h -0.85937 q -0.125,-0.25 -0.17188,-0.59375 z m -0.0625,-1.828125 q -0.45312,0.171875 -1.34375,0.296875 -0.5,0.07813 -0.71875,0.171875 -0.20312,0.09375 -0.3125,0.265625 -0.10937,0.171875 -0.10937,0.390625 0,0.328125 0.23437,0.546875 0.25,0.21875 0.73438,0.21875 0.46875,0 0.82812,-0.203125 0.375,-0.21875 0.5625,-0.578125 0.125,-0.265625 0.125,-0.8125 z m 2.09412,2.421875 v -4.84375 h 0.75 v 0.6875 q 0.53125,-0.796875 1.53125,-0.796875 0.4375,0 0.79687,0.171875 0.375,0.15625 0.54688,0.40625 0.1875,0.25 0.26562,0.609375 0.0469,0.21875 0.0469,0.796875 v 2.96875 h -0.82813 v -2.9375 q 0,-0.5 -0.0937,-0.75 -0.0937,-0.25 -0.34375,-0.390625 -0.23437,-0.15625 -0.5625,-0.15625 -0.51562,0 -0.90625,0.328125 -0.375,0.328125 -0.375,1.265625 v 2.640625 z m 8.32849,0 v -0.609375 q -0.45313,0.71875 -1.34375,0.71875 -0.57813,0 -1.0625,-0.3125 -0.48438,-0.328125 -0.76563,-0.890625 -0.26562,-0.578125 -0.26562,-1.3125 0,-0.734375 0.23437,-1.3125 0.25,-0.59375 0.73438,-0.90625 0.48437,-0.328125 1.07812,-0.328125 0.4375,0 0.78125,0.1875 0.34375,0.1875 0.5625,0.484375 v -2.390625 h 0.8125 v 6.671875 z m -2.59375,-2.40625 q 0,0.921875 0.39062,1.390625 0.39063,0.453125 0.9375,0.453125 0.53125,0 0.90625,-0.4375 0.375,-0.4375 0.375,-1.34375 0,-1 -0.39062,-1.453125 -0.375,-0.46875 -0.9375,-0.46875 -0.54688,0 -0.92188,0.453125 -0.35937,0.4375 -0.35937,1.40625 z m 7.79724,1.8125 q -0.45312,0.390625 -0.875,0.546875 -0.42187,0.15625 -0.90625,0.15625 -0.79687,0 -1.21875,-0.390625 -0.42187,-0.390625 -0.42187,-1 0,-0.34375 0.15625,-0.640625 0.15625,-0.296875 0.42187,-0.46875 0.26563,-0.1875 0.59375,-0.28125 0.23438,-0.0625 0.71875,-0.109375 1,-0.125 1.46875,-0.28125 0,-0.171875 0,-0.21875 0,-0.5 -0.23437,-0.703125 -0.3125,-0.28125 -0.92188,-0.28125 -0.57812,0 -0.85937,0.203125 -0.28125,0.203125 -0.40625,0.71875 l -0.79688,-0.109375 q 0.10938,-0.515625 0.35938,-0.828125 0.25,-0.328125 0.71875,-0.5 0.46875,-0.171875 1.09375,-0.171875 0.625,0 1,0.15625 0.39062,0.140625 0.57812,0.359375 0.1875,0.21875 0.25,0.5625 0.0469,0.203125 0.0469,0.75 v 1.09375 q 0,1.140625 0.0469,1.453125 0.0625,0.296875 0.21875,0.578125 h -0.85937 q -0.125,-0.25 -0.17188,-0.59375 z m -0.0625,-1.828125 q -0.45312,0.171875 -1.34375,0.296875 -0.5,0.07813 -0.71875,0.171875 -0.20312,0.09375 -0.3125,0.265625 -0.10937,0.171875 -0.10937,0.390625 0,0.328125 0.23437,0.546875 0.25,0.21875 0.73438,0.21875 0.46875,0 0.82812,-0.203125 0.375,-0.21875 0.5625,-0.578125 0.125,-0.265625 0.125,-0.8125 z m 2.09412,2.421875 v -4.84375 h 0.73437 v 0.734375 q 0.28125,-0.515625 0.51563,-0.671875 0.25,-0.171875 0.53125,-0.171875 0.42187,0 0.84375,0.265625 l -0.28125,0.765625 q -0.29688,-0.171875 -0.60938,-0.171875 -0.26562,0 -0.48437,0.15625 -0.20313,0.15625 -0.29688,0.453125 -0.14062,0.4375 -0.14062,0.953125 v 2.53125 z m 6.24694,0 v -0.609375 q -0.45312,0.71875 -1.34375,0.71875 -0.57812,0 -1.0625,-0.3125 -0.48437,-0.328125 -0.76562,-0.890625 -0.26563,-0.578125 -0.26563,-1.3125 0,-0.734375 0.23438,-1.3125 0.25,-0.59375 0.73437,-0.90625 0.48438,-0.328125 1.07813,-0.328125 0.4375,0 0.78125,0.1875 0.34375,0.1875 0.5625,0.484375 v -2.390625 h 0.8125 v 6.671875 z m -2.59375,-2.40625 q 0,0.921875 0.39063,1.390625 0.39062,0.453125 0.9375,0.453125 0.53125,0 0.90625,-0.4375 0.375,-0.4375 0.375,-1.34375 0,-1 -0.39063,-1.453125 -0.375,-0.46875 -0.9375,-0.46875 -0.54687,0 -0.92187,0.453125 -0.35938,0.4375 -0.35938,1.40625 z"
     fill-rule="nonzero"
     id="path211" />
  <path
     fill="#000000"
     d="m 737.8125,43.026203 q 0,-1.34375 0.75,-1.984375 0.625,-0.546875 1.51562,-0.546875 1,0 1.625,0.65625 0.64063,0.65625 0.64063,1.8125 0,0.9375 -0.28125,1.46875 -0.28125,0.53125 -0.8125,0.828125 -0.53125,0.296875 -1.17188,0.296875 -1.01562,0 -1.64062,-0.640625 -0.625,-0.65625 -0.625,-1.890625 z m 0.84375,0 q 0,0.9375 0.40625,1.40625 0.40625,0.453125 1.01562,0.453125 0.60938,0 1.01563,-0.46875 0.40625,-0.46875 0.40625,-1.421875 0,-0.890625 -0.40625,-1.34375 -0.40625,-0.46875 -1.01563,-0.46875 -0.60937,0 -1.01562,0.46875 -0.40625,0.453125 -0.40625,1.375 z m 7.81287,2.421875 v -0.703125 q -0.5625,0.8125 -1.53125,0.8125 -0.42188,0 -0.79688,-0.15625 -0.375,-0.171875 -0.5625,-0.421875 -0.17187,-0.25 -0.25,-0.609375 -0.0469,-0.234375 -0.0469,-0.765625 v -3 h 0.82812 v 2.6875 q 0,0.640625 0.0469,0.875 0.0781,0.3125 0.32812,0.5 0.25,0.1875 0.60938,0.1875 0.375,0 0.70312,-0.1875 0.32813,-0.1875 0.45313,-0.515625 0.14062,-0.328125 0.14062,-0.953125 v -2.59375 h 0.8125 v 4.84375 z m 3.81286,-0.734375 0.10938,0.71875 q -0.34375,0.07813 -0.60938,0.07813 -0.45312,0 -0.70312,-0.140625 -0.23438,-0.140625 -0.34375,-0.359375 -0.0937,-0.234375 -0.0937,-0.984375 v -2.78125 h -0.60938 v -0.640625 h 0.60938 v -1.1875 l 0.8125,-0.5 v 1.6875 h 0.82812 v 0.640625 h -0.82812 v 2.828125 q 0,0.359375 0.0469,0.46875 0.0469,0.09375 0.14063,0.15625 0.0937,0.04687 0.28125,0.04687 0.14062,0 0.35937,-0.03125 z m 0.7948,2.59375 v -6.703125 h 0.75 v 0.640625 q 0.26563,-0.375 0.59375,-0.5625 0.34375,-0.1875 0.8125,-0.1875 0.625,0 1.09375,0.328125 0.46875,0.3125 0.70313,0.90625 0.25,0.578125 0.25,1.265625 0,0.734375 -0.26563,1.328125 -0.26562,0.59375 -0.78125,0.921875 -0.5,0.3125 -1.0625,0.3125 -0.40625,0 -0.73437,-0.171875 -0.32813,-0.171875 -0.53125,-0.4375 v 2.359375 z m 0.75,-4.25 q 0,0.9375 0.375,1.390625 0.375,0.4375 0.92188,0.4375 0.54687,0 0.92187,-0.453125 0.39063,-0.46875 0.39063,-1.4375 0,-0.9375 -0.375,-1.390625 -0.375,-0.453125 -0.90625,-0.453125 -0.53125,0 -0.9375,0.484375 -0.39063,0.484375 -0.39063,1.421875 z m 7.60974,2.390625 v -0.703125 q -0.5625,0.8125 -1.53125,0.8125 -0.42187,0 -0.79687,-0.15625 -0.375,-0.171875 -0.5625,-0.421875 -0.17188,-0.25 -0.25,-0.609375 -0.0469,-0.234375 -0.0469,-0.765625 v -3 h 0.82813 v 2.6875 q 0,0.640625 0.0469,0.875 0.0781,0.3125 0.32813,0.5 0.25,0.1875 0.60937,0.1875 0.375,0 0.70313,-0.1875 0.32812,-0.1875 0.45312,-0.515625 0.14063,-0.328125 0.14063,-0.953125 v -2.59375 h 0.8125 v 4.84375 z m 3.81287,-0.734375 0.10937,0.71875 q -0.34375,0.07813 -0.60937,0.07813 -0.45313,0 -0.70313,-0.140625 -0.23437,-0.140625 -0.34375,-0.359375 -0.0937,-0.234375 -0.0937,-0.984375 v -2.78125 h -0.60937 v -0.640625 h 0.60937 v -1.1875 l 0.8125,-0.5 v 1.6875 h 0.82813 v 0.640625 h -0.82813 v 2.828125 q 0,0.359375 0.0469,0.46875 0.0469,0.09375 0.14062,0.15625 0.0937,0.04687 0.28125,0.04687 0.14063,0 0.35938,-0.03125 z"
     fill-rule="nonzero"
     id="path213" />
</svg>
