<?xml version="1.0" encoding="UTF-8" standalone="no"?>
<svg
   xmlns:dc="http://purl.org/dc/elements/1.1/"
   xmlns:cc="http://creativecommons.org/ns#"
   xmlns:rdf="http://www.w3.org/1999/02/22-rdf-syntax-ns#"
   xmlns:svg="http://www.w3.org/2000/svg"
   xmlns="http://www.w3.org/2000/svg"
   xmlns:sodipodi="http://sodipodi.sourceforge.net/DTD/sodipodi-0.dtd"
   xmlns:inkscape="http://www.inkscape.org/namespaces/inkscape"
   version="1.1"
   viewBox="0 0 745.70343 419.91342"
   fill="none"
   stroke="none"
   stroke-linecap="square"
   stroke-miterlimit="10"
   id="svg129"
   sodipodi:docname="pipe-after-fork2.svg"
   width="745.70343"
   height="419.91342"
   inkscape:version="1.0.1 (3bc2e813f5, 2020-09-07)">
  <metadata
     id="metadata135">
    <rdf:RDF>
      <cc:Work
         rdf:about="">
        <dc:format>image/svg+xml</dc:format>
        <dc:type
           rdf:resource="http://purl.org/dc/dcmitype/StillImage" />
      </cc:Work>
    </rdf:RDF>
  </metadata>
  <defs
     id="defs133" />
  <sodipodi:namedview
     pagecolor="#ffffff"
     bordercolor="#666666"
     borderopacity="1"
     objecttolerance="10"
     gridtolerance="10"
     guidetolerance="10"
     inkscape:pageopacity="0"
     inkscape:pageshadow="2"
     inkscape:window-width="1636"
     inkscape:window-height="754"
     id="namedview131"
     showgrid="false"
     inkscape:zoom="0.75130208"
     inkscape:cx="187.41664"
     inkscape:cy="218.83333"
     inkscape:window-x="3286"
     inkscape:window-y="19"
     inkscape:window-maximized="0"
     inkscape:current-layer="svg129" />
  <clipPath
     id="p.0">
    <path
       d="M 0,0 H 1024 V 768 H 0 Z"
       clip-rule="nonzero"
       id="path2" />
  </clipPath>
  <path
     fill="#000000"
     fill-opacity="0"
     d="M -65.699478,-165.16667 H 958.30052 v 768 H -65.699478 Z"
     fill-rule="evenodd"
     id="path5" />
  <path
     fill="#b6d7a8"
     d="M 250.29265,0.5 H 394.48161 V 125.2559 H 250.29265 Z"
     fill-rule="evenodd"
     id="path7" />
  <path
     stroke="#000000"
     stroke-width="1"
     stroke-linejoin="round"
     stroke-linecap="butt"
     d="M 250.29265,0.5 H 394.48161 V 125.2559 H 250.29265 Z"
     fill-rule="evenodd"
     id="path9" />
  <path
     fill="#000000"
     d="m 290.95939,62.50107 v -13.375 h 1.48437 v 1.25 q 0.53125,-0.73438 1.1875,-1.09375 0.67188,-0.375 1.625,-0.375 1.23438,0 2.17188,0.64062 0.95312,0.625 1.4375,1.79688 0.48437,1.15625 0.48437,2.54687 0,1.48438 -0.53125,2.67188 -0.53125,1.1875 -1.54687,1.82812 -1.01563,0.625 -2.14063,0.625 -0.8125,0 -1.46875,-0.34375 -0.65625,-0.34375 -1.0625,-0.875 v 4.70313 z m 1.48437,-8.48438 q 0,1.85938 0.75,2.76563 0.76563,0.89062 1.82813,0.89062 1.09375,0 1.875,-0.92187 0.78125,-0.9375 0.78125,-2.875 0,-1.84375 -0.76563,-2.76563 -0.75,-0.92187 -1.8125,-0.92187 -1.04687,0 -1.85937,0.98437 -0.79688,0.96875 -0.79688,2.84375 z m 8.87574,4.78125 v -9.67187 h 1.46875 v 1.46875 q 0.5625,-1.03125 1.03125,-1.35938 0.48437,-0.32812 1.0625,-0.32812 0.82812,0 1.6875,0.53125 l -0.5625,1.51562 q -0.60938,-0.35937 -1.20313,-0.35937 -0.54687,0 -0.96875,0.32812 -0.42187,0.32813 -0.60937,0.89063 -0.28125,0.875 -0.28125,1.92187 v 5.0625 z m 5.61892,-4.84375 q 0,-2.6875 1.48438,-3.96875 1.25,-1.07812 3.04687,-1.07812 2,0 3.26563,1.3125 1.26562,1.29687 1.26562,3.60937 0,1.85938 -0.5625,2.9375 -0.5625,1.0625 -1.64062,1.65625 -1.0625,0.59375 -2.32813,0.59375 -2.03125,0 -3.28125,-1.29687 -1.25,-1.3125 -1.25,-3.76563 z m 1.6875,0 q 0,1.85938 0.79688,2.79688 0.8125,0.92187 2.04687,0.92187 1.21875,0 2.03125,-0.92187 0.8125,-0.9375 0.8125,-2.84375 0,-1.79688 -0.8125,-2.71875 -0.8125,-0.92188 -2.03125,-0.92188 -1.23437,0 -2.04687,0.92188 -0.79688,0.90625 -0.79688,2.76562 z m 15.61008,1.29688 1.60938,0.21875 q -0.26563,1.65625 -1.35938,2.60937 -1.07812,0.9375 -2.67187,0.9375 -1.98438,0 -3.1875,-1.29687 -1.20313,-1.29688 -1.20313,-3.71875 0,-1.57813 0.51563,-2.75 0.51562,-1.17188 1.57812,-1.75 1.0625,-0.59375 2.3125,-0.59375 1.57813,0 2.57813,0.79687 1,0.79688 1.28125,2.26563 l -1.59375,0.23437 q -0.23438,-0.96875 -0.8125,-1.45312 -0.57813,-0.5 -1.39063,-0.5 -1.23437,0 -2.01562,0.89062 -0.78125,0.89063 -0.78125,2.8125 0,1.95313 0.75,2.84375 0.75,0.875 1.95312,0.875 0.96875,0 1.60938,-0.59375 0.65625,-0.59375 0.82812,-1.82812 z m 9.64063,0.4375 1.6875,0.20312 q -0.40625,1.48438 -1.48438,2.3125 -1.07812,0.8125 -2.76562,0.8125 -2.125,0 -3.375,-1.29687 -1.23438,-1.3125 -1.23438,-3.67188 0,-2.45312 1.25,-3.79687 1.26563,-1.34375 3.26563,-1.34375 1.9375,0 3.15625,1.32812 1.23437,1.3125 1.23437,3.70313 0,0.15625 0,0.4375 h -7.21875 q 0.0937,1.59375 0.90625,2.45312 0.8125,0.84375 2.01563,0.84375 0.90625,0 1.54687,-0.46875 0.64063,-0.48437 1.01563,-1.51562 z M 328.486,53.03232 h 5.40625 q -0.10937,-1.21875 -0.625,-1.82813 -0.78125,-0.95312 -2.03125,-0.95312 -1.125,0 -1.90625,0.76562 -0.76562,0.75 -0.84375,2.01563 z m 8.48511,2.875 1.625,-0.25 q 0.125,0.96875 0.75,1.5 0.625,0.51562 1.75,0.51562 1.125,0 1.67187,-0.45312 0.54688,-0.46875 0.54688,-1.09375 0,-0.54688 -0.48438,-0.875 -0.32812,-0.21875 -1.67187,-0.54688 -1.8125,-0.46875 -2.51563,-0.79687 -0.6875,-0.32813 -1.04687,-0.90625 -0.35938,-0.59375 -0.35938,-1.3125 0,-0.64063 0.29688,-1.1875 0.29687,-0.5625 0.8125,-0.92188 0.375,-0.28125 1.03125,-0.46875 0.67187,-0.20312 1.42187,-0.20312 1.14063,0 2,0.32812 0.85938,0.32813 1.26563,0.89063 0.42187,0.5625 0.57812,1.5 l -1.60937,0.21875 q -0.10938,-0.75 -0.64063,-1.17188 -0.51562,-0.42187 -1.46875,-0.42187 -1.14062,0 -1.625,0.375 -0.46875,0.375 -0.46875,0.875 0,0.3125 0.1875,0.57812 0.20313,0.26563 0.64063,0.4375 0.23437,0.0937 1.4375,0.42188 1.75,0.45312 2.4375,0.75 0.6875,0.29687 1.07812,0.85937 0.39063,0.5625 0.39063,1.40625 0,0.82813 -0.48438,1.54688 -0.46875,0.71875 -1.375,1.125 -0.90625,0.39062 -2.04687,0.39062 -1.875,0 -2.875,-0.78125 -0.98438,-0.78125 -1.25,-2.32812 z m 9.32812,0 1.625,-0.25 q 0.125,0.96875 0.75,1.5 0.625,0.51562 1.75,0.51562 1.125,0 1.67188,-0.45312 0.54687,-0.46875 0.54687,-1.09375 0,-0.54688 -0.48437,-0.875 -0.32813,-0.21875 -1.67188,-0.54688 -1.8125,-0.46875 -2.51562,-0.79687 -0.6875,-0.32813 -1.04688,-0.90625 -0.35937,-0.59375 -0.35937,-1.3125 0,-0.64063 0.29687,-1.1875 0.29688,-0.5625 0.8125,-0.92188 0.375,-0.28125 1.03125,-0.46875 0.67188,-0.20312 1.42188,-0.20312 1.14062,0 2,0.32812 0.85937,0.32813 1.26562,0.89063 0.42188,0.5625 0.57813,1.5 l -1.60938,0.21875 q -0.10937,-0.75 -0.64062,-1.17188 -0.51563,-0.42187 -1.46875,-0.42187 -1.14063,0 -1.625,0.375 -0.46875,0.375 -0.46875,0.875 0,0.3125 0.1875,0.57812 0.20312,0.26563 0.64062,0.4375 0.23438,0.0937 1.4375,0.42188 1.75,0.45312 2.4375,0.75 0.6875,0.29687 1.07813,0.85937 0.39062,0.5625 0.39062,1.40625 0,0.82813 -0.48437,1.54688 -0.46875,0.71875 -1.375,1.125 -0.90625,0.39062 -2.04688,0.39062 -1.875,0 -2.875,-0.78125 -0.98437,-0.78125 -1.25,-2.32812 z"
     fill-rule="nonzero"
     id="path11" />
  <path
     fill="#000000"
     d="m 316.13412,80.79794 5.125,-13.35938 h 1.90625 l 5.46875,13.35938 h -2.01563 l -1.54687,-4.04688 h -5.59375 l -1.46875,4.04688 z m 3.85937,-5.48438 h 4.53125 l -1.40625,-3.70312 q -0.625,-1.6875 -0.9375,-2.76563 -0.26562,1.28125 -0.71875,2.54688 z"
     fill-rule="nonzero"
     id="path13" />
  <path
     fill="#fff2cc"
     d="m 551.26642,218.57873 v 0 c 7.14056,0 12.92914,-5.78854 12.92914,-12.92911 h -12.92914 c 3.57025,0 6.46454,-2.89428 6.46454,-6.46457 0,-3.57028 -2.89429,-6.46457 -6.46454,-6.46457 h 12.92914 v -179.29135 0 c 0,-7.14056 5.78857,-12.92912 12.92914,-12.92912 h 155.1496 c 7.14056,0 12.92913,5.78856 12.92913,12.92912 0,7.14057 -5.78857,12.92914 -12.92913,12.92914 h -12.92914 v 179.29135 c 0,7.14057 -5.78858,12.92911 -12.92914,12.92911 z m 38.78742,-205.1496 v 0 c 0,7.14056 -5.78858,12.92914 -12.92914,12.92914 -3.57032,0 -6.4646,-2.89429 -6.4646,-6.46457 0,-3.57028 2.89428,-6.46457 6.4646,-6.46457 z"
     fill-rule="evenodd"
     id="path15" />
  <path
     fill="#cbc1a3"
     d="m 590.05382,13.42913 v 0 c 0,7.14056 -5.78857,12.92914 -12.92914,12.92914 -3.57031,0 -6.4646,-2.89429 -6.4646,-6.46457 0,-3.57028 2.89429,-6.46457 6.4646,-6.46457 z m -25.85828,192.22049 c 0,7.14056 -5.78857,12.92911 -12.92913,12.92911 -7.14057,0 -12.92914,-5.78855 -12.92914,-12.92911 0,-7.14056 5.78857,-12.92914 12.92914,-12.92914 v 0 c 3.57025,0 6.46453,2.89429 6.46453,6.46457 0,3.57028 -2.89428,6.46457 -6.46453,6.46457 z"
     fill-rule="evenodd"
     id="path17" />
  <path
     fill="#000000"
     fill-opacity="0"
     d="m 564.19552,192.72048 v -179.29135 0 c 0,-7.14056 5.78857,-12.92912 12.92914,-12.92912 h 155.1496 c 7.14056,0 12.92914,5.78856 12.92914,12.92912 0,7.14056 -5.78858,12.92914 -12.92914,12.92914 h -12.92914 v 179.29135 c 0,7.14056 -5.78857,12.92911 -12.92914,12.92911 h -155.1496 v 0 c -7.14056,0 -12.92914,-5.78855 -12.92914,-12.92911 0,-7.14057 5.78858,-12.92914 12.92914,-12.92914 z M 577.12466,0.50001 v 0 c 7.14056,0 12.92914,5.78856 12.92914,12.92912 0,7.14057 -5.78858,12.92914 -12.92914,12.92914 -3.57031,0 -6.4646,-2.89429 -6.4646,-6.46457 0,-3.57028 2.89429,-6.46457 6.4646,-6.46457 H 590.0538 M 719.34512,26.35827 H 577.12466 m -25.85828,166.36221 v 0 c 3.57025,0 6.46454,2.89429 6.46454,6.46457 0,3.57028 -2.89429,6.46457 -6.46454,6.46457 h 12.92914 m -12.92914,12.92911 v 0 c 7.14056,0 12.92914,-5.78855 12.92914,-12.92911 v -12.92914"
     fill-rule="evenodd"
     id="path19" />
  <path
     stroke="#000000"
     stroke-width="1"
     stroke-linejoin="round"
     stroke-linecap="butt"
     d="m 564.19552,192.72048 v -179.29135 0 c 0,-7.14056 5.78857,-12.92912 12.92914,-12.92912 h 155.1496 c 7.14056,0 12.92914,5.78856 12.92914,12.92912 0,7.14056 -5.78858,12.92914 -12.92914,12.92914 h -12.92914 v 179.29135 c 0,7.14056 -5.78857,12.92911 -12.92914,12.92911 h -155.1496 v 0 c -7.14056,0 -12.92914,-5.78855 -12.92914,-12.92911 0,-7.14057 5.78858,-12.92914 12.92914,-12.92914 z M 577.12466,0.50001 v 0 c 7.14056,0 12.92914,5.78856 12.92914,12.92912 0,7.14057 -5.78858,12.92914 -12.92914,12.92914 -3.57031,0 -6.4646,-2.89429 -6.4646,-6.46457 0,-3.57028 2.89429,-6.46457 6.4646,-6.46457 H 590.0538 M 719.34512,26.35827 H 577.12466 m -25.85828,166.36221 v 0 c 3.57025,0 6.46454,2.89429 6.46454,6.46457 0,3.57028 -2.89429,6.46457 -6.46454,6.46457 h 12.92914 m -12.92914,12.92911 v 0 c 7.14056,0 12.92914,-5.78855 12.92914,-12.92911 v -12.92914"
     fill-rule="evenodd"
     id="path21" />
  <path
     fill="#000000"
     d="M 597.37072,56.92393 V 43.56455 h 1.64062 v 4.79688 q 1.14063,-1.32813 2.89063,-1.32813 1.07812,0 1.85937,0.42188 0.79688,0.42187 1.14063,1.17187 0.34375,0.75 0.34375,2.17188 v 6.125 h -1.64063 v -6.125 q 0,-1.23438 -0.53125,-1.79688 -0.53125,-0.5625 -1.51562,-0.5625 -0.71875,0 -1.35938,0.39063 -0.64062,0.375 -0.92187,1.01562 -0.26563,0.64063 -0.26563,1.78125 v 5.29688 z m 16.68817,-1.1875 q -0.92187,0.76562 -1.76562,1.09375 -0.82813,0.3125 -1.79688,0.3125 -1.59375,0 -2.45312,-0.78125 -0.85938,-0.78125 -0.85938,-1.98438 0,-0.71875 0.32813,-1.29687 0.32812,-0.59375 0.84375,-0.9375 0.53125,-0.35938 1.1875,-0.54688 0.46875,-0.125 1.45312,-0.25 1.98438,-0.23437 2.92188,-0.5625 0.0156,-0.34375 0.0156,-0.42187 0,-1 -0.46875,-1.42188 -0.625,-0.54687 -1.875,-0.54687 -1.15625,0 -1.70312,0.40625 -0.54688,0.40625 -0.8125,1.42187 l -1.60938,-0.21875 q 0.21875,-1.01562 0.71875,-1.64062 0.5,-0.64063 1.45313,-0.98438 0.95312,-0.34375 2.1875,-0.34375 1.25,0 2.01562,0.29688 0.78125,0.28125 1.14063,0.73437 0.375,0.4375 0.51562,1.10938 0.0781,0.42187 0.0781,1.51562 v 2.1875 q 0,2.28125 0.10937,2.89063 0.10938,0.59375 0.40625,1.15625 h -1.70312 q -0.26563,-0.51563 -0.32813,-1.1875 z m -0.14062,-3.67188 q -0.89063,0.375 -2.67188,0.625 -1.01562,0.14063 -1.4375,0.32813 -0.42187,0.1875 -0.65625,0.53125 -0.21875,0.34375 -0.21875,0.78125 0,0.65625 0.5,1.09375 0.5,0.4375 1.45313,0.4375 0.9375,0 1.67187,-0.40625 0.75,-0.42188 1.09375,-1.14063 0.26563,-0.5625 0.26563,-1.64062 z m 4.15698,4.85938 V 43.56455 h 1.64062 v 13.35938 z m 4.58233,0 v -8.40625 h -1.45312 v -1.26563 h 1.45312 V 46.2208 q 0,-0.96875 0.17188,-1.45312 0.23437,-0.64063 0.82812,-1.03125 0.59375,-0.39063 1.67188,-0.39063 0.6875,0 1.53125,0.15625 l -0.25,1.4375 q -0.5,-0.0937 -0.95313,-0.0937 -0.75,0 -1.0625,0.32813 -0.3125,0.3125 -0.3125,1.1875 v 0.89062 h 1.89063 v 1.26563 h -1.89063 v 8.40625 z m 4.15204,-4.01563 v -1.64062 h 5.03125 v 1.64062 z m 13.11896,4.01563 v -1.21875 q -0.90625,1.4375 -2.70312,1.4375 -1.15625,0 -2.125,-0.64063 -0.96875,-0.64062 -1.5,-1.78125 -0.53125,-1.14062 -0.53125,-2.625 0,-1.45312 0.48437,-2.625 0.48438,-1.1875 1.4375,-1.8125 0.96875,-0.625 2.17188,-0.625 0.875,0 1.54687,0.375 0.6875,0.35938 1.10938,0.95313 v -4.79688 h 1.64062 v 13.35938 z m -5.17187,-4.82813 q 0,1.85938 0.78125,2.78125 0.78125,0.92188 1.84375,0.92188 1.07812,0 1.82812,-0.875 0.75,-0.89063 0.75,-2.6875 0,-1.98438 -0.76562,-2.90625 -0.76563,-0.9375 -1.89063,-0.9375 -1.07812,0 -1.8125,0.89062 -0.73437,0.89063 -0.73437,2.8125 z m 15.61004,4.82813 v -1.42188 q -1.125,1.64063 -3.0625,1.64063 -0.85937,0 -1.60937,-0.32813 -0.73438,-0.32812 -1.09375,-0.82812 -0.35938,-0.5 -0.5,-1.21875 -0.10938,-0.46875 -0.10938,-1.53125 v -5.98438 h 1.64063 v 5.35938 q 0,1.28125 0.10937,1.73437 0.15625,0.64063 0.65625,1.01563 0.5,0.375 1.23438,0.375 0.73437,0 1.375,-0.375 0.65625,-0.39063 0.92187,-1.03125 0.26563,-0.65625 0.26563,-1.89063 v -5.1875 h 1.64062 v 9.67188 z m 4.04761,3.70312 v -13.375 h 1.48437 v 1.25 q 0.53125,-0.73437 1.1875,-1.09375 0.67188,-0.375 1.625,-0.375 1.23438,0 2.17188,0.64063 0.95312,0.625 1.4375,1.79687 0.48437,1.15625 0.48437,2.54688 0,1.48437 -0.53125,2.67187 -0.53125,1.1875 -1.54687,1.82813 -1.01563,0.625 -2.14063,0.625 -0.8125,0 -1.46875,-0.34375 -0.65625,-0.34375 -1.0625,-0.875 v 4.70312 z m 1.48437,-8.48437 q 0,1.85937 0.75,2.76562 0.76563,0.89063 1.82813,0.89063 1.09375,0 1.875,-0.92188 0.78125,-0.9375 0.78125,-2.875 0,-1.84375 -0.76563,-2.76562 -0.75,-0.92188 -1.8125,-0.92188 -1.04687,0 -1.85937,0.98438 -0.79688,0.96875 -0.79688,2.84375 z m 8.84449,4.78125 V 43.56455 h 1.64062 v 13.35938 z m 10.81671,-3.10938 1.6875,0.20313 q -0.40625,1.48437 -1.48438,2.3125 -1.07812,0.8125 -2.76562,0.8125 -2.125,0 -3.375,-1.29688 -1.23438,-1.3125 -1.23438,-3.67187 0,-2.45313 1.25,-3.79688 1.26563,-1.34375 3.26563,-1.34375 1.9375,0 3.15625,1.32813 1.23437,1.3125 1.23437,3.70312 0,0.15625 0,0.4375 h -7.21875 q 0.0937,1.59375 0.90625,2.45313 0.8125,0.84375 2.01563,0.84375 0.90625,0 1.54687,-0.46875 0.64063,-0.48438 1.01563,-1.51563 z M 670.1693,51.1583 h 5.40625 q -0.10937,-1.21875 -0.625,-1.82812 -0.78125,-0.95313 -2.03125,-0.95313 -1.125,0 -1.90625,0.76563 -0.76562,0.75 -0.84375,2.01562 z m 8.04755,5.76563 3.53125,-5.03125 -3.26563,-4.64063 h 2.04688 l 1.48437,2.26563 q 0.42188,0.64062 0.67188,1.07812 0.40625,-0.59375 0.73437,-1.0625 l 1.64063,-2.28125 h 1.95312 l -3.34375,4.54688 3.59375,5.125 h -2.01562 l -1.98438,-3 -0.51562,-0.8125 -2.54688,3.8125 z"
     fill-rule="nonzero"
     id="path23" />
  <path
     fill="#000000"
     d="m 609.45946,65.56456 h 1.76563 v 7.71875 q 0,2.01562 -0.45313,3.20312 -0.45312,1.1875 -1.64062,1.9375 -1.1875,0.73438 -3.125,0.73438 -1.875,0 -3.07813,-0.64063 -1.1875,-0.65625 -1.70312,-1.875 -0.5,-1.23437 -0.5,-3.35937 v -7.71875 h 1.76562 v 7.71875 q 0,1.73437 0.3125,2.5625 0.32813,0.8125 1.10938,1.26562 0.79687,0.45313 1.9375,0.45313 1.95312,0 2.78125,-0.89063 0.82812,-0.89062 0.82812,-3.39062 z m 4.69171,13.35937 V 65.56456 h 1.8125 l 7.01563,10.48437 V 65.56456 h 1.6875 v 13.35937 h -1.8125 l -7.01563,-10.5 v 10.5 z m 13.7854,0 V 65.56456 h 1.76563 v 13.35937 z m 3.5271,0 5.17188,-6.95312 -4.5625,-6.40625 h 2.10937 l 2.42188,3.4375 q 0.75,1.0625 1.07812,1.625 0.4375,-0.71875 1.04688,-1.51563 l 2.6875,-3.54687 h 1.92187 l -4.6875,6.29687 5.0625,7.0625 h -2.1875 l -3.35937,-4.76562 q -0.28125,-0.40625 -0.59375,-0.89063 -0.4375,0.73438 -0.625,1 l -3.35938,4.65625 z m 18.78308,3.70313 v -13.375 h 1.48438 v 1.25 q 0.53125,-0.73438 1.1875,-1.09375 0.67187,-0.375 1.625,-0.375 1.23437,0 2.17187,0.64062 0.95313,0.625 1.4375,1.79688 0.48438,1.15625 0.48438,2.54687 0,1.48438 -0.53125,2.67188 -0.53125,1.1875 -1.54688,1.82812 -1.01562,0.625 -2.14062,0.625 -0.8125,0 -1.46875,-0.34375 -0.65625,-0.34375 -1.0625,-0.875 v 4.70313 z m 1.48438,-8.48438 q 0,1.85938 0.75,2.76563 0.76562,0.89062 1.82812,0.89062 1.09375,0 1.875,-0.92187 0.78125,-0.9375 0.78125,-2.875 0,-1.84375 -0.76562,-2.76563 -0.75,-0.92187 -1.8125,-0.92187 -1.04688,0 -1.85938,0.98437 -0.79687,0.96875 -0.79687,2.84375 z m 8.89135,-6.6875 v -1.89062 h 1.64063 v 1.89062 z m 0,11.46875 v -9.67187 h 1.64063 v 9.67187 z m 4.14484,3.70313 v -13.375 h 1.48438 v 1.25 q 0.53125,-0.73438 1.1875,-1.09375 0.67187,-0.375 1.625,-0.375 1.23437,0 2.17187,0.64062 0.95313,0.625 1.4375,1.79688 0.48438,1.15625 0.48438,2.54687 0,1.48438 -0.53125,2.67188 -0.53125,1.1875 -1.54688,1.82812 -1.01562,0.625 -2.14062,0.625 -0.8125,0 -1.46875,-0.34375 -0.65625,-0.34375 -1.0625,-0.875 v 4.70313 z m 1.48438,-8.48438 q 0,1.85938 0.75,2.76563 0.76562,0.89062 1.82812,0.89062 1.09375,0 1.875,-0.92187 0.78125,-0.9375 0.78125,-2.875 0,-1.84375 -0.76562,-2.76563 -0.75,-0.92187 -1.8125,-0.92187 -1.04688,0 -1.85938,0.98437 -0.79687,0.96875 -0.79687,2.84375 z m 15.51635,1.67188 1.6875,0.20312 q -0.40625,1.48438 -1.48437,2.3125 -1.07813,0.8125 -2.76563,0.8125 -2.125,0 -3.375,-1.29687 -1.23437,-1.3125 -1.23437,-3.67188 0,-2.45312 1.25,-3.79687 1.26562,-1.34375 3.26562,-1.34375 1.9375,0 3.15625,1.32812 1.23438,1.3125 1.23438,3.70313 0,0.15625 0,0.4375 h -7.21875 q 0.0937,1.59375 0.90625,2.45312 0.8125,0.84375 2.01562,0.84375 0.90625,0 1.54688,-0.46875 0.64062,-0.48437 1.01562,-1.51562 z m -5.39062,-2.65625 h 5.40625 q -0.10938,-1.21875 -0.625,-1.82813 -0.78125,-0.95312 -2.03125,-0.95312 -1.125,0 -1.90625,0.76562 -0.76563,0.75 -0.84375,2.01563 z"
     fill-rule="nonzero"
     id="path25" />
  <path
     fill="#000000"
     d="m 587.09025,97.37706 1.60937,0.21875 q -0.26562,1.65625 -1.35937,2.60937 -1.07813,0.9375 -2.67188,0.9375 -1.98437,0 -3.1875,-1.29687 -1.20312,-1.29688 -1.20312,-3.71875 0,-1.57813 0.51562,-2.75 0.51563,-1.17188 1.57813,-1.75 1.0625,-0.59375 2.3125,-0.59375 1.57812,0 2.57812,0.79687 1,0.79688 1.28125,2.26563 l -1.59375,0.23437 q -0.23437,-0.96875 -0.8125,-1.45312 -0.57812,-0.5 -1.39062,-0.5 -1.23438,0 -2.01563,0.89062 -0.78125,0.89063 -0.78125,2.8125 0,1.95313 0.75,2.84375 0.75,0.875 1.95313,0.875 0.96875,0 1.60937,-0.59375 0.65625,-0.59375 0.82813,-1.82812 z m 2.40625,-1.29688 q 0,-2.6875 1.48437,-3.96875 1.25,-1.07812 3.04688,-1.07812 2,0 3.26562,1.3125 1.26563,1.29687 1.26563,3.60937 0,1.85938 -0.5625,2.9375 -0.5625,1.0625 -1.64063,1.65625 -1.0625,0.59375 -2.32812,0.59375 -2.03125,0 -3.28125,-1.29687 -1.25,-1.3125 -1.25,-3.76563 z m 1.6875,0 q 0,1.85938 0.79687,2.79688 0.8125,0.92187 2.04688,0.92187 1.21875,0 2.03125,-0.92187 0.8125,-0.9375 0.8125,-2.84375 0,-1.79688 -0.8125,-2.71875 -0.8125,-0.92188 -2.03125,-0.92188 -1.23438,0 -2.04688,0.92188 -0.79687,0.90625 -0.79687,2.76562 z m 9.29761,4.84375 v -9.67187 h 1.46875 v 1.375 q 1.0625,-1.59375 3.07812,-1.59375 0.875,0 1.60938,0.3125 0.73437,0.3125 1.09375,0.82812 0.375,0.5 0.51562,1.20313 0.0937,0.45312 0.0937,1.59375 v 5.95312 h -1.64062 v -5.89062 q 0,-1 -0.20313,-1.48438 -0.1875,-0.5 -0.67187,-0.79687 -0.48438,-0.29688 -1.14063,-0.29688 -1.04687,0 -1.8125,0.67188 -0.75,0.65625 -0.75,2.51562 v 5.28125 z m 10.37567,0 v -9.67187 h 1.46875 v 1.375 q 1.0625,-1.59375 3.07812,-1.59375 0.875,0 1.60938,0.3125 0.73437,0.3125 1.09375,0.82812 0.375,0.5 0.51562,1.20313 0.0937,0.45312 0.0937,1.59375 v 5.95312 h -1.64062 v -5.89062 q 0,-1 -0.20313,-1.48438 -0.1875,-0.5 -0.67187,-0.79687 -0.48438,-0.29688 -1.14063,-0.29688 -1.04687,0 -1.8125,0.67188 -0.75,0.65625 -0.75,2.51562 v 5.28125 z m 17.00073,-3.10937 1.6875,0.20312 q -0.40625,1.48438 -1.48438,2.3125 -1.07812,0.8125 -2.76562,0.8125 -2.125,0 -3.375,-1.29687 -1.23438,-1.3125 -1.23438,-3.67188 0,-2.45312 1.25,-3.79687 1.26563,-1.34375 3.26563,-1.34375 1.9375,0 3.15625,1.32812 1.23437,1.3125 1.23437,3.70313 0,0.15625 0,0.4375 h -7.21875 q 0.0937,1.59375 0.90625,2.45312 0.8125,0.84375 2.01563,0.84375 0.90625,0 1.54687,-0.46875 0.64063,-0.48437 1.01563,-1.51562 z m -5.39063,-2.65625 h 5.40625 q -0.10937,-1.21875 -0.625,-1.82813 -0.78125,-0.95312 -2.03125,-0.95312 -1.125,0 -1.90625,0.76562 -0.76562,0.75 -0.84375,2.01563 z m 15.45386,2.21875 1.60938,0.21875 q -0.26563,1.65625 -1.35938,2.60937 -1.07812,0.9375 -2.67187,0.9375 -1.98438,0 -3.1875,-1.29687 -1.20313,-1.29688 -1.20313,-3.71875 0,-1.57813 0.51563,-2.75 0.51562,-1.17188 1.57812,-1.75 1.0625,-0.59375 2.3125,-0.59375 1.57813,0 2.57813,0.79687 1,0.79688 1.28125,2.26563 l -1.59375,0.23437 q -0.23438,-0.96875 -0.8125,-1.45312 -0.57813,-0.5 -1.39063,-0.5 -1.23437,0 -2.01562,0.89062 -0.78125,0.89063 -0.78125,2.8125 0,1.95313 0.75,2.84375 0.75,0.875 1.95312,0.875 0.96875,0 1.60938,-0.59375 0.65625,-0.59375 0.82812,-1.82812 z m 6.59375,2.07812 0.23438,1.45313 q -0.6875,0.14062 -1.23438,0.14062 -0.89062,0 -1.39062,-0.28125 -0.48438,-0.28125 -0.6875,-0.73437 -0.20313,-0.46875 -0.20313,-1.9375 v -5.57813 h -1.20312 v -1.26562 h 1.20312 v -2.39063 l 1.625,-0.98437 v 3.375 h 1.65625 v 1.26562 h -1.65625 v 5.67188 q 0,0.6875 0.0781,0.89062 0.0937,0.20313 0.28125,0.32813 0.20312,0.10937 0.57812,0.10937 0.26563,0 0.71875,-0.0625 z m 1.60517,-10 v -1.89062 h 1.64062 v 1.89062 z m 0,11.46875 v -9.67187 h 1.64062 v 9.67187 z m 4.14483,0 v -9.67187 h 1.46875 v 1.375 q 1.0625,-1.59375 3.07813,-1.59375 0.875,0 1.60937,0.3125 0.73438,0.3125 1.09375,0.82812 0.375,0.5 0.51563,1.20313 0.0937,0.45312 0.0937,1.59375 v 5.95312 h -1.64063 v -5.89062 q 0,-1 -0.20312,-1.48438 -0.1875,-0.5 -0.67188,-0.79687 -0.48437,-0.29688 -1.14062,-0.29688 -1.04688,0 -1.8125,0.67188 -0.75,0.65625 -0.75,2.51562 v 5.28125 z m 10.06323,0.79688 1.59375,0.23437 q 0.10938,0.75 0.5625,1.07813 0.60938,0.45312 1.67188,0.45312 1.14062,0 1.75,-0.45312 0.625,-0.45313 0.84375,-1.26563 0.125,-0.5 0.10937,-2.10937 -1.0625,1.26562 -2.67187,1.26562 -2,0 -3.09375,-1.4375 -1.09375,-1.4375 -1.09375,-3.45312 0,-1.39063 0.5,-2.5625 0.51562,-1.17188 1.45312,-1.79688 0.95313,-0.64062 2.25,-0.64062 1.70313,0 2.8125,1.375 v -1.15625 h 1.51563 v 8.35937 q 0,2.26563 -0.46875,3.20313 -0.45313,0.9375 -1.45313,1.48437 -0.98437,0.54688 -2.45312,0.54688 -1.71875,0 -2.79688,-0.78125 -1.0625,-0.76563 -1.03125,-2.34375 z m 1.35938,-5.8125 q 0,1.90625 0.75,2.78125 0.76562,0.875 1.90625,0.875 1.125,0 1.89062,-0.85938 0.76563,-0.875 0.76563,-2.73437 0,-1.78125 -0.79688,-2.67188 -0.78125,-0.90625 -1.89062,-0.90625 -1.09375,0 -1.85938,0.89063 -0.76562,0.875 -0.76562,2.625 z m 18.09027,3.54687 0.23437,1.45313 q -0.6875,0.14062 -1.23437,0.14062 -0.89063,0 -1.39063,-0.28125 -0.48437,-0.28125 -0.6875,-0.73437 -0.20312,-0.46875 -0.20312,-1.9375 v -5.57813 h -1.20313 v -1.26562 h 1.20313 v -2.39063 l 1.625,-0.98437 v 3.375 h 1.65625 v 1.26562 h -1.65625 v 5.67188 q 0,0.6875 0.0781,0.89062 0.0937,0.20313 0.28125,0.32813 0.20313,0.10937 0.57813,0.10937 0.26562,0 0.71875,-0.0625 z m 3.38641,1.46875 -2.96875,-9.67187 h 1.70313 l 1.53125,5.57812 0.57812,2.07813 q 0.0469,-0.15625 0.5,-2 l 1.54688,-5.65625 h 1.6875 l 1.4375,5.60937 0.48437,1.84375 0.5625,-1.85937 1.65625,-5.59375 h 1.59375 l -3.03125,9.67187 h -1.70312 l -1.53125,-5.79687 -0.375,-1.64063 -1.95313,7.4375 z m 11.08228,-4.84375 q 0,-2.6875 1.48437,-3.96875 1.25,-1.07812 3.04688,-1.07812 2,0 3.26562,1.3125 1.26563,1.29687 1.26563,3.60937 0,1.85938 -0.5625,2.9375 -0.5625,1.0625 -1.64063,1.65625 -1.0625,0.59375 -2.32812,0.59375 -2.03125,0 -3.28125,-1.29687 -1.25,-1.3125 -1.25,-3.76563 z m 1.6875,0 q 0,1.85938 0.79687,2.79688 0.8125,0.92187 2.04688,0.92187 1.21875,0 2.03125,-0.92187 0.8125,-0.9375 0.8125,-2.84375 0,-1.79688 -0.8125,-2.71875 -0.8125,-0.92188 -2.03125,-0.92188 -1.23438,0 -2.04688,0.92188 -0.79687,0.90625 -0.79687,2.76562 z"
     fill-rule="nonzero"
     id="path27" />
  <path
     fill="#000000"
     d="m 579.23369,126.62706 v -13.375 h 1.48438 v 1.25 q 0.53125,-0.73438 1.1875,-1.09375 0.67187,-0.375 1.625,-0.375 1.23437,0 2.17187,0.64062 0.95313,0.625 1.4375,1.79688 0.48438,1.15625 0.48438,2.54687 0,1.48438 -0.53125,2.67188 -0.53125,1.1875 -1.54688,1.82812 -1.01562,0.625 -2.14062,0.625 -0.8125,0 -1.46875,-0.34375 -0.65625,-0.34375 -1.0625,-0.875 v 4.70313 z m 1.48438,-8.48438 q 0,1.85938 0.75,2.76563 0.76562,0.89062 1.82812,0.89062 1.09375,0 1.875,-0.92187 0.78125,-0.9375 0.78125,-2.875 0,-1.84375 -0.76562,-2.76563 -0.75,-0.92187 -1.8125,-0.92187 -1.04688,0 -1.85938,0.98437 -0.79687,0.96875 -0.79687,2.84375 z m 8.87573,4.78125 v -9.67187 h 1.46875 v 1.46875 q 0.5625,-1.03125 1.03125,-1.35938 0.48437,-0.32812 1.0625,-0.32812 0.82812,0 1.6875,0.53125 l -0.5625,1.51562 q -0.60938,-0.35937 -1.20313,-0.35937 -0.54687,0 -0.96875,0.32812 -0.42187,0.32813 -0.60937,0.89063 -0.28125,0.875 -0.28125,1.92187 v 5.0625 z m 5.61889,-4.84375 q 0,-2.6875 1.48438,-3.96875 1.25,-1.07812 3.04687,-1.07812 2,0 3.26563,1.3125 1.26562,1.29687 1.26562,3.60937 0,1.85938 -0.5625,2.9375 -0.5625,1.0625 -1.64062,1.65625 -1.0625,0.59375 -2.32813,0.59375 -2.03125,0 -3.28125,-1.29687 -1.25,-1.3125 -1.25,-3.76563 z m 1.6875,0 q 0,1.85938 0.79688,2.79688 0.8125,0.92187 2.04687,0.92187 1.21875,0 2.03125,-0.92187 0.8125,-0.9375 0.8125,-2.84375 0,-1.79688 -0.8125,-2.71875 -0.8125,-0.92188 -2.03125,-0.92188 -1.23437,0 -2.04687,0.92188 -0.79688,0.90625 -0.79688,2.76562 z m 15.61011,1.29688 1.60938,0.21875 q -0.26563,1.65625 -1.35938,2.60937 -1.07812,0.9375 -2.67187,0.9375 -1.98438,0 -3.1875,-1.29687 -1.20313,-1.29688 -1.20313,-3.71875 0,-1.57813 0.51563,-2.75 0.51562,-1.17188 1.57812,-1.75 1.0625,-0.59375 2.3125,-0.59375 1.57813,0 2.57813,0.79687 1,0.79688 1.28125,2.26563 l -1.59375,0.23437 q -0.23438,-0.96875 -0.8125,-1.45312 -0.57813,-0.5 -1.39063,-0.5 -1.23437,0 -2.01562,0.89062 -0.78125,0.89063 -0.78125,2.8125 0,1.95313 0.75,2.84375 0.75,0.875 1.95312,0.875 0.96875,0 1.60938,-0.59375 0.65625,-0.59375 0.82812,-1.82812 z m 9.64063,0.4375 1.6875,0.20312 q -0.40625,1.48438 -1.48438,2.3125 -1.07812,0.8125 -2.76562,0.8125 -2.125,0 -3.375,-1.29687 -1.23438,-1.3125 -1.23438,-3.67188 0,-2.45312 1.25,-3.79687 1.26563,-1.34375 3.26563,-1.34375 1.9375,0 3.15625,1.32812 1.23437,1.3125 1.23437,3.70313 0,0.15625 0,0.4375 h -7.21875 q 0.0937,1.59375 0.90625,2.45312 0.8125,0.84375 2.01563,0.84375 0.90625,0 1.54687,-0.46875 0.64063,-0.48437 1.01563,-1.51562 z m -5.39063,-2.65625 h 5.40625 q -0.10937,-1.21875 -0.625,-1.82813 -0.78125,-0.95312 -2.03125,-0.95312 -1.125,0 -1.90625,0.76562 -0.76562,0.75 -0.84375,2.01563 z m 8.48511,2.875 1.625,-0.25 q 0.125,0.96875 0.75,1.5 0.625,0.51562 1.75,0.51562 1.125,0 1.67187,-0.45312 0.54688,-0.46875 0.54688,-1.09375 0,-0.54688 -0.48438,-0.875 -0.32812,-0.21875 -1.67187,-0.54688 -1.8125,-0.46875 -2.51563,-0.79687 -0.6875,-0.32813 -1.04687,-0.90625 -0.35938,-0.59375 -0.35938,-1.3125 0,-0.64063 0.29688,-1.1875 0.29687,-0.5625 0.8125,-0.92188 0.375,-0.28125 1.03125,-0.46875 0.67187,-0.20312 1.42187,-0.20312 1.14063,0 2,0.32812 0.85938,0.32813 1.26563,0.89063 0.42187,0.5625 0.57812,1.5 l -1.60937,0.21875 q -0.10938,-0.75 -0.64063,-1.17188 -0.51562,-0.42187 -1.46875,-0.42187 -1.14062,0 -1.625,0.375 -0.46875,0.375 -0.46875,0.875 0,0.3125 0.1875,0.57812 0.20313,0.26563 0.64063,0.4375 0.23437,0.0937 1.4375,0.42188 1.75,0.45312 2.4375,0.75 0.6875,0.29687 1.07812,0.85937 0.39063,0.5625 0.39063,1.40625 0,0.82813 -0.48438,1.54688 -0.46875,0.71875 -1.375,1.125 -0.90625,0.39062 -2.04687,0.39062 -1.875,0 -2.875,-0.78125 -0.98438,-0.78125 -1.25,-2.32812 z m 9.32812,0 1.625,-0.25 q 0.125,0.96875 0.75,1.5 0.625,0.51562 1.75,0.51562 1.125,0 1.67188,-0.45312 0.54687,-0.46875 0.54687,-1.09375 0,-0.54688 -0.48437,-0.875 -0.32813,-0.21875 -1.67188,-0.54688 -1.8125,-0.46875 -2.51562,-0.79687 -0.6875,-0.32813 -1.04688,-0.90625 -0.35937,-0.59375 -0.35937,-1.3125 0,-0.64063 0.29687,-1.1875 0.29688,-0.5625 0.8125,-0.92188 0.375,-0.28125 1.03125,-0.46875 0.67188,-0.20312 1.42188,-0.20312 1.14062,0 2,0.32812 0.85937,0.32813 1.26562,0.89063 0.42188,0.5625 0.57813,1.5 l -1.60938,0.21875 q -0.10937,-0.75 -0.64062,-1.17188 -0.51563,-0.42187 -1.46875,-0.42187 -1.14063,0 -1.625,0.375 -0.46875,0.375 -0.46875,0.875 0,0.3125 0.1875,0.57812 0.20312,0.26563 0.64062,0.4375 0.23438,0.0937 1.4375,0.42188 1.75,0.45312 2.4375,0.75 0.6875,0.29687 1.07813,0.85937 0.39062,0.5625 0.39062,1.40625 0,0.82813 -0.48437,1.54688 -0.46875,0.71875 -1.375,1.125 -0.90625,0.39062 -2.04688,0.39062 -1.875,0 -2.875,-0.78125 -0.98437,-0.78125 -1.25,-2.32812 z m 16.60938,-0.21875 1.6875,0.20312 q -0.40625,1.48438 -1.48438,2.3125 -1.07812,0.8125 -2.76562,0.8125 -2.125,0 -3.375,-1.29687 -1.23438,-1.3125 -1.23438,-3.67188 0,-2.45312 1.25,-3.79687 1.26563,-1.34375 3.26563,-1.34375 1.9375,0 3.15625,1.32812 1.23437,1.3125 1.23437,3.70313 0,0.15625 0,0.4375 h -7.21875 q 0.0937,1.59375 0.90625,2.45312 0.8125,0.84375 2.01563,0.84375 0.90625,0 1.54687,-0.46875 0.64063,-0.48437 1.01563,-1.51562 z m -5.39063,-2.65625 h 5.40625 q -0.10937,-1.21875 -0.625,-1.82813 -0.78125,-0.95312 -2.03125,-0.95312 -1.125,0 -1.90625,0.76562 -0.76562,0.75 -0.84375,2.01563 z m 8.48505,2.875 1.625,-0.25 q 0.125,0.96875 0.75,1.5 0.625,0.51562 1.75,0.51562 1.125,0 1.67187,-0.45312 0.54688,-0.46875 0.54688,-1.09375 0,-0.54688 -0.48438,-0.875 -0.32812,-0.21875 -1.67187,-0.54688 -1.8125,-0.46875 -2.51563,-0.79687 -0.6875,-0.32813 -1.04687,-0.90625 -0.35938,-0.59375 -0.35938,-1.3125 0,-0.64063 0.29688,-1.1875 0.29687,-0.5625 0.8125,-0.92188 0.375,-0.28125 1.03125,-0.46875 0.67187,-0.20312 1.42187,-0.20312 1.14063,0 2,0.32812 0.85938,0.32813 1.26563,0.89063 0.42187,0.5625 0.57812,1.5 l -1.60937,0.21875 q -0.10938,-0.75 -0.64063,-1.17188 -0.51562,-0.42187 -1.46875,-0.42187 -1.14062,0 -1.625,0.375 -0.46875,0.375 -0.46875,0.875 0,0.3125 0.1875,0.57812 0.20313,0.26563 0.64063,0.4375 0.23437,0.0937 1.4375,0.42188 1.75,0.45312 2.4375,0.75 0.6875,0.29687 1.07812,0.85937 0.39063,0.5625 0.39063,1.40625 0,0.82813 -0.48438,1.54688 -0.46875,0.71875 -1.375,1.125 -0.90625,0.39062 -2.04687,0.39062 -1.875,0 -2.875,-0.78125 -0.98438,-0.78125 -1.25,-2.32812 z m 21.48022,1.70312 q -0.92187,0.76563 -1.76562,1.09375 -0.82813,0.3125 -1.79688,0.3125 -1.59375,0 -2.45312,-0.78125 -0.85938,-0.78125 -0.85938,-1.98437 0,-0.71875 0.32813,-1.29688 0.32812,-0.59375 0.84375,-0.9375 0.53125,-0.35937 1.1875,-0.54687 0.46875,-0.125 1.45312,-0.25 1.98438,-0.23438 2.92188,-0.5625 0.0156,-0.34375 0.0156,-0.42188 0,-1 -0.46875,-1.42187 -0.625,-0.54688 -1.875,-0.54688 -1.15625,0 -1.70312,0.40625 -0.54688,0.40625 -0.8125,1.42188 l -1.60938,-0.21875 q 0.21875,-1.01563 0.71875,-1.64063 0.5,-0.64062 1.45313,-0.98437 0.95312,-0.34375 2.1875,-0.34375 1.25,0 2.01562,0.29687 0.78125,0.28125 1.14063,0.73438 0.375,0.4375 0.51562,1.10937 0.0781,0.42188 0.0781,1.51563 v 2.1875 q 0,2.28125 0.10937,2.89062 0.10938,0.59375 0.40625,1.15625 h -1.70312 q -0.26563,-0.51562 -0.32813,-1.1875 z m -0.14062,-3.67187 q -0.89063,0.375 -2.67188,0.625 -1.01562,0.14062 -1.4375,0.32812 -0.42187,0.1875 -0.65625,0.53125 -0.21875,0.34375 -0.21875,0.78125 0,0.65625 0.5,1.09375 0.5,0.4375 1.45313,0.4375 0.9375,0 1.67187,-0.40625 0.75,-0.42187 1.09375,-1.14062 0.26563,-0.5625 0.26563,-1.64063 z m 4.59442,4.85937 v -8.40625 h -1.45313 v -1.26562 h 1.45313 v -1.03125 q 0,-0.96875 0.17187,-1.45313 0.23438,-0.64062 0.82813,-1.03125 0.59375,-0.39062 1.67187,-0.39062 0.6875,0 1.53125,0.15625 l -0.25,1.4375 q -0.5,-0.0937 -0.95312,-0.0937 -0.75,0 -1.0625,0.32812 -0.3125,0.3125 -0.3125,1.1875 v 0.89063 h 1.89062 v 1.26562 h -1.89062 v 8.40625 z m 8.37085,-1.46875 0.23437,1.45313 q -0.6875,0.14062 -1.23437,0.14062 -0.89063,0 -1.39063,-0.28125 -0.48437,-0.28125 -0.6875,-0.73437 -0.20312,-0.46875 -0.20312,-1.9375 v -5.57813 h -1.20313 v -1.26562 h 1.20313 v -2.39063 l 1.625,-0.98437 v 3.375 h 1.65625 v 1.26562 h -1.65625 v 5.67188 q 0,0.6875 0.0781,0.89062 0.0937,0.20313 0.28125,0.32813 0.20313,0.10937 0.57813,0.10937 0.26562,0 0.71875,-0.0625 z m 8.23016,-1.64062 1.6875,0.20312 q -0.40625,1.48438 -1.48437,2.3125 -1.07813,0.8125 -2.76563,0.8125 -2.125,0 -3.375,-1.29687 -1.23437,-1.3125 -1.23437,-3.67188 0,-2.45312 1.25,-3.79687 1.26562,-1.34375 3.26562,-1.34375 1.9375,0 3.15625,1.32812 1.23438,1.3125 1.23438,3.70313 0,0.15625 0,0.4375 h -7.21875 q 0.0937,1.59375 0.90625,2.45312 0.8125,0.84375 2.01562,0.84375 0.90625,0 1.54688,-0.46875 0.64062,-0.48437 1.01562,-1.51562 z m -5.39062,-2.65625 h 5.40625 q -0.10938,-1.21875 -0.625,-1.82813 -0.78125,-0.95312 -2.03125,-0.95312 -1.125,0 -1.90625,0.76562 -0.76563,0.75 -0.84375,2.01563 z m 9.12573,5.76562 v -9.67187 h 1.46875 v 1.46875 q 0.5625,-1.03125 1.03125,-1.35938 0.48438,-0.32812 1.0625,-0.32812 0.82813,0 1.6875,0.53125 l -0.5625,1.51562 q -0.60937,-0.35937 -1.20312,-0.35937 -0.54688,0 -0.96875,0.32812 -0.42188,0.32813 -0.60938,0.89063 -0.28125,0.875 -0.28125,1.92187 v 5.0625 z"
     fill-rule="nonzero"
     id="path29" />
  <path
     fill="#000000"
     d="m 591.24418,143.73643 q -0.92187,0.76562 -1.76562,1.09375 -0.82813,0.3125 -1.79688,0.3125 -1.59375,0 -2.45312,-0.78125 -0.85938,-0.78125 -0.85938,-1.98438 0,-0.71875 0.32813,-1.29687 0.32812,-0.59375 0.84375,-0.9375 0.53125,-0.35938 1.1875,-0.54688 0.46875,-0.125 1.45312,-0.25 1.98438,-0.23437 2.92188,-0.5625 0.0156,-0.34375 0.0156,-0.42187 0,-1 -0.46875,-1.42188 -0.625,-0.54687 -1.875,-0.54687 -1.15625,0 -1.70312,0.40625 -0.54688,0.40625 -0.8125,1.42187 l -1.60938,-0.21875 q 0.21875,-1.01562 0.71875,-1.64062 0.5,-0.64063 1.45313,-0.98438 0.95312,-0.34375 2.1875,-0.34375 1.25,0 2.01562,0.29688 0.78125,0.28125 1.14063,0.73437 0.375,0.4375 0.51562,1.10938 0.0781,0.42187 0.0781,1.51562 v 2.1875 q 0,2.28125 0.10937,2.89063 0.10938,0.59375 0.40625,1.15625 h -1.70312 q -0.26563,-0.51563 -0.32813,-1.1875 z m -0.14062,-3.67188 q -0.89063,0.375 -2.67188,0.625 -1.01562,0.14063 -1.4375,0.32813 -0.42187,0.1875 -0.65625,0.53125 -0.21875,0.34375 -0.21875,0.78125 0,0.65625 0.5,1.09375 0.5,0.4375 1.45313,0.4375 0.9375,0 1.67187,-0.40625 0.75,-0.42188 1.09375,-1.14063 0.26563,-0.5625 0.26563,-1.64062 z m 9.77777,4.85938 v -8.40625 h -1.45313 v -1.26563 h 1.45313 v -1.03125 q 0,-0.96875 0.17187,-1.45312 0.23438,-0.64063 0.82813,-1.03125 0.59375,-0.39063 1.67187,-0.39063 0.6875,0 1.53125,0.15625 l -0.25,1.4375 q -0.5,-0.0937 -0.95312,-0.0937 -0.75,0 -1.0625,0.32813 -0.3125,0.3125 -0.3125,1.1875 v 0.89062 h 1.89062 v 1.26563 h -1.89062 v 8.40625 z m 4.18328,-4.84375 q 0,-2.6875 1.48438,-3.96875 1.25,-1.07813 3.04687,-1.07813 2,0 3.26563,1.3125 1.26562,1.29688 1.26562,3.60938 0,1.85937 -0.5625,2.9375 -0.5625,1.0625 -1.64062,1.65625 -1.0625,0.59375 -2.32813,0.59375 -2.03125,0 -3.28125,-1.29688 -1.25,-1.3125 -1.25,-3.76562 z m 1.6875,0 q 0,1.85937 0.79688,2.79687 0.8125,0.92188 2.04687,0.92188 1.21875,0 2.03125,-0.92188 0.8125,-0.9375 0.8125,-2.84375 0,-1.79687 -0.8125,-2.71875 -0.8125,-0.92187 -2.03125,-0.92187 -1.23437,0 -2.04687,0.92187 -0.79688,0.90625 -0.79688,2.76563 z m 9.28199,4.84375 v -9.67188 h 1.46875 v 1.46875 q 0.5625,-1.03125 1.03125,-1.35937 0.48437,-0.32813 1.0625,-0.32813 0.82812,0 1.6875,0.53125 l -0.5625,1.51563 q -0.60938,-0.35938 -1.20313,-0.35938 -0.54687,0 -0.96875,0.32813 -0.42187,0.32812 -0.60937,0.89062 -0.28125,0.875 -0.28125,1.92188 v 5.0625 z m 6.22827,0 v -13.35938 h 1.64062 v 7.625 l 3.89063,-3.9375 h 2.10937 l -3.6875,3.59375 4.0625,6.07813 h -2.01562 l -3.20313,-4.95313 -1.15625,1.125 v 3.82813 z m 20.82397,-3.54688 1.60938,0.21875 q -0.26563,1.65625 -1.35938,2.60938 -1.07812,0.9375 -2.67187,0.9375 -1.98438,0 -3.1875,-1.29688 -1.20313,-1.29687 -1.20313,-3.71875 0,-1.57812 0.51563,-2.75 0.51562,-1.17187 1.57812,-1.75 1.0625,-0.59375 2.3125,-0.59375 1.57813,0 2.57813,0.79688 1,0.79687 1.28125,2.26562 l -1.59375,0.23438 q -0.23438,-0.96875 -0.8125,-1.45313 -0.57813,-0.5 -1.39063,-0.5 -1.23437,0 -2.01562,0.89063 -0.78125,0.89062 -0.78125,2.8125 0,1.95312 0.75,2.84375 0.75,0.875 1.95312,0.875 0.96875,0 1.60938,-0.59375 0.65625,-0.59375 0.82812,-1.82813 z m 9.32813,2.35938 q -0.92188,0.76562 -1.76563,1.09375 -0.82812,0.3125 -1.79687,0.3125 -1.59375,0 -2.45313,-0.78125 -0.85937,-0.78125 -0.85937,-1.98438 0,-0.71875 0.32812,-1.29687 0.32813,-0.59375 0.84375,-0.9375 0.53125,-0.35938 1.1875,-0.54688 0.46875,-0.125 1.45313,-0.25 1.98437,-0.23437 2.92187,-0.5625 0.0156,-0.34375 0.0156,-0.42187 0,-1 -0.46875,-1.42188 -0.625,-0.54687 -1.875,-0.54687 -1.15625,0 -1.70313,0.40625 -0.54687,0.40625 -0.8125,1.42187 l -1.60937,-0.21875 q 0.21875,-1.01562 0.71875,-1.64062 0.5,-0.64063 1.45312,-0.98438 0.95313,-0.34375 2.1875,-0.34375 1.25,0 2.01563,0.29688 0.78125,0.28125 1.14062,0.73437 0.375,0.4375 0.51563,1.10938 0.0781,0.42187 0.0781,1.51562 v 2.1875 q 0,2.28125 0.10938,2.89063 0.10937,0.59375 0.40625,1.15625 h -1.70313 q -0.26562,-0.51563 -0.32812,-1.1875 z m -0.14063,-3.67188 q -0.89062,0.375 -2.67187,0.625 -1.01563,0.14063 -1.4375,0.32813 -0.42188,0.1875 -0.65625,0.53125 -0.21875,0.34375 -0.21875,0.78125 0,0.65625 0.5,1.09375 0.5,0.4375 1.45312,0.4375 0.9375,0 1.67188,-0.40625 0.75,-0.42188 1.09375,-1.14063 0.26562,-0.5625 0.26562,-1.64062 z m 4.15692,4.85938 v -13.35938 h 1.64063 v 13.35938 z m 4.14484,0 v -13.35938 h 1.64063 v 13.35938 z m 15.6875,-1.1875 q -0.92187,0.76562 -1.76562,1.09375 -0.82813,0.3125 -1.79688,0.3125 -1.59375,0 -2.45312,-0.78125 -0.85938,-0.78125 -0.85938,-1.98438 0,-0.71875 0.32813,-1.29687 0.32812,-0.59375 0.84375,-0.9375 0.53125,-0.35938 1.1875,-0.54688 0.46875,-0.125 1.45312,-0.25 1.98438,-0.23437 2.92188,-0.5625 0.0156,-0.34375 0.0156,-0.42187 0,-1 -0.46875,-1.42188 -0.625,-0.54687 -1.875,-0.54687 -1.15625,0 -1.70312,0.40625 -0.54688,0.40625 -0.8125,1.42187 l -1.60938,-0.21875 q 0.21875,-1.01562 0.71875,-1.64062 0.5,-0.64063 1.45313,-0.98438 0.95312,-0.34375 2.1875,-0.34375 1.25,0 2.01562,0.29688 0.78125,0.28125 1.14063,0.73437 0.375,0.4375 0.51562,1.10938 0.0781,0.42187 0.0781,1.51562 v 2.1875 q 0,2.28125 0.10937,2.89063 0.10938,0.59375 0.40625,1.15625 h -1.70312 q -0.26563,-0.51563 -0.32813,-1.1875 z m -0.14062,-3.67188 q -0.89063,0.375 -2.67188,0.625 -1.01562,0.14063 -1.4375,0.32813 -0.42187,0.1875 -0.65625,0.53125 -0.21875,0.34375 -0.21875,0.78125 0,0.65625 0.5,1.09375 0.5,0.4375 1.45313,0.4375 0.9375,0 1.67187,-0.40625 0.75,-0.42188 1.09375,-1.14063 0.26563,-0.5625 0.26563,-1.64062 z m 4.20385,4.85938 v -9.67188 h 1.46875 v 1.375 q 1.0625,-1.59375 3.07813,-1.59375 0.875,0 1.60937,0.3125 0.73438,0.3125 1.09375,0.82813 0.375,0.5 0.51563,1.20312 0.0937,0.45313 0.0937,1.59375 v 5.95313 h -1.64063 v -5.89063 q 0,-1 -0.20312,-1.48437 -0.1875,-0.5 -0.67188,-0.79688 -0.48437,-0.29687 -1.14062,-0.29687 -1.04688,0 -1.8125,0.67187 -0.75,0.65625 -0.75,2.51563 v 5.28125 z m 16.6413,0 v -1.21875 q -0.90625,1.4375 -2.70313,1.4375 -1.15625,0 -2.12493,-0.64063 -0.96875,-0.64062 -1.5,-1.78125 -0.53125,-1.14062 -0.53125,-2.625 0,-1.45312 0.48437,-2.625 0.48438,-1.1875 1.4375,-1.8125 0.96869,-0.625 2.17181,-0.625 0.875,0 1.54688,0.375 0.6875,0.35938 1.10937,0.95313 v -4.79688 h 1.64063 v 13.35938 z m -5.17181,-4.82813 q 0,1.85938 0.78118,2.78125 0.78125,0.92188 1.84375,0.92188 1.07813,0 1.82813,-0.875 0.75,-0.89063 0.75,-2.6875 0,-1.98438 -0.76563,-2.90625 -0.76562,-0.9375 -1.89062,-0.9375 -1.07813,0 -1.8125,0.89062 -0.73431,0.89063 -0.73431,2.8125 z"
     fill-rule="nonzero"
     id="path31" />
  <path
     fill="#000000"
     d="m 587.08568,163.37706 1.60938,0.21875 q -0.26563,1.65625 -1.35938,2.60937 -1.07812,0.9375 -2.67187,0.9375 -1.98438,0 -3.1875,-1.29687 -1.20313,-1.29688 -1.20313,-3.71875 0,-1.57813 0.51563,-2.75 0.51562,-1.17188 1.57812,-1.75 1.0625,-0.59375 2.3125,-0.59375 1.57813,0 2.57813,0.79687 1,0.79688 1.28125,2.26563 l -1.59375,0.23437 q -0.23438,-0.96875 -0.8125,-1.45312 -0.57813,-0.5 -1.39063,-0.5 -1.23437,0 -2.01562,0.89062 -0.78125,0.89063 -0.78125,2.8125 0,1.95313 0.75,2.84375 0.75,0.875 1.95312,0.875 0.96875,0 1.60938,-0.59375 0.65625,-0.59375 0.82812,-1.82812 z m 2.96875,3.54687 v -13.35937 h 1.64063 v 13.35937 z m 3.58234,-4.84375 q 0,-2.6875 1.48437,-3.96875 1.25,-1.07812 3.04688,-1.07812 2,0 3.26562,1.3125 1.26563,1.29687 1.26563,3.60937 0,1.85938 -0.5625,2.9375 -0.5625,1.0625 -1.64063,1.65625 -1.0625,0.59375 -2.32812,0.59375 -2.03125,0 -3.28125,-1.29687 -1.25,-1.3125 -1.25,-3.76563 z m 1.6875,0 q 0,1.85938 0.79687,2.79688 0.8125,0.92187 2.04688,0.92187 1.21875,0 2.03125,-0.92187 0.8125,-0.9375 0.8125,-2.84375 0,-1.79688 -0.8125,-2.71875 -0.8125,-0.92188 -2.03125,-0.92188 -1.23438,0 -2.04688,0.92188 -0.79687,0.90625 -0.79687,2.76562 z m 8.64135,1.95313 1.625,-0.25 q 0.125,0.96875 0.75,1.5 0.625,0.51562 1.75,0.51562 1.125,0 1.67188,-0.45312 0.54687,-0.46875 0.54687,-1.09375 0,-0.54688 -0.48437,-0.875 -0.32813,-0.21875 -1.67188,-0.54688 -1.8125,-0.46875 -2.51562,-0.79687 -0.6875,-0.32813 -1.04688,-0.90625 -0.35937,-0.59375 -0.35937,-1.3125 0,-0.64063 0.29687,-1.1875 0.29688,-0.5625 0.8125,-0.92188 0.375,-0.28125 1.03125,-0.46875 0.67188,-0.20312 1.42188,-0.20312 1.14062,0 2,0.32812 0.85937,0.32813 1.26562,0.89063 0.42188,0.5625 0.57813,1.5 l -1.60938,0.21875 q -0.10937,-0.75 -0.64062,-1.17188 -0.51563,-0.42187 -1.46875,-0.42187 -1.14063,0 -1.625,0.375 -0.46875,0.375 -0.46875,0.875 0,0.3125 0.1875,0.57812 0.20312,0.26563 0.64062,0.4375 0.23438,0.0937 1.4375,0.42188 1.75,0.45312 2.4375,0.75 0.6875,0.29687 1.07813,0.85937 0.39062,0.5625 0.39062,1.40625 0,0.82813 -0.48437,1.54688 -0.46875,0.71875 -1.375,1.125 -0.90625,0.39062 -2.04688,0.39062 -1.875,0 -2.875,-0.78125 -0.98437,-0.78125 -1.25,-2.32812 z m 9.98438,-8.57813 v -1.89062 h 1.64062 v 1.89062 z m 0,11.46875 v -9.67187 h 1.64062 v 9.67187 z m 4.14477,0 v -9.67187 h 1.46875 v 1.375 q 1.0625,-1.59375 3.07813,-1.59375 0.875,0 1.60937,0.3125 0.73438,0.3125 1.09375,0.82812 0.375,0.5 0.51563,1.20313 0.0937,0.45312 0.0937,1.59375 v 5.95312 h -1.64058 v -5.89062 q 0,-1 -0.20312,-1.48438 -0.1875,-0.5 -0.67188,-0.79687 -0.48437,-0.29688 -1.14062,-0.29688 -1.04688,0 -1.8125,0.67188 -0.75,0.65625 -0.75,2.51562 v 5.28125 z m 10.06324,0.79688 1.59375,0.23437 q 0.10937,0.75 0.5625,1.07813 0.60937,0.45312 1.67187,0.45312 1.14063,0 1.75,-0.45312 0.625,-0.45313 0.84375,-1.26563 0.125,-0.5 0.10938,-2.10937 -1.0625,1.26562 -2.67188,1.26562 -2,0 -3.09375,-1.4375 -1.09375,-1.4375 -1.09375,-3.45312 0,-1.39063 0.5,-2.5625 0.51563,-1.17188 1.45313,-1.79688 0.95312,-0.64062 2.25,-0.64062 1.70312,0 2.8125,1.375 v -1.15625 h 1.51562 v 8.35937 q 0,2.26563 -0.46875,3.20313 -0.45312,0.9375 -1.45312,1.48437 -0.98438,0.54688 -2.45313,0.54688 -1.71875,0 -2.79687,-0.78125 -1.0625,-0.76563 -1.03125,-2.34375 z m 1.35937,-5.8125 q 0,1.90625 0.75,2.78125 0.76563,0.875 1.90625,0.875 1.125,0 1.89063,-0.85938 0.76562,-0.875 0.76562,-2.73437 0,-1.78125 -0.79687,-2.67188 -0.78125,-0.90625 -1.89063,-0.90625 -1.09375,0 -1.85937,0.89063 -0.76563,0.875 -0.76563,2.625 z m 20.84027,5.01562 v -1.42187 q -1.125,1.64062 -3.0625,1.64062 -0.85937,0 -1.60937,-0.32812 -0.73438,-0.32813 -1.09375,-0.82813 -0.35938,-0.5 -0.5,-1.21875 -0.10938,-0.46875 -0.10938,-1.53125 v -5.98437 h 1.64063 v 5.35937 q 0,1.28125 0.10937,1.73438 0.15625,0.64062 0.65625,1.01562 0.5,0.375 1.23438,0.375 0.73437,0 1.375,-0.375 0.65625,-0.39062 0.92187,-1.03125 0.26563,-0.65625 0.26563,-1.89062 v -5.1875 h 1.64062 v 9.67187 z m 4.04761,0 v -9.67187 h 1.46875 v 1.375 q 1.0625,-1.59375 3.07812,-1.59375 0.875,0 1.60938,0.3125 0.73437,0.3125 1.09375,0.82812 0.375,0.5 0.51562,1.20313 0.0937,0.45312 0.0937,1.59375 v 5.95312 h -1.64062 v -5.89062 q 0,-1 -0.20313,-1.48438 -0.1875,-0.5 -0.67187,-0.79687 -0.48438,-0.29688 -1.14063,-0.29688 -1.04687,0 -1.8125,0.67188 -0.75,0.65625 -0.75,2.51562 v 5.28125 z m 16.70386,0 v -1.42187 q -1.125,1.64062 -3.0625,1.64062 -0.85938,0 -1.60938,-0.32812 -0.73437,-0.32813 -1.09375,-0.82813 -0.35937,-0.5 -0.5,-1.21875 -0.10937,-0.46875 -0.10937,-1.53125 v -5.98437 h 1.64062 v 5.35937 q 0,1.28125 0.10938,1.73438 0.15625,0.64062 0.65625,1.01562 0.5,0.375 1.23437,0.375 0.73438,0 1.375,-0.375 0.65625,-0.39062 0.92188,-1.03125 0.26562,-0.65625 0.26562,-1.89062 v -5.1875 h 1.64063 v 9.67187 z m 3.39129,-2.89062 1.625,-0.25 q 0.125,0.96875 0.75,1.5 0.625,0.51562 1.75,0.51562 1.125,0 1.67188,-0.45312 0.54687,-0.46875 0.54687,-1.09375 0,-0.54688 -0.48437,-0.875 -0.32813,-0.21875 -1.67188,-0.54688 -1.8125,-0.46875 -2.51562,-0.79687 -0.6875,-0.32813 -1.04688,-0.90625 -0.35937,-0.59375 -0.35937,-1.3125 0,-0.64063 0.29687,-1.1875 0.29688,-0.5625 0.8125,-0.92188 0.375,-0.28125 1.03125,-0.46875 0.67188,-0.20312 1.42188,-0.20312 1.14062,0 2,0.32812 0.85937,0.32813 1.26562,0.89063 0.42188,0.5625 0.57813,1.5 l -1.60938,0.21875 q -0.10937,-0.75 -0.64062,-1.17188 -0.51563,-0.42187 -1.46875,-0.42187 -1.14063,0 -1.625,0.375 -0.46875,0.375 -0.46875,0.875 0,0.3125 0.1875,0.57812 0.20312,0.26563 0.64062,0.4375 0.23438,0.0937 1.4375,0.42188 1.75,0.45312 2.4375,0.75 0.6875,0.29687 1.07813,0.85937 0.39062,0.5625 0.39062,1.40625 0,0.82813 -0.48437,1.54688 -0.46875,0.71875 -1.375,1.125 -0.90625,0.39062 -2.04688,0.39062 -1.875,0 -2.875,-0.78125 -0.98437,-0.78125 -1.25,-2.32812 z m 16.60938,-0.21875 1.6875,0.20312 q -0.40625,1.48438 -1.48438,2.3125 -1.07812,0.8125 -2.76562,0.8125 -2.125,0 -3.375,-1.29687 -1.23438,-1.3125 -1.23438,-3.67188 0,-2.45312 1.25,-3.79687 1.26563,-1.34375 3.26563,-1.34375 1.9375,0 3.15625,1.32812 1.23437,1.3125 1.23437,3.70313 0,0.15625 0,0.4375 h -7.21875 q 0.0937,1.59375 0.90625,2.45312 0.8125,0.84375 2.01563,0.84375 0.90625,0 1.54687,-0.46875 0.64063,-0.48437 1.01563,-1.51562 z m -5.39063,-2.65625 h 5.40625 q -0.10937,-1.21875 -0.625,-1.82813 -0.78125,-0.95312 -2.03125,-0.95312 -1.125,0 -1.90625,0.76562 -0.76562,0.75 -0.84375,2.01563 z m 15.40698,5.76562 v -1.21875 q -0.90625,1.4375 -2.70312,1.4375 -1.15625,0 -2.125,-0.64062 -0.96875,-0.64063 -1.5,-1.78125 -0.53125,-1.14063 -0.53125,-2.625 0,-1.45313 0.48437,-2.625 0.48438,-1.1875 1.4375,-1.8125 0.96875,-0.625 2.17188,-0.625 0.875,0 1.54687,0.375 0.6875,0.35937 1.10938,0.95312 v -4.79687 h 1.64062 v 13.35937 z m -5.17187,-4.82812 q 0,1.85937 0.78125,2.78125 0.78125,0.92187 1.84375,0.92187 1.07812,0 1.82812,-0.875 0.75,-0.89062 0.75,-2.6875 0,-1.98437 -0.76562,-2.90625 -0.76563,-0.9375 -1.89063,-0.9375 -1.07812,0 -1.8125,0.89063 -0.73437,0.89062 -0.73437,2.8125 z"
     fill-rule="nonzero"
     id="path33" />
  <path
     fill="#000000"
     d="m 629.40208,185.81456 1.6875,0.20312 q -0.40625,1.48438 -1.48438,2.3125 -1.07812,0.8125 -2.76562,0.8125 -2.125,0 -3.375,-1.29687 -1.23438,-1.3125 -1.23438,-3.67188 0,-2.45312 1.25,-3.79687 1.26563,-1.34375 3.26563,-1.34375 1.9375,0 3.15625,1.32812 1.23437,1.3125 1.23437,3.70313 0,0.15625 0,0.4375 h -7.21875 q 0.0937,1.59375 0.90625,2.45312 0.8125,0.84375 2.01563,0.84375 0.90625,0 1.54687,-0.46875 0.64063,-0.48437 1.01563,-1.51562 z m -5.39063,-2.65625 h 5.40625 q -0.10937,-1.21875 -0.625,-1.82813 -0.78125,-0.95312 -2.03125,-0.95312 -1.125,0 -1.90625,0.76562 -0.76562,0.75 -0.84375,2.01563 z m 9.14136,5.76562 v -9.67187 h 1.46875 v 1.375 q 1.0625,-1.59375 3.07813,-1.59375 0.875,0 1.60937,0.3125 0.73438,0.3125 1.09375,0.82812 0.375,0.5 0.51563,1.20313 0.0937,0.45312 0.0937,1.59375 v 5.95312 h -1.64063 v -5.89062 q 0,-1 -0.20312,-1.48438 -0.1875,-0.5 -0.67188,-0.79687 -0.48437,-0.29688 -1.14062,-0.29688 -1.04688,0 -1.8125,0.67188 -0.75,0.65625 -0.75,2.51562 v 5.28125 z m 16.6413,0 v -1.21875 q -0.90625,1.4375 -2.70313,1.4375 -1.15625,0 -2.125,-0.64062 -0.96875,-0.64063 -1.5,-1.78125 -0.53125,-1.14063 -0.53125,-2.625 0,-1.45313 0.48438,-2.625 0.48437,-1.1875 1.4375,-1.8125 0.96875,-0.625 2.17187,-0.625 0.875,0 1.54688,0.375 0.6875,0.35937 1.10937,0.95312 v -4.79687 h 1.64063 v 13.35937 z m -5.17188,-4.82812 q 0,1.85937 0.78125,2.78125 0.78125,0.92187 1.84375,0.92187 1.07813,0 1.82813,-0.875 0.75,-0.89062 0.75,-2.6875 0,-1.98437 -0.76563,-2.90625 -0.76562,-0.9375 -1.89062,-0.9375 -1.07813,0 -1.8125,0.89063 -0.73438,0.89062 -0.73438,2.8125 z m 8.62573,1.9375 1.625,-0.25 q 0.125,0.96875 0.75,1.5 0.625,0.51562 1.75,0.51562 1.125,0 1.67188,-0.45312 0.54687,-0.46875 0.54687,-1.09375 0,-0.54688 -0.48437,-0.875 -0.32813,-0.21875 -1.67188,-0.54688 -1.8125,-0.46875 -2.51562,-0.79687 -0.6875,-0.32813 -1.04688,-0.90625 -0.35937,-0.59375 -0.35937,-1.3125 0,-0.64063 0.29687,-1.1875 0.29688,-0.5625 0.8125,-0.92188 0.375,-0.28125 1.03125,-0.46875 0.67188,-0.20312 1.42188,-0.20312 1.14062,0 2,0.32812 0.85937,0.32813 1.26562,0.89063 0.42188,0.5625 0.57813,1.5 l -1.60938,0.21875 q -0.10937,-0.75 -0.64062,-1.17188 -0.51563,-0.42187 -1.46875,-0.42187 -1.14063,0 -1.625,0.375 -0.46875,0.375 -0.46875,0.875 0,0.3125 0.1875,0.57812 0.20312,0.26563 0.64062,0.4375 0.23438,0.0937 1.4375,0.42188 1.75,0.45312 2.4375,0.75 0.6875,0.29687 1.07813,0.85937 0.39062,0.5625 0.39062,1.40625 0,0.82813 -0.48437,1.54688 -0.46875,0.71875 -1.375,1.125 -0.90625,0.39062 -2.04688,0.39062 -1.875,0 -2.875,-0.78125 -0.98437,-0.78125 -1.25,-2.32812 z"
     fill-rule="nonzero"
     id="path35" />
  <path
     fill="#000000"
     fill-opacity="0"
     d="M 564.19552,109.53935 348.47897,193.79133"
     fill-rule="evenodd"
     id="path37" />
  <path
     stroke="#000000"
     stroke-width="1"
     stroke-linejoin="round"
     stroke-linecap="butt"
     d="M 564.19552,109.53935 354.06783,191.6085"
     fill-rule="evenodd"
     id="path39" />
  <path
     fill="#000000"
     stroke="#000000"
     stroke-width="1"
     stroke-linecap="butt"
     d="m 353.46692,190.06996 -3.62622,3.18951 4.82803,-0.11242 z"
     fill-rule="evenodd"
     id="path41" />
  <path
     fill="#cfe2f3"
     d="m 7.019682,233.66536 c 3.600723,0 6.519684,-2.91898 6.519684,-6.51968 H 7.019682 c 1.800362,0 3.259842,-1.45951 3.259842,-3.25986 0,-1.80036 -1.45948,-3.25983 -3.259842,-3.25983 h 6.519684 v -84.75592 0 c 0,-3.60071 2.918961,-6.51968 6.519684,-6.51968 h 97.6693 c 3.60072,0 6.51968,2.91897 6.51968,6.51968 0,3.60074 -2.91896,6.51969 -6.51968,6.51969 h -6.51969 v 84.75592 c 0,3.6007 -2.91896,6.51968 -6.51968,6.51968 z m 19.559052,-97.79529 v 0 c 0,3.60074 -2.918961,6.51968 -6.519684,6.51968 -1.800362,0 -3.259842,-1.45947 -3.259842,-3.25982 0,-1.80039 1.45948,-3.25986 3.259842,-3.25986 z"
     fill-rule="evenodd"
     id="path43" />
  <path
     fill="#a5b4c2"
     d="m 26.578732,135.87007 v 0 c 0,3.60074 -2.918961,6.51968 -6.519684,6.51968 -1.800362,0 -3.259842,-1.45947 -3.259842,-3.25982 0,-1.80039 1.45948,-3.25986 3.259842,-3.25986 z m -13.039368,91.2756 c 0,3.60071 -2.918961,6.51969 -6.519684,6.51969 -3.600723,0 -6.519684,-2.91898 -6.519684,-6.51969 0,-3.60073 2.918961,-6.51968 6.519684,-6.51968 v 0 c 1.800362,0 3.259842,1.45947 3.259842,3.25983 0,1.80035 -1.45948,3.25985 -3.259842,3.25985 z"
     fill-rule="evenodd"
     id="path45" />
  <path
     fill="#000000"
     fill-opacity="0"
     d="m 13.539368,220.62599 v -84.75592 0 c 0,-3.60071 2.918961,-6.51968 6.519684,-6.51968 h 97.669298 c 3.60072,0 6.51968,2.91897 6.51968,6.51968 0,3.60074 -2.91896,6.51968 -6.51968,6.51968 h -6.51968 v 84.75592 c 0,3.60071 -2.91896,6.51969 -6.51969,6.51969 H 7.019684 C 3.418961,233.66536 0.5,230.74638 0.5,227.14567 c 0,-3.60073 2.918961,-6.51968 6.519684,-6.51968 z m 6.519684,-91.2756 v 0 c 3.600723,0 6.519684,2.91897 6.519684,6.51968 0,3.60074 -2.918961,6.51968 -6.519684,6.51968 -1.800362,0 -3.259842,-1.45947 -3.259842,-3.25982 0,-1.80039 1.45948,-3.25986 3.259842,-3.25986 h 6.519684 m 84.629924,6.51968 H 20.059056 M 7.019688,220.62599 v 0 c 1.800362,0 3.259842,1.45948 3.259842,3.25983 0,1.80035 -1.45948,3.25986 -3.259842,3.25986 h 6.519684 m -6.519684,6.51968 c 3.600723,0 6.519684,-2.91897 6.519684,-6.51968 v -6.51969"
     fill-rule="evenodd"
     id="path47" />
  <path
     stroke="#000000"
     stroke-width="1"
     stroke-linejoin="round"
     stroke-linecap="butt"
     d="m 13.539368,220.62599 v -84.75592 0 c 0,-3.60071 2.918961,-6.51968 6.519684,-6.51968 h 97.669298 c 3.60072,0 6.51968,2.91897 6.51968,6.51968 0,3.60074 -2.91896,6.51968 -6.51968,6.51968 h -6.51968 v 84.75592 c 0,3.60071 -2.91896,6.51969 -6.51969,6.51969 H 7.019684 C 3.418961,233.66536 0.5,230.74638 0.5,227.14567 c 0,-3.60073 2.918961,-6.51968 6.519684,-6.51968 z m 6.519684,-91.2756 v 0 c 3.600723,0 6.519684,2.91897 6.519684,6.51968 0,3.60074 -2.918961,6.51968 -6.519684,6.51968 -1.800362,0 -3.259842,-1.45947 -3.259842,-3.25982 0,-1.80039 1.45948,-3.25986 3.259842,-3.25986 h 6.519684 m 84.629924,6.51968 H 20.059056 M 7.019688,220.62599 v 0 c 1.800362,0 3.259842,1.45948 3.259842,3.25983 0,1.80035 -1.45948,3.25986 -3.259842,3.25986 h 6.519684 m -6.519684,6.51968 c 3.600723,0 6.519684,-2.91897 6.519684,-6.51968 v -6.51969"
     fill-rule="evenodd"
     id="path49" />
  <path
     fill="#000000"
     d="m 30.015402,190.9077 -2.75,-8.98438 h 1.578125 l 1.421875,5.1875 0.546875,1.92188 q 0.03125,-0.14063 0.453125,-1.84375 l 1.4375,-5.26563 h 1.5625 l 1.34375,5.20313 0.45312,1.71875 0.51563,-1.73438 1.53125,-5.1875 h 1.48437 l -2.8125,8.98438 h -1.57812 l -1.421875,-5.375 -0.359375,-1.53125 -1.8125,6.90625 z m 10.84195,0 v -8.98438 h 1.375 v 1.35938 q 0.51562,-0.95313 0.95312,-1.25 0.45313,-0.3125 0.98438,-0.3125 0.78125,0 1.5625,0.48437 l -0.51563,1.42188 q -0.5625,-0.32813 -1.125,-0.32813 -0.5,0 -0.89062,0.29688 -0.39063,0.29687 -0.5625,0.82812 -0.26563,0.8125 -0.26563,1.78125 v 4.70313 z m 5.80165,-10.65625 v -1.75 h 1.51562 v 1.75 z m 0,10.65625 v -8.98438 h 1.51562 v 8.98438 z m 7.16226,-1.35938 0.21875,1.34375 q -0.64062,0.14063 -1.15625,0.14063 -0.82812,0 -1.28125,-0.26563 -0.45312,-0.26562 -0.64062,-0.6875 -0.1875,-0.4375 -0.1875,-1.79687 v -5.17188 h -1.125 v -1.1875 h 1.125 v -2.21875 l 1.51562,-0.92187 v 3.14062 h 1.53125 v 1.1875 h -1.53125 v 5.25 q 0,0.65625 0.0781,0.84375 0.0781,0.1875 0.25,0.29688 0.1875,0.10937 0.53125,0.10937 0.25,0 0.67187,-0.0625 z m 7.64244,-1.53125 1.56251,0.1875 q -0.35937,1.39063 -1.37501,2.15625 -1,0.75 -2.5625,0.75 -1.98437,0 -3.14062,-1.20312 -1.14063,-1.21875 -1.14063,-3.42188 0,-2.26562 1.15625,-3.51562 1.17188,-1.25 3.03125,-1.25 1.8125,0 2.95313,1.23437 1.14063,1.21875 1.14063,3.4375 0,0.14063 -0.0156,0.40625 h -6.70314 q 0.0937,1.48438 0.84375,2.28125 0.75,0.78125 1.875,0.78125 0.84375,0 1.4375,-0.4375 0.59375,-0.4375 0.9375,-1.40625 z m -5,-2.46875 h 5.01563 q -0.10938,-1.125 -0.57813,-1.70312 -0.73437,-0.875 -1.89062,-0.875 -1.04688,0 -1.76563,0.70312 -0.70312,0.70313 -0.78125,1.875 z m 19.45141,2.46875 1.5625,0.1875 q -0.35937,1.39063 -1.375,2.15625 -1,0.75 -2.5625,0.75 -1.98437,0 -3.14062,-1.20312 -1.14063,-1.21875 -1.14063,-3.42188 0,-2.26562 1.15625,-3.51562 1.17188,-1.25 3.03125,-1.25 1.8125,0 2.95313,1.23437 1.14062,1.21875 1.14062,3.4375 0,0.14063 -0.0156,0.40625 h -6.70313 q 0.0937,1.48438 0.84375,2.28125 0.75,0.78125 1.875,0.78125 0.84375,0 1.4375,-0.4375 0.59375,-0.4375 0.9375,-1.40625 z m -5,-2.46875 h 5.01563 q -0.10938,-1.125 -0.57813,-1.70312 -0.73437,-0.875 -1.89062,-0.875 -1.04688,0 -1.76563,0.70312 -0.70312,0.70313 -0.78125,1.875 z m 8.48084,5.35938 v -8.98438 h 1.375 v 1.28125 q 0.98437,-1.48437 2.85937,-1.48437 0.8125,0 1.48438,0.29687 0.6875,0.28125 1.01562,0.76563 0.34375,0.46875 0.48438,1.125 0.0781,0.42187 0.0781,1.46875 v 5.53125 h -1.51562 v -5.46875 q 0,-0.92188 -0.1875,-1.375 -0.17188,-0.46875 -0.625,-0.75 -0.45313,-0.28125 -1.0625,-0.28125 -0.96875,0 -1.67188,0.625 -0.70312,0.60937 -0.70312,2.34375 v 4.90625 z m 15.46521,0 v -1.14063 q -0.84375,1.34375 -2.51563,1.34375 -1.0625,0 -1.96875,-0.59375 -0.90625,-0.59375 -1.40625,-1.65625 -0.48437,-1.0625 -0.48437,-2.4375 0,-1.34375 0.4375,-2.4375 0.45312,-1.09375 1.34375,-1.67187 0.90625,-0.59375 2.01562,-0.59375 0.8125,0 1.4375,0.34375 0.64063,0.34375 1.04688,0.89062 v -4.45312 h 1.51562 v 12.40625 z m -4.8125,-4.48438 q 0,1.71875 0.71875,2.57813 0.73437,0.85937 1.73437,0.85937 0.98438,0 1.6875,-0.8125 0.70313,-0.82812 0.70313,-2.5 0,-1.84375 -0.71875,-2.70312 -0.70313,-0.85938 -1.75,-0.85938 -1.01563,0 -1.70313,0.82813 -0.67187,0.82812 -0.67187,2.60937 z"
     fill-rule="nonzero"
     id="path51" />
  <path
     fill="#000000"
     fill-opacity="0"
     d="M 111.20866,181.50786 254.26377,0.5"
     fill-rule="evenodd"
     id="path53" />
  <path
     stroke="#000000"
     stroke-width="1"
     stroke-linejoin="round"
     stroke-linecap="butt"
     d="M 111.20866,181.50786 250.54344,5.20734"
     fill-rule="evenodd"
     id="path55" />
  <path
     fill="#000000"
     stroke="#000000"
     stroke-width="1"
     stroke-linecap="butt"
     d="m 251.83932,6.23151 1.51801,-4.58456 -4.10975,2.53624 z"
     fill-rule="evenodd"
     id="path57" />
  <path
     fill="#cfe2f3"
     d="m 565.07942,330.83071 c 3.10608,0 5.62402,-2.51794 5.62402,-5.62402 h -5.62402 c 1.55304,0 2.81201,-1.25898 2.81201,-2.81202 0,-1.553 -1.25897,-2.81201 -2.81201,-2.81201 h 5.62402 v -73.11218 0 c 0,-3.10608 2.51795,-5.62402 5.62403,-5.62402 h 142.13385 c 3.10608,0 5.62402,2.51794 5.62402,5.62402 0,3.10605 -2.51794,5.62403 -5.62402,5.62403 h -5.62403 v 73.11218 c 0,3.10608 -2.51794,5.62402 -5.62402,5.62402 z m 16.87207,-84.36023 v 0 c 0,3.10605 -2.51801,5.62402 -5.62402,5.62402 v 0 c -1.55304,0 -2.81202,-1.259 -2.81202,-2.81201 0,-1.55304 1.25898,-2.81201 2.81202,-2.81201 z"
     fill-rule="evenodd"
     id="path59" />
  <path
     fill="#a5b4c2"
     d="m 581.95146,246.47048 v 0 c 0,3.10605 -2.51801,5.62402 -5.62402,5.62402 v 0 c -1.55304,0 -2.81202,-1.259 -2.81202,-2.81201 0,-1.55304 1.25898,-2.81201 2.81202,-2.81201 z m -11.24805,78.73621 c 0,3.10608 -2.51794,5.62402 -5.62402,5.62402 -3.10608,0 -5.62402,-2.51794 -5.62402,-5.62402 0,-3.10605 2.51794,-5.62403 5.62402,-5.62403 v 0 c 1.55304,0 2.81201,1.25901 2.81201,2.81201 0,1.55304 -1.25897,2.81202 -2.81201,2.81202 z"
     fill-rule="evenodd"
     id="path61" />
  <path
     fill="#000000"
     fill-opacity="0"
     d="m 570.70342,319.58266 v -73.11218 0 c 0,-3.10608 2.51794,-5.62402 5.62402,-5.62402 h 142.13385 c 3.10608,0 5.62403,2.51794 5.62403,5.62402 0,3.10605 -2.51795,5.62402 -5.62403,5.62402 h -5.62402 v 73.11218 c 0,3.10608 -2.51794,5.62403 -5.62402,5.62403 H 565.0794 c -3.10608,0 -5.62403,-2.51795 -5.62403,-5.62403 0,-3.10605 2.51795,-5.62402 5.62403,-5.62402 z m 5.62402,-78.73621 v 0 c 3.10602,0 5.62403,2.51795 5.62403,5.62403 0,3.10605 -2.51801,5.62402 -5.62403,5.62402 -1.55304,0 -2.81201,-1.259 -2.81201,-2.81201 0,-1.55304 1.25897,-2.81201 2.81201,-2.81201 h 5.62403 m 130.8858,5.62402 H 576.32744 m -11.24805,67.48816 v 0 c 1.55304,0 2.81201,1.259 2.81201,2.81201 0,1.55304 -1.25897,2.81201 -2.81201,2.81201 h 5.62402 m -5.62402,5.62403 c 3.10608,0 5.62402,-2.51795 5.62402,-5.62403 v -5.62402"
     fill-rule="evenodd"
     id="path63" />
  <path
     stroke="#000000"
     stroke-width="1"
     stroke-linejoin="round"
     stroke-linecap="butt"
     d="m 570.70342,319.58266 v -73.11218 0 c 0,-3.10608 2.51794,-5.62402 5.62402,-5.62402 h 142.13385 c 3.10608,0 5.62403,2.51794 5.62403,5.62402 0,3.10605 -2.51795,5.62402 -5.62403,5.62402 h -5.62402 v 73.11218 c 0,3.10608 -2.51794,5.62403 -5.62402,5.62403 H 565.0794 c -3.10608,0 -5.62403,-2.51795 -5.62403,-5.62403 0,-3.10605 2.51795,-5.62402 5.62403,-5.62402 z m 5.62402,-78.73621 v 0 c 3.10602,0 5.62403,2.51795 5.62403,5.62403 0,3.10605 -2.51801,5.62402 -5.62403,5.62402 -1.55304,0 -2.81201,-1.259 -2.81201,-2.81201 0,-1.55304 1.25897,-2.81201 2.81201,-2.81201 h 5.62403 m 130.8858,5.62402 H 576.32744 m -11.24805,67.48816 v 0 c 1.55304,0 2.81201,1.259 2.81201,2.81201 0,1.55304 -1.25897,2.81201 -2.81201,2.81201 h 5.62402 m -5.62402,5.62403 c 3.10608,0 5.62402,-2.51795 5.62402,-5.62403 v -5.62402"
     fill-rule="evenodd"
     id="path65" />
  <path
     fill="#000000"
     d="m 608.69172,294.79057 v -8.98437 h 1.375 v 1.35937 q 0.51563,-0.95312 0.95313,-1.25 0.45312,-0.3125 0.98437,-0.3125 0.78125,0 1.5625,0.48438 l -0.51562,1.42187 q -0.5625,-0.32812 -1.125,-0.32812 -0.5,0 -0.89063,0.29687 -0.39062,0.29688 -0.5625,0.82813 -0.26562,0.8125 -0.26562,1.78125 v 4.70312 z m 11.94232,-2.89062 1.5625,0.1875 q -0.35937,1.39062 -1.375,2.15625 -1,0.75 -2.5625,0.75 -1.98437,0 -3.14062,-1.20313 -1.14063,-1.21875 -1.14063,-3.42187 0,-2.26563 1.15625,-3.51563 1.17188,-1.25 3.03125,-1.25 1.8125,0 2.95313,1.23438 1.14062,1.21875 1.14062,3.4375 0,0.14062 -0.0156,0.40625 h -6.70313 q 0.0937,1.48437 0.84375,2.28125 0.75,0.78125 1.875,0.78125 0.84375,0 1.4375,-0.4375 0.59375,-0.4375 0.9375,-1.40625 z m -5,-2.46875 h 5.01563 q -0.10938,-1.125 -0.57813,-1.70313 -0.73437,-0.875 -1.89062,-0.875 -1.04688,0 -1.76563,0.70313 -0.70312,0.70312 -0.78125,1.875 z m 14.34021,4.25 q -0.84375,0.71875 -1.625,1.01562 -0.78125,0.29688 -1.67187,0.29688 -1.48438,0 -2.28125,-0.71875 -0.79688,-0.73438 -0.79688,-1.85938 0,-0.65625 0.29688,-1.20312 0.3125,-0.54688 0.79687,-0.875 0.48438,-0.32813 1.09375,-0.5 0.4375,-0.10938 1.34375,-0.21875 1.84375,-0.21875 2.71875,-0.53125 0.0156,-0.3125 0.0156,-0.39063 0,-0.9375 -0.4375,-1.3125 -0.57813,-0.51562 -1.73438,-0.51562 -1.07812,0 -1.59375,0.375 -0.5,0.375 -0.75,1.32812 l -1.48437,-0.20312 q 0.20312,-0.95313 0.65625,-1.53125 0.46875,-0.59375 1.34375,-0.90625 0.89062,-0.32813 2.04687,-0.32813 1.15625,0 1.875,0.28125 0.71875,0.26563 1.04688,0.67188 0.34375,0.40625 0.48437,1.03125 0.0781,0.39062 0.0781,1.40625 v 2.03125 q 0,2.125 0.0937,2.6875 0.0937,0.5625 0.39062,1.07812 h -1.59375 q -0.23437,-0.46875 -0.3125,-1.10937 z m -0.125,-3.40625 q -0.82812,0.34375 -2.48437,0.57812 -0.9375,0.14063 -1.32813,0.3125 -0.39062,0.17188 -0.60937,0.5 -0.20313,0.3125 -0.20313,0.71875 0,0.60938 0.45313,1.01563 0.46875,0.40625 1.35937,0.40625 0.875,0 1.5625,-0.39063 0.6875,-0.39062 1.01563,-1.04687 0.23437,-0.51563 0.23437,-1.53125 z m 9.73084,4.51562 v -1.14062 q -0.84375,1.34375 -2.51563,1.34375 -1.0625,0 -1.96875,-0.59375 -0.90625,-0.59375 -1.40625,-1.65625 -0.48437,-1.0625 -0.48437,-2.4375 0,-1.34375 0.4375,-2.4375 0.45312,-1.09375 1.34375,-1.67188 0.90625,-0.59375 2.01562,-0.59375 0.8125,0 1.4375,0.34375 0.64063,0.34375 1.04688,0.89063 v -4.45313 h 1.51562 v 12.40625 z m -4.8125,-4.48437 q 0,1.71875 0.71875,2.57812 0.73437,0.85938 1.73437,0.85938 0.98438,0 1.6875,-0.8125 0.70313,-0.82813 0.70313,-2.5 0,-1.84375 -0.71875,-2.70313 -0.70313,-0.85937 -1.75,-0.85937 -1.01563,0 -1.70313,0.82812 -0.67187,0.82813 -0.67187,2.60938 z m 19.59198,1.59375 1.5625,0.1875 q -0.35938,1.39062 -1.375,2.15625 -1,0.75 -2.5625,0.75 -1.98438,0 -3.14063,-1.20313 -1.14062,-1.21875 -1.14062,-3.42187 0,-2.26563 1.15625,-3.51563 1.17187,-1.25 3.03125,-1.25 1.8125,0 2.95312,1.23438 1.14063,1.21875 1.14063,3.4375 0,0.14062 -0.0156,0.40625 h -6.70312 q 0.0937,1.48437 0.84375,2.28125 0.75,0.78125 1.875,0.78125 0.84375,0 1.4375,-0.4375 0.59375,-0.4375 0.9375,-1.40625 z m -5,-2.46875 h 5.01562 q -0.10937,-1.125 -0.57812,-1.70313 -0.73438,-0.875 -1.89063,-0.875 -1.04687,0 -1.76562,0.70313 -0.70313,0.70312 -0.78125,1.875 z m 8.48083,5.35937 v -8.98437 h 1.375 v 1.28125 q 0.98438,-1.48438 2.85938,-1.48438 0.8125,0 1.48437,0.29688 0.6875,0.28125 1.01563,0.76562 0.34375,0.46875 0.48437,1.125 0.0781,0.42188 0.0781,1.46875 v 5.53125 h -1.51563 v -5.46875 q 0,-0.92187 -0.1875,-1.375 -0.17187,-0.46875 -0.625,-0.75 -0.45312,-0.28125 -1.0625,-0.28125 -0.96875,0 -1.67187,0.625 -0.70313,0.60938 -0.70313,2.34375 v 4.90625 z m 15.46521,0 v -1.14062 q -0.84375,1.34375 -2.51562,1.34375 -1.0625,0 -1.96875,-0.59375 -0.90625,-0.59375 -1.40625,-1.65625 -0.48438,-1.0625 -0.48438,-2.4375 0,-1.34375 0.4375,-2.4375 0.45313,-1.09375 1.34375,-1.67188 0.90625,-0.59375 2.01563,-0.59375 0.8125,0 1.4375,0.34375 0.64062,0.34375 1.04687,0.89063 v -4.45313 h 1.51563 v 12.40625 z m -4.8125,-4.48437 q 0,1.71875 0.71875,2.57812 0.73438,0.85938 1.73438,0.85938 0.98437,0 1.6875,-0.8125 0.70312,-0.82813 0.70312,-2.5 0,-1.84375 -0.71875,-2.70313 -0.70312,-0.85937 -1.75,-0.85937 -1.01562,0 -1.70312,0.82812 -0.67188,0.82813 -0.67188,2.60938 z"
     fill-rule="nonzero"
     id="path67" />
  <path
     fill="#000000"
     fill-opacity="0"
     d="M 570.70342,285.83858 391.42782,1.52364"
     fill-rule="evenodd"
     id="path69" />
  <path
     stroke="#000000"
     stroke-width="1"
     stroke-linejoin="round"
     stroke-linecap="butt"
     d="M 570.70342,285.83858 394.62807,6.59888"
     fill-rule="evenodd"
     id="path71" />
  <path
     fill="#000000"
     stroke="#000000"
     stroke-width="1"
     stroke-linecap="butt"
     d="m 396.02522,5.71791 -3.81766,-2.9577 1.02332,4.71968 z"
     fill-rule="evenodd"
     id="path73" />
  <path
     fill="#cfe2f3"
     d="m 352.56038,126.28478 v 41.92746 h -22.62994 v 110.70245 h 7.5433 l -15.08661,15.08661 -15.08661,-15.08661 h 7.54331 V 168.21224 h -22.62992 v -41.92746 z"
     fill-rule="evenodd"
     id="path75" />
  <path
     stroke="#000000"
     stroke-width="1"
     stroke-linejoin="round"
     stroke-linecap="butt"
     d="m 352.56038,126.28478 v 41.92746 h -22.62994 v 110.70245 h 7.5433 l -15.08661,15.08661 -15.08661,-15.08661 h 7.54331 V 168.21224 h -22.62992 v -41.92746 z"
     fill-rule="evenodd"
     id="path77" />
  <path
     fill="#b6d7a8"
     d="M 250.30314,294.65749 H 394.4921 V 419.41341 H 250.30314 Z"
     fill-rule="evenodd"
     id="path79" />
  <path
     stroke="#000000"
     stroke-width="1"
     stroke-linejoin="round"
     stroke-linecap="butt"
     d="M 250.30314,294.65749 H 394.4921 V 419.41341 H 250.30314 Z"
     fill-rule="evenodd"
     id="path81" />
  <path
     fill="#000000"
     d="m 282.15648,410.03653 v -13.375 h 1.48437 v 1.25 q 0.53125,-0.73437 1.1875,-1.09375 0.67188,-0.375 1.625,-0.375 1.23438,0 2.17188,0.64063 0.95312,0.625 1.4375,1.79687 0.48437,1.15625 0.48437,2.54688 0,1.48437 -0.53125,2.67187 -0.53125,1.1875 -1.54687,1.82813 -1.01563,0.625 -2.14063,0.625 -0.8125,0 -1.46875,-0.34375 -0.65625,-0.34375 -1.0625,-0.875 v 4.70312 z m 1.48437,-8.48437 q 0,1.85937 0.75,2.76562 0.76563,0.89063 1.82813,0.89063 1.09375,0 1.875,-0.92188 0.78125,-0.9375 0.78125,-2.875 0,-1.84375 -0.76563,-2.76562 -0.75,-0.92188 -1.8125,-0.92188 -1.04687,0 -1.85937,0.98438 -0.79688,0.96875 -0.79688,2.84375 z m 8.87571,4.78125 v -9.67188 h 1.46875 v 1.46875 q 0.5625,-1.03125 1.03125,-1.35937 0.48437,-0.32813 1.0625,-0.32813 0.82812,0 1.6875,0.53125 l -0.5625,1.51563 q -0.60938,-0.35938 -1.20313,-0.35938 -0.54687,0 -0.96875,0.32813 -0.42187,0.32812 -0.60937,0.89062 -0.28125,0.875 -0.28125,1.92188 v 5.0625 z m 5.61892,-4.84375 q 0,-2.6875 1.48438,-3.96875 1.25,-1.07813 3.04687,-1.07813 2,0 3.26563,1.3125 1.26562,1.29688 1.26562,3.60938 0,1.85937 -0.5625,2.9375 -0.5625,1.0625 -1.64062,1.65625 -1.0625,0.59375 -2.32813,0.59375 -2.03125,0 -3.28125,-1.29688 -1.25,-1.3125 -1.25,-3.76562 z m 1.6875,0 q 0,1.85937 0.79688,2.79687 0.8125,0.92188 2.04687,0.92188 1.21875,0 2.03125,-0.92188 0.8125,-0.9375 0.8125,-2.84375 0,-1.79687 -0.8125,-2.71875 -0.8125,-0.92187 -2.03125,-0.92187 -1.23437,0 -2.04687,0.92187 -0.79688,0.90625 -0.79688,2.76563 z m 15.61011,1.29687 1.60938,0.21875 q -0.26563,1.65625 -1.35938,2.60938 -1.07812,0.9375 -2.67187,0.9375 -1.98438,0 -3.1875,-1.29688 -1.20313,-1.29687 -1.20313,-3.71875 0,-1.57812 0.51563,-2.75 0.51562,-1.17187 1.57812,-1.75 1.0625,-0.59375 2.3125,-0.59375 1.57813,0 2.57813,0.79688 1,0.79687 1.28125,2.26562 l -1.59375,0.23438 q -0.23438,-0.96875 -0.8125,-1.45313 -0.57813,-0.5 -1.39063,-0.5 -1.23437,0 -2.01562,0.89063 -0.78125,0.89062 -0.78125,2.8125 0,1.95312 0.75,2.84375 0.75,0.875 1.95312,0.875 0.96875,0 1.60938,-0.59375 0.65625,-0.59375 0.82812,-1.82813 z m 9.64063,0.4375 1.6875,0.20313 q -0.40625,1.48437 -1.48438,2.3125 -1.07812,0.8125 -2.76562,0.8125 -2.125,0 -3.375,-1.29688 -1.23438,-1.3125 -1.23438,-3.67187 0,-2.45313 1.25,-3.79688 1.26563,-1.34375 3.26563,-1.34375 1.9375,0 3.15625,1.32813 1.23437,1.3125 1.23437,3.70312 0,0.15625 0,0.4375 h -7.21875 q 0.0937,1.59375 0.90625,2.45313 0.8125,0.84375 2.01563,0.84375 0.90625,0 1.54687,-0.46875 0.64063,-0.48438 1.01563,-1.51563 z m -5.39063,-2.65625 h 5.40625 q -0.10937,-1.21875 -0.625,-1.82812 -0.78125,-0.95313 -2.03125,-0.95313 -1.125,0 -1.90625,0.76563 -0.76562,0.75 -0.84375,2.01562 z m 8.48508,2.875 1.625,-0.25 q 0.125,0.96875 0.75,1.5 0.625,0.51563 1.75,0.51563 1.125,0 1.67187,-0.45313 0.54688,-0.46875 0.54688,-1.09375 0,-0.54687 -0.48438,-0.875 -0.32812,-0.21875 -1.67187,-0.54687 -1.8125,-0.46875 -2.51563,-0.79688 -0.6875,-0.32812 -1.04687,-0.90625 -0.35938,-0.59375 -0.35938,-1.3125 0,-0.64062 0.29688,-1.1875 0.29687,-0.5625 0.8125,-0.92187 0.375,-0.28125 1.03125,-0.46875 0.67187,-0.20313 1.42187,-0.20313 1.14063,0 2,0.32813 0.85938,0.32812 1.26563,0.89062 0.42187,0.5625 0.57812,1.5 l -1.60937,0.21875 q -0.10938,-0.75 -0.64063,-1.17187 -0.51562,-0.42188 -1.46875,-0.42188 -1.14062,0 -1.625,0.375 -0.46875,0.375 -0.46875,0.875 0,0.3125 0.1875,0.57813 0.20313,0.26562 0.64063,0.4375 0.23437,0.0937 1.4375,0.42187 1.75,0.45313 2.4375,0.75 0.6875,0.29688 1.07812,0.85938 0.39063,0.5625 0.39063,1.40625 0,0.82812 -0.48438,1.54687 -0.46875,0.71875 -1.375,1.125 -0.90625,0.39063 -2.04687,0.39063 -1.875,0 -2.875,-0.78125 -0.98438,-0.78125 -1.25,-2.32813 z m 9.32812,0 1.625,-0.25 q 0.125,0.96875 0.75,1.5 0.625,0.51563 1.75,0.51563 1.125,0 1.67188,-0.45313 0.54687,-0.46875 0.54687,-1.09375 0,-0.54687 -0.48437,-0.875 -0.32813,-0.21875 -1.67188,-0.54687 -1.8125,-0.46875 -2.51562,-0.79688 -0.6875,-0.32812 -1.04688,-0.90625 -0.35937,-0.59375 -0.35937,-1.3125 0,-0.64062 0.29687,-1.1875 0.29688,-0.5625 0.8125,-0.92187 0.375,-0.28125 1.03125,-0.46875 0.67188,-0.20313 1.42188,-0.20313 1.14062,0 2,0.32813 0.85937,0.32812 1.26562,0.89062 0.42188,0.5625 0.57813,1.5 l -1.60938,0.21875 q -0.10937,-0.75 -0.64062,-1.17187 -0.51563,-0.42188 -1.46875,-0.42188 -1.14063,0 -1.625,0.375 -0.46875,0.375 -0.46875,0.875 0,0.3125 0.1875,0.57813 0.20312,0.26562 0.64062,0.4375 0.23438,0.0937 1.4375,0.42187 1.75,0.45313 2.4375,0.75 0.6875,0.29688 1.07813,0.85938 0.39062,0.5625 0.39062,1.40625 0,0.82812 -0.48437,1.54687 -0.46875,0.71875 -1.375,1.125 -0.90625,0.39063 -2.04688,0.39063 -1.875,0 -2.875,-0.78125 -0.98437,-0.78125 -1.25,-2.32813 z m 15.2927,2.89063 v -13.35938 h 5.01562 q 1.53125,0 2.45313,0.40625 0.92187,0.40625 1.4375,1.25 0.53125,0.84375 0.53125,1.76563 0,0.85937 -0.46875,1.625 -0.45313,0.75 -1.39063,1.20312 1.20313,0.35938 1.85938,1.21875 0.65625,0.85938 0.65625,2.01563 0,0.9375 -0.40625,1.75 -0.39063,0.79687 -0.98438,1.23437 -0.57812,0.4375 -1.45312,0.67188 -0.875,0.21875 -2.15625,0.21875 z m 1.78125,-7.75 h 2.875 q 1.1875,0 1.6875,-0.14063 0.67187,-0.20312 1.01562,-0.67187 0.34375,-0.46875 0.34375,-1.17188 0,-0.65625 -0.32812,-1.15625 -0.3125,-0.51562 -0.90625,-0.70312 -0.59375,-0.1875 -2.03125,-0.1875 h -2.65625 z m 0,6.17187 h 3.3125 q 0.85937,0 1.20312,-0.0625 0.60938,-0.10937 1.01563,-0.35937 0.42187,-0.26563 0.6875,-0.75 0.26562,-0.48438 0.26562,-1.125 0,-0.75 -0.39062,-1.29688 -0.375,-0.54687 -1.0625,-0.76562 -0.67188,-0.23438 -1.95313,-0.23438 h -3.07812 z"
     fill-rule="nonzero"
     id="path83" />
  <path
     fill="#000000"
     fill-opacity="0"
     d="m 240.06956,296.70735 h 164.62991 v 31.71652 H 240.06956 Z"
     fill-rule="evenodd"
     id="path85" />
  <path
     fill="#000000"
     d="m 273.74095,317.22733 v -5.40625 h -0.9375 v -0.8125 h 0.9375 v -0.67188 q 0,-0.625 0.10937,-0.92187 0.15625,-0.42188 0.53125,-0.67188 0.39063,-0.25 1.07813,-0.25 0.45312,0 0.98437,0.10938 l -0.15625,0.90625 q -0.32812,-0.0469 -0.625,-0.0469 -0.48437,0 -0.6875,0.20313 -0.1875,0.20312 -0.1875,0.76562 v 0.57813 h 1.21875 v 0.8125 h -1.21875 v 5.40625 z m 3.08398,-7.375 v -1.21875 h 1.0625 v 1.21875 z m 0,7.375 v -6.21875 h 1.0625 v 6.21875 z m 2.63477,0 v -8.59375 h 1.0625 v 8.59375 z m 6.72852,0 v -0.78125 q -0.59375,0.92187 -1.73438,0.92187 -0.75,0 -1.375,-0.40625 -0.625,-0.42187 -0.96875,-1.15625 -0.34375,-0.73437 -0.34375,-1.6875 0,-0.92187 0.3125,-1.6875 0.3125,-0.76562 0.9375,-1.15625 0.625,-0.40625 1.39063,-0.40625 0.5625,0 1,0.23438 0.4375,0.23437 0.71875,0.60937 v -3.07812 h 1.04687 v 8.59375 z m -3.32813,-3.10938 q 0,1.20313 0.5,1.79688 0.5,0.57812 1.1875,0.57812 0.6875,0 1.17188,-0.5625 0.48437,-0.5625 0.48437,-1.71875 0,-1.28125 -0.5,-1.875 -0.48437,-0.59375 -1.20312,-0.59375 -0.70313,0 -1.17188,0.57813 -0.46875,0.5625 -0.46875,1.79687 z m 10.2207,1.10938 1.09375,0.125 q -0.25,0.95312 -0.95312,1.48437 -0.70313,0.53125 -1.78125,0.53125 -1.35938,0 -2.17188,-0.84375 -0.79687,-0.84375 -0.79687,-2.35937 0,-1.5625 0.8125,-2.42188 0.8125,-0.875 2.09375,-0.875 1.25,0 2.03125,0.84375 0.79687,0.84375 0.79687,2.39063 0,0.0937 0,0.28125 h -4.64062 q 0.0625,1.03125 0.57812,1.57812 0.51563,0.53125 1.29688,0.53125 0.57812,0 0.98437,-0.29687 0.42188,-0.3125 0.65625,-0.96875 z m -3.45312,-1.70313 h 3.46875 q -0.0625,-0.79687 -0.39063,-1.1875 -0.51562,-0.60937 -1.3125,-0.60937 -0.73437,0 -1.23437,0.48437 -0.48438,0.48438 -0.53125,1.3125 z m 5.45508,1.84375 1.03125,-0.15625 q 0.0937,0.625 0.48437,0.95313 0.40625,0.32812 1.14063,0.32812 0.71875,0 1.0625,-0.28125 0.35937,-0.29687 0.35937,-0.70312 0,-0.35938 -0.3125,-0.5625 -0.21875,-0.14063 -1.07812,-0.35938 -1.15625,-0.29687 -1.60938,-0.5 -0.4375,-0.21875 -0.67187,-0.59375 -0.23438,-0.375 -0.23438,-0.84375 0,-0.40625 0.1875,-0.76562 0.1875,-0.35938 0.51563,-0.59375 0.25,-0.17188 0.67187,-0.29688 0.42188,-0.125 0.92188,-0.125 0.71875,0 1.26562,0.21875 0.5625,0.20313 0.82813,0.5625 0.26562,0.35938 0.35937,0.95313 l -1.03125,0.14062 q -0.0625,-0.46875 -0.40625,-0.73437 -0.32812,-0.28125 -0.95312,-0.28125 -0.71875,0 -1.03125,0.25 -0.3125,0.23437 -0.3125,0.5625 0,0.20312 0.125,0.35937 0.14062,0.17188 0.40625,0.28125 0.15625,0.0625 0.9375,0.26563 1.125,0.3125 1.5625,0.5 0.4375,0.1875 0.6875,0.54687 0.25,0.35938 0.25,0.90625 0,0.53125 -0.3125,1 -0.29688,0.45313 -0.875,0.71875 -0.57813,0.25 -1.3125,0.25 -1.21875,0 -1.85938,-0.5 -0.625,-0.51562 -0.79687,-1.5 z m 6.4375,4.25 v -10.98437 h 2.32812 v 0.875 h -1.26562 v 9.23437 h 1.26562 v 0.875 z m 6.99023,-2.39062 h -1.04687 v -6.71875 q -0.39063,0.35937 -1.01563,0.73437 -0.60937,0.35938 -1.09375,0.53125 v -1.01562 q 0.875,-0.42188 1.53125,-1 0.67188,-0.59375 0.95313,-1.15625 h 0.67187 z m 4.76758,2.39062 h -2.32813 v -0.875 h 1.26563 v -9.23437 h -1.26563 v -0.875 h 2.32813 z m 18.48828,-2.39062 v -5.40625 h -0.9375 v -0.8125 h 0.9375 v -0.67188 q 0,-0.625 0.10937,-0.92187 0.15625,-0.42188 0.53125,-0.67188 0.39063,-0.25 1.07813,-0.25 0.45312,0 0.98437,0.10938 l -0.15625,0.90625 q -0.32812,-0.0469 -0.625,-0.0469 -0.48437,0 -0.6875,0.20313 -0.1875,0.20312 -0.1875,0.76562 v 0.57813 h 1.21875 v 0.8125 h -1.21875 v 5.40625 z m 3.08398,-7.375 v -1.21875 h 1.0625 v 1.21875 z m 0,7.375 v -6.21875 h 1.0625 v 6.21875 z m 2.63477,0 v -8.59375 h 1.0625 v 8.59375 z m 6.72852,0 v -0.78125 q -0.59375,0.92187 -1.73438,0.92187 -0.75,0 -1.375,-0.40625 -0.625,-0.42187 -0.96875,-1.15625 -0.34375,-0.73437 -0.34375,-1.6875 0,-0.92187 0.3125,-1.6875 0.3125,-0.76562 0.9375,-1.15625 0.625,-0.40625 1.39063,-0.40625 0.5625,0 1,0.23438 0.4375,0.23437 0.71875,0.60937 v -3.07812 h 1.04687 v 8.59375 z m -3.32813,-3.10938 q 0,1.20313 0.5,1.79688 0.5,0.57812 1.1875,0.57812 0.6875,0 1.17188,-0.5625 0.48437,-0.5625 0.48437,-1.71875 0,-1.28125 -0.5,-1.875 -0.48437,-0.59375 -1.20312,-0.59375 -0.70313,0 -1.17188,0.57813 -0.46875,0.5625 -0.46875,1.79687 z m 10.2207,1.10938 1.09375,0.125 q -0.25,0.95312 -0.95312,1.48437 -0.70313,0.53125 -1.78125,0.53125 -1.35938,0 -2.17188,-0.84375 -0.79687,-0.84375 -0.79687,-2.35937 0,-1.5625 0.8125,-2.42188 0.8125,-0.875 2.09375,-0.875 1.25,0 2.03125,0.84375 0.79687,0.84375 0.79687,2.39063 0,0.0937 0,0.28125 h -4.64062 q 0.0625,1.03125 0.57812,1.57812 0.51563,0.53125 1.29688,0.53125 0.57812,0 0.98437,-0.29687 0.42188,-0.3125 0.65625,-0.96875 z m -3.45312,-1.70313 h 3.46875 q -0.0625,-0.79687 -0.39063,-1.1875 -0.51562,-0.60937 -1.3125,-0.60937 -0.73437,0 -1.23437,0.48437 -0.48438,0.48438 -0.53125,1.3125 z m 5.45508,1.84375 1.03125,-0.15625 q 0.0937,0.625 0.48437,0.95313 0.40625,0.32812 1.14063,0.32812 0.71875,0 1.0625,-0.28125 0.35937,-0.29687 0.35937,-0.70312 0,-0.35938 -0.3125,-0.5625 -0.21875,-0.14063 -1.07812,-0.35938 -1.15625,-0.29687 -1.60938,-0.5 -0.4375,-0.21875 -0.67187,-0.59375 -0.23438,-0.375 -0.23438,-0.84375 0,-0.40625 0.1875,-0.76562 0.1875,-0.35938 0.51563,-0.59375 0.25,-0.17188 0.67187,-0.29688 0.42188,-0.125 0.92188,-0.125 0.71875,0 1.26562,0.21875 0.5625,0.20313 0.82813,0.5625 0.26562,0.35938 0.35937,0.95313 l -1.03125,0.14062 q -0.0625,-0.46875 -0.40625,-0.73437 -0.32812,-0.28125 -0.95312,-0.28125 -0.71875,0 -1.03125,0.25 -0.3125,0.23437 -0.3125,0.5625 0,0.20312 0.125,0.35937 0.14062,0.17188 0.40625,0.28125 0.15625,0.0625 0.9375,0.26563 1.125,0.3125 1.5625,0.5 0.4375,0.1875 0.6875,0.54687 0.25,0.35938 0.25,0.90625 0,0.53125 -0.3125,1 -0.29688,0.45313 -0.875,0.71875 -0.57813,0.25 -1.3125,0.25 -1.21875,0 -1.85938,-0.5 -0.625,-0.51562 -0.79687,-1.5 z m 6.4375,4.25 v -10.98437 h 2.32812 v 0.875 h -1.26562 v 9.23437 h 1.26562 v 0.875 z m 3.02148,-6.625 q 0,-1.53125 0.3125,-2.45312 0.3125,-0.9375 0.92188,-1.4375 0.625,-0.5 1.5625,-0.5 0.6875,0 1.20312,0.28125 0.53125,0.28125 0.875,0.8125 0.34375,0.51562 0.53125,1.26562 0.18753,0.75 0.18753,2.03125 0,1.51563 -0.31253,2.4375 -0.29687,0.92188 -0.92187,1.4375 -0.60938,0.5 -1.5625,0.5 -1.23438,0 -1.95313,-0.89062 -0.84375,-1.0625 -0.84375,-3.48438 z m 1.07813,0 q 0,2.10938 0.5,2.8125 0.5,0.70313 1.21875,0.70313 0.73437,0 1.21875,-0.70313 0.5,-0.70312 0.5,-2.8125 0,-2.125 -0.5,-2.8125 -0.48438,-0.70312 -1.23438,-0.70312 -0.71875,0 -1.15625,0.60937 -0.54687,0.78125 -0.54687,2.90625 z m 7.65823,6.625 h -2.32813 v -0.875 h 1.26563 v -9.23437 h -1.26563 v -0.875 h 2.32813 z"
     fill-rule="nonzero"
     id="path87" />
  <path
     fill="#f6b26b"
     d="m 373.05092,286.01451 3.811,-1.7323 L 249.27553,3.99687 256.89757,0.5323 384.484,280.81764 l 3.811,-1.73227 -4.15332,11.08472 z"
     fill-rule="evenodd"
     id="path89" />
  <path
     stroke="#000000"
     stroke-width="1"
     stroke-linejoin="round"
     stroke-linecap="butt"
     d="m 373.05092,286.01451 3.811,-1.7323 L 249.27553,3.99687 256.89757,0.5323 384.484,280.81764 l 3.811,-1.73227 -4.15332,11.08472 z"
     fill-rule="evenodd"
     id="path91" />
  <path
     fill="#000000"
     fill-opacity="0"
     d="m 292.21129,125.5945 h 60.34647 v 43.96847 h -60.34647 z"
     fill-rule="evenodd"
     id="path93" />
  <path
     fill="#000000"
     fill-opacity="0"
     d="m 570.70342,285.83858 -186.55118,4.34647"
     fill-rule="evenodd"
     id="path95" />
  <path
     stroke="#000000"
     stroke-width="1"
     stroke-linejoin="round"
     stroke-linecap="butt"
     d="m 570.70342,285.83858 -180.55283,4.2067"
     fill-rule="evenodd"
     id="path97" />
  <path
     fill="#000000"
     stroke="#000000"
     stroke-width="1"
     stroke-linecap="butt"
     d="m 390.11212,288.394 -4.49841,1.75699 4.57534,1.54556 z"
     fill-rule="evenodd"
     id="path99" />
  <path
     fill="#000000"
     fill-opacity="0"
     d="m 111.20866,181.50786 144.0315,118.67719"
     fill-rule="evenodd"
     id="path101" />
  <path
     stroke="#000000"
     stroke-width="1"
     stroke-linejoin="round"
     stroke-linecap="butt"
     d="M 111.20866,181.50786 250.60957,296.36958"
     fill-rule="evenodd"
     id="path103" />
  <path
     fill="#000000"
     stroke="#000000"
     stroke-width="1"
     stroke-linecap="butt"
     d="m 249.55922,297.64433 4.5527,1.61105 -2.45199,-4.16055 z"
     fill-rule="evenodd"
     id="path105" />
  <path
     fill="#cfe2f3"
     d="m 172.20407,215.00393 c 2.31241,0 4.187,-1.87457 4.187,-4.18701 h -4.187 c 1.1562,0 2.09349,-0.93729 2.09349,-2.09348 0,-1.15622 -0.93729,-2.0935 -2.09349,-2.0935 h 4.187 v -54.43112 0 c 0,-2.31241 1.87458,-4.18701 4.18701,-4.18701 h 68.5748 c 2.31244,0 4.18701,1.8746 4.18701,4.18701 0,2.31244 -1.87457,4.18701 -4.18701,4.18701 h -4.18701 v 54.43109 c 0,2.31244 -1.87458,4.18701 -4.18702,4.18701 z m 12.56102,-62.80512 v 0 c 0,2.31244 -1.87459,4.18702 -4.18701,4.18702 -1.15621,0 -2.09351,-0.93729 -2.09351,-2.09351 0,-1.15622 0.9373,-2.09351 2.09351,-2.09351 z"
     fill-rule="evenodd"
     id="path107" />
  <path
     fill="#a5b4c2"
     d="m 184.76509,152.19881 v 0 c 0,2.31244 -1.87459,4.18701 -4.18701,4.18701 -1.15621,0 -2.09351,-0.93728 -2.09351,-2.0935 0,-1.15622 0.9373,-2.09351 2.09351,-2.09351 z m -8.37402,58.6181 c 0,2.31244 -1.87459,4.18701 -4.187,4.18701 -2.31242,0 -4.18701,-1.87457 -4.18701,-4.18701 0,-2.31241 1.87459,-4.18698 4.18701,-4.18698 v 0 c 1.1562,0 2.09349,0.93729 2.09349,2.09351 0,1.15619 -0.93729,2.09347 -2.09349,2.09347 z"
     fill-rule="evenodd"
     id="path109" />
  <path
     fill="#000000"
     fill-opacity="0"
     d="m 176.39107,206.62993 v -54.43112 0 c 0,-2.31241 1.87459,-4.18701 4.18701,-4.18701 h 68.5748 c 2.31244,0 4.18701,1.8746 4.18701,4.18701 0,2.31244 -1.87457,4.18701 -4.18701,4.18701 h -4.18701 v 54.43109 c 0,2.31244 -1.87457,4.18701 -4.18701,4.18701 h -68.57478 c -2.31243,0 -4.18701,-1.87457 -4.18701,-4.18701 0,-2.31241 1.87458,-4.18698 4.18701,-4.18698 z m 4.18701,-58.61813 v 0 c 2.31243,0 4.18701,1.8746 4.18701,4.18701 0,2.31244 -1.87458,4.18701 -4.18701,4.18701 -1.1562,0 -2.0935,-0.93729 -2.0935,-2.09351 0,-1.15622 0.9373,-2.0935 2.0935,-2.0935 h 4.18701 m 60.20078,4.18701 h -64.38779 m -8.37401,50.24411 v 0 c 1.1562,0 2.09349,0.93729 2.09349,2.09351 0,1.15618 -0.93729,2.09347 -2.09349,2.09347 h 4.187 m -4.187,4.18701 c 2.31241,0 4.187,-1.87457 4.187,-4.18701 v -4.18698"
     fill-rule="evenodd"
     id="path111" />
  <path
     stroke="#000000"
     stroke-width="1"
     stroke-linejoin="round"
     stroke-linecap="butt"
     d="m 176.39107,206.62993 v -54.43112 0 c 0,-2.31241 1.87459,-4.18701 4.18701,-4.18701 h 68.5748 c 2.31244,0 4.18701,1.8746 4.18701,4.18701 0,2.31244 -1.87457,4.18701 -4.18701,4.18701 h -4.18701 v 54.43109 c 0,2.31244 -1.87457,4.18701 -4.18701,4.18701 h -68.57478 c -2.31243,0 -4.18701,-1.87457 -4.18701,-4.18701 0,-2.31241 1.87458,-4.18698 4.18701,-4.18698 z m 4.18701,-58.61813 v 0 c 2.31243,0 4.18701,1.8746 4.18701,4.18701 0,2.31244 -1.87458,4.18701 -4.18701,4.18701 -1.1562,0 -2.0935,-0.93729 -2.0935,-2.09351 0,-1.15622 0.9373,-2.0935 2.0935,-2.0935 h 4.18701 m 60.20078,4.18701 h -64.38779 m -8.37401,50.24411 v 0 c 1.1562,0 2.09349,0.93729 2.09349,2.09351 0,1.15618 -0.93729,2.09347 -2.09349,2.09347 h 4.187 m -4.187,4.18701 c 2.31241,0 4.187,-1.87457 4.187,-4.18701 v -4.18698"
     fill-rule="evenodd"
     id="path113" />
  <path
     fill="#000000"
     d="m 196.75355,190.52138 v -8.40625 h -1.45313 v -1.26563 h 1.45313 v -1.03125 q 0,-0.96875 0.17187,-1.45312 0.23438,-0.64063 0.82813,-1.03125 0.59375,-0.39063 1.67187,-0.39063 0.6875,0 1.53125,0.15625 l -0.25,1.4375 q -0.5,-0.0937 -0.95312,-0.0937 -0.75,0 -1.0625,0.32813 -0.3125,0.3125 -0.3125,1.1875 v 0.89062 h 1.89062 v 1.26563 h -1.89062 v 8.40625 z m 4.18332,-4.84375 q 0,-2.6875 1.48437,-3.96875 1.25,-1.07813 3.04688,-1.07813 2,0 3.26562,1.3125 1.26563,1.29688 1.26563,3.60938 0,1.85937 -0.5625,2.9375 -0.5625,1.0625 -1.64063,1.65625 -1.0625,0.59375 -2.32812,0.59375 -2.03125,0 -3.28125,-1.29688 -1.25,-1.3125 -1.25,-3.76562 z m 1.6875,0 q 0,1.85937 0.79687,2.79687 0.8125,0.92188 2.04688,0.92188 1.21875,0 2.03125,-0.92188 0.8125,-0.9375 0.8125,-2.84375 0,-1.79687 -0.8125,-2.71875 -0.8125,-0.92187 -2.03125,-0.92187 -1.23438,0 -2.04688,0.92187 -0.79687,0.90625 -0.79687,2.76563 z m 9.28195,4.84375 v -9.67188 h 1.46875 v 1.46875 q 0.5625,-1.03125 1.03125,-1.35937 0.48438,-0.32813 1.0625,-0.32813 0.82813,0 1.6875,0.53125 l -0.5625,1.51563 q -0.60937,-0.35938 -1.20312,-0.35938 -0.54688,0 -0.96875,0.32813 -0.42188,0.32812 -0.60938,0.89062 -0.28125,0.875 -0.28125,1.92188 v 5.0625 z m 6.2283,0 V 177.162 h 1.64063 v 7.625 l 3.89062,-3.9375 h 2.10938 l -3.6875,3.59375 4.0625,6.07813 h -2.01563 l -3.20312,-4.95313 -1.15625,1.125 v 3.82813 z"
     fill-rule="nonzero"
     id="path115" />
  <path
     fill="#000000"
     fill-opacity="0"
     d="m 244.96586,181.50786 47.24411,-33.92123"
     fill-rule="evenodd"
     id="path117" />
  <path
     stroke="#000000"
     stroke-width="1"
     stroke-linejoin="round"
     stroke-linecap="butt"
     d="m 244.96586,181.50786 42.3703,-30.42184"
     fill-rule="evenodd"
     id="path119" />
  <path
     fill="#000000"
     stroke="#000000"
     stroke-width="1"
     stroke-linecap="butt"
     d="m 288.29948,152.42773 2.72299,-3.98846 -4.64969,1.30505 z"
     fill-rule="evenodd"
     id="path121" />
  <path
     fill="#000000"
     fill-opacity="0"
     d="M 240.06956,3.56824 H 404.69947 V 35.28478 H 240.06956 Z"
     fill-rule="evenodd"
     id="path123" />
  <path
     fill="#000000"
     d="m 273.74095,24.08824 v -5.40625 h -0.9375 v -0.8125 h 0.9375 v -0.67188 q 0,-0.625 0.10937,-0.92187 0.15625,-0.42188 0.53125,-0.67188 0.39063,-0.25 1.07813,-0.25 0.45312,0 0.98437,0.10938 l -0.15625,0.90625 q -0.32812,-0.0469 -0.625,-0.0469 -0.48437,0 -0.6875,0.20313 -0.1875,0.20312 -0.1875,0.76562 v 0.57813 h 1.21875 v 0.8125 h -1.21875 v 5.40625 z m 3.08398,-7.375 v -1.21875 h 1.0625 v 1.21875 z m 0,7.375 v -6.21875 h 1.0625 v 6.21875 z m 2.63477,0 v -8.59375 h 1.0625 v 8.59375 z m 6.72852,0 v -0.78125 q -0.59375,0.92187 -1.73438,0.92187 -0.75,0 -1.375,-0.40625 -0.625,-0.42187 -0.96875,-1.15625 -0.34375,-0.73437 -0.34375,-1.6875 0,-0.92187 0.3125,-1.6875 0.3125,-0.76562 0.9375,-1.15625 0.625,-0.40625 1.39063,-0.40625 0.5625,0 1,0.23438 0.4375,0.23437 0.71875,0.60937 v -3.07812 h 1.04687 v 8.59375 z m -3.32813,-3.10938 q 0,1.20313 0.5,1.79688 0.5,0.57812 1.1875,0.57812 0.6875,0 1.17188,-0.5625 0.48437,-0.5625 0.48437,-1.71875 0,-1.28125 -0.5,-1.875 -0.48437,-0.59375 -1.20312,-0.59375 -0.70313,0 -1.17188,0.57813 -0.46875,0.5625 -0.46875,1.79687 z m 10.2207,1.10938 1.09375,0.125 q -0.25,0.95312 -0.95312,1.48437 -0.70313,0.53125 -1.78125,0.53125 -1.35938,0 -2.17188,-0.84375 -0.79687,-0.84375 -0.79687,-2.35937 0,-1.5625 0.8125,-2.42188 0.8125,-0.875 2.09375,-0.875 1.25,0 2.03125,0.84375 0.79687,0.84375 0.79687,2.39063 0,0.0937 0,0.28125 h -4.64062 q 0.0625,1.03125 0.57812,1.57812 0.51563,0.53125 1.29688,0.53125 0.57812,0 0.98437,-0.29687 0.42188,-0.3125 0.65625,-0.96875 z m -3.45312,-1.70313 h 3.46875 q -0.0625,-0.79687 -0.39063,-1.1875 -0.51562,-0.60937 -1.3125,-0.60937 -0.73437,0 -1.23437,0.48437 -0.48438,0.48438 -0.53125,1.3125 z m 5.45508,1.84375 1.03125,-0.15625 q 0.0937,0.625 0.48437,0.95313 0.40625,0.32812 1.14063,0.32812 0.71875,0 1.0625,-0.28125 0.35937,-0.29687 0.35937,-0.70312 0,-0.35938 -0.3125,-0.5625 -0.21875,-0.14063 -1.07812,-0.35938 -1.15625,-0.29687 -1.60938,-0.5 -0.4375,-0.21875 -0.67187,-0.59375 -0.23438,-0.375 -0.23438,-0.84375 0,-0.40625 0.1875,-0.76562 0.1875,-0.35938 0.51563,-0.59375 0.25,-0.17188 0.67187,-0.29688 0.42188,-0.125 0.92188,-0.125 0.71875,0 1.26562,0.21875 0.5625,0.20313 0.82813,0.5625 0.26562,0.35938 0.35937,0.95313 l -1.03125,0.14062 q -0.0625,-0.46875 -0.40625,-0.73437 -0.32812,-0.28125 -0.95312,-0.28125 -0.71875,0 -1.03125,0.25 -0.3125,0.23437 -0.3125,0.5625 0,0.20312 0.125,0.35937 0.14062,0.17188 0.40625,0.28125 0.15625,0.0625 0.9375,0.26563 1.125,0.3125 1.5625,0.5 0.4375,0.1875 0.6875,0.54687 0.25,0.35938 0.25,0.90625 0,0.53125 -0.3125,1 -0.29688,0.45313 -0.875,0.71875 -0.57813,0.25 -1.3125,0.25 -1.21875,0 -1.85938,-0.5 -0.625,-0.51562 -0.79687,-1.5 z m 6.4375,4.25 V 15.49449 h 2.32812 v 0.875 h -1.26562 v 9.23437 h 1.26562 v 0.875 z m 6.99023,-2.39062 h -1.04687 v -6.71875 q -0.39063,0.35937 -1.01563,0.73437 -0.60937,0.35938 -1.09375,0.53125 v -1.01562 q 0.875,-0.42188 1.53125,-1 0.67188,-0.59375 0.95313,-1.15625 h 0.67187 z m 4.76758,2.39062 h -2.32813 v -0.875 h 1.26563 v -9.23437 h -1.26563 v -0.875 h 2.32813 z m 18.48828,-2.39062 v -5.40625 h -0.9375 v -0.8125 h 0.9375 v -0.67188 q 0,-0.625 0.10937,-0.92187 0.15625,-0.42188 0.53125,-0.67188 0.39063,-0.25 1.07813,-0.25 0.45312,0 0.98437,0.10938 l -0.15625,0.90625 q -0.32812,-0.0469 -0.625,-0.0469 -0.48437,0 -0.6875,0.20313 -0.1875,0.20312 -0.1875,0.76562 v 0.57813 h 1.21875 v 0.8125 h -1.21875 v 5.40625 z m 3.08398,-7.375 v -1.21875 h 1.0625 v 1.21875 z m 0,7.375 v -6.21875 h 1.0625 v 6.21875 z m 2.63477,0 v -8.59375 h 1.0625 v 8.59375 z m 6.72852,0 v -0.78125 q -0.59375,0.92187 -1.73438,0.92187 -0.75,0 -1.375,-0.40625 -0.625,-0.42187 -0.96875,-1.15625 -0.34375,-0.73437 -0.34375,-1.6875 0,-0.92187 0.3125,-1.6875 0.3125,-0.76562 0.9375,-1.15625 0.625,-0.40625 1.39063,-0.40625 0.5625,0 1,0.23438 0.4375,0.23437 0.71875,0.60937 v -3.07812 h 1.04687 v 8.59375 z m -3.32813,-3.10938 q 0,1.20313 0.5,1.79688 0.5,0.57812 1.1875,0.57812 0.6875,0 1.17188,-0.5625 0.48437,-0.5625 0.48437,-1.71875 0,-1.28125 -0.5,-1.875 -0.48437,-0.59375 -1.20312,-0.59375 -0.70313,0 -1.17188,0.57813 -0.46875,0.5625 -0.46875,1.79687 z m 10.2207,1.10938 1.09375,0.125 q -0.25,0.95312 -0.95312,1.48437 -0.70313,0.53125 -1.78125,0.53125 -1.35938,0 -2.17188,-0.84375 -0.79687,-0.84375 -0.79687,-2.35937 0,-1.5625 0.8125,-2.42188 0.8125,-0.875 2.09375,-0.875 1.25,0 2.03125,0.84375 0.79687,0.84375 0.79687,2.39063 0,0.0937 0,0.28125 h -4.64062 q 0.0625,1.03125 0.57812,1.57812 0.51563,0.53125 1.29688,0.53125 0.57812,0 0.98437,-0.29687 0.42188,-0.3125 0.65625,-0.96875 z m -3.45312,-1.70313 h 3.46875 q -0.0625,-0.79687 -0.39063,-1.1875 -0.51562,-0.60937 -1.3125,-0.60937 -0.73437,0 -1.23437,0.48437 -0.48438,0.48438 -0.53125,1.3125 z m 5.45508,1.84375 1.03125,-0.15625 q 0.0937,0.625 0.48437,0.95313 0.40625,0.32812 1.14063,0.32812 0.71875,0 1.0625,-0.28125 0.35937,-0.29687 0.35937,-0.70312 0,-0.35938 -0.3125,-0.5625 -0.21875,-0.14063 -1.07812,-0.35938 -1.15625,-0.29687 -1.60938,-0.5 -0.4375,-0.21875 -0.67187,-0.59375 -0.23438,-0.375 -0.23438,-0.84375 0,-0.40625 0.1875,-0.76562 0.1875,-0.35938 0.51563,-0.59375 0.25,-0.17188 0.67187,-0.29688 0.42188,-0.125 0.92188,-0.125 0.71875,0 1.26562,0.21875 0.5625,0.20313 0.82813,0.5625 0.26562,0.35938 0.35937,0.95313 l -1.03125,0.14062 q -0.0625,-0.46875 -0.40625,-0.73437 -0.32812,-0.28125 -0.95312,-0.28125 -0.71875,0 -1.03125,0.25 -0.3125,0.23437 -0.3125,0.5625 0,0.20312 0.125,0.35937 0.14062,0.17188 0.40625,0.28125 0.15625,0.0625 0.9375,0.26563 1.125,0.3125 1.5625,0.5 0.4375,0.1875 0.6875,0.54687 0.25,0.35938 0.25,0.90625 0,0.53125 -0.3125,1 -0.29688,0.45313 -0.875,0.71875 -0.57813,0.25 -1.3125,0.25 -1.21875,0 -1.85938,-0.5 -0.625,-0.51562 -0.79687,-1.5 z m 6.4375,4.25 V 15.49449 h 2.32812 v 0.875 h -1.26562 v 9.23437 h 1.26562 v 0.875 z m 3.02148,-6.625 q 0,-1.53125 0.3125,-2.45312 0.3125,-0.9375 0.92188,-1.4375 0.625,-0.5 1.5625,-0.5 0.6875,0 1.20312,0.28125 0.53125,0.28125 0.875,0.8125 0.34375,0.51562 0.53125,1.26562 0.18753,0.75 0.18753,2.03125 0,1.51563 -0.31253,2.4375 -0.29687,0.92188 -0.92187,1.4375 -0.60938,0.5 -1.5625,0.5 -1.23438,0 -1.95313,-0.89062 -0.84375,-1.0625 -0.84375,-3.48438 z m 1.07813,0 q 0,2.10938 0.5,2.8125 0.5,0.70313 1.21875,0.70313 0.73437,0 1.21875,-0.70313 0.5,-0.70312 0.5,-2.8125 0,-2.125 -0.5,-2.8125 -0.48438,-0.70312 -1.23438,-0.70312 -0.71875,0 -1.15625,0.60937 -0.54687,0.78125 -0.54687,2.90625 z m 7.65823,6.625 h -2.32813 v -0.875 h 1.26563 v -9.23437 h -1.26563 v -0.875 h 2.32813 z"
     fill-rule="nonzero"
     id="path125" />
</svg>
