<?xml version="1.0" encoding="UTF-8" standalone="no"?>
<svg
   xmlns:dc="http://purl.org/dc/elements/1.1/"
   xmlns:cc="http://creativecommons.org/ns#"
   xmlns:rdf="http://www.w3.org/1999/02/22-rdf-syntax-ns#"
   xmlns:svg="http://www.w3.org/2000/svg"
   xmlns="http://www.w3.org/2000/svg"
   xmlns:sodipodi="http://sodipodi.sourceforge.net/DTD/sodipodi-0.dtd"
   xmlns:inkscape="http://www.inkscape.org/namespaces/inkscape"
   version="1.1"
   viewBox="0 0 751.83728 453.14438"
   fill="none"
   stroke="none"
   stroke-linecap="square"
   stroke-miterlimit="10"
   id="svg137"
   sodipodi:docname="pipe-after-fork.svg"
   width="751.83728"
   height="453.14438"
   inkscape:version="1.0.1 (3bc2e813f5, 2020-09-07)">
  <metadata
     id="metadata143">
    <rdf:RDF>
      <cc:Work
         rdf:about="">
        <dc:format>image/svg+xml</dc:format>
        <dc:type
           rdf:resource="http://purl.org/dc/dcmitype/StillImage" />
      </cc:Work>
    </rdf:RDF>
  </metadata>
  <defs
     id="defs141" />
  <sodipodi:namedview
     pagecolor="#ffffff"
     bordercolor="#666666"
     borderopacity="1"
     objecttolerance="10"
     gridtolerance="10"
     guidetolerance="10"
     inkscape:pageopacity="0"
     inkscape:pageshadow="2"
     inkscape:window-width="1694"
     inkscape:window-height="1009"
     id="namedview139"
     showgrid="false"
     inkscape:zoom="0.75130208"
     inkscape:cx="529.74202"
     inkscape:cy="252.06431"
     inkscape:window-x="3325"
     inkscape:window-y="69"
     inkscape:window-maximized="0"
     inkscape:current-layer="svg137" />
  <clipPath
     id="p.0">
    <path
       d="M 0,0 H 1024 V 768 H 0 Z"
       clip-rule="nonzero"
       id="path2" />
  </clipPath>
  <path
     fill="#000000"
     fill-opacity="0"
     d="M -65.699478,-131.93569 H 958.30052 v 768 H -65.699478 Z"
     fill-rule="evenodd"
     id="path5" />
  <path
     fill="#b6d7a8"
     d="m 250.29265,33.73098 h 144.18896 v 124.7559 H 250.29265 Z"
     fill-rule="evenodd"
     id="path7" />
  <path
     stroke="#000000"
     stroke-width="1"
     stroke-linejoin="round"
     stroke-linecap="butt"
     d="m 250.29265,33.73098 h 144.18896 v 124.7559 H 250.29265 Z"
     fill-rule="evenodd"
     id="path9" />
  <path
     fill="#000000"
     d="m 290.95939,95.73205 v -13.375 h 1.48437 v 1.25 q 0.53125,-0.73438 1.1875,-1.09375 0.67188,-0.375 1.625,-0.375 1.23438,0 2.17188,0.64062 0.95312,0.625 1.4375,1.79688 0.48437,1.15625 0.48437,2.54687 0,1.48438 -0.53125,2.67188 -0.53125,1.1875 -1.54687,1.82812 -1.01563,0.625 -2.14063,0.625 -0.8125,0 -1.46875,-0.34375 -0.65625,-0.34375 -1.0625,-0.875 v 4.70313 z m 1.48437,-8.48438 q 0,1.85938 0.75,2.76563 0.76563,0.89062 1.82813,0.89062 1.09375,0 1.875,-0.92187 0.78125,-0.9375 0.78125,-2.875 0,-1.84375 -0.76563,-2.76563 -0.75,-0.92187 -1.8125,-0.92187 -1.04687,0 -1.85937,0.98437 -0.79688,0.96875 -0.79688,2.84375 z m 8.87574,4.78125 v -9.67187 h 1.46875 v 1.46875 q 0.5625,-1.03125 1.03125,-1.35938 0.48437,-0.32812 1.0625,-0.32812 0.82812,0 1.6875,0.53125 l -0.5625,1.51562 q -0.60938,-0.35937 -1.20313,-0.35937 -0.54687,0 -0.96875,0.32812 -0.42187,0.32813 -0.60937,0.89063 -0.28125,0.875 -0.28125,1.92187 v 5.0625 z m 5.61892,-4.84375 q 0,-2.6875 1.48438,-3.96875 1.25,-1.07812 3.04687,-1.07812 2,0 3.26563,1.3125 1.26562,1.29687 1.26562,3.60937 0,1.85938 -0.5625,2.9375 -0.5625,1.0625 -1.64062,1.65625 -1.0625,0.59375 -2.32813,0.59375 -2.03125,0 -3.28125,-1.29687 -1.25,-1.3125 -1.25,-3.76563 z m 1.6875,0 q 0,1.85938 0.79688,2.79688 0.8125,0.92187 2.04687,0.92187 1.21875,0 2.03125,-0.92187 0.8125,-0.9375 0.8125,-2.84375 0,-1.79688 -0.8125,-2.71875 -0.8125,-0.92188 -2.03125,-0.92188 -1.23437,0 -2.04687,0.92188 -0.79688,0.90625 -0.79688,2.76562 z m 15.61008,1.29688 1.60938,0.21875 q -0.26563,1.65625 -1.35938,2.60937 -1.07812,0.9375 -2.67187,0.9375 -1.98438,0 -3.1875,-1.29687 -1.20313,-1.29688 -1.20313,-3.71875 0,-1.57813 0.51563,-2.75 0.51562,-1.17188 1.57812,-1.75 1.0625,-0.59375 2.3125,-0.59375 1.57813,0 2.57813,0.79687 1,0.79688 1.28125,2.26563 l -1.59375,0.23437 q -0.23438,-0.96875 -0.8125,-1.45312 -0.57813,-0.5 -1.39063,-0.5 -1.23437,0 -2.01562,0.89062 -0.78125,0.89063 -0.78125,2.8125 0,1.95313 0.75,2.84375 0.75,0.875 1.95312,0.875 0.96875,0 1.60938,-0.59375 0.65625,-0.59375 0.82812,-1.82812 z m 9.64063,0.4375 1.6875,0.20312 q -0.40625,1.48438 -1.48438,2.3125 -1.07812,0.8125 -2.76562,0.8125 -2.125,0 -3.375,-1.29687 -1.23438,-1.3125 -1.23438,-3.67188 0,-2.45312 1.25,-3.79687 1.26563,-1.34375 3.26563,-1.34375 1.9375,0 3.15625,1.32812 1.23437,1.3125 1.23437,3.70313 0,0.15625 0,0.4375 h -7.21875 q 0.0937,1.59375 0.90625,2.45312 0.8125,0.84375 2.01563,0.84375 0.90625,0 1.54687,-0.46875 0.64063,-0.48437 1.01563,-1.51562 z M 328.486,86.2633 h 5.40625 q -0.10937,-1.21875 -0.625,-1.82813 -0.78125,-0.95312 -2.03125,-0.95312 -1.125,0 -1.90625,0.76562 -0.76562,0.75 -0.84375,2.01563 z m 8.48511,2.875 1.625,-0.25 q 0.125,0.96875 0.75,1.5 0.625,0.51562 1.75,0.51562 1.125,0 1.67187,-0.45312 0.54688,-0.46875 0.54688,-1.09375 0,-0.54688 -0.48438,-0.875 -0.32812,-0.21875 -1.67187,-0.54688 -1.8125,-0.46875 -2.51563,-0.79687 -0.6875,-0.32813 -1.04687,-0.90625 -0.35938,-0.59375 -0.35938,-1.3125 0,-0.64063 0.29688,-1.1875 0.29687,-0.5625 0.8125,-0.92188 0.375,-0.28125 1.03125,-0.46875 0.67187,-0.20312 1.42187,-0.20312 1.14063,0 2,0.32812 0.85938,0.32813 1.26563,0.89063 0.42187,0.5625 0.57812,1.5 l -1.60937,0.21875 q -0.10938,-0.75 -0.64063,-1.17188 -0.51562,-0.42187 -1.46875,-0.42187 -1.14062,0 -1.625,0.375 -0.46875,0.375 -0.46875,0.875 0,0.3125 0.1875,0.57812 0.20313,0.26563 0.64063,0.4375 0.23437,0.0937 1.4375,0.42188 1.75,0.45312 2.4375,0.75 0.6875,0.29687 1.07812,0.85937 0.39063,0.5625 0.39063,1.40625 0,0.82813 -0.48438,1.54688 -0.46875,0.71875 -1.375,1.125 -0.90625,0.39062 -2.04687,0.39062 -1.875,0 -2.875,-0.78125 -0.98438,-0.78125 -1.25,-2.32812 z m 9.32812,0 1.625,-0.25 q 0.125,0.96875 0.75,1.5 0.625,0.51562 1.75,0.51562 1.125,0 1.67188,-0.45312 0.54687,-0.46875 0.54687,-1.09375 0,-0.54688 -0.48437,-0.875 -0.32813,-0.21875 -1.67188,-0.54688 -1.8125,-0.46875 -2.51562,-0.79687 -0.6875,-0.32813 -1.04688,-0.90625 -0.35937,-0.59375 -0.35937,-1.3125 0,-0.64063 0.29687,-1.1875 0.29688,-0.5625 0.8125,-0.92188 0.375,-0.28125 1.03125,-0.46875 0.67188,-0.20312 1.42188,-0.20312 1.14062,0 2,0.32812 0.85937,0.32813 1.26562,0.89063 0.42188,0.5625 0.57813,1.5 l -1.60938,0.21875 q -0.10937,-0.75 -0.64062,-1.17188 -0.51563,-0.42187 -1.46875,-0.42187 -1.14063,0 -1.625,0.375 -0.46875,0.375 -0.46875,0.875 0,0.3125 0.1875,0.57812 0.20312,0.26563 0.64062,0.4375 0.23438,0.0937 1.4375,0.42188 1.75,0.45312 2.4375,0.75 0.6875,0.29687 1.07813,0.85937 0.39062,0.5625 0.39062,1.40625 0,0.82813 -0.48437,1.54688 -0.46875,0.71875 -1.375,1.125 -0.90625,0.39062 -2.04688,0.39062 -1.875,0 -2.875,-0.78125 -0.98437,-0.78125 -1.25,-2.32812 z"
     fill-rule="nonzero"
     id="path11" />
  <path
     fill="#000000"
     d="m 316.13412,114.02892 5.125,-13.35938 h 1.90625 l 5.46875,13.35938 h -2.01563 l -1.54687,-4.04688 h -5.59375 l -1.46875,4.04688 z m 3.85937,-5.48438 h 4.53125 l -1.40625,-3.70312 q -0.625,-1.6875 -0.9375,-2.76563 -0.26562,1.28125 -0.71875,2.54688 z"
     fill-rule="nonzero"
     id="path13" />
  <path
     fill="#f6b26b"
     d="m 250.29265,33.73098 v -10.42523 0 c 0,-11.75887 9.53244,-21.29131 21.29132,-21.29131 h 97.64178 c 5.64679,0 11.06232,2.24318 15.05524,6.23609 3.99289,3.99289 6.23606,9.40841 6.23606,15.05522 v 0 h 3.96456 l -7.9291,10.42523 -7.92914,-10.42523 h 3.96457 v 0 0 c 0,-7.37973 -5.98245,-13.36217 -13.36219,-13.36217 h -97.64178 v 0 c -7.37973,0 -13.36218,5.98244 -13.36218,13.36217 v 10.42523 z"
     fill-rule="evenodd"
     id="path15" />
  <path
     stroke="#000000"
     stroke-width="1"
     stroke-linejoin="round"
     stroke-linecap="butt"
     d="m 250.29265,33.73098 v -10.42523 0 c 0,-11.75887 9.53244,-21.29131 21.29132,-21.29131 h 97.64178 c 5.64679,0 11.06232,2.24318 15.05524,6.23609 3.99289,3.99289 6.23606,9.40841 6.23606,15.05522 v 0 h 3.96456 l -7.9291,10.42523 -7.92914,-10.42523 h 3.96457 v 0 0 c 0,-7.37973 -5.98245,-13.36217 -13.36219,-13.36217 h -97.64178 v 0 c -7.37973,0 -13.36218,5.98244 -13.36218,13.36217 v 10.42523 z"
     fill-rule="evenodd"
     id="path17" />
  <path
     fill="#fff2cc"
     d="m 554.34512,158.48426 c 5.45325,0 9.87402,-4.42075 9.87402,-9.87402 h -9.87402 c 2.72662,0 4.93701,-2.21036 4.93701,-4.93701 0,-2.72663 -2.21039,-4.93702 -4.93701,-4.93702 h 9.87402 v -128.3622 0 c 0,-5.45326 4.42072,-9.874 9.87403,-9.874 h 167.37006 c 5.4533,0 9.87402,4.42074 9.87402,9.874 0,5.45328 -4.42072,9.87403 -9.87402,9.87403 h -9.87403 v 128.3622 c 0,5.45327 -4.42071,9.87402 -9.87402,9.87402 z M 583.96719,10.37402 v 0 c 0,5.45328 -4.42078,9.87402 -9.87402,9.87402 -2.72663,0 -4.93701,-2.21037 -4.93701,-4.93701 0,-2.72664 2.21038,-4.93701 4.93701,-4.93701 z"
     fill-rule="evenodd"
     id="path19" />
  <path
     fill="#cbc1a3"
     d="m 583.96722,10.37402 v 0 c 0,5.45328 -4.42078,9.87402 -9.87402,9.87402 -2.72663,0 -4.93701,-2.21037 -4.93701,-4.93701 0,-2.72664 2.21038,-4.93701 4.93701,-4.93701 z m -19.74805,138.23622 c 0,5.45328 -4.42077,9.87402 -9.87402,9.87402 -5.45325,0 -9.87402,-4.42074 -9.87402,-9.87402 0,-5.45328 4.42077,-9.87402 9.87402,-9.87402 v 0 c 2.72662,0 4.93701,2.21039 4.93701,4.93701 0,2.72665 -2.21039,4.93701 -4.93701,4.93701 z"
     fill-rule="evenodd"
     id="path21" />
  <path
     fill="#000000"
     fill-opacity="0"
     d="m 564.21916,138.73621 v -128.3622 0 c 0,-5.45326 4.42072,-9.87401 9.87402,-9.87401 h 167.37006 c 5.45331,0 9.87403,4.42075 9.87403,9.87401 0,5.45328 -4.42072,9.87402 -9.87403,9.87402 h -9.87402 v 128.3622 c 0,5.45328 -4.42072,9.87403 -9.87402,9.87403 H 554.34514 c -5.45325,0 -9.87403,-4.42075 -9.87403,-9.87403 0,-5.45327 4.42078,-9.87402 9.87403,-9.87402 z m 9.87402,-138.2362 v 0 c 5.45325,0 9.87403,4.42075 9.87403,9.87401 0,5.45328 -4.42078,9.87402 -9.87403,9.87402 -2.72662,0 -4.93701,-2.21037 -4.93701,-4.93701 0,-2.72664 2.21039,-4.93701 4.93701,-4.93701 h 9.87403 m 147.62201,9.87402 H 574.09319 m -19.74805,118.48817 v 0 c 2.72662,0 4.93701,2.21039 4.93701,4.93702 0,2.72665 -2.21039,4.93701 -4.93701,4.93701 h 9.87402 m -9.87402,9.87402 c 5.45325,0 9.87402,-4.42074 9.87402,-9.87402 v -9.87402"
     fill-rule="evenodd"
     id="path23" />
  <path
     stroke="#000000"
     stroke-width="1"
     stroke-linejoin="round"
     stroke-linecap="butt"
     d="m 564.21916,138.73621 v -128.3622 0 c 0,-5.45326 4.42072,-9.87401 9.87402,-9.87401 h 167.37006 c 5.45331,0 9.87403,4.42075 9.87403,9.87401 0,5.45328 -4.42072,9.87402 -9.87403,9.87402 h -9.87402 v 128.3622 c 0,5.45328 -4.42072,9.87403 -9.87402,9.87403 H 554.34514 c -5.45325,0 -9.87403,-4.42075 -9.87403,-9.87403 0,-5.45327 4.42078,-9.87402 9.87403,-9.87402 z m 9.87402,-138.2362 v 0 c 5.45325,0 9.87403,4.42075 9.87403,9.87401 0,5.45328 -4.42078,9.87402 -9.87403,9.87402 -2.72662,0 -4.93701,-2.21037 -4.93701,-4.93701 0,-2.72664 2.21039,-4.93701 4.93701,-4.93701 h 9.87403 m 147.62201,9.87402 H 574.09319 m -19.74805,118.48817 v 0 c 2.72662,0 4.93701,2.21039 4.93701,4.93702 0,2.72665 -2.21039,4.93701 -4.93701,4.93701 h 9.87402 m -9.87402,9.87402 c 5.45325,0 9.87402,-4.42074 9.87402,-9.87402 v -9.87402"
     fill-rule="evenodd"
     id="path25" />
  <path
     fill="#000000"
     d="M 578.62652,47.34913 V 33.98975 h 1.64063 v 4.79688 q 1.14062,-1.32813 2.89062,-1.32813 1.07813,0 1.85938,0.42188 0.79687,0.42187 1.14062,1.17187 0.34375,0.75 0.34375,2.17188 v 6.125 h -1.64062 v -6.125 q 0,-1.23438 -0.53125,-1.79688 -0.53125,-0.5625 -1.51563,-0.5625 -0.71875,0 -1.35937,0.39063 -0.64063,0.375 -0.92188,1.01562 -0.26562,0.64063 -0.26562,1.78125 v 5.29688 z m 16.68823,-1.1875 q -0.92187,0.76562 -1.76562,1.09375 -0.82813,0.3125 -1.79688,0.3125 -1.59375,0 -2.45312,-0.78125 -0.85938,-0.78125 -0.85938,-1.98438 0,-0.71875 0.32813,-1.29687 0.32812,-0.59375 0.84375,-0.9375 0.53125,-0.35938 1.1875,-0.54688 0.46875,-0.125 1.45312,-0.25 1.98438,-0.23437 2.92188,-0.5625 0.0156,-0.34375 0.0156,-0.42187 0,-1 -0.46875,-1.42188 -0.625,-0.54687 -1.875,-0.54687 -1.15625,0 -1.70312,0.40625 -0.54688,0.40625 -0.8125,1.42187 l -1.60938,-0.21875 q 0.21875,-1.01562 0.71875,-1.64062 0.5,-0.64063 1.45313,-0.98438 0.95312,-0.34375 2.1875,-0.34375 1.25,0 2.01562,0.29688 0.78125,0.28125 1.14063,0.73437 0.375,0.4375 0.51562,1.10938 0.0781,0.42187 0.0781,1.51562 v 2.1875 q 0,2.28125 0.10937,2.89063 0.10938,0.59375 0.40625,1.15625 h -1.70312 q -0.26563,-0.51563 -0.32813,-1.1875 z m -0.14062,-3.67188 q -0.89063,0.375 -2.67188,0.625 -1.01562,0.14063 -1.4375,0.32813 -0.42187,0.1875 -0.65625,0.53125 -0.21875,0.34375 -0.21875,0.78125 0,0.65625 0.5,1.09375 0.5,0.4375 1.45313,0.4375 0.9375,0 1.67187,-0.40625 0.75,-0.42188 1.09375,-1.14063 0.26563,-0.5625 0.26563,-1.64062 z m 4.15692,4.85938 V 33.98975 h 1.64062 v 13.35938 z m 4.58233,0 v -8.40625 h -1.45312 v -1.26563 h 1.45312 V 36.646 q 0,-0.96875 0.17188,-1.45312 0.23437,-0.64063 0.82812,-1.03125 0.59375,-0.39063 1.67188,-0.39063 0.6875,0 1.53125,0.15625 l -0.25,1.4375 q -0.5,-0.0937 -0.95313,-0.0937 -0.75,0 -1.0625,0.32813 -0.3125,0.3125 -0.3125,1.1875 v 0.89062 h 1.89063 v 1.26563 h -1.89063 v 8.40625 z m 4.15204,-4.01563 v -1.64062 h 5.03125 v 1.64062 z m 13.11896,4.01563 v -1.21875 q -0.90625,1.4375 -2.70312,1.4375 -1.15625,0 -2.125,-0.64063 -0.96875,-0.64062 -1.5,-1.78125 -0.53125,-1.14062 -0.53125,-2.625 0,-1.45312 0.48437,-2.625 0.48438,-1.1875 1.4375,-1.8125 0.96875,-0.625 2.17188,-0.625 0.875,0 1.54687,0.375 0.6875,0.35938 1.10938,0.95313 v -4.79688 h 1.64062 V 47.34913 Z M 616.01251,42.521 q 0,1.85938 0.78125,2.78125 0.78125,0.92188 1.84375,0.92188 1.07812,0 1.82812,-0.875 0.75,-0.89063 0.75,-2.6875 0,-1.98438 -0.76562,-2.90625 -0.76563,-0.9375 -1.89063,-0.9375 -1.07812,0 -1.8125,0.89062 -0.73437,0.89063 -0.73437,2.8125 z m 15.6101,4.82813 v -1.42188 q -1.125,1.64063 -3.0625,1.64063 -0.85937,0 -1.60937,-0.32813 -0.73438,-0.32812 -1.09375,-0.82812 -0.35938,-0.5 -0.5,-1.21875 -0.10938,-0.46875 -0.10938,-1.53125 v -5.98438 h 1.64063 v 5.35938 q 0,1.28125 0.10937,1.73437 0.15625,0.64063 0.65625,1.01563 0.5,0.375 1.23438,0.375 0.73437,0 1.375,-0.375 0.65625,-0.39063 0.92187,-1.03125 0.26563,-0.65625 0.26563,-1.89063 v -5.1875 h 1.64062 v 9.67188 z m 4.04755,3.70312 v -13.375 h 1.48437 v 1.25 q 0.53125,-0.73437 1.1875,-1.09375 0.67188,-0.375 1.625,-0.375 1.23438,0 2.17188,0.64063 0.95312,0.625 1.4375,1.79687 0.48437,1.15625 0.48437,2.54688 0,1.48437 -0.53125,2.67187 -0.53125,1.1875 -1.54687,1.82813 -1.01563,0.625 -2.14063,0.625 -0.8125,0 -1.46875,-0.34375 -0.65625,-0.34375 -1.0625,-0.875 v 4.70312 z m 1.48437,-8.48437 q 0,1.85937 0.75,2.76562 0.76563,0.89063 1.82813,0.89063 1.09375,0 1.875,-0.92188 0.78125,-0.9375 0.78125,-2.875 0,-1.84375 -0.76563,-2.76562 -0.75,-0.92188 -1.8125,-0.92188 -1.04687,0 -1.85937,0.98438 -0.79688,0.96875 -0.79688,2.84375 z m 8.84449,4.78125 V 33.98975 h 1.64062 v 13.35938 z m 10.81671,-3.10938 1.6875,0.20313 q -0.40625,1.48437 -1.48438,2.3125 -1.07812,0.8125 -2.76562,0.8125 -2.125,0 -3.375,-1.29688 -1.23438,-1.3125 -1.23438,-3.67187 0,-2.45313 1.25,-3.79688 1.26563,-1.34375 3.26563,-1.34375 1.9375,0 3.15625,1.32813 1.23437,1.3125 1.23437,3.70312 0,0.15625 0,0.4375 h -7.21875 q 0.0937,1.59375 0.90625,2.45313 0.8125,0.84375 2.01563,0.84375 0.90625,0 1.54687,-0.46875 0.64063,-0.48438 1.01563,-1.51563 z M 651.4251,41.5835 h 5.40625 q -0.10937,-1.21875 -0.625,-1.82812 -0.78125,-0.95313 -2.03125,-0.95313 -1.125,0 -1.90625,0.76563 -0.76562,0.75 -0.84375,2.01562 z m 8.04761,5.76563 3.53125,-5.03125 -3.26563,-4.64063 h 2.04688 l 1.48437,2.26563 q 0.42188,0.64062 0.67188,1.07812 0.40625,-0.59375 0.73437,-1.0625 l 1.64063,-2.28125 h 1.95312 l -3.34375,4.54688 3.59375,5.125 h -2.01562 l -1.98438,-3 -0.51562,-0.8125 -2.54688,3.8125 z m 24.57391,-13.35938 h 1.76563 v 7.71875 q 0,2.01563 -0.45313,3.20313 -0.45312,1.1875 -1.64062,1.9375 -1.1875,0.73437 -3.125,0.73437 -1.875,0 -3.07813,-0.64062 -1.1875,-0.65625 -1.70312,-1.875 -0.5,-1.23438 -0.5,-3.35938 v -7.71875 h 1.76562 v 7.71875 q 0,1.73438 0.3125,2.5625 0.32813,0.8125 1.10938,1.26563 0.79687,0.45312 1.9375,0.45312 1.95312,0 2.78125,-0.89062 0.82812,-0.89063 0.82812,-3.39063 z m 4.69171,13.35938 V 33.98975 h 1.8125 l 7.01563,10.48438 V 33.98975 h 1.6875 v 13.35938 h -1.8125 l -7.01563,-10.5 v 10.5 z m 13.7854,0 V 33.98975 h 1.76563 v 13.35938 z m 3.5271,0 5.17188,-6.95313 -4.5625,-6.40625 h 2.10937 l 2.42188,3.4375 q 0.75,1.0625 1.07812,1.625 0.4375,-0.71875 1.04688,-1.51562 l 2.6875,-3.54688 h 1.92187 l -4.6875,6.29688 5.0625,7.0625 h -2.1875 l -3.35937,-4.76563 q -0.28125,-0.40625 -0.59375,-0.89062 -0.4375,0.73437 -0.625,1 l -3.35938,4.65625 z"
     fill-rule="nonzero"
     id="path27" />
  <path
     fill="#000000"
     d="m 631.50262,73.05226 v -13.375 h 1.48437 v 1.25 q 0.53125,-0.73438 1.1875,-1.09375 0.67188,-0.375 1.625,-0.375 1.23438,0 2.17188,0.64062 0.95312,0.625 1.4375,1.79688 0.48437,1.15625 0.48437,2.54687 0,1.48438 -0.53125,2.67188 -0.53125,1.1875 -1.54687,1.82812 -1.01563,0.625 -2.14063,0.625 -0.8125,0 -1.46875,-0.34375 -0.65625,-0.34375 -1.0625,-0.875 v 4.70313 z m 1.48437,-8.48438 q 0,1.85938 0.75,2.76563 0.76563,0.89062 1.82813,0.89062 1.09375,0 1.875,-0.92187 0.78125,-0.9375 0.78125,-2.875 0,-1.84375 -0.76563,-2.76563 -0.75,-0.92187 -1.8125,-0.92187 -1.04687,0 -1.85937,0.98437 -0.79688,0.96875 -0.79688,2.84375 z m 8.8913,-6.6875 v -1.89062 h 1.64063 v 1.89062 z m 0,11.46875 v -9.67187 h 1.64063 v 9.67187 z m 4.14484,3.70313 v -13.375 h 1.48437 v 1.25 q 0.53125,-0.73438 1.1875,-1.09375 0.67188,-0.375 1.625,-0.375 1.23438,0 2.17188,0.64062 0.95312,0.625 1.4375,1.79688 0.48437,1.15625 0.48437,2.54687 0,1.48438 -0.53125,2.67188 -0.53125,1.1875 -1.54687,1.82812 -1.01563,0.625 -2.14063,0.625 -0.8125,0 -1.46875,-0.34375 -0.65625,-0.34375 -1.0625,-0.875 v 4.70313 z m 1.48437,-8.48438 q 0,1.85938 0.75,2.76563 0.76563,0.89062 1.82813,0.89062 1.09375,0 1.875,-0.92187 0.78125,-0.9375 0.78125,-2.875 0,-1.84375 -0.76563,-2.76563 -0.75,-0.92187 -1.8125,-0.92187 -1.04687,0 -1.85937,0.98437 -0.79688,0.96875 -0.79688,2.84375 z m 15.51636,1.67188 1.6875,0.20312 q -0.40625,1.48438 -1.48438,2.3125 -1.07812,0.8125 -2.76562,0.8125 -2.125,0 -3.375,-1.29687 -1.23438,-1.3125 -1.23438,-3.67188 0,-2.45312 1.25,-3.79687 1.26563,-1.34375 3.26563,-1.34375 1.9375,0 3.15625,1.32812 1.23437,1.3125 1.23437,3.70313 0,0.15625 0,0.4375 h -7.21875 q 0.0937,1.59375 0.90625,2.45312 0.8125,0.84375 2.01563,0.84375 0.90625,0 1.54687,-0.46875 0.64063,-0.48437 1.01563,-1.51562 z m -5.39063,-2.65625 h 5.40625 q -0.10937,-1.21875 -0.625,-1.82813 -0.78125,-0.95312 -2.03125,-0.95312 -1.125,0 -1.90625,0.76562 -0.76562,0.75 -0.84375,2.01563 z"
     fill-rule="nonzero"
     id="path29" />
  <path
     fill="#000000"
     d="m 593.22412,87.80227 1.60937,0.21875 q -0.26562,1.65625 -1.35937,2.60937 -1.07813,0.9375 -2.67188,0.9375 -1.98437,0 -3.1875,-1.29687 -1.20312,-1.29688 -1.20312,-3.71875 0,-1.57813 0.51562,-2.75 0.51563,-1.17188 1.57813,-1.75 1.0625,-0.59375 2.3125,-0.59375 1.57812,0 2.57812,0.79687 1,0.79688 1.28125,2.26563 l -1.59375,0.23437 q -0.23437,-0.96875 -0.8125,-1.45312 -0.57812,-0.5 -1.39062,-0.5 -1.23438,0 -2.01563,0.89062 -0.78125,0.89063 -0.78125,2.8125 0,1.95313 0.75,2.84375 0.75,0.875 1.95313,0.875 0.96875,0 1.60937,-0.59375 0.65625,-0.59375 0.82813,-1.82812 z m 2.40625,-1.29688 q 0,-2.6875 1.48437,-3.96875 1.25,-1.07812 3.04688,-1.07812 2,0 3.26562,1.3125 1.26563,1.29687 1.26563,3.60937 0,1.85938 -0.5625,2.9375 -0.5625,1.0625 -1.64063,1.65625 -1.0625,0.59375 -2.32812,0.59375 -2.03125,0 -3.28125,-1.29687 -1.25,-1.3125 -1.25,-3.76563 z m 1.6875,0 q 0,1.85938 0.79687,2.79688 0.8125,0.92187 2.04688,0.92187 1.21875,0 2.03125,-0.92187 0.8125,-0.9375 0.8125,-2.84375 0,-1.79688 -0.8125,-2.71875 -0.8125,-0.92188 -2.03125,-0.92188 -1.23438,0 -2.04688,0.92188 -0.79687,0.90625 -0.79687,2.76562 z m 9.29761,4.84375 v -9.67187 h 1.46875 v 1.375 q 1.0625,-1.59375 3.07812,-1.59375 0.875,0 1.60938,0.3125 0.73437,0.3125 1.09375,0.82812 0.375,0.5 0.51562,1.20313 0.0937,0.45312 0.0937,1.59375 v 5.95312 h -1.64062 v -5.89062 q 0,-1 -0.20313,-1.48438 -0.1875,-0.5 -0.67187,-0.79687 -0.48438,-0.29688 -1.14063,-0.29688 -1.04687,0 -1.8125,0.67188 -0.75,0.65625 -0.75,2.51562 v 5.28125 z m 10.37567,0 v -9.67187 h 1.46875 v 1.375 q 1.0625,-1.59375 3.07812,-1.59375 0.875,0 1.60938,0.3125 0.73437,0.3125 1.09375,0.82812 0.375,0.5 0.51562,1.20313 0.0937,0.45312 0.0937,1.59375 v 5.95312 h -1.64062 v -5.89062 q 0,-1 -0.20313,-1.48438 -0.1875,-0.5 -0.67187,-0.79687 -0.48438,-0.29688 -1.14063,-0.29688 -1.04687,0 -1.8125,0.67188 -0.75,0.65625 -0.75,2.51562 v 5.28125 z m 17.00073,-3.10937 1.6875,0.20312 q -0.40625,1.48438 -1.48438,2.3125 -1.07812,0.8125 -2.76562,0.8125 -2.125,0 -3.375,-1.29687 -1.23438,-1.3125 -1.23438,-3.67188 0,-2.45312 1.25,-3.79687 1.26563,-1.34375 3.26563,-1.34375 1.9375,0 3.15625,1.32812 1.23437,1.3125 1.23437,3.70313 0,0.15625 0,0.4375 h -7.21875 q 0.0937,1.59375 0.90625,2.45312 0.8125,0.84375 2.01563,0.84375 0.90625,0 1.54687,-0.46875 0.64063,-0.48437 1.01563,-1.51562 z m -5.39063,-2.65625 h 5.40625 q -0.10937,-1.21875 -0.625,-1.82813 -0.78125,-0.95312 -2.03125,-0.95312 -1.125,0 -1.90625,0.76562 -0.76562,0.75 -0.84375,2.01563 z m 15.45386,2.21875 1.60938,0.21875 q -0.26563,1.65625 -1.35938,2.60937 -1.07812,0.9375 -2.67187,0.9375 -1.98438,0 -3.1875,-1.29687 -1.20313,-1.29688 -1.20313,-3.71875 0,-1.57813 0.51563,-2.75 0.51562,-1.17188 1.57812,-1.75 1.0625,-0.59375 2.3125,-0.59375 1.57813,0 2.57813,0.79687 1,0.79688 1.28125,2.26563 l -1.59375,0.23437 q -0.23438,-0.96875 -0.8125,-1.45312 -0.57813,-0.5 -1.39063,-0.5 -1.23437,0 -2.01562,0.89062 -0.78125,0.89063 -0.78125,2.8125 0,1.95313 0.75,2.84375 0.75,0.875 1.95312,0.875 0.96875,0 1.60938,-0.59375 0.65625,-0.59375 0.82812,-1.82812 z m 6.59375,2.07812 0.23438,1.45313 q -0.6875,0.14062 -1.23438,0.14062 -0.89062,0 -1.39062,-0.28125 -0.48438,-0.28125 -0.6875,-0.73437 -0.20313,-0.46875 -0.20313,-1.9375 v -5.57813 h -1.20312 v -1.26562 h 1.20312 v -2.39063 l 1.625,-0.98437 v 3.375 h 1.65625 v 1.26562 h -1.65625 v 5.67188 q 0,0.6875 0.0781,0.89062 0.0937,0.20313 0.28125,0.32813 0.20312,0.10937 0.57812,0.10937 0.26563,0 0.71875,-0.0625 z m 1.60517,-10 v -1.89062 h 1.64062 v 1.89062 z m 0,11.46875 v -9.67187 h 1.64062 v 9.67187 z m 4.14483,0 v -9.67187 h 1.46875 v 1.375 q 1.0625,-1.59375 3.07813,-1.59375 0.875,0 1.60937,0.3125 0.73438,0.3125 1.09375,0.82812 0.375,0.5 0.51563,1.20313 0.0937,0.45312 0.0937,1.59375 v 5.95312 h -1.64063 v -5.89062 q 0,-1 -0.20312,-1.48438 -0.1875,-0.5 -0.67188,-0.79687 -0.48437,-0.29688 -1.14062,-0.29688 -1.04688,0 -1.8125,0.67188 -0.75,0.65625 -0.75,2.51562 v 5.28125 z m 10.06323,0.79688 1.59375,0.23437 q 0.10938,0.75 0.5625,1.07813 0.60938,0.45312 1.67188,0.45312 1.14062,0 1.75,-0.45312 0.625,-0.45313 0.84375,-1.26563 0.125,-0.5 0.10937,-2.10937 -1.0625,1.26562 -2.67187,1.26562 -2,0 -3.09375,-1.4375 -1.09375,-1.4375 -1.09375,-3.45312 0,-1.39063 0.5,-2.5625 0.51562,-1.17188 1.45312,-1.79688 0.95313,-0.64062 2.25,-0.64062 1.70313,0 2.8125,1.375 v -1.15625 h 1.51563 v 8.35937 q 0,2.26563 -0.46875,3.20313 -0.45313,0.9375 -1.45313,1.48437 -0.98437,0.54688 -2.45312,0.54688 -1.71875,0 -2.79688,-0.78125 -1.0625,-0.76563 -1.03125,-2.34375 z m 1.35938,-5.8125 q 0,1.90625 0.75,2.78125 0.76562,0.875 1.90625,0.875 1.125,0 1.89062,-0.85938 0.76563,-0.875 0.76563,-2.73437 0,-1.78125 -0.79688,-2.67188 -0.78125,-0.90625 -1.89062,-0.90625 -1.09375,0 -1.85938,0.89063 -0.76562,0.875 -0.76562,2.625 z m 18.09027,3.54687 0.23437,1.45313 q -0.6875,0.14062 -1.23437,0.14062 -0.89063,0 -1.39063,-0.28125 -0.48437,-0.28125 -0.6875,-0.73437 -0.20312,-0.46875 -0.20312,-1.9375 v -5.57813 h -1.20313 v -1.26562 h 1.20313 v -2.39063 l 1.625,-0.98437 v 3.375 h 1.65625 v 1.26562 h -1.65625 v 5.67188 q 0,0.6875 0.0781,0.89062 0.0937,0.20313 0.28125,0.32813 0.20313,0.10937 0.57813,0.10937 0.26562,0 0.71875,-0.0625 z m 3.38641,1.46875 -2.96875,-9.67187 h 1.70313 l 1.53125,5.57812 0.57812,2.07813 q 0.0469,-0.15625 0.5,-2 l 1.54688,-5.65625 h 1.6875 l 1.4375,5.60937 0.48437,1.84375 0.5625,-1.85937 1.65625,-5.59375 h 1.59375 l -3.03125,9.67187 h -1.70312 l -1.53125,-5.79687 -0.375,-1.64063 -1.95313,7.4375 z m 11.08228,-4.84375 q 0,-2.6875 1.48437,-3.96875 1.25,-1.07812 3.04688,-1.07812 2,0 3.26562,1.3125 1.26563,1.29687 1.26563,3.60937 0,1.85938 -0.5625,2.9375 -0.5625,1.0625 -1.64063,1.65625 -1.0625,0.59375 -2.32812,0.59375 -2.03125,0 -3.28125,-1.29687 -1.25,-1.3125 -1.25,-3.76563 z m 1.6875,0 q 0,1.85938 0.79687,2.79688 0.8125,0.92187 2.04688,0.92187 1.21875,0 2.03125,-0.92187 0.8125,-0.9375 0.8125,-2.84375 0,-1.79688 -0.8125,-2.71875 -0.8125,-0.92188 -2.03125,-0.92188 -1.23438,0 -2.04688,0.92188 -0.79687,0.90625 -0.79687,2.76562 z"
     fill-rule="nonzero"
     id="path31" />
  <path
     fill="#000000"
     d="m 577.58802,117.05227 v -13.375 h 1.48438 v 1.25 q 0.53125,-0.73438 1.1875,-1.09375 0.67187,-0.375 1.625,-0.375 1.23437,0 2.17187,0.64062 0.95313,0.625 1.4375,1.79688 0.48438,1.15625 0.48438,2.54687 0,1.48438 -0.53125,2.67188 -0.53125,1.1875 -1.54688,1.82812 -1.01562,0.625 -2.14062,0.625 -0.8125,0 -1.46875,-0.34375 -0.65625,-0.34375 -1.0625,-0.875 v 4.70313 z m 1.48438,-8.48438 q 0,1.85938 0.75,2.76563 0.76562,0.89062 1.82812,0.89062 1.09375,0 1.875,-0.92187 0.78125,-0.9375 0.78125,-2.875 0,-1.84375 -0.76562,-2.76563 -0.75,-0.92187 -1.8125,-0.92187 -1.04688,0 -1.85938,0.98437 -0.79687,0.96875 -0.79687,2.84375 z m 8.87573,4.78125 v -9.67187 h 1.46875 v 1.46875 q 0.5625,-1.03125 1.03125,-1.35938 0.48437,-0.32812 1.0625,-0.32812 0.82812,0 1.6875,0.53125 l -0.5625,1.51562 q -0.60938,-0.35937 -1.20313,-0.35937 -0.54687,0 -0.96875,0.32812 -0.42187,0.32813 -0.60937,0.89063 -0.28125,0.875 -0.28125,1.92187 v 5.0625 z m 5.61895,-4.84375 q 0,-2.6875 1.48438,-3.96875 1.25,-1.07812 3.04687,-1.07812 2,0 3.26563,1.3125 1.26562,1.29687 1.26562,3.60937 0,1.85938 -0.5625,2.9375 -0.5625,1.0625 -1.64062,1.65625 -1.0625,0.59375 -2.32813,0.59375 -2.03125,0 -3.28125,-1.29687 -1.25,-1.3125 -1.25,-3.76563 z m 1.6875,0 q 0,1.85938 0.79688,2.79688 0.8125,0.92187 2.04687,0.92187 1.21875,0 2.03125,-0.92187 0.8125,-0.9375 0.8125,-2.84375 0,-1.79688 -0.8125,-2.71875 -0.8125,-0.92188 -2.03125,-0.92188 -1.23437,0 -2.04687,0.92188 -0.79688,0.90625 -0.79688,2.76562 z m 15.61005,1.29688 1.60938,0.21875 q -0.26563,1.65625 -1.35938,2.60937 -1.07812,0.9375 -2.67187,0.9375 -1.98438,0 -3.1875,-1.29687 -1.20313,-1.29688 -1.20313,-3.71875 0,-1.57813 0.51563,-2.75 0.51562,-1.17188 1.57812,-1.75 1.0625,-0.59375 2.3125,-0.59375 1.57813,0 2.57813,0.79687 1,0.79688 1.28125,2.26563 l -1.59375,0.23437 q -0.23438,-0.96875 -0.8125,-1.45312 -0.57813,-0.5 -1.39063,-0.5 -1.23437,0 -2.01562,0.89062 -0.78125,0.89063 -0.78125,2.8125 0,1.95313 0.75,2.84375 0.75,0.875 1.95312,0.875 0.96875,0 1.60938,-0.59375 0.65625,-0.59375 0.82812,-1.82812 z m 9.64063,0.4375 1.6875,0.20312 q -0.40625,1.48438 -1.48438,2.3125 -1.07812,0.8125 -2.76562,0.8125 -2.125,0 -3.375,-1.29687 -1.23438,-1.3125 -1.23438,-3.67188 0,-2.45312 1.25,-3.79687 1.26563,-1.34375 3.26563,-1.34375 1.9375,0 3.15625,1.32812 1.23437,1.3125 1.23437,3.70313 0,0.15625 0,0.4375 h -7.21875 q 0.0937,1.59375 0.90625,2.45312 0.8125,0.84375 2.01563,0.84375 0.90625,0 1.54687,-0.46875 0.64063,-0.48437 1.01563,-1.51562 z m -5.39063,-2.65625 h 5.40625 q -0.10937,-1.21875 -0.625,-1.82813 -0.78125,-0.95312 -2.03125,-0.95312 -1.125,0 -1.90625,0.76562 -0.76562,0.75 -0.84375,2.01563 z m 8.48511,2.875 1.625,-0.25 q 0.125,0.96875 0.75,1.5 0.625,0.51562 1.75,0.51562 1.125,0 1.67187,-0.45312 0.54688,-0.46875 0.54688,-1.09375 0,-0.54688 -0.48438,-0.875 -0.32812,-0.21875 -1.67187,-0.54688 -1.8125,-0.46875 -2.51563,-0.79687 -0.6875,-0.32813 -1.04687,-0.90625 -0.35938,-0.59375 -0.35938,-1.3125 0,-0.64063 0.29688,-1.1875 0.29687,-0.5625 0.8125,-0.92188 0.375,-0.28125 1.03125,-0.46875 0.67187,-0.20312 1.42187,-0.20312 1.14063,0 2,0.32812 0.85938,0.32813 1.26563,0.89063 0.42187,0.5625 0.57812,1.5 l -1.60937,0.21875 q -0.10938,-0.75 -0.64063,-1.17188 -0.51562,-0.42187 -1.46875,-0.42187 -1.14062,0 -1.625,0.375 -0.46875,0.375 -0.46875,0.875 0,0.3125 0.1875,0.57812 0.20313,0.26563 0.64063,0.4375 0.23437,0.0937 1.4375,0.42188 1.75,0.45312 2.4375,0.75 0.6875,0.29687 1.07812,0.85937 0.39063,0.5625 0.39063,1.40625 0,0.82813 -0.48438,1.54688 -0.46875,0.71875 -1.375,1.125 -0.90625,0.39062 -2.04687,0.39062 -1.875,0 -2.875,-0.78125 -0.98438,-0.78125 -1.25,-2.32812 z m 9.32812,0 1.625,-0.25 q 0.125,0.96875 0.75,1.5 0.625,0.51562 1.75,0.51562 1.125,0 1.67188,-0.45312 0.54687,-0.46875 0.54687,-1.09375 0,-0.54688 -0.48437,-0.875 -0.32813,-0.21875 -1.67188,-0.54688 -1.8125,-0.46875 -2.51562,-0.79687 -0.6875,-0.32813 -1.04688,-0.90625 -0.35937,-0.59375 -0.35937,-1.3125 0,-0.64063 0.29687,-1.1875 0.29688,-0.5625 0.8125,-0.92188 0.375,-0.28125 1.03125,-0.46875 0.67188,-0.20312 1.42188,-0.20312 1.14062,0 2,0.32812 0.85937,0.32813 1.26562,0.89063 0.42188,0.5625 0.57813,1.5 l -1.60938,0.21875 q -0.10937,-0.75 -0.64062,-1.17188 -0.51563,-0.42187 -1.46875,-0.42187 -1.14063,0 -1.625,0.375 -0.46875,0.375 -0.46875,0.875 0,0.3125 0.1875,0.57812 0.20312,0.26563 0.64062,0.4375 0.23438,0.0937 1.4375,0.42188 1.75,0.45312 2.4375,0.75 0.6875,0.29687 1.07813,0.85937 0.39062,0.5625 0.39062,1.40625 0,0.82813 -0.48437,1.54688 -0.46875,0.71875 -1.375,1.125 -0.90625,0.39062 -2.04688,0.39062 -1.875,0 -2.875,-0.78125 -0.98437,-0.78125 -1.25,-2.32812 z m 16.60938,-0.21875 1.6875,0.20312 q -0.40625,1.48438 -1.48438,2.3125 -1.07812,0.8125 -2.76562,0.8125 -2.125,0 -3.375,-1.29687 -1.23438,-1.3125 -1.23438,-3.67188 0,-2.45312 1.25,-3.79687 1.26563,-1.34375 3.26563,-1.34375 1.9375,0 3.15625,1.32812 1.23437,1.3125 1.23437,3.70313 0,0.15625 0,0.4375 h -7.21875 q 0.0937,1.59375 0.90625,2.45312 0.8125,0.84375 2.01563,0.84375 0.90625,0 1.54687,-0.46875 0.64063,-0.48437 1.01563,-1.51562 z m -5.39063,-2.65625 h 5.40625 q -0.10937,-1.21875 -0.625,-1.82813 -0.78125,-0.95312 -2.03125,-0.95312 -1.125,0 -1.90625,0.76562 -0.76562,0.75 -0.84375,2.01563 z m 8.48511,2.875 1.625,-0.25 q 0.125,0.96875 0.75,1.5 0.625,0.51562 1.75,0.51562 1.125,0 1.67187,-0.45312 0.54688,-0.46875 0.54688,-1.09375 0,-0.54688 -0.48438,-0.875 -0.32812,-0.21875 -1.67187,-0.54688 -1.8125,-0.46875 -2.51563,-0.79687 -0.6875,-0.32813 -1.04687,-0.90625 -0.35938,-0.59375 -0.35938,-1.3125 0,-0.64063 0.29688,-1.1875 0.29687,-0.5625 0.8125,-0.92188 0.375,-0.28125 1.03125,-0.46875 0.67187,-0.20312 1.42187,-0.20312 1.14063,0 2,0.32812 0.85938,0.32813 1.26563,0.89063 0.42187,0.5625 0.57812,1.5 l -1.60937,0.21875 q -0.10938,-0.75 -0.64063,-1.17188 -0.51562,-0.42187 -1.46875,-0.42187 -1.14062,0 -1.625,0.375 -0.46875,0.375 -0.46875,0.875 0,0.3125 0.1875,0.57812 0.20313,0.26563 0.64063,0.4375 0.23437,0.0937 1.4375,0.42188 1.75,0.45312 2.4375,0.75 0.6875,0.29687 1.07812,0.85937 0.39063,0.5625 0.39063,1.40625 0,0.82813 -0.48438,1.54688 -0.46875,0.71875 -1.375,1.125 -0.90625,0.39062 -2.04687,0.39062 -1.875,0 -2.875,-0.78125 -0.98438,-0.78125 -1.25,-2.32812 z m 21.48016,1.70312 q -0.92187,0.76563 -1.76562,1.09375 -0.82813,0.3125 -1.79688,0.3125 -1.59375,0 -2.45312,-0.78125 -0.85938,-0.78125 -0.85938,-1.98437 0,-0.71875 0.32813,-1.29688 0.32812,-0.59375 0.84375,-0.9375 0.53125,-0.35937 1.1875,-0.54687 0.46875,-0.125 1.45312,-0.25 1.98438,-0.23438 2.92188,-0.5625 0.0156,-0.34375 0.0156,-0.42188 0,-1 -0.46875,-1.42187 -0.625,-0.54688 -1.875,-0.54688 -1.15625,0 -1.70312,0.40625 -0.54688,0.40625 -0.8125,1.42188 l -1.60938,-0.21875 q 0.21875,-1.01563 0.71875,-1.64063 0.5,-0.64062 1.45313,-0.98437 0.95312,-0.34375 2.1875,-0.34375 1.25,0 2.01562,0.29687 0.78125,0.28125 1.14063,0.73438 0.375,0.4375 0.51562,1.10937 0.0781,0.42188 0.0781,1.51563 v 2.1875 q 0,2.28125 0.10937,2.89062 0.10938,0.59375 0.40625,1.15625 h -1.70312 q -0.26563,-0.51562 -0.32813,-1.1875 z m -0.14062,-3.67187 q -0.89063,0.375 -2.67188,0.625 -1.01562,0.14062 -1.4375,0.32812 -0.42187,0.1875 -0.65625,0.53125 -0.21875,0.34375 -0.21875,0.78125 0,0.65625 0.5,1.09375 0.5,0.4375 1.45313,0.4375 0.9375,0 1.67187,-0.40625 0.75,-0.42187 1.09375,-1.14062 0.26563,-0.5625 0.26563,-1.64063 z m 4.59448,4.85937 v -8.40625 h -1.45312 v -1.26562 h 1.45312 v -1.03125 q 0,-0.96875 0.17188,-1.45313 0.23437,-0.64062 0.82812,-1.03125 0.59375,-0.39062 1.67188,-0.39062 0.6875,0 1.53125,0.15625 l -0.25,1.4375 q -0.5,-0.0937 -0.95313,-0.0937 -0.75,0 -1.0625,0.32812 -0.3125,0.3125 -0.3125,1.1875 v 0.89063 h 1.89063 v 1.26562 h -1.89063 v 8.40625 z m 8.37079,-1.46875 0.23437,1.45313 q -0.6875,0.14062 -1.23437,0.14062 -0.89063,0 -1.39063,-0.28125 -0.48437,-0.28125 -0.6875,-0.73437 -0.20312,-0.46875 -0.20312,-1.9375 v -5.57813 h -1.20313 v -1.26562 h 1.20313 v -2.39063 l 1.625,-0.98437 v 3.375 h 1.65625 v 1.26562 h -1.65625 v 5.67188 q 0,0.6875 0.0781,0.89062 0.0937,0.20313 0.28125,0.32813 0.20313,0.10937 0.57813,0.10937 0.26562,0 0.71875,-0.0625 z m 8.23016,-1.64062 1.6875,0.20312 q -0.40625,1.48438 -1.48437,2.3125 -1.07813,0.8125 -2.76563,0.8125 -2.125,0 -3.375,-1.29687 -1.23437,-1.3125 -1.23437,-3.67188 0,-2.45312 1.25,-3.79687 1.26562,-1.34375 3.26562,-1.34375 1.9375,0 3.15625,1.32812 1.23438,1.3125 1.23438,3.70313 0,0.15625 0,0.4375 h -7.21875 q 0.0937,1.59375 0.90625,2.45312 0.8125,0.84375 2.01562,0.84375 0.90625,0 1.54688,-0.46875 0.64062,-0.48437 1.01562,-1.51562 z m -5.39062,-2.65625 h 5.40625 q -0.10938,-1.21875 -0.625,-1.82813 -0.78125,-0.95312 -2.03125,-0.95312 -1.125,0 -1.90625,0.76562 -0.76563,0.75 -0.84375,2.01563 z m 9.12573,5.76562 v -9.67187 h 1.46875 v 1.46875 q 0.5625,-1.03125 1.03125,-1.35938 0.48438,-0.32812 1.0625,-0.32812 0.82813,0 1.6875,0.53125 l -0.5625,1.51562 q -0.60937,-0.35937 -1.20312,-0.35937 -0.54688,0 -0.96875,0.32812 -0.42188,0.32813 -0.60938,0.89063 -0.28125,0.875 -0.28125,1.92187 v 5.0625 z m 17.72412,-1.1875 q -0.92187,0.76563 -1.76562,1.09375 -0.82813,0.3125 -1.79688,0.3125 -1.59375,0 -2.45312,-0.78125 -0.85938,-0.78125 -0.85938,-1.98437 0,-0.71875 0.32813,-1.29688 0.32812,-0.59375 0.84375,-0.9375 0.53125,-0.35937 1.1875,-0.54687 0.46875,-0.125 1.45312,-0.25 1.98438,-0.23438 2.92188,-0.5625 0.0156,-0.34375 0.0156,-0.42188 0,-1 -0.46875,-1.42187 -0.625,-0.54688 -1.875,-0.54688 -1.15625,0 -1.70312,0.40625 -0.54688,0.40625 -0.8125,1.42188 l -1.60938,-0.21875 q 0.21875,-1.01563 0.71875,-1.64063 0.5,-0.64062 1.45313,-0.98437 0.95312,-0.34375 2.1875,-0.34375 1.25,0 2.01562,0.29687 0.78125,0.28125 1.14063,0.73438 0.375,0.4375 0.51562,1.10937 0.0781,0.42188 0.0781,1.51563 v 2.1875 q 0,2.28125 0.10937,2.89062 0.10938,0.59375 0.40625,1.15625 H 716.954 q -0.26563,-0.51562 -0.32813,-1.1875 z m -0.14062,-3.67187 q -0.89063,0.375 -2.67188,0.625 -1.01562,0.14062 -1.4375,0.32812 -0.42187,0.1875 -0.65625,0.53125 -0.21875,0.34375 -0.21875,0.78125 0,0.65625 0.5,1.09375 0.5,0.4375 1.45313,0.4375 0.9375,0 1.67187,-0.40625 0.75,-0.42187 1.09375,-1.14062 0.26563,-0.5625 0.26563,-1.64063 z"
     fill-rule="nonzero"
     id="path33" />
  <path
     fill="#000000"
     d="m 617.39092,135.34913 v -8.40625 h -1.45312 v -1.26562 h 1.45312 v -1.03125 q 0,-0.96874 0.17188,-1.45311 0.23437,-0.64063 0.82812,-1.03125 0.59375,-0.39063 1.67188,-0.39063 0.6875,0 1.53125,0.15625 l -0.25,1.4375 q -0.5,-0.0937 -0.95313,-0.0937 -0.75,0 -1.0625,0.32813 -0.3125,0.3125 -0.3125,1.18748 v 0.89063 h 1.89063 v 1.26562 h -1.89063 v 8.40625 z m 4.18329,-4.84375 q 0,-2.6875 1.48437,-3.96875 1.25,-1.07812 3.04688,-1.07812 2,0 3.26562,1.3125 1.26563,1.29687 1.26563,3.60937 0,1.85938 -0.5625,2.9375 -0.5625,1.0625 -1.64063,1.65625 -1.0625,0.59375 -2.32812,0.59375 -2.03125,0 -3.28125,-1.29687 -1.25,-1.3125 -1.25,-3.76563 z m 1.6875,0 q 0,1.85938 0.79687,2.79688 0.8125,0.92187 2.04688,0.92187 1.21875,0 2.03125,-0.92187 0.8125,-0.9375 0.8125,-2.84375 0,-1.79688 -0.8125,-2.71875 -0.8125,-0.92188 -2.03125,-0.92188 -1.23438,0 -2.04688,0.92188 -0.79687,0.90625 -0.79687,2.76562 z m 9.28198,4.84375 v -9.67187 h 1.46875 v 1.46875 q 0.5625,-1.03125 1.03125,-1.35938 0.48438,-0.32812 1.0625,-0.32812 0.82813,0 1.6875,0.53125 l -0.5625,1.51562 q -0.60937,-0.35937 -1.20312,-0.35937 -0.54688,0 -0.96875,0.32812 -0.42188,0.32813 -0.60938,0.89063 -0.28125,0.875 -0.28125,1.92187 v 5.0625 z m 6.22827,0 v -13.35936 h 1.64063 v 7.62498 l 3.89062,-3.9375 h 2.10938 l -3.6875,3.59375 4.0625,6.07813 h -2.01563 l -3.20312,-4.95313 -1.15625,1.125 v 3.82813 z m 20.82392,-3.54687 1.60937,0.21875 q -0.26562,1.65625 -1.35937,2.60937 -1.07813,0.9375 -2.67188,0.9375 -1.98437,0 -3.1875,-1.29687 -1.20312,-1.29688 -1.20312,-3.71875 0,-1.57813 0.51562,-2.75 0.51563,-1.17188 1.57813,-1.75 1.0625,-0.59375 2.3125,-0.59375 1.57812,0 2.57812,0.79687 1,0.79688 1.28125,2.26563 l -1.59375,0.23437 q -0.23437,-0.96875 -0.8125,-1.45312 -0.57812,-0.5 -1.39062,-0.5 -1.23438,0 -2.01563,0.89062 -0.78125,0.89063 -0.78125,2.8125 0,1.95313 0.75,2.84375 0.75,0.875 1.95313,0.875 0.96875,0 1.60937,-0.59375 0.65625,-0.59375 0.82813,-1.82812 z m 9.32812,2.35937 q -0.92187,0.76563 -1.76562,1.09375 -0.82813,0.3125 -1.79688,0.3125 -1.59375,0 -2.45312,-0.78125 -0.85938,-0.78125 -0.85938,-1.98437 0,-0.71875 0.32813,-1.29688 0.32812,-0.59375 0.84375,-0.9375 0.53125,-0.35937 1.1875,-0.54687 0.46875,-0.125 1.45312,-0.25 1.98438,-0.23438 2.92188,-0.5625 0.0156,-0.34375 0.0156,-0.42188 0,-1 -0.46875,-1.42187 -0.625,-0.54688 -1.875,-0.54688 -1.15625,0 -1.70312,0.40625 -0.54688,0.40625 -0.8125,1.42188 l -1.60938,-0.21875 q 0.21875,-1.01563 0.71875,-1.64063 0.5,-0.64062 1.45313,-0.98437 0.95312,-0.34375 2.1875,-0.34375 1.25,0 2.01562,0.29687 0.78125,0.28125 1.14063,0.73438 0.375,0.4375 0.51562,1.10937 0.0781,0.42188 0.0781,1.51563 v 2.1875 q 0,2.28125 0.10937,2.89062 0.10938,0.59375 0.40625,1.15625 h -1.70312 q -0.26563,-0.51562 -0.32813,-1.1875 z m -0.14062,-3.67187 q -0.89063,0.375 -2.67188,0.625 -1.01562,0.14062 -1.4375,0.32812 -0.42187,0.1875 -0.65625,0.53125 -0.21875,0.34375 -0.21875,0.78125 0,0.65625 0.5,1.09375 0.5,0.4375 1.45313,0.4375 0.9375,0 1.67187,-0.40625 0.75,-0.42187 1.09375,-1.14062 0.26563,-0.5625 0.26563,-1.64063 z m 4.15698,4.85937 v -13.35936 h 1.64062 v 13.35936 z m 4.14483,0 v -13.35936 h 1.64063 v 13.35936 z"
     fill-rule="nonzero"
     id="path35" />
  <path
     fill="#000000"
     fill-opacity="0"
     d="M 564.21916,79.49214 320.40812,2.01182"
     fill-rule="evenodd"
     id="path37" />
  <path
     stroke="#000000"
     stroke-width="1"
     stroke-linejoin="round"
     stroke-linecap="butt"
     d="M 564.21916,79.49214 326.12636,3.82899"
     fill-rule="evenodd"
     id="path39" />
  <path
     fill="#000000"
     stroke="#000000"
     stroke-width="1"
     stroke-linecap="butt"
     d="m 326.62657,2.25483 -4.8252,0.19974 3.82471,2.94858 z"
     fill-rule="evenodd"
     id="path41" />
  <path
     fill="#cfe2f3"
     d="m 7.019682,266.89634 c 3.600723,0 6.519684,-2.91898 6.519684,-6.51968 H 7.019682 c 1.800362,0 3.259842,-1.45951 3.259842,-3.25986 0,-1.80036 -1.45948,-3.25983 -3.259842,-3.25983 h 6.519684 v -84.75592 0 c 0,-3.60071 2.918961,-6.51968 6.519684,-6.51968 h 97.6693 c 3.60072,0 6.51968,2.91897 6.51968,6.51968 0,3.60074 -2.91896,6.51969 -6.51968,6.51969 h -6.51969 v 84.75592 c 0,3.6007 -2.91896,6.51968 -6.51968,6.51968 z m 19.559052,-97.79529 v 0 c 0,3.60074 -2.918961,6.51968 -6.519684,6.51968 -1.800362,0 -3.259842,-1.45947 -3.259842,-3.25982 0,-1.80039 1.45948,-3.25986 3.259842,-3.25986 z"
     fill-rule="evenodd"
     id="path43" />
  <path
     fill="#a5b4c2"
     d="m 26.578732,169.10105 v 0 c 0,3.60074 -2.918961,6.51968 -6.519684,6.51968 -1.800362,0 -3.259842,-1.45947 -3.259842,-3.25982 0,-1.80039 1.45948,-3.25986 3.259842,-3.25986 z m -13.039368,91.2756 c 0,3.60071 -2.918961,6.51969 -6.519684,6.51969 -3.600723,0 -6.519684,-2.91898 -6.519684,-6.51969 0,-3.60073 2.918961,-6.51968 6.519684,-6.51968 v 0 c 1.800362,0 3.259842,1.45947 3.259842,3.25983 0,1.80035 -1.45948,3.25985 -3.259842,3.25985 z"
     fill-rule="evenodd"
     id="path45" />
  <path
     fill="#000000"
     fill-opacity="0"
     d="m 13.539368,253.85697 v -84.75592 0 c 0,-3.60071 2.918961,-6.51968 6.519684,-6.51968 h 97.669298 c 3.60072,0 6.51968,2.91897 6.51968,6.51968 0,3.60074 -2.91896,6.51968 -6.51968,6.51968 h -6.51968 v 84.75592 c 0,3.60071 -2.91896,6.51969 -6.51969,6.51969 H 7.019684 C 3.418961,266.89634 0.5,263.97736 0.5,260.37665 c 0,-3.60073 2.918961,-6.51968 6.519684,-6.51968 z m 6.519684,-91.2756 v 0 c 3.600723,0 6.519684,2.91897 6.519684,6.51968 0,3.60074 -2.918961,6.51968 -6.519684,6.51968 -1.800362,0 -3.259842,-1.45947 -3.259842,-3.25982 0,-1.80039 1.45948,-3.25986 3.259842,-3.25986 h 6.519684 m 84.629924,6.51968 H 20.059056 M 7.019688,253.85697 v 0 c 1.800362,0 3.259842,1.45948 3.259842,3.25983 0,1.80035 -1.45948,3.25986 -3.259842,3.25986 h 6.519684 m -6.519684,6.51968 c 3.600723,0 6.519684,-2.91897 6.519684,-6.51968 v -6.51969"
     fill-rule="evenodd"
     id="path47" />
  <path
     stroke="#000000"
     stroke-width="1"
     stroke-linejoin="round"
     stroke-linecap="butt"
     d="m 13.539368,253.85697 v -84.75592 0 c 0,-3.60071 2.918961,-6.51968 6.519684,-6.51968 h 97.669298 c 3.60072,0 6.51968,2.91897 6.51968,6.51968 0,3.60074 -2.91896,6.51968 -6.51968,6.51968 h -6.51968 v 84.75592 c 0,3.60071 -2.91896,6.51969 -6.51969,6.51969 H 7.019684 C 3.418961,266.89634 0.5,263.97736 0.5,260.37665 c 0,-3.60073 2.918961,-6.51968 6.519684,-6.51968 z m 6.519684,-91.2756 v 0 c 3.600723,0 6.519684,2.91897 6.519684,6.51968 0,3.60074 -2.918961,6.51968 -6.519684,6.51968 -1.800362,0 -3.259842,-1.45947 -3.259842,-3.25982 0,-1.80039 1.45948,-3.25986 3.259842,-3.25986 h 6.519684 m 84.629924,6.51968 H 20.059056 M 7.019688,253.85697 v 0 c 1.800362,0 3.259842,1.45948 3.259842,3.25983 0,1.80035 -1.45948,3.25986 -3.259842,3.25986 h 6.519684 m -6.519684,6.51968 c 3.600723,0 6.519684,-2.91897 6.519684,-6.51968 v -6.51969"
     fill-rule="evenodd"
     id="path49" />
  <path
     fill="#000000"
     d="m 30.015402,224.13868 -2.75,-8.98438 h 1.578125 l 1.421875,5.1875 0.546875,1.92188 q 0.03125,-0.14063 0.453125,-1.84375 l 1.4375,-5.26563 h 1.5625 l 1.34375,5.20313 0.45312,1.71875 0.51563,-1.73438 1.53125,-5.1875 h 1.48437 l -2.8125,8.98438 h -1.57812 l -1.421875,-5.375 -0.359375,-1.53125 -1.8125,6.90625 z m 10.84195,0 v -8.98438 h 1.375 v 1.35938 q 0.51562,-0.95313 0.95312,-1.25 0.45313,-0.3125 0.98438,-0.3125 0.78125,0 1.5625,0.48437 l -0.51563,1.42188 q -0.5625,-0.32813 -1.125,-0.32813 -0.5,0 -0.89062,0.29688 -0.39063,0.29687 -0.5625,0.82812 -0.26563,0.8125 -0.26563,1.78125 v 4.70313 z m 5.80165,-10.65625 v -1.75 h 1.51562 v 1.75 z m 0,10.65625 v -8.98438 h 1.51562 v 8.98438 z m 7.16226,-1.35938 0.21875,1.34375 q -0.64062,0.14063 -1.15625,0.14063 -0.82812,0 -1.28125,-0.26563 -0.45312,-0.26562 -0.64062,-0.6875 -0.1875,-0.4375 -0.1875,-1.79687 v -5.17188 h -1.125 v -1.1875 h 1.125 v -2.21875 l 1.51562,-0.92187 v 3.14062 h 1.53125 v 1.1875 h -1.53125 v 5.25 q 0,0.65625 0.0781,0.84375 0.0781,0.1875 0.25,0.29688 0.1875,0.10937 0.53125,0.10937 0.25,0 0.67187,-0.0625 z m 7.64244,-1.53125 1.56251,0.1875 q -0.35937,1.39063 -1.37501,2.15625 -1,0.75 -2.5625,0.75 -1.98437,0 -3.14062,-1.20312 -1.14063,-1.21875 -1.14063,-3.42188 0,-2.26562 1.15625,-3.51562 1.17188,-1.25 3.03125,-1.25 1.8125,0 2.95313,1.23437 1.14063,1.21875 1.14063,3.4375 0,0.14063 -0.0156,0.40625 h -6.70314 q 0.0937,1.48438 0.84375,2.28125 0.75,0.78125 1.875,0.78125 0.84375,0 1.4375,-0.4375 0.59375,-0.4375 0.9375,-1.40625 z m -5,-2.46875 h 5.01563 q -0.10938,-1.125 -0.57813,-1.70312 -0.73437,-0.875 -1.89062,-0.875 -1.04688,0 -1.76563,0.70312 -0.70312,0.70313 -0.78125,1.875 z m 19.45141,2.46875 1.5625,0.1875 q -0.35937,1.39063 -1.375,2.15625 -1,0.75 -2.5625,0.75 -1.98437,0 -3.14062,-1.20312 -1.14063,-1.21875 -1.14063,-3.42188 0,-2.26562 1.15625,-3.51562 1.17188,-1.25 3.03125,-1.25 1.8125,0 2.95313,1.23437 1.14062,1.21875 1.14062,3.4375 0,0.14063 -0.0156,0.40625 h -6.70313 q 0.0937,1.48438 0.84375,2.28125 0.75,0.78125 1.875,0.78125 0.84375,0 1.4375,-0.4375 0.59375,-0.4375 0.9375,-1.40625 z m -5,-2.46875 h 5.01563 q -0.10938,-1.125 -0.57813,-1.70312 -0.73437,-0.875 -1.89062,-0.875 -1.04688,0 -1.76563,0.70312 -0.70312,0.70313 -0.78125,1.875 z m 8.48084,5.35938 v -8.98438 h 1.375 v 1.28125 q 0.98437,-1.48437 2.85937,-1.48437 0.8125,0 1.48438,0.29687 0.6875,0.28125 1.01562,0.76563 0.34375,0.46875 0.48438,1.125 0.0781,0.42187 0.0781,1.46875 v 5.53125 h -1.51562 v -5.46875 q 0,-0.92188 -0.1875,-1.375 -0.17188,-0.46875 -0.625,-0.75 -0.45313,-0.28125 -1.0625,-0.28125 -0.96875,0 -1.67188,0.625 -0.70312,0.60937 -0.70312,2.34375 v 4.90625 z m 15.46521,0 v -1.14063 q -0.84375,1.34375 -2.51563,1.34375 -1.0625,0 -1.96875,-0.59375 -0.90625,-0.59375 -1.40625,-1.65625 -0.48437,-1.0625 -0.48437,-2.4375 0,-1.34375 0.4375,-2.4375 0.45312,-1.09375 1.34375,-1.67187 0.90625,-0.59375 2.01562,-0.59375 0.8125,0 1.4375,0.34375 0.64063,0.34375 1.04688,0.89062 v -4.45312 h 1.51562 v 12.40625 z m -4.8125,-4.48438 q 0,1.71875 0.71875,2.57813 0.73437,0.85937 1.73437,0.85937 0.98438,0 1.6875,-0.8125 0.70313,-0.82812 0.70313,-2.5 0,-1.84375 -0.71875,-2.70312 -0.70313,-0.85938 -1.75,-0.85938 -1.01563,0 -1.70313,0.82813 -0.67187,0.82812 -0.67187,2.60937 z"
     fill-rule="nonzero"
     id="path51" />
  <path
     fill="#000000"
     fill-opacity="0"
     d="M 111.20866,214.73884 254.26377,33.73098"
     fill-rule="evenodd"
     id="path53" />
  <path
     stroke="#000000"
     stroke-width="1"
     stroke-linejoin="round"
     stroke-linecap="butt"
     d="M 111.20866,214.73884 250.54344,38.43832"
     fill-rule="evenodd"
     id="path55" />
  <path
     fill="#000000"
     stroke="#000000"
     stroke-width="1"
     stroke-linecap="butt"
     d="m 251.83932,39.46249 1.51801,-4.58456 -4.10975,2.53624 z"
     fill-rule="evenodd"
     id="path57" />
  <path
     fill="#cfe2f3"
     d="m 587.78542,259.73097 c 3.10602,0 5.62402,-2.51794 5.62402,-5.62399 h -5.62402 c 1.55304,0 2.81201,-1.25901 2.81201,-2.81201 0,-1.55304 -1.25897,-2.81202 -2.81201,-2.81202 h 5.62402 v -73.11221 0 c 0,-3.10605 2.51795,-5.62402 5.62397,-5.62402 h 142.13391 c 3.10601,0 5.62396,2.51798 5.62396,5.62402 0,3.10605 -2.51795,5.62403 -5.62396,5.62403 h -5.62403 v 73.11221 c 0,3.10605 -2.51794,5.62399 -5.62402,5.62399 z m 16.87201,-84.36023 v 0 c 0,3.10605 -2.51794,5.62402 -5.62402,5.62402 v 0 c -1.55298,0 -2.81195,-1.25897 -2.81195,-2.81201 0,-1.55304 1.25897,-2.81201 2.81195,-2.81201 z"
     fill-rule="evenodd"
     id="path59" />
  <path
     fill="#a5b4c2"
     d="m 604.65745,175.37074 v 0 c 0,3.10605 -2.51794,5.62402 -5.62402,5.62402 v 0 c -1.55298,0 -2.81195,-1.25897 -2.81195,-2.81201 0,-1.55304 1.25897,-2.81201 2.81195,-2.81201 z m -11.24799,78.73624 c 0,3.10605 -2.518,5.62399 -5.62402,5.62399 -3.10608,0 -5.62402,-2.51794 -5.62402,-5.62399 0,-3.10608 2.51794,-5.62402 5.62402,-5.62402 v 0 c 1.55304,0 2.81201,1.25897 2.81201,2.81201 0,1.55301 -1.25897,2.81201 -2.81201,2.81201 z"
     fill-rule="evenodd"
     id="path61" />
  <path
     fill="#000000"
     fill-opacity="0"
     d="m 593.40947,248.48295 v -73.11221 0 c 0,-3.10605 2.51794,-5.62402 5.62396,-5.62402 h 142.13391 c 3.10602,0 5.62396,2.51797 5.62396,5.62402 0,3.10605 -2.51794,5.62402 -5.62396,5.62402 h -5.62402 v 73.11221 c 0,3.10605 -2.51795,5.624 -5.62402,5.624 H 587.78545 c -3.10608,0 -5.62403,-2.51795 -5.62403,-5.624 0,-3.10608 2.51795,-5.62402 5.62403,-5.62402 z m 5.62396,-78.73624 v 0 c 3.10608,0 5.62403,2.51797 5.62403,5.62402 0,3.10605 -2.51795,5.62403 -5.62403,5.62403 -1.55298,0 -2.81195,-1.25898 -2.81195,-2.81201 0,-1.55304 1.25897,-2.81202 2.81195,-2.81202 h 5.62403 m 130.88586,5.62403 H 599.03343 m -11.24799,67.48819 v 0 c 1.55304,0 2.81201,1.25897 2.81201,2.81201 0,1.55301 -1.25897,2.81201 -2.81201,2.81201 h 5.62402 m -5.62402,5.62399 c 3.10602,0 5.62402,-2.51794 5.62402,-5.62399 v -5.62402"
     fill-rule="evenodd"
     id="path63" />
  <path
     stroke="#000000"
     stroke-width="1"
     stroke-linejoin="round"
     stroke-linecap="butt"
     d="m 593.40947,248.48295 v -73.11221 0 c 0,-3.10605 2.51794,-5.62402 5.62396,-5.62402 h 142.13391 c 3.10602,0 5.62396,2.51797 5.62396,5.62402 0,3.10605 -2.51794,5.62402 -5.62396,5.62402 h -5.62402 v 73.11221 c 0,3.10605 -2.51795,5.624 -5.62402,5.624 H 587.78545 c -3.10608,0 -5.62403,-2.51795 -5.62403,-5.624 0,-3.10608 2.51795,-5.62402 5.62403,-5.62402 z m 5.62396,-78.73624 v 0 c 3.10608,0 5.62403,2.51797 5.62403,5.62402 0,3.10605 -2.51795,5.62403 -5.62403,5.62403 -1.55298,0 -2.81195,-1.25898 -2.81195,-2.81201 0,-1.55304 1.25897,-2.81202 2.81195,-2.81202 h 5.62403 m 130.88586,5.62403 H 599.03343 m -11.24799,67.48819 v 0 c 1.55304,0 2.81201,1.25897 2.81201,2.81201 0,1.55301 -1.25897,2.81201 -2.81201,2.81201 h 5.62402 m -5.62402,5.62399 c 3.10602,0 5.62402,-2.51794 5.62402,-5.62399 v -5.62402"
     fill-rule="evenodd"
     id="path65" />
  <path
     fill="#000000"
     d="m 631.39772,223.69087 v -8.98438 h 1.375 v 1.35938 q 0.51563,-0.95313 0.95313,-1.25 0.45312,-0.3125 0.98437,-0.3125 0.78125,0 1.5625,0.48437 l -0.51562,1.42188 q -0.5625,-0.32813 -1.125,-0.32813 -0.5,0 -0.89063,0.29688 -0.39062,0.29687 -0.5625,0.82812 -0.26562,0.8125 -0.26562,1.78125 v 4.70313 z m 11.94226,-2.89063 1.5625,0.1875 q -0.35937,1.39063 -1.375,2.15625 -1,0.75 -2.5625,0.75 -1.98437,0 -3.14062,-1.20312 -1.14063,-1.21875 -1.14063,-3.42188 0,-2.26562 1.15625,-3.51562 1.17188,-1.25 3.03125,-1.25 1.8125,0 2.95313,1.23437 1.14062,1.21875 1.14062,3.4375 0,0.14063 -0.0156,0.40625 h -6.70313 q 0.0937,1.48438 0.84375,2.28125 0.75,0.78125 1.875,0.78125 0.84375,0 1.4375,-0.4375 0.59375,-0.4375 0.9375,-1.40625 z m -5,-2.46875 h 5.01563 q -0.10938,-1.125 -0.57813,-1.70312 -0.73437,-0.875 -1.89062,-0.875 -1.04688,0 -1.76563,0.70312 -0.70312,0.70313 -0.78125,1.875 z m 14.34021,4.25 q -0.84375,0.71875 -1.625,1.01563 -0.78125,0.29687 -1.67187,0.29687 -1.48438,0 -2.28125,-0.71875 -0.79688,-0.73437 -0.79688,-1.85937 0,-0.65625 0.29688,-1.20313 0.3125,-0.54687 0.79687,-0.875 0.48438,-0.32812 1.09375,-0.5 0.4375,-0.10937 1.34375,-0.21875 1.84375,-0.21875 2.71875,-0.53125 0.0156,-0.3125 0.0156,-0.39062 0,-0.9375 -0.4375,-1.3125 -0.57813,-0.51563 -1.73438,-0.51563 -1.07812,0 -1.59375,0.375 -0.5,0.375 -0.75,1.32813 l -1.48437,-0.20313 q 0.20312,-0.95312 0.65625,-1.53125 0.46875,-0.59375 1.34375,-0.90625 0.89062,-0.32812 2.04687,-0.32812 1.15625,0 1.875,0.28125 0.71875,0.26562 1.04688,0.67187 0.34375,0.40625 0.48437,1.03125 0.0781,0.39063 0.0781,1.40625 v 2.03125 q 0,2.125 0.0937,2.6875 0.0937,0.5625 0.39062,1.07813 h -1.59375 q -0.23437,-0.46875 -0.3125,-1.10938 z m -0.125,-3.40625 q -0.82812,0.34375 -2.48437,0.57813 -0.9375,0.14062 -1.32813,0.3125 -0.39062,0.17187 -0.60937,0.5 -0.20313,0.3125 -0.20313,0.71875 0,0.60937 0.45313,1.01562 0.46875,0.40625 1.35937,0.40625 0.875,0 1.5625,-0.39062 0.6875,-0.39063 1.01563,-1.04688 0.23437,-0.51562 0.23437,-1.53125 z m 9.73084,4.51563 v -1.14063 q -0.84375,1.34375 -2.51563,1.34375 -1.0625,0 -1.96875,-0.59375 -0.90625,-0.59375 -1.40625,-1.65625 -0.48437,-1.0625 -0.48437,-2.4375 0,-1.34375 0.4375,-2.4375 0.45312,-1.09375 1.34375,-1.67187 0.90625,-0.59375 2.01562,-0.59375 0.8125,0 1.4375,0.34375 0.64063,0.34375 1.04688,0.89062 v -4.45312 h 1.51562 v 12.40625 z m -4.8125,-4.48438 q 0,1.71875 0.71875,2.57813 0.73437,0.85937 1.73437,0.85937 0.98438,0 1.6875,-0.8125 0.70313,-0.82812 0.70313,-2.5 0,-1.84375 -0.71875,-2.70312 -0.70313,-0.85938 -1.75,-0.85938 -1.01563,0 -1.70313,0.82813 -0.67187,0.82812 -0.67187,2.60937 z m 19.59204,1.59375 1.5625,0.1875 q -0.35938,1.39063 -1.375,2.15625 -1,0.75 -2.5625,0.75 -1.98438,0 -3.14063,-1.20312 -1.14062,-1.21875 -1.14062,-3.42188 0,-2.26562 1.15625,-3.51562 1.17187,-1.25 3.03125,-1.25 1.8125,0 2.95312,1.23437 1.14063,1.21875 1.14063,3.4375 0,0.14063 -0.0156,0.40625 h -6.70312 q 0.0937,1.48438 0.84375,2.28125 0.75,0.78125 1.875,0.78125 0.84375,0 1.4375,-0.4375 0.59375,-0.4375 0.9375,-1.40625 z m -5,-2.46875 h 5.01562 q -0.10937,-1.125 -0.57812,-1.70312 -0.73438,-0.875 -1.89063,-0.875 -1.04687,0 -1.76562,0.70312 -0.70313,0.70313 -0.78125,1.875 z m 8.48083,5.35938 v -8.98438 h 1.375 v 1.28125 q 0.98438,-1.48437 2.85938,-1.48437 0.8125,0 1.48437,0.29687 0.6875,0.28125 1.01563,0.76563 0.34375,0.46875 0.48437,1.125 0.0781,0.42187 0.0781,1.46875 v 5.53125 h -1.51563 v -5.46875 q 0,-0.92188 -0.1875,-1.375 -0.17187,-0.46875 -0.625,-0.75 -0.45312,-0.28125 -1.0625,-0.28125 -0.96875,0 -1.67187,0.625 -0.70313,0.60937 -0.70313,2.34375 v 4.90625 z m 15.46521,0 v -1.14063 q -0.84375,1.34375 -2.51562,1.34375 -1.0625,0 -1.96875,-0.59375 -0.90625,-0.59375 -1.40625,-1.65625 -0.48438,-1.0625 -0.48438,-2.4375 0,-1.34375 0.4375,-2.4375 0.45313,-1.09375 1.34375,-1.67187 0.90625,-0.59375 2.01563,-0.59375 0.8125,0 1.4375,0.34375 0.64062,0.34375 1.04687,0.89062 v -4.45312 h 1.51563 v 12.40625 z m -4.8125,-4.48438 q 0,1.71875 0.71875,2.57813 0.73438,0.85937 1.73438,0.85937 0.98437,0 1.6875,-0.8125 0.70312,-0.82812 0.70312,-2.5 0,-1.84375 -0.71875,-2.70312 -0.70312,-0.85938 -1.75,-0.85938 -1.01562,0 -1.70312,0.82813 -0.67188,0.82812 -0.67188,2.60937 z"
     fill-rule="nonzero"
     id="path67" />
  <path
     fill="#000000"
     fill-opacity="0"
     d="M 593.40947,214.73884 386.54329,33.73098"
     fill-rule="evenodd"
     id="path69" />
  <path
     stroke="#000000"
     stroke-width="1"
     stroke-linejoin="round"
     stroke-linecap="butt"
     d="M 593.40947,214.73884 391.05876,37.682"
     fill-rule="evenodd"
     id="path71" />
  <path
     fill="#000000"
     stroke="#000000"
     stroke-width="1"
     stroke-linecap="butt"
     d="m 392.14644,36.43894 -4.50293,-1.7453 2.32758,4.23141 z"
     fill-rule="evenodd"
     id="path73" />
  <path
     fill="#cfe2f3"
     d="m 352.56038,159.51576 v 41.92746 h -22.62994 v 110.70245 h 7.5433 l -15.08661,15.08661 -15.08661,-15.08661 h 7.54331 V 201.44322 h -22.62992 v -41.92746 z"
     fill-rule="evenodd"
     id="path75" />
  <path
     stroke="#000000"
     stroke-width="1"
     stroke-linejoin="round"
     stroke-linecap="butt"
     d="m 352.56038,159.51576 v 41.92746 h -22.62994 v 110.70245 h 7.5433 l -15.08661,15.08661 -15.08661,-15.08661 h 7.54331 V 201.44322 h -22.62992 v -41.92746 z"
     fill-rule="evenodd"
     id="path77" />
  <path
     fill="#b6d7a8"
     d="M 250.30314,327.88847 H 394.4921 V 452.64439 H 250.30314 Z"
     fill-rule="evenodd"
     id="path79" />
  <path
     stroke="#000000"
     stroke-width="1"
     stroke-linejoin="round"
     stroke-linecap="butt"
     d="M 250.30314,327.88847 H 394.4921 V 452.64439 H 250.30314 Z"
     fill-rule="evenodd"
     id="path81" />
  <path
     fill="#000000"
     d="m 282.15648,443.26751 v -13.375 h 1.48437 v 1.25 q 0.53125,-0.73437 1.1875,-1.09375 0.67188,-0.375 1.625,-0.375 1.23438,0 2.17188,0.64063 0.95312,0.625 1.4375,1.79687 0.48437,1.15625 0.48437,2.54688 0,1.48437 -0.53125,2.67187 -0.53125,1.1875 -1.54687,1.82813 -1.01563,0.625 -2.14063,0.625 -0.8125,0 -1.46875,-0.34375 -0.65625,-0.34375 -1.0625,-0.875 v 4.70312 z m 1.48437,-8.48437 q 0,1.85937 0.75,2.76562 0.76563,0.89063 1.82813,0.89063 1.09375,0 1.875,-0.92188 0.78125,-0.9375 0.78125,-2.875 0,-1.84375 -0.76563,-2.76562 -0.75,-0.92188 -1.8125,-0.92188 -1.04687,0 -1.85937,0.98438 -0.79688,0.96875 -0.79688,2.84375 z m 8.87571,4.78125 v -9.67188 h 1.46875 v 1.46875 q 0.5625,-1.03125 1.03125,-1.35937 0.48437,-0.32813 1.0625,-0.32813 0.82812,0 1.6875,0.53125 l -0.5625,1.51563 q -0.60938,-0.35938 -1.20313,-0.35938 -0.54687,0 -0.96875,0.32813 -0.42187,0.32812 -0.60937,0.89062 -0.28125,0.875 -0.28125,1.92188 v 5.0625 z m 5.61892,-4.84375 q 0,-2.6875 1.48438,-3.96875 1.25,-1.07813 3.04687,-1.07813 2,0 3.26563,1.3125 1.26562,1.29688 1.26562,3.60938 0,1.85937 -0.5625,2.9375 -0.5625,1.0625 -1.64062,1.65625 -1.0625,0.59375 -2.32813,0.59375 -2.03125,0 -3.28125,-1.29688 -1.25,-1.3125 -1.25,-3.76562 z m 1.6875,0 q 0,1.85937 0.79688,2.79687 0.8125,0.92188 2.04687,0.92188 1.21875,0 2.03125,-0.92188 0.8125,-0.9375 0.8125,-2.84375 0,-1.79687 -0.8125,-2.71875 -0.8125,-0.92187 -2.03125,-0.92187 -1.23437,0 -2.04687,0.92187 -0.79688,0.90625 -0.79688,2.76563 z m 15.61011,1.29687 1.60938,0.21875 q -0.26563,1.65625 -1.35938,2.60938 -1.07812,0.9375 -2.67187,0.9375 -1.98438,0 -3.1875,-1.29688 -1.20313,-1.29687 -1.20313,-3.71875 0,-1.57812 0.51563,-2.75 0.51562,-1.17187 1.57812,-1.75 1.0625,-0.59375 2.3125,-0.59375 1.57813,0 2.57813,0.79688 1,0.79687 1.28125,2.26562 l -1.59375,0.23438 q -0.23438,-0.96875 -0.8125,-1.45313 -0.57813,-0.5 -1.39063,-0.5 -1.23437,0 -2.01562,0.89063 -0.78125,0.89062 -0.78125,2.8125 0,1.95312 0.75,2.84375 0.75,0.875 1.95312,0.875 0.96875,0 1.60938,-0.59375 0.65625,-0.59375 0.82812,-1.82813 z m 9.64063,0.4375 1.6875,0.20313 q -0.40625,1.48437 -1.48438,2.3125 -1.07812,0.8125 -2.76562,0.8125 -2.125,0 -3.375,-1.29688 -1.23438,-1.3125 -1.23438,-3.67187 0,-2.45313 1.25,-3.79688 1.26563,-1.34375 3.26563,-1.34375 1.9375,0 3.15625,1.32813 1.23437,1.3125 1.23437,3.70312 0,0.15625 0,0.4375 h -7.21875 q 0.0937,1.59375 0.90625,2.45313 0.8125,0.84375 2.01563,0.84375 0.90625,0 1.54687,-0.46875 0.64063,-0.48438 1.01563,-1.51563 z m -5.39063,-2.65625 h 5.40625 q -0.10937,-1.21875 -0.625,-1.82812 -0.78125,-0.95313 -2.03125,-0.95313 -1.125,0 -1.90625,0.76563 -0.76562,0.75 -0.84375,2.01562 z m 8.48508,2.875 1.625,-0.25 q 0.125,0.96875 0.75,1.5 0.625,0.51563 1.75,0.51563 1.125,0 1.67187,-0.45313 0.54688,-0.46875 0.54688,-1.09375 0,-0.54687 -0.48438,-0.875 -0.32812,-0.21875 -1.67187,-0.54687 -1.8125,-0.46875 -2.51563,-0.79688 -0.6875,-0.32812 -1.04687,-0.90625 -0.35938,-0.59375 -0.35938,-1.3125 0,-0.64062 0.29688,-1.1875 0.29687,-0.5625 0.8125,-0.92187 0.375,-0.28125 1.03125,-0.46875 0.67187,-0.20313 1.42187,-0.20313 1.14063,0 2,0.32813 0.85938,0.32812 1.26563,0.89062 0.42187,0.5625 0.57812,1.5 l -1.60937,0.21875 q -0.10938,-0.75 -0.64063,-1.17187 -0.51562,-0.42188 -1.46875,-0.42188 -1.14062,0 -1.625,0.375 -0.46875,0.375 -0.46875,0.875 0,0.3125 0.1875,0.57813 0.20313,0.26562 0.64063,0.4375 0.23437,0.0937 1.4375,0.42187 1.75,0.45313 2.4375,0.75 0.6875,0.29688 1.07812,0.85938 0.39063,0.5625 0.39063,1.40625 0,0.82812 -0.48438,1.54687 -0.46875,0.71875 -1.375,1.125 -0.90625,0.39063 -2.04687,0.39063 -1.875,0 -2.875,-0.78125 -0.98438,-0.78125 -1.25,-2.32813 z m 9.32812,0 1.625,-0.25 q 0.125,0.96875 0.75,1.5 0.625,0.51563 1.75,0.51563 1.125,0 1.67188,-0.45313 0.54687,-0.46875 0.54687,-1.09375 0,-0.54687 -0.48437,-0.875 -0.32813,-0.21875 -1.67188,-0.54687 -1.8125,-0.46875 -2.51562,-0.79688 -0.6875,-0.32812 -1.04688,-0.90625 -0.35937,-0.59375 -0.35937,-1.3125 0,-0.64062 0.29687,-1.1875 0.29688,-0.5625 0.8125,-0.92187 0.375,-0.28125 1.03125,-0.46875 0.67188,-0.20313 1.42188,-0.20313 1.14062,0 2,0.32813 0.85937,0.32812 1.26562,0.89062 0.42188,0.5625 0.57813,1.5 l -1.60938,0.21875 q -0.10937,-0.75 -0.64062,-1.17187 -0.51563,-0.42188 -1.46875,-0.42188 -1.14063,0 -1.625,0.375 -0.46875,0.375 -0.46875,0.875 0,0.3125 0.1875,0.57813 0.20312,0.26562 0.64062,0.4375 0.23438,0.0937 1.4375,0.42187 1.75,0.45313 2.4375,0.75 0.6875,0.29688 1.07813,0.85938 0.39062,0.5625 0.39062,1.40625 0,0.82812 -0.48437,1.54687 -0.46875,0.71875 -1.375,1.125 -0.90625,0.39063 -2.04688,0.39063 -1.875,0 -2.875,-0.78125 -0.98437,-0.78125 -1.25,-2.32813 z m 15.2927,2.89063 v -13.35938 h 5.01562 q 1.53125,0 2.45313,0.40625 0.92187,0.40625 1.4375,1.25 0.53125,0.84375 0.53125,1.76563 0,0.85937 -0.46875,1.625 -0.45313,0.75 -1.39063,1.20312 1.20313,0.35938 1.85938,1.21875 0.65625,0.85938 0.65625,2.01563 0,0.9375 -0.40625,1.75 -0.39063,0.79687 -0.98438,1.23437 -0.57812,0.4375 -1.45312,0.67188 -0.875,0.21875 -2.15625,0.21875 z m 1.78125,-7.75 h 2.875 q 1.1875,0 1.6875,-0.14063 0.67187,-0.20312 1.01562,-0.67187 0.34375,-0.46875 0.34375,-1.17188 0,-0.65625 -0.32812,-1.15625 -0.3125,-0.51562 -0.90625,-0.70312 -0.59375,-0.1875 -2.03125,-0.1875 h -2.65625 z m 0,6.17187 h 3.3125 q 0.85937,0 1.20312,-0.0625 0.60938,-0.10937 1.01563,-0.35937 0.42187,-0.26563 0.6875,-0.75 0.26562,-0.48438 0.26562,-1.125 0,-0.75 -0.39062,-1.29688 -0.375,-0.54687 -1.0625,-0.76562 -0.67188,-0.23438 -1.95313,-0.23438 h -3.07812 z"
     fill-rule="nonzero"
     id="path83" />
  <path
     fill="#000000"
     fill-opacity="0"
     d="m 240.06956,329.93833 h 164.62991 v 31.71652 H 240.06956 Z"
     fill-rule="evenodd"
     id="path85" />
  <path
     fill="#000000"
     d="m 267.06712,350.45831 v -5.40625 h -0.9375 v -0.8125 h 0.9375 v -0.67188 q 0,-0.625 0.10937,-0.92187 0.15625,-0.42188 0.53125,-0.67188 0.39063,-0.25 1.07813,-0.25 0.45312,0 0.98437,0.10938 l -0.15625,0.90625 q -0.32812,-0.0469 -0.625,-0.0469 -0.48437,0 -0.6875,0.20313 -0.1875,0.20312 -0.1875,0.76562 v 0.57813 h 1.21875 v 0.8125 h -1.21875 v 5.40625 z m 3.08398,-7.375 v -1.21875 h 1.0625 v 1.21875 z m 0,7.375 v -6.21875 h 1.0625 v 6.21875 z m 2.63477,0 v -8.59375 h 1.0625 v 8.59375 z m 6.94727,-2 1.09375,0.125 q -0.25,0.95312 -0.95313,1.48437 -0.70312,0.53125 -1.78125,0.53125 -1.35937,0 -2.17187,-0.84375 -0.79688,-0.84375 -0.79688,-2.35937 0,-1.5625 0.8125,-2.42188 0.8125,-0.875 2.09375,-0.875 1.25,0 2.03125,0.84375 0.79688,0.84375 0.79688,2.39063 0,0.0937 0,0.28125 h -4.64063 q 0.0625,1.03125 0.57813,1.57812 0.51562,0.53125 1.29687,0.53125 0.57813,0 0.98438,-0.29687 0.42187,-0.3125 0.65625,-0.96875 z m -3.45313,-1.70313 h 3.46875 q -0.0625,-0.79687 -0.39062,-1.1875 -0.51563,-0.60937 -1.3125,-0.60937 -0.73438,0 -1.23438,0.48437 -0.48437,0.48438 -0.53125,1.3125 z m 9.9082,3.70313 v -0.78125 q -0.59375,0.92187 -1.73437,0.92187 -0.75,0 -1.375,-0.40625 -0.625,-0.42187 -0.96875,-1.15625 -0.34375,-0.73437 -0.34375,-1.6875 0,-0.92187 0.3125,-1.6875 0.3125,-0.76562 0.9375,-1.15625 0.625,-0.40625 1.39062,-0.40625 0.5625,0 1,0.23438 0.4375,0.23437 0.71875,0.60937 v -3.07812 h 1.04688 v 8.59375 z m -3.32812,-3.10938 q 0,1.20313 0.5,1.79688 0.5,0.57812 1.1875,0.57812 0.6875,0 1.17187,-0.5625 0.48438,-0.5625 0.48438,-1.71875 0,-1.28125 -0.5,-1.875 -0.48438,-0.59375 -1.20313,-0.59375 -0.70312,0 -1.17187,0.57813 -0.46875,0.5625 -0.46875,1.79687 z m 10.2207,1.10938 1.09375,0.125 q -0.25,0.95312 -0.95312,1.48437 -0.70313,0.53125 -1.78125,0.53125 -1.35938,0 -2.17188,-0.84375 -0.79687,-0.84375 -0.79687,-2.35937 0,-1.5625 0.8125,-2.42188 0.8125,-0.875 2.09375,-0.875 1.25,0 2.03125,0.84375 0.79687,0.84375 0.79687,2.39063 0,0.0937 0,0.28125 h -4.64062 q 0.0625,1.03125 0.57812,1.57812 0.51563,0.53125 1.29688,0.53125 0.57812,0 0.98437,-0.29687 0.42188,-0.3125 0.65625,-0.96875 z m -3.45312,-1.70313 h 3.46875 q -0.0625,-0.79687 -0.39063,-1.1875 -0.51562,-0.60937 -1.3125,-0.60937 -0.73437,0 -1.23437,0.48437 -0.48438,0.48438 -0.53125,1.3125 z m 5.45507,1.84375 1.03125,-0.15625 q 0.0937,0.625 0.48438,0.95313 0.40625,0.32812 1.14062,0.32812 0.71875,0 1.0625,-0.28125 0.35938,-0.29687 0.35938,-0.70312 0,-0.35938 -0.3125,-0.5625 -0.21875,-0.14063 -1.07813,-0.35938 -1.15625,-0.29687 -1.60937,-0.5 -0.4375,-0.21875 -0.67188,-0.59375 -0.23437,-0.375 -0.23437,-0.84375 0,-0.40625 0.1875,-0.76562 0.1875,-0.35938 0.51562,-0.59375 0.25,-0.17188 0.67188,-0.29688 0.42187,-0.125 0.92187,-0.125 0.71875,0 1.26563,0.21875 0.5625,0.20313 0.82812,0.5625 0.26563,0.35938 0.35938,0.95313 l -1.03125,0.14062 q -0.0625,-0.46875 -0.40625,-0.73437 -0.32813,-0.28125 -0.95313,-0.28125 -0.71875,0 -1.03125,0.25 -0.3125,0.23437 -0.3125,0.5625 0,0.20312 0.125,0.35937 0.14063,0.17188 0.40625,0.28125 0.15625,0.0625 0.9375,0.26563 1.125,0.3125 1.5625,0.5 0.4375,0.1875 0.6875,0.54687 0.25,0.35938 0.25,0.90625 0,0.53125 -0.3125,1 -0.29687,0.45313 -0.875,0.71875 -0.57812,0.25 -1.3125,0.25 -1.21875,0 -1.85937,-0.5 -0.625,-0.51562 -0.79688,-1.5 z m 6.4375,4.25 v -10.98437 h 2.32813 v 0.875 h -1.26563 v 9.23437 h 1.26563 v 0.875 z m 6.99024,-2.39062 h -1.04688 v -6.71875 q -0.39062,0.35937 -1.01562,0.73437 -0.60938,0.35938 -1.09375,0.53125 v -1.01562 q 0.875,-0.42188 1.53125,-1 0.67187,-0.59375 0.95312,-1.15625 h 0.67188 z m 4.76758,2.39062 h -2.32813 v -0.875 h 1.26563 v -9.23437 h -1.26563 v -0.875 h 2.32813 z m 18.48828,-2.39062 v -5.40625 h -0.9375 v -0.8125 h 0.9375 v -0.67188 q 0,-0.625 0.10937,-0.92187 0.15625,-0.42188 0.53125,-0.67188 0.39063,-0.25 1.07813,-0.25 0.45312,0 0.98437,0.10938 l -0.15625,0.90625 q -0.32812,-0.0469 -0.625,-0.0469 -0.48437,0 -0.6875,0.20313 -0.1875,0.20312 -0.1875,0.76562 v 0.57813 h 1.21875 v 0.8125 h -1.21875 v 5.40625 z m 3.08398,-7.375 v -1.21875 h 1.0625 v 1.21875 z m 0,7.375 v -6.21875 h 1.0625 v 6.21875 z m 2.63477,0 v -8.59375 h 1.0625 v 8.59375 z m 6.94726,-2 1.09375,0.125 q -0.25,0.95312 -0.95312,1.48437 -0.70313,0.53125 -1.78125,0.53125 -1.35938,0 -2.17188,-0.84375 -0.79687,-0.84375 -0.79687,-2.35937 0,-1.5625 0.8125,-2.42188 0.8125,-0.875 2.09375,-0.875 1.25,0 2.03125,0.84375 0.79687,0.84375 0.79687,2.39063 0,0.0937 0,0.28125 h -4.64062 q 0.0625,1.03125 0.57812,1.57812 0.51563,0.53125 1.29688,0.53125 0.57812,0 0.98437,-0.29687 0.42188,-0.3125 0.65625,-0.96875 z m -3.45312,-1.70313 h 3.46875 q -0.0625,-0.79687 -0.39063,-1.1875 -0.51562,-0.60937 -1.3125,-0.60937 -0.73437,0 -1.23437,0.48437 -0.48438,0.48438 -0.53125,1.3125 z m 9.9082,3.70313 v -0.78125 q -0.59375,0.92187 -1.73437,0.92187 -0.75,0 -1.375,-0.40625 -0.625,-0.42187 -0.96875,-1.15625 -0.34375,-0.73437 -0.34375,-1.6875 0,-0.92187 0.3125,-1.6875 0.3125,-0.76562 0.9375,-1.15625 0.625,-0.40625 1.39062,-0.40625 0.5625,0 1,0.23438 0.4375,0.23437 0.71875,0.60937 v -3.07812 h 1.04688 v 8.59375 z m -3.32812,-3.10938 q 0,1.20313 0.5,1.79688 0.5,0.57812 1.1875,0.57812 0.6875,0 1.17187,-0.5625 0.48438,-0.5625 0.48438,-1.71875 0,-1.28125 -0.5,-1.875 -0.48438,-0.59375 -1.20313,-0.59375 -0.70312,0 -1.17187,0.57813 -0.46875,0.5625 -0.46875,1.79687 z m 10.2207,1.10938 1.09375,0.125 q -0.25,0.95312 -0.95313,1.48437 -0.70312,0.53125 -1.78125,0.53125 -1.35937,0 -2.17187,-0.84375 -0.79688,-0.84375 -0.79688,-2.35937 0,-1.5625 0.8125,-2.42188 0.8125,-0.875 2.09375,-0.875 1.25,0 2.03125,0.84375 0.79688,0.84375 0.79688,2.39063 0,0.0937 0,0.28125 h -4.64063 q 0.0625,1.03125 0.57813,1.57812 0.51562,0.53125 1.29687,0.53125 0.57813,0 0.98438,-0.29687 0.42187,-0.3125 0.65625,-0.96875 z m -3.45313,-1.70313 h 3.46875 q -0.0625,-0.79687 -0.39062,-1.1875 -0.51563,-0.60937 -1.3125,-0.60937 -0.73438,0 -1.23438,0.48437 -0.48437,0.48438 -0.53125,1.3125 z m 5.45508,1.84375 1.03125,-0.15625 q 0.0937,0.625 0.48438,0.95313 0.40625,0.32812 1.14062,0.32812 0.71875,0 1.0625,-0.28125 0.35938,-0.29687 0.35938,-0.70312 0,-0.35938 -0.3125,-0.5625 -0.21875,-0.14063 -1.07813,-0.35938 -1.15625,-0.29687 -1.60937,-0.5 -0.4375,-0.21875 -0.67188,-0.59375 -0.23437,-0.375 -0.23437,-0.84375 0,-0.40625 0.1875,-0.76562 0.1875,-0.35938 0.51562,-0.59375 0.25,-0.17188 0.67188,-0.29688 0.42187,-0.125 0.92187,-0.125 0.71875,0 1.26563,0.21875 0.5625,0.20313 0.82812,0.5625 0.26563,0.35938 0.35938,0.95313 l -1.03125,0.14062 q -0.0625,-0.46875 -0.40625,-0.73437 -0.32813,-0.28125 -0.95313,-0.28125 -0.71875,0 -1.03125,0.25 -0.3125,0.23437 -0.3125,0.5625 0,0.20312 0.125,0.35937 0.14063,0.17188 0.40625,0.28125 0.15625,0.0625 0.9375,0.26563 1.125,0.3125 1.5625,0.5 0.4375,0.1875 0.6875,0.54687 0.25,0.35938 0.25,0.90625 0,0.53125 -0.3125,1 -0.29687,0.45313 -0.875,0.71875 -0.57812,0.25 -1.3125,0.25 -1.21875,0 -1.85937,-0.5 -0.625,-0.51562 -0.79688,-1.5 z m 6.4375,4.25 v -10.98437 h 2.32816 v 0.875 h -1.26566 v 9.23437 h 1.26566 v 0.875 z m 3.02152,-6.625 q 0,-1.53125 0.3125,-2.45312 0.3125,-0.9375 0.92187,-1.4375 0.625,-0.5 1.5625,-0.5 0.6875,0 1.20313,0.28125 0.53125,0.28125 0.875,0.8125 0.34375,0.51562 0.53125,1.26562 0.1875,0.75 0.1875,2.03125 0,1.51563 -0.3125,2.4375 -0.29688,0.92188 -0.92188,1.4375 -0.60937,0.5 -1.5625,0.5 -1.23437,0 -1.95312,-0.89062 -0.84375,-1.0625 -0.84375,-3.48438 z m 1.07812,0 q 0,2.10938 0.5,2.8125 0.5,0.70313 1.21875,0.70313 0.73438,0 1.21875,-0.70313 0.5,-0.70312 0.5,-2.8125 0,-2.125 -0.5,-2.8125 -0.48437,-0.70312 -1.23437,-0.70312 -0.71875,0 -1.15625,0.60937 -0.54688,0.78125 -0.54688,2.90625 z m 7.65821,6.625 h -2.32813 v -0.875 h 1.26563 v -9.23437 h -1.26563 v -0.875 h 2.32813 z"
     fill-rule="nonzero"
     id="path87" />
  <path
     fill="#f6b26b"
     d="m 250.29265,326.87011 v -10.42523 0 c 0,-11.75888 9.53244,-21.29132 21.29132,-21.29132 h 97.64178 c 5.64679,0 11.06232,2.24319 15.05524,6.23608 3.99289,3.99289 6.23606,9.40842 6.23606,15.05524 v 0 h 3.96456 l -7.9291,10.42523 -7.92914,-10.42523 h 3.96457 v 0 0 c 0,-7.37973 -5.98245,-13.36218 -13.36219,-13.36218 h -97.64178 v 0 c -7.37973,0 -13.36218,5.98245 -13.36218,13.36218 v 10.42523 z"
     fill-rule="evenodd"
     id="path89" />
  <path
     stroke="#000000"
     stroke-width="1"
     stroke-linejoin="round"
     stroke-linecap="butt"
     d="m 250.29265,326.87011 v -10.42523 0 c 0,-11.75888 9.53244,-21.29132 21.29132,-21.29132 h 97.64178 c 5.64679,0 11.06232,2.24319 15.05524,6.23608 3.99289,3.99289 6.23606,9.40842 6.23606,15.05524 v 0 h 3.96456 l -7.9291,10.42523 -7.92914,-10.42523 h 3.96457 v 0 0 c 0,-7.37973 -5.98245,-13.36218 -13.36219,-13.36218 h -97.64178 v 0 c -7.37973,0 -13.36218,5.98245 -13.36218,13.36218 v 10.42523 z"
     fill-rule="evenodd"
     id="path91" />
  <path
     fill="#f6b26b"
     d="m 373.05092,319.24549 3.811,-1.7323 -127.58639,-280.28534 7.62204,-3.46457 127.58643,280.28534 3.811,-1.73227 -4.15332,11.08472 z"
     fill-rule="evenodd"
     id="path93" />
  <path
     stroke="#000000"
     stroke-width="1"
     stroke-linejoin="round"
     stroke-linecap="butt"
     d="m 373.05092,319.24549 3.811,-1.7323 -127.58639,-280.28534 7.62204,-3.46457 127.58643,280.28534 3.811,-1.73227 -4.15332,11.08472 z"
     fill-rule="evenodd"
     id="path95" />
  <path
     fill="#000000"
     fill-opacity="0"
     d="m 292.21129,158.82548 h 60.34647 v 43.96847 h -60.34647 z"
     fill-rule="evenodd"
     id="path97" />
  <path
     fill="#f6b26b"
     d="m 393.74842,46.51675 -3.81104,-1.71654 -130.8949,290.33194 -7.62204,-3.43307 130.8949,-290.33194 -3.81103,-1.71652 11.05786,-4.18775 z"
     fill-rule="evenodd"
     id="path99" />
  <path
     stroke="#000000"
     stroke-width="1"
     stroke-linejoin="round"
     stroke-linecap="butt"
     d="m 393.74842,46.51675 -3.81104,-1.71654 -130.8949,290.33194 -7.62204,-3.43307 130.8949,-290.33194 -3.81103,-1.71652 11.05786,-4.18775 z"
     fill-rule="evenodd"
     id="path101" />
  <path
     fill="#000000"
     fill-opacity="0"
     d="M 593.40947,214.73884 386.54329,326.86485"
     fill-rule="evenodd"
     id="path103" />
  <path
     stroke="#000000"
     stroke-width="1"
     stroke-linejoin="round"
     stroke-linecap="butt"
     d="M 593.40947,214.73884 391.81828,324.00572"
     fill-rule="evenodd"
     id="path105" />
  <path
     fill="#000000"
     stroke="#000000"
     stroke-width="1"
     stroke-linecap="butt"
     d="m 391.03117,322.55354 -3.20264,3.61465 4.77683,-0.71035 z"
     fill-rule="evenodd"
     id="path107" />
  <path
     fill="#000000"
     fill-opacity="0"
     d="m 111.20866,214.73884 144.0315,118.67719"
     fill-rule="evenodd"
     id="path109" />
  <path
     stroke="#000000"
     stroke-width="1"
     stroke-linejoin="round"
     stroke-linecap="butt"
     d="M 111.20866,214.73884 250.60957,329.60056"
     fill-rule="evenodd"
     id="path111" />
  <path
     fill="#000000"
     stroke="#000000"
     stroke-width="1"
     stroke-linecap="butt"
     d="m 249.55922,330.87531 4.5527,1.61105 -2.45199,-4.16055 z"
     fill-rule="evenodd"
     id="path113" />
  <path
     fill="#cfe2f3"
     d="m 448.48752,238.05644 c 2.31244,0 4.18701,-1.87457 4.18701,-4.18701 h -4.18701 c 1.15619,0 2.09351,-0.93729 2.09351,-2.09351 0,-1.15622 -0.93732,-2.0935 -2.09351,-2.0935 h 4.18701 v -54.43109 0 c 0,-2.31244 1.87457,-4.18702 4.18701,-4.18702 h 68.57477 c 2.31244,0 4.18702,1.87458 4.18702,4.18702 0,2.3124 -1.87458,4.18701 -4.18702,4.18701 h -4.18701 v 54.43109 c 0,2.31244 -1.87457,4.18701 -4.18695,4.18701 z m 12.56103,-62.80512 v 0 c 0,2.31241 -1.87457,4.18702 -4.18701,4.18702 -1.15625,0 -2.0935,-0.93729 -2.0935,-2.09351 0,-1.15622 0.93725,-2.09351 2.0935,-2.09351 z"
     fill-rule="evenodd"
     id="path115" />
  <path
     fill="#a5b4c2"
     d="m 461.04857,175.25131 v 0 c 0,2.31241 -1.87457,4.18701 -4.18701,4.18701 -1.15625,0 -2.09351,-0.93728 -2.09351,-2.0935 0,-1.15622 0.93726,-2.09351 2.09351,-2.09351 z m -8.37402,58.6181 c 0,2.31244 -1.87458,4.18701 -4.18701,4.18701 -2.31244,0 -4.18702,-1.87457 -4.18702,-4.18701 0,-2.31241 1.87458,-4.18701 4.18702,-4.18701 v 0 c 1.15618,0 2.0935,0.93729 2.0935,2.09351 0,1.15622 -0.93732,2.0935 -2.0935,2.0935 z"
     fill-rule="evenodd"
     id="path117" />
  <path
     fill="#000000"
     fill-opacity="0"
     d="m 452.67452,229.68241 v -54.43109 0 c 0,-2.31244 1.87457,-4.18701 4.18701,-4.18701 h 68.57477 c 2.31244,0 4.18701,1.87457 4.18701,4.18701 0,2.31241 -1.87457,4.18701 -4.18701,4.18701 h -4.18701 v 54.43109 c 0,2.31244 -1.87457,4.18701 -4.18695,4.18701 h -68.57483 c -2.31244,0 -4.18701,-1.87457 -4.18701,-4.18701 0,-2.31241 1.87457,-4.18701 4.18701,-4.18701 z m 4.18701,-58.6181 v 0 c 2.31244,0 4.18701,1.87457 4.18701,4.18701 0,2.31241 -1.87457,4.18701 -4.18701,4.18701 -1.15625,0 -2.0935,-0.93729 -2.0935,-2.09351 0,-1.15621 0.93725,-2.0935 2.0935,-2.0935 h 4.18701 m 60.20075,4.18701 h -64.38776 m -8.37402,50.24408 v 0 c 1.15618,0 2.0935,0.93729 2.0935,2.09351 0,1.15622 -0.93732,2.0935 -2.0935,2.0935 h 4.18701 m -4.18701,4.18701 c 2.31243,0 4.18701,-1.87457 4.18701,-4.18701 v -4.18701"
     fill-rule="evenodd"
     id="path119" />
  <path
     stroke="#000000"
     stroke-width="1"
     stroke-linejoin="round"
     stroke-linecap="butt"
     d="m 452.67452,229.68241 v -54.43109 0 c 0,-2.31244 1.87457,-4.18701 4.18701,-4.18701 h 68.57477 c 2.31244,0 4.18701,1.87457 4.18701,4.18701 0,2.31241 -1.87457,4.18701 -4.18701,4.18701 h -4.18701 v 54.43109 c 0,2.31244 -1.87457,4.18701 -4.18695,4.18701 h -68.57483 c -2.31244,0 -4.18701,-1.87457 -4.18701,-4.18701 0,-2.31241 1.87457,-4.18701 4.18701,-4.18701 z m 4.18701,-58.6181 v 0 c 2.31244,0 4.18701,1.87457 4.18701,4.18701 0,2.31241 -1.87457,4.18701 -4.18701,4.18701 -1.15625,0 -2.0935,-0.93729 -2.0935,-2.09351 0,-1.15621 0.93725,-2.0935 2.0935,-2.0935 h 4.18701 m 60.20075,4.18701 h -64.38776 m -8.37402,50.24408 v 0 c 1.15618,0 2.0935,0.93729 2.0935,2.09351 0,1.15622 -0.93732,2.0935 -2.0935,2.0935 h 4.18701 m -4.18701,4.18701 c 2.31243,0 4.18701,-1.87457 4.18701,-4.18701 v -4.18701"
     fill-rule="evenodd"
     id="path121" />
  <path
     fill="#000000"
     d="m 473.03702,213.57386 v -8.40625 h -1.45313 v -1.26563 h 1.45313 v -1.03125 q 0,-0.96875 0.17187,-1.45312 0.23438,-0.64063 0.82813,-1.03125 0.59375,-0.39063 1.67187,-0.39063 0.6875,0 1.53125,0.15625 l -0.25,1.4375 q -0.5,-0.0937 -0.95312,-0.0937 -0.75,0 -1.0625,0.32813 -0.3125,0.3125 -0.3125,1.1875 v 0.89062 h 1.89062 v 1.26563 h -1.89062 v 8.40625 z m 4.18329,-4.84375 q 0,-2.6875 1.48437,-3.96875 1.25,-1.07813 3.04688,-1.07813 2,0 3.26562,1.3125 1.26563,1.29688 1.26563,3.60938 0,1.85937 -0.5625,2.9375 -0.5625,1.0625 -1.64063,1.65625 -1.0625,0.59375 -2.32812,0.59375 -2.03125,0 -3.28125,-1.29688 -1.25,-1.3125 -1.25,-3.76562 z m 1.6875,0 q 0,1.85937 0.79687,2.79687 0.8125,0.92188 2.04688,0.92188 1.21875,0 2.03125,-0.92188 0.8125,-0.9375 0.8125,-2.84375 0,-1.79687 -0.8125,-2.71875 -0.8125,-0.92187 -2.03125,-0.92187 -1.23438,0 -2.04688,0.92187 -0.79687,0.90625 -0.79687,2.76563 z m 9.28198,4.84375 v -9.67188 h 1.46875 v 1.46875 q 0.5625,-1.03125 1.03125,-1.35937 0.48438,-0.32813 1.0625,-0.32813 0.82813,0 1.6875,0.53125 l -0.5625,1.51563 q -0.60937,-0.35938 -1.20312,-0.35938 -0.54688,0 -0.96875,0.32813 -0.42188,0.32812 -0.60938,0.89062 -0.28125,0.875 -0.28125,1.92188 v 5.0625 z m 6.22827,0 v -13.35938 h 1.64063 v 7.625 l 3.89062,-3.9375 h 2.10938 l -3.6875,3.59375 4.0625,6.07813 h -2.01563 l -3.20312,-4.95313 -1.15625,1.125 v 3.82813 z"
     fill-rule="nonzero"
     id="path123" />
  <path
     fill="#000000"
     fill-opacity="0"
     d="M 452.67452,204.56037 352.54851,180.81232"
     fill-rule="evenodd"
     id="path125" />
  <path
     stroke="#000000"
     stroke-width="1"
     stroke-linejoin="round"
     stroke-linecap="butt"
     d="M 452.67452,204.56037 358.38659,182.19703"
     fill-rule="evenodd"
     id="path127" />
  <path
     fill="#000000"
     stroke="#000000"
     stroke-width="1"
     stroke-linecap="butt"
     d="m 358.76777,180.58988 -4.79678,0.55984 4.03442,2.65442 z"
     fill-rule="evenodd"
     id="path129" />
  <path
     fill="#000000"
     fill-opacity="0"
     d="M 240.06956,36.79922 H 404.69947 V 68.51576 H 240.06956 Z"
     fill-rule="evenodd"
     id="path131" />
  <path
     fill="#000000"
     d="m 267.06712,57.31922 v -5.40625 h -0.9375 v -0.8125 h 0.9375 v -0.67188 q 0,-0.625 0.10937,-0.92187 0.15625,-0.42188 0.53125,-0.67188 0.39063,-0.25 1.07813,-0.25 0.45312,0 0.98437,0.10938 l -0.15625,0.90625 q -0.32812,-0.0469 -0.625,-0.0469 -0.48437,0 -0.6875,0.20313 -0.1875,0.20312 -0.1875,0.76562 v 0.57813 h 1.21875 v 0.8125 h -1.21875 v 5.40625 z m 3.08398,-7.375 v -1.21875 h 1.0625 v 1.21875 z m 0,7.375 v -6.21875 h 1.0625 v 6.21875 z m 2.63477,0 v -8.59375 h 1.0625 v 8.59375 z m 6.94727,-2 1.09375,0.125 q -0.25,0.95312 -0.95313,1.48437 -0.70312,0.53125 -1.78125,0.53125 -1.35937,0 -2.17187,-0.84375 -0.79688,-0.84375 -0.79688,-2.35937 0,-1.5625 0.8125,-2.42188 0.8125,-0.875 2.09375,-0.875 1.25,0 2.03125,0.84375 0.79688,0.84375 0.79688,2.39063 0,0.0937 0,0.28125 h -4.64063 q 0.0625,1.03125 0.57813,1.57812 0.51562,0.53125 1.29687,0.53125 0.57813,0 0.98438,-0.29687 0.42187,-0.3125 0.65625,-0.96875 z m -3.45313,-1.70313 h 3.46875 q -0.0625,-0.79687 -0.39062,-1.1875 -0.51563,-0.60937 -1.3125,-0.60937 -0.73438,0 -1.23438,0.48437 -0.48437,0.48438 -0.53125,1.3125 z m 9.9082,3.70313 v -0.78125 q -0.59375,0.92187 -1.73437,0.92187 -0.75,0 -1.375,-0.40625 -0.625,-0.42187 -0.96875,-1.15625 -0.34375,-0.73437 -0.34375,-1.6875 0,-0.92187 0.3125,-1.6875 0.3125,-0.76562 0.9375,-1.15625 0.625,-0.40625 1.39062,-0.40625 0.5625,0 1,0.23438 0.4375,0.23437 0.71875,0.60937 v -3.07812 h 1.04688 v 8.59375 z m -3.32812,-3.10938 q 0,1.20313 0.5,1.79688 0.5,0.57812 1.1875,0.57812 0.6875,0 1.17187,-0.5625 0.48438,-0.5625 0.48438,-1.71875 0,-1.28125 -0.5,-1.875 -0.48438,-0.59375 -1.20313,-0.59375 -0.70312,0 -1.17187,0.57813 -0.46875,0.5625 -0.46875,1.79687 z m 10.2207,1.10938 1.09375,0.125 q -0.25,0.95312 -0.95312,1.48437 -0.70313,0.53125 -1.78125,0.53125 -1.35938,0 -2.17188,-0.84375 -0.79687,-0.84375 -0.79687,-2.35937 0,-1.5625 0.8125,-2.42188 0.8125,-0.875 2.09375,-0.875 1.25,0 2.03125,0.84375 0.79687,0.84375 0.79687,2.39063 0,0.0937 0,0.28125 h -4.64062 q 0.0625,1.03125 0.57812,1.57812 0.51563,0.53125 1.29688,0.53125 0.57812,0 0.98437,-0.29687 0.42188,-0.3125 0.65625,-0.96875 z m -3.45312,-1.70313 h 3.46875 q -0.0625,-0.79687 -0.39063,-1.1875 -0.51562,-0.60937 -1.3125,-0.60937 -0.73437,0 -1.23437,0.48437 -0.48438,0.48438 -0.53125,1.3125 z m 5.45507,1.84375 1.03125,-0.15625 q 0.0937,0.625 0.48438,0.95313 0.40625,0.32812 1.14062,0.32812 0.71875,0 1.0625,-0.28125 0.35938,-0.29687 0.35938,-0.70312 0,-0.35938 -0.3125,-0.5625 -0.21875,-0.14063 -1.07813,-0.35938 -1.15625,-0.29687 -1.60937,-0.5 -0.4375,-0.21875 -0.67188,-0.59375 -0.23437,-0.375 -0.23437,-0.84375 0,-0.40625 0.1875,-0.76562 0.1875,-0.35938 0.51562,-0.59375 0.25,-0.17188 0.67188,-0.29688 0.42187,-0.125 0.92187,-0.125 0.71875,0 1.26563,0.21875 0.5625,0.20313 0.82812,0.5625 0.26563,0.35938 0.35938,0.95313 l -1.03125,0.14062 q -0.0625,-0.46875 -0.40625,-0.73437 -0.32813,-0.28125 -0.95313,-0.28125 -0.71875,0 -1.03125,0.25 -0.3125,0.23437 -0.3125,0.5625 0,0.20312 0.125,0.35937 0.14063,0.17188 0.40625,0.28125 0.15625,0.0625 0.9375,0.26563 1.125,0.3125 1.5625,0.5 0.4375,0.1875 0.6875,0.54687 0.25,0.35938 0.25,0.90625 0,0.53125 -0.3125,1 -0.29687,0.45313 -0.875,0.71875 -0.57812,0.25 -1.3125,0.25 -1.21875,0 -1.85937,-0.5 -0.625,-0.51562 -0.79688,-1.5 z m 6.4375,4.25 V 48.72547 h 2.32813 v 0.875 h -1.26563 v 9.23437 h 1.26563 v 0.875 z m 6.99024,-2.39062 h -1.04688 v -6.71875 q -0.39062,0.35937 -1.01562,0.73437 -0.60938,0.35938 -1.09375,0.53125 v -1.01562 q 0.875,-0.42188 1.53125,-1 0.67187,-0.59375 0.95312,-1.15625 h 0.67188 z m 4.76758,2.39062 h -2.32813 v -0.875 h 1.26563 v -9.23437 h -1.26563 v -0.875 h 2.32813 z m 18.48828,-2.39062 v -5.40625 h -0.9375 v -0.8125 h 0.9375 v -0.67188 q 0,-0.625 0.10937,-0.92187 0.15625,-0.42188 0.53125,-0.67188 0.39063,-0.25 1.07813,-0.25 0.45312,0 0.98437,0.10938 l -0.15625,0.90625 q -0.32812,-0.0469 -0.625,-0.0469 -0.48437,0 -0.6875,0.20313 -0.1875,0.20312 -0.1875,0.76562 v 0.57813 h 1.21875 v 0.8125 h -1.21875 v 5.40625 z m 3.08398,-7.375 v -1.21875 h 1.0625 v 1.21875 z m 0,7.375 v -6.21875 h 1.0625 v 6.21875 z m 2.63477,0 v -8.59375 h 1.0625 v 8.59375 z m 6.94726,-2 1.09375,0.125 q -0.25,0.95312 -0.95312,1.48437 -0.70313,0.53125 -1.78125,0.53125 -1.35938,0 -2.17188,-0.84375 -0.79687,-0.84375 -0.79687,-2.35937 0,-1.5625 0.8125,-2.42188 0.8125,-0.875 2.09375,-0.875 1.25,0 2.03125,0.84375 0.79687,0.84375 0.79687,2.39063 0,0.0937 0,0.28125 h -4.64062 q 0.0625,1.03125 0.57812,1.57812 0.51563,0.53125 1.29688,0.53125 0.57812,0 0.98437,-0.29687 0.42188,-0.3125 0.65625,-0.96875 z m -3.45312,-1.70313 h 3.46875 q -0.0625,-0.79687 -0.39063,-1.1875 -0.51562,-0.60937 -1.3125,-0.60937 -0.73437,0 -1.23437,0.48437 -0.48438,0.48438 -0.53125,1.3125 z m 9.9082,3.70313 v -0.78125 q -0.59375,0.92187 -1.73437,0.92187 -0.75,0 -1.375,-0.40625 -0.625,-0.42187 -0.96875,-1.15625 -0.34375,-0.73437 -0.34375,-1.6875 0,-0.92187 0.3125,-1.6875 0.3125,-0.76562 0.9375,-1.15625 0.625,-0.40625 1.39062,-0.40625 0.5625,0 1,0.23438 0.4375,0.23437 0.71875,0.60937 v -3.07812 h 1.04688 v 8.59375 z m -3.32812,-3.10938 q 0,1.20313 0.5,1.79688 0.5,0.57812 1.1875,0.57812 0.6875,0 1.17187,-0.5625 0.48438,-0.5625 0.48438,-1.71875 0,-1.28125 -0.5,-1.875 -0.48438,-0.59375 -1.20313,-0.59375 -0.70312,0 -1.17187,0.57813 -0.46875,0.5625 -0.46875,1.79687 z m 10.2207,1.10938 1.09375,0.125 q -0.25,0.95312 -0.95313,1.48437 -0.70312,0.53125 -1.78125,0.53125 -1.35937,0 -2.17187,-0.84375 -0.79688,-0.84375 -0.79688,-2.35937 0,-1.5625 0.8125,-2.42188 0.8125,-0.875 2.09375,-0.875 1.25,0 2.03125,0.84375 0.79688,0.84375 0.79688,2.39063 0,0.0937 0,0.28125 h -4.64063 q 0.0625,1.03125 0.57813,1.57812 0.51562,0.53125 1.29687,0.53125 0.57813,0 0.98438,-0.29687 0.42187,-0.3125 0.65625,-0.96875 z m -3.45313,-1.70313 h 3.46875 q -0.0625,-0.79687 -0.39062,-1.1875 -0.51563,-0.60937 -1.3125,-0.60937 -0.73438,0 -1.23438,0.48437 -0.48437,0.48438 -0.53125,1.3125 z m 5.45508,1.84375 1.03125,-0.15625 q 0.0937,0.625 0.48438,0.95313 0.40625,0.32812 1.14062,0.32812 0.71875,0 1.0625,-0.28125 0.35938,-0.29687 0.35938,-0.70312 0,-0.35938 -0.3125,-0.5625 -0.21875,-0.14063 -1.07813,-0.35938 -1.15625,-0.29687 -1.60937,-0.5 -0.4375,-0.21875 -0.67188,-0.59375 -0.23437,-0.375 -0.23437,-0.84375 0,-0.40625 0.1875,-0.76562 0.1875,-0.35938 0.51562,-0.59375 0.25,-0.17188 0.67188,-0.29688 0.42187,-0.125 0.92187,-0.125 0.71875,0 1.26563,0.21875 0.5625,0.20313 0.82812,0.5625 0.26563,0.35938 0.35938,0.95313 l -1.03125,0.14062 q -0.0625,-0.46875 -0.40625,-0.73437 -0.32813,-0.28125 -0.95313,-0.28125 -0.71875,0 -1.03125,0.25 -0.3125,0.23437 -0.3125,0.5625 0,0.20312 0.125,0.35937 0.14063,0.17188 0.40625,0.28125 0.15625,0.0625 0.9375,0.26563 1.125,0.3125 1.5625,0.5 0.4375,0.1875 0.6875,0.54687 0.25,0.35938 0.25,0.90625 0,0.53125 -0.3125,1 -0.29687,0.45313 -0.875,0.71875 -0.57812,0.25 -1.3125,0.25 -1.21875,0 -1.85937,-0.5 -0.625,-0.51562 -0.79688,-1.5 z m 6.4375,4.25 V 48.72547 h 2.32816 v 0.875 h -1.26566 v 9.23437 h 1.26566 v 0.875 z m 3.02152,-6.625 q 0,-1.53125 0.3125,-2.45312 0.3125,-0.9375 0.92187,-1.4375 0.625,-0.5 1.5625,-0.5 0.6875,0 1.20313,0.28125 0.53125,0.28125 0.875,0.8125 0.34375,0.51562 0.53125,1.26562 0.1875,0.75 0.1875,2.03125 0,1.51563 -0.3125,2.4375 -0.29688,0.92188 -0.92188,1.4375 -0.60937,0.5 -1.5625,0.5 -1.23437,0 -1.95312,-0.89062 -0.84375,-1.0625 -0.84375,-3.48438 z m 1.07812,0 q 0,2.10938 0.5,2.8125 0.5,0.70313 1.21875,0.70313 0.73438,0 1.21875,-0.70313 0.5,-0.70312 0.5,-2.8125 0,-2.125 -0.5,-2.8125 -0.48437,-0.70312 -1.23437,-0.70312 -0.71875,0 -1.15625,0.60937 -0.54688,0.78125 -0.54688,2.90625 z m 7.65821,6.625 h -2.32813 v -0.875 h 1.26563 v -9.23437 h -1.26563 v -0.875 h 2.32813 z"
     fill-rule="nonzero"
     id="path133" />
</svg>
