<?xml version="1.0" encoding="UTF-8" standalone="no"?>
<svg
   xmlns:dc="http://purl.org/dc/elements/1.1/"
   xmlns:cc="http://creativecommons.org/ns#"
   xmlns:rdf="http://www.w3.org/1999/02/22-rdf-syntax-ns#"
   xmlns:svg="http://www.w3.org/2000/svg"
   xmlns="http://www.w3.org/2000/svg"
   xmlns:sodipodi="http://sodipodi.sourceforge.net/DTD/sodipodi-0.dtd"
   xmlns:inkscape="http://www.inkscape.org/namespaces/inkscape"
   version="1.1"
   viewBox="0 0 548.09711 215.76904"
   fill="none"
   stroke="none"
   stroke-linecap="square"
   stroke-miterlimit="10"
   id="svg73"
   sodipodi:docname="pipe-after-fork.svg"
   width="548.09711"
   height="215.76904"
   inkscape:version="1.0.1 (3bc2e813f5, 2020-09-07)">
  <metadata
     id="metadata79">
    <rdf:RDF>
      <cc:Work
         rdf:about="">
        <dc:format>image/svg+xml</dc:format>
        <dc:type
           rdf:resource="http://purl.org/dc/dcmitype/StillImage" />
      </cc:Work>
    </rdf:RDF>
  </metadata>
  <defs
     id="defs77" />
  <sodipodi:namedview
     pagecolor="#ffffff"
     bordercolor="#666666"
     borderopacity="1"
     objecttolerance="10"
     gridtolerance="10"
     guidetolerance="10"
     inkscape:pageopacity="0"
     inkscape:pageshadow="2"
     inkscape:window-width="1454"
     inkscape:window-height="804"
     id="namedview75"
     showgrid="false"
     inkscape:zoom="0.75130208"
     inkscape:cx="110.4455"
     inkscape:cy="308.83334"
     inkscape:window-x="3618"
     inkscape:window-y="117"
     inkscape:window-maximized="0"
     inkscape:current-layer="svg73" />
  <clipPath
     id="p.0">
    <path
       d="M 0,0 H 1024 V 768 H 0 Z"
       clip-rule="nonzero"
       id="path2" />
  </clipPath>
  <path
     fill="#000000"
     fill-opacity="0"
     d="m -142.67062,-75.16666 h 1024 v 768 h -1024 z"
     fill-rule="evenodd"
     id="path5" />
  <path
     fill="#b6d7a8"
     d="m 173.32151,90.50001 h 144.18896 v 124.7559 H 173.32151 Z"
     fill-rule="evenodd"
     id="path7" />
  <path
     stroke="#000000"
     stroke-width="1"
     stroke-linejoin="round"
     stroke-linecap="butt"
     d="m 173.32151,90.50001 h 144.18896 v 124.7559 H 173.32151 Z"
     fill-rule="evenodd"
     id="path9" />
  <path
     fill="#000000"
     d="m 213.98825,205.87904 v -13.375 h 1.48437 v 1.25 q 0.53125,-0.73438 1.1875,-1.09375 0.67188,-0.375 1.625,-0.375 1.23438,0 2.17188,0.64062 0.95312,0.625 1.4375,1.79688 0.48437,1.15625 0.48437,2.54687 0,1.48438 -0.53125,2.67188 -0.53125,1.1875 -1.54687,1.82812 -1.01563,0.625 -2.14063,0.625 -0.8125,0 -1.46875,-0.34375 -0.65625,-0.34375 -1.0625,-0.875 v 4.70313 z m 1.48437,-8.48438 q 0,1.85938 0.75,2.76563 0.76563,0.89062 1.82813,0.89062 1.09375,0 1.875,-0.92187 0.78125,-0.9375 0.78125,-2.875 0,-1.84375 -0.76563,-2.76563 -0.75,-0.92187 -1.8125,-0.92187 -1.04687,0 -1.85937,0.98437 -0.79688,0.96875 -0.79688,2.84375 z m 8.87574,4.78125 v -9.67187 h 1.46875 v 1.46875 q 0.5625,-1.03125 1.03125,-1.35938 0.48437,-0.32812 1.0625,-0.32812 0.82812,0 1.6875,0.53125 l -0.5625,1.51562 q -0.60938,-0.35937 -1.20313,-0.35937 -0.54687,0 -0.96875,0.32812 -0.42187,0.32813 -0.60937,0.89063 -0.28125,0.875 -0.28125,1.92187 v 5.0625 z m 5.61892,-4.84375 q 0,-2.6875 1.48438,-3.96875 1.25,-1.07812 3.04687,-1.07812 2,0 3.26563,1.3125 1.26562,1.29687 1.26562,3.60937 0,1.85938 -0.5625,2.9375 -0.5625,1.0625 -1.64062,1.65625 -1.0625,0.59375 -2.32813,0.59375 -2.03125,0 -3.28125,-1.29687 -1.25,-1.3125 -1.25,-3.76563 z m 1.6875,0 q 0,1.85938 0.79688,2.79688 0.8125,0.92187 2.04687,0.92187 1.21875,0 2.03125,-0.92187 0.8125,-0.9375 0.8125,-2.84375 0,-1.79688 -0.8125,-2.71875 -0.8125,-0.92188 -2.03125,-0.92188 -1.23437,0 -2.04687,0.92188 -0.79688,0.90625 -0.79688,2.76562 z m 15.61008,1.29688 1.60938,0.21875 q -0.26563,1.65625 -1.35938,2.60937 -1.07812,0.9375 -2.67187,0.9375 -1.98438,0 -3.1875,-1.29687 -1.20313,-1.29688 -1.20313,-3.71875 0,-1.57813 0.51563,-2.75 0.51562,-1.17188 1.57812,-1.75 1.0625,-0.59375 2.3125,-0.59375 1.57813,0 2.57813,0.79687 1,0.79688 1.28125,2.26563 l -1.59375,0.23437 q -0.23438,-0.96875 -0.8125,-1.45312 -0.57813,-0.5 -1.39063,-0.5 -1.23437,0 -2.01562,0.89062 -0.78125,0.89063 -0.78125,2.8125 0,1.95313 0.75,2.84375 0.75,0.875 1.95312,0.875 0.96875,0 1.60938,-0.59375 0.65625,-0.59375 0.82812,-1.82812 z m 9.64063,0.4375 1.6875,0.20312 q -0.40625,1.48438 -1.48438,2.3125 -1.07812,0.8125 -2.76562,0.8125 -2.125,0 -3.375,-1.29687 -1.23438,-1.3125 -1.23438,-3.67188 0,-2.45312 1.25,-3.79687 1.26563,-1.34375 3.26563,-1.34375 1.9375,0 3.15625,1.32812 1.23437,1.3125 1.23437,3.70313 0,0.15625 0,0.4375 h -7.21875 q 0.0937,1.59375 0.90625,2.45312 0.8125,0.84375 2.01563,0.84375 0.90625,0 1.54687,-0.46875 0.64063,-0.48437 1.01563,-1.51562 z m -5.39063,-2.65625 h 5.40625 q -0.10937,-1.21875 -0.625,-1.82813 -0.78125,-0.95312 -2.03125,-0.95312 -1.125,0 -1.90625,0.76562 -0.76562,0.75 -0.84375,2.01563 z m 8.48511,2.875 1.625,-0.25 q 0.125,0.96875 0.75,1.5 0.625,0.51562 1.75,0.51562 1.125,0 1.67187,-0.45312 0.54688,-0.46875 0.54688,-1.09375 0,-0.54688 -0.48438,-0.875 -0.32812,-0.21875 -1.67187,-0.54688 -1.8125,-0.46875 -2.51563,-0.79687 -0.6875,-0.32813 -1.04687,-0.90625 -0.35938,-0.59375 -0.35938,-1.3125 0,-0.64063 0.29688,-1.1875 0.29687,-0.5625 0.8125,-0.92188 0.375,-0.28125 1.03125,-0.46875 0.67187,-0.20312 1.42187,-0.20312 1.14063,0 2,0.32812 0.85938,0.32813 1.26563,0.89063 0.42187,0.5625 0.57812,1.5 l -1.60937,0.21875 q -0.10938,-0.75 -0.64063,-1.17188 -0.51562,-0.42187 -1.46875,-0.42187 -1.14062,0 -1.625,0.375 -0.46875,0.375 -0.46875,0.875 0,0.3125 0.1875,0.57812 0.20313,0.26563 0.64063,0.4375 0.23437,0.0937 1.4375,0.42188 1.75,0.45312 2.4375,0.75 0.6875,0.29687 1.07812,0.85937 0.39063,0.5625 0.39063,1.40625 0,0.82813 -0.48438,1.54688 -0.46875,0.71875 -1.375,1.125 -0.90625,0.39062 -2.04687,0.39062 -1.875,0 -2.875,-0.78125 -0.98438,-0.78125 -1.25,-2.32812 z m 9.32812,0 1.625,-0.25 q 0.125,0.96875 0.75,1.5 0.625,0.51562 1.75,0.51562 1.125,0 1.67188,-0.45312 0.54687,-0.46875 0.54687,-1.09375 0,-0.54688 -0.48437,-0.875 -0.32813,-0.21875 -1.67188,-0.54688 -1.8125,-0.46875 -2.51562,-0.79687 -0.6875,-0.32813 -1.04688,-0.90625 -0.35937,-0.59375 -0.35937,-1.3125 0,-0.64063 0.29687,-1.1875 0.29688,-0.5625 0.8125,-0.92188 0.375,-0.28125 1.03125,-0.46875 0.67188,-0.20312 1.42188,-0.20312 1.14062,0 2,0.32812 0.85937,0.32813 1.26562,0.89063 0.42188,0.5625 0.57813,1.5 l -1.60938,0.21875 q -0.10937,-0.75 -0.64062,-1.17188 -0.51563,-0.42187 -1.46875,-0.42187 -1.14063,0 -1.625,0.375 -0.46875,0.375 -0.46875,0.875 0,0.3125 0.1875,0.57812 0.20312,0.26563 0.64062,0.4375 0.23438,0.0937 1.4375,0.42188 1.75,0.45312 2.4375,0.75 0.6875,0.29687 1.07813,0.85937 0.39062,0.5625 0.39062,1.40625 0,0.82813 -0.48437,1.54688 -0.46875,0.71875 -1.375,1.125 -0.90625,0.39062 -2.04688,0.39062 -1.875,0 -2.875,-0.78125 -0.98437,-0.78125 -1.25,-2.32812 z"
     fill-rule="nonzero"
     id="path11" />
  <path
     fill="#000000"
     fill-opacity="0"
     d="m 163.09842,93.56825 h 164.62991 v 31.71654 H 163.09842 Z"
     fill-rule="evenodd"
     id="path13" />
  <path
     fill="#000000"
     d="M 196.76981,114.08825 V 108.682 h -0.9375 v -0.8125 h 0.9375 v -0.67188 q 0,-0.625 0.10937,-0.92187 0.15625,-0.42188 0.53125,-0.67188 0.39063,-0.25 1.07813,-0.25 0.45312,0 0.98437,0.10938 l -0.15625,0.90625 q -0.32812,-0.0469 -0.625,-0.0469 -0.48437,0 -0.6875,0.20313 -0.1875,0.20312 -0.1875,0.76562 v 0.57813 h 1.21875 v 0.8125 h -1.21875 v 5.40625 z m 3.08398,-7.375 v -1.21875 h 1.0625 v 1.21875 z m 0,7.375 v -6.21875 h 1.0625 v 6.21875 z m 2.63477,0 v -8.59375 h 1.0625 v 8.59375 z m 6.72852,0 V 113.307 q -0.59375,0.92187 -1.73438,0.92187 -0.75,0 -1.375,-0.40625 -0.625,-0.42187 -0.96875,-1.15625 -0.34375,-0.73437 -0.34375,-1.6875 0,-0.92187 0.3125,-1.6875 0.3125,-0.76562 0.9375,-1.15625 0.625,-0.40625 1.39063,-0.40625 0.5625,0 1,0.23438 0.4375,0.23437 0.71875,0.60937 v -3.07812 h 1.04687 v 8.59375 z m -3.32813,-3.10938 q 0,1.20313 0.5,1.79688 0.5,0.57812 1.1875,0.57812 0.6875,0 1.17188,-0.5625 0.48437,-0.5625 0.48437,-1.71875 0,-1.28125 -0.5,-1.875 -0.48437,-0.59375 -1.20312,-0.59375 -0.70313,0 -1.17188,0.57813 -0.46875,0.5625 -0.46875,1.79687 z m 10.2207,1.10938 1.09375,0.125 q -0.25,0.95312 -0.95312,1.48437 -0.70313,0.53125 -1.78125,0.53125 -1.35938,0 -2.17188,-0.84375 -0.79687,-0.84375 -0.79687,-2.35937 0,-1.5625 0.8125,-2.42188 0.8125,-0.875 2.09375,-0.875 1.25,0 2.03125,0.84375 0.79687,0.84375 0.79687,2.39063 0,0.0937 0,0.28125 h -4.64062 q 0.0625,1.03125 0.57812,1.57812 0.51563,0.53125 1.29688,0.53125 0.57812,0 0.98437,-0.29687 0.42188,-0.3125 0.65625,-0.96875 z m -3.45312,-1.70313 h 3.46875 q -0.0625,-0.79687 -0.39063,-1.1875 -0.51562,-0.60937 -1.3125,-0.60937 -0.73437,0 -1.23437,0.48437 -0.48438,0.48438 -0.53125,1.3125 z m 5.45508,1.84375 1.03125,-0.15625 q 0.0937,0.625 0.48437,0.95313 0.40625,0.32812 1.14063,0.32812 0.71875,0 1.0625,-0.28125 0.35937,-0.29687 0.35937,-0.70312 0,-0.35938 -0.3125,-0.5625 -0.21875,-0.14063 -1.07812,-0.35938 -1.15625,-0.29687 -1.60938,-0.5 -0.4375,-0.21875 -0.67187,-0.59375 -0.23438,-0.375 -0.23438,-0.84375 0,-0.40625 0.1875,-0.76562 0.1875,-0.35938 0.51563,-0.59375 0.25,-0.17188 0.67187,-0.29688 0.42188,-0.125 0.92188,-0.125 0.71875,0 1.26562,0.21875 0.5625,0.20313 0.82813,0.5625 0.26562,0.35938 0.35937,0.95313 l -1.03125,0.14062 q -0.0625,-0.46875 -0.40625,-0.73437 -0.32812,-0.28125 -0.95312,-0.28125 -0.71875,0 -1.03125,0.25 -0.3125,0.23437 -0.3125,0.5625 0,0.20312 0.125,0.35937 0.14062,0.17188 0.40625,0.28125 0.15625,0.0625 0.9375,0.26563 1.125,0.3125 1.5625,0.5 0.4375,0.1875 0.6875,0.54687 0.25,0.35938 0.25,0.90625 0,0.53125 -0.3125,1 -0.29688,0.45313 -0.875,0.71875 -0.57813,0.25 -1.3125,0.25 -1.21875,0 -1.85938,-0.5 -0.625,-0.51562 -0.79687,-1.5 z m 6.4375,4.25 V 105.4945 h 2.32812 v 0.875 h -1.26562 v 9.23437 h 1.26562 v 0.875 z m 6.99023,-2.39062 h -1.04687 v -6.71875 q -0.39063,0.35937 -1.01563,0.73437 -0.60937,0.35938 -1.09375,0.53125 v -1.01562 q 0.875,-0.42188 1.53125,-1 0.67188,-0.59375 0.95313,-1.15625 h 0.67187 z m 4.76758,2.39062 h -2.32813 v -0.875 h 1.26563 v -9.23437 h -1.26563 v -0.875 h 2.32813 z m 18.48828,-2.39062 V 108.682 h -0.9375 v -0.8125 h 0.9375 v -0.67188 q 0,-0.625 0.10937,-0.92187 0.15625,-0.42188 0.53125,-0.67188 0.39063,-0.25 1.07813,-0.25 0.45312,0 0.98437,0.10938 l -0.15625,0.90625 q -0.32812,-0.0469 -0.625,-0.0469 -0.48437,0 -0.6875,0.20313 -0.1875,0.20312 -0.1875,0.76562 v 0.57813 h 1.21875 v 0.8125 h -1.21875 v 5.40625 z m 3.08398,-7.375 v -1.21875 h 1.0625 v 1.21875 z m 0,7.375 v -6.21875 h 1.0625 v 6.21875 z m 2.63477,0 v -8.59375 h 1.0625 v 8.59375 z m 6.72852,0 V 113.307 q -0.59375,0.92187 -1.73438,0.92187 -0.75,0 -1.375,-0.40625 -0.625,-0.42187 -0.96875,-1.15625 -0.34375,-0.73437 -0.34375,-1.6875 0,-0.92187 0.3125,-1.6875 0.3125,-0.76562 0.9375,-1.15625 0.625,-0.40625 1.39063,-0.40625 0.5625,0 1,0.23438 0.4375,0.23437 0.71875,0.60937 v -3.07812 h 1.04687 v 8.59375 z m -3.32813,-3.10938 q 0,1.20313 0.5,1.79688 0.5,0.57812 1.1875,0.57812 0.6875,0 1.17188,-0.5625 0.48437,-0.5625 0.48437,-1.71875 0,-1.28125 -0.5,-1.875 -0.48437,-0.59375 -1.20312,-0.59375 -0.70313,0 -1.17188,0.57813 -0.46875,0.5625 -0.46875,1.79687 z m 10.2207,1.10938 1.09375,0.125 q -0.25,0.95312 -0.95312,1.48437 -0.70313,0.53125 -1.78125,0.53125 -1.35938,0 -2.17188,-0.84375 -0.79687,-0.84375 -0.79687,-2.35937 0,-1.5625 0.8125,-2.42188 0.8125,-0.875 2.09375,-0.875 1.25,0 2.03125,0.84375 0.79687,0.84375 0.79687,2.39063 0,0.0937 0,0.28125 h -4.64062 q 0.0625,1.03125 0.57812,1.57812 0.51563,0.53125 1.29688,0.53125 0.57812,0 0.98437,-0.29687 0.42188,-0.3125 0.65625,-0.96875 z m -3.45312,-1.70313 h 3.46875 q -0.0625,-0.79687 -0.39063,-1.1875 -0.51562,-0.60937 -1.3125,-0.60937 -0.73437,0 -1.23437,0.48437 -0.48438,0.48438 -0.53125,1.3125 z m 5.45508,1.84375 1.03125,-0.15625 q 0.0937,0.625 0.48437,0.95313 0.40625,0.32812 1.14063,0.32812 0.71875,0 1.0625,-0.28125 0.35937,-0.29687 0.35937,-0.70312 0,-0.35938 -0.3125,-0.5625 -0.21875,-0.14063 -1.07812,-0.35938 -1.15625,-0.29687 -1.60938,-0.5 -0.4375,-0.21875 -0.67187,-0.59375 -0.23438,-0.375 -0.23438,-0.84375 0,-0.40625 0.1875,-0.76562 0.1875,-0.35938 0.51563,-0.59375 0.25,-0.17188 0.67187,-0.29688 0.42188,-0.125 0.92188,-0.125 0.71875,0 1.26562,0.21875 0.5625,0.20313 0.82813,0.5625 0.26562,0.35938 0.35937,0.95313 l -1.03125,0.14062 q -0.0625,-0.46875 -0.40625,-0.73437 -0.32812,-0.28125 -0.95312,-0.28125 -0.71875,0 -1.03125,0.25 -0.3125,0.23437 -0.3125,0.5625 0,0.20312 0.125,0.35937 0.14062,0.17188 0.40625,0.28125 0.15625,0.0625 0.9375,0.26563 1.125,0.3125 1.5625,0.5 0.4375,0.1875 0.6875,0.54687 0.25,0.35938 0.25,0.90625 0,0.53125 -0.3125,1 -0.29688,0.45313 -0.875,0.71875 -0.57813,0.25 -1.3125,0.25 -1.21875,0 -1.85938,-0.5 -0.625,-0.51562 -0.79687,-1.5 z m 6.4375,4.25 V 105.4945 h 2.32812 v 0.875 H 283.637 v 9.23437 h 1.26562 v 0.875 z m 3.02148,-6.625 q 0,-1.53125 0.3125,-2.45312 0.3125,-0.9375 0.92188,-1.4375 0.625,-0.5 1.5625,-0.5 0.6875,0 1.20312,0.28125 0.53125,0.28125 0.875,0.8125 0.34375,0.51562 0.53125,1.26562 0.18753,0.75 0.18753,2.03125 0,1.51563 -0.31253,2.4375 -0.29687,0.92188 -0.92187,1.4375 -0.60938,0.5 -1.5625,0.5 -1.23438,0 -1.95313,-0.89062 -0.84375,-1.0625 -0.84375,-3.48438 z m 1.07813,0 q 0,2.10938 0.5,2.8125 0.5,0.70313 1.21875,0.70313 0.73437,0 1.21875,-0.70313 0.5,-0.70312 0.5,-2.8125 0,-2.125 -0.5,-2.8125 -0.48438,-0.70312 -1.23438,-0.70312 -0.71875,0 -1.15625,0.60937 -0.54687,0.78125 -0.54687,2.90625 z m 7.65823,6.625 h -2.32813 v -0.875 h 1.26563 v -9.23437 h -1.26563 v -0.875 h 2.32813 z"
     fill-rule="nonzero"
     id="path15" />
  <path
     fill="#f6b26b"
     d="m 173.32151,90.50001 v -10.42523 0 c 0,-11.75887 9.53244,-21.29131 21.29132,-21.29131 h 97.64178 c 5.64679,0 11.06232,2.24318 15.05524,6.23609 3.99289,3.99289 6.23606,9.40841 6.23606,15.05522 v 0 h 3.96456 l -7.9291,10.42523 -7.92914,-10.42523 h 3.96457 v 0 0 c 0,-7.37973 -5.98245,-13.36217 -13.36219,-13.36217 h -97.64178 v 0 c -7.37973,0 -13.36218,5.98244 -13.36218,13.36217 v 10.42523 z"
     fill-rule="evenodd"
     id="path17" />
  <path
     stroke="#000000"
     stroke-width="1"
     stroke-linejoin="round"
     stroke-linecap="butt"
     d="m 173.32151,90.50001 v -10.42523 0 c 0,-11.75887 9.53244,-21.29131 21.29132,-21.29131 h 97.64178 c 5.64679,0 11.06232,2.24318 15.05524,6.23609 3.99289,3.99289 6.23606,9.40841 6.23606,15.05522 v 0 h 3.96456 l -7.9291,10.42523 -7.92914,-10.42523 h 3.96457 v 0 0 c 0,-7.37973 -5.98245,-13.36217 -13.36219,-13.36217 h -97.64178 v 0 c -7.37973,0 -13.36218,5.98244 -13.36218,13.36217 v 10.42523 z"
     fill-rule="evenodd"
     id="path19" />
  <path
     fill="#fff2cc"
     d="m 389.48688,104.81497 c 3.60071,0 6.51971,-2.91896 6.51971,-6.51968 h -6.51971 c 1.80035,0 3.25983,-1.45949 3.25983,-3.25985 0,-1.80037 -1.45948,-3.25984 -3.25983,-3.25984 h 6.51971 v -84.755908 0 c 0,-3.600716 2.91895,-6.519684 6.51966,-6.519684 h 138.55121 c 3.60071,0 6.51965,2.918968 6.51965,6.519684 0,3.600723 -2.91894,6.519691 -6.51965,6.519691 h -6.51972 V 98.29529 c 0,3.60072 -2.91894,6.51968 -6.51965,6.51968 z M 409.04596,7.01969 v 0 c 0,3.600723 -2.919,6.519691 -6.51971,6.519691 -1.80036,0 -3.25983,-1.45948 -3.25983,-3.259842 0,-1.800361 1.45947,-3.259849 3.25983,-3.259849 z"
     fill-rule="evenodd"
     id="path21" />
  <path
     fill="#cbc1a3"
     d="m 409.04593,7.01969 v 0 c 0,3.600723 -2.91901,6.519691 -6.51971,6.519691 -1.80036,0 -3.25983,-1.45948 -3.25983,-3.259842 0,-1.800361 1.45947,-3.259849 3.25983,-3.259849 z m -13.03937,91.2756 c 0,3.60072 -2.919,6.51968 -6.51971,6.51968 -3.60071,0 -6.51966,-2.91896 -6.51966,-6.51968 0,-3.60072 2.91895,-6.51968 6.51966,-6.51968 v 0 c 1.80035,0 3.25982,1.45947 3.25982,3.25984 0,1.80035 -1.45947,3.25984 -3.25982,3.25984 z"
     fill-rule="evenodd"
     id="path23" />
  <path
     fill="#000000"
     fill-opacity="0"
     d="m 396.00658,91.7756 v -84.75591 0 c 0,-3.600716 2.91895,-6.519684 6.51965,-6.519684 h 138.55121 c 3.60071,0 6.51966,2.918968 6.51966,6.519684 0,3.600723 -2.91895,6.519691 -6.51966,6.519691 h -6.51971 V 98.29529 c 0,3.60072 -2.91895,6.51968 -6.51965,6.51968 H 389.48687 c -3.60071,0 -6.51966,-2.91896 -6.51966,-6.51968 0,-3.60073 2.91895,-6.51969 6.51966,-6.51969 z M 402.52623,0.5 v 0 c 3.60071,0 6.51972,2.918968 6.51972,6.519684 0,3.600723 -2.91901,6.519692 -6.51972,6.519692 -1.80035,0 -3.25982,-1.459481 -3.25982,-3.259842 0,-1.800362 1.45947,-3.25985 3.25982,-3.25985 h 6.51972 m 125.51178,6.519692 H 402.52623 M 389.48686,91.7756 v 0 c 1.80035,0 3.25983,1.45947 3.25983,3.25984 0,1.80035 -1.45948,3.25984 -3.25983,3.25984 h 6.51971 m -6.51971,6.51968 c 3.60071,0 6.51971,-2.91896 6.51971,-6.51968 V 91.7756"
     fill-rule="evenodd"
     id="path25" />
  <path
     stroke="#000000"
     stroke-width="1"
     stroke-linejoin="round"
     stroke-linecap="butt"
     d="m 396.00658,91.7756 v -84.75591 0 c 0,-3.600716 2.91895,-6.519684 6.51965,-6.519684 h 138.55121 c 3.60071,0 6.51966,2.918968 6.51966,6.519684 0,3.600723 -2.91895,6.519691 -6.51966,6.519691 h -6.51971 V 98.29529 c 0,3.60072 -2.91895,6.51968 -6.51965,6.51968 H 389.48687 c -3.60071,0 -6.51966,-2.91896 -6.51966,-6.51968 0,-3.60073 2.91895,-6.51969 6.51966,-6.51969 z M 402.52623,0.5 v 0 c 3.60071,0 6.51972,2.918968 6.51972,6.519684 0,3.600723 -2.91901,6.519692 -6.51972,6.519692 -1.80035,0 -3.25982,-1.459481 -3.25982,-3.259842 0,-1.800362 1.45947,-3.25985 3.25982,-3.25985 h 6.51972 m 125.51178,6.519692 H 402.52623 M 389.48686,91.7756 v 0 c 1.80035,0 3.25983,1.45947 3.25983,3.25984 0,1.80035 -1.45948,3.25984 -3.25983,3.25984 h 6.51971 m -6.51971,6.51968 c 3.60071,0 6.51971,-2.91896 6.51971,-6.51968 V 91.7756"
     fill-rule="evenodd"
     id="path27" />
  <path
     fill="#000000"
     d="M 420.88248,51.83733 V 38.47796 h 1.64062 v 4.79687 q 1.14063,-1.32812 2.89063,-1.32812 1.07812,0 1.85937,0.42187 0.79688,0.42188 1.14063,1.17188 0.34375,0.75 0.34375,2.17187 v 6.125 h -1.64063 v -6.125 q 0,-1.23437 -0.53125,-1.79687 -0.53125,-0.5625 -1.51562,-0.5625 -0.71875,0 -1.35938,0.39062 -0.64062,0.375 -0.92187,1.01563 -0.26563,0.64062 -0.26563,1.78125 v 5.29687 z m 16.68823,-1.1875 q -0.92187,0.76563 -1.76562,1.09375 -0.82813,0.3125 -1.79688,0.3125 -1.59375,0 -2.45312,-0.78125 -0.85938,-0.78125 -0.85938,-1.98437 0,-0.71875 0.32813,-1.29688 0.32812,-0.59375 0.84375,-0.9375 0.53125,-0.35937 1.1875,-0.54687 0.46875,-0.125 1.45312,-0.25 1.98438,-0.23438 2.92188,-0.5625 0.0156,-0.34375 0.0156,-0.42188 0,-1 -0.46875,-1.42187 -0.625,-0.54688 -1.875,-0.54688 -1.15625,0 -1.70312,0.40625 -0.54688,0.40625 -0.8125,1.42188 l -1.60938,-0.21875 q 0.21875,-1.01563 0.71875,-1.64063 0.5,-0.64062 1.45313,-0.98437 0.95312,-0.34375 2.1875,-0.34375 1.25,0 2.01562,0.29687 0.78125,0.28125 1.14063,0.73438 0.375,0.4375 0.51562,1.10937 0.0781,0.42188 0.0781,1.51563 v 2.1875 q 0,2.28125 0.10937,2.89062 0.10938,0.59375 0.40625,1.15625 h -1.70312 q -0.26563,-0.51562 -0.32813,-1.1875 z m -0.14062,-3.67187 q -0.89063,0.375 -2.67188,0.625 -1.01562,0.14062 -1.4375,0.32812 -0.42187,0.1875 -0.65625,0.53125 -0.21875,0.34375 -0.21875,0.78125 0,0.65625 0.5,1.09375 0.5,0.4375 1.45313,0.4375 0.9375,0 1.67187,-0.40625 0.75,-0.42187 1.09375,-1.14062 0.26563,-0.5625 0.26563,-1.64063 z m 4.15698,4.85937 V 38.47796 h 1.64062 v 13.35937 z m 4.58227,0 v -8.40625 h -1.45312 v -1.26562 h 1.45312 v -1.03125 q 0,-0.96875 0.17188,-1.45313 0.23437,-0.64062 0.82812,-1.03125 0.59375,-0.39062 1.67188,-0.39062 0.6875,0 1.53125,0.15625 l -0.25,1.4375 q -0.5,-0.0937 -0.95313,-0.0937 -0.75,0 -1.0625,0.32812 -0.3125,0.3125 -0.3125,1.1875 v 0.89063 h 1.89063 v 1.26562 h -1.89063 v 8.40625 z m 4.1521,-4.01562 v -1.64063 h 5.03125 v 1.64063 z m 13.1189,4.01562 v -1.21875 q -0.90625,1.4375 -2.70312,1.4375 -1.15625,0 -2.125,-0.64062 -0.96875,-0.64063 -1.5,-1.78125 -0.53125,-1.14063 -0.53125,-2.625 0,-1.45313 0.48437,-2.625 0.48438,-1.1875 1.4375,-1.8125 0.96875,-0.625 2.17188,-0.625 0.875,0 1.54687,0.375 0.6875,0.35937 1.10938,0.95312 v -4.79687 h 1.64062 v 13.35937 z m -5.17187,-4.82812 q 0,1.85937 0.78125,2.78125 0.78125,0.92187 1.84375,0.92187 1.07812,0 1.82812,-0.875 0.75,-0.89062 0.75,-2.6875 0,-1.98437 -0.76562,-2.90625 -0.76563,-0.9375 -1.89063,-0.9375 -1.07812,0 -1.8125,0.89063 -0.73437,0.89062 -0.73437,2.8125 z m 15.6101,4.82812 v -1.42187 q -1.125,1.64062 -3.0625,1.64062 -0.85937,0 -1.60937,-0.32812 -0.73438,-0.32813 -1.09375,-0.82813 -0.35938,-0.5 -0.5,-1.21875 -0.10938,-0.46875 -0.10938,-1.53125 v -5.98437 h 1.64063 v 5.35937 q 0,1.28125 0.10937,1.73438 0.15625,0.64062 0.65625,1.01562 0.5,0.375 1.23438,0.375 0.73437,0 1.375,-0.375 0.65625,-0.39062 0.92187,-1.03125 0.26563,-0.65625 0.26563,-1.89062 v -5.1875 h 1.64062 v 9.67187 z m 4.04761,3.70312 V 42.16546 h 1.48438 v 1.25 q 0.53125,-0.73438 1.1875,-1.09375 0.67187,-0.375 1.625,-0.375 1.23437,0 2.17187,0.64062 0.95313,0.625 1.4375,1.79688 0.48438,1.15625 0.48438,2.54687 0,1.48438 -0.53125,2.67188 -0.53125,1.1875 -1.54688,1.82812 -1.01562,0.625 -2.14062,0.625 -0.8125,0 -1.46875,-0.34375 -0.65625,-0.34375 -1.0625,-0.875 v 4.70312 z m 1.48438,-8.48437 q 0,1.85938 0.75,2.76563 0.76562,0.89062 1.82812,0.89062 1.09375,0 1.875,-0.92187 0.78125,-0.9375 0.78125,-2.875 0,-1.84375 -0.76562,-2.76563 -0.75,-0.92187 -1.8125,-0.92187 -1.04688,0 -1.85938,0.98437 -0.79687,0.96875 -0.79687,2.84375 z m 8.84442,4.78125 V 38.47796 h 1.64062 v 13.35937 z m 10.81671,-3.10937 1.6875,0.20312 q -0.40625,1.48438 -1.48438,2.3125 -1.07812,0.8125 -2.76562,0.8125 -2.125,0 -3.375,-1.29687 -1.23438,-1.3125 -1.23438,-3.67188 0,-2.45312 1.25,-3.79687 1.26563,-1.34375 3.26563,-1.34375 1.9375,0 3.15625,1.32812 1.23437,1.3125 1.23437,3.70313 0,0.15625 0,0.4375 h -7.21875 q 0.0937,1.59375 0.90625,2.45312 0.8125,0.84375 2.01563,0.84375 0.90625,0 1.54687,-0.46875 0.64063,-0.48437 1.01563,-1.51562 z m -5.39063,-2.65625 h 5.40625 q -0.10937,-1.21875 -0.625,-1.82813 -0.78125,-0.95312 -2.03125,-0.95312 -1.125,0 -1.90625,0.76562 -0.76562,0.75 -0.84375,2.01563 z m 8.04761,5.76562 3.53125,-5.03125 -3.26563,-4.64062 h 2.04688 l 1.48437,2.26562 q 0.42188,0.64063 0.67188,1.07813 0.40625,-0.59375 0.73437,-1.0625 l 1.64063,-2.28125 h 1.95312 l -3.34375,4.54687 3.59375,5.125 h -2.01562 l -1.98438,-3 -0.51562,-0.8125 -2.54688,3.8125 z"
     fill-rule="nonzero"
     id="path29" />
  <path
     fill="#000000"
     d="m 432.97123,60.47794 h 1.76562 v 7.71875 q 0,2.01562 -0.45312,3.20312 -0.45313,1.1875 -1.64063,1.9375 -1.1875,0.73438 -3.125,0.73438 -1.875,0 -3.07812,-0.64063 -1.1875,-0.65625 -1.70313,-1.875 -0.5,-1.23437 -0.5,-3.35937 v -7.71875 h 1.76563 v 7.71875 q 0,1.73437 0.3125,2.5625 0.32812,0.8125 1.10937,1.26562 0.79688,0.45313 1.9375,0.45313 1.95313,0 2.78125,-0.89063 0.82813,-0.89062 0.82813,-3.39062 z m 4.69171,13.35937 V 60.47794 h 1.8125 l 7.01563,10.48437 V 60.47794 h 1.6875 v 13.35937 h -1.8125 l -7.01563,-10.5 v 10.5 z m 13.78546,0 V 60.47794 h 1.76563 v 13.35937 z m 3.52704,0 5.17188,-6.95312 -4.5625,-6.40625 h 2.10937 l 2.42188,3.4375 q 0.75,1.0625 1.07812,1.625 0.4375,-0.71875 1.04688,-1.51563 l 2.6875,-3.54687 h 1.92187 l -4.6875,6.29687 5.0625,7.0625 h -2.1875 l -3.35937,-4.76562 q -0.28125,-0.40625 -0.59375,-0.89063 -0.4375,0.73438 -0.625,1 l -3.35938,4.65625 z m 18.78314,3.70313 v -13.375 h 1.48438 v 1.25 q 0.53125,-0.73438 1.1875,-1.09375 0.67187,-0.375 1.625,-0.375 1.23437,0 2.17187,0.64062 0.95313,0.625 1.4375,1.79688 0.48438,1.15625 0.48438,2.54687 0,1.48438 -0.53125,2.67188 -0.53125,1.1875 -1.54688,1.82812 -1.01562,0.625 -2.14062,0.625 -0.8125,0 -1.46875,-0.34375 -0.65625,-0.34375 -1.0625,-0.875 v 4.70313 z m 1.48438,-8.48438 q 0,1.85938 0.75,2.76563 0.76562,0.89062 1.82812,0.89062 1.09375,0 1.875,-0.92187 0.78125,-0.9375 0.78125,-2.875 0,-1.84375 -0.76562,-2.76563 -0.75,-0.92187 -1.8125,-0.92187 -1.04688,0 -1.85938,0.98437 -0.79687,0.96875 -0.79687,2.84375 z m 8.89129,-6.6875 v -1.89062 h 1.64063 v 1.89062 z m 0,11.46875 v -9.67187 h 1.64063 v 9.67187 z m 4.14484,3.70313 v -13.375 h 1.48438 v 1.25 q 0.53125,-0.73438 1.1875,-1.09375 0.67187,-0.375 1.625,-0.375 1.23437,0 2.17187,0.64062 0.95313,0.625 1.4375,1.79688 0.48438,1.15625 0.48438,2.54687 0,1.48438 -0.53125,2.67188 -0.53125,1.1875 -1.54688,1.82812 -1.01562,0.625 -2.14062,0.625 -0.8125,0 -1.46875,-0.34375 -0.65625,-0.34375 -1.0625,-0.875 v 4.70313 z m 1.48438,-8.48438 q 0,1.85938 0.75,2.76563 0.76562,0.89062 1.82812,0.89062 1.09375,0 1.875,-0.92187 0.78125,-0.9375 0.78125,-2.875 0,-1.84375 -0.76562,-2.76563 -0.75,-0.92187 -1.8125,-0.92187 -1.04688,0 -1.85938,0.98437 -0.79687,0.96875 -0.79687,2.84375 z m 15.51635,1.67188 1.6875,0.20312 q -0.40625,1.48438 -1.48437,2.3125 -1.07813,0.8125 -2.76563,0.8125 -2.125,0 -3.375,-1.29687 -1.23437,-1.3125 -1.23437,-3.67188 0,-2.45312 1.25,-3.79687 1.26562,-1.34375 3.26562,-1.34375 1.9375,0 3.15625,1.32812 1.23438,1.3125 1.23438,3.70313 0,0.15625 0,0.4375 h -7.21875 q 0.0937,1.59375 0.90625,2.45312 0.8125,0.84375 2.01562,0.84375 0.90625,0 1.54688,-0.46875 0.64062,-0.48437 1.01562,-1.51562 z m -5.39062,-2.65625 h 5.40625 q -0.10938,-1.21875 -0.625,-1.82813 -0.78125,-0.95312 -2.03125,-0.95312 -1.125,0 -1.90625,0.76562 -0.76563,0.75 -0.84375,2.01563 z"
     fill-rule="nonzero"
     id="path31" />
  <path
     fill="#000000"
     fill-opacity="0"
     d="M 396.00658,52.65749 243.43962,58.79922"
     fill-rule="evenodd"
     id="path33" />
  <path
     stroke="#000000"
     stroke-width="1"
     stroke-linejoin="round"
     stroke-linecap="butt"
     d="M 396.00658,52.65749 249.4348,58.55789"
     fill-rule="evenodd"
     id="path35" />
  <path
     fill="#000000"
     stroke="#000000"
     stroke-width="1"
     stroke-linecap="butt"
     d="m 249.36832,56.90748 -4.46799,1.83293 4.60086,1.46787 z"
     fill-rule="evenodd"
     id="path37" />
  <path
     fill="#cfe2f3"
     d="m 7.01967,163.09843 c 3.60072,0 6.51968,-2.91896 6.51968,-6.51968 H 7.01967 c 1.80035,0 3.25984,-1.45949 3.25984,-3.25985 0,-1.80037 -1.45949,-3.25984 -3.25984,-3.25984 h 6.51968 v -84.7559 0 c 0,-3.60073 2.91896,-6.51969 6.51969,-6.51969 h 97.6693 c 3.60071,0 6.51968,2.91896 6.51968,6.51969 0,3.60072 -2.91897,6.51968 -6.51968,6.51968 h -6.51969 v 84.75591 c 0,3.60072 -2.91897,6.51968 -6.51969,6.51968 z M 26.57872,65.30316 v 0 c 0,3.60072 -2.91896,6.51968 -6.51968,6.51968 -1.80037,0 -3.25984,-1.45948 -3.25984,-3.25984 0,-1.80037 1.45947,-3.25984 3.25984,-3.25984 z"
     fill-rule="evenodd"
     id="path39" />
  <path
     fill="#a5b4c2"
     d="m 26.57872,65.30316 v 0 c 0,3.60072 -2.91896,6.51968 -6.51968,6.51968 -1.80037,0 -3.25985,-1.45948 -3.25985,-3.25984 0,-1.80037 1.45948,-3.25984 3.25985,-3.25984 z m -13.03937,91.27559 c 0,3.60072 -2.91896,6.51968 -6.51968,6.51968 -3.60073,0 -6.51969,-2.91896 -6.51969,-6.51968 0,-3.60072 2.91896,-6.51968 6.51969,-6.51968 v 0 c 1.80035,0 3.25984,1.45947 3.25984,3.25984 0,1.80035 -1.45949,3.25984 -3.25984,3.25984 z"
     fill-rule="evenodd"
     id="path41" />
  <path
     fill="#000000"
     fill-opacity="0"
     d="m 13.53936,150.05906 v -84.75591 0 c 0,-3.60072 2.91896,-6.51968 6.51968,-6.51968 h 97.6693 c 3.60071,0 6.51969,2.91896 6.51969,6.51968 0,3.60073 -2.91898,6.51969 -6.51969,6.51969 h -6.51968 v 84.7559 c 0,3.60073 -2.91898,6.51969 -6.5197,6.51969 H 7.01968 c -3.60072,0 -6.51968,-2.91896 -6.51968,-6.51969 0,-3.60072 2.91896,-6.51968 6.51968,-6.51968 z m 6.51968,-91.27559 v 0 c 3.60073,0 6.51969,2.91896 6.51969,6.51968 0,3.60073 -2.91896,6.51969 -6.51969,6.51969 -1.80037,0 -3.25984,-1.45949 -3.25984,-3.25984 0,-1.80037 1.45947,-3.25985 3.25984,-3.25985 h 6.51969 m 84.62993,6.51969 H 20.05905 M 7.01968,150.05906 v 0 c 1.80035,0 3.25984,1.45947 3.25984,3.25984 0,1.80035 -1.45949,3.25984 -3.25984,3.25984 h 6.51968 m -6.51968,6.51969 c 3.60072,0 6.51968,-2.91896 6.51968,-6.51969 v -6.51968"
     fill-rule="evenodd"
     id="path43" />
  <path
     stroke="#000000"
     stroke-width="1"
     stroke-linejoin="round"
     stroke-linecap="butt"
     d="m 13.53936,150.05906 v -84.75591 0 c 0,-3.60072 2.91896,-6.51968 6.51968,-6.51968 h 97.6693 c 3.60071,0 6.51969,2.91896 6.51969,6.51968 0,3.60073 -2.91898,6.51969 -6.51969,6.51969 h -6.51968 v 84.7559 c 0,3.60073 -2.91898,6.51969 -6.5197,6.51969 H 7.01968 c -3.60072,0 -6.51968,-2.91896 -6.51968,-6.51969 0,-3.60072 2.91896,-6.51968 6.51968,-6.51968 z m 6.51968,-91.27559 v 0 c 3.60073,0 6.51969,2.91896 6.51969,6.51968 0,3.60073 -2.91896,6.51969 -6.51969,6.51969 -1.80037,0 -3.25984,-1.45949 -3.25984,-3.25984 0,-1.80037 1.45947,-3.25985 3.25984,-3.25985 h 6.51969 m 84.62993,6.51969 H 20.05905 M 7.01968,150.05906 v 0 c 1.80035,0 3.25984,1.45947 3.25984,3.25984 0,1.80035 -1.45949,3.25984 -3.25984,3.25984 h 6.51968 m -6.51968,6.51969 c 3.60072,0 6.51968,-2.91896 6.51968,-6.51969 v -6.51968"
     fill-rule="evenodd"
     id="path45" />
  <path
     fill="#000000"
     d="m 30.0154,120.34079 -2.75,-8.98438 h 1.57813 l 1.42187,5.1875 0.54688,1.92188 q 0.0312,-0.14063 0.45312,-1.84375 l 1.4375,-5.26563 h 1.5625 l 1.34375,5.20313 0.45313,1.71875 0.51562,-1.73438 1.53125,-5.1875 h 1.48438 l -2.8125,8.98438 H 35.2029 l -1.42187,-5.375 -0.35938,-1.53125 -1.8125,6.90625 z m 10.84195,0 v -8.98438 h 1.375 v 1.35938 q 0.51562,-0.95313 0.95312,-1.25 0.45313,-0.3125 0.98438,-0.3125 0.78125,0 1.5625,0.48437 l -0.51563,1.42188 q -0.5625,-0.32813 -1.125,-0.32813 -0.5,0 -0.89062,0.29688 -0.39063,0.29687 -0.5625,0.82812 -0.26563,0.8125 -0.26563,1.78125 v 4.70313 z M 46.659,109.68454 v -1.75 h 1.51562 v 1.75 z m 0,10.65625 v -8.98438 h 1.51562 v 8.98438 z m 7.16226,-1.35938 0.21875,1.34375 q -0.64062,0.14063 -1.15625,0.14063 -0.82812,0 -1.28125,-0.26563 -0.45312,-0.26562 -0.64062,-0.6875 -0.1875,-0.4375 -0.1875,-1.79687 v -5.17188 h -1.125 v -1.1875 h 1.125 v -2.21875 l 1.51562,-0.92187 v 3.14062 h 1.53125 v 1.1875 h -1.53125 v 5.25 q 0,0.65625 0.0781,0.84375 0.0781,0.1875 0.25,0.29688 0.1875,0.10937 0.53125,0.10937 0.25,0 0.67187,-0.0625 z m 7.64244,-1.53125 1.5625,0.1875 q -0.35937,1.39063 -1.375,2.15625 -1,0.75 -2.5625,0.75 -1.98437,0 -3.14062,-1.20312 -1.14063,-1.21875 -1.14063,-3.42188 0,-2.26562 1.15625,-3.51562 1.17188,-1.25 3.03125,-1.25 1.8125,0 2.95313,1.23437 1.14062,1.21875 1.14062,3.4375 0,0.14063 -0.0156,0.40625 h -6.70313 q 0.0937,1.48438 0.84375,2.28125 0.75,0.78125 1.875,0.78125 0.84375,0 1.4375,-0.4375 0.59375,-0.4375 0.9375,-1.40625 z m -5,-2.46875 h 5.01563 q -0.10938,-1.125 -0.57813,-1.70312 -0.73437,-0.875 -1.89062,-0.875 -1.04688,0 -1.76563,0.70312 -0.70312,0.70313 -0.78125,1.875 z m 19.4514,2.46875 1.5625,0.1875 q -0.35937,1.39063 -1.375,2.15625 -1,0.75 -2.5625,0.75 -1.98437,0 -3.14062,-1.20312 -1.14063,-1.21875 -1.14063,-3.42188 0,-2.26562 1.15625,-3.51562 1.17188,-1.25 3.03125,-1.25 1.8125,0 2.95313,1.23437 1.14062,1.21875 1.14062,3.4375 0,0.14063 -0.0156,0.40625 h -6.70313 q 0.0937,1.48438 0.84375,2.28125 0.75,0.78125 1.875,0.78125 0.84375,0 1.4375,-0.4375 0.59375,-0.4375 0.9375,-1.40625 z m -5,-2.46875 h 5.01563 q -0.10938,-1.125 -0.57813,-1.70312 -0.73437,-0.875 -1.89062,-0.875 -1.04688,0 -1.76563,0.70312 -0.70312,0.70313 -0.78125,1.875 z m 8.48084,5.35938 v -8.98438 h 1.375 v 1.28125 q 0.98437,-1.48437 2.85937,-1.48437 0.8125,0 1.48438,0.29687 0.6875,0.28125 1.01562,0.76563 0.34375,0.46875 0.48438,1.125 0.0781,0.42187 0.0781,1.46875 v 5.53125 h -1.51562 v -5.46875 q 0,-0.92188 -0.1875,-1.375 -0.17188,-0.46875 -0.625,-0.75 -0.45313,-0.28125 -1.0625,-0.28125 -0.96875,0 -1.67188,0.625 -0.70312,0.60937 -0.70312,2.34375 v 4.90625 z m 15.46521,0 v -1.14063 q -0.84375,1.34375 -2.51563,1.34375 -1.0625,0 -1.96875,-0.59375 -0.90625,-0.59375 -1.40625,-1.65625 -0.48437,-1.0625 -0.48437,-2.4375 0,-1.34375 0.4375,-2.4375 0.45312,-1.09375 1.34375,-1.67187 0.90625,-0.59375 2.01562,-0.59375 0.8125,0 1.4375,0.34375 0.64063,0.34375 1.04688,0.89062 v -4.45312 h 1.51562 v 12.40625 z m -4.8125,-4.48438 q 0,1.71875 0.71875,2.57813 0.73437,0.85937 1.73437,0.85937 0.98438,0 1.6875,-0.8125 0.70313,-0.82812 0.70313,-2.5 0,-1.84375 -0.71875,-2.70312 -0.70313,-0.85938 -1.75,-0.85938 -1.01563,0 -1.70313,0.82813 -0.67187,0.82812 -0.67187,2.60937 z"
     fill-rule="nonzero"
     id="path47" />
  <path
     fill="#000000"
     fill-opacity="0"
     d="M 111.20865,110.94094 177.28738,90.50001"
     fill-rule="evenodd"
     id="path49" />
  <path
     stroke="#000000"
     stroke-width="1"
     stroke-linejoin="round"
     stroke-linecap="butt"
     d="M 111.20865,110.94094 171.55536,92.27315"
     fill-rule="evenodd"
     id="path51" />
  <path
     fill="#000000"
     stroke="#000000"
     stroke-width="1"
     stroke-linecap="butt"
     d="m 172.04348,93.85112 3.84729,-2.91908 -4.82355,-0.23683 z"
     fill-rule="evenodd"
     id="path53" />
  <path
     fill="#cfe2f3"
     d="m 388.59122,215.26904 c 3.10602,0 5.62396,-2.51797 5.62396,-5.62402 h -5.62396 c 1.55298,0 2.81195,-1.25898 2.81195,-2.81202 0,-1.553 -1.25897,-2.81201 -2.81195,-2.81201 h 5.62396 v -73.1122 0 c 0,-3.10605 2.51801,-5.624 5.62403,-5.624 h 142.13385 c 3.10607,0 5.62402,2.51795 5.62402,5.624 0,3.10607 -2.51795,5.62403 -5.62402,5.62403 h -5.62397 v 73.1122 c 0,3.10605 -2.518,5.62402 -5.62402,5.62402 z m 16.87201,-84.36025 v 0 c 0,3.10607 -2.51794,5.62403 -5.62402,5.62403 v 0 c -1.55304,0 -2.81202,-1.25899 -2.81202,-2.81201 0,-1.55303 1.25898,-2.81202 2.81202,-2.81202 z"
     fill-rule="evenodd"
     id="path55" />
  <path
     fill="#a5b4c2"
     d="m 405.46323,130.90879 v 0 c 0,3.10606 -2.51794,5.62402 -5.62402,5.62402 v 0 c -1.55304,0 -2.81202,-1.25898 -2.81202,-2.81201 0,-1.55302 1.25898,-2.81201 2.81202,-2.81201 z m -11.24805,78.73622 c 0,3.10605 -2.51794,5.62402 -5.62396,5.62402 -3.10608,0 -5.62402,-2.51797 -5.62402,-5.62402 0,-3.10605 2.51794,-5.62402 5.62402,-5.62402 v 0 c 1.55298,0 2.81195,1.259 2.81195,2.81201 0,1.55304 -1.25897,2.81201 -2.81195,2.81201 z"
     fill-rule="evenodd"
     id="path57" />
  <path
     fill="#000000"
     fill-opacity="0"
     d="m 394.21518,204.02099 v -73.1122 0 c 0,-3.10605 2.51801,-5.62401 5.62402,-5.62401 h 142.13385 c 3.10608,0 5.62403,2.51796 5.62403,5.62401 0,3.10606 -2.51795,5.62402 -5.62403,5.62402 h -5.62396 v 73.1122 c 0,3.10605 -2.518,5.62403 -5.62402,5.62403 H 388.59122 c -3.10608,0 -5.62403,-2.51798 -5.62403,-5.62403 0,-3.10605 2.51795,-5.62402 5.62403,-5.62402 z m 5.62402,-78.73621 v 0 c 3.10608,0 5.62403,2.51796 5.62403,5.62401 0,3.10607 -2.51795,5.62403 -5.62403,5.62403 -1.55304,0 -2.81201,-1.25899 -2.81201,-2.81202 0,-1.55302 1.25897,-2.81201 2.81201,-2.81201 h 5.62403 m 130.88586,5.62403 H 399.8392 m -11.24799,67.48817 v 0 c 1.55298,0 2.81195,1.259 2.81195,2.81201 0,1.55304 -1.25897,2.81201 -2.81195,2.81201 h 5.62396 m -5.62396,5.62403 c 3.10602,0 5.62396,-2.51798 5.62396,-5.62403 v -5.62402"
     fill-rule="evenodd"
     id="path59" />
  <path
     stroke="#000000"
     stroke-width="1"
     stroke-linejoin="round"
     stroke-linecap="butt"
     d="m 394.21518,204.02099 v -73.1122 0 c 0,-3.10605 2.51801,-5.62401 5.62402,-5.62401 h 142.13385 c 3.10608,0 5.62403,2.51796 5.62403,5.62401 0,3.10606 -2.51795,5.62402 -5.62403,5.62402 h -5.62396 v 73.1122 c 0,3.10605 -2.518,5.62403 -5.62402,5.62403 H 388.59122 c -3.10608,0 -5.62403,-2.51798 -5.62403,-5.62403 0,-3.10605 2.51795,-5.62402 5.62403,-5.62402 z m 5.62402,-78.73621 v 0 c 3.10608,0 5.62403,2.51796 5.62403,5.62401 0,3.10607 -2.51795,5.62403 -5.62403,5.62403 -1.55304,0 -2.81201,-1.25899 -2.81201,-2.81202 0,-1.55302 1.25897,-2.81201 2.81201,-2.81201 h 5.62403 m 130.88586,5.62403 H 399.8392 m -11.24799,67.48817 v 0 c 1.55298,0 2.81195,1.259 2.81195,2.81201 0,1.55304 -1.25897,2.81201 -2.81195,2.81201 h 5.62396 m -5.62396,5.62403 c 3.10602,0 5.62396,-2.51798 5.62396,-5.62403 v -5.62402"
     fill-rule="evenodd"
     id="path61" />
  <path
     fill="#000000"
     d="m 432.20353,179.22892 v -8.98438 h 1.375 v 1.35938 q 0.51562,-0.95313 0.95312,-1.25 0.45313,-0.3125 0.98438,-0.3125 0.78125,0 1.5625,0.48437 l -0.51563,1.42188 q -0.5625,-0.32813 -1.125,-0.32813 -0.5,0 -0.89062,0.29688 -0.39063,0.29687 -0.5625,0.82812 -0.26563,0.8125 -0.26563,1.78125 v 4.70313 z m 11.94226,-2.89063 1.5625,0.1875 q -0.35937,1.39063 -1.375,2.15625 -1,0.75 -2.5625,0.75 -1.98437,0 -3.14062,-1.20312 -1.14063,-1.21875 -1.14063,-3.42188 0,-2.26562 1.15625,-3.51562 1.17188,-1.25 3.03125,-1.25 1.8125,0 2.95313,1.23437 1.14062,1.21875 1.14062,3.4375 0,0.14063 -0.0156,0.40625 h -6.70313 q 0.0937,1.48438 0.84375,2.28125 0.75,0.78125 1.875,0.78125 0.84375,0 1.4375,-0.4375 0.59375,-0.4375 0.9375,-1.40625 z m -5,-2.46875 h 5.01563 q -0.10938,-1.125 -0.57813,-1.70312 -0.73437,-0.875 -1.89062,-0.875 -1.04688,0 -1.76563,0.70312 -0.70312,0.70313 -0.78125,1.875 z m 14.34021,4.25 q -0.84375,0.71875 -1.625,1.01563 -0.78125,0.29687 -1.67187,0.29687 -1.48438,0 -2.28125,-0.71875 -0.79688,-0.73437 -0.79688,-1.85937 0,-0.65625 0.29688,-1.20313 0.3125,-0.54687 0.79687,-0.875 0.48438,-0.32812 1.09375,-0.5 0.4375,-0.10937 1.34375,-0.21875 1.84375,-0.21875 2.71875,-0.53125 0.0156,-0.3125 0.0156,-0.39062 0,-0.9375 -0.4375,-1.3125 -0.57813,-0.51563 -1.73438,-0.51563 -1.07812,0 -1.59375,0.375 -0.5,0.375 -0.75,1.32813 l -1.48437,-0.20313 q 0.20312,-0.95312 0.65625,-1.53125 0.46875,-0.59375 1.34375,-0.90625 0.89062,-0.32812 2.04687,-0.32812 1.15625,0 1.875,0.28125 0.71875,0.26562 1.04688,0.67187 0.34375,0.40625 0.48437,1.03125 0.0781,0.39063 0.0781,1.40625 v 2.03125 q 0,2.125 0.0937,2.6875 0.0937,0.5625 0.39062,1.07813 h -1.59375 q -0.23437,-0.46875 -0.3125,-1.10938 z m -0.125,-3.40625 q -0.82812,0.34375 -2.48437,0.57813 -0.9375,0.14062 -1.32813,0.3125 -0.39062,0.17187 -0.60937,0.5 -0.20313,0.3125 -0.20313,0.71875 0,0.60937 0.45313,1.01562 0.46875,0.40625 1.35937,0.40625 0.875,0 1.5625,-0.39062 0.6875,-0.39063 1.01563,-1.04688 0.23437,-0.51562 0.23437,-1.53125 z m 9.73084,4.51563 v -1.14063 q -0.84375,1.34375 -2.51563,1.34375 -1.0625,0 -1.96875,-0.59375 -0.90625,-0.59375 -1.40625,-1.65625 -0.48437,-1.0625 -0.48437,-2.4375 0,-1.34375 0.4375,-2.4375 0.45312,-1.09375 1.34375,-1.67187 0.90625,-0.59375 2.01562,-0.59375 0.8125,0 1.4375,0.34375 0.64063,0.34375 1.04688,0.89062 v -4.45312 h 1.51562 v 12.40625 z m -4.8125,-4.48438 q 0,1.71875 0.71875,2.57813 0.73437,0.85937 1.73437,0.85937 0.98438,0 1.6875,-0.8125 0.70313,-0.82812 0.70313,-2.5 0,-1.84375 -0.71875,-2.70312 -0.70313,-0.85938 -1.75,-0.85938 -1.01563,0 -1.70313,0.82813 -0.67187,0.82812 -0.67187,2.60937 z m 19.59204,1.59375 1.5625,0.1875 q -0.35938,1.39063 -1.375,2.15625 -1,0.75 -2.5625,0.75 -1.98438,0 -3.14063,-1.20312 -1.14062,-1.21875 -1.14062,-3.42188 0,-2.26562 1.15625,-3.51562 1.17187,-1.25 3.03125,-1.25 1.8125,0 2.95312,1.23437 1.14063,1.21875 1.14063,3.4375 0,0.14063 -0.0156,0.40625 h -6.70312 q 0.0937,1.48438 0.84375,2.28125 0.75,0.78125 1.875,0.78125 0.84375,0 1.4375,-0.4375 0.59375,-0.4375 0.9375,-1.40625 z m -5,-2.46875 h 5.01562 q -0.10937,-1.125 -0.57812,-1.70312 -0.73438,-0.875 -1.89063,-0.875 -1.04687,0 -1.76562,0.70312 -0.70313,0.70313 -0.78125,1.875 z m 8.48083,5.35938 v -8.98438 h 1.375 v 1.28125 q 0.98438,-1.48437 2.85938,-1.48437 0.8125,0 1.48437,0.29687 0.6875,0.28125 1.01563,0.76563 0.34375,0.46875 0.48437,1.125 0.0781,0.42187 0.0781,1.46875 v 5.53125 h -1.51563 v -5.46875 q 0,-0.92188 -0.1875,-1.375 -0.17187,-0.46875 -0.625,-0.75 -0.45312,-0.28125 -1.0625,-0.28125 -0.96875,0 -1.67187,0.625 -0.70313,0.60937 -0.70313,2.34375 v 4.90625 z m 15.46521,0 v -1.14063 q -0.84375,1.34375 -2.51562,1.34375 -1.0625,0 -1.96875,-0.59375 -0.90625,-0.59375 -1.40625,-1.65625 -0.48438,-1.0625 -0.48438,-2.4375 0,-1.34375 0.4375,-2.4375 0.45313,-1.09375 1.34375,-1.67187 0.90625,-0.59375 2.01563,-0.59375 0.8125,0 1.4375,0.34375 0.64062,0.34375 1.04687,0.89062 v -4.45312 h 1.51563 v 12.40625 z m -4.8125,-4.48438 q 0,1.71875 0.71875,2.57813 0.73438,0.85937 1.73438,0.85937 0.98437,0 1.6875,-0.8125 0.70312,-0.82812 0.70312,-2.5 0,-1.84375 -0.71875,-2.70312 -0.70312,-0.85938 -1.75,-0.85938 -1.01562,0 -1.70312,0.82813 -0.67188,0.82812 -0.67188,2.60937 z"
     fill-rule="nonzero"
     id="path63" />
  <path
     fill="#000000"
     fill-opacity="0"
     d="M 394.21518,170.27691 309.5853,90.49738"
     fill-rule="evenodd"
     id="path65" />
  <path
     stroke="#000000"
     stroke-width="1"
     stroke-linejoin="round"
     stroke-linecap="butt"
     d="M 394.21518,170.27691 313.95117,94.61306"
     fill-rule="evenodd"
     id="path67" />
  <path
     fill="#000000"
     stroke="#000000"
     stroke-width="1"
     stroke-linecap="butt"
     d="m 315.0842,93.41118 -4.43515,-1.91101 2.16913,4.31479 z"
     fill-rule="evenodd"
     id="path69" />
  <ellipse
     style="fill:none"
     id="path114"
     cx="193.14398"
     cy="101.95212"
     rx="417.80215"
     ry="178.13106" />
</svg>
