<?xml version="1.0" encoding="UTF-8" standalone="no"?>
<svg
   xmlns:dc="http://purl.org/dc/elements/1.1/"
   xmlns:cc="http://creativecommons.org/ns#"
   xmlns:rdf="http://www.w3.org/1999/02/22-rdf-syntax-ns#"
   xmlns:svg="http://www.w3.org/2000/svg"
   xmlns="http://www.w3.org/2000/svg"
   xmlns:sodipodi="http://sodipodi.sourceforge.net/DTD/sodipodi-0.dtd"
   xmlns:inkscape="http://www.inkscape.org/namespaces/inkscape"
   version="1.1"
   viewBox="0 0 442.29117 360.82678"
   fill="none"
   stroke="none"
   stroke-linecap="square"
   stroke-miterlimit="10"
   id="svg139"
   sodipodi:docname="process-list-structs.svg"
   width="442.29117"
   height="360.82678"
   inkscape:version="1.0.1 (3bc2e813f5, 2020-09-07)">
  <metadata
     id="metadata145">
    <rdf:RDF>
      <cc:Work
         rdf:about="">
        <dc:format>image/svg+xml</dc:format>
        <dc:type
           rdf:resource="http://purl.org/dc/dcmitype/StillImage" />
        <dc:title></dc:title>
      </cc:Work>
    </rdf:RDF>
  </metadata>
  <defs
     id="defs143" />
  <sodipodi:namedview
     pagecolor="#ffffff"
     bordercolor="#666666"
     borderopacity="1"
     objecttolerance="10"
     gridtolerance="10"
     guidetolerance="10"
     inkscape:pageopacity="0"
     inkscape:pageshadow="2"
     inkscape:window-width="1364"
     inkscape:window-height="747"
     id="namedview141"
     showgrid="false"
     inkscape:zoom="1.0685185"
     inkscape:cx="310.91978"
     inkscape:cy="215.51119"
     inkscape:window-x="0"
     inkscape:window-y="19"
     inkscape:window-maximized="0"
     inkscape:current-layer="svg139" />
  <clipPath
     id="p.0">
    <path
       d="M 0,0 H 720 V 540 H 0 Z"
       clip-rule="nonzero"
       id="path2" />
  </clipPath>
  <path
     fill="#000000"
     fill-opacity="0"
     d="M -24.279528,-17.053806 H 695.72047 V 522.94619 H -24.279528 Z"
     fill-rule="evenodd"
     id="path5" />
  <path
     fill="#e6b8af"
     d="M 0.5,0.5 H 186.35828 V 35.61811 H 0.5 Z"
     fill-rule="evenodd"
     id="path7" />
  <path
     stroke="#000000"
     stroke-width="1"
     stroke-linejoin="round"
     stroke-linecap="butt"
     d="M 0.5,0.5 H 186.35828 V 35.61811 H 0.5 Z"
     fill-rule="evenodd"
     id="path9" />
  <path
     fill="#000000"
     d="m 76.331472,22.887806 q -0.78125,0.671875 -1.5,0.953125 -0.71875,0.265625 -1.546875,0.265625 -1.375,0 -2.109375,-0.671875 -0.734375,-0.671875 -0.734375,-1.703125 0,-0.609375 0.28125,-1.109375 0.28125,-0.515625 0.71875,-0.8125 0.453125,-0.3125 1.015625,-0.46875 0.421875,-0.109375 1.25,-0.203125 1.703125,-0.203125 2.51563,-0.484375 0,-0.296875 0,-0.375 0,-0.859375 -0.39063,-1.203125 -0.546875,-0.484375 -1.609375,-0.484375 -0.984375,0 -1.46875,0.359375 -0.46875,0.34375 -0.6875,1.21875 l -1.375,-0.1875 q 0.1875,-0.875 0.609375,-1.421875 0.4375,-0.546875 1.25,-0.828125 0.8125,-0.296875 1.875,-0.296875 1.0625,0 1.71875,0.25 0.67188,0.25 0.98438,0.625 0.3125,0.375 0.4375,0.953125 0.0781,0.359375 0.0781,1.296875 v 1.875 q 0,1.96875 0.0781,2.484375 0.0937,0.515625 0.35937,1 h -1.46875 q -0.21875,-0.4375 -0.28125,-1.03125 z m -0.10937,-3.140625 q -0.76563,0.3125 -2.29688,0.53125 -0.875,0.125 -1.234375,0.28125 -0.359375,0.15625 -0.5625,0.46875 -0.1875,0.296875 -0.1875,0.65625 0,0.5625 0.421875,0.9375 0.4375,0.375 1.25,0.375 0.8125,0 1.4375,-0.34375 0.640625,-0.359375 0.9375,-0.984375 0.23438,-0.46875 0.23438,-1.40625 z m 3.57031,4.171875 V 12.465931 h 1.40625 v 11.453125 z m 3.55469,0 V 12.465931 h 1.40625 v 11.453125 z m 3.58593,3.1875 V 15.622181 h 1.28125 v 1.078125 q 0.45313,-0.640625 1.01563,-0.953125 0.57812,-0.3125 1.39062,-0.3125 1.0625,0 1.875,0.546875 0.8125,0.546875 1.21875,1.546875 0.42188,0.984375 0.42188,2.171875 0,1.28125 -0.46875,2.296875 -0.45313,1.015625 -1.32813,1.5625 -0.85937,0.546875 -1.82812,0.546875 -0.70313,0 -1.26563,-0.296875 -0.54687,-0.296875 -0.90625,-0.75 v 4.046875 z m 1.26563,-7.296875 q 0,1.609375 0.64062,2.375 0.65625,0.765625 1.57813,0.765625 0.9375,0 1.60937,-0.796875 0.67188,-0.796875 0.67188,-2.453125 0,-1.59375 -0.65625,-2.375 -0.65625,-0.796875 -1.5625,-0.796875 -0.89063,0 -1.59375,0.84375 -0.6875,0.84375 -0.6875,2.4375 z m 7.61719,4.109375 v -8.296875 h 1.26562 v 1.25 q 0.48438,-0.875 0.89063,-1.15625 0.40625,-0.28125 0.90625,-0.28125 0.70312,0 1.437498,0.453125 l -0.484378,1.296875 q -0.51562,-0.296875 -1.03125,-0.296875 -0.45312,0 -0.82812,0.28125 -0.35938,0.265625 -0.51563,0.765625 -0.23437,0.75 -0.23437,1.640625 v 4.34375 z m 4.812498,-4.15625 q 0,-2.296875 1.28125,-3.40625 1.07812,-0.921875 2.60938,-0.921875 1.71875,0 2.79687,1.125 1.09375,1.109375 1.09375,3.09375 0,1.59375 -0.48437,2.515625 -0.48438,0.921875 -1.40625,1.4375 -0.90625,0.5 -2,0.5 -1.73439,0 -2.81251,-1.109375 -1.07813,-1.125 -1.07812,-3.234375 z m 1.45312,0 q 0,1.59375 0.6875,2.390625 0.70313,0.796875 1.75001,0.796875 1.04687,0 1.73437,-0.796875 0.70313,-0.796875 0.70313,-2.4375 0,-1.53125 -0.70313,-2.328125 -0.6875,-0.796875 -1.73437,-0.796875 -1.04689,0 -1.75001,0.796875 -0.6875,0.78125 -0.6875,2.375 z m 13.38282,1.109375 1.39062,0.1875 q -0.23437,1.421875 -1.17187,2.234375 -0.92188,0.8125 -2.28125,0.8125 -1.70313,0 -2.75,-1.109375 -1.03125,-1.125 -1.03125,-3.203125 0,-1.34375 0.4375,-2.34375 0.45312,-1.015625 1.35937,-1.515625 0.92188,-0.5 1.98438,-0.5 1.35937,0 2.21875,0.6875 0.85937,0.671875 1.09375,1.9375 l -1.35938,0.203125 q -0.20312,-0.828125 -0.70312,-1.25 -0.48438,-0.421875 -1.1875,-0.421875 -1.0625,0 -1.73438,0.765625 -0.65625,0.75 -0.65625,2.40625 0,1.671875 0.64063,2.4375 0.64062,0.75 1.67187,0.75 0.82813,0 1.375,-0.5 0.5625,-0.515625 0.70313,-1.578125 z"
     fill-rule="nonzero"
     id="path11" />
  <path
     fill="#fce5cd"
     d="M 0.5,79.484249 H 186.35828 V 240.05117 H 0.5 Z"
     fill-rule="evenodd"
     id="path13" />
  <path
     stroke="#000000"
     stroke-width="1"
     stroke-linejoin="round"
     stroke-linecap="butt"
     d="M 0.5,79.484249 H 186.35828 V 240.05117 H 0.5 Z"
     fill-rule="evenodd"
     id="path15" />
  <path
     fill="#000000"
     fill-opacity="0"
     d="M 56.085382,89.359874 H 130.77289 V 107.75831 H 56.085382 Z"
     fill-rule="nonzero"
     id="path17" />
  <path
     fill="#000000"
     d="m 56.585382,101.35987 1.390625,-0.21875 q 0.109375,0.84375 0.640625,1.29688 0.546875,0.4375 1.5,0.4375 0.96875,0 1.4375,-0.39063 0.46875,-0.40625 0.46875,-0.9375 0,-0.46875 -0.40625,-0.75 -0.296875,-0.1875 -1.4375,-0.46875 -1.546875,-0.390616 -2.15625,-0.671866 -0.59375,-0.29688 -0.90625,-0.79688 -0.296875,-0.5 -0.296875,-1.10937 0,-0.5625 0.25,-1.03125 0.25,-0.46875 0.6875,-0.78125 0.328125,-0.25 0.890625,-0.40625 0.578125,-0.17188 1.21875,-0.17188 0.984375,0 1.71875,0.28125 0.734375,0.28125 1.078125,0.76563 0.359375,0.46875 0.5,1.28125 l -1.375,0.1875 q -0.09375,-0.64063 -0.546875,-1 -0.453125,-0.35938 -1.265625,-0.35938 -0.96875,0 -1.390625,0.32813 -0.40625,0.3125 -0.40625,0.73437 0,0.28125 0.171875,0.5 0.171875,0.21875 0.53125,0.375 0.21875,0.0781 1.25,0.35938 1.484375,0.39062 2.078125,0.65625 0.59375,0.25 0.921875,0.734366 0.34375,0.48438 0.34375,1.20313 0,0.70312 -0.421875,1.32812 -0.40625,0.60938 -1.1875,0.95313 -0.765625,0.34375 -1.734375,0.34375 -1.625,0 -2.46875,-0.67188 -0.84375,-0.67187 -1.078125,-2 z m 11.625,1.21875 0.203125,1.25 q -0.59375,0.125 -1.0625,0.125 -0.765625,0 -1.1875,-0.23437 -0.421875,-0.25 -0.59375,-0.64063 -0.171875,-0.40625 -0.171875,-1.67187 v -4.765626 h -1.03125 v -1.09375 h 1.03125 v -2.0625 l 1.40625,-0.84375 v 2.90625 h 1.40625 v 1.09375 h -1.40625 v 4.843746 q 0,0.60938 0.0625,0.78125 0.07813,0.17188 0.25,0.28125 0.171875,0.0937 0.484375,0.0937 0.234375,0 0.609375,-0.0625 z m 1.367187,1.26563 v -8.296876 h 1.265625 v 1.25 q 0.484375,-0.875 0.890625,-1.15625 0.40625,-0.28125 0.90625,-0.28125 0.703125,0 1.4375,0.45313 l -0.484375,1.29687 q -0.515625,-0.29687 -1.03125,-0.29687 -0.453125,0 -0.828125,0.28125 -0.359375,0.26562 -0.515625,0.76562 -0.234375,0.75 -0.234375,1.64063 v 4.343746 z m 10.781253,0 v -1.21875 q -0.96875,1.40625 -2.64063,1.40625 -0.73437,0 -1.375,-0.28125 -0.624998,-0.28125 -0.937498,-0.70313 -0.3125,-0.4375 -0.4375,-1.04687 -0.07813,-0.42188 -0.07813,-1.3125 v -5.140626 h 1.406258 v 4.593746 q 0,1.10938 0.0781,1.48438 0.14063,0.5625 0.5625,0.875 0.4375,0.3125 1.0625,0.3125 0.64063,0 1.1875,-0.3125 0.5625,-0.32813 0.78125,-0.89063 0.23438,-0.5625 0.23438,-1.624996 v -4.4375 h 1.40625 v 8.296876 z m 8.86718,-3.04688 1.39063,0.1875 q -0.23438,1.42188 -1.17188,2.23438 -0.92187,0.8125 -2.28125,0.8125 -1.70312,0 -2.75,-1.10938 -1.03125,-1.125 -1.03125,-3.203116 0,-1.34375 0.4375,-2.34375 0.45313,-1.01563 1.35938,-1.51563 0.92187,-0.5 1.98437,-0.5 1.35938,0 2.21875,0.6875 0.85938,0.67188 1.09375,1.9375 l -1.35937,0.20313 q -0.20313,-0.82813 -0.70313,-1.25 -0.48437,-0.42188 -1.1875,-0.42188 -1.0625,0 -1.73437,0.76563 -0.65625,0.75 -0.65625,2.40625 0,1.671866 0.64062,2.437496 0.64063,0.75 1.67188,0.75 0.82812,0 1.375,-0.5 0.5625,-0.51563 0.70312,-1.57813 z m 5.65625,1.78125 0.20313,1.25 q -0.59375,0.125 -1.0625,0.125 -0.76563,0 -1.1875,-0.23437 -0.42188,-0.25 -0.59375,-0.64063 -0.17188,-0.40625 -0.17188,-1.67187 v -4.765626 h -1.03125 v -1.09375 h 1.03125 v -2.0625 l 1.40625,-0.84375 v 2.90625 h 1.40625 v 1.09375 h -1.40625 v 4.843746 q 0,0.60938 0.0625,0.78125 0.0781,0.17188 0.25,0.28125 0.17188,0.0937 0.48438,0.0937 0.23437,0 0.60937,-0.0625 z m 5.828128,4.45313 V 95.547374 h 1.28125 v 1.07813 q 0.45312,-0.64063 1.01562,-0.95313 0.57813,-0.3125 1.39064,-0.3125 1.0625,0 1.875,0.54688 0.8125,0.54687 1.21875,1.54687 0.42187,0.98438 0.42187,2.17188 0,1.281246 -0.46875,2.296866 -0.45312,1.01563 -1.32812,1.5625 -0.85938,0.54688 -1.82813,0.54688 -0.70313,0 -1.26563,-0.29688 -0.54688,-0.29687 -0.90625,-0.75 v 4.04688 z m 1.26562,-7.296876 q 0,1.609376 0.64063,2.374996 0.65625,0.76563 1.57813,0.76563 0.9375,0 1.60938,-0.79688 0.67187,-0.79687 0.67187,-2.453116 0,-1.59375 -0.65625,-2.375 -0.65625,-0.79688 -1.5625,-0.79688 -0.89063,0 -1.59376,0.84375 -0.6875,0.84375 -0.6875,2.4375 z m 7.6172,4.109376 v -8.296876 h 1.26562 v 1.25 q 0.48438,-0.875 0.89063,-1.15625 0.40625,-0.28125 0.90625,-0.28125 0.70312,0 1.4375,0.45313 l -0.48438,1.29687 q -0.51562,-0.29687 -1.03125,-0.29687 -0.45312,0 -0.82812,0.28125 -0.35938,0.26562 -0.51563,0.76562 -0.23437,0.75 -0.23437,1.64063 v 4.343746 z m 4.8125,-4.156246 q 0,-2.29688 1.28125,-3.40625 1.07812,-0.92188 2.60937,-0.92188 1.71875,0 2.79688,1.125 1.09375,1.10938 1.09375,3.09375 0,1.593746 -0.48438,2.515626 -0.48437,0.92187 -1.40625,1.4375 -0.90625,0.5 -2,0.5 -1.73437,0 -2.8125,-1.10938 -1.07812,-1.125 -1.07812,-3.234366 z m 1.45312,0 q 0,1.593746 0.6875,2.390616 0.70313,0.79688 1.75,0.79688 1.04688,0 1.73438,-0.79688 0.70312,-0.79687 0.70312,-2.437496 0,-1.53125 -0.70312,-2.32812 -0.6875,-0.79688 -1.73438,-0.79688 -1.04687,0 -1.75,0.79688 -0.6875,0.78125 -0.6875,2.375 z m 13.38282,1.109366 1.39062,0.1875 q -0.23437,1.42188 -1.17187,2.23438 -0.92188,0.8125 -2.28125,0.8125 -1.70313,0 -2.75,-1.10938 -1.03125,-1.125 -1.03125,-3.203116 0,-1.34375 0.4375,-2.34375 0.45312,-1.01563 1.35937,-1.51563 0.92188,-0.5 1.98438,-0.5 1.35937,0 2.21875,0.6875 0.85937,0.67188 1.09375,1.9375 l -1.35938,0.20313 q -0.20312,-0.82813 -0.70312,-1.25 -0.48438,-0.42188 -1.1875,-0.42188 -1.0625,0 -1.73438,0.76563 -0.65625,0.75 -0.65625,2.40625 0,1.671866 0.64063,2.437496 0.64062,0.75 1.67187,0.75 0.82813,0 1.375,-0.5 0.5625,-0.51563 0.70313,-1.57813 z"
     fill-rule="nonzero"
     id="path19" />
  <path
     fill="#010000"
     fill-opacity="0"
     d="m 130.77288,89.359874 v 0 18.398436 0 z"
     fill-rule="nonzero"
     id="path21" />
  <path
     fill="#000000"
     d="m 56.085382,104.88425 h 74.687508 v 1.44 H 56.085382 Z"
     fill-rule="nonzero"
     id="path23" />
  <path
     fill="#cfe2f3"
     d="M 12.374012,113.04067 H 174.48424 v 25.82678 H 12.374012 Z"
     fill-rule="evenodd"
     id="path25" />
  <path
     stroke="#000000"
     stroke-width="1"
     stroke-linejoin="round"
     stroke-linecap="butt"
     d="M 12.374012,113.04067 H 174.48424 v 25.82678 H 12.374012 Z"
     fill-rule="evenodd"
     id="path27" />
  <path
     fill="#000000"
     d="m 75.815852,135.00156 v -11.48438 h 1.28125 v 1.07813 q 0.45312,-0.64063 1.01562,-0.95313 0.57813,-0.3125 1.39063,-0.3125 1.0625,0 1.875,0.54688 0.8125,0.54687 1.21875,1.54687 0.42187,0.98438 0.42187,2.17188 0,1.28125 -0.46875,2.29687 -0.45312,1.01563 -1.32812,1.5625 -0.85938,0.54688 -1.82813,0.54688 -0.70312,0 -1.26562,-0.29688 -0.54688,-0.29687 -0.90625,-0.75 v 4.04688 z m 1.26562,-7.29688 q 0,1.60938 0.64063,2.375 0.65625,0.76563 1.57812,0.76563 0.9375,0 1.60938,-0.79688 0.67187,-0.79687 0.67187,-2.45312 0,-1.59375 -0.65625,-2.375 -0.65625,-0.79688 -1.5625,-0.79688 -0.89062,0 -1.59375,0.84375 -0.6875,0.84375 -0.6875,2.4375 z m 6.32031,7.29688 v -1.01563 h 9.32813 v 1.01563 z m 10.17969,-3.1875 v -11.45313 h 1.40625 v 11.45313 z m 3.58594,-9.84375 v -1.60938 h 1.40625 v 1.60938 z m 0,9.84375 v -8.29688 h 1.40625 v 8.29688 z m 2.992188,-2.48438 1.39062,-0.21875 q 0.10938,0.84375 0.64063,1.29688 0.54687,0.4375 1.5,0.4375 0.96875,0 1.4375,-0.39063 0.46875,-0.40625 0.46875,-0.9375 0,-0.46875 -0.40625,-0.75 -0.29687,-0.1875 -1.4375,-0.46875 -1.54688,-0.39062 -2.15626,-0.67187 -0.59375,-0.29688 -0.90625,-0.79688 -0.29687,-0.5 -0.29687,-1.10937 0,-0.5625 0.25,-1.03125 0.25,-0.46875 0.6875,-0.78125 0.32812,-0.25 0.89062,-0.40625 0.57813,-0.17188 1.21875,-0.17188 0.98439,0 1.71876,0.28125 0.73438,0.28125 1.07813,0.76563 0.35937,0.46875 0.5,1.28125 l -1.375,0.1875 q -0.0937,-0.64063 -0.54688,-1 -0.45312,-0.35938 -1.26563,-0.35938 -0.96875,0 -1.39063,0.32813 -0.40625,0.3125 -0.40625,0.73437 0,0.28125 0.17188,0.5 0.17187,0.21875 0.53125,0.375 0.21875,0.0781 1.25,0.35938 1.48438,0.39062 2.07813,0.65625 0.59375,0.25 0.92188,0.73437 0.34375,0.48438 0.34375,1.20313 0,0.70312 -0.42188,1.32812 -0.40625,0.60938 -1.1875,0.95313 -0.76562,0.34375 -1.73438,0.34375 -1.625,0 -2.46875,-0.67188 -0.84375,-0.67187 -1.07812,-2 z m 11.625,1.21875 0.20313,1.25 q -0.59375,0.125 -1.0625,0.125 -0.76563,0 -1.1875,-0.23437 -0.42188,-0.25 -0.59375,-0.64063 -0.17188,-0.40625 -0.17188,-1.67187 v -4.76563 h -1.03125 v -1.09375 h 1.03125 v -2.0625 l 1.40625,-0.84375 v 2.90625 h 1.40625 v 1.09375 h -1.40625 v 4.84375 q 0,0.60938 0.0625,0.78125 0.0781,0.17188 0.25,0.28125 0.17188,0.0937 0.48438,0.0937 0.23437,0 0.60937,-0.0625 z"
     fill-rule="nonzero"
     id="path29" />
  <path
     fill="#000000"
     fill-opacity="0"
     d="M 93.429132,35.618111 V 79.492123"
     fill-rule="evenodd"
     id="path31" />
  <path
     stroke="#000000"
     stroke-width="1"
     stroke-linejoin="round"
     stroke-linecap="butt"
     d="M 93.429132,35.618111 V 73.492123"
     fill-rule="evenodd"
     id="path33" />
  <path
     fill="#000000"
     stroke="#000000"
     stroke-width="1"
     stroke-linecap="butt"
     d="m 91.777402,73.492124 1.65173,4.538101 1.65174,-4.538101 z"
     fill-rule="evenodd"
     id="path35" />
  <path
     fill="#cfe2f3"
     d="M 12.374012,146.85433 H 174.48424 V 172.6811 H 12.374012 Z"
     fill-rule="evenodd"
     id="path37" />
  <path
     stroke="#000000"
     stroke-width="1"
     stroke-linejoin="round"
     stroke-linecap="butt"
     d="M 12.374012,146.85433 H 174.48424 V 172.6811 H 12.374012 Z"
     fill-rule="evenodd"
     id="path39" />
  <path
     fill="#000000"
     d="m 58.909597,168.81521 v -11.48438 h 1.28125 v 1.07813 q 0.453125,-0.64063 1.015625,-0.95313 0.578125,-0.3125 1.390625,-0.3125 1.0625,0 1.875,0.54688 0.8125,0.54687 1.21875,1.54687 0.421875,0.98438 0.421875,2.17188 0,1.28125 -0.46875,2.29687 -0.453125,1.01563 -1.328125,1.5625 -0.859375,0.54688 -1.828125,0.54688 -0.703125,0 -1.265625,-0.29688 -0.546875,-0.29687 -0.90625,-0.75 v 4.04688 z m 1.265625,-7.29688 q 0,1.60938 0.640625,2.375 0.65625,0.76563 1.578125,0.76563 0.9375,0 1.609375,-0.79688 0.671875,-0.79687 0.671875,-2.45312 0,-1.59375 -0.65625,-2.375 -0.65625,-0.79688 -1.5625,-0.79688 -0.890625,0 -1.59375,0.84375 -0.6875,0.84375 -0.6875,2.4375 z m 6.320313,7.29688 v -1.01563 h 9.328127 v 1.01563 z m 13.273437,-4.45313 0.20313,1.25 q -0.59375,0.125 -1.0625,0.125 -0.76563,0 -1.1875,-0.23437 -0.42188,-0.25 -0.59375,-0.64063 -0.17188,-0.40625 -0.17188,-1.67187 v -4.76563 h -1.03125 v -1.09375 h 1.03125 v -2.0625 l 1.40625,-0.84375 v 2.90625 h 1.40625 v 1.09375 h -1.40625 v 4.84375 q 0,0.60938 0.0625,0.78125 0.0781,0.17188 0.25,0.28125 0.17188,0.0937 0.48438,0.0937 0.23437,0 0.60937,-0.0625 z m 1.38281,1.26563 v -11.45313 h 1.40625 v 4.10938 q 0.98438,-1.14063 2.48438,-1.14063 0.92187,0 1.59375,0.35938 0.6875,0.35937 0.96875,1 0.29687,0.64062 0.29687,1.85937 v 5.26563 h -1.40625 v -5.26563 q 0,-1.04687 -0.45312,-1.53125 -0.45313,-0.48437 -1.29688,-0.48437 -0.625,0 -1.17187,0.32812 -0.54688,0.32813 -0.78125,0.89063 -0.23438,0.54687 -0.23438,1.51562 v 4.54688 z m 8.88282,0 v -8.29688 h 1.26562 v 1.25 q 0.48438,-0.875 0.89063,-1.15625 0.40625,-0.28125 0.90625,-0.28125 0.70312,0 1.4375,0.45313 l -0.48438,1.29687 q -0.51562,-0.29687 -1.03125,-0.29687 -0.45312,0 -0.82812,0.28125 -0.35938,0.26562 -0.51563,0.76562 -0.23437,0.75 -0.23437,1.64063 v 4.34375 z m 11.015618,-2.67188 1.45313,0.17188 q -0.34375,1.28125 -1.28125,1.98437 -0.92188,0.70313 -2.359378,0.70313 -1.82812,0 -2.89062,-1.125 -1.0625,-1.125 -1.0625,-3.14063 0,-2.09375 1.07812,-3.25 1.07813,-1.15625 2.79688,-1.15625 1.656248,0 2.703118,1.14063 1.0625,1.125 1.0625,3.17187 0,0.125 0,0.375 h -6.187498 q 0.0781,1.375 0.76563,2.10938 0.70312,0.71875 1.73437,0.71875 0.78125,0 1.328128,-0.40625 0.54687,-0.40625 0.85937,-1.29688 z m -4.609368,-2.28125 h 4.624998 q -0.0937,-1.04687 -0.53125,-1.5625 -0.671878,-0.8125 -1.734378,-0.8125 -0.96875,0 -1.64062,0.65625 -0.65625,0.64063 -0.71875,1.71875 z m 13.242188,3.92188 q -0.78125,0.67187 -1.5,0.95312 -0.71875,0.26563 -1.54688,0.26563 -1.375,0 -2.10937,-0.67188 -0.73438,-0.67187 -0.73438,-1.70312 0,-0.60938 0.28125,-1.10938 0.28125,-0.51562 0.71875,-0.8125 0.45313,-0.3125 1.01563,-0.46875 0.42187,-0.10937 1.25,-0.20312 1.70312,-0.20313 2.51562,-0.48438 0,-0.29687 0,-0.375 0,-0.85937 -0.39062,-1.20312 -0.54688,-0.48438 -1.60938,-0.48438 -0.98437,0 -1.46875,0.35938 -0.46875,0.34375 -0.6875,1.21875 l -1.375,-0.1875 q 0.1875,-0.875 0.60938,-1.42188 0.4375,-0.54687 1.25,-0.82812 0.8125,-0.29688 1.875,-0.29688 1.0625,0 1.71875,0.25 0.67187,0.25 0.98437,0.625 0.3125,0.375 0.4375,0.95313 0.0781,0.35937 0.0781,1.29687 v 1.875 q 0,1.96875 0.0781,2.48438 0.0937,0.51562 0.35938,1 h -1.46875 q -0.21875,-0.4375 -0.28125,-1.03125 z m -0.10938,-3.14063 q -0.76562,0.3125 -2.29687,0.53125 -0.875,0.125 -1.23438,0.28125 -0.35937,0.15625 -0.5625,0.46875 -0.1875,0.29688 -0.1875,0.65625 0,0.5625 0.42188,0.9375 0.4375,0.375 1.25,0.375 0.8125,0 1.4375,-0.34375 0.64062,-0.35937 0.9375,-0.98437 0.23437,-0.46875 0.23437,-1.40625 z m 8.97657,4.17188 v -1.04688 q -0.78125,1.23438 -2.3125,1.23438 -1,0 -1.82813,-0.54688 -0.82812,-0.54687 -1.29687,-1.53125 -0.45313,-0.98437 -0.45313,-2.25 0,-1.25 0.40625,-2.25 0.42188,-1.01562 1.25,-1.54687 0.82813,-0.54688 1.85938,-0.54688 0.75,0 1.32812,0.3125 0.59375,0.3125 0.95313,0.82813 v -4.10938 h 1.40625 v 11.45313 z m -4.4375,-4.14063 q 0,1.59375 0.67187,2.39063 0.67188,0.78125 1.57813,0.78125 0.92187,0 1.5625,-0.75 0.65625,-0.76563 0.65625,-2.3125 0,-1.70313 -0.65625,-2.5 -0.65625,-0.79688 -1.625,-0.79688 -0.9375,0 -1.5625,0.76563 -0.625,0.76562 -0.625,2.42187 z m 7.39843,1.65625 1.39063,-0.21875 q 0.10937,0.84375 0.64062,1.29688 0.54688,0.4375 1.5,0.4375 0.96875,0 1.4375,-0.39063 0.46875,-0.40625 0.46875,-0.9375 0,-0.46875 -0.40625,-0.75 -0.29687,-0.1875 -1.4375,-0.46875 -1.54687,-0.39062 -2.15625,-0.67187 -0.59375,-0.29688 -0.90625,-0.79688 -0.29687,-0.5 -0.29687,-1.10937 0,-0.5625 0.25,-1.03125 0.25,-0.46875 0.6875,-0.78125 0.32812,-0.25 0.89062,-0.40625 0.57813,-0.17188 1.21875,-0.17188 0.98438,0 1.71875,0.28125 0.73438,0.28125 1.07813,0.76563 0.35937,0.46875 0.5,1.28125 l -1.375,0.1875 q -0.0937,-0.64063 -0.54688,-1 -0.45312,-0.35938 -1.26562,-0.35938 -0.96875,0 -1.39063,0.32813 -0.40625,0.3125 -0.40625,0.73437 0,0.28125 0.17188,0.5 0.17187,0.21875 0.53125,0.375 0.21875,0.0781 1.25,0.35938 1.48437,0.39062 2.07812,0.65625 0.59375,0.25 0.92188,0.73437 0.34375,0.48438 0.34375,1.20313 0,0.70312 -0.42188,1.32812 -0.40625,0.60938 -1.1875,0.95313 -0.76562,0.34375 -1.73437,0.34375 -1.625,0 -2.46875,-0.67188 -0.84375,-0.67187 -1.07813,-2 z"
     fill-rule="nonzero"
     id="path41" />
  <path
     fill="#cfe2f3"
     d="M 12.374012,180.66798 H 174.48424 v 25.82677 H 12.374012 Z"
     fill-rule="evenodd"
     id="path43" />
  <path
     stroke="#000000"
     stroke-width="1"
     stroke-linejoin="round"
     stroke-linecap="butt"
     d="M 12.374012,180.66798 H 174.48424 v 25.82677 H 12.374012 Z"
     fill-rule="evenodd"
     id="path45" />
  <path
     fill="#000000"
     d="m 74.917412,202.62887 v -11.48438 h 1.28125 v 1.07813 q 0.45312,-0.64063 1.01562,-0.95313 0.57813,-0.3125 1.39063,-0.3125 1.0625,0 1.875,0.54688 0.8125,0.54687 1.21875,1.54687 0.42187,0.98438 0.42187,2.17188 0,1.28125 -0.46875,2.29687 -0.45312,1.01563 -1.32812,1.5625 -0.85938,0.54688 -1.82813,0.54688 -0.70312,0 -1.26562,-0.29688 -0.54688,-0.29687 -0.90625,-0.75 v 4.04688 z m 1.26562,-7.29688 q 0,1.60938 0.64063,2.375 0.65625,0.76563 1.57812,0.76563 0.9375,0 1.60938,-0.79688 0.67187,-0.79687 0.67187,-2.45312 0,-1.59375 -0.65625,-2.375 -0.65625,-0.79688 -1.5625,-0.79688 -0.89062,0 -1.59375,0.84375 -0.6875,0.84375 -0.6875,2.4375 z m 6.32032,7.29688 v -1.01563 h 9.32812 v 1.01563 z m 10.21093,0 v -11.48438 h 1.28125 v 1.07813 q 0.45313,-0.64063 1.01563,-0.95313 0.57812,-0.3125 1.39062,-0.3125 1.0625,0 1.875,0.54688 0.8125,0.54687 1.21875,1.54687 0.42188,0.98438 0.42188,2.17188 0,1.28125 -0.46875,2.29687 -0.45313,1.01563 -1.32813,1.5625 -0.85937,0.54688 -1.82812,0.54688 -0.70313,0 -1.26563,-0.29688 -0.54687,-0.29687 -0.90625,-0.75 v 4.04688 z m 1.26563,-7.29688 q 0,1.60938 0.64062,2.375 0.65625,0.76563 1.57813,0.76563 0.9375,0 1.60937,-0.79688 0.67188,-0.79687 0.67188,-2.45312 0,-1.59375 -0.65625,-2.375 -0.65625,-0.79688 -1.5625,-0.79688 -0.89063,0 -1.59375,0.84375 -0.6875,0.84375 -0.6875,2.4375 z m 7.632808,-5.73437 v -1.60938 h 1.40625 v 1.60938 z m 0,9.84375 v -8.29688 h 1.40625 v 8.29688 z m 8.9297,0 v -1.04688 q -0.78125,1.23438 -2.3125,1.23438 -1,0 -1.82813,-0.54688 -0.82812,-0.54687 -1.29687,-1.53125 -0.45313,-0.98437 -0.45313,-2.25 0,-1.25 0.40625,-2.25 0.42188,-1.01562 1.25,-1.54687 0.82813,-0.54688 1.85938,-0.54688 0.75,0 1.32812,0.3125 0.59375,0.3125 0.95313,0.82813 v -4.10938 h 1.40625 v 11.45313 z m -4.4375,-4.14063 q 0,1.59375 0.67187,2.39063 0.67188,0.78125 1.57813,0.78125 0.92187,0 1.5625,-0.75 0.65625,-0.76563 0.65625,-2.3125 0,-1.70313 -0.65625,-2.5 -0.65625,-0.79688 -1.625,-0.79688 -0.9375,0 -1.5625,0.76563 -0.625,0.76562 -0.625,2.42187 z"
     fill-rule="nonzero"
     id="path47" />
  <path
     fill="#000000"
     fill-opacity="0"
     d="M 12.374012,214.48162 H 174.48424 V 240.3084 H 12.374012 Z"
     fill-rule="evenodd"
     id="path49" />
  <path
     fill="#000000"
     d="m 87.304132,233.25501 v -1.60938 h 1.59375 v 1.60938 z m 5.32812,0 v -1.60938 h 1.60938 v 1.60938 z m 5.32813,0 v -1.60938 h 1.60937 v 1.60938 z"
     fill-rule="nonzero"
     id="path51" />
  <path
     fill="#fce5cd"
     d="m 0.5,283.91732 h 185.85828 v 76.40945 H 0.5 Z"
     fill-rule="evenodd"
     id="path53" />
  <path
     stroke="#000000"
     stroke-width="1"
     stroke-linejoin="round"
     stroke-linecap="butt"
     d="m 0.5,283.91732 h 185.85828 v 76.40945 H 0.5 Z"
     fill-rule="evenodd"
     id="path55" />
  <path
     fill="#000000"
     fill-opacity="0"
     d="m 56.085382,293.79293 h 74.687508 v 18.39844 H 56.085382 Z"
     fill-rule="nonzero"
     id="path57" />
  <path
     fill="#000000"
     d="m 56.585382,305.79293 1.390625,-0.21875 q 0.109375,0.84375 0.640625,1.29687 0.546875,0.4375 1.5,0.4375 0.96875,0 1.4375,-0.39062 0.46875,-0.40625 0.46875,-0.9375 0,-0.46875 -0.40625,-0.75 -0.296875,-0.1875 -1.4375,-0.46875 -1.546875,-0.39063 -2.15625,-0.67188 -0.59375,-0.29687 -0.90625,-0.79687 -0.296875,-0.5 -0.296875,-1.10938 0,-0.5625 0.25,-1.03125 0.25,-0.46875 0.6875,-0.78125 0.328125,-0.25 0.890625,-0.40625 0.578125,-0.17187 1.21875,-0.17187 0.984375,0 1.71875,0.28125 0.734375,0.28125 1.078125,0.76562 0.359375,0.46875 0.5,1.28125 l -1.375,0.1875 q -0.09375,-0.64062 -0.546875,-1 -0.453125,-0.35937 -1.265625,-0.35937 -0.96875,0 -1.390625,0.32812 -0.40625,0.3125 -0.40625,0.73438 0,0.28125 0.171875,0.5 0.171875,0.21875 0.53125,0.375 0.21875,0.0781 1.25,0.35937 1.484375,0.39063 2.078125,0.65625 0.59375,0.25 0.921875,0.73438 0.34375,0.48437 0.34375,1.20312 0,0.70313 -0.421875,1.32813 -0.40625,0.60937 -1.1875,0.95312 -0.765625,0.34375 -1.734375,0.34375 -1.625,0 -2.46875,-0.67187 -0.84375,-0.67188 -1.078125,-2 z m 11.625,1.21875 0.203125,1.25 q -0.59375,0.125 -1.0625,0.125 -0.765625,0 -1.1875,-0.23438 -0.421875,-0.25 -0.59375,-0.64062 -0.171875,-0.40625 -0.171875,-1.67188 v -4.76562 h -1.03125 v -1.09375 h 1.03125 v -2.0625 l 1.40625,-0.84375 v 2.90625 h 1.40625 v 1.09375 h -1.40625 v 4.84375 q 0,0.60937 0.0625,0.78125 0.07813,0.17187 0.25,0.28125 0.171875,0.0937 0.484375,0.0937 0.234375,0 0.609375,-0.0625 z m 1.367187,1.26562 v -8.29687 h 1.265625 v 1.25 q 0.484375,-0.875 0.890625,-1.15625 0.40625,-0.28125 0.90625,-0.28125 0.703125,0 1.4375,0.45312 l -0.484375,1.29688 q -0.515625,-0.29688 -1.03125,-0.29688 -0.453125,0 -0.828125,0.28125 -0.359375,0.26563 -0.515625,0.76563 -0.234375,0.75 -0.234375,1.64062 v 4.34375 z m 10.781253,0 v -1.21875 q -0.96875,1.40625 -2.64063,1.40625 -0.73437,0 -1.375,-0.28125 -0.624998,-0.28125 -0.937498,-0.70312 -0.3125,-0.4375 -0.4375,-1.04688 -0.07813,-0.42187 -0.07813,-1.3125 v -5.14062 h 1.406258 v 4.59375 q 0,1.10937 0.0781,1.48437 0.14063,0.5625 0.5625,0.875 0.4375,0.3125 1.0625,0.3125 0.64063,0 1.1875,-0.3125 0.5625,-0.32812 0.78125,-0.89062 0.23438,-0.5625 0.23438,-1.625 v -4.4375 h 1.40625 v 8.29687 z m 8.86718,-3.04687 1.39063,0.1875 q -0.23438,1.42187 -1.17188,2.23437 -0.92187,0.8125 -2.28125,0.8125 -1.70312,0 -2.75,-1.10937 -1.03125,-1.125 -1.03125,-3.20313 0,-1.34375 0.4375,-2.34375 0.45313,-1.01562 1.35938,-1.51562 0.92187,-0.5 1.98437,-0.5 1.35938,0 2.21875,0.6875 0.85938,0.67187 1.09375,1.9375 l -1.35937,0.20312 q -0.20313,-0.82812 -0.70313,-1.25 -0.48437,-0.42187 -1.1875,-0.42187 -1.0625,0 -1.73437,0.76562 -0.65625,0.75 -0.65625,2.40625 0,1.67188 0.64062,2.4375 0.64063,0.75 1.67188,0.75 0.82812,0 1.375,-0.5 0.5625,-0.51562 0.70312,-1.57812 z m 5.65625,1.78125 0.20313,1.25 q -0.59375,0.125 -1.0625,0.125 -0.76563,0 -1.1875,-0.23438 -0.42188,-0.25 -0.59375,-0.64062 -0.17188,-0.40625 -0.17188,-1.67188 v -4.76562 h -1.03125 v -1.09375 h 1.03125 v -2.0625 l 1.40625,-0.84375 v 2.90625 h 1.40625 v 1.09375 h -1.40625 v 4.84375 q 0,0.60937 0.0625,0.78125 0.0781,0.17187 0.25,0.28125 0.17188,0.0937 0.48438,0.0937 0.23437,0 0.60937,-0.0625 z m 5.828128,4.45312 v -11.48437 h 1.28125 v 1.07812 q 0.45312,-0.64062 1.01562,-0.95312 0.57813,-0.3125 1.39064,-0.3125 1.0625,0 1.875,0.54687 0.8125,0.54688 1.21875,1.54688 0.42187,0.98437 0.42187,2.17187 0,1.28125 -0.46875,2.29688 -0.45312,1.01562 -1.32812,1.5625 -0.85938,0.54687 -1.82813,0.54687 -0.70313,0 -1.26563,-0.29687 -0.54688,-0.29688 -0.90625,-0.75 v 4.04687 z m 1.26562,-7.29687 q 0,1.60937 0.64063,2.375 0.65625,0.76562 1.57813,0.76562 0.9375,0 1.60938,-0.79687 0.67187,-0.79688 0.67187,-2.45313 0,-1.59375 -0.65625,-2.375 -0.65625,-0.79687 -1.5625,-0.79687 -0.89063,0 -1.59376,0.84375 -0.6875,0.84375 -0.6875,2.4375 z m 7.6172,4.10937 v -8.29687 h 1.26562 v 1.25 q 0.48438,-0.875 0.89063,-1.15625 0.40625,-0.28125 0.90625,-0.28125 0.70312,0 1.4375,0.45312 l -0.48438,1.29688 q -0.51562,-0.29688 -1.03125,-0.29688 -0.45312,0 -0.82812,0.28125 -0.35938,0.26563 -0.51563,0.76563 -0.23437,0.75 -0.23437,1.64062 v 4.34375 z m 4.8125,-4.15625 q 0,-2.29687 1.28125,-3.40625 1.07812,-0.92187 2.60937,-0.92187 1.71875,0 2.79688,1.125 1.09375,1.10937 1.09375,3.09375 0,1.59375 -0.48438,2.51562 -0.48437,0.92188 -1.40625,1.4375 -0.90625,0.5 -2,0.5 -1.73437,0 -2.8125,-1.10937 -1.07812,-1.125 -1.07812,-3.23438 z m 1.45312,0 q 0,1.59375 0.6875,2.39063 0.70313,0.79687 1.75,0.79687 1.04688,0 1.73438,-0.79687 0.70312,-0.79688 0.70312,-2.4375 0,-1.53125 -0.70312,-2.32813 -0.6875,-0.79687 -1.73438,-0.79687 -1.04687,0 -1.75,0.79687 -0.6875,0.78125 -0.6875,2.375 z m 13.38282,1.10938 1.39062,0.1875 q -0.23437,1.42187 -1.17187,2.23437 -0.92188,0.8125 -2.28125,0.8125 -1.70313,0 -2.75,-1.10937 -1.03125,-1.125 -1.03125,-3.20313 0,-1.34375 0.4375,-2.34375 0.45312,-1.01562 1.35937,-1.51562 0.92188,-0.5 1.98438,-0.5 1.35937,0 2.21875,0.6875 0.85937,0.67187 1.09375,1.9375 l -1.35938,0.20312 q -0.20312,-0.82812 -0.70312,-1.25 -0.48438,-0.42187 -1.1875,-0.42187 -1.0625,0 -1.73438,0.76562 -0.65625,0.75 -0.65625,2.40625 0,1.67188 0.64063,2.4375 0.64062,0.75 1.67187,0.75 0.82813,0 1.375,-0.5 0.5625,-0.51562 0.70313,-1.57812 z"
     fill-rule="nonzero"
     id="path59" />
  <path
     fill="#000000"
     fill-opacity="0"
     d="m 130.77288,293.79293 v 0 18.39844 0 z"
     fill-rule="nonzero"
     id="path61" />
  <path
     fill="#000000"
     d="m 56.085382,309.31731 h 74.687508 v 1.44 H 56.085382 Z"
     fill-rule="nonzero"
     id="path63" />
  <path
     fill="#000000"
     fill-opacity="0"
     d="M 12.374012,315.92257 H 174.48424 v 25.82678 H 12.374012 Z"
     fill-rule="evenodd"
     id="path65" />
  <path
     fill="#000000"
     d="m 87.304132,334.69595 v -1.60938 h 1.59375 v 1.60938 z m 5.32812,0 v -1.60938 h 1.60938 v 1.60938 z m 5.32813,0 v -1.60938 h 1.60937 v 1.60938 z"
     fill-rule="nonzero"
     id="path67" />
  <path
     fill="#000000"
     fill-opacity="0"
     d="m 174.48425,125.95406 h 24.99982 V 258.62648 H 93.413392 v 25.28033"
     fill-rule="evenodd"
     id="path69" />
  <path
     stroke="#000000"
     stroke-width="1"
     stroke-linejoin="round"
     stroke-linecap="butt"
     d="m 174.48425,125.95406 h 24.99982 v 132.6724 H 93.413392 v 19.28037"
     fill-rule="evenodd"
     id="path71" />
  <path
     fill="#000000"
     stroke="#000000"
     stroke-width="1"
     stroke-linecap="butt"
     d="m 91.761652,277.90682 1.65173,4.53809 1.65173,-4.53809 z"
     fill-rule="evenodd"
     id="path73" />
  <path
     fill="#ead1dc"
     d="M 242.79133,79.484249 H 428.64961 V 240.05117 H 242.79133 Z"
     fill-rule="evenodd"
     id="path75" />
  <path
     stroke="#000000"
     stroke-width="1"
     stroke-linejoin="round"
     stroke-linecap="butt"
     d="M 242.79133,79.484249 H 428.64961 V 240.05117 H 242.79133 Z"
     fill-rule="evenodd"
     id="path77" />
  <path
     fill="#000000"
     fill-opacity="0"
     d="m 291.25563,89.359874 h 88.92969 v 18.398436 h -88.92969 z"
     fill-rule="nonzero"
     id="path79" />
  <path
     fill="#000000"
     d="m 291.75563,101.35987 1.39063,-0.21875 q 0.10937,0.84375 0.64062,1.29688 0.54688,0.4375 1.5,0.4375 0.96875,0 1.4375,-0.39063 0.46875,-0.40625 0.46875,-0.9375 0,-0.46875 -0.40625,-0.75 -0.29687,-0.1875 -1.4375,-0.46875 -1.54687,-0.390616 -2.15625,-0.671866 -0.59375,-0.29688 -0.90625,-0.79688 -0.29687,-0.5 -0.29687,-1.10937 0,-0.5625 0.25,-1.03125 0.25,-0.46875 0.6875,-0.78125 0.32812,-0.25 0.89062,-0.40625 0.57813,-0.17188 1.21875,-0.17188 0.98438,0 1.71875,0.28125 0.73438,0.28125 1.07813,0.76563 0.35937,0.46875 0.5,1.28125 l -1.375,0.1875 q -0.0937,-0.64063 -0.54688,-1 -0.45312,-0.35938 -1.26562,-0.35938 -0.96875,0 -1.39063,0.32813 -0.40625,0.3125 -0.40625,0.73437 0,0.28125 0.17188,0.5 0.17187,0.21875 0.53125,0.375 0.21875,0.0781 1.25,0.35938 1.48437,0.39062 2.07812,0.65625 0.59375,0.25 0.92188,0.734366 0.34375,0.48438 0.34375,1.20313 0,0.70312 -0.42188,1.32812 -0.40625,0.60938 -1.1875,0.95313 -0.76562,0.34375 -1.73437,0.34375 -1.625,0 -2.46875,-0.67188 -0.84375,-0.67187 -1.07813,-2 z m 11.625,1.21875 0.20313,1.25 q -0.59375,0.125 -1.0625,0.125 -0.76563,0 -1.1875,-0.23437 -0.42188,-0.25 -0.59375,-0.64063 -0.17188,-0.40625 -0.17188,-1.67187 v -4.765626 h -1.03125 v -1.09375 h 1.03125 v -2.0625 l 1.40625,-0.84375 v 2.90625 h 1.40625 v 1.09375 h -1.40625 v 4.843746 q 0,0.60938 0.0625,0.78125 0.0781,0.17188 0.25,0.28125 0.17188,0.0937 0.48438,0.0937 0.23437,0 0.60937,-0.0625 z m 1.36719,1.26563 v -8.296876 h 1.26562 v 1.25 q 0.48438,-0.875 0.89063,-1.15625 0.40625,-0.28125 0.90625,-0.28125 0.70312,0 1.4375,0.45313 l -0.48438,1.29687 q -0.51562,-0.29687 -1.03125,-0.29687 -0.45312,0 -0.82812,0.28125 -0.35938,0.26562 -0.51563,0.76562 -0.23437,0.75 -0.23437,1.64063 v 4.343746 z m 10.78125,0 v -1.21875 q -0.96875,1.40625 -2.64063,1.40625 -0.73437,0 -1.375,-0.28125 -0.625,-0.28125 -0.9375,-0.70313 -0.3125,-0.4375 -0.4375,-1.04687 -0.0781,-0.42188 -0.0781,-1.3125 v -5.140626 h 1.40625 v 4.593746 q 0,1.10938 0.0781,1.48438 0.14063,0.5625 0.5625,0.875 0.4375,0.3125 1.0625,0.3125 0.64063,0 1.1875,-0.3125 0.5625,-0.32813 0.78125,-0.89063 0.23438,-0.5625 0.23438,-1.624996 v -4.4375 h 1.40625 v 8.296876 z m 8.86719,-3.04688 1.39062,0.1875 q -0.23437,1.42188 -1.17187,2.23438 -0.92188,0.8125 -2.28125,0.8125 -1.70313,0 -2.75,-1.10938 -1.03125,-1.125 -1.03125,-3.203116 0,-1.34375 0.4375,-2.34375 0.45312,-1.01563 1.35937,-1.51563 0.92188,-0.5 1.98438,-0.5 1.35937,0 2.21875,0.6875 0.85937,0.67188 1.09375,1.9375 l -1.35938,0.20313 q -0.20312,-0.82813 -0.70312,-1.25 -0.48438,-0.42188 -1.1875,-0.42188 -1.0625,0 -1.73438,0.76563 -0.65625,0.75 -0.65625,2.40625 0,1.671866 0.64063,2.437496 0.64062,0.75 1.67187,0.75 0.82813,0 1.375,-0.5 0.5625,-0.51563 0.70313,-1.57813 z m 5.65625,1.78125 0.20312,1.25 q -0.59375,0.125 -1.0625,0.125 -0.76562,0 -1.1875,-0.23437 -0.42187,-0.25 -0.59375,-0.64063 -0.17187,-0.40625 -0.17187,-1.67187 v -4.765626 h -1.03125 v -1.09375 h 1.03125 v -2.0625 l 1.40625,-0.84375 v 2.90625 h 1.40625 v 1.09375 h -1.40625 v 4.843746 q 0,0.60938 0.0625,0.78125 0.0781,0.17188 0.25,0.28125 0.17187,0.0937 0.48437,0.0937 0.23438,0 0.60938,-0.0625 z m 8.89062,0 0.20313,1.25 q -0.59375,0.125 -1.0625,0.125 -0.76563,0 -1.1875,-0.23437 -0.42188,-0.25 -0.59375,-0.64063 -0.17188,-0.40625 -0.17188,-1.67187 v -4.765626 h -1.03125 v -1.09375 h 1.03125 v -2.0625 l 1.40625,-0.84375 v 2.90625 h 1.40625 v 1.09375 h -1.40625 v 4.843746 q 0,0.60938 0.0625,0.78125 0.0781,0.17188 0.25,0.28125 0.17188,0.0937 0.48438,0.0937 0.23437,0 0.60937,-0.0625 z m 1.38281,1.26563 V 92.391124 h 1.40625 v 4.10938 q 0.98438,-1.14063 2.48438,-1.14063 0.92187,0 1.59375,0.35938 0.6875,0.35937 0.96875,1 0.29687,0.64062 0.29687,1.85937 v 5.265626 h -1.40625 v -5.265626 q 0,-1.04687 -0.45312,-1.53125 -0.45313,-0.48437 -1.29688,-0.48437 -0.625,0 -1.17187,0.32812 -0.54688,0.32813 -0.78125,0.89063 -0.23438,0.54687 -0.23438,1.51562 v 4.546876 z m 8.88282,0 v -8.296876 h 1.26562 v 1.25 q 0.48438,-0.875 0.89063,-1.15625 0.40625,-0.28125 0.90625,-0.28125 0.70312,0 1.4375,0.45313 l -0.48438,1.29687 q -0.51562,-0.29687 -1.03125,-0.29687 -0.45312,0 -0.82812,0.28125 -0.35938,0.26562 -0.51563,0.76562 -0.23437,0.75 -0.23437,1.64063 v 4.343746 z m 11.01562,-2.67188 1.45313,0.17188 q -0.34375,1.28125 -1.28125,1.98437 -0.92188,0.70313 -2.35938,0.70313 -1.82812,0 -2.89062,-1.125 -1.0625,-1.125 -1.0625,-3.140626 0,-2.09375 1.07812,-3.25 1.07813,-1.15625 2.79688,-1.15625 1.65625,0 2.70312,1.14063 1.0625,1.125 1.0625,3.17187 0,0.125 0,0.374996 h -6.1875 q 0.0781,1.375 0.76563,2.10938 0.70312,0.71875 1.73437,0.71875 0.78125,0 1.32813,-0.40625 0.54687,-0.40625 0.85937,-1.29688 z m -4.60937,-2.281246 h 4.625 q -0.0937,-1.04687 -0.53125,-1.5625 -0.67188,-0.8125 -1.73438,-0.8125 -0.96875,0 -1.64062,0.65625 -0.65625,0.64063 -0.71875,1.71875 z m 13.24218,3.921876 q -0.78125,0.67187 -1.5,0.95312 -0.71875,0.26563 -1.54687,0.26563 -1.375,0 -2.10938,-0.67188 -0.73437,-0.67187 -0.73437,-1.70312 0,-0.60938 0.28125,-1.10938 0.28125,-0.51562 0.71875,-0.812496 0.45312,-0.3125 1.01562,-0.46875 0.42188,-0.10937 1.25,-0.20312 1.70313,-0.20313 2.51563,-0.48438 0,-0.29687 0,-0.375 0,-0.85937 -0.39063,-1.20312 -0.54687,-0.48438 -1.60937,-0.48438 -0.98438,0 -1.46875,0.35938 -0.46875,0.34375 -0.6875,1.21875 l -1.375,-0.1875 q 0.1875,-0.875 0.60937,-1.42188 0.4375,-0.54687 1.25,-0.82812 0.8125,-0.29688 1.875,-0.29688 1.0625,0 1.71875,0.25 0.67188,0.25 0.98438,0.625 0.3125,0.375 0.4375,0.95313 0.0781,0.35937 0.0781,1.29687 v 1.874996 q 0,1.96875 0.0781,2.48438 0.0937,0.51562 0.35937,1 h -1.46875 q -0.21875,-0.4375 -0.28125,-1.03125 z m -0.10937,-3.140626 q -0.76563,0.3125 -2.29688,0.531246 -0.875,0.125 -1.23437,0.28125 -0.35938,0.15625 -0.5625,0.46875 -0.1875,0.29688 -0.1875,0.65625 0,0.5625 0.42187,0.9375 0.4375,0.375 1.25,0.375 0.8125,0 1.4375,-0.34375 0.64063,-0.35937 0.9375,-0.98437 0.23438,-0.46875 0.23438,-1.40625 z m 8.97656,4.171876 v -1.04688 q -0.78125,1.23438 -2.3125,1.23438 -1,0 -1.82812,-0.54688 -0.82813,-0.54687 -1.29688,-1.53125 -0.45312,-0.98437 -0.45312,-2.249996 0,-1.25 0.40625,-2.25 0.42187,-1.01562 1.25,-1.54687 0.82812,-0.54688 1.85937,-0.54688 0.75,0 1.32813,0.3125 0.59375,0.3125 0.95312,0.82813 v -4.10938 h 1.40625 v 11.453126 z m -4.4375,-4.140626 q 0,1.593746 0.67188,2.390626 0.67187,0.78125 1.57812,0.78125 0.92188,0 1.5625,-0.75 0.65625,-0.76563 0.65625,-2.312496 0,-1.70313 -0.65625,-2.5 -0.65625,-0.79688 -1.625,-0.79688 -0.9375,0 -1.5625,0.76563 -0.625,0.76562 -0.625,2.42187 z"
     fill-rule="nonzero"
     id="path81" />
  <path
     fill="#000000"
     fill-opacity="0"
     d="m 380.18531,89.359874 v 0 18.398436 0 z"
     fill-rule="nonzero"
     id="path83" />
  <path
     fill="#000000"
     d="m 291.25563,104.88425 h 88.92969 v 1.44 h -88.92969 z"
     fill-rule="nonzero"
     id="path85" />
  <path
     fill="#d9ead3"
     d="M 254.66537,113.04067 H 416.7756 v 25.82678 H 254.66537 Z"
     fill-rule="evenodd"
     id="path87" />
  <path
     stroke="#000000"
     stroke-width="1"
     stroke-linejoin="round"
     stroke-linecap="butt"
     d="M 254.66537,113.04067 H 416.7756 v 25.82678 H 254.66537 Z"
     fill-rule="evenodd"
     id="path89" />
  <path
     fill="#000000"
     d="m 314.49781,130.54844 0.20312,1.25 q -0.59375,0.125 -1.0625,0.125 -0.76562,0 -1.1875,-0.23438 -0.42187,-0.25 -0.59375,-0.64062 -0.17187,-0.40625 -0.17187,-1.67188 v -4.76562 h -1.03125 v -1.09375 h 1.03125 v -2.0625 l 1.40625,-0.84375 v 2.90625 h 1.40625 v 1.09375 h -1.40625 v 4.84375 q 0,0.60937 0.0625,0.78125 0.0781,0.17187 0.25,0.28125 0.17187,0.0937 0.48437,0.0937 0.23438,0 0.60938,-0.0625 z m 6.75781,1.26562 v -1.04687 q -0.78125,1.23437 -2.3125,1.23437 -1,0 -1.82812,-0.54687 -0.82813,-0.54688 -1.29688,-1.53125 -0.45312,-0.98438 -0.45312,-2.25 0,-1.25 0.40625,-2.25 0.42187,-1.01563 1.25,-1.54688 0.82812,-0.54687 1.85937,-0.54687 0.75,0 1.32813,0.3125 0.59375,0.3125 0.95312,0.82812 v -4.10937 h 1.40625 v 11.45312 z m -4.4375,-4.14062 q 0,1.59375 0.67188,2.39062 0.67187,0.78125 1.57812,0.78125 0.92188,0 1.5625,-0.75 0.65625,-0.76562 0.65625,-2.3125 0,-1.70312 -0.65625,-2.5 -0.65625,-0.79687 -1.625,-0.79687 -0.9375,0 -1.5625,0.76562 -0.625,0.76563 -0.625,2.42188 z m 6.64844,7.32812 v -1.01562 h 9.32812 v 1.01562 z m 10.21094,0 v -11.48437 h 1.28125 v 1.07812 q 0.45312,-0.64062 1.01562,-0.95312 0.57813,-0.3125 1.39063,-0.3125 1.0625,0 1.875,0.54687 0.8125,0.54688 1.21875,1.54688 0.42187,0.98437 0.42187,2.17187 0,1.28125 -0.46875,2.29688 -0.45312,1.01562 -1.32812,1.5625 -0.85938,0.54687 -1.82813,0.54687 -0.70312,0 -1.26562,-0.29687 -0.54688,-0.29688 -0.90625,-0.75 v 4.04687 z m 1.26562,-7.29687 q 0,1.60937 0.64063,2.375 0.65625,0.76562 1.57812,0.76562 0.9375,0 1.60938,-0.79687 0.67187,-0.79688 0.67187,-2.45313 0,-1.59375 -0.65625,-2.375 -0.65625,-0.79687 -1.5625,-0.79687 -0.89062,0 -1.59375,0.84375 -0.6875,0.84375 -0.6875,2.4375 z m 7.60156,4.10937 v -11.45312 h 1.40625 v 11.45312 z m 3.58594,-9.84375 v -1.60937 h 1.40625 v 1.60937 z m 0,9.84375 v -8.29687 h 1.40625 v 8.29687 z m 2.99219,-2.48437 1.39062,-0.21875 q 0.10938,0.84375 0.64063,1.29687 0.54687,0.4375 1.5,0.4375 0.96875,0 1.4375,-0.39062 0.46875,-0.40625 0.46875,-0.9375 0,-0.46875 -0.40625,-0.75 -0.29688,-0.1875 -1.4375,-0.46875 -1.54688,-0.39063 -2.15625,-0.67188 -0.59375,-0.29687 -0.90625,-0.79687 -0.29688,-0.5 -0.29688,-1.10938 0,-0.5625 0.25,-1.03125 0.25,-0.46875 0.6875,-0.78125 0.32813,-0.25 0.89063,-0.40625 0.57812,-0.17187 1.21875,-0.17187 0.98437,0 1.71875,0.28125 0.73437,0.28125 1.07812,0.76562 0.35938,0.46875 0.5,1.28125 l -1.375,0.1875 q -0.0937,-0.64062 -0.54687,-1 -0.45313,-0.35937 -1.26563,-0.35937 -0.96875,0 -1.39062,0.32812 -0.40625,0.3125 -0.40625,0.73438 0,0.28125 0.17187,0.5 0.17188,0.21875 0.53125,0.375 0.21875,0.0781 1.25,0.35937 1.48438,0.39063 2.07813,0.65625 0.59375,0.25 0.92187,0.73438 0.34375,0.48437 0.34375,1.20312 0,0.70313 -0.42187,1.32813 -0.40625,0.60937 -1.1875,0.95312 -0.76563,0.34375 -1.73438,0.34375 -1.625,0 -2.46875,-0.67187 -0.84375,-0.67188 -1.07812,-2 z m 11.625,1.21875 0.20312,1.25 q -0.59375,0.125 -1.0625,0.125 -0.76562,0 -1.1875,-0.23438 -0.42187,-0.25 -0.59375,-0.64062 -0.17187,-0.40625 -0.17187,-1.67188 v -4.76562 h -1.03125 v -1.09375 h 1.03125 v -2.0625 l 1.40625,-0.84375 v 2.90625 h 1.40625 v 1.09375 h -1.40625 v 4.84375 q 0,0.60937 0.0625,0.78125 0.0781,0.17187 0.25,0.28125 0.17187,0.0937 0.48437,0.0937 0.23438,0 0.60938,-0.0625 z"
     fill-rule="nonzero"
     id="path91" />
  <path
     fill="#d9ead3"
     d="M 254.66537,146.85433 H 416.7756 V 172.6811 H 254.66537 Z"
     fill-rule="evenodd"
     id="path93" />
  <path
     stroke="#000000"
     stroke-width="1"
     stroke-linejoin="round"
     stroke-linecap="butt"
     d="M 254.66537,146.85433 H 416.7756 V 172.6811 H 254.66537 Z"
     fill-rule="evenodd"
     id="path95" />
  <path
     fill="#000000"
     d="m 320.27517,164.36209 0.20313,1.25 q -0.59375,0.125 -1.0625,0.125 -0.76563,0 -1.1875,-0.23438 -0.42188,-0.25 -0.59375,-0.64062 -0.17188,-0.40625 -0.17188,-1.67188 v -4.76562 h -1.03125 v -1.09375 h 1.03125 v -2.0625 l 1.40625,-0.84375 v 2.90625 h 1.40625 v 1.09375 h -1.40625 v 4.84375 q 0,0.60937 0.0625,0.78125 0.0781,0.17187 0.25,0.28125 0.17188,0.0937 0.48438,0.0937 0.23437,0 0.60937,-0.0625 z m 6.75781,1.26562 v -1.04687 q -0.78125,1.23437 -2.3125,1.23437 -1,0 -1.82812,-0.54687 -0.82813,-0.54688 -1.29688,-1.53125 -0.45312,-0.98438 -0.45312,-2.25 0,-1.25 0.40625,-2.25 0.42187,-1.01563 1.25,-1.54688 0.82812,-0.54687 1.85937,-0.54687 0.75,0 1.32813,0.3125 0.59375,0.3125 0.95312,0.82812 v -4.10937 h 1.40625 v 11.45312 z m -4.4375,-4.14062 q 0,1.59375 0.67188,2.39062 0.67187,0.78125 1.57812,0.78125 0.92188,0 1.5625,-0.75 0.65625,-0.76562 0.65625,-2.3125 0,-1.70312 -0.65625,-2.5 -0.65625,-0.79687 -1.625,-0.79687 -0.9375,0 -1.5625,0.76562 -0.625,0.76563 -0.625,2.42188 z m 6.64844,7.32812 v -1.01562 h 9.32813 v 1.01562 z m 13.27344,-4.45312 0.20312,1.25 q -0.59375,0.125 -1.0625,0.125 -0.76562,0 -1.1875,-0.23438 -0.42187,-0.25 -0.59375,-0.64062 -0.17187,-0.40625 -0.17187,-1.67188 v -4.76562 h -1.03125 v -1.09375 h 1.03125 v -2.0625 l 1.40625,-0.84375 v 2.90625 h 1.40625 v 1.09375 h -1.40625 v 4.84375 q 0,0.60937 0.0625,0.78125 0.0781,0.17187 0.25,0.28125 0.17187,0.0937 0.48437,0.0937 0.23438,0 0.60938,-0.0625 z m 1.38281,-8.57813 v -1.60937 h 1.40625 v 1.60937 z m 0,9.84375 v -8.29687 h 1.40625 v 8.29687 z m 8.92969,0 v -1.04687 q -0.78125,1.23437 -2.3125,1.23437 -1,0 -1.82813,-0.54687 -0.82812,-0.54688 -1.29687,-1.53125 -0.45313,-0.98438 -0.45313,-2.25 0,-1.25 0.40625,-2.25 0.42188,-1.01563 1.25,-1.54688 0.82813,-0.54687 1.85938,-0.54687 0.75,0 1.32812,0.3125 0.59375,0.3125 0.95313,0.82812 v -4.10937 h 1.40625 v 11.45312 z m -4.4375,-4.14062 q 0,1.59375 0.67187,2.39062 0.67188,0.78125 1.57813,0.78125 0.92187,0 1.5625,-0.75 0.65625,-0.76562 0.65625,-2.3125 0,-1.70312 -0.65625,-2.5 -0.65625,-0.79687 -1.625,-0.79687 -0.9375,0 -1.5625,0.76562 -0.625,0.76563 -0.625,2.42188 z"
     fill-rule="nonzero"
     id="path97" />
  <path
     fill="#d9ead3"
     d="M 254.66537,180.66798 H 416.7756 v 25.82677 H 254.66537 Z"
     fill-rule="evenodd"
     id="path99" />
  <path
     stroke="#000000"
     stroke-width="1"
     stroke-linejoin="round"
     stroke-linecap="butt"
     d="M 254.66537,180.66798 H 416.7756 v 25.82677 H 254.66537 Z"
     fill-rule="evenodd"
     id="path101" />
  <path
     fill="#000000"
     d="m 315.82594,198.17574 0.20313,1.25 q -0.59375,0.125 -1.0625,0.125 -0.76563,0 -1.1875,-0.23438 -0.42188,-0.25 -0.59375,-0.64062 -0.17188,-0.40625 -0.17188,-1.67188 v -4.76562 h -1.03125 v -1.09375 h 1.03125 v -2.0625 l 1.40625,-0.84375 v 2.90625 h 1.40625 v 1.09375 h -1.40625 v 4.84375 q 0,0.60937 0.0625,0.78125 0.0781,0.17187 0.25,0.28125 0.17188,0.0937 0.48438,0.0937 0.23437,0 0.60937,-0.0625 z m 6.75781,1.26562 v -1.04687 q -0.78125,1.23437 -2.3125,1.23437 -1,0 -1.82812,-0.54687 -0.82813,-0.54688 -1.29688,-1.53125 -0.45312,-0.98438 -0.45312,-2.25 0,-1.25 0.40625,-2.25 0.42187,-1.01563 1.25,-1.54688 0.82812,-0.54687 1.85937,-0.54687 0.75,0 1.32813,0.3125 0.59375,0.3125 0.95312,0.82812 v -4.10937 h 1.40625 v 11.45312 z m -4.4375,-4.14062 q 0,1.59375 0.67188,2.39062 0.67187,0.78125 1.57812,0.78125 0.92188,0 1.5625,-0.75 0.65625,-0.76562 0.65625,-2.3125 0,-1.70312 -0.65625,-2.5 -0.65625,-0.79687 -1.625,-0.79687 -0.9375,0 -1.5625,0.76562 -0.625,0.76563 -0.625,2.42188 z m 6.64844,7.32812 v -1.01562 h 9.32813 v 1.01562 z m 10.21094,0 v -11.48437 h 1.28125 v 1.07812 q 0.45312,-0.64062 1.01562,-0.95312 0.57813,-0.3125 1.39063,-0.3125 1.0625,0 1.875,0.54687 0.8125,0.54688 1.21875,1.54688 0.42187,0.98437 0.42187,2.17187 0,1.28125 -0.46875,2.29688 -0.45312,1.01562 -1.32812,1.5625 -0.85938,0.54687 -1.82813,0.54687 -0.70312,0 -1.26562,-0.29687 -0.54688,-0.29688 -0.90625,-0.75 v 4.04687 z m 1.26562,-7.29687 q 0,1.60937 0.64063,2.375 0.65625,0.76562 1.57812,0.76562 0.9375,0 1.60938,-0.79687 0.67187,-0.79688 0.67187,-2.45313 0,-1.59375 -0.65625,-2.375 -0.65625,-0.79687 -1.5625,-0.79687 -0.89062,0 -1.59375,0.84375 -0.6875,0.84375 -0.6875,2.4375 z m 13.03907,1.0625 1.39062,0.1875 q -0.23437,1.42187 -1.17187,2.23437 -0.92188,0.8125 -2.28125,0.8125 -1.70313,0 -2.75,-1.10937 -1.03125,-1.125 -1.03125,-3.20313 0,-1.34375 0.4375,-2.34375 0.45312,-1.01562 1.35937,-1.51562 0.92188,-0.5 1.98438,-0.5 1.35937,0 2.21875,0.6875 0.85937,0.67187 1.09375,1.9375 l -1.35938,0.20312 q -0.20312,-0.82812 -0.70312,-1.25 -0.48438,-0.42187 -1.1875,-0.42187 -1.0625,0 -1.73438,0.76562 -0.65625,0.75 -0.65625,2.40625 0,1.67188 0.64063,2.4375 0.64062,0.75 1.67187,0.75 0.82813,0 1.375,-0.5 0.5625,-0.51562 0.70313,-1.57812 z m 3.89062,3.04687 h -1.3125 v -11.45312 h 1.40625 v 4.07812 q 0.89063,-1.10937 2.28125,-1.10937 0.76563,0 1.4375,0.3125 0.6875,0.29687 1.125,0.85937 0.45313,0.5625 0.70313,1.35938 0.25,0.78125 0.25,1.67187 0,2.14063 -1.0625,3.3125 -1.04688,1.15625 -2.53125,1.15625 -1.46875,0 -2.29688,-1.23437 z m -0.0156,-4.21875 q 0,1.5 0.40625,2.15625 0.65625,1.09375 1.79687,1.09375 0.92188,0 1.59375,-0.79687 0.67188,-0.8125 0.67188,-2.39063 0,-1.625 -0.65625,-2.39062 -0.64063,-0.78125 -1.54688,-0.78125 -0.92187,0 -1.59375,0.79687 -0.67187,0.79688 -0.67187,2.3125 z"
     fill-rule="nonzero"
     id="path103" />
  <path
     fill="#000000"
     fill-opacity="0"
     d="M 254.66537,214.48162 H 416.7756 V 240.3084 H 254.66537 Z"
     fill-rule="evenodd"
     id="path105" />
  <path
     fill="#000000"
     d="m 329.59547,233.25501 v -1.60938 h 1.59375 v 1.60938 z m 5.32812,0 v -1.60938 h 1.60938 v 1.60938 z m 5.32813,0 v -1.60938 h 1.60937 v 1.60938 z"
     fill-rule="nonzero"
     id="path107" />
  <path
     fill="#ead1dc"
     d="m 242.79133,282.10891 h 185.85828 v 76.40945 H 242.79133 Z"
     fill-rule="evenodd"
     id="path109" />
  <path
     stroke="#000000"
     stroke-width="1"
     stroke-linejoin="round"
     stroke-linecap="butt"
     d="m 242.79133,282.10891 h 185.85828 v 76.40945 H 242.79133 Z"
     fill-rule="evenodd"
     id="path111" />
  <path
     fill="#000000"
     fill-opacity="0"
     d="m 291.25563,291.98455 h 88.92969 v 18.39844 h -88.92969 z"
     fill-rule="nonzero"
     id="path113" />
  <path
     fill="#000000"
     d="m 291.75563,303.98455 1.39063,-0.21875 q 0.10937,0.84375 0.64062,1.29687 0.54688,0.4375 1.5,0.4375 0.96875,0 1.4375,-0.39062 0.46875,-0.40625 0.46875,-0.9375 0,-0.46875 -0.40625,-0.75 -0.29687,-0.1875 -1.4375,-0.46875 -1.54687,-0.39063 -2.15625,-0.67188 -0.59375,-0.29687 -0.90625,-0.79687 -0.29687,-0.5 -0.29687,-1.10938 0,-0.5625 0.25,-1.03125 0.25,-0.46875 0.6875,-0.78125 0.32812,-0.25 0.89062,-0.40625 0.57813,-0.17187 1.21875,-0.17187 0.98438,0 1.71875,0.28125 0.73438,0.28125 1.07813,0.76562 0.35937,0.46875 0.5,1.28125 l -1.375,0.1875 q -0.0937,-0.64062 -0.54688,-1 -0.45312,-0.35937 -1.26562,-0.35937 -0.96875,0 -1.39063,0.32812 -0.40625,0.3125 -0.40625,0.73438 0,0.28125 0.17188,0.5 0.17187,0.21875 0.53125,0.375 0.21875,0.0781 1.25,0.35937 1.48437,0.39063 2.07812,0.65625 0.59375,0.25 0.92188,0.73438 0.34375,0.48437 0.34375,1.20312 0,0.70313 -0.42188,1.32813 -0.40625,0.60937 -1.1875,0.95312 -0.76562,0.34375 -1.73437,0.34375 -1.625,0 -2.46875,-0.67187 -0.84375,-0.67188 -1.07813,-2 z m 11.625,1.21875 0.20313,1.25 q -0.59375,0.125 -1.0625,0.125 -0.76563,0 -1.1875,-0.23438 -0.42188,-0.25 -0.59375,-0.64062 -0.17188,-0.40625 -0.17188,-1.67188 v -4.76562 h -1.03125 v -1.09375 h 1.03125 v -2.0625 l 1.40625,-0.84375 v 2.90625 h 1.40625 v 1.09375 h -1.40625 v 4.84375 q 0,0.60937 0.0625,0.78125 0.0781,0.17187 0.25,0.28125 0.17188,0.0937 0.48438,0.0937 0.23437,0 0.60937,-0.0625 z m 1.36719,1.26562 v -8.29687 h 1.26562 v 1.25 q 0.48438,-0.875 0.89063,-1.15625 0.40625,-0.28125 0.90625,-0.28125 0.70312,0 1.4375,0.45312 l -0.48438,1.29688 q -0.51562,-0.29688 -1.03125,-0.29688 -0.45312,0 -0.82812,0.28125 -0.35938,0.26563 -0.51563,0.76563 -0.23437,0.75 -0.23437,1.64062 v 4.34375 z m 10.78125,0 v -1.21875 q -0.96875,1.40625 -2.64063,1.40625 -0.73437,0 -1.375,-0.28125 -0.625,-0.28125 -0.9375,-0.70312 -0.3125,-0.4375 -0.4375,-1.04688 -0.0781,-0.42187 -0.0781,-1.3125 v -5.14062 h 1.40625 v 4.59375 q 0,1.10937 0.0781,1.48437 0.14063,0.5625 0.5625,0.875 0.4375,0.3125 1.0625,0.3125 0.64063,0 1.1875,-0.3125 0.5625,-0.32812 0.78125,-0.89062 0.23438,-0.5625 0.23438,-1.625 v -4.4375 h 1.40625 v 8.29687 z m 8.86719,-3.04687 1.39062,0.1875 q -0.23437,1.42187 -1.17187,2.23437 -0.92188,0.8125 -2.28125,0.8125 -1.70313,0 -2.75,-1.10937 -1.03125,-1.125 -1.03125,-3.20313 0,-1.34375 0.4375,-2.34375 0.45312,-1.01562 1.35937,-1.51562 0.92188,-0.5 1.98438,-0.5 1.35937,0 2.21875,0.6875 0.85937,0.67187 1.09375,1.9375 l -1.35938,0.20312 q -0.20312,-0.82812 -0.70312,-1.25 -0.48438,-0.42187 -1.1875,-0.42187 -1.0625,0 -1.73438,0.76562 -0.65625,0.75 -0.65625,2.40625 0,1.67188 0.64063,2.4375 0.64062,0.75 1.67187,0.75 0.82813,0 1.375,-0.5 0.5625,-0.51562 0.70313,-1.57812 z m 5.65625,1.78125 0.20312,1.25 q -0.59375,0.125 -1.0625,0.125 -0.76562,0 -1.1875,-0.23438 -0.42187,-0.25 -0.59375,-0.64062 -0.17187,-0.40625 -0.17187,-1.67188 v -4.76562 h -1.03125 v -1.09375 h 1.03125 v -2.0625 l 1.40625,-0.84375 v 2.90625 h 1.40625 v 1.09375 h -1.40625 v 4.84375 q 0,0.60937 0.0625,0.78125 0.0781,0.17187 0.25,0.28125 0.17187,0.0937 0.48437,0.0937 0.23438,0 0.60938,-0.0625 z m 8.89062,0 0.20313,1.25 q -0.59375,0.125 -1.0625,0.125 -0.76563,0 -1.1875,-0.23438 -0.42188,-0.25 -0.59375,-0.64062 -0.17188,-0.40625 -0.17188,-1.67188 v -4.76562 h -1.03125 v -1.09375 h 1.03125 v -2.0625 l 1.40625,-0.84375 v 2.90625 h 1.40625 v 1.09375 h -1.40625 v 4.84375 q 0,0.60937 0.0625,0.78125 0.0781,0.17187 0.25,0.28125 0.17188,0.0937 0.48438,0.0937 0.23437,0 0.60937,-0.0625 z m 1.38281,1.26562 V 295.0158 h 1.40625 v 4.10937 q 0.98438,-1.14062 2.48438,-1.14062 0.92187,0 1.59375,0.35937 0.6875,0.35938 0.96875,1 0.29687,0.64063 0.29687,1.85938 v 5.26562 h -1.40625 v -5.26562 q 0,-1.04688 -0.45312,-1.53125 -0.45313,-0.48438 -1.29688,-0.48438 -0.625,0 -1.17187,0.32813 -0.54688,0.32812 -0.78125,0.89062 -0.23438,0.54688 -0.23438,1.51563 v 4.54687 z m 8.88282,0 v -8.29687 h 1.26562 v 1.25 q 0.48438,-0.875 0.89063,-1.15625 0.40625,-0.28125 0.90625,-0.28125 0.70312,0 1.4375,0.45312 l -0.48438,1.29688 q -0.51562,-0.29688 -1.03125,-0.29688 -0.45312,0 -0.82812,0.28125 -0.35938,0.26563 -0.51563,0.76563 -0.23437,0.75 -0.23437,1.64062 v 4.34375 z m 11.01562,-2.67187 1.45313,0.17187 q -0.34375,1.28125 -1.28125,1.98438 -0.92188,0.70312 -2.35938,0.70312 -1.82812,0 -2.89062,-1.125 -1.0625,-1.125 -1.0625,-3.14062 0,-2.09375 1.07812,-3.25 1.07813,-1.15625 2.79688,-1.15625 1.65625,0 2.70312,1.14062 1.0625,1.125 1.0625,3.17188 0,0.125 0,0.375 h -6.1875 q 0.0781,1.375 0.76563,2.10937 0.70312,0.71875 1.73437,0.71875 0.78125,0 1.32813,-0.40625 0.54687,-0.40625 0.85937,-1.29687 z m -4.60937,-2.28125 h 4.625 q -0.0937,-1.04688 -0.53125,-1.5625 -0.67188,-0.8125 -1.73438,-0.8125 -0.96875,0 -1.64062,0.65625 -0.65625,0.64062 -0.71875,1.71875 z m 13.24218,3.92187 q -0.78125,0.67188 -1.5,0.95313 -0.71875,0.26562 -1.54687,0.26562 -1.375,0 -2.10938,-0.67187 -0.73437,-0.67188 -0.73437,-1.70313 0,-0.60937 0.28125,-1.10937 0.28125,-0.51563 0.71875,-0.8125 0.45312,-0.3125 1.01562,-0.46875 0.42188,-0.10938 1.25,-0.20313 1.70313,-0.20312 2.51563,-0.48437 0,-0.29688 0,-0.375 0,-0.85938 -0.39063,-1.20313 -0.54687,-0.48437 -1.60937,-0.48437 -0.98438,0 -1.46875,0.35937 -0.46875,0.34375 -0.6875,1.21875 l -1.375,-0.1875 q 0.1875,-0.875 0.60937,-1.42187 0.4375,-0.54688 1.25,-0.82813 0.8125,-0.29687 1.875,-0.29687 1.0625,0 1.71875,0.25 0.67188,0.25 0.98438,0.625 0.3125,0.375 0.4375,0.95312 0.0781,0.35938 0.0781,1.29688 v 1.875 q 0,1.96875 0.0781,2.48437 0.0937,0.51563 0.35937,1 h -1.46875 q -0.21875,-0.4375 -0.28125,-1.03125 z m -0.10937,-3.14062 q -0.76563,0.3125 -2.29688,0.53125 -0.875,0.125 -1.23437,0.28125 -0.35938,0.15625 -0.5625,0.46875 -0.1875,0.29687 -0.1875,0.65625 0,0.5625 0.42187,0.9375 0.4375,0.375 1.25,0.375 0.8125,0 1.4375,-0.34375 0.64063,-0.35938 0.9375,-0.98438 0.23438,-0.46875 0.23438,-1.40625 z m 8.97656,4.17187 v -1.04687 q -0.78125,1.23437 -2.3125,1.23437 -1,0 -1.82812,-0.54687 -0.82813,-0.54688 -1.29688,-1.53125 -0.45312,-0.98438 -0.45312,-2.25 0,-1.25 0.40625,-2.25 0.42187,-1.01563 1.25,-1.54688 0.82812,-0.54687 1.85937,-0.54687 0.75,0 1.32813,0.3125 0.59375,0.3125 0.95312,0.82812 v -4.10937 h 1.40625 v 11.45312 z m -4.4375,-4.14062 q 0,1.59375 0.67188,2.39062 0.67187,0.78125 1.57812,0.78125 0.92188,0 1.5625,-0.75 0.65625,-0.76562 0.65625,-2.3125 0,-1.70312 -0.65625,-2.5 -0.65625,-0.79687 -1.625,-0.79687 -0.9375,0 -1.5625,0.76562 -0.625,0.76563 -0.625,2.42188 z"
     fill-rule="nonzero"
     id="path115" />
  <path
     fill="#000000"
     fill-opacity="0"
     d="m 380.18531,291.98455 v 0 18.39844 0 z"
     fill-rule="nonzero"
     id="path117" />
  <path
     fill="#000000"
     d="m 291.25563,307.50893 h 88.92969 v 1.43997 h -88.92969 z"
     fill-rule="nonzero"
     id="path119" />
  <path
     fill="#000000"
     fill-opacity="0"
     d="M 254.66537,315.92257 H 416.7756 v 25.82678 H 254.66537 Z"
     fill-rule="evenodd"
     id="path121" />
  <path
     fill="#000000"
     d="m 329.59547,334.69595 v -1.60938 h 1.59375 v 1.60938 z m 5.32812,0 v -1.60938 h 1.60938 v 1.60938 z m 5.32813,0 v -1.60938 h 1.60937 v 1.60938 z"
     fill-rule="nonzero"
     id="path123" />
  <path
     fill="#000000"
     fill-opacity="0"
     d="m 416.79133,125.95406 h 24.99982 V 258.62648 H 335.72047 v 25.28033"
     fill-rule="evenodd"
     id="path125" />
  <path
     stroke="#000000"
     stroke-width="1"
     stroke-linejoin="round"
     stroke-linecap="butt"
     d="m 416.79133,125.95406 h 24.99985 v 132.6724 H 335.72047 v 19.28037"
     fill-rule="evenodd"
     id="path127" />
  <path
     fill="#000000"
     stroke="#000000"
     stroke-width="1"
     stroke-linecap="butt"
     d="m 334.06874,277.90682 1.65173,4.53809 1.65174,-4.53809 z"
     fill-rule="evenodd"
     id="path129" />
  <path
     fill="#000000"
     fill-opacity="0"
     d="m 174.48425,159.76771 h 45.9404 V 54.483984 H 335.7126 v 25.000267"
     fill-rule="evenodd"
     id="path131" />
  <path
     stroke="#000000"
     stroke-width="1"
     stroke-linejoin="round"
     stroke-linecap="butt"
     d="m 174.48425,159.76771 h 45.94041 V 54.483984 h 115.28793 v 19.000267"
     fill-rule="evenodd"
     id="path133" />
  <path
     fill="#000000"
     stroke="#000000"
     stroke-width="1"
     stroke-linecap="butt"
     d="m 334.06087,73.484249 1.65173,4.538101 1.65174,-4.538101 z"
     fill-rule="evenodd"
     id="path135" />
</svg>
