<?xml version="1.0" encoding="UTF-8" standalone="no"?>
<svg
   xmlns:dc="http://purl.org/dc/elements/1.1/"
   xmlns:cc="http://creativecommons.org/ns#"
   xmlns:rdf="http://www.w3.org/1999/02/22-rdf-syntax-ns#"
   xmlns:svg="http://www.w3.org/2000/svg"
   xmlns="http://www.w3.org/2000/svg"
   xmlns:sodipodi="http://sodipodi.sourceforge.net/DTD/sodipodi-0.dtd"
   xmlns:inkscape="http://www.inkscape.org/namespaces/inkscape"
   version="1.1"
   viewBox="0 0 890.13293 463.7901"
   fill="none"
   stroke="none"
   stroke-linecap="square"
   stroke-miterlimit="10"
   id="svg95"
   sodipodi:docname="register-ymm0_ymm0h.svg"
   width="890.13293"
   height="463.7901"
   inkscape:version="1.0.1 (3bc2e813f5, 2020-09-07)">
  <metadata
     id="metadata101">
    <rdf:RDF>
      <cc:Work
         rdf:about="">
        <dc:format>image/svg+xml</dc:format>
        <dc:type
           rdf:resource="http://purl.org/dc/dcmitype/StillImage" />
        <dc:title></dc:title>
      </cc:Work>
    </rdf:RDF>
  </metadata>
  <defs
     id="defs99" />
  <sodipodi:namedview
     pagecolor="#ffffff"
     bordercolor="#666666"
     borderopacity="1"
     objecttolerance="10"
     gridtolerance="10"
     guidetolerance="10"
     inkscape:pageopacity="0"
     inkscape:pageshadow="2"
     inkscape:window-width="1364"
     inkscape:window-height="747"
     id="namedview97"
     showgrid="false"
     inkscape:zoom="1.0685185"
     inkscape:cx="444.29647"
     inkscape:cy="259.47155"
     inkscape:window-x="0"
     inkscape:window-y="19"
     inkscape:window-maximized="0"
     inkscape:current-layer="svg95" />
  <clipPath
     id="p.0">
    <path
       d="M 0,0 H 720 V 540 H 0 Z"
       clip-rule="nonzero"
       id="path2" />
  </clipPath>
  <path
     fill="#000000"
     fill-opacity="0"
     d="M 84.296474,-5.460579 H 804.29647 V 534.53942 H 84.296474 Z"
     fill-rule="evenodd"
     id="path5" />
  <path
     fill="#fff2cc"
     d="m 479.41457,224.10468 v 0 c 0,-26.42032 21.41791,-47.83823 47.83823,-47.83823 h 207.8511 c 12.6875,0 24.85534,5.04009 33.82672,14.01149 8.97143,8.97141 14.01153,21.13926 14.01153,33.82674 v 191.34715 c 0,26.42035 -21.41791,47.83826 -47.83825,47.83826 H 527.2528 c -26.42032,0 -47.83823,-21.41791 -47.83823,-47.83826 z"
     fill-rule="evenodd"
     id="path7" />
  <path
     stroke="#000000"
     stroke-width="1"
     stroke-linejoin="round"
     stroke-linecap="butt"
     d="m 479.41457,224.10468 v 0 c 0,-26.42032 21.41791,-47.83823 47.83823,-47.83823 h 207.8511 c 12.6875,0 24.85534,5.04009 33.82672,14.01149 8.97143,8.97141 14.01153,21.13926 14.01153,33.82674 v 191.34715 c 0,26.42035 -21.41791,47.83826 -47.83825,47.83826 H 527.2528 c -26.42032,0 -47.83823,-21.41791 -47.83823,-47.83826 z"
     fill-rule="evenodd"
     id="path9" />
  <path
     fill="#000000"
     d="m 588.82247,217.19779 v -13.35938 h 1.64062 v 13.35938 z m 4.14481,0 v -13.35938 h 1.64062 v 13.35938 z m 10.4573,0 v -1.21875 q -0.90625,1.4375 -2.70312,1.4375 -1.15625,0 -2.125,-0.64063 -0.96875,-0.64062 -1.5,-1.78125 -0.53125,-1.14062 -0.53125,-2.625 0,-1.45312 0.48437,-2.625 0.48438,-1.1875 1.4375,-1.8125 0.96875,-0.625 2.17188,-0.625 0.875,0 1.54687,0.375 0.6875,0.35938 1.10938,0.95313 v -4.79688 h 1.64062 v 13.35938 z m -5.17187,-4.82813 q 0,1.85938 0.78125,2.78125 0.78125,0.92188 1.84375,0.92188 1.07812,0 1.82812,-0.875 0.75,-0.89063 0.75,-2.6875 0,-1.98438 -0.76562,-2.90625 -0.76563,-0.9375 -1.89063,-0.9375 -1.07812,0 -1.8125,0.89062 -0.73437,0.89063 -0.73437,2.8125 z m 10.78198,4.82813 h -1.51563 v -13.35938 h 1.64063 v 4.76563 q 1.04687,-1.29688 2.65625,-1.29688 0.89062,0 1.6875,0.35938 0.79687,0.35937 1.3125,1.01562 0.51562,0.64063 0.79687,1.5625 0.29688,0.92188 0.29688,1.96875 0,2.48438 -1.23438,3.84375 -1.21875,1.35938 -2.95312,1.35938 -1.70313,0 -2.6875,-1.4375 z m -0.0156,-4.90625 q 0,1.73437 0.48438,2.51562 0.76562,1.26563 2.09375,1.26563 1.07812,0 1.85937,-0.9375 0.78125,-0.9375 0.78125,-2.78125 0,-1.89063 -0.75,-2.79688 -0.75,-0.90625 -1.82812,-0.90625 -1.0625,0 -1.85938,0.9375 -0.78125,0.9375 -0.78125,2.70313 z m 8.25074,0.89062 v -1.64062 h 5.03125 v 1.64062 z m 6.19702,1.125 1.625,-0.25 q 0.125,0.96875 0.75,1.5 0.625,0.51563 1.75,0.51563 1.125,0 1.67187,-0.45313 0.54688,-0.46875 0.54688,-1.09375 0,-0.54687 -0.48438,-0.875 -0.32812,-0.21875 -1.67187,-0.54687 -1.8125,-0.46875 -2.51563,-0.79688 -0.6875,-0.32812 -1.04687,-0.90625 -0.35938,-0.59375 -0.35938,-1.3125 0,-0.64062 0.29688,-1.1875 0.29687,-0.5625 0.8125,-0.92187 0.375,-0.28125 1.03125,-0.46875 0.67187,-0.20313 1.42187,-0.20313 1.14063,0 2,0.32813 0.85938,0.32812 1.26563,0.89062 0.42187,0.5625 0.57812,1.5 l -1.60937,0.21875 q -0.10938,-0.75 -0.64063,-1.17187 -0.51562,-0.42188 -1.46875,-0.42188 -1.14062,0 -1.625,0.375 -0.46875,0.375 -0.46875,0.875 0,0.3125 0.1875,0.57813 0.20313,0.26562 0.64063,0.4375 0.23437,0.0937 1.4375,0.42187 1.75,0.45313 2.4375,0.75 0.6875,0.29688 1.07812,0.85938 0.39063,0.5625 0.39063,1.40625 0,0.82812 -0.48438,1.54687 -0.46875,0.71875 -1.375,1.125 -0.90625,0.39063 -2.04687,0.39063 -1.875,0 -2.875,-0.78125 -0.98438,-0.78125 -1.25,-2.32813 z m 16.60937,-0.21875 1.6875,0.20313 q -0.40625,1.48437 -1.48437,2.3125 -1.07813,0.8125 -2.76563,0.8125 -2.125,0 -3.375,-1.29688 -1.23437,-1.3125 -1.23437,-3.67187 0,-2.45313 1.25,-3.79688 1.26562,-1.34375 3.26562,-1.34375 1.9375,0 3.15625,1.32813 1.23438,1.3125 1.23438,3.70312 0,0.15625 0,0.4375 h -7.21875 q 0.0937,1.59375 0.90625,2.45313 0.8125,0.84375 2.01562,0.84375 0.90625,0 1.54688,-0.46875 0.64062,-0.48438 1.01562,-1.51563 z m -5.39062,-2.65625 h 5.40625 q -0.10938,-1.21875 -0.625,-1.82812 -0.78125,-0.95313 -2.03125,-0.95313 -1.125,0 -1.90625,0.76563 -0.76563,0.75 -0.84375,2.01562 z m 9.12573,5.76563 v -9.67188 h 1.46875 v 1.46875 q 0.5625,-1.03125 1.03125,-1.35937 0.48437,-0.32813 1.0625,-0.32813 0.82812,0 1.6875,0.53125 l -0.5625,1.51563 q -0.60938,-0.35938 -1.20313,-0.35938 -0.54687,0 -0.96875,0.32813 -0.42187,0.32812 -0.60937,0.89062 -0.28125,0.875 -0.28125,1.92188 v 5.0625 z m 8.91583,0 -3.6875,-9.67188 h 1.73438 l 2.07812,5.79688 q 0.32813,0.9375 0.625,1.9375 0.20313,-0.76563 0.60938,-1.82813 l 2.14062,-5.90625 h 1.6875 l -3.65625,9.67188 z m 13.26563,-3.10938 1.6875,0.20313 q -0.40625,1.48437 -1.48438,2.3125 -1.07812,0.8125 -2.76562,0.8125 -2.125,0 -3.375,-1.29688 -1.23438,-1.3125 -1.23438,-3.67187 0,-2.45313 1.25,-3.79688 1.26563,-1.34375 3.26563,-1.34375 1.9375,0 3.15625,1.32813 1.23437,1.3125 1.23437,3.70312 0,0.15625 0,0.4375 h -7.21875 q 0.0937,1.59375 0.90625,2.45313 0.8125,0.84375 2.01563,0.84375 0.90625,0 1.54687,-0.46875 0.64063,-0.48438 1.01563,-1.51563 z m -5.39063,-2.65625 h 5.40625 q -0.10937,-1.21875 -0.625,-1.82812 -0.78125,-0.95313 -2.03125,-0.95313 -1.125,0 -1.90625,0.76563 -0.76562,0.75 -0.84375,2.01562 z m 9.12567,5.76563 v -9.67188 h 1.46875 v 1.46875 q 0.5625,-1.03125 1.03125,-1.35937 0.48438,-0.32813 1.0625,-0.32813 0.82813,0 1.6875,0.53125 l -0.5625,1.51563 q -0.60937,-0.35938 -1.20312,-0.35938 -0.54688,0 -0.96875,0.32813 -0.42188,0.32812 -0.60938,0.89062 -0.28125,0.875 -0.28125,1.92188 v 5.0625 z"
     fill-rule="nonzero"
     id="path11" />
  <path
     fill="#fff2cc"
     d="m 105.6508,224.10468 v 0 c 0,-26.42032 21.41791,-47.83823 47.83823,-47.83823 h 207.8511 c 12.68747,0 24.85531,5.04009 33.82672,14.01149 8.9714,8.97141 14.0115,21.13926 14.0115,33.82674 v 191.34715 c 0,26.42035 -21.41791,47.83826 -47.83823,47.83826 H 153.48903 c -26.42032,0 -47.83823,-21.41791 -47.83823,-47.83826 z"
     fill-rule="evenodd"
     id="path13" />
  <path
     stroke="#000000"
     stroke-width="1"
     stroke-linejoin="round"
     stroke-linecap="butt"
     d="m 105.6508,224.10468 v 0 c 0,-26.42032 21.41791,-47.83823 47.83823,-47.83823 h 207.8511 c 12.68747,0 24.85531,5.04009 33.82672,14.01149 8.9714,8.97141 14.0115,21.13926 14.0115,33.82674 v 191.34715 c 0,26.42035 -21.41791,47.83826 -47.83823,47.83826 H 153.48903 c -26.42032,0 -47.83823,-21.41791 -47.83823,-47.83826 z"
     fill-rule="evenodd"
     id="path15" />
  <path
     fill="#000000"
     d="m 216.85636,217.99467 1.59375,0.23437 q 0.10937,0.75 0.5625,1.07813 0.60937,0.45312 1.67187,0.45312 1.14063,0 1.75,-0.45312 0.625,-0.45313 0.84375,-1.26563 0.125,-0.5 0.10938,-2.10937 -1.0625,1.26562 -2.67188,1.26562 -2,0 -3.09375,-1.4375 -1.09375,-1.4375 -1.09375,-3.45312 0,-1.39063 0.5,-2.5625 0.51563,-1.17188 1.45313,-1.79688 0.95312,-0.64062 2.25,-0.64062 1.70312,0 2.8125,1.375 v -1.15625 h 1.51562 v 8.35937 q 0,2.26563 -0.46875,3.20313 -0.45312,0.9375 -1.45312,1.48437 -0.98438,0.54688 -2.45313,0.54688 -1.71875,0 -2.79687,-0.78125 -1.0625,-0.76563 -1.03125,-2.34375 z m 1.35937,-5.8125 q 0,1.90625 0.75,2.78125 0.76563,0.875 1.90625,0.875 1.125,0 1.89063,-0.85938 0.76562,-0.875 0.76562,-2.73437 0,-1.78125 -0.79687,-2.67188 -0.78125,-0.90625 -1.89063,-0.90625 -1.09375,0 -1.85937,0.89063 -0.76563,0.875 -0.76563,2.625 z m 15.59447,5.01562 v -1.21875 q -0.90625,1.4375 -2.70312,1.4375 -1.15625,0 -2.125,-0.64062 -0.96875,-0.64063 -1.5,-1.78125 -0.53125,-1.14063 -0.53125,-2.625 0,-1.45313 0.48437,-2.625 0.48438,-1.1875 1.4375,-1.8125 0.96875,-0.625 2.17188,-0.625 0.875,0 1.54687,0.375 0.6875,0.35937 1.10938,0.95312 v -4.79687 h 1.64062 v 13.35937 z m -5.17187,-4.82812 q 0,1.85937 0.78125,2.78125 0.78125,0.92187 1.84375,0.92187 1.07812,0 1.82812,-0.875 0.75,-0.89062 0.75,-2.6875 0,-1.98437 -0.76562,-2.90625 -0.76563,-0.9375 -1.89063,-0.9375 -1.07812,0 -1.8125,0.89063 -0.73437,0.89062 -0.73437,2.8125 z m 10.78196,4.82812 h -1.51562 v -13.35937 h 1.64062 v 4.76562 q 1.04688,-1.29687 2.65625,-1.29687 0.89063,0 1.6875,0.35937 0.79688,0.35938 1.3125,1.01563 0.51563,0.64062 0.79688,1.5625 0.29687,0.92187 0.29687,1.96875 0,2.48437 -1.23437,3.84375 -1.21875,1.35937 -2.95313,1.35937 -1.70312,0 -2.6875,-1.4375 z m -0.0156,-4.90625 q 0,1.73438 0.48437,2.51563 0.76563,1.26562 2.09375,1.26562 1.07813,0 1.85938,-0.9375 0.78125,-0.9375 0.78125,-2.78125 0,-1.89062 -0.75,-2.79687 -0.75,-0.90625 -1.82813,-0.90625 -1.0625,0 -1.85937,0.9375 -0.78125,0.9375 -0.78125,2.70312 z m 8.23509,2.01563 1.625,-0.25 q 0.125,0.96875 0.75,1.5 0.625,0.51562 1.75,0.51562 1.125,0 1.67188,-0.45312 0.54687,-0.46875 0.54687,-1.09375 0,-0.54688 -0.48437,-0.875 -0.32813,-0.21875 -1.67188,-0.54688 -1.8125,-0.46875 -2.51562,-0.79687 -0.6875,-0.32813 -1.04688,-0.90625 -0.35937,-0.59375 -0.35937,-1.3125 0,-0.64063 0.29687,-1.1875 0.29688,-0.5625 0.8125,-0.92188 0.375,-0.28125 1.03125,-0.46875 0.67188,-0.20312 1.42188,-0.20312 1.14062,0 2,0.32812 0.85937,0.32813 1.26562,0.89063 0.42188,0.5625 0.57813,1.5 l -1.60938,0.21875 q -0.10937,-0.75 -0.64062,-1.17188 -0.51563,-0.42187 -1.46875,-0.42187 -1.14063,0 -1.625,0.375 -0.46875,0.375 -0.46875,0.875 0,0.3125 0.1875,0.57812 0.20312,0.26563 0.64062,0.4375 0.23438,0.0937 1.4375,0.42188 1.75,0.45312 2.4375,0.75 0.6875,0.29687 1.07813,0.85937 0.39062,0.5625 0.39062,1.40625 0,0.82813 -0.48437,1.54688 -0.46875,0.71875 -1.375,1.125 -0.90625,0.39062 -2.04688,0.39062 -1.875,0 -2.875,-0.78125 -0.98437,-0.78125 -1.25,-2.32812 z m 16.60938,-0.21875 1.6875,0.20312 q -0.40625,1.48438 -1.48438,2.3125 -1.07812,0.8125 -2.76562,0.8125 -2.125,0 -3.375,-1.29687 -1.23438,-1.3125 -1.23438,-3.67188 0,-2.45312 1.25,-3.79687 1.26563,-1.34375 3.26563,-1.34375 1.9375,0 3.15625,1.32812 1.23437,1.3125 1.23437,3.70313 0,0.15625 0,0.4375 h -7.21875 q 0.0937,1.59375 0.90625,2.45312 0.8125,0.84375 2.01563,0.84375 0.90625,0 1.54687,-0.46875 0.64063,-0.48437 1.01563,-1.51562 z m -5.39063,-2.65625 h 5.40625 q -0.10937,-1.21875 -0.625,-1.82813 -0.78125,-0.95312 -2.03125,-0.95312 -1.125,0 -1.90625,0.76562 -0.76562,0.75 -0.84375,2.01563 z m 9.1257,5.76562 v -9.67187 h 1.46875 v 1.46875 q 0.5625,-1.03125 1.03125,-1.35938 0.48438,-0.32812 1.0625,-0.32812 0.82813,0 1.6875,0.53125 l -0.5625,1.51562 q -0.60937,-0.35937 -1.20312,-0.35937 -0.54688,0 -0.96875,0.32812 -0.42188,0.32813 -0.60938,0.89063 -0.28125,0.875 -0.28125,1.92187 v 5.0625 z m 8.9158,0 -3.6875,-9.67187 h 1.73438 l 2.07812,5.79687 q 0.32813,0.9375 0.625,1.9375 0.20313,-0.76562 0.60938,-1.82812 l 2.14062,-5.90625 h 1.6875 l -3.65625,9.67187 z m 13.26563,-3.10937 1.6875,0.20312 q -0.40625,1.48438 -1.48438,2.3125 -1.07812,0.8125 -2.76562,0.8125 -2.125,0 -3.375,-1.29687 -1.23438,-1.3125 -1.23438,-3.67188 0,-2.45312 1.25,-3.79687 1.26563,-1.34375 3.26563,-1.34375 1.9375,0 3.15625,1.32812 1.23437,1.3125 1.23437,3.70313 0,0.15625 0,0.4375 h -7.21875 q 0.0937,1.59375 0.90625,2.45312 0.8125,0.84375 2.01563,0.84375 0.90625,0 1.54687,-0.46875 0.64063,-0.48437 1.01563,-1.51562 z m -5.39063,-2.65625 h 5.40625 q -0.10937,-1.21875 -0.625,-1.82813 -0.78125,-0.95312 -2.03125,-0.95312 -1.125,0 -1.90625,0.76562 -0.76562,0.75 -0.84375,2.01563 z m 9.12574,5.76562 v -9.67187 h 1.46875 v 1.46875 q 0.5625,-1.03125 1.03125,-1.35938 0.48437,-0.32812 1.0625,-0.32812 0.82812,0 1.6875,0.53125 l -0.5625,1.51562 q -0.60938,-0.35937 -1.20313,-0.35937 -0.54687,0 -0.96875,0.32812 -0.42187,0.32813 -0.60937,0.89063 -0.28125,0.875 -0.28125,1.92187 v 5.0625 z"
     fill-rule="nonzero"
     id="path17" />
  <path
     fill="#cfe2f3"
     d="M 213.02088,25.500051 H 675.57203 V 106.06697 H 213.02088 Z"
     fill-rule="evenodd"
     id="path19" />
  <path
     stroke="#000000"
     stroke-width="1"
     stroke-linejoin="round"
     stroke-linecap="butt"
     d="M 213.02088,25.500051 H 675.57203 V 106.06697 H 213.02088 Z"
     fill-rule="evenodd"
     id="path21" />
  <path
     fill="#000000"
     d="m 422.54913,52.420048 v -5.65625 l -5.15625,-7.703125 h 2.15625 l 2.64062,4.03125 q 0.71875,1.125 1.34375,2.265625 0.60938,-1.046875 1.46875,-2.359375 l 2.57813,-3.9375 h 2.0625 l -5.32813,7.703125 v 5.65625 z m 8.63107,0 V 39.060673 h 2.65625 l 3.15625,9.453125 q 0.4375,1.328125 0.64063,1.984375 0.23437,-0.734375 0.70312,-2.140625 l 3.20313,-9.296875 h 2.375 v 13.359375 h -1.70313 V 41.248173 l -3.875,11.171875 h -1.59375 l -3.85937,-11.375 v 11.375 z m 15.5408,0 V 39.060673 h 2.65625 l 3.15625,9.453125 q 0.4375,1.328125 0.64063,1.984375 0.23437,-0.734375 0.70312,-2.140625 l 3.20313,-9.296875 h 2.375 v 13.359375 h -1.70313 V 41.248173 l -3.875,11.171875 h -1.59375 l -3.85937,-11.375 v 11.375 z m 14.93143,-6.59375 q 0,-2.359375 0.48438,-3.796875 0.48437,-1.453125 1.4375,-2.234375 0.96875,-0.78125 2.42187,-0.78125 1.07813,0 1.89063,0.4375 0.8125,0.421875 1.32812,1.25 0.53125,0.8125 0.82813,1.984375 0.3125,1.15625 0.3125,3.140625 0,2.359375 -0.48438,3.8125 -0.48437,1.4375 -1.45312,2.234375 -0.95313,0.78125 -2.42188,0.78125 -1.92187,0 -3.03125,-1.390625 -1.3125,-1.671875 -1.3125,-5.4375 z m 1.67188,0 q 0,3.296875 0.76562,4.390625 0.78125,1.078125 1.90625,1.078125 1.14063,0 1.90625,-1.09375 0.76563,-1.09375 0.76563,-4.375 0,-3.296875 -0.76563,-4.375 -0.76562,-1.078125 -1.92187,-1.078125 -1.125,0 -1.79688,0.953125 -0.85937,1.21875 -0.85937,4.5 z"
     fill-rule="nonzero"
     id="path23" />
  <path
     fill="#d9ead3"
     d="M 444.29647,65.783516 H 675.57204 V 106.06698 H 444.29647 Z"
     fill-rule="evenodd"
     id="path25" />
  <path
     stroke="#000000"
     stroke-width="1"
     stroke-linejoin="round"
     stroke-linecap="butt"
     d="M 444.29647,65.783516 H 675.57204 V 106.06698 H 444.29647 Z"
     fill-rule="evenodd"
     id="path27" />
  <path
     fill="#000000"
     d="m 533.06194,92.703511 5.17187,-6.953125 -4.5625,-6.40625 h 2.10938 l 2.42187,3.4375 q 0.75,1.0625 1.07813,1.625 0.4375,-0.71875 1.04687,-1.515625 l 2.6875,-3.546875 h 1.92188 l -4.6875,6.296875 5.0625,7.0625 h -2.1875 l -3.35938,-4.765625 q -0.28125,-0.40625 -0.59375,-0.890625 -0.4375,0.734375 -0.625,1 l -3.35937,4.65625 z m 13.75607,0 V 79.344136 h 2.65625 l 3.15625,9.453125 q 0.4375,1.328125 0.64063,1.984375 0.23437,-0.734375 0.70312,-2.140625 l 3.20313,-9.296875 h 2.375 v 13.359375 h -1.70313 V 81.531636 l -3.875,11.171875 h -1.59375 l -3.85937,-11.375 v 11.375 z m 15.5408,0 V 79.344136 h 2.65625 l 3.15625,9.453125 q 0.4375,1.328125 0.64063,1.984375 0.23437,-0.734375 0.70312,-2.140625 l 3.20313,-9.296875 h 2.375 v 13.359375 h -1.70313 V 81.531636 l -3.875,11.171875 h -1.59375 l -3.85937,-11.375 v 11.375 z m 14.93143,-6.59375 q 0,-2.359375 0.48438,-3.796875 0.48437,-1.453125 1.4375,-2.234375 0.96875,-0.78125 2.42187,-0.78125 1.07813,0 1.89063,0.4375 0.8125,0.421875 1.32812,1.25 0.53125,0.8125 0.82813,1.984375 0.3125,1.15625 0.3125,3.140625 0,2.359375 -0.48438,3.8125 -0.48437,1.4375 -1.45312,2.234375 -0.95313,0.78125 -2.42188,0.78125 -1.92187,0 -3.03125,-1.390625 -1.3125,-1.671875 -1.3125,-5.4375 z m 1.67188,0 q 0,3.296875 0.76562,4.390625 0.78125,1.078125 1.90625,1.078125 1.14063,0 1.90625,-1.09375 0.76563,-1.09375 0.76563,-4.375 0,-3.296875 -0.76563,-4.375 -0.76562,-1.078125 -1.92187,-1.078125 -1.125,0 -1.79688,0.953125 -0.85937,1.21875 -0.85937,4.5 z"
     fill-rule="nonzero"
     id="path29" />
  <path
     fill="#d9ead3"
     d="m 141.77679,255.24544 h 231.2756 v 40.28348 h -231.2756 z"
     fill-rule="evenodd"
     id="path31" />
  <path
     stroke="#000000"
     stroke-width="1"
     stroke-linejoin="round"
     stroke-linecap="butt"
     d="m 141.77679,255.24544 h 231.2756 v 40.28348 h -231.2756 z"
     fill-rule="evenodd"
     id="path33" />
  <path
     fill="#000000"
     d="m 230.54226,282.16546 5.17187,-6.95313 -4.5625,-6.40625 h 2.10938 l 2.42187,3.4375 q 0.75,1.0625 1.07813,1.625 0.4375,-0.71875 1.04687,-1.51562 l 2.6875,-3.54688 h 1.92188 l -4.6875,6.29688 5.0625,7.0625 h -2.1875 l -3.35938,-4.76563 q -0.28125,-0.40625 -0.59375,-0.89062 -0.4375,0.73437 -0.625,1 l -3.35937,4.65625 z m 13.75607,0 v -13.35938 h 2.65625 l 3.15625,9.45313 q 0.4375,1.32812 0.64063,1.98437 0.23437,-0.73437 0.70312,-2.14062 l 3.20313,-9.29688 h 2.375 v 13.35938 h -1.70313 v -11.17188 l -3.875,11.17188 h -1.59375 l -3.85937,-11.375 v 11.375 z m 15.5408,0 v -13.35938 h 2.65625 l 3.15625,9.45313 q 0.4375,1.32812 0.64063,1.98437 0.23437,-0.73437 0.70312,-2.14062 l 3.20313,-9.29688 h 2.375 v 13.35938 h -1.70313 v -11.17188 l -3.875,11.17188 h -1.59375 l -3.85937,-11.375 v 11.375 z m 14.93143,-6.59375 q 0,-2.35938 0.48438,-3.79688 0.48437,-1.45312 1.4375,-2.23437 0.96875,-0.78125 2.42187,-0.78125 1.07813,0 1.89063,0.4375 0.8125,0.42187 1.32812,1.25 0.53125,0.8125 0.82813,1.98437 0.3125,1.15625 0.3125,3.14063 0,2.35937 -0.48438,3.8125 -0.48437,1.4375 -1.45312,2.23437 -0.95313,0.78125 -2.42188,0.78125 -1.92187,0 -3.03125,-1.39062 -1.3125,-1.67188 -1.3125,-5.4375 z m 1.67188,0 q 0,3.29687 0.76562,4.39062 0.78125,1.07813 1.90625,1.07813 1.14063,0 1.90625,-1.09375 0.76563,-1.09375 0.76563,-4.375 0,-3.29688 -0.76563,-4.375 -0.76562,-1.07813 -1.92187,-1.07813 -1.125,0 -1.79688,0.95313 -0.85937,1.21875 -0.85937,4.5 z"
     fill-rule="nonzero"
     id="path35" />
  <path
     fill="#000000"
     fill-opacity="0"
     d="m 141.77679,295.52892 h 231.2756 v 40.28348 h -231.2756 z"
     fill-rule="evenodd"
     id="path37" />
  <path
     fill="#000000"
     d="m 256.89895,316.13642 q -0.21875,-0.21875 -0.21875,-0.51563 0,-0.29687 0.21875,-0.51562 0.21875,-0.23438 0.51563,-0.23438 0.29687,0 0.51562,0.23438 0.23438,0.21875 0.23438,0.51562 0,0.29688 -0.23438,0.51563 -0.21875,0.21875 -0.51562,0.21875 -0.29688,0 -0.51563,-0.21875 z m 0,-3.48438 q -0.21875,-0.21875 -0.21875,-0.51562 0,-0.29688 0.21875,-0.53125 0.21875,-0.21875 0.51563,-0.21875 0.29687,0 0.51562,0.21875 0.23438,0.23437 0.23438,0.53125 0,0.29687 -0.23438,0.51562 -0.21875,0.21875 -0.51562,0.21875 -0.29688,0 -0.51563,-0.21875 z m 0,6.96875 q -0.21875,-0.21875 -0.21875,-0.51562 0,-0.29688 0.21875,-0.51563 0.21875,-0.21875 0.51563,-0.21875 0.29687,0 0.51562,0.21875 0.23438,0.21875 0.23438,0.51563 0,0.29687 -0.23438,0.51562 -0.21875,0.23438 -0.51562,0.23438 -0.29688,0 -0.51563,-0.23438 z"
     fill-rule="nonzero"
     id="path39" />
  <path
     fill="#cfe2f3"
     d="m 515.54055,335.8124 h 231.27563 v 80.56693 H 515.54055 Z"
     fill-rule="evenodd"
     id="path41" />
  <path
     stroke="#000000"
     stroke-width="1"
     stroke-linejoin="round"
     stroke-linecap="butt"
     d="m 515.54055,335.8124 h 231.27563 v 80.56693 H 515.54055 Z"
     fill-rule="evenodd"
     id="path43" />
  <path
     fill="#000000"
     d="m 609.43107,362.73238 v -5.65625 l -5.15625,-7.70312 h 2.15625 l 2.64062,4.03125 q 0.71875,1.125 1.34375,2.26562 0.60938,-1.04687 1.46875,-2.35937 l 2.57813,-3.9375 h 2.0625 l -5.32813,7.70312 v 5.65625 z m 8.63104,0 v -13.35937 h 2.65625 l 3.15625,9.45312 q 0.4375,1.32813 0.64063,1.98438 0.23437,-0.73438 0.70312,-2.14063 l 3.20313,-9.29687 h 2.375 v 13.35937 h -1.70313 v -11.17187 l -3.875,11.17187 h -1.59375 l -3.85937,-11.375 v 11.375 z m 15.54083,0 v -13.35937 h 2.65625 l 3.15625,9.45312 q 0.4375,1.32813 0.64063,1.98438 0.23437,-0.73438 0.70312,-2.14063 l 3.20313,-9.29687 h 2.375 v 13.35937 h -1.70313 v -11.17187 l -3.875,11.17187 h -1.59375 l -3.85937,-11.375 v 11.375 z m 14.9314,-6.59375 q 0,-2.35937 0.48438,-3.79687 0.48437,-1.45313 1.4375,-2.23438 0.96875,-0.78125 2.42187,-0.78125 1.07813,0 1.89063,0.4375 0.8125,0.42188 1.32812,1.25 0.53125,0.8125 0.82813,1.98438 0.3125,1.15625 0.3125,3.14062 0,2.35938 -0.48438,3.8125 -0.48437,1.4375 -1.45312,2.23438 -0.95313,0.78125 -2.42188,0.78125 -1.92187,0 -3.03125,-1.39063 -1.3125,-1.67187 -1.3125,-5.4375 z m 1.67188,0 q 0,3.29688 0.76562,4.39063 0.78125,1.07812 1.90625,1.07812 1.14063,0 1.90625,-1.09375 0.76563,-1.09375 0.76563,-4.375 0,-3.29687 -0.76563,-4.375 -0.76562,-1.07812 -1.92187,-1.07812 -1.125,0 -1.79688,0.95312 -0.85937,1.21875 -0.85937,4.5 z"
     fill-rule="nonzero"
     id="path45" />
  <path
     fill="#d9ead3"
     d="m 515.54055,255.24544 h 231.27563 v 40.28348 H 515.54055 Z"
     fill-rule="evenodd"
     id="path47" />
  <path
     stroke="#000000"
     stroke-width="1"
     stroke-linejoin="round"
     stroke-linecap="butt"
     d="m 515.54055,255.24544 h 231.27563 v 40.28348 H 515.54055 Z"
     fill-rule="evenodd"
     id="path49" />
  <path
     fill="#000000"
     d="m 604.30607,282.16546 5.17187,-6.95313 -4.5625,-6.40625 h 2.10938 l 2.42187,3.4375 q 0.75,1.0625 1.07813,1.625 0.4375,-0.71875 1.04687,-1.51562 l 2.6875,-3.54688 h 1.92188 l -4.6875,6.29688 5.0625,7.0625 h -2.1875 l -3.35938,-4.76563 q -0.28125,-0.40625 -0.59375,-0.89062 -0.4375,0.73437 -0.625,1 l -3.35937,4.65625 z m 13.75604,0 v -13.35938 h 2.65625 l 3.15625,9.45313 q 0.4375,1.32812 0.64063,1.98437 0.23437,-0.73437 0.70312,-2.14062 l 3.20313,-9.29688 h 2.375 v 13.35938 h -1.70313 v -11.17188 l -3.875,11.17188 h -1.59375 l -3.85937,-11.375 v 11.375 z m 15.54083,0 v -13.35938 h 2.65625 l 3.15625,9.45313 q 0.4375,1.32812 0.64063,1.98437 0.23437,-0.73437 0.70312,-2.14062 l 3.20313,-9.29688 h 2.375 v 13.35938 h -1.70313 v -11.17188 l -3.875,11.17188 h -1.59375 l -3.85937,-11.375 v 11.375 z m 14.9314,-6.59375 q 0,-2.35938 0.48438,-3.79688 0.48437,-1.45312 1.4375,-2.23437 0.96875,-0.78125 2.42187,-0.78125 1.07813,0 1.89063,0.4375 0.8125,0.42187 1.32812,1.25 0.53125,0.8125 0.82813,1.98437 0.3125,1.15625 0.3125,3.14063 0,2.35937 -0.48438,3.8125 -0.48437,1.4375 -1.45312,2.23437 -0.95313,0.78125 -2.42188,0.78125 -1.92187,0 -3.03125,-1.39062 -1.3125,-1.67188 -1.3125,-5.4375 z m 1.67188,0 q 0,3.29687 0.76562,4.39062 0.78125,1.07813 1.90625,1.07813 1.14063,0 1.90625,-1.09375 0.76563,-1.09375 0.76563,-4.375 0,-3.29688 -0.76563,-4.375 -0.76562,-1.07813 -1.92187,-1.07813 -1.125,0 -1.79688,0.95313 -0.85937,1.21875 -0.85937,4.5 z"
     fill-rule="nonzero"
     id="path51" />
  <path
     fill="#000000"
     fill-opacity="0"
     d="M 515.54055,295.52892 H 746.81618 V 335.8124 H 515.54055 Z"
     fill-rule="evenodd"
     id="path53" />
  <path
     fill="#000000"
     d="m 630.66277,316.13642 q -0.21875,-0.21875 -0.21875,-0.51563 0,-0.29687 0.21875,-0.51562 0.21875,-0.23438 0.51563,-0.23438 0.29687,0 0.51562,0.23438 0.23438,0.21875 0.23438,0.51562 0,0.29688 -0.23438,0.51563 -0.21875,0.21875 -0.51562,0.21875 -0.29688,0 -0.51563,-0.21875 z m 0,-3.48438 q -0.21875,-0.21875 -0.21875,-0.51562 0,-0.29688 0.21875,-0.53125 0.21875,-0.21875 0.51563,-0.21875 0.29687,0 0.51562,0.21875 0.23438,0.23437 0.23438,0.53125 0,0.29687 -0.23438,0.51562 -0.21875,0.21875 -0.51562,0.21875 -0.29688,0 -0.51563,-0.21875 z m 0,6.96875 q -0.21875,-0.21875 -0.21875,-0.51562 0,-0.29688 0.21875,-0.51563 0.21875,-0.21875 0.51563,-0.21875 0.29687,0 0.51562,0.21875 0.23438,0.21875 0.23438,0.51563 0,0.29687 -0.23438,0.51562 -0.21875,0.23438 -0.51562,0.23438 -0.29688,0 -0.51563,-0.23438 z"
     fill-rule="nonzero"
     id="path55" />
  <path
     fill="#d9d2e9"
     d="m 141.77679,335.8124 h 231.2756 v 40.28345 h -231.2756 z"
     fill-rule="evenodd"
     id="path57" />
  <path
     stroke="#000000"
     stroke-width="1"
     stroke-linejoin="round"
     stroke-linecap="butt"
     d="m 141.77679,335.8124 h 231.2756 v 40.28345 h -231.2756 z"
     fill-rule="evenodd"
     id="path59" />
  <path
     fill="#000000"
     d="m 230.47939,362.73238 v -5.65625 l -5.15625,-7.70312 h 2.15625 l 2.64062,4.03125 q 0.71875,1.125 1.34375,2.26562 0.60938,-1.04687 1.46875,-2.35937 l 2.57813,-3.9375 h 2.0625 l -5.32813,7.70312 v 5.65625 z m 8.63107,0 v -13.35937 h 2.65625 l 3.15625,9.45312 q 0.4375,1.32813 0.64063,1.98438 0.23437,-0.73438 0.70312,-2.14063 l 3.20313,-9.29687 h 2.375 v 13.35937 h -1.70313 v -11.17187 l -3.875,11.17187 h -1.59375 l -3.85937,-11.375 v 11.375 z m 15.5408,0 v -13.35937 h 2.65625 l 3.15625,9.45312 q 0.4375,1.32813 0.64063,1.98438 0.23437,-0.73438 0.70312,-2.14063 l 3.20313,-9.29687 h 2.375 v 13.35937 h -1.70313 v -11.17187 l -3.875,11.17187 h -1.59375 l -3.85937,-11.375 v 11.375 z m 14.93143,-6.59375 q 0,-2.35937 0.48438,-3.79687 0.48437,-1.45313 1.4375,-2.23438 0.96875,-0.78125 2.42187,-0.78125 1.07813,0 1.89063,0.4375 0.8125,0.42188 1.32812,1.25 0.53125,0.8125 0.82813,1.98438 0.3125,1.15625 0.3125,3.14062 0,2.35938 -0.48438,3.8125 -0.48437,1.4375 -1.45312,2.23438 -0.95313,0.78125 -2.42188,0.78125 -1.92187,0 -3.03125,-1.39063 -1.3125,-1.67187 -1.3125,-5.4375 z m 1.67188,0 q 0,3.29688 0.76562,4.39063 0.78125,1.07812 1.90625,1.07812 1.14063,0 1.90625,-1.09375 0.76563,-1.09375 0.76563,-4.375 0,-3.29687 -0.76563,-4.375 -0.76562,-1.07812 -1.92187,-1.07812 -1.125,0 -1.79688,0.95312 -0.85937,1.21875 -0.85937,4.5 z m 9.15698,6.59375 v -13.35937 h 1.64062 v 4.79687 q 1.14063,-1.32812 2.89063,-1.32812 1.07812,0 1.85937,0.42187 0.79688,0.42188 1.14063,1.17188 0.34375,0.75 0.34375,2.17187 v 6.125 h -1.64063 v -6.125 q 0,-1.23437 -0.53125,-1.79687 -0.53125,-0.5625 -1.51562,-0.5625 -0.71875,0 -1.35938,0.39062 -0.64062,0.375 -0.92187,1.01563 -0.26563,0.64062 -0.26563,1.78125 v 5.29687 z"
     fill-rule="nonzero"
     id="path61" />
  <path
     fill="#d9d2e9"
     d="M 213.02088,65.783516 H 444.29647 V 106.06698 H 213.02088 Z"
     fill-rule="evenodd"
     id="path63" />
  <path
     stroke="#000000"
     stroke-width="1"
     stroke-linejoin="round"
     stroke-linecap="butt"
     stroke-dasharray="4, 3"
     d="M 213.02088,65.783516 H 444.29647 V 106.06698 H 213.02088 Z"
     fill-rule="evenodd"
     id="path65" />
  <path
     fill="#000000"
     d="m 301.72349,92.703511 v -5.65625 l -5.15625,-7.703125 h 2.15625 l 2.64062,4.03125 q 0.71875,1.125 1.34375,2.265625 0.60938,-1.046875 1.46875,-2.359375 l 2.57813,-3.9375 h 2.0625 l -5.32813,7.703125 v 5.65625 z m 8.63107,0 V 79.344136 h 2.65625 l 3.15625,9.453125 q 0.4375,1.328125 0.64063,1.984375 0.23437,-0.734375 0.70312,-2.140625 l 3.20313,-9.296875 h 2.375 v 13.359375 h -1.70313 V 81.531636 l -3.875,11.171875 h -1.59375 l -3.85937,-11.375 v 11.375 z m 15.5408,0 V 79.344136 h 2.65625 l 3.15625,9.453125 q 0.4375,1.328125 0.64063,1.984375 0.23437,-0.734375 0.70312,-2.140625 l 3.20313,-9.296875 h 2.375 v 13.359375 h -1.70313 V 81.531636 l -3.875,11.171875 h -1.59375 l -3.85937,-11.375 v 11.375 z m 14.93145,-6.59375 q 0,-2.359375 0.48434,-3.796875 0.48438,-1.453125 1.4375,-2.234375 0.96875,-0.78125 2.42188,-0.78125 1.07812,0 1.89062,0.4375 0.8125,0.421875 1.32813,1.25 0.53125,0.8125 0.82812,1.984375 0.3125,1.15625 0.3125,3.140625 0,2.359375 -0.48437,3.8125 -0.48438,1.4375 -1.45313,2.234375 -0.95312,0.78125 -2.42187,0.78125 -1.92188,0 -3.03125,-1.390625 -1.31247,-1.671875 -1.31247,-5.4375 z m 1.67184,0 q 0,3.296875 0.76563,4.390625 0.78125,1.078125 1.90625,1.078125 1.14062,0 1.90625,-1.09375 0.76562,-1.09375 0.76562,-4.375 0,-3.296875 -0.76562,-4.375 -0.76563,-1.078125 -1.92188,-1.078125 -1.125,0 -1.79687,0.953125 -0.85938,1.21875 -0.85938,4.5 z m 9.15698,6.59375 V 79.344136 h 1.64063 v 4.796875 q 1.14062,-1.328125 2.89062,-1.328125 1.07813,0 1.85938,0.421875 0.79687,0.421875 1.14062,1.171875 0.34375,0.75 0.34375,2.171875 v 6.125 h -1.64062 v -6.125 q 0,-1.234375 -0.53125,-1.796875 -0.53125,-0.5625 -1.51563,-0.5625 -0.71875,0 -1.35937,0.390625 -0.64063,0.375 -0.92188,1.015625 -0.26562,0.640625 -0.26562,1.78125 v 5.296875 z"
     fill-rule="nonzero"
     id="path67" />
  <path
     fill="#000000"
     fill-opacity="0"
     d="m 559.93427,106.06698 v 43.06557 H 445.25443 v 126.25728 h 70.27039"
     fill-rule="evenodd"
     id="path69" />
  <path
     stroke="#000000"
     stroke-width="1"
     stroke-linejoin="round"
     stroke-linecap="butt"
     d="m 559.93427,106.06698 v 43.06557 H 445.2544 v 126.25728 h 64.27042"
     fill-rule="evenodd"
     id="path71" />
  <path
     fill="#000000"
     stroke="#000000"
     stroke-width="1"
     stroke-linecap="butt"
     d="m 509.5248,277.04156 4.53812,-1.65173 -4.53812,-1.65174 z"
     fill-rule="evenodd"
     id="path73" />
  <path
     fill="#000000"
     fill-opacity="0"
     d="M 515.54055,275.3872 H 373.05239"
     fill-rule="evenodd"
     id="path75" />
  <path
     stroke="#000000"
     stroke-width="1"
     stroke-linejoin="round"
     stroke-linecap="butt"
     d="M 515.54055,275.3872 H 379.05239"
     fill-rule="evenodd"
     id="path77" />
  <path
     fill="#000000"
     stroke="#000000"
     stroke-width="1"
     stroke-linecap="butt"
     d="m 379.05239,273.73546 -4.53812,1.65173 4.53812,1.65174 z"
     fill-rule="evenodd"
     id="path79" />
  <path
     fill="#000000"
     fill-opacity="0"
     d="M 213.02088,85.925247 H 116.77652 V 355.941 h 25.00027"
     fill-rule="evenodd"
     id="path81" />
  <path
     stroke="#000000"
     stroke-width="1"
     stroke-linejoin="round"
     stroke-linecap="butt"
     d="M 213.02088,85.925247 H 116.77652 V 355.941 h 19.00027"
     fill-rule="evenodd"
     id="path83" />
  <path
     fill="#000000"
     stroke="#000000"
     stroke-width="1"
     stroke-linecap="butt"
     d="m 135.77679,357.59272 4.5381,-1.65173 -4.5381,-1.65174 z"
     fill-rule="evenodd"
     id="path85" />
  <path
     fill="#000000"
     fill-opacity="0"
     d="M 444.29647,25.500051 V 0.5 h 327.5199 v 375.58273 h -25.00018"
     fill-rule="evenodd"
     id="path87" />
  <path
     stroke="#000000"
     stroke-width="1"
     stroke-linejoin="round"
     stroke-linecap="butt"
     d="M 444.29647,25.500051 V 0.5 h 327.51996 v 375.58273 h -19.00024"
     fill-rule="evenodd"
     id="path89" />
  <path
     fill="#000000"
     stroke="#000000"
     stroke-width="1"
     stroke-linecap="butt"
     d="m 752.81617,374.43099 -4.53815,1.65173 4.53815,1.65174 z"
     fill-rule="evenodd"
     id="path91" />
</svg>
