<?xml version="1.0" encoding="UTF-8" standalone="no"?>
<svg
   xmlns:dc="http://purl.org/dc/elements/1.1/"
   xmlns:cc="http://creativecommons.org/ns#"
   xmlns:rdf="http://www.w3.org/1999/02/22-rdf-syntax-ns#"
   xmlns:svg="http://www.w3.org/2000/svg"
   xmlns="http://www.w3.org/2000/svg"
   xmlns:sodipodi="http://sodipodi.sourceforge.net/DTD/sodipodi-0.dtd"
   xmlns:inkscape="http://www.inkscape.org/namespaces/inkscape"
   version="1.1"
   viewBox="0 0 652.2668 521.7572"
   fill="none"
   stroke="none"
   stroke-linecap="square"
   stroke-miterlimit="10"
   id="svg135"
   sodipodi:docname="registers-rax_rsi_st0.svg"
   width="652.26678"
   height="521.7572"
   inkscape:version="1.0.1 (3bc2e813f5, 2020-09-07)">
  <metadata
     id="metadata141">
    <rdf:RDF>
      <cc:Work
         rdf:about="">
        <dc:format>image/svg+xml</dc:format>
        <dc:type
           rdf:resource="http://purl.org/dc/dcmitype/StillImage" />
        <dc:title></dc:title>
      </cc:Work>
    </rdf:RDF>
  </metadata>
  <defs
     id="defs139" />
  <sodipodi:namedview
     pagecolor="#ffffff"
     bordercolor="#666666"
     borderopacity="1"
     objecttolerance="10"
     gridtolerance="10"
     guidetolerance="10"
     inkscape:pageopacity="0"
     inkscape:pageshadow="2"
     inkscape:window-width="1364"
     inkscape:window-height="747"
     id="namedview137"
     showgrid="false"
     inkscape:zoom="1.0685185"
     inkscape:cx="284.72542"
     inkscape:cy="130.89415"
     inkscape:window-x="0"
     inkscape:window-y="19"
     inkscape:window-maximized="0"
     inkscape:current-layer="svg135" />
  <clipPath
     id="p.0">
    <path
       d="M 0,0 H 720 V 540 H 0 Z"
       clip-rule="nonzero"
       id="path2" />
  </clipPath>
  <path
     fill="#000000"
     fill-opacity="0"
     d="M 79.210157,-10.099737 H 799.21012 V 529.90026 H 79.210157 Z"
     fill-rule="evenodd"
     id="path5" />
  <path
     fill="#cfe2f3"
     d="M 145.57237,63.241473 H 558.54875 V 232.69029 H 145.57237 Z"
     fill-rule="evenodd"
     id="path7" />
  <path
     stroke="#000000"
     stroke-width="1"
     stroke-linejoin="round"
     stroke-linecap="butt"
     d="M 145.57237,63.241473 H 558.54875 V 232.69029 H 145.57237 Z"
     fill-rule="evenodd"
     id="path9" />
  <path
     fill="#000000"
     d="M 334.34924,90.161473 V 76.802098 h 5.92189 q 1.78125,0 2.70313,0.359375 0.9375,0.359375 1.48437,1.28125 0.5625,0.90625 0.5625,2.015625 0,1.40625 -0.92187,2.390625 -0.92188,0.96875 -2.84375,1.234375 0.70312,0.34375 1.07812,0.671875 0.76563,0.703125 1.45313,1.765625 l 2.32812,3.640625 h -2.21875 l -1.76562,-2.78125 q -0.78125,-1.203125 -1.28125,-1.828125 -0.5,-0.640625 -0.90625,-0.890625 -0.39063,-0.265625 -0.79688,-0.359375 -0.29687,-0.07813 -0.98437,-0.07813 h -2.04688 v 5.937505 z m 1.76564,-7.453125 h 3.79688 q 1.21875,0 1.89062,-0.25 0.6875,-0.265625 1.04688,-0.8125 0.35937,-0.546875 0.35937,-1.1875 0,-0.953125 -0.6875,-1.5625 -0.6875,-0.609375 -2.1875,-0.609375 h -4.21875 z m 10.20731,7.453125 5.125,-13.359375 h 1.90625 l 5.46875,13.359375 h -2.01563 l -1.54687,-4.046875 h -5.59375 l -1.46875,4.046875 z m 3.85937,-5.484375 h 4.53125 l -1.40625,-3.703125 q -0.625,-1.6875 -0.9375,-2.765625 -0.26562,1.28125 -0.71875,2.546875 z m 8.69357,5.484375 5.17188,-6.953125 -4.5625,-6.40625 h 2.10937 l 2.42188,3.4375 q 0.75,1.0625 1.07812,1.625 0.4375,-0.71875 1.04688,-1.515625 l 2.6875,-3.546875 h 1.92187 l -4.6875,6.296875 5.0625,7.0625 h -2.1875 l -3.35937,-4.765625 q -0.28125,-0.40625 -0.59375,-0.890625 -0.4375,0.734375 -0.625,1 l -3.35938,4.65625 z"
     fill-rule="nonzero"
     id="path11" />
  <path
     fill="#d9ead3"
     d="M 352.06056,105.60368 H 558.54875 V 232.69029 H 352.06056 Z"
     fill-rule="evenodd"
     id="path13" />
  <path
     stroke="#000000"
     stroke-width="1"
     stroke-linejoin="round"
     stroke-linecap="butt"
     d="M 352.06056,105.60368 H 558.54875 V 232.69029 H 352.06056 Z"
     fill-rule="evenodd"
     id="path15" />
  <path
     fill="#000000"
     d="m 438.10806,132.52367 v -13.35938 h 9.65625 v 1.57813 h -7.875 v 4.09375 h 7.375 v 1.5625 h -7.375 v 4.54687 h 8.1875 v 1.57813 z m 10.94357,0 5.125,-13.35938 h 1.90625 l 5.46875,13.35938 h -2.01562 l -1.54688,-4.04688 h -5.59375 l -1.46875,4.04688 z m 3.85938,-5.48438 h 4.53125 l -1.40625,-3.70312 q -0.625,-1.6875 -0.9375,-2.76563 -0.26563,1.28125 -0.71875,2.54688 z m 8.69357,5.48438 5.17188,-6.95313 -4.5625,-6.40625 h 2.10937 l 2.42188,3.4375 q 0.75,1.0625 1.07812,1.625 0.4375,-0.71875 1.04688,-1.51562 l 2.6875,-3.54688 h 1.92187 l -4.6875,6.29688 5.0625,7.0625 h -2.1875 l -3.35937,-4.76563 q -0.28125,-0.40625 -0.59375,-0.89062 -0.4375,0.73437 -0.625,1 l -3.35938,4.65625 z"
     fill-rule="nonzero"
     id="path17" />
  <path
     fill="#fff2cc"
     d="m 455.30464,147.96587 h 103.24411 v 84.72441 H 455.30464 Z"
     fill-rule="evenodd"
     id="path19" />
  <path
     stroke="#000000"
     stroke-width="1"
     stroke-linejoin="round"
     stroke-linecap="butt"
     d="m 455.30464,147.96587 h 103.24411 v 84.72441 H 455.30464 Z"
     fill-rule="evenodd"
     id="path21" />
  <path
     fill="#000000"
     d="m 494.45186,174.88587 5.125,-13.35938 h 1.90625 l 5.46875,13.35938 h -2.01563 l -1.54687,-4.04688 h -5.59375 l -1.46875,4.04688 z m 3.85937,-5.48438 h 4.53125 l -1.40625,-3.70312 q -0.625,-1.6875 -0.9375,-2.76563 -0.26562,1.28125 -0.71875,2.54688 z m 8.69358,5.48438 5.17187,-6.95313 -4.5625,-6.40625 h 2.10938 l 2.42187,3.4375 q 0.75,1.0625 1.07813,1.625 0.4375,-0.71875 1.04687,-1.51562 l 2.6875,-3.54688 h 1.92188 l -4.6875,6.29688 5.0625,7.0625 h -2.1875 l -3.35938,-4.76563 q -0.28125,-0.40625 -0.59375,-0.89062 -0.4375,0.73437 -0.625,1 l -3.35937,4.65625 z"
     fill-rule="nonzero"
     id="path23" />
  <path
     fill="#d9d2e9"
     d="m 506.92668,190.32809 h 51.62207 v 42.3622 h -51.62207 z"
     fill-rule="evenodd"
     id="path25" />
  <path
     stroke="#000000"
     stroke-width="1"
     stroke-linejoin="round"
     stroke-linecap="butt"
     d="m 506.92668,190.32809 h 51.62207 v 42.3622 h -51.62207 z"
     fill-rule="evenodd"
     id="path27" />
  <path
     fill="#000000"
     d="m 521.29683,217.24808 5.125,-13.35937 h 1.90625 l 5.46875,13.35937 h -2.01562 l -1.54688,-4.04687 h -5.59375 l -1.46875,4.04687 z m 3.85938,-5.48437 h 4.53125 l -1.40625,-3.70313 q -0.625,-1.6875 -0.9375,-2.76562 -0.26563,1.28125 -0.71875,2.54687 z m 9.97482,5.48437 v -13.35937 h 1.78125 v 11.78125 h 6.5625 v 1.57812 z"
     fill-rule="nonzero"
     id="path29" />
  <path
     fill="#f4cccc"
     d="m 455.30464,190.32809 h 51.62204 v 42.3622 h -51.62204 z"
     fill-rule="evenodd"
     id="path31" />
  <path
     stroke="#000000"
     stroke-width="1"
     stroke-linejoin="round"
     stroke-linecap="butt"
     d="m 455.30464,190.32809 h 51.62204 v 42.3622 h -51.62204 z"
     fill-rule="evenodd"
     id="path33" />
  <path
     fill="#000000"
     d="m 469.67479,217.24808 5.125,-13.35937 h 1.90625 l 5.46875,13.35937 h -2.01563 l -1.54687,-4.04687 h -5.59375 l -1.46875,4.04687 z m 3.85937,-5.48437 h 4.53125 l -1.40625,-3.70313 q -0.625,-1.6875 -0.9375,-2.76562 -0.26562,1.28125 -0.71875,2.54687 z m 9.97483,5.48437 v -13.35937 h 1.78125 v 11.78125 h 6.5625 v 1.57812 z"
     fill-rule="nonzero"
     id="path35" />
  <path
     fill="#cfe2f3"
     d="M 145.57237,249.88714 H 558.54875 V 419.33596 H 145.57237 Z"
     fill-rule="evenodd"
     id="path37" />
  <path
     stroke="#000000"
     stroke-width="1"
     stroke-linejoin="round"
     stroke-linecap="butt"
     d="M 145.57237,249.88714 H 558.54875 V 419.33596 H 145.57237 Z"
     fill-rule="evenodd"
     id="path39" />
  <path
     fill="#000000"
     d="m 337.97939,276.80712 v -13.35938 h 5.92187 q 1.78125,0 2.70313,0.35938 0.9375,0.35937 1.48437,1.28125 0.5625,0.90625 0.5625,2.01562 0,1.40625 -0.92187,2.39063 -0.92188,0.96875 -2.84375,1.23437 0.70312,0.34375 1.07812,0.67188 0.76563,0.70312 1.45313,1.76562 l 2.32812,3.64063 h -2.21875 l -1.76562,-2.78125 q -0.78125,-1.20313 -1.28125,-1.82813 -0.5,-0.64062 -0.90625,-0.89062 -0.39063,-0.26563 -0.79688,-0.35938 -0.29687,-0.0781 -0.98437,-0.0781 h -2.04688 v 5.9375 z m 1.76562,-7.45313 h 3.79688 q 1.21875,0 1.89062,-0.25 0.6875,-0.26562 1.04688,-0.8125 0.35937,-0.54687 0.35937,-1.1875 0,-0.95312 -0.6875,-1.5625 -0.6875,-0.60937 -2.1875,-0.60937 h -4.21875 z m 11.08234,3.15625 1.65625,-0.14062 q 0.125,1 0.54688,1.64062 0.4375,0.64063 1.34375,1.04688 0.92187,0.39062 2.0625,0.39062 1,0 1.78125,-0.29687 0.78125,-0.29688 1.15625,-0.8125 0.375,-0.53125 0.375,-1.15625 0,-0.625 -0.375,-1.09375 -0.35938,-0.46875 -1.1875,-0.79688 -0.54688,-0.20312 -2.39063,-0.64062 -1.82812,-0.45313 -2.5625,-0.84375 -0.96875,-0.5 -1.4375,-1.23438 -0.46875,-0.75 -0.46875,-1.67187 0,-1 0.57813,-1.875 0.57812,-0.89063 1.67187,-1.34375 1.10938,-0.45313 2.45313,-0.45313 1.48437,0 2.60937,0.48438 1.14063,0.46875 1.75,1.40625 0.60938,0.92187 0.65625,2.09375 l -1.6875,0.125 q -0.14062,-1.26563 -0.9375,-1.90625 -0.78125,-0.65625 -2.3125,-0.65625 -1.60937,0 -2.34375,0.59375 -0.73437,0.59375 -0.73437,1.42187 0,0.71875 0.53125,1.17188 0.5,0.46875 2.65625,0.96875 2.15625,0.48437 2.95312,0.84375 1.17188,0.53125 1.71875,1.35937 0.5625,0.82813 0.5625,1.90625 0,1.0625 -0.60937,2.01563 -0.60938,0.9375 -1.75,1.46875 -1.14063,0.51562 -2.57813,0.51562 -1.8125,0 -3.04687,-0.53125 -1.21875,-0.53125 -1.92188,-1.59375 -0.6875,-1.0625 -0.71875,-2.40625 z m 13.3342,4.29688 v -13.35938 h 1.76562 v 13.35938 z"
     fill-rule="nonzero"
     id="path41" />
  <path
     fill="#d9ead3"
     d="M 352.06056,292.24936 H 558.54875 V 419.33597 H 352.06056 Z"
     fill-rule="evenodd"
     id="path43" />
  <path
     stroke="#000000"
     stroke-width="1"
     stroke-linejoin="round"
     stroke-linecap="butt"
     d="M 352.06056,292.24936 H 558.54875 V 419.33597 H 352.06056 Z"
     fill-rule="evenodd"
     id="path45" />
  <path
     fill="#000000"
     d="m 441.73816,319.16933 v -13.35938 h 9.65625 v 1.57813 h -7.875 v 4.09375 h 7.375 v 1.5625 h -7.375 v 4.54687 h 8.1875 v 1.57813 z m 11.81857,-4.29688 1.65625,-0.14062 q 0.125,1 0.54688,1.64062 0.4375,0.64063 1.34375,1.04688 0.92187,0.39062 2.0625,0.39062 1,0 1.78125,-0.29687 0.78125,-0.29688 1.15625,-0.8125 0.375,-0.53125 0.375,-1.15625 0,-0.625 -0.375,-1.09375 -0.35938,-0.46875 -1.1875,-0.79688 -0.54688,-0.20312 -2.39063,-0.64062 -1.82812,-0.45313 -2.5625,-0.84375 -0.96875,-0.5 -1.4375,-1.23438 -0.46875,-0.75 -0.46875,-1.67187 0,-1 0.57813,-1.875 0.57812,-0.89063 1.67187,-1.34375 1.10938,-0.45313 2.45313,-0.45313 1.48437,0 2.60937,0.48438 1.14063,0.46875 1.75,1.40625 0.60938,0.92187 0.65625,2.09375 l -1.6875,0.125 q -0.14062,-1.26563 -0.9375,-1.90625 -0.78125,-0.65625 -2.3125,-0.65625 -1.60937,0 -2.34375,0.59375 -0.73437,0.59375 -0.73437,1.42187 0,0.71875 0.53125,1.17188 0.5,0.46875 2.65625,0.96875 2.15625,0.48437 2.95312,0.84375 1.17188,0.53125 1.71875,1.35937 0.5625,0.82813 0.5625,1.90625 0,1.0625 -0.60937,2.01563 -0.60938,0.9375 -1.75,1.46875 -1.14063,0.51562 -2.57813,0.51562 -1.8125,0 -3.04687,-0.53125 -1.21875,-0.53125 -1.92188,-1.59375 -0.6875,-1.0625 -0.71875,-2.40625 z m 13.3342,4.29688 v -13.35938 h 1.76563 v 13.35938 z"
     fill-rule="nonzero"
     id="path47" />
  <path
     fill="#fff2cc"
     d="m 455.30464,334.61153 h 103.24411 v 84.72443 H 455.30464 Z"
     fill-rule="evenodd"
     id="path49" />
  <path
     stroke="#000000"
     stroke-width="1"
     stroke-linejoin="round"
     stroke-linecap="butt"
     d="m 455.30464,334.61153 h 103.24411 v 84.72443 H 455.30464 Z"
     fill-rule="evenodd"
     id="path51" />
  <path
     fill="#000000"
     d="m 498.95702,357.23466 1.65625,-0.14062 q 0.125,1 0.54688,1.64062 0.4375,0.64063 1.34375,1.04688 0.92187,0.39062 2.0625,0.39062 1,0 1.78125,-0.29687 0.78125,-0.29688 1.15625,-0.8125 0.375,-0.53125 0.375,-1.15625 0,-0.625 -0.375,-1.09375 -0.35938,-0.46875 -1.1875,-0.79688 -0.54688,-0.20312 -2.39063,-0.64062 -1.82812,-0.45313 -2.5625,-0.84375 -0.96875,-0.5 -1.4375,-1.23438 -0.46875,-0.75 -0.46875,-1.67187 0,-1 0.57813,-1.875 0.57812,-0.89063 1.67187,-1.34375 1.10938,-0.45313 2.45313,-0.45313 1.48437,0 2.60937,0.48438 1.14063,0.46875 1.75,1.40625 0.60938,0.92187 0.65625,2.09375 l -1.6875,0.125 q -0.14062,-1.26563 -0.9375,-1.90625 -0.78125,-0.65625 -2.3125,-0.65625 -1.60937,0 -2.34375,0.59375 -0.73437,0.59375 -0.73437,1.42187 0,0.71875 0.53125,1.17188 0.5,0.46875 2.65625,0.96875 2.15625,0.48437 2.95312,0.84375 1.17188,0.53125 1.71875,1.35937 0.5625,0.82813 0.5625,1.90625 0,1.0625 -0.60937,2.01563 -0.60938,0.9375 -1.75,1.46875 -1.14063,0.51562 -2.57813,0.51562 -1.8125,0 -3.04687,-0.53125 -1.21875,-0.53125 -1.92188,-1.59375 -0.6875,-1.0625 -0.71875,-2.40625 z m 13.3342,4.29688 v -13.35938 h 1.76562 v 13.35938 z"
     fill-rule="nonzero"
     id="path53" />
  <path
     fill="#d9d2e9"
     d="m 506.92668,376.97376 h 51.62207 v 42.36221 h -51.62207 z"
     fill-rule="evenodd"
     id="path55" />
  <path
     stroke="#000000"
     stroke-width="1"
     stroke-linejoin="round"
     stroke-linecap="butt"
     d="m 506.92668,376.97376 h 51.62207 v 42.36221 h -51.62207 z"
     fill-rule="evenodd"
     id="path57" />
  <path
     fill="#000000"
     d="m 519.58019,399.59688 1.65625,-0.14063 q 0.125,1 0.54687,1.64063 0.4375,0.64062 1.34375,1.04687 0.92188,0.39063 2.0625,0.39063 1,0 1.78125,-0.29688 0.78125,-0.29687 1.15625,-0.8125 0.375,-0.53125 0.375,-1.15625 0,-0.625 -0.375,-1.09375 -0.35937,-0.46875 -1.1875,-0.79687 -0.54687,-0.20313 -2.39062,-0.64063 -1.82813,-0.45312 -2.5625,-0.84375 -0.96875,-0.5 -1.4375,-1.23437 -0.46875,-0.75 -0.46875,-1.67188 0,-1 0.57812,-1.875 0.57813,-0.89062 1.67188,-1.34375 1.10937,-0.45312 2.45312,-0.45312 1.48438,0 2.60938,0.48437 1.14062,0.46875 1.75,1.40625 0.60937,0.92188 0.65625,2.09375 l -1.6875,0.125 q -0.14063,-1.26562 -0.9375,-1.90625 -0.78125,-0.65625 -2.3125,-0.65625 -1.60938,0 -2.34375,0.59375 -0.73438,0.59375 -0.73438,1.42188 0,0.71875 0.53125,1.17187 0.5,0.46875 2.65625,0.96875 2.15625,0.48438 2.95313,0.84375 1.17187,0.53125 1.71875,1.35938 0.5625,0.82812 0.5625,1.90625 0,1.0625 -0.60938,2.01562 -0.60937,0.9375 -1.75,1.46875 -1.14062,0.51563 -2.57812,0.51563 -1.8125,0 -3.04688,-0.53125 -1.21875,-0.53125 -1.92187,-1.59375 -0.6875,-1.0625 -0.71875,-2.40625 z m 13.3342,4.29687 v -13.35937 h 1.76562 v 13.35937 z m 4.80829,0 v -13.35937 h 1.78125 v 11.78125 h 6.5625 v 1.57812 z"
     fill-rule="nonzero"
     id="path59" />
  <path
     fill="#cfe2f3"
     d="M 93.950317,436.5328 H 558.54877 v 84.7244 H 93.950317 Z"
     fill-rule="evenodd"
     id="path61" />
  <path
     stroke="#000000"
     stroke-width="1"
     stroke-linejoin="round"
     stroke-linecap="butt"
     d="M 93.950317,436.5328 H 558.54877 v 84.7244 H 93.950317 Z"
     fill-rule="evenodd"
     id="path63" />
  <path
     fill="#000000"
     d="m 309.98564,459.15594 1.65625,-0.14063 q 0.125,1 0.54687,1.64063 0.4375,0.64062 1.34375,1.04687 0.92188,0.39063 2.0625,0.39063 1,0 1.78125,-0.29688 0.78125,-0.29687 1.15625,-0.8125 0.375,-0.53125 0.375,-1.15625 0,-0.625 -0.375,-1.09375 -0.35937,-0.46875 -1.1875,-0.79687 -0.54687,-0.20313 -2.39062,-0.64063 -1.82813,-0.45312 -2.5625,-0.84375 -0.96875,-0.5 -1.4375,-1.23437 -0.46875,-0.75 -0.46875,-1.67188 0,-1 0.57812,-1.875 0.57813,-0.89062 1.67188,-1.34375 1.10937,-0.45312 2.45312,-0.45312 1.48438,0 2.60938,0.48437 1.14062,0.46875 1.75,1.40625 0.60937,0.92188 0.65625,2.09375 l -1.6875,0.125 q -0.14063,-1.26562 -0.9375,-1.90625 -0.78125,-0.65625 -2.3125,-0.65625 -1.60938,0 -2.34375,0.59375 -0.73438,0.59375 -0.73438,1.42188 0,0.71875 0.53125,1.17187 0.5,0.46875 2.65625,0.96875 2.15625,0.48438 2.95313,0.84375 1.17187,0.53125 1.71875,1.35938 0.5625,0.82812 0.5625,1.90625 0,1.0625 -0.60938,2.01562 -0.60937,0.9375 -1.75,1.46875 -1.14062,0.51563 -2.57812,0.51563 -1.8125,0 -3.04688,-0.53125 -1.21875,-0.53125 -1.92187,-1.59375 -0.6875,-1.0625 -0.71875,-2.40625 z m 16.44357,4.29687 v -11.78125 h -4.40625 v -1.57812 h 10.57813 v 1.57812 h -4.40625 v 11.78125 z m 7.33348,-6.59375 q 0,-2.35937 0.48438,-3.79687 0.48437,-1.45313 1.43748,-2.23438 0.96875,-0.78125 2.42188,-0.78125 1.07812,0 1.89062,0.4375 0.8125,0.42188 1.32813,1.25 0.53125,0.8125 0.82812,1.98438 0.3125,1.15625 0.3125,3.14062 0,2.35938 -0.48437,3.8125 -0.48438,1.4375 -1.45313,2.23438 -0.95312,0.78125 -2.42187,0.78125 -1.92188,0 -3.03124,-1.39063 -1.3125,-1.67187 -1.3125,-5.4375 z m 1.67186,0 q 0,3.29688 0.76563,4.39063 0.78125,1.07812 1.90625,1.07812 1.14062,0 1.90625,-1.09375 0.76562,-1.09375 0.76562,-4.375 0,-3.29687 -0.76562,-4.375 -0.76563,-1.07812 -1.92188,-1.07812 -1.125,0 -1.79687,0.95312 -0.85938,1.21875 -0.85938,4.5 z"
     fill-rule="nonzero"
     id="path65" />
  <path
     fill="#d9ead3"
     d="m 145.57237,478.89501 h 412.97638 v 42.36218 H 145.57237 Z"
     fill-rule="evenodd"
     id="path67" />
  <path
     stroke="#000000"
     stroke-width="1"
     stroke-linejoin="round"
     stroke-linecap="butt"
     d="m 145.57237,478.89501 h 412.97638 v 42.36218 H 145.57237 Z"
     fill-rule="evenodd"
     id="path69" />
  <path
     fill="#000000"
     d="m 332.7225,505.81499 v -13.35938 h 2.65627 l 3.15625,9.45313 q 0.4375,1.32812 0.64062,1.98437 0.23438,-0.73437 0.70313,-2.14062 l 3.20312,-9.29688 h 2.375 v 13.35938 h -1.70312 v -11.17188 l -3.875,11.17188 h -1.59375 l -3.8594,-11.375 v 11.375 z m 15.54082,0 v -13.35938 h 2.65625 l 3.15625,9.45313 q 0.4375,1.32812 0.64062,1.98437 0.23438,-0.73437 0.70313,-2.14062 l 3.20312,-9.29688 h 2.375 v 13.35938 h -1.70312 v -11.17188 l -3.875,11.17188 h -1.59375 l -3.85938,-11.375 v 11.375 z m 14.93142,-6.59375 q 0,-2.35938 0.48438,-3.79688 0.48437,-1.45312 1.4375,-2.23437 0.96875,-0.78125 2.42187,-0.78125 1.07813,0 1.89063,0.4375 0.8125,0.42187 1.32812,1.25 0.53125,0.8125 0.82813,1.98437 0.3125,1.15625 0.3125,3.14063 0,2.35937 -0.48438,3.8125 -0.48437,1.4375 -1.45312,2.23437 -0.95313,0.78125 -2.42188,0.78125 -1.92187,0 -3.03125,-1.39062 -1.3125,-1.67188 -1.3125,-5.4375 z m 1.67188,0 q 0,3.29687 0.76562,4.39062 0.78125,1.07813 1.90625,1.07813 1.14063,0 1.90625,-1.09375 0.76563,-1.09375 0.76563,-4.375 0,-3.29688 -0.76563,-4.375 -0.76562,-1.07813 -1.92187,-1.07813 -1.125,0 -1.79688,0.95313 -0.85937,1.21875 -0.85937,4.5 z"
     fill-rule="nonzero"
     id="path71" />
  <path
     fill="#000000"
     fill-opacity="0"
     d="M 93.729847,53.994753 H 558.76921"
     fill-rule="evenodd"
     id="path73" />
  <path
     stroke="#000000"
     stroke-width="1"
     stroke-linejoin="round"
     stroke-linecap="butt"
     d="M 99.729847,53.994753 H 552.76922"
     fill-rule="evenodd"
     id="path75" />
  <path
     fill="#000000"
     stroke="#000000"
     stroke-width="1"
     stroke-linecap="butt"
     d="m 99.729847,52.34302 -4.5381,1.651733 4.5381,1.651734 z"
     fill-rule="evenodd"
     id="path77" />
  <path
     fill="#000000"
     stroke="#000000"
     stroke-width="1"
     stroke-linecap="butt"
     d="m 552.76921,55.646483 4.53812,-1.651733 -4.53812,-1.651734 z"
     fill-rule="evenodd"
     id="path79" />
  <path
     fill="#000000"
     fill-opacity="0"
     d="m 146.70622,46.517063 h 412.063"
     fill-rule="evenodd"
     id="path81" />
  <path
     stroke="#000000"
     stroke-width="1"
     stroke-linejoin="round"
     stroke-linecap="butt"
     d="m 152.70622,46.517063 h 400.063"
     fill-rule="evenodd"
     id="path83" />
  <path
     fill="#000000"
     stroke="#000000"
     stroke-width="1"
     stroke-linecap="butt"
     d="m 152.70622,44.865328 -4.5381,1.651733 4.5381,1.651734 z"
     fill-rule="evenodd"
     id="path85" />
  <path
     fill="#000000"
     stroke="#000000"
     stroke-width="1"
     stroke-linecap="butt"
     d="m 552.76921,48.168793 4.53812,-1.651733 -4.53812,-1.651734 z"
     fill-rule="evenodd"
     id="path87" />
  <path
     fill="#000000"
     fill-opacity="0"
     d="M 352.1078,39.034121 H 558.5015"
     fill-rule="evenodd"
     id="path89" />
  <path
     stroke="#000000"
     stroke-width="1"
     stroke-linejoin="round"
     stroke-linecap="butt"
     d="M 358.1078,39.034121 H 552.5015"
     fill-rule="evenodd"
     id="path91" />
  <path
     fill="#000000"
     stroke="#000000"
     stroke-width="1"
     stroke-linecap="butt"
     d="m 358.1078,37.382387 -4.53812,1.651733 4.53812,1.651734 z"
     fill-rule="evenodd"
     id="path93" />
  <path
     fill="#000000"
     stroke="#000000"
     stroke-width="1"
     stroke-linecap="butt"
     d="m 552.50151,40.685853 4.53809,-1.651733 -4.53809,-1.651734 z"
     fill-rule="evenodd"
     id="path95" />
  <path
     fill="#000000"
     fill-opacity="0"
     d="M 455.38338,32.128611 H 558.47002"
     fill-rule="evenodd"
     id="path97" />
  <path
     stroke="#000000"
     stroke-width="1"
     stroke-linejoin="round"
     stroke-linecap="butt"
     d="m 461.38338,32.128611 h 91.08664"
     fill-rule="evenodd"
     id="path99" />
  <path
     fill="#000000"
     stroke="#000000"
     stroke-width="1"
     stroke-linecap="butt"
     d="m 461.38338,30.476877 -4.53809,1.651733 4.53809,1.65173 z"
     fill-rule="evenodd"
     id="path101" />
  <path
     fill="#000000"
     stroke="#000000"
     stroke-width="1"
     stroke-linecap="butt"
     d="m 552.47002,33.78034 4.53809,-1.65173 -4.53809,-1.651733 z"
     fill-rule="evenodd"
     id="path103" />
  <path
     fill="#000000"
     fill-opacity="0"
     d="M 507.27316,24.653543 H 558.2023"
     fill-rule="evenodd"
     id="path105" />
  <path
     stroke="#000000"
     stroke-width="1"
     stroke-linejoin="round"
     stroke-linecap="butt"
     d="M 513.27316,24.653543 H 552.2023"
     fill-rule="evenodd"
     id="path107" />
  <path
     fill="#000000"
     stroke="#000000"
     stroke-width="1"
     stroke-linecap="butt"
     d="m 513.27316,23.00181 -4.53809,1.651733 4.53809,1.651734 z"
     fill-rule="evenodd"
     id="path109" />
  <path
     fill="#000000"
     stroke="#000000"
     stroke-width="1"
     stroke-linecap="butt"
     d="m 552.20229,26.305277 4.53809,-1.651733 -4.53809,-1.651734 z"
     fill-rule="evenodd"
     id="path111" />
  <path
     fill="#000000"
     fill-opacity="0"
     d="M 93.950317,28.737533 H 137.54087 V 64.296588 H 93.950317 Z"
     fill-rule="evenodd"
     id="path113" />
  <path
     fill="#000000"
     d="m 109.01268,45.365656 q -0.73437,-0.265625 -1.09375,-0.765625 -0.34375,-0.5 -0.34375,-1.1875 0,-1.03125 0.75,-1.734375 0.75,-0.71875 1.98438,-0.71875 1.25,0 2.01562,0.734375 0.76563,0.71875 0.76563,1.75 0,0.671875 -0.35938,1.171875 -0.34375,0.484375 -1.04687,0.75 0.875,0.28125 1.32812,0.921875 0.46875,0.640625 0.46875,1.515625 0,1.234375 -0.875,2.0625 -0.85937,0.828125 -2.26562,0.828125 -1.42188,0 -2.28125,-0.828125 -0.85938,-0.84375 -0.85938,-2.09375 0,-0.921875 0.46875,-1.546875 0.46875,-0.640625 1.34375,-0.859375 z m -0.23437,-1.984375 q 0,0.671875 0.4375,1.109375 0.4375,0.421875 1.125,0.421875 0.67187,0 1.10937,-0.421875 0.4375,-0.421875 0.4375,-1.046875 0,-0.640625 -0.45312,-1.078125 -0.4375,-0.4375 -1.10938,-0.4375 -0.67187,0 -1.10937,0.4375 -0.4375,0.421875 -0.4375,1.015625 z m -0.375,4.40625 q 0,0.5 0.23437,0.96875 0.23438,0.46875 0.70313,0.734375 0.46875,0.25 1.01562,0.25 0.82813,0 1.375,-0.53125 0.54688,-0.546875 0.54688,-1.390625 0,-0.84375 -0.5625,-1.390625 -0.5625,-0.5625 -1.40625,-0.5625 -0.82813,0 -1.375,0.546875 -0.53125,0.546875 -0.53125,1.375 z m 6.20935,-1.953125 q 0,-1.6875 0.34375,-2.71875 0.35937,-1.03125 1.04687,-1.59375 0.6875,-0.5625 1.71875,-0.5625 0.78125,0 1.35938,0.3125 0.57812,0.296875 0.95312,0.890625 0.375,0.578125 0.59375,1.421875 0.21875,0.828125 0.21875,2.25 0,1.671875 -0.35937,2.703125 -0.34375,1.03125 -1.03125,1.59375 -0.67188,0.5625 -1.73438,0.5625 -1.375,0 -2.15625,-0.984375 -0.95312,-1.1875 -0.95312,-3.875 z m 1.20312,0 q 0,2.34375 0.54688,3.125 0.5625,0.78125 1.35937,0.78125 0.8125,0 1.35938,-0.78125 0.5625,-0.78125 0.5625,-3.125 0,-2.359375 -0.5625,-3.125 -0.54688,-0.78125 -1.35938,-0.78125 -0.8125,0 -1.29687,0.6875 -0.60938,0.875 -0.60938,3.21875 z"
     fill-rule="nonzero"
     id="path115" />
  <path
     fill="#000000"
     fill-opacity="0"
     d="m 146.70622,21.254593 h 205.38583 v 35.55905 H 146.70622 Z"
     fill-rule="evenodd"
     id="path117" />
  <path
     fill="#000000"
     d="m 166.03421,35.851469 -1.15625,0.09375 q -0.15625,-0.6875 -0.4375,-1 -0.48437,-0.5 -1.17187,-0.5 -0.5625,0 -0.98438,0.3125 -0.5625,0.390625 -0.89062,1.171875 -0.3125,0.765625 -0.3125,2.203125 0.42187,-0.640625 1.03125,-0.953125 0.60937,-0.3125 1.28125,-0.3125 1.17187,0 1.98437,0.859375 0.82813,0.859375 0.82813,2.234375 0,0.890625 -0.39063,1.671875 -0.375,0.765625 -1.0625,1.171875 -0.67187,0.40625 -1.53125,0.40625 -1.46875,0 -2.39062,-1.0625 -0.92188,-1.078125 -0.92188,-3.5625 0,-2.765625 1.01563,-4.015625 0.90625,-1.09375 2.40625,-1.09375 1.125,0 1.84375,0.640625 0.71875,0.625 0.85937,1.734375 z m -4.78125,4.109375 q 0,0.609375 0.25,1.171875 0.26563,0.546875 0.71875,0.84375 0.46875,0.28125 0.98438,0.28125 0.73437,0 1.26562,-0.59375 0.54688,-0.609375 0.54688,-1.640625 0,-0.984375 -0.53125,-1.546875 -0.53125,-0.578125 -1.32813,-0.578125 -0.79687,0 -1.35937,0.578125 -0.54688,0.5625 -0.54688,1.484375 z m 9.88123,3.09375 v -2.28125 h -4.14063 v -1.078125 l 4.34375,-6.1875 h 0.96875 v 6.1875 h 1.28125 v 1.078125 h -1.28125 v 2.28125 z m 0,-3.359375 v -4.296875 l -2.98438,4.296875 z"
     fill-rule="nonzero"
     id="path119" />
  <path
     fill="#000000"
     fill-opacity="0"
     d="m 352.06056,14.349081 h 43.59055 v 35.559055 h -43.59055 z"
     fill-rule="evenodd"
     id="path121" />
  <path
     fill="#000000"
     d="m 365.32604,33.633455 1.17187,-0.15625 q 0.20313,1 0.6875,1.4375 0.48438,0.4375 1.17188,0.4375 0.82812,0 1.39062,-0.578125 0.57813,-0.578125 0.57813,-1.421875 0,-0.796875 -0.53125,-1.3125 -0.51563,-0.53125 -1.32813,-0.53125 -0.34375,0 -0.82812,0.125 l 0.125,-1.03125 q 0.125,0.01563 0.1875,0.01563 0.75,0 1.34375,-0.390625 0.60937,-0.390625 0.60937,-1.203125 0,-0.640625 -0.4375,-1.0625 -0.4375,-0.421875 -1.125,-0.421875 -0.6875,0 -1.14062,0.4375 -0.45313,0.421875 -0.59375,1.28125 l -1.17188,-0.21875 q 0.21875,-1.171875 0.98438,-1.8125 0.76562,-0.65625 1.89062,-0.65625 0.78125,0 1.4375,0.34375 0.65625,0.328125 1,0.90625 0.35938,0.578125 0.35938,1.234375 0,0.609375 -0.34375,1.125 -0.32813,0.5 -0.96875,0.796875 0.84375,0.203125 1.3125,0.828125 0.46875,0.609375 0.46875,1.53125 0,1.25 -0.92188,2.125 -0.90625,0.859375 -2.29687,0.859375 -1.25,0 -2.09375,-0.75 -0.82813,-0.75 -0.9375,-1.9375 z m 13.5531,1.390625 v 1.125 h -6.29687 q -0.0156,-0.421875 0.14062,-0.8125 0.23438,-0.640625 0.76563,-1.265625 0.53125,-0.625 1.53125,-1.453125 1.5625,-1.265625 2.10937,-2.015625 0.54688,-0.75 0.54688,-1.40625 0,-0.703125 -0.5,-1.171875 -0.5,-0.484375 -1.29688,-0.484375 -0.85937,0 -1.375,0.515625 -0.5,0.5 -0.5,1.390625 l -1.20312,-0.109375 q 0.125,-1.359375 0.92187,-2.0625 0.8125,-0.703125 2.17188,-0.703125 1.375,0 2.17187,0.765625 0.8125,0.75 0.8125,1.875 0,0.578125 -0.23437,1.140625 -0.23438,0.546875 -0.78125,1.15625 -0.54688,0.609375 -1.8125,1.671875 -1.04688,0.890625 -1.35938,1.21875 -0.29687,0.3125 -0.48437,0.625 z"
     fill-rule="nonzero"
     id="path123" />
  <path
     fill="#000000"
     fill-opacity="0"
     d="m 455.30464,6.874016 h 43.59055 v 35.55906 h -43.59055 z"
     fill-rule="evenodd"
     id="path125" />
  <path
     fill="#000000"
     d="m 472.9764,28.674017 h -1.17188 v -7.468752 q -0.42187,0.40625 -1.10937,0.812502 -0.6875,0.40625 -1.23438,0.609375 v -1.140627 q 0.98438,-0.453125 1.71875,-1.109375 0.73438,-0.671875 1.03125,-1.28125 h 0.76563 z m 9.06873,-7.203127 -1.15625,0.09375 q -0.15625,-0.6875 -0.4375,-1 -0.48438,-0.5 -1.17188,-0.5 -0.5625,0 -0.98437,0.3125 -0.5625,0.390625 -0.89063,1.171875 -0.3125,0.765627 -0.3125,2.203127 0.42188,-0.640625 1.03125,-0.953125 0.60938,-0.3125 1.28125,-0.3125 1.17188,0 1.98438,0.859375 0.82812,0.859375 0.82812,2.234375 0,0.890625 -0.39062,1.671875 -0.375,0.765625 -1.0625,1.171875 -0.67188,0.40625 -1.53125,0.40625 -1.46875,0 -2.39063,-1.0625 -0.92187,-1.078125 -0.92187,-3.5625 0,-2.765627 1.01562,-4.015627 0.90625,-1.09375 2.40625,-1.09375 1.125,0 1.84375,0.640625 0.71875,0.625 0.85938,1.734375 z m -4.78125,4.109377 q 0,0.609375 0.25,1.171875 0.26562,0.546875 0.71875,0.84375 0.46875,0.28125 0.98437,0.28125 0.73438,0 1.26563,-0.59375 0.54687,-0.609375 0.54687,-1.640625 0,-0.984375 -0.53125,-1.546875 -0.53125,-0.578125 -1.32812,-0.578125 -0.79688,0 -1.35938,0.578125 -0.54687,0.5625 -0.54687,1.484375 z"
     fill-rule="nonzero"
     id="path127" />
  <path
     fill="#000000"
     fill-opacity="0"
     d="m 506.92668,0 h 43.59058 v 35.55906 h -43.59058 z"
     fill-rule="evenodd"
     id="path129" />
  <path
     fill="#000000"
     d="m 521.98906,16.628124 q -0.73437,-0.265625 -1.09375,-0.765625 -0.34375,-0.5 -0.34375,-1.1875 0,-1.03125 0.75,-1.734375 0.75,-0.71875 1.98438,-0.71875 1.25,0 2.01562,0.734375 0.76563,0.71875 0.76563,1.75 0,0.671875 -0.35938,1.171875 -0.34375,0.484375 -1.04687,0.75 0.875,0.28125 1.32812,0.921875 0.46875,0.640625 0.46875,1.515625 0,1.234375 -0.875,2.0625 -0.85937,0.828127 -2.26562,0.828127 -1.42188,0 -2.28125,-0.828127 -0.85938,-0.84375 -0.85938,-2.09375 0,-0.921875 0.46875,-1.546875 0.46875,-0.640625 1.34375,-0.859375 z m -0.23437,-1.984375 q 0,0.671875 0.4375,1.109375 0.4375,0.421875 1.125,0.421875 0.67187,0 1.10937,-0.421875 0.4375,-0.421875 0.4375,-1.046875 0,-0.640625 -0.45312,-1.078125 -0.4375,-0.4375 -1.10938,-0.4375 -0.67187,0 -1.10937,0.4375 -0.4375,0.421875 -0.4375,1.015625 z m -0.375,4.40625 q 0,0.5 0.23437,0.96875 0.23438,0.46875 0.70313,0.734375 0.46875,0.25 1.01562,0.25 0.82813,0 1.375,-0.53125 0.54688,-0.546875 0.54688,-1.390625 0,-0.84375 -0.5625,-1.390625 -0.5625,-0.5625 -1.40625,-0.5625 -0.82813,0 -1.375,0.546875 -0.53125,0.546875 -0.53125,1.375 z"
     fill-rule="nonzero"
     id="path131" />
</svg>
