<?xml version="1.0" encoding="UTF-8" standalone="no"?>
<svg
   xmlns:dc="http://purl.org/dc/elements/1.1/"
   xmlns:cc="http://creativecommons.org/ns#"
   xmlns:rdf="http://www.w3.org/1999/02/22-rdf-syntax-ns#"
   xmlns:svg="http://www.w3.org/2000/svg"
   xmlns="http://www.w3.org/2000/svg"
   xmlns:sodipodi="http://sodipodi.sourceforge.net/DTD/sodipodi-0.dtd"
   xmlns:inkscape="http://www.inkscape.org/namespaces/inkscape"
   version="1.1"
   viewBox="0 0 534.18903 245.84776"
   fill="none"
   stroke="none"
   stroke-linecap="square"
   stroke-miterlimit="10"
   id="svg227"
   sodipodi:docname="serial-example-char.svg"
   width="534.18903"
   height="245.84776"
   inkscape:version="1.0.1 (3bc2e813f5, 2020-09-07)">
  <metadata
     id="metadata233">
    <rdf:RDF>
      <cc:Work
         rdf:about="">
        <dc:format>image/svg+xml</dc:format>
        <dc:type
           rdf:resource="http://purl.org/dc/dcmitype/StillImage" />
        <dc:title></dc:title>
      </cc:Work>
    </rdf:RDF>
  </metadata>
  <defs
     id="defs231" />
  <sodipodi:namedview
     pagecolor="#ffffff"
     bordercolor="#666666"
     borderopacity="1"
     objecttolerance="10"
     gridtolerance="10"
     guidetolerance="10"
     inkscape:pageopacity="0"
     inkscape:pageshadow="2"
     inkscape:window-width="1364"
     inkscape:window-height="747"
     id="namedview229"
     showgrid="false"
     inkscape:zoom="1.0685185"
     inkscape:cx="322.71112"
     inkscape:cy="120.56567"
     inkscape:window-x="0"
     inkscape:window-y="19"
     inkscape:window-maximized="0"
     inkscape:current-layer="svg227" />
  <clipPath
     id="p.0">
    <path
       d="M 0,0 H 720 V 540 H 0 Z"
       clip-rule="nonzero"
       id="path2" />
  </clipPath>
  <path
     fill="#000000"
     fill-opacity="0"
     d="M -12.488189,-74.56431 H 707.51181 v 540 H -12.488189 Z"
     fill-rule="evenodd"
     id="path5" />
  <path
     fill="#000000"
     fill-opacity="0"
     d="M 463.33334,245.84777 V 35.58004"
     fill-rule="evenodd"
     id="path7" />
  <path
     stroke="#000000"
     stroke-width="1"
     stroke-linejoin="round"
     stroke-linecap="butt"
     stroke-dasharray="4, 3"
     d="M 463.33334,245.84777 V 35.58004"
     fill-rule="evenodd"
     id="path9" />
  <path
     fill="#000000"
     fill-opacity="0"
     d="M 392.46719,245.84777 V 35.58004"
     fill-rule="evenodd"
     id="path11" />
  <path
     stroke="#000000"
     stroke-width="1"
     stroke-linejoin="round"
     stroke-linecap="butt"
     stroke-dasharray="4, 3"
     d="M 392.46719,245.84777 V 35.58004"
     fill-rule="evenodd"
     id="path13" />
  <path
     fill="#000000"
     fill-opacity="0"
     d="M 2.661418,222.27035 H 38.094485"
     fill-rule="evenodd"
     id="path15" />
  <path
     stroke="#6aa84f"
     stroke-width="4"
     stroke-linejoin="round"
     stroke-linecap="butt"
     d="M 2.661418,222.27035 H 38.094485"
     fill-rule="evenodd"
     id="path17" />
  <path
     fill="#000000"
     fill-opacity="0"
     d="M 38.094487,222.27035 V 62.23884"
     fill-rule="evenodd"
     id="path19" />
  <path
     stroke="#000000"
     stroke-width="1"
     stroke-linejoin="round"
     stroke-linecap="butt"
     d="M 38.094487,222.27035 V 62.23884"
     fill-rule="evenodd"
     id="path21" />
  <path
     fill="#000000"
     fill-opacity="0"
     d="m 38.094487,62.23884 h 35.43307"
     fill-rule="evenodd"
     id="path23" />
  <path
     stroke="#cc0000"
     stroke-width="4"
     stroke-linejoin="round"
     stroke-linecap="butt"
     d="m 38.094487,62.23884 h 35.43307"
     fill-rule="evenodd"
     id="path25" />
  <path
     fill="#000000"
     fill-opacity="0"
     d="M 73.527561,62.23884 V 222.27035"
     fill-rule="evenodd"
     id="path27" />
  <path
     stroke="#000000"
     stroke-width="1"
     stroke-linejoin="round"
     stroke-linecap="butt"
     d="M 73.527561,62.23884 V 222.27035"
     fill-rule="evenodd"
     id="path29" />
  <path
     fill="#000000"
     fill-opacity="0"
     d="M 73.527561,222.27035 H 144.39371"
     fill-rule="evenodd"
     id="path31" />
  <path
     stroke="#3c78d8"
     stroke-width="4"
     stroke-linejoin="round"
     stroke-linecap="butt"
     d="M 73.527561,222.27035 H 144.39371"
     fill-rule="evenodd"
     id="path33" />
  <path
     fill="#000000"
     fill-opacity="0"
     d="M 144.39371,222.27035 V 62.23884"
     fill-rule="evenodd"
     id="path35" />
  <path
     stroke="#000000"
     stroke-width="1"
     stroke-linejoin="round"
     stroke-linecap="butt"
     d="M 144.39371,222.27035 V 62.23884"
     fill-rule="evenodd"
     id="path37" />
  <path
     fill="#000000"
     fill-opacity="0"
     d="m 144.39371,62.23884 h 35.43306"
     fill-rule="evenodd"
     id="path39" />
  <path
     stroke="#674ea7"
     stroke-width="4"
     stroke-linejoin="round"
     stroke-linecap="butt"
     d="m 144.39371,62.23884 h 35.43306"
     fill-rule="evenodd"
     id="path41" />
  <path
     fill="#000000"
     fill-opacity="0"
     d="M 179.82677,62.23884 V 222.27035"
     fill-rule="evenodd"
     id="path43" />
  <path
     stroke="#000000"
     stroke-width="1"
     stroke-linejoin="round"
     stroke-linecap="butt"
     d="M 179.82677,62.23884 V 222.27035"
     fill-rule="evenodd"
     id="path45" />
  <path
     fill="#000000"
     fill-opacity="0"
     d="m 179.82677,222.27035 h 35.43308"
     fill-rule="evenodd"
     id="path47" />
  <path
     stroke="#3c78d8"
     stroke-width="4"
     stroke-linejoin="round"
     stroke-linecap="butt"
     d="m 179.82677,222.27035 h 35.43308"
     fill-rule="evenodd"
     id="path49" />
  <path
     fill="#000000"
     fill-opacity="0"
     d="M 215.25984,222.27035 V 62.23884"
     fill-rule="evenodd"
     id="path51" />
  <path
     stroke="#000000"
     stroke-width="1"
     stroke-linejoin="round"
     stroke-linecap="butt"
     d="M 215.25984,222.27035 V 62.23884"
     fill-rule="evenodd"
     id="path53" />
  <path
     fill="#000000"
     fill-opacity="0"
     d="m 215.25984,62.23884 h 70.86614"
     fill-rule="evenodd"
     id="path55" />
  <path
     stroke="#674ea7"
     stroke-width="4"
     stroke-linejoin="round"
     stroke-linecap="butt"
     d="m 215.25984,62.23884 h 70.86614"
     fill-rule="evenodd"
     id="path57" />
  <path
     fill="#000000"
     fill-opacity="0"
     d="M 286.12598,62.23884 V 222.27035"
     fill-rule="evenodd"
     id="path59" />
  <path
     stroke="#000000"
     stroke-width="1"
     stroke-linejoin="round"
     stroke-linecap="butt"
     d="M 286.12598,62.23884 V 222.27035"
     fill-rule="evenodd"
     id="path61" />
  <path
     fill="#000000"
     fill-opacity="0"
     d="m 286.12598,222.27035 h 35.43307"
     fill-rule="evenodd"
     id="path63" />
  <path
     stroke="#3c78d8"
     stroke-width="4"
     stroke-linejoin="round"
     stroke-linecap="butt"
     d="m 286.12598,222.27035 h 35.43307"
     fill-rule="evenodd"
     id="path65" />
  <path
     fill="#000000"
     fill-opacity="0"
     d="M 321.55905,222.27035 V 62.23884"
     fill-rule="evenodd"
     id="path67" />
  <path
     stroke="#000000"
     stroke-width="1"
     stroke-linejoin="round"
     stroke-linecap="butt"
     d="M 321.55905,222.27035 V 62.23884"
     fill-rule="evenodd"
     id="path69" />
  <path
     fill="#000000"
     fill-opacity="0"
     d="m 321.55905,62.23884 h 35.43308"
     fill-rule="evenodd"
     id="path71" />
  <path
     stroke="#674ea7"
     stroke-width="4"
     stroke-linejoin="round"
     stroke-linecap="butt"
     d="m 321.55905,62.23884 h 35.43308"
     fill-rule="evenodd"
     id="path73" />
  <path
     fill="#000000"
     fill-opacity="0"
     d="m 356.99213,222.27035 h 35.43308"
     fill-rule="evenodd"
     id="path75" />
  <path
     stroke="#bf9000"
     stroke-width="4"
     stroke-linejoin="round"
     stroke-linecap="butt"
     d="m 356.99213,222.27035 h 35.43308"
     fill-rule="evenodd"
     id="path77" />
  <path
     fill="#000000"
     fill-opacity="0"
     d="M 392.45145,222.27035 H 463.3176"
     fill-rule="evenodd"
     id="path79" />
  <path
     stroke="#c27ba0"
     stroke-width="4"
     stroke-linejoin="round"
     stroke-linecap="butt"
     d="M 392.45145,222.27035 H 463.3176"
     fill-rule="evenodd"
     id="path81" />
  <path
     fill="#000000"
     fill-opacity="0"
     d="M 2.661418,140.70865 H 534.18902"
     fill-rule="evenodd"
     id="path83" />
  <path
     stroke="#000000"
     stroke-width="1"
     stroke-linejoin="round"
     stroke-linecap="butt"
     d="M 2.661418,140.70865 H 528.18902"
     fill-rule="evenodd"
     id="path85" />
  <path
     fill="#000000"
     stroke="#000000"
     stroke-width="1"
     stroke-linecap="butt"
     d="m 528.18901,142.36039 4.53809,-1.65173 -4.53809,-1.65174 z"
     fill-rule="evenodd"
     id="path87" />
  <path
     fill="#000000"
     fill-opacity="0"
     d="M 356.99213,62.23884 V 222.27035"
     fill-rule="evenodd"
     id="path89" />
  <path
     stroke="#000000"
     stroke-width="1"
     stroke-linejoin="round"
     stroke-linecap="butt"
     d="M 356.99213,62.23884 V 222.27035"
     fill-rule="evenodd"
     id="path91" />
  <path
     fill="#000000"
     fill-opacity="0"
     d="M 38.104985,245.84777 V 35.58004"
     fill-rule="evenodd"
     id="path93" />
  <path
     stroke="#000000"
     stroke-width="1"
     stroke-linejoin="round"
     stroke-linecap="butt"
     stroke-dasharray="4, 3"
     d="M 38.104985,245.84777 V 35.58004"
     fill-rule="evenodd"
     id="path95" />
  <path
     fill="#000000"
     fill-opacity="0"
     d="M 73.721791,245.84252 V 35.57479"
     fill-rule="evenodd"
     id="path97" />
  <path
     stroke="#000000"
     stroke-width="1"
     stroke-linejoin="round"
     stroke-linecap="butt"
     stroke-dasharray="4, 3"
     d="M 73.721791,245.84252 V 35.57479"
     fill-rule="evenodd"
     id="path99" />
  <path
     fill="#000000"
     fill-opacity="0"
     d="M 108.97113,245.84777 V 35.58004"
     fill-rule="evenodd"
     id="path101" />
  <path
     stroke="#000000"
     stroke-width="1"
     stroke-linejoin="round"
     stroke-linecap="butt"
     stroke-dasharray="4, 3"
     d="M 108.97113,245.84777 V 35.58004"
     fill-rule="evenodd"
     id="path103" />
  <path
     fill="#000000"
     fill-opacity="0"
     d="M 144.38319,35.56955 V 245.83728"
     fill-rule="evenodd"
     id="path105" />
  <path
     stroke="#000000"
     stroke-width="1"
     stroke-linejoin="round"
     stroke-linecap="butt"
     stroke-dasharray="4, 3"
     d="M 144.38319,35.56955 V 245.83728"
     fill-rule="evenodd"
     id="path107" />
  <path
     fill="#000000"
     fill-opacity="0"
     d="M 179.83726,245.84777 V 35.58004"
     fill-rule="evenodd"
     id="path109" />
  <path
     stroke="#000000"
     stroke-width="1"
     stroke-linejoin="round"
     stroke-linecap="butt"
     stroke-dasharray="4, 3"
     d="M 179.83726,245.84777 V 35.58004"
     fill-rule="evenodd"
     id="path111" />
  <path
     fill="#000000"
     fill-opacity="0"
     d="M 215.24934,35.56955 V 245.83728"
     fill-rule="evenodd"
     id="path113" />
  <path
     stroke="#000000"
     stroke-width="1"
     stroke-linejoin="round"
     stroke-linecap="butt"
     stroke-dasharray="4, 3"
     d="M 215.24934,35.56955 V 245.83728"
     fill-rule="evenodd"
     id="path115" />
  <path
     fill="#000000"
     fill-opacity="0"
     d="M 250.70341,245.84777 V 35.58004"
     fill-rule="evenodd"
     id="path117" />
  <path
     stroke="#000000"
     stroke-width="1"
     stroke-linejoin="round"
     stroke-linecap="butt"
     stroke-dasharray="4, 3"
     d="M 250.70341,245.84777 V 35.58004"
     fill-rule="evenodd"
     id="path119" />
  <path
     fill="#000000"
     fill-opacity="0"
     d="M 286.14697,35.56955 V 245.83728"
     fill-rule="evenodd"
     id="path121" />
  <path
     stroke="#000000"
     stroke-width="1"
     stroke-linejoin="round"
     stroke-linecap="butt"
     stroke-dasharray="4, 3"
     d="M 286.14697,35.56955 V 245.83728"
     fill-rule="evenodd"
     id="path123" />
  <path
     fill="#000000"
     fill-opacity="0"
     d="M 321.60104,245.84777 V 35.58004"
     fill-rule="evenodd"
     id="path125" />
  <path
     stroke="#000000"
     stroke-width="1"
     stroke-linejoin="round"
     stroke-linecap="butt"
     stroke-dasharray="4, 3"
     d="M 321.60104,245.84777 V 35.58004"
     fill-rule="evenodd"
     id="path127" />
  <path
     fill="#000000"
     fill-opacity="0"
     d="M 357.01311,35.56955 V 245.83728"
     fill-rule="evenodd"
     id="path129" />
  <path
     stroke="#000000"
     stroke-width="1"
     stroke-linejoin="round"
     stroke-linecap="butt"
     stroke-dasharray="4, 3"
     d="M 357.01311,35.56955 V 245.83728"
     fill-rule="evenodd"
     id="path131" />
  <path
     fill="#000000"
     fill-opacity="0"
     d="M 427.87927,35.56955 V 245.83728"
     fill-rule="evenodd"
     id="path133" />
  <path
     stroke="#000000"
     stroke-width="1"
     stroke-linejoin="round"
     stroke-linecap="butt"
     stroke-dasharray="4, 3"
     d="M 427.87927,35.56955 V 245.83728"
     fill-rule="evenodd"
     id="path135" />
  <path
     fill="#000000"
     fill-opacity="0"
     d="M 498.75589,35.56955 V 245.83728"
     fill-rule="evenodd"
     id="path137" />
  <path
     stroke="#000000"
     stroke-width="1"
     stroke-linejoin="round"
     stroke-linecap="butt"
     stroke-dasharray="4, 3"
     d="M 498.75589,35.56955 V 245.83728"
     fill-rule="evenodd"
     id="path139" />
  <path
     fill="#000000"
     fill-opacity="0"
     d="m 38.073491,35.56955 h 35.43307"
     fill-rule="evenodd"
     id="path141" />
  <path
     stroke="#000000"
     stroke-width="1"
     stroke-linejoin="round"
     stroke-linecap="butt"
     d="M 44.073491,35.56955 H 67.506562"
     fill-rule="evenodd"
     id="path143" />
  <path
     fill="#000000"
     stroke="#000000"
     stroke-width="1"
     stroke-linecap="butt"
     d="m 44.073491,33.91781 -4.538097,1.65174 4.538097,1.65173 z"
     fill-rule="evenodd"
     id="path145" />
  <path
     fill="#000000"
     stroke="#000000"
     stroke-width="1"
     stroke-linecap="butt"
     d="m 67.506561,37.22128 4.538101,-1.65173 -4.538101,-1.65174 z"
     fill-rule="evenodd"
     id="path147" />
  <path
     fill="#000000"
     fill-opacity="0"
     d="M 73.506561,35.56955 H 357.00262"
     fill-rule="evenodd"
     id="path149" />
  <path
     stroke="#000000"
     stroke-width="1"
     stroke-linejoin="round"
     stroke-linecap="butt"
     d="M 79.506561,35.56955 H 351.00262"
     fill-rule="evenodd"
     id="path151" />
  <path
     fill="#000000"
     stroke="#000000"
     stroke-width="1"
     stroke-linecap="butt"
     d="m 79.506561,33.91781 -4.538101,1.65174 4.538101,1.65173 z"
     fill-rule="evenodd"
     id="path153" />
  <path
     fill="#000000"
     stroke="#000000"
     stroke-width="1"
     stroke-linecap="butt"
     d="m 351.00261,37.22128 4.53809,-1.65173 -4.53809,-1.65174 z"
     fill-rule="evenodd"
     id="path155" />
  <path
     fill="#000000"
     fill-opacity="0"
     d="m 357.01311,35.56955 h 35.43308"
     fill-rule="evenodd"
     id="path157" />
  <path
     stroke="#000000"
     stroke-width="1"
     stroke-linejoin="round"
     stroke-linecap="butt"
     d="m 363.01311,35.56955 h 23.43307"
     fill-rule="evenodd"
     id="path159" />
  <path
     fill="#000000"
     stroke="#000000"
     stroke-width="1"
     stroke-linecap="butt"
     d="m 363.01311,33.91781 -4.53809,1.65174 4.53809,1.65173 z"
     fill-rule="evenodd"
     id="path161" />
  <path
     fill="#000000"
     stroke="#000000"
     stroke-width="1"
     stroke-linecap="butt"
     d="m 386.44621,37.22128 4.53809,-1.65173 -4.53809,-1.65174 z"
     fill-rule="evenodd"
     id="path163" />
  <path
     fill="#000000"
     fill-opacity="0"
     d="m 392.45671,35.56955 h 70.86615"
     fill-rule="evenodd"
     id="path165" />
  <path
     stroke="#000000"
     stroke-width="1"
     stroke-linejoin="round"
     stroke-linecap="butt"
     d="m 398.45671,35.56955 h 58.86615"
     fill-rule="evenodd"
     id="path167" />
  <path
     fill="#000000"
     stroke="#000000"
     stroke-width="1"
     stroke-linecap="butt"
     d="m 398.45671,33.91781 -4.53809,1.65174 4.53809,1.65173 z"
     fill-rule="evenodd"
     id="path169" />
  <path
     fill="#000000"
     stroke="#000000"
     stroke-width="1"
     stroke-linecap="butt"
     d="m 457.32285,37.22128 4.53809,-1.65173 -4.53809,-1.65174 z"
     fill-rule="evenodd"
     id="path171" />
  <path
     fill="#000000"
     fill-opacity="0"
     d="m 463.32285,35.56955 v 0"
     fill-rule="evenodd"
     id="path173" />
  <path
     stroke="#000000"
     stroke-width="1"
     stroke-linejoin="round"
     stroke-linecap="butt"
     d="m 463.32285,35.56955 v 0"
     fill-rule="evenodd"
     id="path175" />
  <path
     fill="#000000"
     fill-opacity="0"
     d="M 37.858271,35.59054 H 2.425196"
     fill-rule="evenodd"
     id="path177" />
  <path
     stroke="#000000"
     stroke-width="1"
     stroke-linejoin="round"
     stroke-linecap="butt"
     d="M 31.858271,35.59054 H 2.425198"
     fill-rule="evenodd"
     id="path179" />
  <path
     fill="#000000"
     stroke="#000000"
     stroke-width="1"
     stroke-linecap="butt"
     d="m 31.858271,37.24228 4.538097,-1.65173 -4.538097,-1.65174 z"
     fill-rule="evenodd"
     id="path181" />
  <path
     fill="#000000"
     fill-opacity="0"
     d="M 463.32285,35.56955 H 534.189"
     fill-rule="evenodd"
     id="path183" />
  <path
     stroke="#000000"
     stroke-width="1"
     stroke-linejoin="round"
     stroke-linecap="butt"
     d="M 469.32285,35.56955 H 534.189"
     fill-rule="evenodd"
     id="path185" />
  <path
     fill="#000000"
     stroke="#000000"
     stroke-width="1"
     stroke-linecap="butt"
     d="m 469.32285,33.91781 -4.53812,1.65174 4.53812,1.65173 z"
     fill-rule="evenodd"
     id="path187" />
  <path
     fill="#000000"
     fill-opacity="0"
     d="M 0,0 H 40.283463 V 35.55905 H 0 Z"
     fill-rule="evenodd"
     id="path189" />
  <path
     fill="#000000"
     d="m 10.658791,13.61249 v -1.359375 h 1.171875 v 1.359375 z m 0,8.1875 v -6.90625 h 1.171875 v 6.90625 z m 7.42984,0 v -0.875 q -0.65625,1.03125 -1.9375,1.03125 -0.8125,0 -1.515625,-0.453125 -0.6875,-0.453125 -1.078125,-1.265625 -0.375,-0.828125 -0.375,-1.890625 0,-1.03125 0.34375,-1.875 0.34375,-0.84375 1.03125,-1.28125 0.703125,-0.453125 1.546875,-0.453125 0.625,0 1.109375,0.265625 0.5,0.25 0.796875,0.671875 v -3.421875 h 1.171875 v 9.546875 z m -3.703125,-3.453125 q 0,1.328125 0.5625,1.984375 0.5625,0.65625 1.328125,0.65625 0.765625,0 1.296875,-0.625 0.53125,-0.625 0.53125,-1.90625 0,-1.421875 -0.546875,-2.078125 -0.546875,-0.671875 -1.34375,-0.671875 -0.78125,0 -1.3125,0.640625 -0.515625,0.625 -0.515625,2 z m 6.615601,3.453125 v -9.546875 h 1.171875 v 9.546875 z m 7.71109,-2.21875 1.203125,0.140625 q -0.28125,1.0625 -1.0625,1.65625 -0.765625,0.578125 -1.96875,0.578125 -1.515625,0 -2.40625,-0.9375 -0.890625,-0.9375 -0.890625,-2.609375 0,-1.75 0.890625,-2.703125 0.90625,-0.96875 2.34375,-0.96875 1.390625,0 2.265625,0.9375 0.875,0.9375 0.875,2.65625 0,0.109375 0,0.3125 h -5.15625 q 0.0625,1.140625 0.640625,1.75 0.578125,0.59375 1.4375,0.59375 0.65625,0 1.109375,-0.328125 0.453125,-0.34375 0.71875,-1.078125 z m -3.84375,-1.90625 h 3.859375 q -0.07813,-0.859375 -0.4375,-1.296875 -0.5625,-0.6875 -1.453125,-0.6875 -0.8125,0 -1.359375,0.546875 -0.546875,0.53125 -0.609375,1.4375 z"
     fill-rule="nonzero"
     id="path191" />
  <path
     fill="#000000"
     fill-opacity="0"
     d="M 28.246721,0 H 83.333338 V 35.55905 H 28.246721 Z"
     fill-rule="evenodd"
     id="path193" />
  <path
     fill="#000000"
     d="m 43.235833,19.73749 1.15625,-0.1875 q 0.109375,0.703125 0.546875,1.078125 0.453125,0.359375 1.25,0.359375 0.8125,0 1.203125,-0.328125 0.390625,-0.328125 0.390625,-0.765625 0,-0.390625 -0.359375,-0.625 -0.234375,-0.15625 -1.1875,-0.390625 -1.296875,-0.328125 -1.796875,-0.5625 -0.484375,-0.25 -0.75,-0.65625 -0.25,-0.421875 -0.25,-0.9375 0,-0.453125 0.203125,-0.84375 0.21875,-0.40625 0.578125,-0.671875 0.28125,-0.1875 0.75,-0.328125 0.46875,-0.140625 1.015625,-0.140625 0.8125,0 1.421875,0.234375 0.609375,0.234375 0.90625,0.640625 0.296875,0.390625 0.40625,1.0625 l -1.140625,0.15625 q -0.07813,-0.53125 -0.453125,-0.828125 -0.375,-0.3125 -1.0625,-0.3125 -0.8125,0 -1.15625,0.265625 -0.34375,0.265625 -0.34375,0.625 0,0.234375 0.140625,0.421875 0.15625,0.1875 0.453125,0.3125 0.171875,0.0625 1.03125,0.296875 1.25,0.328125 1.734375,0.546875 0.5,0.203125 0.78125,0.609375 0.28125,0.40625 0.28125,1 0,0.59375 -0.34375,1.109375 -0.34375,0.515625 -1,0.796875 -0.640625,0.28125 -1.453125,0.28125 -1.34375,0 -2.046875,-0.5625 -0.703125,-0.5625 -0.90625,-1.65625 z m 9.695312,1.015625 0.171875,1.03125 q -0.5,0.109375 -0.890625,0.109375 -0.640625,0 -1,-0.203125 Q 50.868645,21.48749 50.72802,21.159365 50.587395,20.83124 50.587395,19.76874 V 15.79999 H 49.72802 v -0.90625 h 0.859375 v -1.71875 l 1.171875,-0.703125 v 2.421875 h 1.171875 v 0.90625 H 51.75927 v 4.046875 q 0,0.5 0.04687,0.640625 0.0625,0.140625 0.203125,0.234375 0.140625,0.07813 0.40625,0.07813 0.203125,0 0.515625,-0.04687 z m 5.656113,0.1875 q -0.65625,0.5625 -1.265625,0.796875 -0.59375,0.21875 -1.28125,0.21875 -1.140625,0 -1.75,-0.546875 -0.609375,-0.5625 -0.609375,-1.4375 0,-0.5 0.21875,-0.921875 0.234375,-0.421875 0.609375,-0.671875 0.375,-0.25 0.84375,-0.390625 0.34375,-0.07813 1.046875,-0.171875 1.421875,-0.171875 2.09375,-0.40625 0,-0.234375 0,-0.296875 0,-0.71875 -0.328125,-1.015625 -0.453125,-0.390625 -1.34375,-0.390625 -0.8125,0 -1.21875,0.296875 -0.390625,0.28125 -0.578125,1.015625 l -1.140625,-0.15625 q 0.15625,-0.734375 0.515625,-1.1875 0.359375,-0.453125 1.03125,-0.6875 0.671875,-0.25 1.5625,-0.25 0.890625,0 1.4375,0.203125 0.5625,0.203125 0.8125,0.53125 0.265625,0.3125 0.375,0.796875 0.04687,0.296875 0.04687,1.078125 v 1.5625 q 0,1.625 0.07813,2.0625 0.07813,0.4375 0.296875,0.828125 h -1.21875 q -0.1875,-0.359375 -0.234375,-0.859375 z m -0.09375,-2.609375 q -0.640625,0.265625 -1.921875,0.4375 -0.71875,0.109375 -1.015625,0.25 -0.296875,0.125 -0.46875,0.375 -0.15625,0.25 -0.15625,0.546875 0,0.46875 0.34375,0.78125 0.359375,0.3125 1.046875,0.3125 0.671875,0 1.203125,-0.296875 0.53125,-0.296875 0.78125,-0.8125 0.1875,-0.390625 0.1875,-1.171875 z m 2.974976,3.46875 v -6.90625 h 1.0625 v 1.046875 q 0.40625,-0.734375 0.734375,-0.96875 0.34375,-0.234375 0.765625,-0.234375 0.59375,0 1.203125,0.375 l -0.40625,1.078125 q -0.4375,-0.25 -0.859375,-0.25 -0.390625,0 -0.703125,0.234375 -0.296875,0.234375 -0.421875,0.640625 -0.203125,0.625 -0.203125,1.359375 v 3.625 z m 7.016495,-1.046875 0.171875,1.03125 q -0.5,0.109375 -0.890625,0.109375 -0.640625,0 -1,-0.203125 -0.34375,-0.203125 -0.484375,-0.53125 -0.140625,-0.328125 -0.140625,-1.390625 v -3.96875 h -0.859375 v -0.90625 h 0.859375 v -1.71875 l 1.171875,-0.703125 v 2.421875 h 1.171875 v 0.90625 h -1.171875 v 4.046875 q 0,0.5 0.04687,0.640625 0.0625,0.140625 0.203125,0.234375 0.140625,0.07813 0.40625,0.07813 0.203125,0 0.515625,-0.04687 z"
     fill-rule="nonzero"
     id="path195" />
  <path
     fill="#000000"
     fill-opacity="0"
     d="M 73.721791,0 H 357.21782 V 35.55905 H 73.721791 Z"
     fill-rule="evenodd"
     id="path197" />
  <path
     fill="#000000"
     d="m 195.63718,21.79999 v -0.875 q -0.65625,1.03125 -1.9375,1.03125 -0.8125,0 -1.51563,-0.453125 -0.6875,-0.453125 -1.07812,-1.265625 -0.375,-0.828125 -0.375,-1.890625 0,-1.03125 0.34375,-1.875 0.34375,-0.84375 1.03125,-1.28125 0.70312,-0.453125 1.54687,-0.453125 0.625,0 1.10938,0.265625 0.5,0.25 0.79687,0.671875 v -3.421875 h 1.17188 v 9.546875 z m -3.70313,-3.453125 q 0,1.328125 0.5625,1.984375 0.5625,0.65625 1.32813,0.65625 0.76562,0 1.29687,-0.625 0.53125,-0.625 0.53125,-1.90625 0,-1.421875 -0.54687,-2.078125 -0.54688,-0.671875 -1.34375,-0.671875 -0.78125,0 -1.3125,0.640625 -0.51563,0.625 -0.51563,2 z m 11.14687,2.59375 q -0.65625,0.5625 -1.26562,0.796875 -0.59377,0.21875 -1.28127,0.21875 -1.14062,0 -1.75,-0.546875 -0.60937,-0.5625 -0.60937,-1.4375 0,-0.5 0.21875,-0.921875 0.23437,-0.421875 0.60937,-0.671875 0.375,-0.25 0.84375,-0.390625 0.34375,-0.07813 1.04688,-0.171875 1.42189,-0.171875 2.09376,-0.40625 0,-0.234375 0,-0.296875 0,-0.71875 -0.32812,-1.015625 -0.45313,-0.390625 -1.34377,-0.390625 -0.8125,0 -1.21875,0.296875 -0.39062,0.28125 -0.57812,1.015625 l -1.14063,-0.15625 q 0.15625,-0.734375 0.51563,-1.1875 0.35937,-0.453125 1.03125,-0.6875 0.67187,-0.25 1.5625,-0.25 0.89064,0 1.43751,0.203125 0.5625,0.203125 0.8125,0.53125 0.26563,0.3125 0.375,0.796875 0.0469,0.296875 0.0469,1.078125 v 1.5625 q 0,1.625 0.0781,2.0625 0.0781,0.4375 0.29688,0.828125 h -1.21875 q -0.1875,-0.359375 -0.23438,-0.859375 z m -0.0937,-2.609375 q -0.64062,0.265625 -1.92189,0.4375 -0.71875,0.109375 -1.01562,0.25 -0.29688,0.125 -0.46875,0.375 -0.15625,0.25 -0.15625,0.546875 0,0.46875 0.34375,0.78125 0.35937,0.3125 1.04687,0.3125 0.67188,0 1.20314,-0.296875 0.53125,-0.296875 0.78125,-0.8125 0.1875,-0.390625 0.1875,-1.171875 z m 5.5531,2.421875 0.17188,1.03125 q -0.5,0.109375 -0.89063,0.109375 -0.64062,0 -1,-0.203125 -0.34375,-0.203125 -0.48437,-0.53125 -0.14063,-0.328125 -0.14063,-1.390625 v -3.96875 h -0.85937 v -0.90625 h 0.85937 v -1.71875 l 1.17188,-0.703125 v 2.421875 h 1.17187 v 0.90625 h -1.17187 v 4.046875 q 0,0.5 0.0469,0.640625 0.0625,0.140625 0.20313,0.234375 0.14062,0.07813 0.40625,0.07813 0.20312,0 0.51562,-0.04687 z m 5.6561,0.1875 q -0.65625,0.5625 -1.26563,0.796875 -0.59375,0.21875 -1.28125,0.21875 -1.14062,0 -1.75,-0.546875 -0.60937,-0.5625 -0.60937,-1.4375 0,-0.5 0.21875,-0.921875 0.23437,-0.421875 0.60937,-0.671875 0.375,-0.25 0.84375,-0.390625 0.34375,-0.07813 1.04688,-0.171875 1.42187,-0.171875 2.09375,-0.40625 0,-0.234375 0,-0.296875 0,-0.71875 -0.32813,-1.015625 -0.45312,-0.390625 -1.34375,-0.390625 -0.8125,0 -1.21875,0.296875 -0.39062,0.28125 -0.57812,1.015625 l -1.14063,-0.15625 q 0.15625,-0.734375 0.51563,-1.1875 0.35937,-0.453125 1.03125,-0.6875 0.67187,-0.25 1.5625,-0.25 0.89062,0 1.4375,0.203125 0.5625,0.203125 0.8125,0.53125 0.26562,0.3125 0.375,0.796875 0.0469,0.296875 0.0469,1.078125 v 1.5625 q 0,1.625 0.0781,2.0625 0.0781,0.4375 0.29687,0.828125 h -1.21875 q -0.1875,-0.359375 -0.23437,-0.859375 z m -0.0937,-2.609375 q -0.64063,0.265625 -1.92188,0.4375 -0.71875,0.109375 -1.01562,0.25 -0.29688,0.125 -0.46875,0.375 -0.15625,0.25 -0.15625,0.546875 0,0.46875 0.34375,0.78125 0.35937,0.3125 1.04687,0.3125 0.67188,0 1.20313,-0.296875 0.53125,-0.296875 0.78125,-0.8125 0.1875,-0.390625 0.1875,-1.171875 z m 7.77173,3.46875 h -1.07813 v -9.546875 h 1.17188 v 3.40625 q 0.73437,-0.921875 1.89062,-0.921875 0.64063,0 1.20313,0.265625 0.57812,0.25 0.9375,0.71875 0.375,0.453125 0.57812,1.109375 0.20313,0.65625 0.20313,1.40625 0,1.78125 -0.875,2.75 -0.875,0.96875 -2.10938,0.96875 -1.21875,0 -1.92187,-1.015625 z m 0,-3.5 q 0,1.234375 0.32812,1.78125 0.5625,0.90625 1.5,0.90625 0.76563,0 1.32813,-0.65625 0.5625,-0.671875 0.5625,-2 0,-1.34375 -0.54688,-1.984375 -0.53125,-0.65625 -1.29687,-0.65625 -0.76563,0 -1.32813,0.671875 -0.54687,0.671875 -0.54687,1.9375 z m 6.34997,-4.6875 v -1.359375 h 1.17188 v 1.359375 z m 0,8.1875 v -6.90625 h 1.17188 v 6.90625 z m 5.50797,-1.046875 0.17187,1.03125 q -0.5,0.109375 -0.89062,0.109375 -0.64063,0 -1,-0.203125 -0.34375,-0.203125 -0.48438,-0.53125 -0.14062,-0.328125 -0.14062,-1.390625 v -3.96875 h -0.85938 v -0.90625 h 0.85938 v -1.71875 l 1.17187,-0.703125 v 2.421875 h 1.17188 v 0.90625 h -1.17188 v 4.046875 q 0,0.5 0.0469,0.640625 0.0625,0.140625 0.20312,0.234375 0.14063,0.07813 0.40625,0.07813 0.20313,0 0.51563,-0.04687 z m 0.67172,-1.015625 1.15625,-0.1875 q 0.10938,0.703125 0.54688,1.078125 0.45312,0.359375 1.25,0.359375 0.8125,0 1.20312,-0.328125 0.39063,-0.328125 0.39063,-0.765625 0,-0.390625 -0.35938,-0.625 -0.23437,-0.15625 -1.1875,-0.390625 -1.29687,-0.328125 -1.79687,-0.5625 -0.48438,-0.25 -0.75,-0.65625 -0.25,-0.421875 -0.25,-0.9375 0,-0.453125 0.20312,-0.84375 0.21875,-0.40625 0.57813,-0.671875 0.28125,-0.1875 0.75,-0.328125 0.46875,-0.140625 1.01562,-0.140625 0.8125,0 1.42188,0.234375 0.60937,0.234375 0.90625,0.640625 0.29687,0.390625 0.40625,1.0625 l -1.14063,0.15625 q -0.0781,-0.53125 -0.45312,-0.828125 -0.375,-0.3125 -1.0625,-0.3125 -0.8125,0 -1.15625,0.265625 -0.34375,0.265625 -0.34375,0.625 0,0.234375 0.14062,0.421875 0.15625,0.1875 0.45313,0.3125 0.17187,0.0625 1.03125,0.296875 1.25,0.328125 1.73437,0.546875 0.5,0.203125 0.78125,0.609375 0.28125,0.40625 0.28125,1 0,0.59375 -0.34375,1.109375 -0.34375,0.515625 -1,0.796875 -0.64062,0.28125 -1.45312,0.28125 -1.34375,0 -2.04688,-0.5625 -0.70312,-0.5625 -0.90625,-1.65625 z"
     fill-rule="nonzero"
     id="path199" />
  <path
     fill="#000000"
     fill-opacity="0"
     d="m 347.19684,0 h 55.08664 v 35.55905 h -55.08664 z"
     fill-rule="evenodd"
     id="path201" />
  <path
     fill="#000000"
     d="m 359.31943,24.45624 v -9.5625 h 1.07812 v 0.890625 q 0.375,-0.53125 0.84375,-0.78125 0.48438,-0.265625 1.15625,-0.265625 0.875,0 1.54688,0.453125 0.6875,0.453125 1.03125,1.28125 0.34375,0.828125 0.34375,1.828125 0,1.046875 -0.375,1.90625 -0.375,0.84375 -1.10938,1.296875 -0.71875,0.453125 -1.53125,0.453125 -0.57812,0 -1.04687,-0.25 -0.46875,-0.25 -0.76563,-0.625 v 3.375 z m 1.0625,-6.078125 q 0,1.34375 0.53125,1.984375 0.54687,0.625 1.3125,0.625 0.78125,0 1.34375,-0.65625 0.5625,-0.65625 0.5625,-2.046875 0,-1.3125 -0.54688,-1.96875 -0.54687,-0.671875 -1.29687,-0.671875 -0.75,0 -1.32813,0.703125 -0.57812,0.703125 -0.57812,2.03125 z m 10.8656,2.5625 q -0.65625,0.5625 -1.26562,0.796875 -0.59375,0.21875 -1.28125,0.21875 -1.14063,0 -1.75,-0.546875 -0.60938,-0.5625 -0.60938,-1.4375 0,-0.5 0.21875,-0.921875 0.23438,-0.421875 0.60938,-0.671875 0.375,-0.25 0.84375,-0.390625 0.34375,-0.07813 1.04687,-0.171875 1.42188,-0.171875 2.09375,-0.40625 0,-0.234375 0,-0.296875 0,-0.71875 -0.32812,-1.015625 -0.45313,-0.390625 -1.34375,-0.390625 -0.8125,0 -1.21875,0.296875 -0.39063,0.28125 -0.57813,1.015625 l -1.14062,-0.15625 q 0.15625,-0.734375 0.51562,-1.1875 0.35938,-0.453125 1.03125,-0.6875 0.67188,-0.25 1.5625,-0.25 0.89063,0 1.4375,0.203125 0.5625,0.203125 0.8125,0.53125 0.26563,0.3125 0.375,0.796875 0.0469,0.296875 0.0469,1.078125 v 1.5625 q 0,1.625 0.0781,2.0625 0.0781,0.4375 0.29688,0.828125 h -1.21875 q -0.1875,-0.359375 -0.23438,-0.859375 z m -0.0937,-2.609375 q -0.64062,0.265625 -1.92187,0.4375 -0.71875,0.109375 -1.01563,0.25 -0.29687,0.125 -0.46875,0.375 -0.15625,0.25 -0.15625,0.546875 0,0.46875 0.34375,0.78125 0.35938,0.3125 1.04688,0.3125 0.67187,0 1.20312,-0.296875 0.53125,-0.296875 0.78125,-0.8125 0.1875,-0.390625 0.1875,-1.171875 z m 2.97498,3.46875 v -6.90625 h 1.0625 v 1.046875 q 0.40625,-0.734375 0.73437,-0.96875 0.34375,-0.234375 0.76563,-0.234375 0.59375,0 1.20312,0.375 l -0.40625,1.078125 q -0.4375,-0.25 -0.85937,-0.25 -0.39063,0 -0.70313,0.234375 -0.29687,0.234375 -0.42187,0.640625 -0.20313,0.625 -0.20313,1.359375 v 3.625 z m 4.4696,-8.1875 v -1.359375 h 1.17188 v 1.359375 z m 0,8.1875 v -6.90625 h 1.17188 v 6.90625 z m 5.50797,-1.046875 0.17187,1.03125 q -0.5,0.109375 -0.89062,0.109375 -0.64063,0 -1,-0.203125 -0.34375,-0.203125 -0.48438,-0.53125 -0.14062,-0.328125 -0.14062,-1.390625 v -3.96875 h -0.85938 v -0.90625 h 0.85938 v -1.71875 l 1.17187,-0.703125 v 2.421875 h 1.17188 v 0.90625 h -1.17188 v 4.046875 q 0,0.5 0.0469,0.640625 0.0625,0.140625 0.20312,0.234375 0.14063,0.07813 0.40625,0.07813 0.20313,0 0.51563,-0.04687 z M 385.2,24.45624 385.075,23.36249 q 0.375,0.109375 0.65625,0.109375 0.39063,0 0.625,-0.140625 0.23438,-0.125 0.39063,-0.359375 0.10937,-0.171875 0.35937,-0.875 0.0312,-0.09375 0.10938,-0.28125 l -2.625,-6.921875 h 1.26562 l 1.4375,4 q 0.28125,0.765625 0.5,1.59375 0.20313,-0.796875 0.46875,-1.578125 l 1.48438,-4.015625 h 1.17187 l -2.625,7.015625 q -0.42187,1.140625 -0.65625,1.578125 -0.3125,0.578125 -0.71875,0.84375 -0.40625,0.28125 -0.96875,0.28125 -0.32812,0 -0.75,-0.15625 z"
     fill-rule="nonzero"
     id="path203" />
  <path
     fill="#000000"
     fill-opacity="0"
     d="m 392.46719,0.0105 h 70.86615 v 35.55905 h -70.86615 z"
     fill-rule="evenodd"
     id="path205" />
  <path
     fill="#000000"
     d="m 415.71051,19.74799 1.15625,-0.1875 q 0.10937,0.703125 0.54687,1.078125 0.45313,0.359375 1.25,0.359375 0.8125,0 1.20313,-0.328125 0.39062,-0.328125 0.39062,-0.765625 0,-0.390625 -0.35937,-0.625 -0.23438,-0.15625 -1.1875,-0.390625 -1.29688,-0.328125 -1.79688,-0.5625 -0.48437,-0.25 -0.75,-0.65625 -0.25,-0.421875 -0.25,-0.9375 0,-0.453125 0.20313,-0.84375 0.21875,-0.40625 0.57812,-0.671875 0.28125,-0.1875 0.75,-0.328125 0.46875,-0.140625 1.01563,-0.140625 0.8125,0 1.42187,0.234375 0.60938,0.234375 0.90625,0.640625 0.29688,0.390625 0.40625,1.0625 l -1.14062,0.15625 q -0.0781,-0.53125 -0.45313,-0.828125 -0.375,-0.3125 -1.0625,-0.3125 -0.8125,0 -1.15625,0.265625 -0.34375,0.265625 -0.34375,0.625 0,0.234375 0.14063,0.421875 0.15625,0.1875 0.45312,0.3125 0.17188,0.0625 1.03125,0.296875 1.25,0.328125 1.73438,0.546875 0.5,0.203125 0.78125,0.609375 0.28125,0.40625 0.28125,1 0,0.59375 -0.34375,1.109375 -0.34375,0.515625 -1,0.796875 -0.64063,0.28125 -1.45313,0.28125 -1.34375,0 -2.04687,-0.5625 -0.70313,-0.5625 -0.90625,-1.65625 z m 9.69531,1.015625 0.17188,1.03125 q -0.5,0.109375 -0.89063,0.109375 -0.64062,0 -1,-0.203125 -0.34375,-0.203125 -0.48437,-0.53125 -0.14063,-0.328125 -0.14063,-1.390625 v -3.96875 h -0.85937 v -0.90625 h 0.85937 v -1.71875 l 1.17188,-0.703125 v 2.421875 h 1.17187 v 0.90625 h -1.17187 v 4.046875 q 0,0.5 0.0469,0.640625 0.0625,0.140625 0.20313,0.234375 0.14062,0.07813 0.40625,0.07813 0.20312,0 0.51562,-0.04687 z m 0.70301,-2.40625 q 0,-1.921875 1.07812,-2.84375 0.89063,-0.765625 2.17188,-0.765625 1.42187,0 2.32812,0.9375 0.90625,0.921875 0.90625,2.578125 0,1.328125 -0.40625,2.09375 -0.39062,0.765625 -1.15625,1.1875 -0.76562,0.421875 -1.67187,0.421875 -1.45313,0 -2.35938,-0.921875 -0.89062,-0.9375 -0.89062,-2.6875 z m 1.20312,0 q 0,1.328125 0.57813,1.984375 0.59375,0.65625 1.46875,0.65625 0.875,0 1.45312,-0.65625 0.57813,-0.671875 0.57813,-2.03125 0,-1.28125 -0.59375,-1.9375 -0.57813,-0.65625 -1.4375,-0.65625 -0.875,0 -1.46875,0.65625 -0.57813,0.65625 -0.57813,1.984375 z m 6.64685,6.109375 v -9.5625 h 1.07813 v 0.890625 q 0.375,-0.53125 0.84375,-0.78125 0.48437,-0.265625 1.15625,-0.265625 0.875,0 1.54687,0.453125 0.6875,0.453125 1.03125,1.28125 0.34375,0.828125 0.34375,1.828125 0,1.046875 -0.375,1.90625 -0.375,0.84375 -1.10937,1.296875 -0.71875,0.453125 -1.53125,0.453125 -0.57813,0 -1.04688,-0.25 -0.46875,-0.25 -0.76562,-0.625 v 3.375 z m 1.0625,-6.078125 q 0,1.34375 0.53125,1.984375 0.54688,0.625 1.3125,0.625 0.78125,0 1.34375,-0.65625 0.5625,-0.65625 0.5625,-2.046875 0,-1.3125 -0.54687,-1.96875 -0.54688,-0.671875 -1.29688,-0.671875 -0.75,0 -1.32812,0.703125 -0.57813,0.703125 -0.57813,2.03125 z"
     fill-rule="nonzero"
     id="path207" />
  <path
     fill="#000000"
     fill-opacity="0"
     d="m 462.83466,0.0105 h 70.86612 v 35.55905 h -70.86612 z"
     fill-rule="evenodd"
     id="path209" />
  <path
     fill="#000000"
     d="m 486.54671,21.81049 v -6.90625 h 1.0625 v 0.984375 q 0.75,-1.140625 2.1875,-1.140625 0.625,0 1.15625,0.21875 0.53125,0.21875 0.78125,0.59375 0.26562,0.359375 0.375,0.859375 0.0625,0.328125 0.0625,1.140625 v 4.25 h -1.17188 v -4.203125 q 0,-0.71875 -0.14062,-1.0625 -0.14063,-0.359375 -0.48438,-0.5625 -0.34375,-0.21875 -0.8125,-0.21875 -0.75,0 -1.29687,0.46875 -0.54688,0.46875 -0.54688,1.796875 v 3.78125 z m 12.14685,-2.21875 1.20313,0.140625 q -0.28125,1.0625 -1.0625,1.65625 -0.76563,0.578125 -1.96875,0.578125 -1.51563,0 -2.40625,-0.9375 -0.89063,-0.9375 -0.89063,-2.609375 0,-1.75 0.89063,-2.703125 0.90625,-0.96875 2.34375,-0.96875 1.39062,0 2.26562,0.9375 0.875,0.9375 0.875,2.65625 0,0.109375 0,0.3125 h -5.15625 q 0.0625,1.140625 0.64063,1.75 0.57812,0.59375 1.4375,0.59375 0.65625,0 1.10937,-0.328125 0.45313,-0.34375 0.71875,-1.078125 z m -3.84375,-1.90625 h 3.85938 q -0.0781,-0.859375 -0.4375,-1.296875 -0.5625,-0.6875 -1.45313,-0.6875 -0.8125,0 -1.35937,0.546875 -0.54688,0.53125 -0.60938,1.4375 z m 5.7406,4.125 2.53125,-3.59375 -2.34375,-3.3125 h 1.46875 l 1.0625,1.609375 q 0.29688,0.46875 0.48438,0.78125 0.28125,-0.4375 0.51562,-0.765625 l 1.17188,-1.625 h 1.40625 l -2.39063,3.25 2.5625,3.65625 h -1.4375 l -1.42187,-2.140625 -0.375,-0.59375 -1.8125,2.734375 z m 10.00781,-1.046875 0.17188,1.03125 q -0.5,0.109375 -0.89063,0.109375 -0.64062,0 -1,-0.203125 -0.34375,-0.203125 -0.48437,-0.53125 -0.14063,-0.328125 -0.14063,-1.390625 v -3.96875 h -0.85937 v -0.90625 h 0.85937 v -1.71875 l 1.17188,-0.703125 v 2.421875 h 1.17187 v 0.90625 h -1.17187 v 4.046875 q 0,0.5 0.0469,0.640625 0.0625,0.140625 0.20313,0.234375 0.14062,0.07813 0.40625,0.07813 0.20312,0 0.51562,-0.04687 z"
     fill-rule="nonzero"
     id="path211" />
  <path
     fill="#000000"
     fill-opacity="0"
     d="m 463.29135,62.22834 h 35.43304"
     fill-rule="evenodd"
     id="path213" />
  <path
     stroke="#cc0000"
     stroke-width="4"
     stroke-linejoin="round"
     stroke-linecap="butt"
     d="m 463.29135,62.22834 h 35.43304"
     fill-rule="evenodd"
     id="path215" />
  <path
     fill="#000000"
     fill-opacity="0"
     d="M 463.30185,245.83727 V 35.56954"
     fill-rule="evenodd"
     id="path217" />
  <path
     stroke="#000000"
     stroke-width="1"
     stroke-linejoin="round"
     stroke-linecap="butt"
     stroke-dasharray="4, 3"
     d="M 463.30185,245.83727 V 35.56954"
     fill-rule="evenodd"
     id="path219" />
  <path
     fill="#000000"
     fill-opacity="0"
     d="m 498.75589,62.22834 h 35.4331"
     fill-rule="evenodd"
     id="path221" />
  <path
     stroke="#674ea7"
     stroke-width="4"
     stroke-linejoin="round"
     stroke-linecap="butt"
     d="m 498.75589,62.22834 h 35.4331"
     fill-rule="evenodd"
     id="path223" />
</svg>
