<?xml version="1.0" encoding="UTF-8" standalone="no"?>
<svg
   xmlns:dc="http://purl.org/dc/elements/1.1/"
   xmlns:cc="http://creativecommons.org/ns#"
   xmlns:rdf="http://www.w3.org/1999/02/22-rdf-syntax-ns#"
   xmlns:svg="http://www.w3.org/2000/svg"
   xmlns="http://www.w3.org/2000/svg"
   xmlns:sodipodi="http://sodipodi.sourceforge.net/DTD/sodipodi-0.dtd"
   xmlns:inkscape="http://www.inkscape.org/namespaces/inkscape"
   version="1.1"
   viewBox="0 0 432.87683 258.91733"
   fill="none"
   stroke="none"
   stroke-linecap="square"
   stroke-miterlimit="10"
   id="svg75"
   sodipodi:docname="thread-process-layers.svg"
   width="432.87683"
   height="258.91733"
   inkscape:version="1.0.1 (3bc2e813f5, 2020-09-07)">
  <metadata
     id="metadata81">
    <rdf:RDF>
      <cc:Work
         rdf:about="">
        <dc:format>image/svg+xml</dc:format>
        <dc:type
           rdf:resource="http://purl.org/dc/dcmitype/StillImage" />
        <dc:title></dc:title>
      </cc:Work>
    </rdf:RDF>
  </metadata>
  <defs
     id="defs79" />
  <sodipodi:namedview
     pagecolor="#ffffff"
     bordercolor="#666666"
     borderopacity="1"
     objecttolerance="10"
     gridtolerance="10"
     guidetolerance="10"
     inkscape:pageopacity="0"
     inkscape:pageshadow="2"
     inkscape:window-width="1364"
     inkscape:window-height="747"
     id="namedview77"
     showgrid="false"
     inkscape:zoom="1.0685185"
     inkscape:cx="316.60499"
     inkscape:cy="154.33077"
     inkscape:window-x="0"
     inkscape:window-y="19"
     inkscape:window-maximized="0"
     inkscape:current-layer="svg75" />
  <clipPath
     id="p.0">
    <path
       d="M 0,0 H 720 V 540 H 0 Z"
       clip-rule="nonzero"
       id="path2" />
  </clipPath>
  <path
     fill="#000000"
     fill-opacity="0"
     d="M -43.395013,-40.799213 H 676.60499 V 499.20079 H -43.395013 Z"
     fill-rule="evenodd"
     id="path5" />
  <path
     fill="#d9ead3"
     d="M 1.200602,0.5 H 99.405327 V 31.492123 H 1.200602 Z"
     fill-rule="evenodd"
     id="path7" />
  <path
     stroke="#000000"
     stroke-width="1"
     stroke-linejoin="round"
     stroke-linecap="butt"
     d="M 1.200602,0.5 H 99.405327 V 31.492123 H 1.200602 Z"
     fill-rule="evenodd"
     id="path9" />
  <path
     fill="#000000"
     d="m 31.744367,20.590437 0.203125,1.25 q -0.59375,0.125 -1.0625,0.125 -0.765625,0 -1.1875,-0.234375 -0.421875,-0.25 -0.59375,-0.640625 -0.171875,-0.40625 -0.171875,-1.671875 v -4.765625 h -1.03125 v -1.09375 h 1.03125 v -2.0625 l 1.40625,-0.84375 v 2.90625 h 1.40625 v 1.09375 h -1.40625 v 4.84375 q 0,0.609375 0.0625,0.78125 0.07813,0.171875 0.25,0.28125 0.171875,0.09375 0.484375,0.09375 0.234375,0 0.609375,-0.0625 z m 1.382813,1.265625 V 10.402937 h 1.40625 v 4.109375 q 0.984375,-1.140625 2.484375,-1.140625 0.921875,0 1.59375,0.359375 0.6875,0.359375 0.96875,1 0.296875,0.640625 0.296875,1.859375 v 5.265625 h -1.40625 v -5.265625 q 0,-1.046875 -0.453125,-1.53125 -0.453125,-0.484375 -1.296875,-0.484375 -0.625,0 -1.171875,0.328125 -0.546875,0.328125 -0.78125,0.890625 -0.234375,0.546875 -0.234375,1.515625 v 4.546875 z m 8.882812,0 v -8.296875 h 1.265625 v 1.25 q 0.484375,-0.875 0.890625,-1.15625 0.40625,-0.28125 0.90625,-0.28125 0.703125,0 1.4375,0.453125 l -0.484375,1.296875 q -0.515625,-0.296875 -1.03125,-0.296875 -0.453125,0 -0.828125,0.28125 -0.359375,0.265625 -0.515625,0.765625 -0.234375,0.75 -0.234375,1.640625 v 4.34375 z m 11.015625,-2.671875 1.453125,0.171875 q -0.34375,1.28125 -1.28125,1.984375 -0.921875,0.703125 -2.359375,0.703125 -1.828125,0 -2.890625,-1.125 -1.0625,-1.125 -1.0625,-3.140625 0,-2.09375 1.078125,-3.25 1.078125,-1.15625 2.796875,-1.15625 1.65625,0 2.703125,1.140625 1.0625,1.125 1.0625,3.171875 0,0.125 0,0.375 h -6.1875 q 0.07813,1.375 0.765625,2.109375 0.703125,0.71875 1.734375,0.71875 0.78125,0 1.328125,-0.40625 0.546875,-0.40625 0.859375,-1.296875 z m -4.609375,-2.28125 h 4.625 q -0.09375,-1.046875 -0.53125,-1.5625 -0.671875,-0.8125 -1.734375,-0.8125 -0.96875,0 -1.640625,0.65625 -0.65625,0.640625 -0.71875,1.71875 z m 13.242185,3.921875 q -0.78125,0.671875 -1.5,0.953125 -0.71875,0.265625 -1.54687,0.265625 -1.375,0 -2.109377,-0.671875 -0.734375,-0.671875 -0.734375,-1.703125 0,-0.609375 0.28125,-1.109375 0.28125,-0.515625 0.718752,-0.8125 0.45312,-0.3125 1.01562,-0.46875 0.42188,-0.109375 1.25,-0.203125 1.70313,-0.203125 2.51563,-0.484375 0,-0.296875 0,-0.375 0,-0.859375 -0.39063,-1.203125 -0.54687,-0.484375 -1.60937,-0.484375 -0.98438,0 -1.46875,0.359375 -0.46875,0.34375 -0.6875,1.21875 l -1.375002,-0.1875 q 0.1875,-0.875 0.609372,-1.421875 0.4375,-0.546875 1.25,-0.828125 0.8125,-0.296875 1.875,-0.296875 1.0625,0 1.71875,0.25 0.67188,0.25 0.98438,0.625 0.3125,0.375 0.4375,0.953125 0.0781,0.359375 0.0781,1.296875 v 1.875 q 0,1.96875 0.0781,2.484375 0.0937,0.515625 0.35937,1 h -1.46875 q -0.21875,-0.4375 -0.28125,-1.03125 z m -0.10937,-3.140625 q -0.76563,0.3125 -2.29688,0.53125 -0.875,0.125 -1.23437,0.28125 -0.35938,0.15625 -0.5625,0.46875 -0.1875,0.296875 -0.1875,0.65625 0,0.5625 0.42187,0.9375 0.4375,0.375 1.25,0.375 0.8125,0 1.4375,-0.34375 0.64063,-0.359375 0.9375,-0.984375 0.23438,-0.46875 0.23438,-1.40625 z m 8.97656,4.171875 v -1.046875 q -0.78125,1.234375 -2.3125,1.234375 -1,0 -1.82812,-0.546875 -0.82813,-0.546875 -1.29688,-1.53125 -0.45312,-0.984375 -0.45312,-2.25 0,-1.25 0.40625,-2.25 0.42187,-1.015625 1.25,-1.546875 0.82812,-0.546875 1.85937,-0.546875 0.75,0 1.32813,0.3125 0.59375,0.3125 0.95312,0.828125 v -4.109375 h 1.40625 v 11.453125 z m -4.4375,-4.140625 q 0,1.59375 0.67188,2.390625 0.67187,0.78125 1.57812,0.78125 0.92188,0 1.5625,-0.75 0.65625,-0.765625 0.65625,-2.3125 0,-1.703125 -0.65625,-2.5 -0.65625,-0.796875 -1.625,-0.796875 -0.9375,0 -1.5625,0.765625 -0.625,0.765625 -0.625,2.421875 z"
     fill-rule="nonzero"
     id="path11" />
  <path
     fill="#000000"
     fill-opacity="0"
     d="m 100.12205,37.686352 v 0 c 0,2.739876 -1.088413,5.367531 -3.025793,7.304916 -1.93739,1.937378 -4.56505,3.025795 -7.30491,3.025795 h -29.14962 c -5.705486,0 -10.3307,4.625214 -10.3307,10.330704 v 0 c 0,-5.70549 -4.625221,-10.330704 -10.330711,-10.330704 H 10.830711 C 5.125217,48.017063 0.5,43.391842 0.5,37.686352 Z"
     fill-rule="evenodd"
     id="path13" />
  <path
     fill="#000000"
     fill-opacity="0"
     d="m 100.12205,37.686352 v 0 c 0,2.739876 -1.088413,5.367531 -3.025793,7.304916 -1.93739,1.937378 -4.56505,3.025795 -7.30491,3.025795 h -29.14962 c -5.705486,0 -10.3307,4.625214 -10.3307,10.330704 v 0 c 0,-5.70549 -4.625221,-10.330704 -10.330711,-10.330704 H 10.830711 C 5.125217,48.017063 0.5,43.391842 0.5,37.686352"
     fill-rule="evenodd"
     id="path15" />
  <path
     stroke="#000000"
     stroke-width="1"
     stroke-linejoin="round"
     stroke-linecap="butt"
     d="m 100.12205,37.686352 v 0 c 0,2.739876 -1.088413,5.367531 -3.025793,7.304916 -1.93739,1.937378 -4.56505,3.025795 -7.30491,3.025795 h -29.14962 c -5.705486,0 -10.3307,4.625214 -10.3307,10.330704 v 0 c 0,-5.70549 -4.625221,-10.330704 -10.330711,-10.330704 H 10.830711 C 5.125217,48.017063 0.5,43.391842 0.5,37.686352"
     fill-rule="evenodd"
     id="path17" />
  <path
     fill="#000000"
     fill-opacity="0"
     d="m 0.484252,58.347767 h 99.653538 v 38.77166 H 0.484252 Z"
     fill-rule="evenodd"
     id="path19" />
  <path
     fill="#000000"
     d="m 13.686023,82.707767 v -11.45312 h 4.296875 q 1.3125,0 2.109375,0.34375 0.796879,0.34375 1.234379,1.07812 0.453125,0.71875 0.453125,1.5 0,0.73438 -0.40625,1.39063 -0.390625,0.64062 -1.187504,1.04687 1.031254,0.29688 1.593754,1.03125 0.5625,0.73438 0.5625,1.73438 0,0.8125 -0.34375,1.5 -0.34375,0.6875 -0.84375,1.0625 -0.5,0.375 -1.250004,0.57812 -0.75,0.1875 -1.84375,0.1875 z m 1.515625,-6.64062 h 2.484375 q 1,0 1.4375,-0.14063 0.578125,-0.17187 0.875,-0.5625 0.296875,-0.40625 0.296875,-1 0,-0.57812 -0.28125,-1 -0.265625,-0.4375 -0.78125,-0.59375 -0.5,-0.17187 -1.734375,-0.17187 h -2.296875 z m 0,5.28125 h 2.859375 q 0.734375,0 1.03125,-0.0469 0.515625,-0.0937 0.859375,-0.3125 0.359375,-0.21875 0.578125,-0.64062 0.234379,-0.42188 0.234379,-0.96875 0,-0.64063 -0.328129,-1.10938 -0.328125,-0.46875 -0.90625,-0.65625 -0.578125,-0.20312 -1.671875,-0.20312 h -2.65625 z m 14.453129,0.32812 q -0.78125,0.67188 -1.5,0.95313 -0.71875,0.26562 -1.546875,0.26562 -1.375,0 -2.109375,-0.67187 -0.734375,-0.67188 -0.734375,-1.70313 0,-0.60937 0.28125,-1.10937 0.28125,-0.51563 0.71875,-0.8125 0.453125,-0.3125 1.015625,-0.46875 0.421875,-0.10938 1.25,-0.20313 1.703125,-0.20312 2.515625,-0.48437 0,-0.29688 0,-0.375 0,-0.85938 -0.390625,-1.20313 -0.546875,-0.48437 -1.609375,-0.48437 -0.984375,0 -1.46875,0.35937 -0.46875,0.34375 -0.6875,1.21875 l -1.375,-0.1875 q 0.1875,-0.875 0.609375,-1.42187 0.4375,-0.54688 1.25,-0.82813 0.8125,-0.29687 1.875,-0.29687 1.0625,0 1.71875,0.25 0.671875,0.25 0.984375,0.625 0.3125,0.375 0.4375,0.95312 0.07813,0.35938 0.07813,1.29688 v 1.875 q 0,1.96875 0.07813,2.48437 0.09375,0.51563 0.359375,1 h -1.46875 q -0.21875,-0.4375 -0.28125,-1.03125 z m -0.109375,-3.14062 q -0.765625,0.3125 -2.296875,0.53125 -0.875,0.125 -1.234375,0.28125 -0.359375,0.15625 -0.5625,0.46875 -0.1875,0.29687 -0.1875,0.65625 0,0.5625 0.421875,0.9375 0.4375,0.375 1.25,0.375 0.8125,0 1.4375,-0.34375 0.640625,-0.35938 0.9375,-0.98438 0.234375,-0.46875 0.234375,-1.40625 z m 3.039063,1.6875 1.390625,-0.21875 q 0.109375,0.84375 0.640625,1.29687 0.546875,0.4375 1.5,0.4375 0.96875,0 1.4375,-0.39062 0.46875,-0.40625 0.46875,-0.9375 0,-0.46875 -0.40625,-0.75 -0.296875,-0.1875 -1.4375,-0.46875 -1.546875,-0.39063 -2.15625,-0.67188 -0.59375,-0.29687 -0.90625,-0.79687 -0.296875,-0.5 -0.296875,-1.10938 0,-0.5625 0.25,-1.03125 0.25,-0.46875 0.6875,-0.78125 0.328125,-0.25 0.890625,-0.40625 0.578125,-0.17187 1.21875,-0.17187 0.984375,0 1.71875,0.28125 0.734375,0.28125 1.078125,0.76562 0.359375,0.46875 0.5,1.28125 l -1.375,0.1875 q -0.09375,-0.64062 -0.546875,-1 -0.453125,-0.35937 -1.265625,-0.35937 -0.96875,0 -1.390625,0.32812 -0.40625,0.3125 -0.40625,0.73438 0,0.28125 0.171875,0.5 0.171875,0.21875 0.53125,0.375 0.21875,0.0781 1.25,0.35937 1.484375,0.39063 2.078125,0.65625 0.59375,0.25 0.921875,0.73438 0.34375,0.48437 0.34375,1.20312 0,0.70313 -0.421875,1.32813 -0.40625,0.60937 -1.1875,0.95312 -0.765625,0.34375 -1.734375,0.34375 -1.625,0 -2.46875,-0.67187 -0.84375,-0.67188 -1.078125,-2 z m 14.234375,-0.1875 1.453125,0.17187 q -0.34375,1.28125 -1.28125,1.98438 -0.921875,0.70312 -2.359375,0.70312 -1.828125,0 -2.890625,-1.125 -1.0625,-1.125 -1.0625,-3.14062 0,-2.09375 1.078125,-3.25 1.078125,-1.15625 2.796875,-1.15625 1.65625,0 2.703125,1.14062 1.0625,1.125 1.0625,3.17188 0,0.125 0,0.375 h -6.1875 q 0.07813,1.375 0.765625,2.10937 0.703125,0.71875 1.734375,0.71875 0.78125,0 1.328125,-0.40625 0.546875,-0.40625 0.859375,-1.29687 z m -4.609375,-2.28125 h 4.625 q -0.09375,-1.04688 -0.53125,-1.5625 -0.671875,-0.8125 -1.734375,-0.8125 -0.96875,0 -1.640625,0.65625 -0.65625,0.64062 -0.71875,1.71875 z m 12.25,4.95312 v -11.45312 h 1.40625 v 11.45312 z m 8.992192,-1.03125 q -0.78125,0.67188 -1.5,0.95313 -0.71875,0.26562 -1.54688,0.26562 -1.375,0 -2.10937,-0.67187 -0.73438,-0.67188 -0.73438,-1.70313 0,-0.60937 0.28125,-1.10937 0.28125,-0.51563 0.71875,-0.8125 0.45313,-0.3125 1.01563,-0.46875 0.42187,-0.10938 1.25,-0.20313 1.70312,-0.20312 2.51562,-0.48437 0,-0.29688 0,-0.375 0,-0.85938 -0.39062,-1.20313 -0.54688,-0.48437 -1.60938,-0.48437 -0.98437,0 -1.46875,0.35937 -0.46875,0.34375 -0.6875,1.21875 l -1.375,-0.1875 q 0.1875,-0.875 0.60938,-1.42187 0.4375,-0.54688 1.25,-0.82813 0.8125,-0.29687 1.875,-0.29687 1.0625,0 1.71875,0.25 0.67187,0.25 0.98437,0.625 0.31249,0.375 0.43749,0.95312 0.0781,0.35938 0.0781,1.29688 v 1.875 q 0,1.96875 0.0781,2.48437 0.0937,0.51563 0.35938,1 h -1.46875 q -0.21875,-0.4375 -0.28124,-1.03125 z m -0.10938,-3.14062 q -0.76562,0.3125 -2.29687,0.53125 -0.875,0.125 -1.23438,0.28125 -0.35937,0.15625 -0.5625,0.46875 -0.1875,0.29687 -0.1875,0.65625 0,0.5625 0.42188,0.9375 0.4375,0.375 1.25,0.375 0.8125,0 1.4375,-0.34375 0.64062,-0.35938 0.9375,-0.98438 0.23437,-0.46875 0.23437,-1.40625 z m 3.53905,7.375 -0.15625,-1.32813 q 0.45313,0.125 0.79688,0.125 0.46875,0 0.75,-0.15625 0.28125,-0.15625 0.46875,-0.4375 0.125,-0.20312 0.42187,-1.04687 0.0469,-0.10938 0.125,-0.34375 l -3.14062,-8.3125 h 1.51562 l 1.71875,4.79687 q 0.34375,0.92188 0.60938,1.92188 0.23437,-0.96875 0.57812,-1.89063 l 1.76563,-4.82812 h 1.40625 l -3.15625,8.4375 q -0.5,1.375 -0.78125,1.89062 -0.375,0.6875 -0.85938,1.01563 -0.48437,0.32812 -1.15625,0.32812 -0.40625,0 -0.90625,-0.17187 z m 13.73438,-5.875 1.45312,0.17187 q -0.34375,1.28125 -1.28125,1.98438 -0.92187,0.70312 -2.35937,0.70312 -1.82813,0 -2.89063,-1.125 -1.0625,-1.125 -1.0625,-3.14062 0,-2.09375 1.07813,-3.25 1.07812,-1.15625 2.79687,-1.15625 1.65625,0 2.70313,1.14062 1.0625,1.125 1.0625,3.17188 0,0.125 0,0.375 h -6.1875 q 0.0781,1.375 0.76562,2.10937 0.70313,0.71875 1.73438,0.71875 0.78125,0 1.32812,-0.40625 0.54688,-0.40625 0.85938,-1.29687 z m -4.60938,-2.28125 h 4.625 q -0.0937,-1.04688 -0.53125,-1.5625 -0.67187,-0.8125 -1.73437,-0.8125 -0.96875,0 -1.64063,0.65625 -0.65625,0.64062 -0.71875,1.71875 z m 7.82032,4.95312 v -8.29687 h 1.26563 v 1.25 q 0.48437,-0.875 0.89062,-1.15625 0.40625,-0.28125 0.90625,-0.28125 0.70313,0 1.4375,0.45312 l -0.48437,1.29688 q -0.51563,-0.29688 -1.03125,-0.29688 -0.45313,0 -0.82813,0.28125 -0.35937,0.26563 -0.51562,0.76563 -0.23438,0.75 -0.23438,1.64062 v 4.34375 z"
     fill-rule="nonzero"
     id="path21" />
  <path
     fill="#d9ead3"
     d="m 112.1901,0.5 h 98.20473 V 31.492123 H 112.1901 Z"
     fill-rule="evenodd"
     id="path23" />
  <path
     stroke="#000000"
     stroke-width="1"
     stroke-linejoin="round"
     stroke-linecap="butt"
     d="m 112.1901,0.5 h 98.20473 V 31.492123 H 112.1901 Z"
     fill-rule="evenodd"
     id="path25" />
  <path
     fill="#000000"
     d="m 142.73388,20.590437 0.20312,1.25 q -0.59375,0.125 -1.0625,0.125 -0.76562,0 -1.1875,-0.234375 -0.42187,-0.25 -0.59375,-0.640625 -0.17187,-0.40625 -0.17187,-1.671875 v -4.765625 h -1.03125 v -1.09375 h 1.03125 v -2.0625 l 1.40625,-0.84375 v 2.90625 h 1.40625 v 1.09375 h -1.40625 v 4.84375 q 0,0.609375 0.0625,0.78125 0.0781,0.171875 0.25,0.28125 0.17187,0.09375 0.48437,0.09375 0.23438,0 0.60938,-0.0625 z m 1.38281,1.265625 V 10.402937 h 1.40625 v 4.109375 q 0.98438,-1.140625 2.48438,-1.140625 0.92187,0 1.59375,0.359375 0.6875,0.359375 0.96875,1 0.29687,0.640625 0.29687,1.859375 v 5.265625 h -1.40625 v -5.265625 q 0,-1.046875 -0.45312,-1.53125 -0.45313,-0.484375 -1.29688,-0.484375 -0.625,0 -1.17187,0.328125 -0.54688,0.328125 -0.78125,0.890625 -0.23438,0.546875 -0.23438,1.515625 v 4.546875 z m 8.88281,0 v -8.296875 h 1.26563 v 1.25 q 0.48437,-0.875 0.89062,-1.15625 0.40625,-0.28125 0.90625,-0.28125 0.70313,0 1.4375,0.453125 l -0.48437,1.296875 q -0.51563,-0.296875 -1.03125,-0.296875 -0.45313,0 -0.82813,0.28125 -0.35937,0.265625 -0.51562,0.765625 -0.23438,0.75 -0.23438,1.640625 v 4.34375 z m 11.01563,-2.671875 1.45312,0.171875 q -0.34375,1.28125 -1.28125,1.984375 -0.92187,0.703125 -2.35937,0.703125 -1.82813,0 -2.89063,-1.125 -1.0625,-1.125 -1.0625,-3.140625 0,-2.09375 1.07813,-3.25 1.07812,-1.15625 2.79687,-1.15625 1.65625,0 2.70313,1.140625 1.0625,1.125 1.0625,3.171875 0,0.125 0,0.375 h -6.1875 q 0.0781,1.375 0.76562,2.109375 0.70313,0.71875 1.73438,0.71875 0.78125,0 1.32812,-0.40625 0.54688,-0.40625 0.85938,-1.296875 z m -4.60938,-2.28125 h 4.625 q -0.0937,-1.046875 -0.53125,-1.5625 -0.67187,-0.8125 -1.73437,-0.8125 -0.96875,0 -1.64063,0.65625 -0.65625,0.640625 -0.71875,1.71875 z m 13.24219,3.921875 q -0.78125,0.671875 -1.5,0.953125 -0.71875,0.265625 -1.54687,0.265625 -1.375,0 -2.10938,-0.671875 -0.73437,-0.671875 -0.73437,-1.703125 0,-0.609375 0.28125,-1.109375 0.28125,-0.515625 0.71875,-0.8125 0.45312,-0.3125 1.01562,-0.46875 0.42188,-0.109375 1.25,-0.203125 1.70313,-0.203125 2.51563,-0.484375 0,-0.296875 0,-0.375 0,-0.859375 -0.39063,-1.203125 -0.54687,-0.484375 -1.60937,-0.484375 -0.98438,0 -1.46875,0.359375 -0.46875,0.34375 -0.6875,1.21875 l -1.375,-0.1875 q 0.1875,-0.875 0.60937,-1.421875 0.4375,-0.546875 1.25,-0.828125 0.8125,-0.296875 1.875,-0.296875 1.0625,0 1.71875,0.25 0.67188,0.25 0.98438,0.625 0.3125,0.375 0.4375,0.953125 0.0781,0.359375 0.0781,1.296875 v 1.875 q 0,1.96875 0.0781,2.484375 0.0937,0.515625 0.35937,1 h -1.46875 q -0.21875,-0.4375 -0.28125,-1.03125 z m -0.10937,-3.140625 q -0.76563,0.3125 -2.29688,0.53125 -0.875,0.125 -1.23437,0.28125 -0.35938,0.15625 -0.5625,0.46875 -0.1875,0.296875 -0.1875,0.65625 0,0.5625 0.42187,0.9375 0.4375,0.375 1.25,0.375 0.8125,0 1.4375,-0.34375 0.64063,-0.359375 0.9375,-0.984375 0.23438,-0.46875 0.23438,-1.40625 z m 8.97656,4.171875 v -1.046875 q -0.78125,1.234375 -2.3125,1.234375 -1,0 -1.82813,-0.546875 -0.82812,-0.546875 -1.29687,-1.53125 -0.45313,-0.984375 -0.45313,-2.25 0,-1.25 0.40625,-2.25 0.42188,-1.015625 1.25,-1.546875 0.82813,-0.546875 1.85938,-0.546875 0.75,0 1.32812,0.3125 0.59375,0.3125 0.95313,0.828125 v -4.109375 h 1.40625 v 11.453125 z m -4.4375,-4.140625 q 0,1.59375 0.67187,2.390625 0.67188,0.78125 1.57813,0.78125 0.92187,0 1.5625,-0.75 0.65625,-0.765625 0.65625,-2.3125 0,-1.703125 -0.65625,-2.5 -0.65625,-0.796875 -1.625,-0.796875 -0.9375,0 -1.5625,0.765625 -0.625,0.765625 -0.625,2.421875 z"
     fill-rule="nonzero"
     id="path27" />
  <path
     fill="#d9ead3"
     d="m 223.17961,0.5 h 98.20471 v 30.992123 h -98.20471 z"
     fill-rule="evenodd"
     id="path29" />
  <path
     stroke="#000000"
     stroke-width="1"
     stroke-linejoin="round"
     stroke-linecap="butt"
     d="m 223.17961,0.5 h 98.20471 v 30.992123 h -98.20471 z"
     fill-rule="evenodd"
     id="path31" />
  <path
     fill="#000000"
     d="m 253.72337,20.590437 0.20312,1.25 q -0.59375,0.125 -1.0625,0.125 -0.76562,0 -1.1875,-0.234375 -0.42187,-0.25 -0.59375,-0.640625 -0.17187,-0.40625 -0.17187,-1.671875 v -4.765625 h -1.03125 v -1.09375 h 1.03125 v -2.0625 l 1.40625,-0.84375 v 2.90625 h 1.40625 v 1.09375 h -1.40625 v 4.84375 q 0,0.609375 0.0625,0.78125 0.0781,0.171875 0.25,0.28125 0.17187,0.09375 0.48437,0.09375 0.23438,0 0.60938,-0.0625 z m 1.38281,1.265625 V 10.402937 h 1.40625 v 4.109375 q 0.98438,-1.140625 2.48438,-1.140625 0.92187,0 1.59375,0.359375 0.6875,0.359375 0.96875,1 0.29687,0.640625 0.29687,1.859375 v 5.265625 h -1.40625 v -5.265625 q 0,-1.046875 -0.45312,-1.53125 -0.45313,-0.484375 -1.29688,-0.484375 -0.625,0 -1.17187,0.328125 -0.54688,0.328125 -0.78125,0.890625 -0.23438,0.546875 -0.23438,1.515625 v 4.546875 z m 8.88281,0 v -8.296875 h 1.26563 v 1.25 q 0.48437,-0.875 0.89062,-1.15625 0.40625,-0.28125 0.90625,-0.28125 0.70313,0 1.4375,0.453125 l -0.48437,1.296875 q -0.51563,-0.296875 -1.03125,-0.296875 -0.45313,0 -0.82813,0.28125 -0.35937,0.265625 -0.51562,0.765625 -0.23438,0.75 -0.23438,1.640625 v 4.34375 z m 11.01563,-2.671875 1.45312,0.171875 q -0.34375,1.28125 -1.28125,1.984375 -0.92187,0.703125 -2.35937,0.703125 -1.82813,0 -2.89063,-1.125 -1.0625,-1.125 -1.0625,-3.140625 0,-2.09375 1.07813,-3.25 1.07812,-1.15625 2.79687,-1.15625 1.65625,0 2.70313,1.140625 1.0625,1.125 1.0625,3.171875 0,0.125 0,0.375 h -6.1875 q 0.0781,1.375 0.76562,2.109375 0.70313,0.71875 1.73438,0.71875 0.78125,0 1.32812,-0.40625 0.54688,-0.40625 0.85938,-1.296875 z m -4.60938,-2.28125 h 4.625 q -0.0937,-1.046875 -0.53125,-1.5625 -0.67187,-0.8125 -1.73437,-0.8125 -0.96875,0 -1.64063,0.65625 -0.65625,0.640625 -0.71875,1.71875 z m 13.24219,3.921875 q -0.78125,0.671875 -1.5,0.953125 -0.71875,0.265625 -1.54687,0.265625 -1.375,0 -2.10938,-0.671875 -0.73437,-0.671875 -0.73437,-1.703125 0,-0.609375 0.28125,-1.109375 0.28125,-0.515625 0.71875,-0.8125 0.45312,-0.3125 1.01562,-0.46875 0.42188,-0.109375 1.25,-0.203125 1.70313,-0.203125 2.51563,-0.484375 0,-0.296875 0,-0.375 0,-0.859375 -0.39063,-1.203125 -0.54687,-0.484375 -1.60937,-0.484375 -0.98438,0 -1.46875,0.359375 -0.46875,0.34375 -0.6875,1.21875 l -1.375,-0.1875 q 0.1875,-0.875 0.60937,-1.421875 0.4375,-0.546875 1.25,-0.828125 0.8125,-0.296875 1.875,-0.296875 1.0625,0 1.71875,0.25 0.67188,0.25 0.98438,0.625 0.3125,0.375 0.4375,0.953125 0.0781,0.359375 0.0781,1.296875 v 1.875 q 0,1.96875 0.0781,2.484375 0.0937,0.515625 0.35937,1 h -1.46875 q -0.21875,-0.4375 -0.28125,-1.03125 z m -0.10937,-3.140625 q -0.76563,0.3125 -2.29688,0.53125 -0.875,0.125 -1.23437,0.28125 -0.35938,0.15625 -0.5625,0.46875 -0.1875,0.296875 -0.1875,0.65625 0,0.5625 0.42187,0.9375 0.4375,0.375 1.25,0.375 0.8125,0 1.4375,-0.34375 0.64063,-0.359375 0.9375,-0.984375 0.23438,-0.46875 0.23438,-1.40625 z m 8.97656,4.171875 v -1.046875 q -0.78125,1.234375 -2.3125,1.234375 -1,0 -1.82813,-0.546875 -0.82812,-0.546875 -1.29687,-1.53125 -0.45313,-0.984375 -0.45313,-2.25 0,-1.25 0.40625,-2.25 0.42188,-1.015625 1.25,-1.546875 0.82813,-0.546875 1.85938,-0.546875 0.75,0 1.32812,0.3125 0.59375,0.3125 0.95313,0.828125 v -4.109375 h 1.40625 v 11.453125 z m -4.4375,-4.140625 q 0,1.59375 0.67187,2.390625 0.67188,0.78125 1.57813,0.78125 0.92187,0 1.5625,-0.75 0.65625,-0.765625 0.65625,-2.3125 0,-1.703125 -0.65625,-2.5 -0.65625,-0.796875 -1.625,-0.796875 -0.9375,0 -1.5625,0.765625 -0.625,0.765625 -0.625,2.421875 z"
     fill-rule="nonzero"
     id="path33" />
  <path
     fill="#d9ead3"
     d="m 334.16911,0.5 h 98.20471 v 30.992123 h -98.20471 z"
     fill-rule="evenodd"
     id="path35" />
  <path
     stroke="#000000"
     stroke-width="1"
     stroke-linejoin="round"
     stroke-linecap="butt"
     d="m 334.16911,0.5 h 98.20471 v 30.992123 h -98.20471 z"
     fill-rule="evenodd"
     id="path37" />
  <path
     fill="#000000"
     d="m 364.71287,20.590437 0.20313,1.25 q -0.59375,0.125 -1.0625,0.125 -0.76563,0 -1.1875,-0.234375 -0.42188,-0.25 -0.59375,-0.640625 -0.17188,-0.40625 -0.17188,-1.671875 v -4.765625 h -1.03125 v -1.09375 h 1.03125 v -2.0625 l 1.40625,-0.84375 v 2.90625 h 1.40625 v 1.09375 h -1.40625 v 4.84375 q 0,0.609375 0.0625,0.78125 0.0781,0.171875 0.25,0.28125 0.17188,0.09375 0.48438,0.09375 0.23437,0 0.60937,-0.0625 z m 1.38281,1.265625 V 10.402937 h 1.40625 v 4.109375 q 0.98438,-1.140625 2.48438,-1.140625 0.92187,0 1.59375,0.359375 0.6875,0.359375 0.96875,1 0.29687,0.640625 0.29687,1.859375 v 5.265625 h -1.40625 v -5.265625 q 0,-1.046875 -0.45312,-1.53125 -0.45313,-0.484375 -1.29688,-0.484375 -0.625,0 -1.17187,0.328125 -0.54688,0.328125 -0.78125,0.890625 -0.23438,0.546875 -0.23438,1.515625 v 4.546875 z m 8.88282,0 v -8.296875 h 1.26562 v 1.25 q 0.48438,-0.875 0.89063,-1.15625 0.40625,-0.28125 0.90625,-0.28125 0.70312,0 1.4375,0.453125 l -0.48438,1.296875 q -0.51562,-0.296875 -1.03125,-0.296875 -0.45312,0 -0.82812,0.28125 -0.35938,0.265625 -0.51563,0.765625 -0.23437,0.75 -0.23437,1.640625 v 4.34375 z m 11.01562,-2.671875 1.45313,0.171875 q -0.34375,1.28125 -1.28125,1.984375 -0.92188,0.703125 -2.35938,0.703125 -1.82812,0 -2.89062,-1.125 -1.0625,-1.125 -1.0625,-3.140625 0,-2.09375 1.07812,-3.25 1.07813,-1.15625 2.79688,-1.15625 1.65625,0 2.70312,1.140625 1.0625,1.125 1.0625,3.171875 0,0.125 0,0.375 h -6.1875 q 0.0781,1.375 0.76563,2.109375 0.70312,0.71875 1.73437,0.71875 0.78125,0 1.32813,-0.40625 0.54687,-0.40625 0.85937,-1.296875 z m -4.60937,-2.28125 h 4.625 q -0.0937,-1.046875 -0.53125,-1.5625 -0.67188,-0.8125 -1.73438,-0.8125 -0.96875,0 -1.64062,0.65625 -0.65625,0.640625 -0.71875,1.71875 z m 13.24218,3.921875 q -0.78125,0.671875 -1.5,0.953125 -0.71875,0.265625 -1.54687,0.265625 -1.375,0 -2.10938,-0.671875 -0.73437,-0.671875 -0.73437,-1.703125 0,-0.609375 0.28125,-1.109375 0.28125,-0.515625 0.71875,-0.8125 0.45312,-0.3125 1.01562,-0.46875 0.42188,-0.109375 1.25,-0.203125 1.70313,-0.203125 2.51563,-0.484375 0,-0.296875 0,-0.375 0,-0.859375 -0.39063,-1.203125 -0.54687,-0.484375 -1.60937,-0.484375 -0.98438,0 -1.46875,0.359375 -0.46875,0.34375 -0.6875,1.21875 l -1.375,-0.1875 q 0.1875,-0.875 0.60937,-1.421875 0.4375,-0.546875 1.25,-0.828125 0.8125,-0.296875 1.875,-0.296875 1.0625,0 1.71875,0.25 0.67188,0.25 0.98438,0.625 0.3125,0.375 0.4375,0.953125 0.0781,0.359375 0.0781,1.296875 v 1.875 q 0,1.96875 0.0781,2.484375 0.0937,0.515625 0.35937,1 h -1.46875 q -0.21875,-0.4375 -0.28125,-1.03125 z m -0.10937,-3.140625 q -0.76563,0.3125 -2.29688,0.53125 -0.875,0.125 -1.23437,0.28125 -0.35938,0.15625 -0.5625,0.46875 -0.1875,0.296875 -0.1875,0.65625 0,0.5625 0.42187,0.9375 0.4375,0.375 1.25,0.375 0.8125,0 1.4375,-0.34375 0.64063,-0.359375 0.9375,-0.984375 0.23438,-0.46875 0.23438,-1.40625 z m 8.97656,4.171875 v -1.046875 q -0.78125,1.234375 -2.3125,1.234375 -1,0 -1.82812,-0.546875 -0.82813,-0.546875 -1.29688,-1.53125 -0.45312,-0.984375 -0.45312,-2.25 0,-1.25 0.40625,-2.25 0.42187,-1.015625 1.25,-1.546875 0.82812,-0.546875 1.85937,-0.546875 0.75,0 1.32813,0.3125 0.59375,0.3125 0.95312,0.828125 v -4.109375 h 1.40625 v 11.453125 z m -4.4375,-4.140625 q 0,1.59375 0.67188,2.390625 0.67187,0.78125 1.57812,0.78125 0.92188,0 1.5625,-0.75 0.65625,-0.765625 0.65625,-2.3125 0,-1.703125 -0.65625,-2.5 -0.65625,-0.796875 -1.625,-0.796875 -0.9375,0 -1.5625,0.765625 -0.625,0.765625 -0.625,2.421875 z"
     fill-rule="nonzero"
     id="path39" />
  <path
     fill="#d9d2e9"
     d="M 1.208873,111.4895 H 210.40573 v 30.99213 H 1.208873 Z"
     fill-rule="evenodd"
     id="path41" />
  <path
     stroke="#000000"
     stroke-width="1"
     stroke-linejoin="round"
     stroke-linecap="butt"
     d="M 1.208873,111.4895 H 210.40573 v 30.99213 H 1.208873 Z"
     fill-rule="evenodd"
     id="path43" />
  <path
     fill="#000000"
     d="m 78.858077,136.03307 v -11.48438 h 1.28125 v 1.07813 q 0.45313,-0.64063 1.01563,-0.95313 0.57812,-0.3125 1.39062,-0.3125 1.0625,0 1.875,0.54688 0.81251,0.54687 1.21876,1.54687 0.42187,0.98438 0.42187,2.17188 0,1.28125 -0.46875,2.29687 -0.45312,1.01563 -1.32813,1.5625 -0.85938,0.54688 -1.82813,0.54688 -0.70312,0 -1.26562,-0.29688 -0.54688,-0.29687 -0.90625,-0.75 v 4.04688 z m 1.26563,-7.29688 q 0,1.60938 0.64062,2.375 0.65625,0.76563 1.57813,0.76563 0.9375,0 1.60937,-0.79688 0.67188,-0.79687 0.67188,-2.45312 0,-1.59375 -0.65626,-2.375 -0.65625,-0.79688 -1.5625,-0.79688 -0.89062,0 -1.59375,0.84375 -0.6875,0.84375 -0.68749,2.4375 z m 7.61719,4.10938 v -8.29688 h 1.26562 v 1.25 q 0.48438,-0.875 0.89063,-1.15625 0.40625,-0.28125 0.90625,-0.28125 0.70312,0 1.4375,0.45313 l -0.48438,1.29687 q -0.51562,-0.29687 -1.03125,-0.29687 -0.45312,0 -0.82812,0.28125 -0.35938,0.26562 -0.51563,0.76562 -0.23437,0.75 -0.23437,1.64063 v 4.34375 z m 4.8125,-4.15625 q 0,-2.29688 1.28125,-3.40625 1.07812,-0.92188 2.60937,-0.92188 1.71875,0 2.79688,1.125 1.093753,1.10938 1.093753,3.09375 0,1.59375 -0.484383,2.51563 -0.48437,0.92187 -1.40625,1.4375 -0.90625,0.5 -2,0.5 -1.73437,0 -2.8125,-1.10938 -1.07812,-1.125 -1.07812,-3.23437 z m 1.45312,0 q 0,1.59375 0.6875,2.39062 0.70313,0.79688 1.75,0.79688 1.04688,0 1.73438,-0.79688 0.70312,-0.79687 0.70312,-2.4375 0,-1.53125 -0.70312,-2.32812 -0.6875,-0.79688 -1.73438,-0.79688 -1.04687,0 -1.75,0.79688 -0.6875,0.78125 -0.6875,2.375 z m 13.382823,1.10937 1.39062,0.1875 q -0.23437,1.42188 -1.17187,2.23438 -0.92188,0.8125 -2.28125,0.8125 -1.70313,0 -2.75,-1.10938 -1.03125,-1.125 -1.03125,-3.20312 0,-1.34375 0.4375,-2.34375 0.45312,-1.01563 1.35937,-1.51563 0.92188,-0.5 1.98438,-0.5 1.35937,0 2.21875,0.6875 0.85937,0.67188 1.09375,1.9375 l -1.35938,0.20313 q -0.20312,-0.82813 -0.70312,-1.25 -0.48438,-0.42188 -1.1875,-0.42188 -1.0625,0 -1.73438,0.76563 -0.65625,0.75 -0.65625,2.40625 0,1.67187 0.64063,2.4375 0.64062,0.75 1.67187,0.75 0.82813,0 1.375,-0.5 0.5625,-0.51563 0.70313,-1.57813 z m 8.26562,0.375 1.45313,0.17188 q -0.34375,1.28125 -1.28125,1.98437 -0.92188,0.70313 -2.35938,0.70313 -1.82812,0 -2.89062,-1.125 -1.0625,-1.125 -1.0625,-3.14063 0,-2.09375 1.07812,-3.25 1.07813,-1.15625 2.79688,-1.15625 1.65625,0 2.70312,1.14063 1.0625,1.125 1.0625,3.17187 0,0.125 0,0.375 h -6.1875 q 0.0781,1.375 0.76563,2.10938 0.70312,0.71875 1.73437,0.71875 0.78125,0 1.32813,-0.40625 0.54687,-0.40625 0.85937,-1.29688 z m -4.60937,-2.28125 h 4.625 q -0.0937,-1.04687 -0.53125,-1.5625 -0.67188,-0.8125 -1.73438,-0.8125 -0.96875,0 -1.64062,0.65625 -0.65625,0.64063 -0.71875,1.71875 z m 7.27343,2.46875 1.39063,-0.21875 q 0.10937,0.84375 0.64062,1.29688 0.54688,0.4375 1.5,0.4375 0.96875,0 1.4375,-0.39063 0.46875,-0.40625 0.46875,-0.9375 0,-0.46875 -0.40625,-0.75 -0.29687,-0.1875 -1.4375,-0.46875 -1.54687,-0.39062 -2.15625,-0.67187 -0.59375,-0.29688 -0.90625,-0.79688 -0.29687,-0.5 -0.29687,-1.10937 0,-0.5625 0.25,-1.03125 0.25,-0.46875 0.6875,-0.78125 0.32812,-0.25 0.89062,-0.40625 0.57813,-0.17188 1.21875,-0.17188 0.98438,0 1.71875,0.28125 0.73438,0.28125 1.07813,0.76563 0.35937,0.46875 0.5,1.28125 l -1.375,0.1875 q -0.0937,-0.64063 -0.54688,-1 -0.45312,-0.35938 -1.26562,-0.35938 -0.96875,0 -1.39063,0.32813 -0.40625,0.3125 -0.40625,0.73437 0,0.28125 0.17188,0.5 0.17187,0.21875 0.53125,0.375 0.21875,0.0781 1.25,0.35938 1.48437,0.39062 2.07812,0.65625 0.59375,0.25 0.92188,0.73437 0.34375,0.48438 0.34375,1.20313 0,0.70312 -0.42188,1.32812 -0.40625,0.60938 -1.1875,0.95313 -0.76562,0.34375 -1.73437,0.34375 -1.625,0 -2.46875,-0.67188 -0.84375,-0.67187 -1.07813,-2 z m 8,0 1.39063,-0.21875 q 0.10937,0.84375 0.64062,1.29688 0.54688,0.4375 1.49999,0.4375 0.96875,0 1.4375,-0.39063 0.46875,-0.40625 0.46875,-0.9375 0,-0.46875 -0.40625,-0.75 -0.29688,-0.1875 -1.4375,-0.46875 -1.54686,-0.39062 -2.15624,-0.67187 -0.59375,-0.29688 -0.90625,-0.79688 -0.29687,-0.5 -0.29687,-1.10937 0,-0.5625 0.25,-1.03125 0.25,-0.46875 0.6875,-0.78125 0.32812,-0.25 0.89062,-0.40625 0.57813,-0.17188 1.21874,-0.17188 0.98437,0 1.71875,0.28125 0.73437,0.28125 1.07812,0.76563 0.35938,0.46875 0.5,1.28125 l -1.375,0.1875 q -0.0937,-0.64063 -0.54687,-1 -0.45313,-0.35938 -1.26563,-0.35938 -0.96873,0 -1.39061,0.32813 -0.40625,0.3125 -0.40625,0.73437 0,0.28125 0.17188,0.5 0.17187,0.21875 0.53125,0.375 0.21875,0.0781 1.24998,0.35938 1.48438,0.39062 2.07813,0.65625 0.59375,0.25 0.92187,0.73437 0.34375,0.48438 0.34375,1.20313 0,0.70312 -0.42187,1.32812 -0.40625,0.60938 -1.1875,0.95313 -0.76563,0.34375 -1.73438,0.34375 -1.62498,0 -2.46873,-0.67188 -0.84375,-0.67187 -1.07813,-2 z"
     fill-rule="nonzero"
     id="path45" />
  <path
     fill="#d9d2e9"
     d="m 223.17999,111.4895 h 209.19684 v 30.99213 H 223.17999 Z"
     fill-rule="evenodd"
     id="path47" />
  <path
     stroke="#000000"
     stroke-width="1"
     stroke-linejoin="round"
     stroke-linecap="butt"
     d="m 223.17999,111.4895 h 209.19684 v 30.99213 H 223.17999 Z"
     fill-rule="evenodd"
     id="path49" />
  <path
     fill="#000000"
     d="m 300.82919,136.03307 v -11.48438 h 1.28125 v 1.07813 q 0.45312,-0.64063 1.01562,-0.95313 0.57813,-0.3125 1.39063,-0.3125 1.0625,0 1.875,0.54688 0.8125,0.54687 1.21875,1.54687 0.42187,0.98438 0.42187,2.17188 0,1.28125 -0.46875,2.29687 -0.45312,1.01563 -1.32812,1.5625 -0.85938,0.54688 -1.82813,0.54688 -0.70312,0 -1.26562,-0.29688 -0.54688,-0.29687 -0.90625,-0.75 v 4.04688 z m 1.26562,-7.29688 q 0,1.60938 0.64063,2.375 0.65625,0.76563 1.57812,0.76563 0.9375,0 1.60938,-0.79688 0.67187,-0.79687 0.67187,-2.45312 0,-1.59375 -0.65625,-2.375 -0.65625,-0.79688 -1.5625,-0.79688 -0.89062,0 -1.59375,0.84375 -0.6875,0.84375 -0.6875,2.4375 z m 7.61719,4.10938 v -8.29688 h 1.26563 v 1.25 q 0.48437,-0.875 0.89062,-1.15625 0.40625,-0.28125 0.90625,-0.28125 0.70313,0 1.4375,0.45313 l -0.48437,1.29687 q -0.51563,-0.29687 -1.03125,-0.29687 -0.45313,0 -0.82813,0.28125 -0.35937,0.26562 -0.51562,0.76562 -0.23438,0.75 -0.23438,1.64063 v 4.34375 z m 4.8125,-4.15625 q 0,-2.29688 1.28125,-3.40625 1.07813,-0.92188 2.60938,-0.92188 1.71875,0 2.79687,1.125 1.09375,1.10938 1.09375,3.09375 0,1.59375 -0.48437,2.51563 -0.48438,0.92187 -1.40625,1.4375 -0.90625,0.5 -2,0.5 -1.73438,0 -2.8125,-1.10938 -1.07813,-1.125 -1.07813,-3.23437 z m 1.45313,0 q 0,1.59375 0.6875,2.39062 0.70312,0.79688 1.75,0.79688 1.04687,0 1.73437,-0.79688 0.70313,-0.79687 0.70313,-2.4375 0,-1.53125 -0.70313,-2.32812 -0.6875,-0.79688 -1.73437,-0.79688 -1.04688,0 -1.75,0.79688 -0.6875,0.78125 -0.6875,2.375 z m 13.38281,1.10937 1.39062,0.1875 q -0.23437,1.42188 -1.17187,2.23438 -0.92188,0.8125 -2.28125,0.8125 -1.70313,0 -2.75,-1.10938 -1.03125,-1.125 -1.03125,-3.20312 0,-1.34375 0.4375,-2.34375 0.45312,-1.01563 1.35937,-1.51563 0.92188,-0.5 1.98438,-0.5 1.35937,0 2.21875,0.6875 0.85937,0.67188 1.09375,1.9375 l -1.35938,0.20313 q -0.20312,-0.82813 -0.70312,-1.25 -0.48438,-0.42188 -1.1875,-0.42188 -1.0625,0 -1.73438,0.76563 -0.65625,0.75 -0.65625,2.40625 0,1.67187 0.64063,2.4375 0.64062,0.75 1.67187,0.75 0.82813,0 1.375,-0.5 0.5625,-0.51563 0.70313,-1.57813 z m 8.26562,0.375 1.45313,0.17188 q -0.34375,1.28125 -1.28125,1.98437 -0.92188,0.70313 -2.35938,0.70313 -1.82812,0 -2.89062,-1.125 -1.0625,-1.125 -1.0625,-3.14063 0,-2.09375 1.07812,-3.25 1.07813,-1.15625 2.79688,-1.15625 1.65625,0 2.70312,1.14063 1.0625,1.125 1.0625,3.17187 0,0.125 0,0.375 h -6.1875 q 0.0781,1.375 0.76563,2.10938 0.70312,0.71875 1.73437,0.71875 0.78125,0 1.32813,-0.40625 0.54687,-0.40625 0.85937,-1.29688 z m -4.60937,-2.28125 h 4.625 q -0.0937,-1.04687 -0.53125,-1.5625 -0.67188,-0.8125 -1.73438,-0.8125 -0.96875,0 -1.64062,0.65625 -0.65625,0.64063 -0.71875,1.71875 z m 7.27344,2.46875 1.39062,-0.21875 q 0.10938,0.84375 0.64063,1.29688 0.54687,0.4375 1.5,0.4375 0.96875,0 1.4375,-0.39063 0.46875,-0.40625 0.46875,-0.9375 0,-0.46875 -0.40625,-0.75 -0.29688,-0.1875 -1.4375,-0.46875 -1.54688,-0.39062 -2.15625,-0.67187 -0.59375,-0.29688 -0.90625,-0.79688 -0.29688,-0.5 -0.29688,-1.10937 0,-0.5625 0.25,-1.03125 0.25,-0.46875 0.6875,-0.78125 0.32813,-0.25 0.89063,-0.40625 0.57812,-0.17188 1.21875,-0.17188 0.98437,0 1.71875,0.28125 0.73437,0.28125 1.07812,0.76563 0.35938,0.46875 0.5,1.28125 l -1.375,0.1875 q -0.0937,-0.64063 -0.54687,-1 -0.45313,-0.35938 -1.26563,-0.35938 -0.96875,0 -1.39062,0.32813 -0.40625,0.3125 -0.40625,0.73437 0,0.28125 0.17187,0.5 0.17188,0.21875 0.53125,0.375 0.21875,0.0781 1.25,0.35938 1.48438,0.39062 2.07813,0.65625 0.59375,0.25 0.92187,0.73437 0.34375,0.48438 0.34375,1.20313 0,0.70312 -0.42187,1.32812 -0.40625,0.60938 -1.1875,0.95313 -0.76563,0.34375 -1.73438,0.34375 -1.625,0 -2.46875,-0.67188 -0.84375,-0.67187 -1.07812,-2 z m 8,0 1.39062,-0.21875 q 0.10938,0.84375 0.64063,1.29688 0.54687,0.4375 1.5,0.4375 0.96875,0 1.4375,-0.39063 0.46875,-0.40625 0.46875,-0.9375 0,-0.46875 -0.40625,-0.75 -0.29688,-0.1875 -1.4375,-0.46875 -1.54688,-0.39062 -2.15625,-0.67187 -0.59375,-0.29688 -0.90625,-0.79688 -0.29688,-0.5 -0.29688,-1.10937 0,-0.5625 0.25,-1.03125 0.25,-0.46875 0.6875,-0.78125 0.32813,-0.25 0.89063,-0.40625 0.57812,-0.17188 1.21875,-0.17188 0.98437,0 1.71875,0.28125 0.73437,0.28125 1.07812,0.76563 0.35938,0.46875 0.5,1.28125 l -1.375,0.1875 q -0.0937,-0.64063 -0.54687,-1 -0.45313,-0.35938 -1.26563,-0.35938 -0.96875,0 -1.39062,0.32813 -0.40625,0.3125 -0.40625,0.73437 0,0.28125 0.17187,0.5 0.17188,0.21875 0.53125,0.375 0.21875,0.0781 1.25,0.35938 1.48438,0.39062 2.07813,0.65625 0.59375,0.25 0.92187,0.73437 0.34375,0.48438 0.34375,1.20313 0,0.70312 -0.42187,1.32812 -0.40625,0.60938 -1.1875,0.95313 -0.76563,0.34375 -1.73438,0.34375 -1.625,0 -2.46875,-0.67188 -0.84375,-0.67187 -1.07812,-2 z"
     fill-rule="nonzero"
     id="path51" />
  <path
     fill="#000000"
     fill-opacity="0"
     d="m 209.64805,146.61287 v 0 c 0,2.73987 -1.08841,5.36752 -3.0258,7.30492 -1.93738,1.93737 -4.56504,3.02578 -7.30492,3.02578 h -83.9055 c -5.70549,0 -10.33072,4.62522 -10.33072,10.33071 v 0 c 0,-5.70549 -4.62521,-10.33071 -10.330703,-10.33071 H 10.844895 c -5.705494,0 -10.330708,-4.62521 -10.330708,-10.3307 z"
     fill-rule="evenodd"
     id="path53" />
  <path
     fill="#000000"
     fill-opacity="0"
     d="m 209.64805,146.61287 v 0 c 0,2.73987 -1.08841,5.36752 -3.0258,7.30492 -1.93738,1.93737 -4.56504,3.02578 -7.30492,3.02578 h -83.9055 c -5.70549,0 -10.33072,4.62522 -10.33072,10.33071 v 0 c 0,-5.70549 -4.62521,-10.33071 -10.330703,-10.33071 H 10.844895 c -5.705494,0 -10.330708,-4.62521 -10.330708,-10.3307"
     fill-rule="evenodd"
     id="path55" />
  <path
     stroke="#000000"
     stroke-width="1"
     stroke-linejoin="round"
     stroke-linecap="butt"
     d="m 209.64805,146.61287 v 0 c 0,2.73987 -1.08841,5.36752 -3.0258,7.30492 -1.93738,1.93737 -4.56504,3.02578 -7.30492,3.02578 h -83.9055 c -5.70549,0 -10.33072,4.62522 -10.33072,10.33071 v 0 c 0,-5.70549 -4.62521,-10.33071 -10.330703,-10.33071 H 10.844895 c -5.705494,0 -10.330708,-4.62521 -10.330708,-10.3307"
     fill-rule="evenodd"
     id="path57" />
  <path
     fill="#000000"
     fill-opacity="0"
     d="M 0.484252,167.27428 H 209.68109 v 38.77165 H 0.484252 Z"
     fill-rule="evenodd"
     id="path59" />
  <path
     fill="#000000"
     d="m 38.235022,191.63428 v -11.45313 h 2.28125 l 2.71875,8.10938 q 0.375,1.125 0.546875,1.6875 0.1875,-0.625 0.609375,-1.82813 l 2.734375,-7.96875 h 2.046875 v 11.45313 h -1.46875 v -9.59375 l -3.328125,9.59375 h -1.359375 l -3.3125,-9.75 v 9.75 z m 18.640625,0 v -1.21875 q -0.96875,1.40625 -2.640625,1.40625 -0.734375,0 -1.375,-0.28125 -0.625,-0.28125 -0.9375,-0.70313 -0.3125,-0.4375 -0.4375,-1.04687 -0.07813,-0.42188 -0.07813,-1.3125 v -5.14063 h 1.40625 v 4.59375 q 0,1.10938 0.07813,1.48438 0.140625,0.5625 0.5625,0.875 0.4375,0.3125 1.0625,0.3125 0.640625,0 1.1875,-0.3125 0.5625,-0.32813 0.78125,-0.89063 0.234375,-0.5625 0.234375,-1.625 v -4.4375 h 1.40625 v 8.29688 z m 3.42969,0 v -11.45313 h 1.40625 v 11.45313 z m 6.64844,-1.26563 0.20312,1.25 q -0.59375,0.125 -1.0625,0.125 -0.76562,0 -1.1875,-0.23437 -0.42187,-0.25 -0.59375,-0.64063 -0.17187,-0.40625 -0.17187,-1.67187 v -4.76563 h -1.03125 v -1.09375 h 1.03125 v -2.0625 l 1.40625,-0.84375 v 2.90625 h 1.40625 v 1.09375 h -1.40625 v 4.84375 q 0,0.60938 0.0625,0.78125 0.0781,0.17188 0.25,0.28125 0.17187,0.0937 0.48437,0.0937 0.23438,0 0.60938,-0.0625 z m 1.38281,-8.57812 v -1.60938 h 1.40625 v 1.60938 z m 0,9.84375 v -8.29688 h 1.40625 v 8.29688 z m 6.61719,-1.26563 0.20312,1.25 q -0.59375,0.125 -1.0625,0.125 -0.76562,0 -1.1875,-0.23437 -0.42187,-0.25 -0.59375,-0.64063 -0.17187,-0.40625 -0.17187,-1.67187 v -4.76563 h -1.03125 v -1.09375 h 1.03125 v -2.0625 l 1.40625,-0.84375 v 2.90625 h 1.40625 v 1.09375 h -1.40625 v 4.84375 q 0,0.60938 0.0625,0.78125 0.0781,0.17188 0.25,0.28125 0.17187,0.0937 0.48437,0.0937 0.23438,0 0.60938,-0.0625 z m 1.38281,1.26563 v -11.45313 h 1.40625 v 4.10938 q 0.98437,-1.14063 2.48437,-1.14063 0.92188,0 1.59375,0.35938 0.6875,0.35937 0.96875,1 0.29688,0.64062 0.29688,1.85937 v 5.26563 h -1.40625 v -5.26563 q 0,-1.04687 -0.45313,-1.53125 -0.45312,-0.48437 -1.29687,-0.48437 -0.625,0 -1.17188,0.32812 -0.54687,0.32813 -0.78125,0.89063 -0.23437,0.54687 -0.23437,1.51562 v 4.54688 z m 8.88281,0 v -8.29688 h 1.26563 v 1.25 q 0.48437,-0.875 0.89062,-1.15625 0.40625,-0.28125 0.90625,-0.28125 0.70313,0 1.4375,0.45313 l -0.48437,1.29687 q -0.51563,-0.29687 -1.03125,-0.29687 -0.45313,0 -0.82813,0.28125 -0.35937,0.26562 -0.51562,0.76562 -0.23438,0.75 -0.23438,1.64063 v 4.34375 z m 11.01563,-2.67188 1.45312,0.17188 q -0.34375,1.28125 -1.28125,1.98437 -0.92187,0.70313 -2.35937,0.70313 -1.82813,0 -2.89063,-1.125 -1.0625,-1.125 -1.0625,-3.14063 0,-2.09375 1.07813,-3.25 1.07812,-1.15625 2.79687,-1.15625 1.65625,0 2.70313,1.14063 1.0625,1.125 1.0625,3.17187 0,0.125 0,0.375 h -6.1875 q 0.0781,1.375 0.76562,2.10938 0.70313,0.71875 1.73438,0.71875 0.78125,0 1.32812,-0.40625 0.54688,-0.40625 0.85938,-1.29688 z m -4.60938,-2.28125 h 4.625 q -0.0937,-1.04687 -0.53125,-1.5625 -0.67187,-0.8125 -1.73437,-0.8125 -0.96875,0 -1.64063,0.65625 -0.65625,0.64063 -0.71875,1.71875 z m 13.242193,3.92188 q -0.78125,0.67187 -1.5,0.95312 -0.71875,0.26563 -1.54688,0.26563 -1.375,0 -2.109373,-0.67188 -0.73438,-0.67187 -0.73438,-1.70312 0,-0.60938 0.28125,-1.10938 0.28125,-0.51562 0.71875,-0.8125 0.453133,-0.3125 1.015633,-0.46875 0.42187,-0.10937 1.25,-0.20312 1.70312,-0.20313 2.51562,-0.48438 0,-0.29687 0,-0.375 0,-0.85937 -0.39062,-1.20312 -0.54688,-0.48438 -1.60938,-0.48438 -0.98437,0 -1.46875,0.35938 -0.46875,0.34375 -0.6875,1.21875 l -1.375003,-0.1875 q 0.1875,-0.875 0.60938,-1.42188 0.437503,-0.54687 1.250003,-0.82812 0.8125,-0.29688 1.875,-0.29688 1.0625,0 1.71875,0.25 0.67187,0.25 0.98437,0.625 0.3125,0.375 0.4375,0.95313 0.0781,0.35937 0.0781,1.29687 v 1.875 q 0,1.96875 0.0781,2.48438 0.0937,0.51562 0.35938,1 h -1.46875 q -0.21875,-0.4375 -0.28125,-1.03125 z m -0.10938,-3.14063 q -0.76562,0.3125 -2.29687,0.53125 -0.875,0.125 -1.23438,0.28125 -0.35937,0.15625 -0.5625,0.46875 -0.1875,0.29688 -0.1875,0.65625 0,0.5625 0.42188,0.9375 0.4375,0.375 1.25,0.375 0.8125,0 1.4375,-0.34375 0.64062,-0.35937 0.9375,-0.98437 0.23437,-0.46875 0.23437,-1.40625 z m 8.97657,4.17188 v -1.04688 q -0.78125,1.23438 -2.3125,1.23438 -1,0 -1.82813,-0.54688 -0.82812,-0.54687 -1.29687,-1.53125 -0.45313,-0.98437 -0.45313,-2.25 0,-1.25 0.40625,-2.25 0.42188,-1.01562 1.25,-1.54687 0.82813,-0.54688 1.85938,-0.54688 0.75,0 1.32812,0.3125 0.59375,0.3125 0.95313,0.82813 v -4.10938 h 1.40625 v 11.45313 z m -4.4375,-4.14063 q 0,1.59375 0.67187,2.39063 0.67188,0.78125 1.57813,0.78125 0.92187,0 1.5625,-0.75 0.65625,-0.76563 0.65625,-2.3125 0,-1.70313 -0.65625,-2.5 -0.65625,-0.79688 -1.625,-0.79688 -0.9375,0 -1.5625,0.76563 -0.625,0.76562 -0.625,2.42187 z m 13.63281,1.46875 1.45312,0.17188 q -0.34375,1.28125 -1.28125,1.98437 -0.92187,0.70313 -2.35937,0.70313 -1.82813,0 -2.89063,-1.125 -1.0625,-1.125 -1.0625,-3.14063 0,-2.09375 1.07813,-3.25 1.07812,-1.15625 2.79687,-1.15625 1.65625,0 2.70313,1.14063 1.0625,1.125 1.0625,3.17187 0,0.125 0,0.375 h -6.1875 q 0.0781,1.375 0.76562,2.10938 0.70313,0.71875 1.73438,0.71875 0.78125,0 1.32812,-0.40625 0.54688,-0.40625 0.85938,-1.29688 z m -4.60938,-2.28125 h 4.625 q -0.0937,-1.04687 -0.53125,-1.5625 -0.67187,-0.8125 -1.73437,-0.8125 -0.96875,0 -1.64063,0.65625 -0.65625,0.64063 -0.71875,1.71875 z m 13.21094,4.95313 v -1.04688 q -0.78125,1.23438 -2.3125,1.23438 -1,0 -1.82812,-0.54688 -0.82813,-0.54687 -1.29688,-1.53125 -0.45312,-0.98437 -0.45312,-2.25 0,-1.25 0.40625,-2.25 0.42187,-1.01562 1.25,-1.54687 0.82812,-0.54688 1.85937,-0.54688 0.75,0 1.32813,0.3125 0.59375,0.3125 0.95312,0.82813 v -4.10938 h 1.40625 v 11.45313 z m -4.4375,-4.14063 q 0,1.59375 0.67188,2.39063 0.67187,0.78125 1.57812,0.78125 0.92188,0 1.5625,-0.75 0.65625,-0.76563 0.65625,-2.3125 0,-1.70313 -0.65625,-2.5 -0.65625,-0.79688 -1.625,-0.79688 -0.9375,0 -1.5625,0.76563 -0.625,0.76562 -0.625,2.42187 z m 12.375,4.14063 v -11.45313 h 1.40625 v 11.45313 z m 8.99219,-1.03125 q -0.78125,0.67187 -1.5,0.95312 -0.71875,0.26563 -1.54688,0.26563 -1.375,0 -2.10937,-0.67188 -0.73438,-0.67187 -0.73438,-1.70312 0,-0.60938 0.28125,-1.10938 0.28125,-0.51562 0.71875,-0.8125 0.45313,-0.3125 1.01563,-0.46875 0.42187,-0.10937 1.25,-0.20312 1.70312,-0.20313 2.51562,-0.48438 0,-0.29687 0,-0.375 0,-0.85937 -0.39062,-1.20312 -0.54688,-0.48438 -1.60938,-0.48438 -0.98437,0 -1.46875,0.35938 -0.46875,0.34375 -0.6875,1.21875 l -1.375,-0.1875 q 0.1875,-0.875 0.60938,-1.42188 0.4375,-0.54687 1.25,-0.82812 0.8125,-0.29688 1.875,-0.29688 1.0625,0 1.71875,0.25 0.67187,0.25 0.98437,0.625 0.3125,0.375 0.4375,0.95313 0.0781,0.35937 0.0781,1.29687 v 1.875 q 0,1.96875 0.0781,2.48438 0.0937,0.51562 0.35938,1 h -1.46875 q -0.21875,-0.4375 -0.28125,-1.03125 z m -0.10938,-3.14063 q -0.76562,0.3125 -2.29687,0.53125 -0.875,0.125 -1.23438,0.28125 -0.35937,0.15625 -0.5625,0.46875 -0.1875,0.29688 -0.1875,0.65625 0,0.5625 0.42188,0.9375 0.4375,0.375 1.25,0.375 0.8125,0 1.4375,-0.34375 0.64062,-0.35937 0.9375,-0.98437 0.23437,-0.46875 0.23437,-1.40625 z m 3.53907,7.375 -0.15625,-1.32812 q 0.45312,0.125 0.79687,0.125 0.46875,0 0.75,-0.15625 0.28125,-0.15625 0.46875,-0.4375 0.125,-0.20313 0.42188,-1.04688 0.0469,-0.10937 0.125,-0.34375 l -3.14063,-8.3125 h 1.51563 l 1.71875,4.79688 q 0.34375,0.92187 0.60937,1.92187 0.23438,-0.96875 0.57813,-1.89062 l 1.76562,-4.82813 h 1.40625 l -3.15625,8.4375 q -0.5,1.375 -0.78125,1.89063 -0.375,0.6875 -0.85937,1.01562 -0.48438,0.32813 -1.15625,0.32813 -0.40625,0 -0.90625,-0.17188 z m 13.73437,-5.875 1.45313,0.17188 q -0.34375,1.28125 -1.28125,1.98437 -0.92188,0.70313 -2.35938,0.70313 -1.82812,0 -2.89062,-1.125 -1.0625,-1.125 -1.0625,-3.14063 0,-2.09375 1.07812,-3.25 1.07813,-1.15625 2.79688,-1.15625 1.65625,0 2.70312,1.14063 1.0625,1.125 1.0625,3.17187 0,0.125 0,0.375 h -6.1875 q 0.0781,1.375 0.76563,2.10938 0.70312,0.71875 1.73437,0.71875 0.78125,0 1.32813,-0.40625 0.54687,-0.40625 0.85937,-1.29688 z m -4.60937,-2.28125 h 4.625 q -0.0937,-1.04687 -0.53125,-1.5625 -0.67188,-0.8125 -1.73438,-0.8125 -0.96875,0 -1.64062,0.65625 -0.65625,0.64063 -0.71875,1.71875 z m 7.82031,4.95313 v -8.29688 h 1.26562 v 1.25 q 0.48438,-0.875 0.89063,-1.15625 0.40625,-0.28125 0.90625,-0.28125 0.70312,0 1.4375,0.45313 l -0.48438,1.29687 q -0.51562,-0.29687 -1.03125,-0.29687 -0.45312,0 -0.82812,0.28125 -0.35938,0.26562 -0.51563,0.76562 -0.23437,0.75 -0.23437,1.64063 v 4.34375 z"
     fill-rule="nonzero"
     id="path61" />
  <path
     fill="#000000"
     fill-opacity="0"
     d="m 432.30851,199.48425 v 0 c 0,2.73988 -1.08841,5.36754 -3.02579,7.30492 -1.93741,1.93737 -4.56506,3.02578 -7.30493,3.02578 h -194.8504 c -5.70547,0 -10.33069,4.62523 -10.33069,10.33072 v 0 c 0,-5.70549 -4.62521,-10.33072 -10.33072,-10.33072 H 11.615591 c -5.705494,0 -10.330711,-4.62521 -10.330711,-10.3307 z"
     fill-rule="evenodd"
     id="path63" />
  <path
     fill="#000000"
     fill-opacity="0"
     d="m 432.30851,199.48425 v 0 c 0,2.73988 -1.08841,5.36754 -3.02579,7.30492 -1.93741,1.93737 -4.56506,3.02578 -7.30493,3.02578 h -194.8504 c -5.70547,0 -10.33069,4.62523 -10.33069,10.33072 v 0 c 0,-5.70549 -4.62521,-10.33072 -10.33072,-10.33072 H 11.615591 c -5.705494,0 -10.330711,-4.62521 -10.330711,-10.3307"
     fill-rule="evenodd"
     id="path65" />
  <path
     stroke="#000000"
     stroke-width="1"
     stroke-linejoin="round"
     stroke-linecap="butt"
     d="m 432.30851,199.48425 v 0 c 0,2.73988 -1.08841,5.36754 -3.02579,7.30492 -1.93741,1.93737 -4.56506,3.02578 -7.30493,3.02578 h -194.8504 c -5.70547,0 -10.33069,4.62523 -10.33069,10.33072 v 0 c 0,-5.70549 -4.62521,-10.33072 -10.33072,-10.33072 H 11.615591 c -5.705494,0 -10.330711,-4.62521 -10.330711,-10.3307"
     fill-rule="evenodd"
     id="path67" />
  <path
     fill="#000000"
     fill-opacity="0"
     d="M 1.208663,220.14569 H 432.38979 v 38.77164 H 1.208663 Z"
     fill-rule="evenodd"
     id="path69" />
  <path
     fill="#000000"
     d="m 153.52186,244.50566 v -11.45313 h 2.28125 l 2.71875,8.10938 q 0.375,1.125 0.54687,1.6875 0.1875,-0.625 0.60938,-1.82813 l 2.73437,-7.96875 h 2.04688 v 11.45313 h -1.46875 v -9.59375 l -3.32813,9.59375 h -1.35937 l -3.3125,-9.75 v 9.75 z m 18.64062,0 v -1.21875 q -0.96875,1.40625 -2.64062,1.40625 -0.73438,0 -1.375,-0.28125 -0.625,-0.28125 -0.9375,-0.70313 -0.3125,-0.4375 -0.4375,-1.04687 -0.0781,-0.42188 -0.0781,-1.3125 v -5.14063 h 1.40625 v 4.59375 q 0,1.10938 0.0781,1.48438 0.14062,0.5625 0.5625,0.875 0.4375,0.3125 1.0625,0.3125 0.64062,0 1.1875,-0.3125 0.5625,-0.32813 0.78125,-0.89063 0.23437,-0.5625 0.23437,-1.625 v -4.4375 h 1.40625 v 8.29688 z m 3.42969,0 v -11.45313 h 1.40625 v 11.45313 z m 6.64844,-1.26563 0.20312,1.25 q -0.59375,0.125 -1.0625,0.125 -0.76562,0 -1.1875,-0.23437 -0.42187,-0.25 -0.59375,-0.64063 -0.17187,-0.40625 -0.17187,-1.67187 v -4.76563 h -1.03125 v -1.09375 h 1.03125 v -2.0625 l 1.40625,-0.84375 v 2.90625 h 1.40625 v 1.09375 h -1.40625 v 4.84375 q 0,0.60938 0.0625,0.78125 0.0781,0.17188 0.25,0.28125 0.17187,0.0937 0.48437,0.0937 0.23438,0 0.60938,-0.0625 z m 1.38281,-8.57812 v -1.60938 h 1.40625 v 1.60938 z m 0,9.84375 v -8.29688 h 1.40625 v 8.29688 z m 3.55469,3.1875 v -11.48438 h 1.28125 v 1.07813 q 0.45312,-0.64063 1.01562,-0.95313 0.57813,-0.3125 1.39063,-0.3125 1.0625,0 1.875,0.54688 0.8125,0.54687 1.21875,1.54687 0.42187,0.98438 0.42187,2.17188 0,1.28125 -0.46875,2.29687 -0.45312,1.01563 -1.32812,1.5625 -0.85938,0.54688 -1.82813,0.54688 -0.70312,0 -1.26562,-0.29688 -0.54688,-0.29687 -0.90625,-0.75 v 4.04688 z m 1.26562,-7.29688 q 0,1.60938 0.64063,2.375 0.65625,0.76563 1.57812,0.76563 0.9375,0 1.60938,-0.79688 0.67187,-0.79687 0.67187,-2.45312 0,-1.59375 -0.65625,-2.375 -0.65625,-0.79688 -1.5625,-0.79688 -0.89062,0 -1.59375,0.84375 -0.6875,0.84375 -0.6875,2.4375 z m 7.61719,4.10938 v -8.29688 h 1.26563 v 1.25 q 0.48437,-0.875 0.89062,-1.15625 0.40625,-0.28125 0.90625,-0.28125 0.70313,0 1.4375,0.45313 l -0.48437,1.29687 q -0.51563,-0.29687 -1.03125,-0.29687 -0.45313,0 -0.82813,0.28125 -0.35937,0.26562 -0.51562,0.76562 -0.23438,0.75 -0.23438,1.64063 v 4.34375 z m 4.8125,-4.15625 q 0,-2.29688 1.28125,-3.40625 1.07813,-0.92188 2.60938,-0.92188 1.71875,0 2.79687,1.125 1.09375,1.10938 1.09375,3.09375 0,1.59375 -0.48437,2.51563 -0.48438,0.92187 -1.40625,1.4375 -0.90625,0.5 -2,0.5 -1.73438,0 -2.8125,-1.10938 -1.07813,-1.125 -1.07813,-3.23437 z m 1.45313,0 q 0,1.59375 0.6875,2.39062 0.70312,0.79688 1.75,0.79688 1.04687,0 1.73437,-0.79688 0.70313,-0.79687 0.70313,-2.4375 0,-1.53125 -0.70313,-2.32812 -0.6875,-0.79688 -1.73437,-0.79688 -1.04688,0 -1.75,0.79688 -0.6875,0.78125 -0.6875,2.375 z m 13.38281,1.10937 1.39063,0.1875 q -0.23438,1.42188 -1.17188,2.23438 -0.92187,0.8125 -2.28125,0.8125 -1.70312,0 -2.75,-1.10938 -1.03125,-1.125 -1.03125,-3.20312 0,-1.34375 0.4375,-2.34375 0.45313,-1.01563 1.35938,-1.51563 0.92187,-0.5 1.98437,-0.5 1.35938,0 2.21875,0.6875 0.85938,0.67188 1.09375,1.9375 l -1.35937,0.20313 q -0.20313,-0.82813 -0.70313,-1.25 -0.48437,-0.42188 -1.1875,-0.42188 -1.0625,0 -1.73437,0.76563 -0.65625,0.75 -0.65625,2.40625 0,1.67187 0.64062,2.4375 0.64063,0.75 1.67188,0.75 0.82812,0 1.375,-0.5 0.5625,-0.51563 0.70312,-1.57813 z m 8.26563,0.375 1.45312,0.17188 q -0.34375,1.28125 -1.28125,1.98437 -0.92187,0.70313 -2.35937,0.70313 -1.82813,0 -2.89063,-1.125 -1.0625,-1.125 -1.0625,-3.14063 0,-2.09375 1.07813,-3.25 1.07812,-1.15625 2.79687,-1.15625 1.65625,0 2.70313,1.14063 1.0625,1.125 1.0625,3.17187 0,0.125 0,0.375 h -6.1875 q 0.0781,1.375 0.76562,2.10938 0.70313,0.71875 1.73438,0.71875 0.78125,0 1.32812,-0.40625 0.54688,-0.40625 0.85938,-1.29688 z m -4.60938,-2.28125 h 4.625 q -0.0937,-1.04687 -0.53125,-1.5625 -0.67187,-0.8125 -1.73437,-0.8125 -0.96875,0 -1.64063,0.65625 -0.65625,0.64063 -0.71875,1.71875 z m 7.27344,2.46875 1.39062,-0.21875 q 0.10938,0.84375 0.64063,1.29688 0.54687,0.4375 1.5,0.4375 0.96875,0 1.4375,-0.39063 0.46875,-0.40625 0.46875,-0.9375 0,-0.46875 -0.40625,-0.75 -0.29688,-0.1875 -1.4375,-0.46875 -1.54688,-0.39062 -2.15625,-0.67187 -0.59375,-0.29688 -0.90625,-0.79688 -0.29688,-0.5 -0.29688,-1.10937 0,-0.5625 0.25,-1.03125 0.25,-0.46875 0.6875,-0.78125 0.32813,-0.25 0.89063,-0.40625 0.57812,-0.17188 1.21875,-0.17188 0.98437,0 1.71875,0.28125 0.73437,0.28125 1.07812,0.76563 0.35938,0.46875 0.5,1.28125 l -1.375,0.1875 q -0.0937,-0.64063 -0.54687,-1 -0.45313,-0.35938 -1.26563,-0.35938 -0.96875,0 -1.39062,0.32813 -0.40625,0.3125 -0.40625,0.73437 0,0.28125 0.17187,0.5 0.17188,0.21875 0.53125,0.375 0.21875,0.0781 1.25,0.35938 1.48438,0.39062 2.07813,0.65625 0.59375,0.25 0.92187,0.73437 0.34375,0.48438 0.34375,1.20313 0,0.70312 -0.42187,1.32812 -0.40625,0.60938 -1.1875,0.95313 -0.76563,0.34375 -1.73438,0.34375 -1.625,0 -2.46875,-0.67188 -0.84375,-0.67187 -1.07812,-2 z m 8,0 1.39062,-0.21875 q 0.10938,0.84375 0.64063,1.29688 0.54687,0.4375 1.5,0.4375 0.96875,0 1.4375,-0.39063 0.46875,-0.40625 0.46875,-0.9375 0,-0.46875 -0.40625,-0.75 -0.29688,-0.1875 -1.4375,-0.46875 -1.54688,-0.39062 -2.15625,-0.67187 -0.59375,-0.29688 -0.90625,-0.79688 -0.29688,-0.5 -0.29688,-1.10937 0,-0.5625 0.25,-1.03125 0.25,-0.46875 0.6875,-0.78125 0.32813,-0.25 0.89063,-0.40625 0.57812,-0.17188 1.21875,-0.17188 0.98437,0 1.71875,0.28125 0.73437,0.28125 1.07812,0.76563 0.35938,0.46875 0.5,1.28125 l -1.375,0.1875 q -0.0937,-0.64063 -0.54687,-1 -0.45313,-0.35938 -1.26563,-0.35938 -0.96875,0 -1.39062,0.32813 -0.40625,0.3125 -0.40625,0.73437 0,0.28125 0.17187,0.5 0.17188,0.21875 0.53125,0.375 0.21875,0.0781 1.25,0.35938 1.48438,0.39062 2.07813,0.65625 0.59375,0.25 0.92187,0.73437 0.34375,0.48438 0.34375,1.20313 0,0.70312 -0.42187,1.32812 -0.40625,0.60938 -1.1875,0.95313 -0.76563,0.34375 -1.73438,0.34375 -1.625,0 -2.46875,-0.67188 -0.84375,-0.67187 -1.07812,-2 z m 12.97656,2.48438 v -11.45313 h 1.40625 v 11.45313 z m 8.99219,-1.03125 q -0.78125,0.67187 -1.5,0.95312 -0.71875,0.26563 -1.54688,0.26563 -1.375,0 -2.10937,-0.67188 -0.73438,-0.67187 -0.73438,-1.70312 0,-0.60938 0.28125,-1.10938 0.28125,-0.51562 0.71875,-0.8125 0.45313,-0.3125 1.01563,-0.46875 0.42187,-0.10937 1.25,-0.20312 1.70312,-0.20313 2.51562,-0.48438 0,-0.29687 0,-0.375 0,-0.85937 -0.39062,-1.20312 -0.54688,-0.48438 -1.60938,-0.48438 -0.98437,0 -1.46875,0.35938 -0.46875,0.34375 -0.6875,1.21875 l -1.375,-0.1875 q 0.1875,-0.875 0.60938,-1.42188 0.4375,-0.54687 1.25,-0.82812 0.8125,-0.29688 1.875,-0.29688 1.0625,0 1.71875,0.25 0.67187,0.25 0.98437,0.625 0.3125,0.375 0.4375,0.95313 0.0781,0.35937 0.0781,1.29687 v 1.875 q 0,1.96875 0.0781,2.48438 0.0937,0.51562 0.35938,1 H 256.889 q -0.21875,-0.4375 -0.28125,-1.03125 z m -0.10938,-3.14063 q -0.76562,0.3125 -2.29687,0.53125 -0.875,0.125 -1.23438,0.28125 -0.35937,0.15625 -0.5625,0.46875 -0.1875,0.29688 -0.1875,0.65625 0,0.5625 0.42188,0.9375 0.4375,0.375 1.25,0.375 0.8125,0 1.4375,-0.34375 0.64062,-0.35937 0.9375,-0.98437 0.23437,-0.46875 0.23437,-1.40625 z m 3.53907,7.375 -0.15625,-1.32812 q 0.45312,0.125 0.79687,0.125 0.46875,0 0.75,-0.15625 0.28125,-0.15625 0.46875,-0.4375 0.125,-0.20313 0.42188,-1.04688 0.0469,-0.10937 0.125,-0.34375 l -3.14063,-8.3125 h 1.51563 l 1.71875,4.79688 q 0.34375,0.92187 0.60937,1.92187 0.23438,-0.96875 0.57813,-1.89062 l 1.76562,-4.82813 h 1.40625 l -3.15625,8.4375 q -0.5,1.375 -0.78125,1.89063 -0.375,0.6875 -0.85937,1.01562 -0.48438,0.32813 -1.15625,0.32813 -0.40625,0 -0.90625,-0.17188 z m 13.73437,-5.875 1.45313,0.17188 q -0.34375,1.28125 -1.28125,1.98437 -0.92188,0.70313 -2.35938,0.70313 -1.82812,0 -2.89062,-1.125 -1.0625,-1.125 -1.0625,-3.14063 0,-2.09375 1.07812,-3.25 1.07813,-1.15625 2.79688,-1.15625 1.65625,0 2.70312,1.14063 1.0625,1.125 1.0625,3.17187 0,0.125 0,0.375 h -6.1875 q 0.0781,1.375 0.76563,2.10938 0.70312,0.71875 1.73437,0.71875 0.78125,0 1.32813,-0.40625 0.54687,-0.40625 0.85937,-1.29688 z m -4.60937,-2.28125 h 4.625 q -0.0937,-1.04687 -0.53125,-1.5625 -0.67188,-0.8125 -1.73438,-0.8125 -0.96875,0 -1.64062,0.65625 -0.65625,0.64063 -0.71875,1.71875 z m 7.82031,4.95313 v -8.29688 h 1.26562 v 1.25 q 0.48438,-0.875 0.89063,-1.15625 0.40625,-0.28125 0.90625,-0.28125 0.70312,0 1.4375,0.45313 l -0.48438,1.29687 q -0.51562,-0.29687 -1.03125,-0.29687 -0.45312,0 -0.82812,0.28125 -0.35938,0.26562 -0.51563,0.76562 -0.23437,0.75 -0.23437,1.64063 v 4.34375 z"
     fill-rule="nonzero"
     id="path71" />
</svg>
