<?xml version="1.0" encoding="UTF-8" standalone="no"?>
<svg
   xmlns:serif="http://www.serif.com/"
   xmlns:dc="http://purl.org/dc/elements/1.1/"
   xmlns:cc="http://creativecommons.org/ns#"
   xmlns:rdf="http://www.w3.org/1999/02/22-rdf-syntax-ns#"
   xmlns:svg="http://www.w3.org/2000/svg"
   xmlns="http://www.w3.org/2000/svg"
   xmlns:sodipodi="http://sodipodi.sourceforge.net/DTD/sodipodi-0.dtd"
   xmlns:inkscape="http://www.inkscape.org/namespaces/inkscape"
   sodipodi:docname="training_turtle.svg"
   inkscape:version="1.0 (4035a4fb49, 2020-05-01)"
   id="svg2234"
   version="1.1"
   viewBox="0 0 164.76782 102.26474"
   height="102.26474mm"
   width="164.76782mm">
  <defs
     id="defs2228" />
  <sodipodi:namedview
     inkscape:window-maximized="1"
     inkscape:window-y="19"
     inkscape:window-x="0"
     inkscape:window-height="1059"
     inkscape:window-width="1918"
     showgrid="false"
     inkscape:document-rotation="0"
     inkscape:current-layer="g2428"
     inkscape:document-units="mm"
     inkscape:cy="235.64261"
     inkscape:cx="382.32389"
     inkscape:zoom="1.4"
     inkscape:pageshadow="2"
     inkscape:pageopacity="0.0"
     borderopacity="1.0"
     bordercolor="#666666"
     pagecolor="#ffffff"
     id="base" />
  <metadata
     id="metadata2231">
    <rdf:RDF>
      <cc:Work
         rdf:about="">
        <dc:format>image/svg+xml</dc:format>
        <dc:type
           rdf:resource="http://purl.org/dc/dcmitype/StillImage" />
        <dc:title></dc:title>
      </cc:Work>
    </rdf:RDF>
  </metadata>
  <g
     transform="translate(-4.7749567,-18.959066)"
     id="layer1"
     inkscape:groupmode="layer"
     inkscape:label="Layer 1">
    <g
       id="g2428">
      <ellipse
         ry="25.751425"
         rx="20.321522"
         id="path1292"
         cx="58.429565"
         cy="54.715462"
         style="clip-rule:evenodd;fill:#d7e3f4;fill-rule:evenodd;stroke-width:0.148956;stroke-linejoin:round" />
      <ellipse
         ry="16.858862"
         rx="13.304029"
         id="path1294"
         cx="28.605164"
         cy="64.348656"
         style="clip-rule:evenodd;fill:#d7e3f4;fill-rule:evenodd;stroke-width:0.148956;stroke-linejoin:round" />
      <ellipse
         ry="23.157751"
         rx="18.274746"
         id="path1296"
         cx="38.572769"
         cy="83.244484"
         style="clip-rule:evenodd;fill:#d7e3f4;fill-rule:evenodd;stroke-width:0.148956;stroke-linejoin:round" />
      <ellipse
         ry="24.45459"
         rx="19.298134"
         id="path1298"
         cx="65.885574"
         cy="84.542328"
         style="clip-rule:evenodd;fill:#d7e3f4;fill-rule:evenodd;stroke-width:0.148956;stroke-linejoin:round" />
      <ellipse
         ry="17.089758"
         rx="13.486238"
         id="path12981"
         serif:id="path1298"
         cx="151.26086"
         cy="87.830536"
         style="clip-rule:evenodd;fill:#d7e3f4;fill-rule:evenodd;stroke-width:0.148956;stroke-linejoin:round" />
      <ellipse
         ry="17.089758"
         rx="13.486238"
         id="path12982"
         serif:id="path1298"
         cx="151.26086"
         cy="87.830536"
         style="clip-rule:evenodd;fill:#d7e3f4;fill-rule:evenodd;stroke-width:0.148956;stroke-linejoin:round" />
      <ellipse
         ry="29.456644"
         rx="23.245464"
         id="path1300"
         cx="94.686562"
         cy="48.41571"
         style="clip-rule:evenodd;fill:#d7e3f4;fill-rule:evenodd;stroke-width:0.148956;stroke-linejoin:round" />
      <ellipse
         ry="23.34304"
         rx="18.420965"
         id="path1302"
         cx="115.88528"
         cy="54.158745"
         style="clip-rule:evenodd;fill:#d7e3f4;fill-rule:evenodd;stroke-width:0.148956;stroke-linejoin:round" />
      <ellipse
         ry="21.119774"
         rx="16.666492"
         id="path1304"
         cx="136.64581"
         cy="63.421371"
         style="clip-rule:evenodd;fill:#d7e3f4;fill-rule:evenodd;stroke-width:0.148956;stroke-linejoin:round" />
      <ellipse
         ry="26.677691"
         rx="21.052473"
         id="path1310"
         cx="94.248024"
         cy="94.546112"
         style="clip-rule:evenodd;fill:#d7e3f4;fill-rule:evenodd;stroke-width:0.148956;stroke-linejoin:round" />
      <ellipse
         ry="29.03577"
         rx="22.913334"
         id="path1312"
         cx="124.55068"
         cy="86.896545"
         style="clip-rule:evenodd;fill:#d7e3f4;fill-rule:evenodd;stroke-width:0.148956;stroke-linejoin:round" />
      <ellipse
         ry="11.486234"
         rx="9.0642653"
         id="path1348"
         cx="19.394676"
         cy="86.395195"
         style="clip-rule:evenodd;fill:#d7e3f4;fill-rule:evenodd;stroke-width:0.148956;stroke-linejoin:round" />
      <ellipse
         ry="11.486234"
         rx="9.0642653"
         id="path13481"
         serif:id="path1348"
         cx="156.5287"
         cy="69.347191"
         style="clip-rule:evenodd;fill:#d7e3f4;fill-rule:evenodd;stroke-width:0.148956;stroke-linejoin:round" />
      <ellipse
         ry="6.0701761"
         rx="4.7902288"
         id="path13482"
         serif:id="path1348"
         cx="164.75255"
         cy="80.826546"
         style="clip-rule:evenodd;fill:#d7e3f4;fill-rule:evenodd;stroke-width:0.148956;stroke-linejoin:round" />
      <ellipse
         ry="10.907571"
         rx="8.6076183"
         id="path1350"
         cx="13.382575"
         cy="76.922951"
         style="clip-rule:evenodd;fill:#d7e3f4;fill-rule:evenodd;stroke-width:0.148956;stroke-linejoin:round" />
    </g>
    <g
       transform="translate(16.737841,-6.048265)"
       id="g2695">
      <g
         transform="translate(-14.305173,-4.4727164)"
         id="g2749">
        <g
           transform="matrix(1.0501847,0,0,1.0501847,142.17097,-21.817482)"
           id="g3077">
          <path
             id="path1124-1"
             d="m -25.036396,95.693946 -12.943433,9.061774"
             style="clip-rule:evenodd;fill:none;fill-rule:nonzero;stroke:#2c5aa0;stroke-width:2.29148px;stroke-linecap:round;stroke-linejoin:miter" />
          <path
             id="rect1112"
             style="clip-rule:evenodd;fill:#ffffff;fill-rule:evenodd;stroke:#2c5aa0;stroke-width:2.29148px;stroke-linecap:round;stroke-linejoin:round"
             d="m -87.854836,116.24114 h 60.527962 v 5.04403 h -60.527962 z" />
          <path
             id="path986"
             d="m -41.713994,91.440042 3.22225,0.01076"
             style="clip-rule:evenodd;fill:none;fill-rule:nonzero;stroke:#2c5aa0;stroke-width:2.29148px;stroke-linejoin:miter" />
          <path
             d="m -64.224418,66.675748 c 0.989607,0.04643 2.907879,2.054239 2.907879,2.054239 0,0 -2.086527,1.578604 -3.076134,1.532177 -0.98983,-0.04648 -1.755535,-0.887617 -1.709191,-1.877364 0.04643,-0.989606 0.887617,-1.755536 1.877446,-1.709052 z"
             style="clip-rule:evenodd;fill:#ffffff;fill-rule:evenodd;stroke:#2c5aa0;stroke-width:1.66727px;stroke-linecap:round;stroke-linejoin:round;stroke-miterlimit:1.5"
             id="path788" />
          <path
             d="m -36.738714,62.273744 c -0.548586,0.824998 -3.256964,1.438286 -3.256964,1.438286 0,0 -0.281301,-2.601301 0.267285,-3.426298 0.548586,-0.824998 1.663848,-1.049419 2.488846,-0.500833 0.82516,0.548585 1.049582,1.663848 0.500833,2.488845 z"
             style="clip-rule:evenodd;fill:#ffffff;fill-rule:evenodd;stroke:#2c5aa0;stroke-width:1.66727px;stroke-linecap:round;stroke-linejoin:round;stroke-miterlimit:1.5"
             id="path790" />
          <path
             d="m -45.557709,59.32356 c 0.319275,0.937942 -0.846185,3.458568 -0.846185,3.458568 0,0 -2.233296,-1.363315 -2.552571,-2.301257 -0.319438,-0.937942 0.182862,-1.958677 1.120804,-2.277952 0.937779,-0.319438 1.958514,0.182862 2.277952,1.120641 z"
             style="clip-rule:evenodd;fill:#ffffff;fill-rule:evenodd;stroke:#2c5aa0;stroke-width:1.66727px;stroke-linecap:round;stroke-linejoin:round;stroke-miterlimit:1.5"
             id="path792" />
          <path
             id="path1031"
             d="m -87.103492,97.073919 c -1.347378,-3.86e-4 -2.45711,1.106653 -2.459825,2.454156 -2.39e-4,0.11246 0.0071,0.22493 0.02226,0.336508 -0.04312,0.0048 -0.08601,0.01043 -0.128967,0.01707 -0.515139,-0.955865 -1.51625,-1.554954 -2.602116,-1.557372 -1.214552,-0.0024 -2.313088,0.7421 -2.760747,1.871109 -0.137084,0.34574 -0.207822,0.71427 -0.208757,1.08628 -0.0024,1.21455 0.742099,2.31309 1.871105,2.76075 0.345883,0.13714 0.714414,0.20788 1.086338,0.2086 0.129292,2.4e-4 0.258495,-0.008 0.386614,-0.0248 0.511339,1.02028 1.558204,1.66802 2.699516,1.67033 1.659866,0.003 3.028614,-1.3599 3.032143,-3.01986 7.81e-4,-0.34332 -0.05705,-0.68429 -0.170705,-1.00829 1.0043,-0.33043 1.688189,-1.27302 1.690598,-2.330138 0.0029,-1.348842 -1.10457,-2.461017 -2.453286,-2.464214 -0.0017,-1.35e-4 -0.0028,-4.8e-5 -0.004,-5.08e-4 z"
             style="clip-rule:evenodd;fill:#ffffff;fill-rule:nonzero;stroke:#2c5aa0;stroke-width:2.29148px;stroke-linecap:round;stroke-linejoin:round" />
          <g
             transform="matrix(0.16297858,0,0,0.16297858,-494.86128,48.198891)"
             id="g1085"
             style="clip-rule:evenodd;fill-rule:evenodd;stroke-linejoin:round">
            <path
               id="path913-5"
               d="m 2880.25,181.6 53.052,24.413 -51.255,27.558"
               style="fill:#ffccaa;fill-rule:nonzero;stroke:#2c5aa0;stroke-width:14.06px" />
            <path
               id="path911-4"
               d="m 2879.39,171.553 3.352,119.866"
               style="fill:none;fill-rule:nonzero;stroke:#2c5aa0;stroke-width:14.06px;stroke-linecap:round;stroke-linejoin:miter" />
          </g>
          <path
             id="path1116"
             d="m -27.327875,121.28517 -3.27864,-24.715703"
             style="clip-rule:evenodd;fill:none;fill-rule:nonzero;stroke:#2c5aa0;stroke-width:2.29148px;stroke-linecap:round;stroke-linejoin:round" />
          <path
             id="path1118"
             d="m -27.327875,121.44146 0.807233,3.01283 h -18.145872"
             style="clip-rule:evenodd;fill:none;fill-rule:nonzero;stroke:#2c5aa0;stroke-width:2.29148px;stroke-linecap:round;stroke-linejoin:round" />
          <path
             id="path1120"
             d="m -87.85486,121.28517 -1.82976,3.16912"
             style="clip-rule:evenodd;fill:none;fill-rule:nonzero;stroke:#2c5aa0;stroke-width:2.29148px;stroke-linecap:round;stroke-linejoin:miter" />
          <path
             id="path1124"
             d="m -24.92557,91.912843 -13.048065,8.910197"
             style="clip-rule:evenodd;fill:none;fill-rule:nonzero;stroke:#2c5aa0;stroke-width:2.29148px;stroke-linecap:round;stroke-linejoin:miter" />
          <path
             id="rect1126"
             d="m -21.538875,93.145939 -1.837095,-2.522746 -7.640599,5.563437 1.836932,2.522908 z"
             style="clip-rule:evenodd;fill:#ffffff;fill-rule:evenodd;stroke:#2c5aa0;stroke-width:2.29148px;stroke-linecap:round;stroke-linejoin:round" />
          <path
             id="path838"
             style="clip-rule:evenodd;fill:#ffffff;fill-rule:evenodd;stroke:#2c5aa0;stroke-width:1.57872px;stroke-linecap:round;stroke-linejoin:round;stroke-miterlimit:1.5"
             d="m -51.504655,74.486459 c 0.153607,-0.367189 -0.989329,-4.045638 1.901781,-6.765224 3.135235,-2.949363 8.144822,-2.666232 11.107446,0.553871 1.360757,1.479027 0.993942,5.186853 0.55962,5.58643 l -3.688108,3.393204 -1.093472,9.469272 -11.966637,-2.493627 z" />
          <path
             id="path840"
             style="clip-rule:evenodd;fill:none;fill-rule:evenodd;stroke:#2c5aa0;stroke-width:15.91px;stroke-linecap:round;stroke-linejoin:round;stroke-miterlimit:1.5"
             d="m 1265.87,1845.63 c -62.207,19.194 -128.286,29.53 -196.759,29.53 -68.474,0 -134.552,-10.336 -196.76,-29.53"
             transform="matrix(0.08199062,-0.07543471,0.07543471,0.08199062,-283.0267,27.557821)" />
          <path
             id="path842"
             style="clip-rule:evenodd;fill:#ffffff;fill-rule:evenodd;stroke:#2c5aa0;stroke-width:14.17px;stroke-linecap:round;stroke-linejoin:round;stroke-miterlimit:1.5"
             d="M 1265.87,1845.63 H 872.351 c 0,-108.594 88.165,-196.759 196.76,-196.759 108.594,0 196.759,88.165 196.759,196.759 z"
             transform="matrix(0.08199062,-0.07543471,0.07543471,0.08199062,-283.0267,27.557821)" />
          <path
             id="path844"
             style="clip-rule:evenodd;fill:none;fill-rule:evenodd;stroke:#2c5aa0;stroke-width:14.17px;stroke-linecap:round;stroke-linejoin:round;stroke-miterlimit:1.5"
             d="m 898.704,1747.25 h 340.804"
             transform="matrix(0.08199062,-0.07543471,0.07543471,0.08199062,-283.0267,27.557821)" />
          <path
             id="path846"
             style="clip-rule:evenodd;fill:none;fill-rule:evenodd;stroke:#2c5aa0;stroke-width:14.17px;stroke-linecap:round;stroke-linejoin:round;stroke-miterlimit:1.5"
             d="m 1069.11,1747.25 v 98.379"
             transform="matrix(0.08199062,-0.07543471,0.07543471,0.08199062,-283.0267,27.557821)" />
          <path
             id="path848"
             style="clip-rule:evenodd;fill:none;fill-rule:evenodd;stroke:#2c5aa0;stroke-width:14.17px;stroke-linecap:round;stroke-linejoin:round;stroke-miterlimit:1.5"
             d="m 983.539,1747.25 -20.323,98.379"
             transform="matrix(0.08199062,-0.07543471,0.07543471,0.08199062,-283.0267,27.557821)" />
          <path
             id="path850"
             style="clip-rule:evenodd;fill:none;fill-rule:evenodd;stroke:#2c5aa0;stroke-width:14.17px;stroke-linecap:round;stroke-linejoin:round;stroke-miterlimit:1.5"
             d="m 1155.16,1747.25 20.323,98.379"
             transform="matrix(0.08199062,-0.07543471,0.07543471,0.08199062,-283.0267,27.557821)" />
          <path
             id="path852"
             style="clip-rule:evenodd;fill:none;fill-rule:evenodd;stroke:#2c5aa0;stroke-width:14.17px;stroke-linecap:round;stroke-linejoin:round;stroke-miterlimit:1.5"
             d="m 983.539,1669.49 85.567,15.175 86.051,-15.898"
             transform="matrix(0.08199062,-0.07543471,0.07543471,0.08199062,-283.0267,27.557821)" />
          <path
             id="path854"
             style="clip-rule:evenodd;fill:none;fill-rule:evenodd;stroke:#2c5aa0;stroke-width:14.17px;stroke-linecap:round;stroke-linejoin:round;stroke-miterlimit:1.5"
             d="m 1034.02,1680.42 -11.209,66.827"
             transform="matrix(0.08199062,-0.07543471,0.07543471,0.08199062,-283.0267,27.557821)" />
          <path
             id="path856"
             style="clip-rule:evenodd;fill:none;fill-rule:evenodd;stroke:#2c5aa0;stroke-width:14.17px;stroke-linecap:round;stroke-linejoin:round;stroke-miterlimit:1.5"
             d="m 1101.88,1680.42 11.209,66.827"
             transform="matrix(0.08199062,-0.07543471,0.07543471,0.08199062,-283.0267,27.557821)" />
          <path
             id="path858"
             style="clip-rule:evenodd;fill:none;fill-rule:evenodd;stroke:#2c5aa0;stroke-width:14.17px;stroke-linecap:round;stroke-linejoin:round;stroke-miterlimit:1.5"
             d="m 983.539,1668.77 -44.6,78.476"
             transform="matrix(0.08199062,-0.07543471,0.07543471,0.08199062,-283.0267,27.557821)" />
          <path
             id="path860"
             style="clip-rule:evenodd;fill:none;fill-rule:evenodd;stroke:#2c5aa0;stroke-width:14.17px;stroke-linecap:round;stroke-linejoin:round;stroke-miterlimit:1.5"
             d="m 1155.16,1668.77 44.6,78.476"
             transform="matrix(0.08199062,-0.07543471,0.07543471,0.08199062,-283.0267,27.557821)" />
          <path
             id="path874"
             style="clip-rule:evenodd;fill:#ffffff;fill-rule:evenodd;stroke:#2c5aa0;stroke-width:1.57872px;stroke-linecap:round;stroke-linejoin:round;stroke-miterlimit:1.5"
             d="m -44.347923,88.223549 c 0.9339,1.003377 2.506708,1.06541 3.516915,0.135973 l 3.674009,-3.380226 c 0.103964,-0.09565 0.197987,-0.198181 0.282035,-0.306407 0.898338,2.461151 0.294942,5.330816 -1.752118,7.214193 -2.686359,2.471541 -6.858448,2.324448 -9.365238,-0.310533" />
          <path
             id="path876"
             style="clip-rule:evenodd;fill:#ffffff;fill-rule:evenodd;stroke:#2c5aa0;stroke-width:1.57872px;stroke-linecap:round;stroke-linejoin:round;stroke-miterlimit:1.5"
             d="m -68.003612,109.98774 c 0.922165,1.01417 0.853307,2.58662 -0.156916,3.51607 l -3.673993,3.38023 c -0.104046,0.0957 -0.21404,0.18087 -0.328875,0.25564 2.377939,1.09983 5.287807,0.73716 7.334965,-1.14631 2.686246,-2.47145 2.886546,-6.64134 0.469215,-9.35861" />
          <path
             id="circle878"
             style="clip-rule:evenodd;fill:#2c5aa0;fill-rule:evenodd;stroke-width:0.111413;stroke-linejoin:round"
             transform="rotate(-42.615317)"
             d="m -79.940022,23.316992 a 1.1295052,1.1295052 0 0 1 -1.129505,1.129505 1.1295052,1.1295052 0 0 1 -1.129505,-1.129505 1.1295052,1.1295052 0 0 1 1.129505,-1.129505 1.1295052,1.1295052 0 0 1 1.129505,1.129505" />
          <path
             id="path880"
             style="clip-rule:evenodd;fill:none;fill-rule:evenodd;stroke:#2c5aa0;stroke-width:1.57872px;stroke-linecap:round;stroke-linejoin:round;stroke-miterlimit:1.5"
             d="m -39.644052,71.227171 c 0,0 1.467883,-0.15011 1.669716,-1.455333" />
          <path
             id="path1041"
             d="m -65.093289,111.03546 c 0,0 0,0 0,0 -1.120723,0 -2.042918,1.23952 -2.042918,2.74588 0,0 0,0 0,0 0,1.37468 0.768158,2.54806 1.782596,2.72323 -0.143139,0.36772 -0.217965,0.77651 -0.217965,1.1915 0,1.41001 0.863322,2.57025 1.912476,2.57025 0,0 0,0 0,0 0.714341,-1.4e-4 1.371383,-0.53837 1.699005,-1.39159 0.21201,0.0707 0.429526,0.10632 0.647829,0.10647 0,0 0,0 0,0 1.478343,0 2.694791,-1.63518 2.694791,-3.62222 0,0 0,-1.5e-4 0,-1.5e-4 0,-1.98704 -1.216672,-3.62191 -2.695016,-3.62176 -0.703444,0 -1.379698,0.37013 -1.882928,1.03082 -0.308297,-1.0435 -1.062973,-1.73228 -1.898319,-1.73243 z"
             style="clip-rule:evenodd;fill:#ffffff;fill-rule:nonzero;stroke:#2c5aa0;stroke-width:1.83141px;stroke-linecap:round;stroke-linejoin:round" />
          <path
             id="rect984"
             d="m -38.745681,86.416274 -0.322372,8.197008 3.831138,0.150592 0.322371,-8.196844 z"
             style="clip-rule:evenodd;fill:#ffffff;fill-rule:evenodd;stroke:#2c5aa0;stroke-width:2.29148px;stroke-linejoin:miter" />
          <path
             id="path939-4"
             d="m -36.781789,82.278411 c 0.926859,-0.3491 1.99502,-0.364746 2.984626,0.03586 0.989769,0.400601 1.713394,1.141664 2.083682,2.015882"
             style="clip-rule:evenodd;fill:none;fill-rule:nonzero;stroke:#2c5aa0;stroke-width:2.29148px;stroke-linecap:round;stroke-linejoin:round" />
          <path
             id="path939-5-4"
             d="m -36.846981,78.753999 c 1.360382,-0.512404 2.92791,-0.535384 4.380376,0.05248 1.452465,0.588026 2.514596,1.675582 3.057967,2.95855"
             style="clip-rule:evenodd;fill:none;fill-rule:nonzero;stroke:#2c5aa0;stroke-width:2.29148px;stroke-linecap:round;stroke-linejoin:round" />
        </g>
      </g>
    </g>
  </g>
</svg>
