<?xml version="1.0" encoding="UTF-8" standalone="no"?>
<svg
   xmlns:dc="http://purl.org/dc/elements/1.1/"
   xmlns:cc="http://creativecommons.org/ns#"
   xmlns:rdf="http://www.w3.org/1999/02/22-rdf-syntax-ns#"
   xmlns:svg="http://www.w3.org/2000/svg"
   xmlns="http://www.w3.org/2000/svg"
   xmlns:sodipodi="http://sodipodi.sourceforge.net/DTD/sodipodi-0.dtd"
   xmlns:inkscape="http://www.inkscape.org/namespaces/inkscape"
   inkscape:version="1.0 (4035a4fb49, 2020-05-01)"
   height="268.0105"
   width="631.47638"
   sodipodi:docname="x86_fpu_ftag.svg"
   id="svg177"
   stroke-miterlimit="10"
   stroke-linecap="square"
   stroke="none"
   fill="none"
   viewBox="0 0 631.47638 268.0105"
   version="1.1">
  <metadata
     id="metadata183">
    <rdf:RDF>
      <cc:Work
         rdf:about="">
        <dc:format>image/svg+xml</dc:format>
        <dc:type
           rdf:resource="http://purl.org/dc/dcmitype/StillImage" />
      </cc:Work>
    </rdf:RDF>
  </metadata>
  <defs
     id="defs181" />
  <sodipodi:namedview
     inkscape:current-layer="svg177"
     inkscape:window-maximized="0"
     inkscape:window-y="19"
     inkscape:window-x="3286"
     inkscape:cy="322.86089"
     inkscape:cx="464.43701"
     inkscape:zoom="0.75130208"
     showgrid="false"
     id="namedview179"
     inkscape:window-height="1059"
     inkscape:window-width="1054"
     inkscape:pageshadow="2"
     inkscape:pageopacity="0"
     guidetolerance="10"
     gridtolerance="10"
     objecttolerance="10"
     borderopacity="1"
     bordercolor="#666666"
     pagecolor="#ffffff" />
  <clipPath
     id="p.0">
    <path
       id="path2"
       clip-rule="nonzero"
       d="M 0,0 H 1024 V 768 H 0 Z" />
  </clipPath>
  <path
     fill="#000000"
     fill-opacity="0"
     d="M -47.562992,-61.139107 H 976.43701 V 706.86089 H -47.562992 Z"
     fill-rule="evenodd"
     id="path5" />
  <g
     id="g354">
    <path
       id="path7"
       fill-rule="evenodd"
       d="m 0.5,30.897633 h 53.165358 v 42.96063 H 0.5 Z"
       fill="#cfe2f3" />
    <path
       id="path9"
       fill-rule="evenodd"
       d="m 0.5,30.897633 h 53.165358 v 42.96063 H 0.5 Z"
       stroke-linecap="butt"
       stroke-linejoin="round"
       stroke-width="1"
       stroke="#000000" />
    <path
       id="path11"
       fill-rule="nonzero"
       d="m 14.896561,52.704203 q 0,-2.35937 0.484375,-3.79687 0.484375,-1.45313 1.437496,-2.23438 0.96875,-0.78125 2.421875,-0.78125 1.078125,0 1.890625,0.4375 0.8125,0.42188 1.328125,1.25 0.53125,0.8125 0.828125,1.98438 0.3125,1.15625 0.3125,3.14062 0,2.35938 -0.484375,3.8125 -0.484375,1.4375 -1.453125,2.23438 -0.953125,0.78125 -2.421875,0.78125 -1.921875,0 -3.031246,-1.39063 -1.3125,-1.67187 -1.3125,-5.4375 z m 1.671871,0 q 0,3.29688 0.765625,4.39063 0.78125,1.07812 1.90625,1.07812 1.140625,0 1.90625,-1.09375 0.765625,-1.09375 0.765625,-4.375 0,-3.29687 -0.765625,-4.375 -0.765625,-1.07812 -1.921875,-1.07812 -1.125,0 -1.796875,0.95312 -0.859375,1.21875 -0.859375,4.5 z m 13.887146,0 q 0,-2.35937 0.484375,-3.79687 0.484375,-1.45313 1.4375,-2.23438 0.968758,-0.78125 2.421883,-0.78125 1.078125,0 1.890625,0.4375 0.8125,0.42188 1.328125,1.25 0.53125,0.8125 0.828125,1.98438 0.3125,1.15625 0.3125,3.14062 0,2.35938 -0.484375,3.8125 -0.484375,1.4375 -1.453125,2.23438 -0.953125,0.78125 -2.421875,0.78125 -1.921875,0 -3.031258,-1.39063 -1.3125,-1.67187 -1.3125,-5.4375 z m 1.671875,0 q 0,3.29688 0.765633,4.39063 0.78125,1.07812 1.90625,1.07812 1.140625,0 1.90625,-1.09375 0.765625,-1.09375 0.765625,-4.375 0,-3.29687 -0.765625,-4.375 -0.765625,-1.07812 -1.921875,-1.07812 -1.125,0 -1.796875,0.95312 -0.859383,1.21875 -0.859383,4.5 z"
       fill="#000000" />
    <path
       id="path13"
       fill-rule="evenodd"
       d="m 53.665358,30.897633 h 53.165362 v 42.96063 H 53.665358 Z"
       fill="#cfe2f3" />
    <path
       id="path15"
       fill-rule="evenodd"
       d="m 53.665358,30.897633 h 53.165362 v 42.96063 H 53.665358 Z"
       stroke-linecap="butt"
       stroke-linejoin="round"
       stroke-width="1"
       stroke="#000000" />
    <path
       id="path17"
       fill-rule="nonzero"
       d="m 68.061918,52.704203 q 0,-2.35937 0.48438,-3.79687 0.48437,-1.45313 1.4375,-2.23438 0.96875,-0.78125 2.42187,-0.78125 1.07813,0 1.89063,0.4375 0.8125,0.42188 1.32812,1.25 0.53125,0.8125 0.82813,1.98438 0.3125,1.15625 0.3125,3.14062 0,2.35938 -0.48438,3.8125 -0.48437,1.4375 -1.45312,2.23438 -0.95313,0.78125 -2.42188,0.78125 -1.92187,0 -3.03125,-1.39063 -1.3125,-1.67187 -1.3125,-5.4375 z m 1.67188,0 q 0,3.29688 0.76562,4.39063 0.78125,1.07812 1.90625,1.07812 1.14063,0 1.90625,-1.09375 0.76563,-1.09375 0.76563,-4.375 0,-3.29687 -0.76563,-4.375 -0.76562,-1.07812 -1.92187,-1.07812 -1.125,0 -1.79688,0.95312 -0.85937,1.21875 -0.85937,4.5 z m 20.05902,6.59375 h -1.64063 v -10.45312 q -0.59375,0.5625 -1.5625,1.14062 -0.95312,0.5625 -1.71875,0.84375 v -1.59375 q 1.375,-0.64062 2.40625,-1.5625 1.03125,-0.92187 1.45313,-1.78125 h 1.0625 z"
       fill="#000000" />
    <path
       id="path19"
       fill-rule="evenodd"
       d="m 106.83071,30.897633 h 53.16534 v 42.96063 h -53.16534 z"
       fill="#cfe2f3" />
    <path
       id="path21"
       fill-rule="evenodd"
       d="m 106.83071,30.897633 h 53.16534 v 42.96063 h -53.16534 z"
       stroke-linecap="butt"
       stroke-linejoin="round"
       stroke-width="1"
       stroke="#000000" />
    <path
       id="path23"
       fill-rule="nonzero"
       d="m 127.39914,59.297953 h -1.64063 v -10.45312 q -0.59375,0.5625 -1.5625,1.14062 -0.95312,0.5625 -1.71875,0.84375 v -1.59375 q 1.375,-0.64062 2.40625,-1.5625 1.03125,-0.92187 1.45313,-1.78125 h 1.0625 z m 9.38715,-6.59375 q 0,-2.35937 0.48437,-3.79687 0.48438,-1.45313 1.4375,-2.23438 0.96877,-0.78125 2.42189,-0.78125 1.07813,0 1.89063,0.4375 0.8125,0.42188 1.32812,1.25 0.53125,0.8125 0.82813,1.98438 0.3125,1.15625 0.3125,3.14062 0,2.35938 -0.48438,3.8125 -0.48437,1.4375 -1.45312,2.23438 -0.95313,0.78125 -2.42188,0.78125 -1.92187,0 -3.03126,-1.39063 -1.3125,-1.67187 -1.3125,-5.4375 z m 1.67187,0 q 0,3.29688 0.76564,4.39063 0.78125,1.07812 1.90625,1.07812 1.14063,0 1.90625,-1.09375 0.76563,-1.09375 0.76563,-4.375 0,-3.29687 -0.76563,-4.375 -0.76562,-1.07812 -1.92187,-1.07812 -1.125,0 -1.79688,0.95312 -0.85939,1.21875 -0.85939,4.5 z"
       fill="#000000" />
    <path
       id="path25"
       fill-rule="evenodd"
       d="m 159.99606,30.897633 h 53.16534 v 42.96063 h -53.16534 z"
       fill="#cfe2f3" />
    <path
       id="path27"
       fill-rule="evenodd"
       d="m 159.99606,30.897633 h 53.16534 v 42.96063 h -53.16534 z"
       stroke-linecap="butt"
       stroke-linejoin="round"
       stroke-width="1"
       stroke="#000000" />
    <path
       id="path29"
       fill-rule="nonzero"
       d="m 180.5645,59.297953 h -1.64063 v -10.45312 q -0.59375,0.5625 -1.5625,1.14062 -0.95312,0.5625 -1.71875,0.84375 v -1.59375 q 1.375,-0.64062 2.40625,-1.5625 1.03125,-0.92187 1.45313,-1.78125 h 1.0625 z m 15.55902,0 h -1.64062 v -10.45312 q -0.59375,0.5625 -1.5625,1.14062 -0.95313,0.5625 -1.71875,0.84375 v -1.59375 q 1.375,-0.64062 2.40625,-1.5625 1.03125,-0.92187 1.45312,-1.78125 h 1.0625 z"
       fill="#000000" />
    <path
       id="path31"
       fill-rule="evenodd"
       d="m 213.16141,30.897633 h 53.16537 v 42.96063 h -53.16537 z"
       fill="#cfe2f3" />
    <path
       id="path33"
       fill-rule="evenodd"
       d="m 213.16141,30.897633 h 53.16537 v 42.96063 h -53.16537 z"
       stroke-linecap="butt"
       stroke-linejoin="round"
       stroke-width="1"
       stroke="#000000" />
    <path
       id="path35"
       fill-rule="nonzero"
       d="m 227.55798,52.704203 q 0,-2.35937 0.48437,-3.79687 0.48438,-1.45313 1.4375,-2.23438 0.96875,-0.78125 2.42188,-0.78125 1.07812,0 1.89062,0.4375 0.8125,0.42188 1.32813,1.25 0.53125,0.8125 0.82812,1.98438 0.3125,1.15625 0.3125,3.14062 0,2.35938 -0.48437,3.8125 -0.48438,1.4375 -1.45313,2.23438 -0.95312,0.78125 -2.42187,0.78125 -1.92188,0 -3.03125,-1.39063 -1.3125,-1.67187 -1.3125,-5.4375 z m 1.67187,0 q 0,3.29688 0.76563,4.39063 0.78125,1.07812 1.90625,1.07812 1.14062,0 1.90625,-1.09375 0.76562,-1.09375 0.76562,-4.375 0,-3.29687 -0.76562,-4.375 -0.76563,-1.07812 -1.92188,-1.07812 -1.125,0 -1.79687,0.95312 -0.85938,1.21875 -0.85938,4.5 z m 20.05903,6.59375 h -1.64063 v -10.45312 q -0.59375,0.5625 -1.5625,1.14062 -0.95312,0.5625 -1.71875,0.84375 v -1.59375 q 1.375,-0.64062 2.40625,-1.5625 1.03125,-0.92187 1.45313,-1.78125 h 1.0625 z"
       fill="#000000" />
    <path
       id="path37"
       fill-rule="evenodd"
       d="m 266.32678,30.897633 h 53.16534 v 42.96063 h -53.16534 z"
       fill="#cfe2f3" />
    <path
       id="path39"
       fill-rule="evenodd"
       d="m 266.32678,30.897633 h 53.16534 v 42.96063 h -53.16534 z"
       stroke-linecap="butt"
       stroke-linejoin="round"
       stroke-width="1"
       stroke="#000000" />
    <path
       id="path41"
       fill-rule="nonzero"
       d="m 280.72333,52.704203 q 0,-2.35937 0.48437,-3.79687 0.48438,-1.45313 1.4375,-2.23438 0.96875,-0.78125 2.42188,-0.78125 1.07812,0 1.89062,0.4375 0.8125,0.42188 1.32813,1.25 0.53125,0.8125 0.82812,1.98438 0.3125,1.15625 0.3125,3.14062 0,2.35938 -0.48437,3.8125 -0.48438,1.4375 -1.45313,2.23438 -0.95312,0.78125 -2.42187,0.78125 -1.92188,0 -3.03125,-1.39063 -1.3125,-1.67187 -1.3125,-5.4375 z m 1.67187,0 q 0,3.29688 0.76563,4.39063 0.78125,1.07812 1.90625,1.07812 1.14062,0 1.90625,-1.09375 0.76562,-1.09375 0.76562,-4.375 0,-3.29687 -0.76562,-4.375 -0.76563,-1.07812 -1.92188,-1.07812 -1.125,0 -1.79687,0.95312 -0.85938,1.21875 -0.85938,4.5 z m 13.88715,0 q 0,-2.35937 0.48438,-3.79687 0.48437,-1.45313 1.4375,-2.23438 0.96875,-0.78125 2.42187,-0.78125 1.07813,0 1.89063,0.4375 0.8125,0.42188 1.32812,1.25 0.53125,0.8125 0.82813,1.98438 0.3125,1.15625 0.3125,3.14062 0,2.35938 -0.48438,3.8125 -0.48437,1.4375 -1.45312,2.23438 -0.95313,0.78125 -2.42188,0.78125 -1.92187,0 -3.03125,-1.39063 -1.3125,-1.67187 -1.3125,-5.4375 z m 1.67188,0 q 0,3.29688 0.76562,4.39063 0.78125,1.07812 1.90625,1.07812 1.14063,0 1.90625,-1.09375 0.76563,-1.09375 0.76563,-4.375 0,-3.29687 -0.76563,-4.375 -0.76562,-1.07812 -1.92187,-1.07812 -1.125,0 -1.79688,0.95312 -0.85937,1.21875 -0.85937,4.5 z"
       fill="#000000" />
    <path
       id="path43"
       fill-rule="evenodd"
       d="m 319.49211,30.897633 h 53.16534 v 42.96063 h -53.16534 z"
       fill="#cfe2f3" />
    <path
       id="path45"
       fill-rule="evenodd"
       d="m 319.49211,30.897633 h 53.16534 v 42.96063 h -53.16534 z"
       stroke-linecap="butt"
       stroke-linejoin="round"
       stroke-width="1"
       stroke="#000000" />
    <path
       id="path47"
       fill-rule="nonzero"
       d="m 340.06058,59.297953 h -1.64063 v -10.45312 q -0.59375,0.5625 -1.5625,1.14062 -0.95312,0.5625 -1.71875,0.84375 v -1.59375 q 1.375,-0.64062 2.40625,-1.5625 1.03125,-0.92187 1.45313,-1.78125 h 1.0625 z m 9.38715,-6.59375 q 0,-2.35937 0.48437,-3.79687 0.48438,-1.45313 1.4375,-2.23438 0.96875,-0.78125 2.42188,-0.78125 1.07812,0 1.89062,0.4375 0.8125,0.42188 1.32813,1.25 0.53125,0.8125 0.82812,1.98438 0.3125,1.15625 0.3125,3.14062 0,2.35938 -0.48437,3.8125 -0.48438,1.4375 -1.45313,2.23438 -0.95312,0.78125 -2.42187,0.78125 -1.92188,0 -3.03125,-1.39063 -1.3125,-1.67187 -1.3125,-5.4375 z m 1.67187,0 q 0,3.29688 0.76563,4.39063 0.78125,1.07812 1.90625,1.07812 1.14062,0 1.90625,-1.09375 0.76562,-1.09375 0.76562,-4.375 0,-3.29687 -0.76562,-4.375 -0.76563,-1.07812 -1.92188,-1.07812 -1.125,0 -1.79687,0.95312 -0.85938,1.21875 -0.85938,4.5 z"
       fill="#000000" />
    <path
       id="path49"
       fill-rule="evenodd"
       d="m 372.65747,30.897633 h 53.16537 v 42.96063 h -53.16537 z"
       fill="#cfe2f3" />
    <path
       id="path51"
       fill-rule="evenodd"
       d="m 372.65747,30.897633 h 53.16537 v 42.96063 h -53.16537 z"
       stroke-linecap="butt"
       stroke-linejoin="round"
       stroke-width="1"
       stroke="#000000" />
    <path
       id="path53"
       fill-rule="nonzero"
       d="m 393.22591,59.297953 h -1.64063 v -10.45312 q -0.59375,0.5625 -1.5625,1.14062 -0.95312,0.5625 -1.71875,0.84375 v -1.59375 q 1.375,-0.64062 2.40625,-1.5625 1.03125,-0.92187 1.45313,-1.78125 h 1.0625 z m 15.55902,0 h -1.64062 v -10.45312 q -0.59375,0.5625 -1.5625,1.14062 -0.95313,0.5625 -1.71875,0.84375 v -1.59375 q 1.375,-0.64062 2.40625,-1.5625 1.03125,-0.92187 1.45312,-1.78125 h 1.0625 z"
       fill="#000000" />
    <path
       id="path55"
       fill-rule="evenodd"
       d="m 426.94095,32.942263 h 204.53543 v 40.91338 H 426.94095 Z"
       fill-opacity="0"
       fill="#000000" />
    <path
       id="path57"
       fill-rule="nonzero"
       d="m 437.56595,59.862263 v -8.40625 h -1.45313 v -1.26563 h 1.45313 v -1.03125 q 0,-0.96875 0.17187,-1.45312 0.23438,-0.64063 0.82813,-1.03125 0.59375,-0.39063 1.67187,-0.39063 0.6875,0 1.53125,0.15625 l -0.25,1.4375 q -0.5,-0.0937 -0.95312,-0.0937 -0.75,0 -1.0625,0.32813 -0.3125,0.3125 -0.3125,1.1875 v 0.89062 h 1.89062 v 1.26563 h -1.89062 v 8.40625 z m 8.37082,-1.46875 0.23437,1.45312 q -0.6875,0.14063 -1.23437,0.14063 -0.89063,0 -1.39063,-0.28125 -0.48437,-0.28125 -0.6875,-0.73438 -0.20312,-0.46875 -0.20312,-1.9375 v -5.57812 h -1.20313 v -1.26563 h 1.20313 v -2.39062 l 1.625,-0.98438 v 3.375 h 1.65625 v 1.26563 h -1.65625 v 5.67187 q 0,0.6875 0.0781,0.89063 0.0937,0.20312 0.28125,0.32812 0.20313,0.10938 0.57813,0.10938 0.26562,0 0.71875,-0.0625 z m 7.91766,0.28125 q -0.92187,0.76562 -1.76562,1.09375 -0.82813,0.3125 -1.79688,0.3125 -1.59375,0 -2.45312,-0.78125 -0.85938,-0.78125 -0.85938,-1.98438 0,-0.71875 0.32813,-1.29687 0.32812,-0.59375 0.84375,-0.9375 0.53125,-0.35938 1.1875,-0.54688 0.46875,-0.125 1.45312,-0.25 1.98438,-0.23437 2.92188,-0.5625 0.0156,-0.34375 0.0156,-0.42187 0,-1 -0.46875,-1.42188 -0.625,-0.54687 -1.875,-0.54687 -1.15625,0 -1.70312,0.40625 -0.54688,0.40625 -0.8125,1.42187 l -1.60938,-0.21875 q 0.21875,-1.01562 0.71875,-1.64062 0.5,-0.64063 1.45313,-0.98438 0.95312,-0.34375 2.1875,-0.34375 1.25,0 2.01562,0.29688 0.78125,0.28125 1.14063,0.73437 0.375,0.4375 0.51562,1.10938 0.0781,0.42187 0.0781,1.51562 v 2.1875 q 0,2.28125 0.10937,2.89063 0.10938,0.59375 0.40625,1.15625 h -1.70312 q -0.26563,-0.51563 -0.32813,-1.1875 z m -0.14062,-3.67188 q -0.89063,0.375 -2.67188,0.625 -1.01562,0.14063 -1.4375,0.32813 -0.42187,0.1875 -0.65625,0.53125 -0.21875,0.34375 -0.21875,0.78125 0,0.65625 0.5,1.09375 0.5,0.4375 1.45313,0.4375 0.9375,0 1.67187,-0.40625 0.75,-0.42188 1.09375,-1.14063 0.26563,-0.5625 0.26563,-1.64062 z m 3.89136,5.65625 1.59375,0.23438 q 0.10937,0.75 0.5625,1.07812 0.60937,0.45313 1.67187,0.45313 1.14063,0 1.75,-0.45313 0.625,-0.45312 0.84375,-1.26562 0.125,-0.5 0.10938,-2.10938 -1.0625,1.26563 -2.67188,1.26563 -2,0 -3.09375,-1.4375 -1.09375,-1.4375 -1.09375,-3.45313 0,-1.39062 0.5,-2.5625 0.51563,-1.17187 1.45313,-1.79687 0.95312,-0.64063 2.25,-0.64063 1.70312,0 2.8125,1.375 v -1.15625 h 1.51562 v 8.35938 q 0,2.26562 -0.46875,3.20312 -0.45312,0.9375 -1.45312,1.48438 -0.98438,0.54687 -2.45313,0.54687 -1.71875,0 -2.79687,-0.78125 -1.0625,-0.76562 -1.03125,-2.34375 z m 1.35937,-5.8125 q 0,1.90625 0.75,2.78125 0.76563,0.875 1.90625,0.875 1.125,0 1.89063,-0.85937 0.76562,-0.875 0.76562,-2.73438 0,-1.78125 -0.79687,-2.67187 -0.78125,-0.90625 -1.89063,-0.90625 -1.09375,0 -1.85937,0.89062 -0.76563,0.875 -0.76563,2.625 z m 17.63715,8.9375 q -1.35938,-1.70312 -2.29688,-4 -0.9375,-2.29687 -0.9375,-4.76562 0,-2.15625 0.70313,-4.14063 0.82812,-2.3125 2.53125,-4.59375 h 1.17187 q -1.09375,1.89063 -1.45312,2.70313 -0.54688,1.25 -0.875,2.625 -0.39063,1.70312 -0.39063,3.42187 0,4.375 2.71875,8.75 z m 9.40014,-7.46875 1.60938,0.21875 q -0.26563,1.65625 -1.35938,2.60938 -1.07812,0.9375 -2.67187,0.9375 -1.98438,0 -3.1875,-1.29688 -1.20313,-1.29687 -1.20313,-3.71875 0,-1.57812 0.51563,-2.75 0.51562,-1.17187 1.57812,-1.75 1.0625,-0.59375 2.3125,-0.59375 1.57813,0 2.57813,0.79688 1,0.79687 1.28125,2.26562 l -1.59375,0.23438 q -0.23438,-0.96875 -0.8125,-1.45313 -0.57813,-0.5 -1.39063,-0.5 -1.23437,0 -2.01562,0.89063 -0.78125,0.89062 -0.78125,2.8125 0,1.95312 0.75,2.84375 0.75,0.875 1.95312,0.875 0.96875,0 1.60938,-0.59375 0.65625,-0.59375 0.82812,-1.82813 z m 2.40625,-1.29687 q 0,-2.6875 1.48438,-3.96875 1.25,-1.07813 3.04687,-1.07813 2,0 3.26563,1.3125 1.26562,1.29688 1.26562,3.60938 0,1.85937 -0.5625,2.9375 -0.5625,1.0625 -1.64062,1.65625 -1.0625,0.59375 -2.32813,0.59375 -2.03125,0 -3.28125,-1.29688 -1.25,-1.3125 -1.25,-3.76562 z m 1.6875,0 q 0,1.85937 0.79688,2.79687 0.8125,0.92188 2.04687,0.92188 1.21875,0 2.03125,-0.92188 0.8125,-0.9375 0.8125,-2.84375 0,-1.79687 -0.8125,-2.71875 -0.8125,-0.92187 -2.03125,-0.92187 -1.23437,0 -2.04687,0.92187 -0.79688,0.90625 -0.79688,2.76563 z m 9.29761,4.84375 v -9.67188 h 1.46875 v 1.35938 q 0.45312,-0.71875 1.20312,-1.14063 0.76563,-0.4375 1.71875,-0.4375 1.07813,0 1.76563,0.45313 0.6875,0.4375 0.96875,1.23437 1.15625,-1.6875 2.98437,-1.6875 1.45313,0 2.21875,0.79688 0.78125,0.79687 0.78125,2.45312 v 6.64063 h -1.64062 v -6.09375 q 0,-0.98438 -0.15625,-1.40625 -0.15625,-0.4375 -0.57813,-0.70313 -0.42187,-0.26562 -0.98437,-0.26562 -1.01563,0 -1.6875,0.6875 -0.67188,0.67187 -0.67188,2.15625 v 5.625 h -1.64062 v -6.28125 q 0,-1.09375 -0.40625,-1.64063 -0.40625,-0.54687 -1.3125,-0.54687 -0.6875,0 -1.28125,0.35937 -0.59375,0.35938 -0.85938,1.0625 -0.25,0.70313 -0.25,2.03125 v 5.01563 z m 15.54083,3.70312 v -13.375 h 1.48438 v 1.25 q 0.53125,-0.73437 1.1875,-1.09375 0.67187,-0.375 1.625,-0.375 1.23437,0 2.17187,0.64063 0.95313,0.625 1.4375,1.79687 0.48438,1.15625 0.48438,2.54688 0,1.48437 -0.53125,2.67187 -0.53125,1.1875 -1.54688,1.82813 -1.01562,0.625 -2.14062,0.625 -0.8125,0 -1.46875,-0.34375 -0.65625,-0.34375 -1.0625,-0.875 v 4.70312 z m 1.48438,-8.48437 q 0,1.85937 0.75,2.76562 0.76562,0.89063 1.82812,0.89063 1.09375,0 1.875,-0.92188 0.78125,-0.9375 0.78125,-2.875 0,-1.84375 -0.76562,-2.76562 -0.75,-0.92188 -1.8125,-0.92188 -1.04688,0 -1.85938,0.98438 -0.79687,0.96875 -0.79687,2.84375 z m 8.84442,4.78125 v -13.35938 h 1.64062 v 13.35938 z m 10.81671,-3.10938 1.6875,0.20313 q -0.40625,1.48437 -1.48438,2.3125 -1.07812,0.8125 -2.76562,0.8125 -2.125,0 -3.375,-1.29688 -1.23438,-1.3125 -1.23438,-3.67187 0,-2.45313 1.25,-3.79688 1.26563,-1.34375 3.26563,-1.34375 1.9375,0 3.15625,1.32813 1.23437,1.3125 1.23437,3.70312 0,0.15625 0,0.4375 h -7.21875 q 0.0937,1.59375 0.90625,2.45313 0.8125,0.84375 2.01563,0.84375 0.90625,0 1.54687,-0.46875 0.64063,-0.48438 1.01563,-1.51563 z m -5.39063,-2.65625 h 5.40625 q -0.10937,-1.21875 -0.625,-1.82812 -0.78125,-0.95313 -2.03125,-0.95313 -1.125,0 -1.90625,0.76563 -0.76562,0.75 -0.84375,2.01562 z m 12.71949,4.29688 0.23437,1.45312 q -0.6875,0.14063 -1.23437,0.14063 -0.89063,0 -1.39063,-0.28125 -0.48437,-0.28125 -0.6875,-0.73438 -0.20312,-0.46875 -0.20312,-1.9375 v -5.57812 h -1.20313 v -1.26563 h 1.20313 v -2.39062 l 1.625,-0.98438 v 3.375 h 1.65625 v 1.26563 h -1.65625 v 5.67187 q 0,0.6875 0.0781,0.89063 0.0937,0.20312 0.28125,0.32812 0.20313,0.10938 0.57813,0.10938 0.26562,0 0.71875,-0.0625 z m 8.23016,-1.64063 1.6875,0.20313 q -0.40625,1.48437 -1.48438,2.3125 -1.07812,0.8125 -2.76562,0.8125 -2.125,0 -3.375,-1.29688 -1.23438,-1.3125 -1.23438,-3.67187 0,-2.45313 1.25,-3.79688 1.26563,-1.34375 3.26563,-1.34375 1.9375,0 3.15625,1.32813 1.23437,1.3125 1.23437,3.70312 0,0.15625 0,0.4375 h -7.21875 q 0.0937,1.59375 0.90625,2.45313 0.8125,0.84375 2.01563,0.84375 0.90625,0 1.54687,-0.46875 0.64063,-0.48438 1.01563,-1.51563 z m -5.39063,-2.65625 h 5.40625 q -0.10937,-1.21875 -0.625,-1.82812 -0.78125,-0.95313 -2.03125,-0.95313 -1.125,0 -1.90625,0.76563 -0.76562,0.75 -0.84375,2.01562 z m 10.21949,9.6875 h -1.1875 q 2.73437,-4.375 2.73437,-8.75 0,-1.71875 -0.39062,-3.39062 -0.3125,-1.375 -0.875,-2.625 -0.35938,-0.82813 -1.46875,-2.73438 h 1.1875 q 1.70312,2.28125 2.53125,4.59375 0.6875,1.98438 0.6875,4.14063 0,2.46875 -0.9375,4.76562 -0.9375,2.29688 -2.28125,4 z"
       fill="#000000" />
    <path
       id="path59"
       fill-rule="evenodd"
       d="m 399.24017,206.42519 h 26.58267 v 42.96063 h -26.58267 z"
       fill="#cfe2f3" />
    <path
       id="path61"
       fill-rule="evenodd"
       d="m 399.24017,206.42519 h 26.58267 v 42.96063 h -26.58267 z"
       stroke-linecap="butt"
       stroke-linejoin="round"
       stroke-width="1"
       stroke="#000000" />
    <path
       id="path63"
       fill-rule="nonzero"
       d="m 409.02141,228.23177 q 0,-2.35938 0.48438,-3.79688 0.48437,-1.45312 1.4375,-2.23437 0.96875,-0.78125 2.42187,-0.78125 1.07813,0 1.89063,0.4375 0.8125,0.42187 1.32812,1.25 0.53125,0.8125 0.82813,1.98437 0.3125,1.15625 0.3125,3.14063 0,2.35937 -0.48438,3.8125 -0.48437,1.4375 -1.45312,2.23437 -0.95313,0.78125 -2.42188,0.78125 -1.92187,0 -3.03125,-1.39062 -1.3125,-1.67188 -1.3125,-5.4375 z m 1.67188,0 q 0,3.29687 0.76562,4.39062 0.78125,1.07813 1.90625,1.07813 1.14063,0 1.90625,-1.09375 0.76563,-1.09375 0.76563,-4.375 0,-3.29688 -0.76563,-4.375 -0.76562,-1.07813 -1.92187,-1.07813 -1.125,0 -1.79688,0.95313 -0.85937,1.21875 -0.85937,4.5 z"
       fill="#000000" />
    <path
       id="path65"
       fill-rule="evenodd"
       d="m 372.65747,206.42519 h 26.5827 v 42.96063 h -26.5827 z"
       fill="#cfe2f3" />
    <path
       id="path67"
       fill-rule="evenodd"
       d="m 372.65747,206.42519 h 26.5827 v 42.96063 h -26.5827 z"
       stroke-linecap="butt"
       stroke-linejoin="round"
       stroke-width="1"
       stroke="#000000" />
    <path
       id="path69"
       fill-rule="nonzero"
       d="m 388.61059,234.82552 h -1.64062 v -10.45313 q -0.59375,0.5625 -1.5625,1.14063 -0.95313,0.5625 -1.71875,0.84375 v -1.59375 q 1.375,-0.64063 2.40625,-1.5625 1.03125,-0.92188 1.45312,-1.78125 h 1.0625 z"
       fill="#000000" />
    <path
       id="path71"
       fill-rule="evenodd"
       d="m 346.07481,206.42519 h 26.58267 v 42.96063 h -26.58267 z"
       fill="#cfe2f3" />
    <path
       id="path73"
       fill-rule="evenodd"
       d="m 346.07481,206.42519 h 26.58267 v 42.96063 h -26.58267 z"
       stroke-linecap="butt"
       stroke-linejoin="round"
       stroke-width="1"
       stroke="#000000" />
    <path
       id="path75"
       fill-rule="nonzero"
       d="m 362.02791,234.82552 h -1.64063 v -10.45313 q -0.59375,0.5625 -1.5625,1.14063 -0.95312,0.5625 -1.71875,0.84375 v -1.59375 q 1.375,-0.64063 2.40625,-1.5625 1.03125,-0.92188 1.45313,-1.78125 h 1.0625 z"
       fill="#000000" />
    <path
       id="path77"
       fill-rule="evenodd"
       d="m 319.49211,206.42519 h 26.58267 v 42.96063 h -26.58267 z"
       fill="#cfe2f3" />
    <path
       id="path79"
       fill-rule="evenodd"
       d="m 319.49211,206.42519 h 26.58267 v 42.96063 h -26.58267 z"
       stroke-linecap="butt"
       stroke-linejoin="round"
       stroke-width="1"
       stroke="#000000" />
    <path
       id="path81"
       fill-rule="nonzero"
       d="m 335.44525,234.82552 h -1.64063 v -10.45313 q -0.59375,0.5625 -1.5625,1.14063 -0.95312,0.5625 -1.71875,0.84375 v -1.59375 q 1.375,-0.64063 2.40625,-1.5625 1.03125,-0.92188 1.45313,-1.78125 h 1.0625 z"
       fill="#000000" />
    <path
       id="path83"
       fill-rule="evenodd"
       d="m 292.90945,206.42519 h 26.58267 v 42.96063 h -26.58267 z"
       fill="#cfe2f3" />
    <path
       id="path85"
       fill-rule="evenodd"
       d="m 292.90945,206.42519 h 26.58267 v 42.96063 h -26.58267 z"
       stroke-linecap="butt"
       stroke-linejoin="round"
       stroke-width="1"
       stroke="#000000" />
    <path
       id="path87"
       fill-rule="nonzero"
       d="m 302.69071,228.23177 q 0,-2.35938 0.48437,-3.79688 0.48438,-1.45312 1.4375,-2.23437 0.96875,-0.78125 2.42188,-0.78125 1.07812,0 1.89062,0.4375 0.8125,0.42187 1.32813,1.25 0.53125,0.8125 0.82812,1.98437 0.3125,1.15625 0.3125,3.14063 0,2.35937 -0.48437,3.8125 -0.48438,1.4375 -1.45313,2.23437 -0.95312,0.78125 -2.42187,0.78125 -1.92188,0 -3.03125,-1.39062 -1.3125,-1.67188 -1.3125,-5.4375 z m 1.67187,0 q 0,3.29687 0.76563,4.39062 0.78125,1.07813 1.90625,1.07813 1.14062,0 1.90625,-1.09375 0.76562,-1.09375 0.76562,-4.375 0,-3.29688 -0.76562,-4.375 -0.76563,-1.07813 -1.92188,-1.07813 -1.125,0 -1.79687,0.95313 -0.85938,1.21875 -0.85938,4.5 z"
       fill="#000000" />
    <path
       id="path89"
       fill-rule="evenodd"
       d="m 266.32678,206.42519 h 26.58267 v 42.96063 h -26.58267 z"
       fill="#cfe2f3" />
    <path
       id="path91"
       fill-rule="evenodd"
       d="m 266.32678,206.42519 h 26.58267 v 42.96063 h -26.58267 z"
       stroke-linecap="butt"
       stroke-linejoin="round"
       stroke-width="1"
       stroke="#000000" />
    <path
       id="path93"
       fill-rule="nonzero"
       d="m 282.27991,234.82552 h -1.64063 v -10.45313 q -0.59375,0.5625 -1.5625,1.14063 -0.95312,0.5625 -1.71875,0.84375 v -1.59375 q 1.375,-0.64063 2.40625,-1.5625 1.03125,-0.92188 1.45313,-1.78125 h 1.0625 z"
       fill="#000000" />
    <path
       id="path95"
       fill-rule="evenodd"
       d="m 239.74411,206.42519 h 26.58267 v 42.96063 h -26.58267 z"
       fill="#cfe2f3" />
    <path
       id="path97"
       fill-rule="evenodd"
       d="m 239.74411,206.42519 h 26.58267 v 42.96063 h -26.58267 z"
       stroke-linecap="butt"
       stroke-linejoin="round"
       stroke-width="1"
       stroke="#000000" />
    <path
       id="path99"
       fill-rule="nonzero"
       d="m 255.69723,234.82552 h -1.64063 v -10.45313 q -0.59375,0.5625 -1.5625,1.14063 -0.95312,0.5625 -1.71875,0.84375 v -1.59375 q 1.375,-0.64063 2.40625,-1.5625 1.03125,-0.92188 1.45313,-1.78125 h 1.0625 z"
       fill="#000000" />
    <path
       id="path101"
       fill-rule="evenodd"
       d="m 213.16141,206.42519 h 26.5827 v 42.96063 h -26.5827 z"
       fill="#cfe2f3" />
    <path
       id="path103"
       fill-rule="evenodd"
       d="m 213.16141,206.42519 h 26.5827 v 42.96063 h -26.5827 z"
       stroke-linecap="butt"
       stroke-linejoin="round"
       stroke-width="1"
       stroke="#000000" />
    <path
       id="path105"
       fill-rule="nonzero"
       d="m 229.11453,234.82552 h -1.64062 v -10.45313 q -0.59375,0.5625 -1.5625,1.14063 -0.95313,0.5625 -1.71875,0.84375 v -1.59375 q 1.375,-0.64063 2.40625,-1.5625 1.03125,-0.92188 1.45312,-1.78125 h 1.0625 z"
       fill="#000000" />
    <path
       id="path107"
       fill-rule="evenodd"
       d="m 426.94095,206.42519 h 204.53543 v 42.96063 H 426.94095 Z"
       fill-opacity="0"
       fill="#000000" />
    <path
       id="path109"
       fill-rule="nonzero"
       d="m 443.48781,232.15769 q -0.92188,0.76563 -1.76563,1.09375 -0.82812,0.3125 -1.79687,0.3125 -1.59375,0 -2.45313,-0.78125 -0.85937,-0.78125 -0.85937,-1.98437 0,-0.71875 0.32812,-1.29688 0.32813,-0.59375 0.84375,-0.9375 0.53125,-0.35937 1.1875,-0.54687 0.46875,-0.125 1.45313,-0.25 1.98437,-0.23438 2.92187,-0.5625 0.0156,-0.34375 0.0156,-0.42188 0,-1 -0.46875,-1.42187 -0.625,-0.54688 -1.875,-0.54688 -1.15625,0 -1.70313,0.40625 -0.54687,0.40625 -0.8125,1.42188 l -1.60937,-0.21875 q 0.21875,-1.01563 0.71875,-1.64063 0.5,-0.64062 1.45312,-0.98437 0.95313,-0.34375 2.1875,-0.34375 1.25,0 2.01563,0.29687 0.78125,0.28125 1.14062,0.73438 0.375,0.4375 0.51563,1.10937 0.0781,0.42188 0.0781,1.51563 v 2.1875 q 0,2.28125 0.10938,2.89062 0.10937,0.59375 0.40625,1.15625 h -1.70313 q -0.26562,-0.51562 -0.32812,-1.1875 z m -0.14063,-3.67187 q -0.89062,0.375 -2.67187,0.625 -1.01563,0.14062 -1.4375,0.32812 -0.42188,0.1875 -0.65625,0.53125 -0.21875,0.34375 -0.21875,0.78125 0,0.65625 0.5,1.09375 0.5,0.4375 1.45312,0.4375 0.9375,0 1.67188,-0.40625 0.75,-0.42187 1.09375,-1.14062 0.26562,-0.5625 0.26562,-1.64063 z m 5.70386,4.85937 h -1.51562 v -13.35937 h 1.64062 v 4.76562 q 1.04688,-1.29687 2.65625,-1.29687 0.89063,0 1.6875,0.35937 0.79688,0.35938 1.3125,1.01563 0.51563,0.64062 0.79688,1.5625 0.29687,0.92187 0.29687,1.96875 0,2.48437 -1.23437,3.84375 -1.21875,1.35937 -2.95313,1.35937 -1.70312,0 -2.6875,-1.4375 z m -0.0156,-4.90625 q 0,1.73438 0.48437,2.51563 0.76563,1.26562 2.09375,1.26562 1.07813,0 1.85938,-0.9375 0.78125,-0.9375 0.78125,-2.78125 0,-1.89062 -0.75,-2.79687 -0.75,-0.90625 -1.82813,-0.90625 -1.0625,0 -1.85937,0.9375 -0.78125,0.9375 -0.78125,2.70312 z m 8.8757,4.90625 v -9.67187 h 1.46875 v 1.46875 q 0.5625,-1.03125 1.03125,-1.35938 0.48437,-0.32812 1.0625,-0.32812 0.82812,0 1.6875,0.53125 l -0.5625,1.51562 q -0.60938,-0.35937 -1.20313,-0.35937 -0.54687,0 -0.96875,0.32812 -0.42187,0.32813 -0.60937,0.89063 -0.28125,0.875 -0.28125,1.92187 v 5.0625 z m 6.2283,-11.46875 v -1.89062 h 1.64066 v 1.89062 z m 0,11.46875 v -9.67187 h 1.64066 v 9.67187 z m 10.41043,0 v -1.21875 q -0.90625,1.4375 -2.70312,1.4375 -1.15625,0 -2.125,-0.64062 -0.96875,-0.64063 -1.5,-1.78125 -0.53125,-1.14063 -0.53125,-2.625 0,-1.45313 0.48437,-2.625 0.48438,-1.1875 1.4375,-1.8125 0.96875,-0.625 2.17188,-0.625 0.875,0 1.54687,0.375 0.6875,0.35937 1.10938,0.95312 v -4.79687 h 1.64062 v 13.35937 z m -5.17187,-4.82812 q 0,1.85937 0.78125,2.78125 0.78125,0.92187 1.84375,0.92187 1.07812,0 1.82812,-0.875 0.75,-0.89062 0.75,-2.6875 0,-1.98437 -0.76562,-2.90625 -0.76563,-0.9375 -1.89063,-0.9375 -1.07812,0 -1.8125,0.89063 -0.73437,0.89062 -0.73437,2.8125 z m 8.96948,5.625 1.59375,0.23437 q 0.10937,0.75 0.5625,1.07813 0.60937,0.45312 1.67187,0.45312 1.14063,0 1.75,-0.45312 0.625,-0.45313 0.84375,-1.26563 0.125,-0.5 0.10938,-2.10937 -1.0625,1.26562 -2.67188,1.26562 -2,0 -3.09375,-1.4375 -1.09375,-1.4375 -1.09375,-3.45312 0,-1.39063 0.5,-2.5625 0.51563,-1.17188 1.45313,-1.79688 0.95312,-0.64062 2.25,-0.64062 1.70312,0 2.8125,1.375 v -1.15625 h 1.51562 v 8.35937 q 0,2.26563 -0.46875,3.20313 -0.45312,0.9375 -1.45312,1.48437 -0.98438,0.54688 -2.45313,0.54688 -1.71875,0 -2.79687,-0.78125 -1.0625,-0.76563 -1.03125,-2.34375 z m 1.35937,-5.8125 q 0,1.90625 0.75,2.78125 0.76563,0.875 1.90625,0.875 1.125,0 1.89063,-0.85938 0.76562,-0.875 0.76562,-2.73437 0,-1.78125 -0.79687,-2.67188 -0.78125,-0.90625 -1.89063,-0.90625 -1.09375,0 -1.85937,0.89063 -0.76563,0.875 -0.76563,2.625 z m 15.95386,1.90625 1.6875,0.20312 q -0.40625,1.48438 -1.48437,2.3125 -1.07813,0.8125 -2.76563,0.8125 -2.125,0 -3.375,-1.29687 -1.23437,-1.3125 -1.23437,-3.67188 0,-2.45312 1.25,-3.79687 1.26562,-1.34375 3.26562,-1.34375 1.9375,0 3.15625,1.32812 1.23438,1.3125 1.23438,3.70313 0,0.15625 0,0.4375 h -7.21875 q 0.0937,1.59375 0.90625,2.45312 0.8125,0.84375 2.01562,0.84375 0.90625,0 1.54688,-0.46875 0.64062,-0.48437 1.01562,-1.51562 z m -5.39062,-2.65625 h 5.40625 q -0.10938,-1.21875 -0.625,-1.82813 -0.78125,-0.95312 -2.03125,-0.95312 -1.125,0 -1.90625,0.76562 -0.76563,0.75 -0.84375,2.01563 z m 15.40698,5.76562 v -1.21875 q -0.90625,1.4375 -2.70313,1.4375 -1.15625,0 -2.125,-0.64062 -0.96875,-0.64063 -1.5,-1.78125 -0.53125,-1.14063 -0.53125,-2.625 0,-1.45313 0.48438,-2.625 0.48437,-1.1875 1.4375,-1.8125 0.96875,-0.625 2.17187,-0.625 0.875,0 1.54688,0.375 0.6875,0.35937 1.10937,0.95312 v -4.79687 h 1.64063 v 13.35937 z m -5.17188,-4.82812 q 0,1.85937 0.78125,2.78125 0.78125,0.92187 1.84375,0.92187 1.07813,0 1.82813,-0.875 0.75,-0.89062 0.75,-2.6875 0,-1.98437 -0.76563,-2.90625 -0.76562,-0.9375 -1.89062,-0.9375 -1.07813,0 -1.8125,0.89063 -0.73438,0.89062 -0.73438,2.8125 z m 14.8559,4.82812 v -8.40625 h -1.45313 v -1.26562 h 1.45313 v -1.03125 q 0,-0.96875 0.17187,-1.45313 0.23438,-0.64062 0.82813,-1.03125 0.59375,-0.39062 1.67187,-0.39062 0.6875,0 1.53125,0.15625 l -0.25,1.4375 q -0.5,-0.0937 -0.95312,-0.0937 -0.75,0 -1.0625,0.32812 -0.3125,0.3125 -0.3125,1.1875 v 0.89063 h 1.89062 v 1.26562 h -1.89062 v 8.40625 z m 8.37079,-1.46875 0.23437,1.45313 q -0.6875,0.14062 -1.23437,0.14062 -0.89063,0 -1.39063,-0.28125 -0.48437,-0.28125 -0.6875,-0.73437 -0.20312,-0.46875 -0.20312,-1.9375 v -5.57813 h -1.20313 v -1.26562 h 1.20313 v -2.39063 l 1.625,-0.98437 v 3.375 h 1.65625 v 1.26562 h -1.65625 v 5.67188 q 0,0.6875 0.0781,0.89062 0.0937,0.20313 0.28125,0.32813 0.20313,0.10937 0.57813,0.10937 0.26562,0 0.71875,-0.0625 z m 7.91766,0.28125 q -0.92187,0.76563 -1.76562,1.09375 -0.82813,0.3125 -1.79688,0.3125 -1.59375,0 -2.45312,-0.78125 -0.85938,-0.78125 -0.85938,-1.98437 0,-0.71875 0.32813,-1.29688 0.32812,-0.59375 0.84375,-0.9375 0.53125,-0.35937 1.1875,-0.54687 0.46875,-0.125 1.45312,-0.25 1.98438,-0.23438 2.92188,-0.5625 0.0156,-0.34375 0.0156,-0.42188 0,-1 -0.46875,-1.42187 -0.625,-0.54688 -1.875,-0.54688 -1.15625,0 -1.70312,0.40625 -0.54688,0.40625 -0.8125,1.42188 l -1.60938,-0.21875 q 0.21875,-1.01563 0.71875,-1.64063 0.5,-0.64062 1.45313,-0.98437 0.95312,-0.34375 2.1875,-0.34375 1.25,0 2.01562,0.29687 0.78125,0.28125 1.14063,0.73438 0.375,0.4375 0.51562,1.10937 0.0781,0.42188 0.0781,1.51563 v 2.1875 q 0,2.28125 0.10937,2.89062 0.10938,0.59375 0.40625,1.15625 h -1.70312 q -0.26563,-0.51562 -0.32813,-1.1875 z m -0.14062,-3.67187 q -0.89063,0.375 -2.67188,0.625 -1.01562,0.14062 -1.4375,0.32812 -0.42187,0.1875 -0.65625,0.53125 -0.21875,0.34375 -0.21875,0.78125 0,0.65625 0.5,1.09375 0.5,0.4375 1.45313,0.4375 0.9375,0 1.67187,-0.40625 0.75,-0.42187 1.09375,-1.14062 0.26563,-0.5625 0.26563,-1.64063 z m 3.89135,5.65625 1.59375,0.23437 q 0.10938,0.75 0.5625,1.07813 0.60938,0.45312 1.67188,0.45312 1.14062,0 1.75,-0.45312 0.625,-0.45313 0.84375,-1.26563 0.125,-0.5 0.10937,-2.10937 -1.0625,1.26562 -2.67187,1.26562 -2,0 -3.09375,-1.4375 -1.09375,-1.4375 -1.09375,-3.45312 0,-1.39063 0.5,-2.5625 0.51562,-1.17188 1.45312,-1.79688 0.95313,-0.64062 2.25,-0.64062 1.70313,0 2.8125,1.375 v -1.15625 h 1.51563 v 8.35937 q 0,2.26563 -0.46875,3.20313 -0.45313,0.9375 -1.45313,1.48437 -0.98437,0.54688 -2.45312,0.54688 -1.71875,0 -2.79688,-0.78125 -1.0625,-0.76563 -1.03125,-2.34375 z m 1.35938,-5.8125 q 0,1.90625 0.75,2.78125 0.76562,0.875 1.90625,0.875 1.125,0 1.89062,-0.85938 0.76563,-0.875 0.76563,-2.73437 0,-1.78125 -0.79688,-2.67188 -0.78125,-0.90625 -1.89062,-0.90625 -1.09375,0 -1.85938,0.89063 -0.76562,0.875 -0.76562,2.625 z"
       fill="#000000" />
    <path
       id="path111"
       fill-rule="evenodd"
       d="M 399.24017,73.858273 412.53149,206.4252"
       fill-opacity="0"
       fill="#000000" />
    <path
       id="path113"
       fill-rule="evenodd"
       d="M 399.24017,73.858273 411.93295,200.45513"
       stroke-linecap="butt"
       stroke-linejoin="round"
       stroke-width="1"
       stroke="#000000" />
    <path
       id="path115"
       fill-rule="evenodd"
       d="m 410.28943,200.61989 2.09622,4.35068 1.19077,-4.68024 z"
       stroke-linecap="butt"
       stroke-width="1"
       stroke="#000000"
       fill="#000000" />
    <path
       id="path117"
       fill-rule="evenodd"
       d="M 346.07481,73.858273 385.94883,206.4252"
       fill-opacity="0"
       fill="#000000" />
    <path
       id="path119"
       fill-rule="evenodd"
       d="M 346.07481,73.858273 384.22062,200.6795"
       stroke-linecap="butt"
       stroke-linejoin="round"
       stroke-width="1"
       stroke="#000000" />
    <path
       id="path121"
       fill-rule="evenodd"
       d="m 382.63888,201.15523 2.88885,3.87003 0.2746,-4.82154 z"
       stroke-linecap="butt"
       stroke-width="1"
       stroke="#000000"
       fill="#000000" />
    <path
       id="path123"
       fill-rule="evenodd"
       d="M 292.90945,73.858273 359.36615,206.4252"
       fill-opacity="0"
       fill="#000000" />
    <path
       id="path125"
       fill-rule="evenodd"
       d="M 292.90945,73.858273 356.67724,201.06143"
       stroke-linecap="butt"
       stroke-linejoin="round"
       stroke-width="1"
       stroke="#000000" />
    <path
       id="path127"
       fill-rule="evenodd"
       d="m 355.20068,201.80166 3.51031,3.31665 -0.55715,-4.79709 z"
       stroke-linecap="butt"
       stroke-width="1"
       stroke="#000000"
       fill="#000000" />
    <path
       id="path129"
       fill-rule="evenodd"
       d="M 239.74411,73.858273 332.78348,206.4252"
       fill-opacity="0"
       fill="#000000" />
    <path
       id="path131"
       fill-rule="evenodd"
       d="M 239.74411,73.858273 329.33667,201.51403"
       stroke-linecap="butt"
       stroke-linejoin="round"
       stroke-width="1"
       stroke="#000000" />
    <path
       id="path133"
       fill-rule="evenodd"
       d="m 327.98468,202.46289 3.95898,2.76572 -1.255,-4.66343 z"
       stroke-linecap="butt"
       stroke-width="1"
       stroke="#000000"
       fill="#000000" />
    <path
       id="path135"
       fill-rule="evenodd"
       d="M 186.57875,73.858273 306.20081,206.4252"
       fill-opacity="0"
       fill="#000000" />
    <path
       id="path137"
       fill-rule="evenodd"
       d="M 186.57875,73.858273 302.18124,201.97064"
       stroke-linecap="butt"
       stroke-linejoin="round"
       stroke-width="1"
       stroke="#000000" />
    <path
       id="path139"
       fill-rule="evenodd"
       d="m 300.95491,203.07719 4.26651,2.26263 -1.81393,-4.47573 z"
       stroke-linecap="butt"
       stroke-width="1"
       stroke="#000000"
       fill="#000000" />
    <path
       id="path141"
       fill-rule="evenodd"
       d="M 133.41339,73.858273 279.6181,206.4252"
       fill-opacity="0"
       fill="#000000" />
    <path
       id="path143"
       fill-rule="evenodd"
       d="M 133.41339,73.858273 275.17322,202.39492"
       stroke-linecap="butt"
       stroke-linejoin="round"
       stroke-width="1"
       stroke="#000000" />
    <path
       id="path145"
       fill-rule="evenodd"
       d="m 274.06375,203.61855 4.47137,1.82468 -2.25241,-4.27192 z"
       stroke-linecap="butt"
       stroke-width="1"
       stroke="#000000"
       fill="#000000" />
    <path
       id="path147"
       fill-rule="evenodd"
       d="M 80.248028,73.858273 253.03543,206.4252"
       fill-opacity="0"
       fill="#000000" />
    <path
       id="path149"
       fill-rule="evenodd"
       d="M 80.248028,73.858273 248.27508,202.77291"
       stroke-linecap="butt"
       stroke-linejoin="round"
       stroke-width="1"
       stroke="#000000" />
    <path
       id="path151"
       fill-rule="evenodd"
       d="m 247.26965,204.08339 4.60593,1.45193 -2.59507,-4.07287 z"
       stroke-linecap="butt"
       stroke-width="1"
       stroke="#000000"
       fill="#000000" />
    <path
       id="path153"
       fill-rule="evenodd"
       d="M 27.082678,73.858273 226.45277,206.4252"
       fill-opacity="0"
       fill="#000000" />
    <path
       id="path155"
       fill-rule="evenodd"
       d="M 27.082678,73.858273 221.45646,203.10302"
       stroke-linecap="butt"
       stroke-linejoin="round"
       stroke-width="1"
       stroke="#000000" />
    <path
       id="path157"
       fill-rule="evenodd"
       d="m 220.54191,204.47844 4.69351,1.1373 -2.86441,-3.88815 z"
       stroke-linecap="butt"
       stroke-width="1"
       stroke="#000000"
       fill="#000000" />
    <path
       id="path159"
       fill-rule="evenodd"
       d="m 372.65747,0 h 53.16537 v 30.897636 h -53.16537 z"
       fill-opacity="0"
       fill="#000000" />
    <path
       id="path161"
       fill-rule="nonzero"
       d="m 407.22836,20.326248 q 0,-2.359375 0.48438,-3.796875 0.48437,-1.453125 1.4375,-2.234375 0.96875,-0.78125 2.42187,-0.78125 1.07813,0 1.89063,0.4375 0.8125,0.421875 1.32812,1.25 0.53125,0.8125 0.82813,1.984375 0.3125,1.15625 0.3125,3.140625 0,2.359375 -0.48438,3.8125 -0.48437,1.4375 -1.45312,2.234375 -0.95313,0.78125 -2.42188,0.78125 -1.92187,0 -3.03125,-1.390625 -1.3125,-1.671875 -1.3125,-5.4375 z m 1.67188,0 q 0,3.296875 0.76562,4.390625 0.78125,1.078125 1.90625,1.078125 1.14063,0 1.90625,-1.09375 0.76563,-1.09375 0.76563,-4.375 0,-3.296875 -0.76563,-4.375 -0.76562,-1.078125 -1.92187,-1.078125 -1.125,0 -1.79688,0.953125 -0.85937,1.21875 -0.85937,4.5 z"
       fill="#000000" />
    <path
       id="path163"
       fill-rule="evenodd"
       d="M 0.5,0 H 53.665358 V 30.897636 H 0.5 Z"
       fill-opacity="0"
       fill="#000000" />
    <path
       id="path165"
       fill-rule="nonzero"
       d="M 16.453128,26.919998 H 14.812499 V 16.466873 q -0.59375,0.5625 -1.5625,1.140625 -0.953125,0.5625 -1.71875,0.84375 v -1.59375 q 1.375,-0.640625 2.40625,-1.5625 1.03125,-0.921875 1.453125,-1.78125 h 1.062504 z m 4.203842,-3.5 1.71875,-0.140625 q 0.1875,1.25 0.875,1.890625 0.703125,0.625 1.6875,0.625 1.1875,0 2,-0.890625 0.828125,-0.890625 0.828125,-2.359375 0,-1.40625 -0.796875,-2.21875 -0.78125,-0.8125 -2.0625,-0.8125 -0.78125,0 -1.421875,0.359375 -0.640625,0.359375 -1,0.9375 l -1.546875,-0.203125 1.296875,-6.859375 h 6.640625 v 1.5625 h -5.328125 l -0.71875,3.59375 q 1.203125,-0.84375 2.515625,-0.84375 1.75,0 2.953125,1.21875 1.203125,1.203125 1.203125,3.109375 0,1.8125 -1.046875,3.140625 -1.296875,1.625 -3.515625,1.625 -1.8125,0 -2.96875,-1.015625 -1.15625,-1.03125 -1.3125,-2.71875 z"
       fill="#000000" />
    <path
       id="path167"
       fill-rule="evenodd"
       d="m 372.65747,237.11287 h 53.16537 v 30.89761 h -53.16537 z"
       fill-opacity="0"
       fill="#000000" />
    <path
       id="path169"
       fill-rule="nonzero"
       d="m 407.22836,257.43911 q 0,-2.35938 0.48438,-3.79688 0.48437,-1.45312 1.4375,-2.23437 0.96875,-0.78125 2.42187,-0.78125 1.07813,0 1.89063,0.4375 0.8125,0.42187 1.32812,1.25 0.53125,0.8125 0.82813,1.98437 0.3125,1.15625 0.3125,3.14063 0,2.35937 -0.48438,3.8125 -0.48437,1.4375 -1.45312,2.23437 -0.95313,0.78125 -2.42188,0.78125 -1.92187,0 -3.03125,-1.39062 -1.3125,-1.67188 -1.3125,-5.4375 z m 1.67188,0 q 0,3.29687 0.76562,4.39062 0.78125,1.07813 1.90625,1.07813 1.14063,0 1.90625,-1.09375 0.76563,-1.09375 0.76563,-4.375 0,-3.29688 -0.76563,-4.375 -0.76562,-1.07813 -1.92187,-1.07813 -1.125,0 -1.79688,0.95313 -0.85937,1.21875 -0.85937,4.5 z"
       fill="#000000" />
    <path
       id="path171"
       fill-rule="evenodd"
       d="m 213.16141,237.11287 h 53.16537 v 30.89761 h -53.16537 z"
       fill-opacity="0"
       fill="#000000" />
    <path
       id="path173"
       fill-rule="nonzero"
       d="m 223.05203,252.42349 v -1.57813 h 8.64063 v 1.28125 q -1.28125,1.35938 -2.53125,3.60938 -1.25,2.25 -1.9375,4.625 -0.48438,1.67187 -0.625,3.67187 h -1.6875 q 0.0312,-1.57812 0.625,-3.8125 0.59375,-2.23437 1.6875,-4.29687 1.10937,-2.07813 2.35937,-3.5 z"
       fill="#000000" />
  </g>
</svg>
