<?xml version="1.0" encoding="UTF-8" standalone="no"?>
<svg
   xmlns:dc="http://purl.org/dc/elements/1.1/"
   xmlns:cc="http://creativecommons.org/ns#"
   xmlns:rdf="http://www.w3.org/1999/02/22-rdf-syntax-ns#"
   xmlns:svg="http://www.w3.org/2000/svg"
   xmlns="http://www.w3.org/2000/svg"
   xmlns:sodipodi="http://sodipodi.sourceforge.net/DTD/sodipodi-0.dtd"
   xmlns:inkscape="http://www.inkscape.org/namespaces/inkscape"
   inkscape:version="1.0 (4035a4fb49, 2020-05-01)"
   height="534.30316"
   width="749.56165"
   sodipodi:docname="x86_fpu_registers.svg"
   id="svg1798"
   stroke-miterlimit="10"
   stroke-linecap="square"
   stroke="none"
   fill="none"
   viewBox="0 0 749.56165 534.30316"
   version="1.1">
  <metadata
     id="metadata1804">
    <rdf:RDF>
      <cc:Work
         rdf:about="">
        <dc:format>image/svg+xml</dc:format>
        <dc:type
           rdf:resource="http://purl.org/dc/dcmitype/StillImage" />
      </cc:Work>
    </rdf:RDF>
  </metadata>
  <defs
     id="defs1802" />
  <sodipodi:namedview
     inkscape:current-layer="svg1798"
     inkscape:window-maximized="0"
     inkscape:window-y="88"
     inkscape:window-x="3514"
     inkscape:cy="366.08006"
     inkscape:cx="477.71785"
     inkscape:zoom="0.75130208"
     showgrid="false"
     id="namedview1800"
     inkscape:window-height="864"
     inkscape:window-width="1131"
     inkscape:pageshadow="2"
     inkscape:pageopacity="0"
     guidetolerance="10"
     gridtolerance="10"
     objecttolerance="10"
     borderopacity="1"
     bordercolor="#666666"
     pagecolor="#ffffff" />
  <clipPath
     id="p.0">
    <path
       id="path1637"
       clip-rule="nonzero"
       d="M 0,0 H 1024 V 768 H 0 Z" />
  </clipPath>
  <path
     fill="#000000"
     fill-opacity="0"
     d="M -34.282154,-17.91994 H 989.71785 v 768 H -34.282154 Z"
     fill-rule="evenodd"
     id="path1640" />
  <g
     id="g1961">
    <path
       id="path1642"
       fill-rule="evenodd"
       d="m 0.5,241.8386 v 0 C 0.5,108.55097 108.55097,0.5 241.83858,0.5 v 0 c 64.00699,0 125.3924,25.426672 170.65216,70.68644 45.25977,45.25977 70.6864,106.64517 70.6864,170.65216 v 0 c 0,133.2876 -108.05093,241.33856 -241.33856,241.33856 v 0 C 108.55097,483.17716 0.5,375.1262 0.5,241.8386 Z"
       fill="#f3f3f3" />
    <path
       id="path1644"
       fill-rule="evenodd"
       d="m 0.5,241.8386 v 0 C 0.5,108.55097 108.55097,0.5 241.83858,0.5 v 0 c 64.00699,0 125.3924,25.426672 170.65216,70.68644 45.25977,45.25977 70.6864,106.64517 70.6864,170.65216 v 0 c 0,133.2876 -108.05093,241.33856 -241.33856,241.33856 v 0 C 108.55097,483.17716 0.5,375.1262 0.5,241.8386 Z"
       stroke-linecap="butt"
       stroke-linejoin="round"
       stroke-width="1"
       stroke="#000000" />
    <path
       id="path1646"
       fill-rule="evenodd"
       d="m 91.200786,120.3504 v 0 c 0,-16.09888 13.050724,-29.14961 29.149614,-29.14961 v 0 c 7.73094,0 15.14527,3.07112 20.61188,8.53773 5.46661,5.46661 8.53772,12.88092 8.53772,20.61188 v 0 c 0,16.09888 -13.05072,29.14961 -29.1496,29.14961 v 0 c -16.09889,0 -29.149614,-13.05073 -29.149614,-29.14961 z"
       fill="#cfe2f3" />
    <path
       id="path1648"
       fill-rule="evenodd"
       d="m 91.200786,120.3504 v 0 c 0,-16.09888 13.050724,-29.14961 29.149614,-29.14961 v 0 c 7.73094,0 15.14527,3.07112 20.61188,8.53773 5.46661,5.46661 8.53772,12.88092 8.53772,20.61188 v 0 c 0,16.09888 -13.05072,29.14961 -29.1496,29.14961 v 0 c -16.09889,0 -29.149614,-13.05073 -29.149614,-29.14961 z"
       stroke-linecap="butt"
       stroke-linejoin="round"
       stroke-width="1"
       stroke="#000000" />
    <path
       id="path1650"
       fill-rule="nonzero"
       d="m 116.05316,115.66102 v -1.57813 h 8.64062 v 1.28125 q -1.28125,1.35938 -2.53125,3.60938 -1.25,2.25 -1.9375,4.625 -0.48437,1.67187 -0.625,3.67187 h -1.6875 q 0.0312,-1.57812 0.625,-3.8125 0.59375,-2.23437 1.6875,-4.29687 1.10938,-2.07813 2.35938,-3.5 z"
       fill="#000000" />
    <path
       id="path1652"
       fill-rule="evenodd"
       d="m 212.68898,413.64961 v 0 c 0,-16.09888 13.05072,-29.1496 29.1496,-29.1496 v 0 c 7.73095,0 15.14529,3.07111 20.61187,8.53772 5.46662,5.46662 8.53775,12.88092 8.53775,20.61188 v 0 c 0,16.09888 -13.05075,29.1496 -29.14962,29.1496 v 0 c -16.09888,0 -29.1496,-13.05072 -29.1496,-29.1496 z"
       fill="#fff2cc" />
    <path
       id="path1654"
       fill-rule="evenodd"
       d="m 212.68898,413.64961 v 0 c 0,-16.09888 13.05072,-29.1496 29.1496,-29.1496 v 0 c 7.73095,0 15.14529,3.07111 20.61187,8.53772 5.46662,5.46662 8.53775,12.88092 8.53775,20.61188 v 0 c 0,16.09888 -13.05075,29.1496 -29.14962,29.1496 v 0 c -16.09888,0 -29.1496,-13.05072 -29.1496,-29.1496 z"
       stroke-linecap="butt"
       stroke-linejoin="round"
       stroke-width="1"
       stroke="#000000" />
    <path
       id="path1656"
       fill-rule="nonzero"
       d="m 242.68199,420.56962 v -3.20313 h -5.79691 v -1.5 l 6.09378,-8.65625 h 1.34375 v 8.65625 h 1.79688 v 1.5 h -1.79688 v 3.20313 z m 0,-4.70313 v -6.01562 l -4.1875,6.01562 z"
       fill="#000000" />
    <path
       id="path1658"
       fill-rule="evenodd"
       d="m 212.68898,70.02757 v 0 c 0,-16.098885 13.05072,-29.149609 29.1496,-29.149609 v 0 c 7.73095,0 15.14529,3.07111 20.61187,8.537724 5.46662,5.466606 8.53775,12.880928 8.53775,20.611885 v 0 c 0,16.09888 -13.05075,29.14961 -29.14962,29.14961 v 0 c -16.09888,0 -29.1496,-13.05073 -29.1496,-29.14961 z"
       fill="#fff2cc" />
    <path
       id="path1660"
       fill-rule="evenodd"
       d="m 212.68898,70.02757 v 0 c 0,-16.098885 13.05072,-29.149609 29.1496,-29.149609 v 0 c 7.73095,0 15.14529,3.07111 20.61187,8.537724 5.46662,5.466606 8.53775,12.880928 8.53775,20.611885 v 0 c 0,16.09888 -13.05075,29.14961 -29.14962,29.14961 v 0 c -16.09888,0 -29.1496,-13.05073 -29.1496,-29.14961 z"
       stroke-linecap="butt"
       stroke-linejoin="round"
       stroke-width="1"
       stroke="#000000" />
    <path
       id="path1662"
       fill-rule="nonzero"
       d="m 237.43199,70.35382 q 0,-2.359375 0.48437,-3.796875 0.48438,-1.453125 1.4375,-2.234375 0.96875,-0.78125 2.42188,-0.78125 1.07812,0 1.89062,0.4375 0.8125,0.421875 1.32813,1.25 0.53125,0.8125 0.82812,1.984375 0.3125,1.15625 0.3125,3.140625 0,2.359375 -0.48437,3.8125 -0.48438,1.4375 -1.45313,2.234375 -0.95312,0.78125 -2.42187,0.78125 -1.92188,0 -3.03125,-1.390625 -1.3125,-1.671875 -1.3125,-5.4375 z m 1.67187,0 q 0,3.296875 0.76563,4.390625 0.78125,1.078125 1.90625,1.078125 1.14062,0 1.90625,-1.09375 0.76562,-1.09375 0.76562,-4.375 0,-3.296875 -0.76562,-4.375 -0.76563,-1.078125 -1.92188,-1.078125 -1.125,0 -1.79687,0.953125 -0.85938,1.21875 -0.85938,4.5 z"
       fill="#000000" />
    <path
       id="path1664"
       fill-rule="evenodd"
       d="m 91.200786,363.32676 v 0 c 0,-16.09888 13.050724,-29.1496 29.149614,-29.1496 v 0 c 7.73094,0 15.14527,3.07111 20.61188,8.53772 5.46661,5.46662 8.53772,12.88095 8.53772,20.61188 v 0 c 0,16.09891 -13.05072,29.14963 -29.1496,29.14963 v 0 c -16.09889,0 -29.149614,-13.05072 -29.149614,-29.14963 z"
       fill="#6fa8dc" />
    <path
       id="path1666"
       fill-rule="evenodd"
       d="m 91.200786,363.32676 v 0 c 0,-16.09888 13.050724,-29.1496 29.149614,-29.1496 v 0 c 7.73094,0 15.14527,3.07111 20.61188,8.53772 5.46661,5.46662 8.53772,12.88095 8.53772,20.61188 v 0 c 0,16.09891 -13.05072,29.14963 -29.1496,29.14963 v 0 c -16.09889,0 -29.149614,-13.05072 -29.149614,-29.14963 z"
       stroke-linecap="butt"
       stroke-linejoin="round"
       stroke-width="1"
       stroke="#000000" />
    <path
       id="path1668"
       fill-rule="nonzero"
       d="m 115.94379,366.74678 1.71875,-0.14063 q 0.1875,1.25 0.875,1.89063 0.70312,0.625 1.6875,0.625 1.1875,0 2,-0.89063 0.82812,-0.89062 0.82812,-2.35937 0,-1.40625 -0.79687,-2.21875 -0.78125,-0.8125 -2.0625,-0.8125 -0.78125,0 -1.42188,0.35937 -0.64062,0.35938 -1,0.9375 l -1.54687,-0.20312 1.29687,-6.85938 h 6.64063 v 1.5625 h -5.32813 l -0.71875,3.59375 q 1.20313,-0.84375 2.51563,-0.84375 1.75,0 2.95312,1.21875 1.20313,1.20313 1.20313,3.10938 0,1.8125 -1.04688,3.14062 -1.29687,1.625 -3.51562,1.625 -1.8125,0 -2.96875,-1.01562 -1.15625,-1.03125 -1.3125,-2.71875 z"
       fill="#000000" />
    <path
       id="path1670"
       fill-rule="evenodd"
       d="m 384.50002,241.8386 v 0 c 0,-16.09889 13.05072,-29.14963 29.1496,-29.14963 v 0 c 7.73095,0 15.14526,3.07112 20.61187,8.53774 5.46662,5.4666 8.53772,12.88092 8.53772,20.61189 v 0 c 0,16.09888 -13.05072,29.1496 -29.14959,29.1496 v 0 c -16.09888,0 -29.1496,-13.05072 -29.1496,-29.1496 z"
       fill="#fff2cc" />
    <path
       id="path1672"
       fill-rule="evenodd"
       d="m 384.50002,241.8386 v 0 c 0,-16.09889 13.05072,-29.14963 29.1496,-29.14963 v 0 c 7.73095,0 15.14526,3.07112 20.61187,8.53774 5.46662,5.4666 8.53772,12.88092 8.53772,20.61189 v 0 c 0,16.09888 -13.05072,29.1496 -29.14959,29.1496 v 0 c -16.09888,0 -29.1496,-13.05072 -29.1496,-29.1496 z"
       stroke-linecap="butt"
       stroke-linejoin="round"
       stroke-width="1"
       stroke="#000000" />
    <path
       id="path1674"
       fill-rule="nonzero"
       d="m 417.85237,247.18046 v 1.57812 h -8.82813 q -0.0156,-0.59375 0.1875,-1.14062 0.34375,-0.90625 1.07813,-1.78125 0.75,-0.875 2.15625,-2.01563 2.17187,-1.78125 2.9375,-2.82812 0.76562,-1.04688 0.76562,-1.96875 0,-0.98438 -0.70312,-1.64063 -0.6875,-0.67187 -1.8125,-0.67187 -1.1875,0 -1.90625,0.71875 -0.70313,0.70312 -0.70313,1.95312 l -1.6875,-0.17187 q 0.17188,-1.89063 1.29688,-2.875 1.14062,-0.98438 3.03125,-0.98438 1.92187,0 3.04687,1.0625 1.125,1.0625 1.125,2.64063 0,0.79687 -0.32812,1.57812 -0.32813,0.78125 -1.09375,1.64063 -0.75,0.84375 -2.53125,2.34375 -1.46875,1.23437 -1.89063,1.6875 -0.42187,0.4375 -0.6875,0.875 z"
       fill="#000000" />
    <path
       id="path1676"
       fill-rule="evenodd"
       d="m 40.877946,241.8386 v 0 c 0,-16.09889 13.050728,-29.14963 29.14961,-29.14963 v 0 c 7.73095,0 15.14527,3.07112 20.61188,8.53774 5.46662,5.4666 8.53773,12.88092 8.53773,20.61189 v 0 c 0,16.09888 -13.05073,29.1496 -29.14962,29.1496 v 0 c -16.098872,0 -29.1496,-13.05072 -29.1496,-29.1496 z"
       fill="#cfe2f3" />
    <path
       id="path1678"
       fill-rule="evenodd"
       d="m 40.877946,241.8386 v 0 c 0,-16.09889 13.050728,-29.14963 29.14961,-29.14963 v 0 c 7.73095,0 15.14527,3.07112 20.61188,8.53774 5.46662,5.4666 8.53773,12.88092 8.53773,20.61189 v 0 c 0,16.09888 -13.05073,29.1496 -29.14962,29.1496 v 0 c -16.098872,0 -29.1496,-13.05072 -29.1496,-29.1496 z"
       stroke-linecap="butt"
       stroke-linejoin="round"
       stroke-width="1"
       stroke="#000000" />
    <path
       id="path1680"
       fill-rule="nonzero"
       d="m 74.120956,238.68046 -1.625,0.125 q -0.21875,-0.96875 -0.625,-1.40625 -0.65625,-0.70313 -1.64063,-0.70313 -0.78125,0 -1.375,0.4375 -0.76562,0.5625 -1.21875,1.65625 -0.45312,1.07813 -0.46875,3.07813 0.59375,-0.89063 1.45313,-1.32813 0.85937,-0.4375 1.79687,-0.4375 1.64063,0 2.78125,1.20313 1.15625,1.20312 1.15625,3.10937 0,1.26563 -0.54687,2.34375 -0.53125,1.07813 -1.48438,1.65625 -0.9375,0.57813 -2.14062,0.57813 -2.0625,0 -3.35938,-1.5 -1.281245,-1.51563 -1.281245,-4.98438 0,-3.875 1.421875,-5.625 1.25,-1.53125 3.375,-1.53125 1.5625,0 2.5625,0.89063 1.01562,0.875 1.21875,2.4375 z m -6.6875,5.75 q 0,0.84375 0.35937,1.625 0.35938,0.76562 1,1.17187 0.64063,0.40625 1.35938,0.40625 1.03125,0 1.78125,-0.82812 0.75,-0.84375 0.75,-2.28125 0,-1.39063 -0.73438,-2.1875 -0.73437,-0.79688 -1.85937,-0.79688 -1.10938,0 -1.89063,0.79688 -0.76562,0.79687 -0.76562,2.09375 z"
       fill="#000000" />
    <path
       id="path1682"
       fill-rule="evenodd"
       d="m 334.17717,120.3504 v 0 c 0,-16.09888 13.05072,-29.14961 29.1496,-29.14961 v 0 c 7.73095,0 15.14529,3.07112 20.61187,8.53773 5.46662,5.46661 8.53775,12.88092 8.53775,20.61188 v 0 c 0,16.09888 -13.05075,29.14961 -29.14962,29.14961 v 0 c -16.09888,0 -29.1496,-13.05073 -29.1496,-29.14961 z"
       fill="#fff2cc" />
    <path
       id="path1684"
       fill-rule="evenodd"
       d="m 334.17717,120.3504 v 0 c 0,-16.09888 13.05072,-29.14961 29.1496,-29.14961 v 0 c 7.73095,0 15.14529,3.07112 20.61187,8.53773 5.46662,5.46661 8.53775,12.88092 8.53775,20.61188 v 0 c 0,16.09888 -13.05075,29.14961 -29.14962,29.14961 v 0 c -16.09888,0 -29.1496,-13.05073 -29.1496,-29.14961 z"
       stroke-linecap="butt"
       stroke-linejoin="round"
       stroke-width="1"
       stroke="#000000" />
    <path
       id="path1686"
       fill-rule="nonzero"
       d="m 365.09203,127.2704 h -1.64062 v -10.45313 q -0.59375,0.5625 -1.5625,1.14063 -0.95313,0.5625 -1.71875,0.84375 v -1.59375 q 1.375,-0.64063 2.40625,-1.5625 1.03125,-0.92188 1.45312,-1.78125 h 1.0625 z"
       fill="#000000" />
    <path
       id="path1688"
       fill-rule="evenodd"
       d="m 334.17717,363.32676 v 0 c 0,-16.09888 13.05072,-29.1496 29.1496,-29.1496 v 0 c 7.73095,0 15.14529,3.07111 20.61187,8.53772 5.46662,5.46662 8.53775,12.88095 8.53775,20.61188 v 0 c 0,16.09891 -13.05075,29.14963 -29.14962,29.14963 v 0 c -16.09888,0 -29.1496,-13.05072 -29.1496,-29.14963 z"
       fill="#fff2cc" />
    <path
       id="path1690"
       fill-rule="evenodd"
       d="m 334.17717,363.32676 v 0 c 0,-16.09888 13.05072,-29.1496 29.1496,-29.1496 v 0 c 7.73095,0 15.14529,3.07111 20.61187,8.53772 5.46662,5.46662 8.53775,12.88095 8.53775,20.61188 v 0 c 0,16.09891 -13.05075,29.14963 -29.14962,29.14963 v 0 c -16.09888,0 -29.1496,-13.05072 -29.1496,-29.14963 z"
       stroke-linecap="butt"
       stroke-linejoin="round"
       stroke-width="1"
       stroke="#000000" />
    <path
       id="path1692"
       fill-rule="nonzero"
       d="m 358.92015,366.71553 1.64062,-0.21875 q 0.28125,1.40625 0.95313,2.01562 0.6875,0.60938 1.65625,0.60938 1.15625,0 1.95312,-0.79688 0.79688,-0.79687 0.79688,-1.98437 0,-1.125 -0.73438,-1.85938 -0.73437,-0.73437 -1.875,-0.73437 -0.46875,0 -1.15625,0.17187 l 0.1875,-1.4375 q 0.15625,0.0156 0.26563,0.0156 1.04687,0 1.875,-0.54688 0.84375,-0.54687 0.84375,-1.67187 0,-0.90625 -0.60938,-1.5 -0.60937,-0.59375 -1.57812,-0.59375 -0.95313,0 -1.59375,0.60937 -0.64063,0.59375 -0.8125,1.79688 l -1.64063,-0.29688 q 0.29688,-1.64062 1.35938,-2.54687 1.0625,-0.90625 2.65625,-0.90625 1.09375,0 2,0.46875 0.92187,0.46875 1.40625,1.28125 0.5,0.8125 0.5,1.71875 0,0.85937 -0.46875,1.57812 -0.46875,0.70313 -1.375,1.125 1.1875,0.28125 1.84375,1.14063 0.65625,0.85937 0.65625,2.15625 0,1.73437 -1.28125,2.95312 -1.26563,1.21875 -3.21875,1.21875 -1.76563,0 -2.92188,-1.04687 -1.15625,-1.04688 -1.32812,-2.71875 z"
       fill="#000000" />
    <path
       id="path1694"
       fill-rule="evenodd"
       d="m 0.5,486.24016 h 489.82678 v 48.06299 H 0.5 Z"
       fill-opacity="0"
       fill="#000000" />
    <path
       id="path1696"
       fill-rule="nonzero"
       d="m 169.18143,513.16016 v -13.35937 h 9.01562 v 1.57812 h -7.25 v 4.14063 h 6.26563 v 1.57812 h -6.26563 v 6.0625 z m 11.30223,0 v -13.35937 h 5.04688 q 1.32812,0 2.03125,0.125 0.96875,0.17187 1.64062,0.64062 0.67188,0.45313 1.07813,1.28125 0.40625,0.82813 0.40625,1.82813 0,1.70312 -1.09375,2.89062 -1.07813,1.17188 -3.92188,1.17188 h -3.42187 v 5.42187 z m 1.76563,-7 h 3.45312 q 1.71875,0 2.4375,-0.64062 0.71875,-0.64063 0.71875,-1.79688 0,-0.84375 -0.42187,-1.4375 -0.42188,-0.59375 -1.125,-0.78125 -0.4375,-0.125 -1.64063,-0.125 h -3.42187 z m 19.44357,-6.35937 h 1.76562 v 7.71875 q 0,2.01562 -0.45312,3.20312 -0.45313,1.1875 -1.64063,1.9375 -1.1875,0.73438 -3.125,0.73438 -1.875,0 -3.07812,-0.64063 -1.1875,-0.65625 -1.70313,-1.875 -0.5,-1.23437 -0.5,-3.35937 v -7.71875 h 1.76563 v 7.71875 q 0,1.73437 0.3125,2.5625 0.32812,0.8125 1.10937,1.26562 0.79688,0.45313 1.9375,0.45313 1.95313,0 2.78125,-0.89063 0.82813,-0.89062 0.82813,-3.39062 z m 15.95312,13.35937 v -1.21875 q -0.90625,1.4375 -2.70312,1.4375 -1.15625,0 -2.125,-0.64062 -0.96875,-0.64063 -1.5,-1.78125 -0.53125,-1.14063 -0.53125,-2.625 0,-1.45313 0.48437,-2.625 0.48438,-1.1875 1.4375,-1.8125 0.96875,-0.625 2.17188,-0.625 0.875,0 1.54687,0.375 0.6875,0.35937 1.10938,0.95312 v -4.79687 h 1.64062 v 13.35937 z m -5.17187,-4.82812 q 0,1.85937 0.78125,2.78125 0.78125,0.92187 1.84375,0.92187 1.07812,0 1.82812,-0.875 0.75,-0.89062 0.75,-2.6875 0,-1.98437 -0.76562,-2.90625 -0.76563,-0.9375 -1.89063,-0.9375 -1.07812,0 -1.8125,0.89063 -0.73437,0.89062 -0.73437,2.8125 z m 15.59448,3.64062 q -0.92187,0.76563 -1.76562,1.09375 -0.82813,0.3125 -1.79688,0.3125 -1.59375,0 -2.45312,-0.78125 -0.85939,-0.78125 -0.85939,-1.98437 0,-0.71875 0.32812,-1.29688 0.32814,-0.59375 0.84377,-0.9375 0.53125,-0.35937 1.1875,-0.54687 0.46875,-0.125 1.45312,-0.25 1.98438,-0.23438 2.92188,-0.5625 0.0156,-0.34375 0.0156,-0.42188 0,-1 -0.46875,-1.42187 -0.625,-0.54688 -1.875,-0.54688 -1.15625,0 -1.70312,0.40625 -0.54688,0.40625 -0.8125,1.42188 l -1.60939,-0.21875 q 0.21875,-1.01563 0.71876,-1.64063 0.5,-0.64062 1.45313,-0.98437 0.95312,-0.34375 2.1875,-0.34375 1.25,0 2.01562,0.29687 0.78125,0.28125 1.14063,0.73438 0.375,0.4375 0.51562,1.10937 0.0781,0.42188 0.0781,1.51563 v 2.1875 q 0,2.28125 0.10937,2.89062 0.10938,0.59375 0.40625,1.15625 h -1.70312 q -0.26563,-0.51562 -0.32813,-1.1875 z m -0.14062,-3.67187 q -0.89063,0.375 -2.67188,0.625 -1.01562,0.14062 -1.4375,0.32812 -0.42187,0.1875 -0.65625,0.53125 -0.21875,0.34375 -0.21875,0.78125 0,0.65625 0.5,1.09375 0.5,0.4375 1.45313,0.4375 0.9375,0 1.67187,-0.40625 0.75,-0.42187 1.09375,-1.14062 0.26563,-0.5625 0.26563,-1.64063 z m 7.78195,3.39062 0.23437,1.45313 q -0.6875,0.14062 -1.23437,0.14062 -0.89063,0 -1.39063,-0.28125 -0.48437,-0.28125 -0.6875,-0.73437 -0.20312,-0.46875 -0.20312,-1.9375 v -5.57813 h -1.20313 v -1.26562 h 1.20313 v -2.39063 l 1.625,-0.98437 v 3.375 h 1.65625 v 1.26562 h -1.65625 v 5.67188 q 0,0.6875 0.0781,0.89062 0.0937,0.20313 0.28125,0.32813 0.20313,0.10937 0.57813,0.10937 0.26562,0 0.71875,-0.0625 z m 7.91769,0.28125 q -0.92187,0.76563 -1.76562,1.09375 -0.82813,0.3125 -1.79688,0.3125 -1.59375,0 -2.45312,-0.78125 -0.85938,-0.78125 -0.85938,-1.98437 0,-0.71875 0.32813,-1.29688 0.32812,-0.59375 0.84375,-0.9375 0.53125,-0.35937 1.1875,-0.54687 0.46875,-0.125 1.45312,-0.25 1.98438,-0.23438 2.92188,-0.5625 0.0156,-0.34375 0.0156,-0.42188 0,-1 -0.46875,-1.42187 -0.625,-0.54688 -1.875,-0.54688 -1.15625,0 -1.70312,0.40625 -0.54688,0.40625 -0.8125,1.42188 l -1.60938,-0.21875 q 0.21875,-1.01563 0.71875,-1.64063 0.5,-0.64062 1.45313,-0.98437 0.95312,-0.34375 2.1875,-0.34375 1.25,0 2.01562,0.29687 0.78125,0.28125 1.14063,0.73438 0.375,0.4375 0.51562,1.10937 0.0781,0.42188 0.0781,1.51563 v 2.1875 q 0,2.28125 0.10937,2.89062 0.10938,0.59375 0.40625,1.15625 h -1.70312 q -0.26563,-0.51562 -0.32813,-1.1875 z m -0.14062,-3.67187 q -0.89063,0.375 -2.67188,0.625 -1.01562,0.14062 -1.4375,0.32812 -0.42187,0.1875 -0.65625,0.53125 -0.21875,0.34375 -0.21875,0.78125 0,0.65625 0.5,1.09375 0.5,0.4375 1.45313,0.4375 0.9375,0 1.67187,-0.40625 0.75,-0.42187 1.09375,-1.14062 0.26563,-0.5625 0.26563,-1.64063 z m 9.37152,4.85937 v -9.67187 h 1.46875 v 1.46875 q 0.5625,-1.03125 1.03125,-1.35938 0.48437,-0.32812 1.0625,-0.32812 0.82812,0 1.6875,0.53125 l -0.5625,1.51562 q -0.60938,-0.35937 -1.20313,-0.35937 -0.54687,0 -0.96875,0.32812 -0.42187,0.32813 -0.60937,0.89063 -0.28125,0.875 -0.28125,1.92187 v 5.0625 z m 12.8533,-3.10937 1.6875,0.20312 q -0.40625,1.48438 -1.48438,2.3125 -1.07812,0.8125 -2.76562,0.8125 -2.125,0 -3.375,-1.29687 -1.23438,-1.3125 -1.23438,-3.67188 0,-2.45312 1.25,-3.79687 1.26563,-1.34375 3.26563,-1.34375 1.9375,0 3.15625,1.32812 1.23437,1.3125 1.23437,3.70313 0,0.15625 0,0.4375 h -7.21875 q 0.0937,1.59375 0.90625,2.45312 0.8125,0.84375 2.01563,0.84375 0.90625,0 1.54687,-0.46875 0.64063,-0.48437 1.01563,-1.51562 z m -5.39063,-2.65625 h 5.40625 q -0.10937,-1.21875 -0.625,-1.82813 -0.78125,-0.95312 -2.03125,-0.95312 -1.125,0 -1.90625,0.76562 -0.76562,0.75 -0.84375,2.01563 z m 8.82886,6.5625 1.59375,0.23437 q 0.10938,0.75 0.5625,1.07813 0.60938,0.45312 1.67188,0.45312 1.14062,0 1.75,-0.45312 0.625,-0.45313 0.84375,-1.26563 0.125,-0.5 0.10937,-2.10937 -1.0625,1.26562 -2.67187,1.26562 -2,0 -3.09375,-1.4375 -1.09375,-1.4375 -1.09375,-3.45312 0,-1.39063 0.5,-2.5625 0.51562,-1.17188 1.45312,-1.79688 0.95313,-0.64062 2.25,-0.64062 1.70313,0 2.8125,1.375 v -1.15625 h 1.51563 v 8.35937 q 0,2.26563 -0.46875,3.20313 -0.45313,0.9375 -1.45313,1.48437 -0.98437,0.54688 -2.45312,0.54688 -1.71875,0 -2.79688,-0.78125 -1.0625,-0.76563 -1.03125,-2.34375 z m 1.35938,-5.8125 q 0,1.90625 0.75,2.78125 0.76562,0.875 1.90625,0.875 1.125,0 1.89062,-0.85938 0.76563,-0.875 0.76563,-2.73437 0,-1.78125 -0.79688,-2.67188 -0.78125,-0.90625 -1.89062,-0.90625 -1.09375,0 -1.85938,0.89063 -0.76562,0.875 -0.76562,2.625 z m 9.32882,-6.45313 v -1.89062 h 1.64063 v 1.89062 z m 0,11.46875 v -9.67187 h 1.64063 v 9.67187 z m 3.48856,-2.89062 1.625,-0.25 q 0.125,0.96875 0.75,1.5 0.625,0.51562 1.75,0.51562 1.125,0 1.67187,-0.45312 0.54688,-0.46875 0.54688,-1.09375 0,-0.54688 -0.48438,-0.875 -0.32812,-0.21875 -1.67187,-0.54688 -1.8125,-0.46875 -2.51563,-0.79687 -0.6875,-0.32813 -1.04687,-0.90625 -0.35938,-0.59375 -0.35938,-1.3125 0,-0.64063 0.29688,-1.1875 0.29687,-0.5625 0.8125,-0.92188 0.375,-0.28125 1.03125,-0.46875 0.67187,-0.20312 1.42187,-0.20312 1.14063,0 2,0.32812 0.85938,0.32813 1.26563,0.89063 0.42187,0.5625 0.57812,1.5 l -1.60937,0.21875 q -0.10938,-0.75 -0.64063,-1.17188 -0.51562,-0.42187 -1.46875,-0.42187 -1.14062,0 -1.625,0.375 -0.46875,0.375 -0.46875,0.875 0,0.3125 0.1875,0.57812 0.20313,0.26563 0.64063,0.4375 0.23437,0.0937 1.4375,0.42188 1.75,0.45312 2.4375,0.75 0.6875,0.29687 1.07812,0.85937 0.39063,0.5625 0.39063,1.40625 0,0.82813 -0.48438,1.54688 -0.46875,0.71875 -1.375,1.125 -0.90625,0.39062 -2.04687,0.39062 -1.875,0 -2.875,-0.78125 -0.98438,-0.78125 -1.25,-2.32812 z m 13.5625,1.42187 0.23437,1.45313 q -0.6875,0.14062 -1.23437,0.14062 -0.89063,0 -1.39063,-0.28125 -0.48437,-0.28125 -0.6875,-0.73437 -0.20312,-0.46875 -0.20312,-1.9375 v -5.57813 h -1.20313 v -1.26562 h 1.20313 v -2.39063 l 1.625,-0.98437 v 3.375 h 1.65625 v 1.26562 h -1.65625 v 5.67188 q 0,0.6875 0.0781,0.89062 0.0937,0.20313 0.28125,0.32813 0.20313,0.10937 0.57813,0.10937 0.26562,0 0.71875,-0.0625 z m 8.23019,-1.64062 1.6875,0.20312 q -0.40625,1.48438 -1.48437,2.3125 -1.07813,0.8125 -2.76563,0.8125 -2.125,0 -3.375,-1.29687 -1.23437,-1.3125 -1.23437,-3.67188 0,-2.45312 1.25,-3.79687 1.26562,-1.34375 3.26562,-1.34375 1.9375,0 3.15625,1.32812 1.23438,1.3125 1.23438,3.70313 0,0.15625 0,0.4375 h -7.21875 q 0.0937,1.59375 0.90625,2.45312 0.8125,0.84375 2.01562,0.84375 0.90625,0 1.54688,-0.46875 0.64062,-0.48437 1.01562,-1.51562 z m -5.39062,-2.65625 h 5.40625 q -0.10938,-1.21875 -0.625,-1.82813 -0.78125,-0.95312 -2.03125,-0.95312 -1.125,0 -1.90625,0.76562 -0.76563,0.75 -0.84375,2.01563 z m 9.1257,5.76562 v -9.67187 h 1.46875 v 1.46875 q 0.5625,-1.03125 1.03125,-1.35938 0.48438,-0.32812 1.0625,-0.32812 0.82813,0 1.6875,0.53125 l -0.5625,1.51562 q -0.60937,-0.35937 -1.20312,-0.35937 -0.54688,0 -0.96875,0.32812 -0.42188,0.32813 -0.60938,0.89063 -0.28125,0.875 -0.28125,1.92187 v 5.0625 z m 5.57208,-2.89062 1.625,-0.25 q 0.125,0.96875 0.75,1.5 0.625,0.51562 1.75,0.51562 1.125,0 1.67188,-0.45312 0.54687,-0.46875 0.54687,-1.09375 0,-0.54688 -0.48437,-0.875 -0.32813,-0.21875 -1.67188,-0.54688 -1.8125,-0.46875 -2.51562,-0.79687 -0.6875,-0.32813 -1.04688,-0.90625 -0.35937,-0.59375 -0.35937,-1.3125 0,-0.64063 0.29687,-1.1875 0.29688,-0.5625 0.8125,-0.92188 0.375,-0.28125 1.03125,-0.46875 0.67188,-0.20312 1.42188,-0.20312 1.14062,0 2,0.32812 0.85937,0.32813 1.26562,0.89063 0.42188,0.5625 0.57813,1.5 l -1.60938,0.21875 q -0.10937,-0.75 -0.64062,-1.17188 -0.51563,-0.42187 -1.46875,-0.42187 -1.14063,0 -1.625,0.375 -0.46875,0.375 -0.46875,0.875 0,0.3125 0.1875,0.57812 0.20312,0.26563 0.64062,0.4375 0.23438,0.0937 1.4375,0.42188 1.75,0.45312 2.4375,0.75 0.6875,0.29687 1.07813,0.85937 0.39062,0.5625 0.39062,1.40625 0,0.82813 -0.48437,1.54688 -0.46875,0.71875 -1.375,1.125 -0.90625,0.39062 -2.04688,0.39062 -1.875,0 -2.875,-0.78125 -0.98437,-0.78125 -1.25,-2.32812 z"
       fill="#000000" />
    <path
       id="path1698"
       fill-rule="evenodd"
       d="M 241.84415,240.79362 140.96227,342.71488"
       fill-opacity="0"
       fill="#000000" />
    <path
       id="path1700"
       fill-rule="evenodd"
       d="m 241.84415,240.79366 -92.4402,93.39258"
       stroke-linecap="butt"
       stroke-linejoin="round"
       stroke-width="2"
       stroke="#000000" />
    <path
       id="path1702"
       fill-rule="evenodd"
       d="m 147.05611,331.86236 -4.03702,8.77454 8.73271,-4.12674 z"
       stroke-linecap="butt"
       stroke-width="2"
       stroke="#000000"
       fill="#000000" />
    <path
       id="path1704"
       fill-rule="evenodd"
       d="M 243.87007,242.84648 99.177166,241.83861"
       fill-opacity="0"
       fill="#000000" />
    <path
       id="path1706"
       fill-rule="evenodd"
       d="M 243.87007,242.84648 111.17688,241.92216"
       stroke-linecap="butt"
       stroke-linejoin="round"
       stroke-width="2"
       stroke="#cccccc" />
    <path
       id="path1708"
       fill-rule="evenodd"
       d="m 111.19989,238.61879 -9.09898,3.24017 9.05296,3.36661 z"
       stroke-linecap="butt"
       stroke-width="2"
       stroke="#cccccc"
       fill="#cccccc" />
    <path
       id="path1710"
       fill-rule="evenodd"
       d="M 241.84415,241.84419 140.96227,140.96229"
       fill-opacity="0"
       fill="#000000" />
    <path
       id="path1712"
       fill-rule="evenodd"
       d="M 241.84415,241.84416 149.44754,149.44757"
       stroke-linecap="butt"
       stroke-linejoin="round"
       stroke-width="2"
       stroke="#b7b7b7" />
    <path
       id="path1714"
       fill-rule="evenodd"
       d="m 151.78346,147.11166 -8.75375,-4.08192 4.08194,8.75373 z"
       stroke-linecap="butt"
       stroke-width="2"
       stroke="#b7b7b7"
       fill="#b7b7b7" />
    <path
       id="path1716"
       fill-rule="evenodd"
       d="m 119.55512,320.92061 71.33858,-71.33856 21.79527,21.79526 -71.33858,71.33859 z"
       fill-opacity="0"
       fill="#000000" />
    <path
       id="path1718"
       fill-rule="nonzero"
       d="m 155.32803,317.14161 1.07172,-1.27057 q 0.79548,0.61871 1.5468,0.77341 0.76234,0.14361 1.69041,-0.20993 0.92808,-0.37567 1.73463,-1.18219 0.7071,-0.70713 1.04961,-1.46945 0.3425,-0.76236 0.24307,-1.39212 -0.11049,-0.64084 -0.55243,-1.08277 -0.44194,-0.44195 -1.03857,-0.50824 -0.58557,-0.0773 -1.40315,0.27622 -0.53034,0.24307 -2.14342,1.23742 -1.6131,0.97229 -2.40859,1.21537 -1.03857,0.33145 -1.88929,0.14361 -0.8618,-0.19888 -1.51366,-0.85074 -0.70711,-0.70709 -0.91702,-1.73462 -0.22098,-1.03857 0.23201,-2.13235 0.46403,-1.10486 1.41421,-2.05505 1.04961,-1.0496 2.18761,-1.5026 1.138,-0.4751 2.23181,-0.24307 1.08276,0.22098 1.94455,1.01648 l -1.10486,1.28161 q -0.99437,-0.79547 -2.01083,-0.68499 -1.01647,0.0884 -2.09923,1.17114 -1.138,1.138 -1.23744,2.07712 -0.0994,0.93915 0.48614,1.52472 0.50823,0.50821 1.20429,0.45297 0.68501,-0.0221 2.56326,-1.19324 1.8672,-1.18219 2.6848,-1.49154 1.20429,-0.45301 2.17656,-0.25412 0.98332,0.18783 1.74567,0.95016 0.75131,0.75131 0.99437,1.85617 0.23202,1.09381 -0.19887,2.276 -0.44194,1.17114 -1.45841,2.18759 -1.28163,1.28165 -2.53012,1.77884 -1.23744,0.48612 -2.48591,0.232 -1.23745,-0.26514 -2.20972,-1.19324 z m 14.66571,-8.58899 -8.3306,-8.33063 -3.11569,3.1157 -1.1159,-1.11591 7.47987,-7.47986 1.1159,1.11591 -3.11569,3.11569 8.3306,8.3306 z m 10.48886,-4.9425 q -2.16551,-0.24308 -4.45256,-1.20429 -2.28705,-0.96121 -4.03273,-2.70691 -1.52469,-1.52469 -2.43068,-3.42505 -1.04961,-2.22073 -1.4584,-5.03811 l 0.82864,-0.82865 q 0.56348,2.11026 0.88388,2.93891 0.49719,1.2706 1.23744,2.47488 0.92807,1.4805 2.14342,2.69583 3.0936,3.0936 8.10963,4.26474 z m -5.57277,-9.29859 q -1.66832,-1.66833 -2.34228,-3.02728 -0.68502,-1.37003 -0.56348,-2.59641 0.13258,-1.23745 1.1601,-2.26495 0.76236,-0.76236 1.64624,-1.02753 0.87283,-0.27621 1.82301,-0.0552 0.95016,0.19885 1.98874,0.81759 1.03856,0.59662 2.44172,1.99979 1.66832,1.6683 2.35334,3.03833 0.67396,1.35898 0.55243,2.60745 -0.12154,1.22641 -1.1601,2.26496 -1.35898,1.35897 -3.12674,1.16009 -2.11027,-0.25409 -4.77298,-2.91681 z m 1.18221,-1.18219 q 2.33123,2.33124 3.64601,2.56326 1.31477,0.20994 2.11027,-0.58557 0.80655,-0.80655 0.57453,-2.1213 -0.23201,-1.31479 -2.55222,-3.63498 -2.33124,-2.33124 -3.63496,-2.55222 -1.30373,-0.22098 -2.12132,0.59662 -0.79551,0.7955 -0.59662,1.94455 0.25412,1.46945 2.57431,3.78964 z m 14.67297,0.19837 -0.83969,0.83969 q -1.1601,-5.0271 -4.25369,-8.12067 -1.21533,-1.21536 -2.67375,-2.12134 -1.19324,-0.75128 -2.47487,-1.23742 -0.83969,-0.33146 -2.97206,-0.89493 l 0.83969,-0.83969 q 2.81738,0.40878 5.03814,1.4584 1.8893,0.91702 3.41399,2.44171 1.74568,1.7457 2.70689,4.03275 0.96123,2.28705 1.21535,4.4415 z"
       fill="#000000" />
    <path
       id="path1720"
       fill-rule="evenodd"
       d="M 99.176726,212.69014 H 200.05863 V 243.5248 H 99.176726 Z"
       fill-opacity="0"
       fill="#000000" />
    <path
       id="path1722"
       fill-rule="nonzero"
       d="m 127.14111,235.31326 1.65625,-0.14063 q 0.125,1 0.54687,1.64063 0.4375,0.64062 1.34375,1.04687 0.92188,0.39061 2.0625,0.39061 1,0 1.78125,-0.29686 0.78125,-0.29687 1.15625,-0.8125 0.375,-0.53125 0.375,-1.15625 0,-0.625 -0.375,-1.09375 -0.35937,-0.46875 -1.1875,-0.79687 -0.54687,-0.20313 -2.39062,-0.64063 -1.82813,-0.45312 -2.5625,-0.84375 -0.96875,-0.5 -1.4375,-1.23437 -0.46875,-0.75 -0.46875,-1.67188 0,-1 0.57812,-1.875 0.57813,-0.89062 1.67188,-1.34375 1.10937,-0.45312 2.45312,-0.45312 1.48438,0 2.60938,0.48437 1.14062,0.46875 1.75,1.40625 0.60937,0.92188 0.65625,2.09375 l -1.6875,0.125 q -0.14063,-1.26562 -0.9375,-1.90625 -0.78125,-0.65625 -2.3125,-0.65625 -1.60938,0 -2.34375,0.59375 -0.73438,0.59375 -0.73438,1.42188 0,0.71875 0.53125,1.17187 0.5,0.46875 2.65625,0.96875 2.15625,0.48438 2.95313,0.84375 1.17187,0.53125 1.71875,1.35938 0.5625,0.82812 0.5625,1.90625 0,1.0625 -0.60938,2.01562 -0.60937,0.93749 -1.75,1.46874 -1.14062,0.51562 -2.57812,0.51562 -1.8125,0 -3.04688,-0.53125 -1.21875,-0.53125 -1.92187,-1.59373 -0.6875,-1.0625 -0.71875,-2.40625 z m 16.44357,4.29686 v -11.78124 h -4.40625 v -1.57812 h 10.57813 v 1.57812 h -4.40625 v 11.78124 z m 10.91161,3.92187 q -1.35938,-1.70312 -2.29688,-4 -0.9375,-2.29685 -0.9375,-4.7656 0,-2.15625 0.70313,-4.14063 0.82812,-2.3125 2.53125,-4.59375 h 1.17187 q -1.09375,1.89063 -1.45312,2.70313 -0.54688,1.25 -0.875,2.625 -0.39063,1.70312 -0.39063,3.42187 0,4.37498 2.71875,8.74999 z m 8.80643,-3.92187 h -1.64063 v -10.45311 q -0.59375,0.5625 -1.5625,1.14062 -0.95312,0.5625 -1.71875,0.84375 v -1.59375 q 1.375,-0.64062 2.40625,-1.5625 1.03125,-0.92187 1.45313,-1.78125 h 1.0625 z m 5.73509,3.92187 h -1.1875 q 2.73437,-4.375 2.73437,-8.74998 0,-1.71875 -0.39062,-3.39063 -0.3125,-1.375 -0.875,-2.625 -0.35938,-0.82812 -1.46875,-2.73437 h 1.1875 q 1.70312,2.28125 2.53125,4.59375 0.6875,1.98437 0.6875,4.14062 0,2.46875 -0.9375,4.76561 -0.9375,2.29688 -2.28125,4 z"
       fill="#000000" />
    <path
       id="path1724"
       fill-rule="evenodd"
       d="m 162.75775,113.49664 71.33858,71.33858 -21.79527,21.79527 -71.33858,-71.33858 z"
       fill-opacity="0"
       fill="#000000" />
    <path
       id="path1726"
       fill-rule="nonzero"
       d="m 166.53675,149.26956 1.27058,1.07172 q -0.61871,0.79548 -0.77339,1.54679 -0.14363,0.76235 0.20992,1.69042 0.37565,0.92808 1.18219,1.73462 0.70711,0.70711 1.46946,1.04962 0.76235,0.3425 1.39211,0.24307 0.64082,-0.11049 1.08276,-0.55243 0.44194,-0.44194 0.50824,-1.03857 0.0773,-0.58557 -0.27621,-1.40315 -0.24307,-0.53034 -1.23744,-2.14342 -0.97228,-1.6131 -1.21534,-2.40859 -0.33146,-1.03857 -0.14363,-1.88931 0.19887,-0.86178 0.85073,-1.51364 0.7071,-0.70711 1.73463,-0.91704 1.03856,-0.22096 2.13237,0.23203 1.10484,0.46403 2.05502,1.41421 1.04961,1.04961 1.5026,2.18761 0.4751,1.138 0.24307,2.23181 -0.22096,1.08276 -1.01646,1.94455 l -1.28163,-1.10486 q 0.7955,-0.99437 0.68501,-2.01083 -0.0884,-1.01647 -1.17114,-2.09923 -1.138,-1.138 -2.07714,-1.23744 -0.93912,-0.0994 -1.5247,0.48614 -0.50823,0.50823 -0.45299,1.20429 0.0221,0.68501 1.19325,2.56326 1.18219,1.8672 1.49155,2.6848 0.45299,1.20429 0.25412,2.17656 -0.18782,0.98332 -0.95018,1.74567 -0.7513,0.75131 -1.85616,0.99437 -1.09379,0.23202 -2.276,-0.19887 -1.17114,-0.44194 -2.1876,-1.45841 -1.28163,-1.28163 -1.77883,-2.53012 -0.48613,-1.23744 -0.23201,-2.48591 0.26517,-1.23745 1.19324,-2.20972 z m 8.58902,14.66571 8.3306,-8.3306 -3.1157,-3.11569 1.11591,-1.1159 7.47986,7.47987 -1.11589,1.11589 -3.11569,-3.11568 -8.33062,8.3306 z m 4.94249,10.48886 q 0.24306,-2.16551 1.20428,-4.45256 0.96123,-2.28705 2.7069,-4.03273 1.5247,-1.52469 3.42505,-2.43068 2.22075,-1.04961 5.03813,-1.4584 l 0.82864,0.82864 q -2.11027,0.56348 -2.93892,0.88388 -1.27058,0.49719 -2.47487,1.23744 -1.48049,0.92807 -2.69584,2.14342 -3.09358,3.0936 -4.26474,8.10963 z m 11.83974,4.06157 -1.11591,1.11591 -6.24243,-6.24244 q 0.4088,-0.43089 0.93913,-0.67396 0.88388,-0.39775 2.02188,-0.49718 1.14905,-0.0884 2.94997,0.0994 2.79527,0.27621 4.07692,0.0773 1.28163,-0.19886 1.93349,-0.85073 0.69606,-0.69606 0.66291,-1.65728 -0.011,-0.96122 -0.80655,-1.75673 -0.83969,-0.83969 -1.85615,-0.83969 -0.99437,0 -1.87825,0.88388 l -1.07172,-1.31477 q 1.45841,-1.21533 2.94997,-1.11591 1.50259,0.11049 2.83948,1.44738 1.35898,1.35896 1.40316,2.90576 0.0442,1.5468 -1.07171,2.6627 -0.56348,0.56348 -1.34792,0.88388 -0.78445,0.32041 -1.9335,0.38671 -1.12695,0.0663 -3.44714,-0.13259 -1.9114,-0.16574 -2.53012,-0.14363 -0.60767,0.0111 -1.10485,0.13257 z m -1.55733,6.22084 -0.83969,-0.83969 q 5.02708,-1.1601 8.12066,-4.25369 1.21535,-1.21534 2.12133,-2.67376 0.75131,-1.19323 1.23744,-2.47486 0.33145,-0.8397 0.89493,-2.97207 l 0.83969,0.8397 q -0.4088,2.81738 -1.45841,5.03813 -0.91703,1.88931 -2.44172,3.414 -1.74567,1.74568 -4.03272,2.70689 -2.28705,0.96123 -4.44151,1.21535 z"
       fill="#000000" />
    <path
       id="path1728"
       fill-rule="evenodd"
       d="m 133.5105,338.78413 71.33858,-71.33856 21.79529,21.79526 -71.33859,71.33859 z"
       fill-opacity="0"
       fill="#000000" />
    <path
       id="path1730"
       fill-rule="nonzero"
       d="m 176.23792,339.67372 q -2.16553,-0.24307 -4.45258,-1.20428 -2.28704,-0.96125 -4.03271,-2.70691 -1.52469,-1.52469 -2.43068,-3.42505 -1.04961,-2.22077 -1.4584,-5.03812 l 0.82864,-0.82864 q 0.56348,2.11026 0.88388,2.9389 0.49718,1.27057 1.23744,2.47488 0.92807,1.4805 2.14342,2.69584 3.09358,3.09359 8.10962,4.26474 z m 1.96234,-7.50873 -8.3306,-8.3306 -3.11569,3.1157 -1.1159,-1.11591 7.47985,-7.47986 1.11591,1.11591 -3.11569,3.11569 8.33061,8.3306 z m 0.43929,-9.63165 q -2.35334,-2.35336 -2.41964,-4.93872 -0.0773,-2.59641 1.92246,-4.59619 1.30373,-1.30371 2.98309,-1.72357 1.66834,-0.43088 3.34772,0.14364 1.66833,0.56348 3.08255,1.97769 1.43631,1.43631 1.98872,3.15988 0.55243,1.70148 0.0773,3.34769 -0.47508,1.64624 -1.71252,2.88367 -1.32582,1.32583 -3.01625,1.73465 -1.70148,0.39773 -3.35877,-0.17679 -1.65727,-0.57452 -2.89471,-1.81195 z m 1.29268,-1.2706 q 1.71252,1.71252 3.61286,1.77881 1.90036,0.0663 3.29247,-1.32581 1.41421,-1.41421 1.32584,-3.31457 -0.0884,-1.90036 -1.91141,-3.72336 -1.14905,-1.14905 -2.39752,-1.62415 -1.24849,-0.47506 -2.46384,-0.1878 -1.22638,0.27621 -2.15446,1.20428 -1.33687,1.33689 -1.38106,3.21512 -0.0442,1.85617 2.07712,3.97748 z m 13.94029,-4.76999 -9.44651,-9.4465 3.56868,-3.5687 q 0.93914,-0.93911 1.52471,-1.34793 0.80653,-0.56347 1.61308,-0.70709 0.7955,-0.15469 1.66834,0.14362 0.87283,0.29833 1.57994,1.00543 1.20428,1.20428 1.27058,2.81738 0.0663,1.59097 -1.94455,3.60181 l -2.41963,2.41964 3.83385,3.83384 z m -3.70127,-6.19824 2.44173,-2.44174 q 1.21535,-1.21534 1.27058,-2.17655 0.0553,-0.96124 -0.76234,-1.77881 -0.59662,-0.59661 -1.31477,-0.71817 -0.71816,-0.12152 -1.34793,0.24308 -0.39775,0.22097 -1.24848,1.07171 l -2.41963,2.41962 z m 15.89211,-0.44623 -0.83969,0.83969 q -1.1601,-5.0271 -4.25369,-8.1207 -1.21534,-1.21533 -2.67376,-2.1213 -1.19323,-0.75131 -2.47487,-1.23743 -0.83969,-0.33148 -2.97206,-0.89496 l 0.83969,-0.83969 q 2.81739,0.40881 5.03815,1.45844 1.8893,0.91702 3.41399,2.44171 1.74568,1.74566 2.70689,4.03271 0.96123,2.28705 1.21535,4.44153 z"
       fill="#000000" />
    <path
       id="path1732"
       fill-rule="evenodd"
       d="m 492.55775,7.644364 h 256.5039 v 48.062992 h -256.5039 z"
       fill="#d9ead3" />
    <path
       id="path1734"
       fill-rule="evenodd"
       d="m 492.55775,7.644364 h 256.5039 v 48.062992 h -256.5039 z"
       stroke-linecap="butt"
       stroke-linejoin="round"
       stroke-width="1"
       stroke="#000000" />
    <path
       id="path1736"
       fill-rule="nonzero"
       d="m 607.40858,38.59586 v -8.40625 h -1.45312 v -1.265625 h 1.45312 v -1.03125 q 0,-0.96875 0.17188,-1.453125 0.23437,-0.640625 0.82812,-1.03125 0.59375,-0.390625 1.67188,-0.390625 0.6875,0 1.53125,0.15625 l -0.25,1.4375 q -0.5,-0.09375 -0.95313,-0.09375 -0.75,0 -1.0625,0.328125 -0.3125,0.3125 -0.3125,1.1875 v 0.890625 h 1.89063 v 1.265625 h -1.89063 v 8.40625 z m 11.10516,-3.546875 1.60938,0.21875 q -0.26563,1.65625 -1.35938,2.609375 -1.07812,0.9375 -2.67187,0.9375 -1.98438,0 -3.1875,-1.296875 -1.20313,-1.296875 -1.20313,-3.71875 0,-1.578125 0.51563,-2.75 0.51562,-1.171875 1.57812,-1.75 1.0625,-0.59375 2.3125,-0.59375 1.57813,0 2.57813,0.796875 1,0.796875 1.28125,2.265625 l -1.59375,0.234375 q -0.23438,-0.96875 -0.8125,-1.453125 -0.57813,-0.5 -1.39063,-0.5 -1.23437,0 -2.01562,0.890625 -0.78125,0.890625 -0.78125,2.8125 0,1.953125 0.75,2.84375 0.75,0.875 1.95312,0.875 0.96875,0 1.60938,-0.59375 0.65625,-0.59375 0.82812,-1.828125 z m 6.59375,2.078125 0.23438,1.453125 q -0.6875,0.140625 -1.23438,0.140625 -0.89062,0 -1.39062,-0.28125 -0.48438,-0.28125 -0.6875,-0.734375 -0.20313,-0.46875 -0.20313,-1.9375 V 30.18961 h -1.20312 v -1.265625 h 1.20312 V 26.53336 l 1.625,-0.984375 v 3.375 h 1.65625 v 1.265625 h -1.65625 v 5.671875 q 0,0.6875 0.0781,0.890625 0.0937,0.203125 0.28125,0.328125 0.20312,0.109375 0.57812,0.109375 0.26563,0 0.71875,-0.0625 z m 1.5896,1.46875 v -9.671875 h 1.46875 v 1.46875 q 0.5625,-1.03125 1.03125,-1.359375 0.48438,-0.328125 1.0625,-0.328125 0.82813,0 1.6875,0.53125 l -0.5625,1.515625 q -0.60937,-0.359375 -1.20312,-0.359375 -0.54688,0 -0.96875,0.328125 -0.42188,0.328125 -0.60938,0.890625 -0.28125,0.875 -0.28125,1.921875 v 5.0625 z m 6.1814,0 V 25.236485 h 1.64063 V 38.59586 Z"
       fill="#000000" />
    <path
       id="path1738"
       fill-rule="evenodd"
       d="m 492.55775,74.7756 h 256.5039 v 48.06299 h -256.5039 z"
       fill="#d9ead3" />
    <path
       id="path1740"
       fill-rule="evenodd"
       d="m 492.55775,74.7756 h 256.5039 v 48.06299 h -256.5039 z"
       stroke-linecap="butt"
       stroke-linejoin="round"
       stroke-width="1"
       stroke="#000000" />
    <path
       id="path1742"
       fill-rule="nonzero"
       d="m 604.80782,105.72709 v -8.40625 h -1.45313 v -1.26562 h 1.45313 v -1.03125 q 0,-0.96875 0.17187,-1.45313 0.23438,-0.64062 0.82813,-1.03125 0.59375,-0.39062 1.67187,-0.39062 0.6875,0 1.53125,0.15625 l -0.25,1.4375 q -0.5,-0.0937 -0.95312,-0.0937 -0.75,0 -1.0625,0.32812 -0.3125,0.3125 -0.3125,1.1875 v 0.89063 h 1.89062 v 1.26562 h -1.89062 v 8.40625 z m 4.13647,-2.89062 1.625,-0.25 q 0.125,0.96875 0.75,1.5 0.625,0.51562 1.75,0.51562 1.125,0 1.67188,-0.45312 0.54687,-0.46875 0.54687,-1.09375 0,-0.54688 -0.48437,-0.875 -0.32813,-0.21875 -1.67188,-0.54688 -1.8125,-0.46875 -2.51562,-0.79687 -0.6875,-0.32813 -1.04688,-0.90625 -0.35937,-0.59375 -0.35937,-1.3125 0,-0.64063 0.29687,-1.1875 0.29688,-0.5625 0.8125,-0.92188 0.375,-0.28125 1.03125,-0.46875 0.67188,-0.20312 1.42188,-0.20312 1.14062,0 2,0.32812 0.85937,0.32813 1.26562,0.89063 0.42188,0.5625 0.57813,1.5 l -1.60938,0.21875 q -0.10937,-0.75 -0.64062,-1.17188 -0.51563,-0.42187 -1.46875,-0.42187 -1.14063,0 -1.625,0.375 -0.46875,0.375 -0.46875,0.875 0,0.3125 0.1875,0.57812 0.20312,0.26563 0.64062,0.4375 0.23438,0.0937 1.4375,0.42188 1.75,0.45312 2.4375,0.75 0.6875,0.29687 1.07813,0.85937 0.39062,0.5625 0.39062,1.40625 0,0.82813 -0.48437,1.54688 -0.46875,0.71875 -1.375,1.125 -0.90625,0.39062 -2.04688,0.39062 -1.875,0 -2.875,-0.78125 -0.98437,-0.78125 -1.25,-2.32812 z m 13.5625,1.42187 0.23438,1.45313 q -0.6875,0.14062 -1.23438,0.14062 -0.89062,0 -1.39062,-0.28125 -0.48438,-0.28125 -0.6875,-0.73437 -0.20313,-0.46875 -0.20313,-1.9375 v -5.57813 h -1.20312 v -1.26562 h 1.20312 v -2.39063 l 1.625,-0.98437 v 3.375 h 1.65625 v 1.26562 h -1.65625 v 5.67188 q 0,0.6875 0.0781,0.89062 0.0937,0.20313 0.28125,0.32813 0.20312,0.10937 0.57812,0.10937 0.26563,0 0.71875,-0.0625 z m 7.91767,0.28125 q -0.92188,0.76563 -1.76563,1.09375 -0.82812,0.3125 -1.79687,0.3125 -1.59375,0 -2.45313,-0.78125 -0.85937,-0.78125 -0.85937,-1.98437 0,-0.71875 0.32812,-1.29688 0.32813,-0.59375 0.84375,-0.9375 0.53125,-0.35937 1.1875,-0.54687 0.46875,-0.125 1.45313,-0.25 1.98437,-0.23438 2.92187,-0.5625 0.0156,-0.34375 0.0156,-0.42188 0,-1 -0.46875,-1.42187 -0.625,-0.54688 -1.875,-0.54688 -1.15625,0 -1.70313,0.40625 -0.54687,0.40625 -0.8125,1.42188 l -1.60937,-0.21875 q 0.21875,-1.01563 0.71875,-1.64063 0.5,-0.64062 1.45312,-0.98437 0.95313,-0.34375 2.1875,-0.34375 1.25,0 2.01563,0.29687 0.78125,0.28125 1.14062,0.73438 0.375,0.4375 0.51563,1.10937 0.0781,0.42188 0.0781,1.51563 v 2.1875 q 0,2.28125 0.10938,2.89062 0.10937,0.59375 0.40625,1.15625 h -1.70313 q -0.26562,-0.51562 -0.32812,-1.1875 z m -0.14063,-3.67187 q -0.89062,0.375 -2.67187,0.625 -1.01563,0.14062 -1.4375,0.32812 -0.42188,0.1875 -0.65625,0.53125 -0.21875,0.34375 -0.21875,0.78125 0,0.65625 0.5,1.09375 0.5,0.4375 1.45312,0.4375 0.9375,0 1.67188,-0.40625 0.75,-0.42187 1.09375,-1.14062 0.26562,-0.5625 0.26562,-1.64063 z m 7.78199,3.39062 0.23437,1.45313 q -0.6875,0.14062 -1.23437,0.14062 -0.89063,0 -1.39063,-0.28125 -0.48437,-0.28125 -0.6875,-0.73437 -0.20312,-0.46875 -0.20312,-1.9375 v -5.57813 h -1.20313 v -1.26562 h 1.20313 v -2.39063 l 1.625,-0.98437 v 3.375 h 1.65625 v 1.26562 h -1.65625 v 5.67188 q 0,0.6875 0.0781,0.89062 0.0937,0.20313 0.28125,0.32813 0.20313,0.10937 0.57813,0.10937 0.26562,0 0.71875,-0.0625 z"
       fill="#000000" />
    <path
       id="path1744"
       fill-rule="evenodd"
       d="m 492.55775,141.90683 h 256.5039 v 48.063 h -256.5039 z"
       fill="#d9ead3" />
    <path
       id="path1746"
       fill-rule="evenodd"
       d="m 492.55775,141.90683 h 256.5039 v 48.063 h -256.5039 z"
       stroke-linecap="butt"
       stroke-linejoin="round"
       stroke-width="1"
       stroke="#000000" />
    <path
       id="path1748"
       fill-rule="nonzero"
       d="m 606.87569,172.85832 v -8.40625 h -1.45313 v -1.26563 h 1.45313 v -1.03125 q 0,-0.96875 0.17187,-1.45312 0.23438,-0.64063 0.82813,-1.03125 0.59375,-0.39063 1.67187,-0.39063 0.6875,0 1.53125,0.15625 l -0.25,1.4375 q -0.5,-0.0937 -0.95312,-0.0937 -0.75,0 -1.0625,0.32813 -0.3125,0.3125 -0.3125,1.1875 v 0.89062 h 1.89062 v 1.26563 h -1.89062 v 8.40625 z m 8.37079,-1.46875 0.23437,1.45312 q -0.6875,0.14063 -1.23437,0.14063 -0.89063,0 -1.39063,-0.28125 -0.48437,-0.28125 -0.6875,-0.73438 -0.20312,-0.46875 -0.20312,-1.9375 v -5.57812 h -1.20313 v -1.26563 h 1.20313 v -2.39062 l 1.625,-0.98438 v 3.375 h 1.65625 v 1.26563 h -1.65625 v 5.67187 q 0,0.6875 0.0781,0.89063 0.0937,0.20312 0.28125,0.32812 0.20313,0.10938 0.57813,0.10938 0.26562,0 0.71875,-0.0625 z m 7.91772,0.28125 q -0.92187,0.76562 -1.76562,1.09375 -0.82813,0.3125 -1.79688,0.3125 -1.59375,0 -2.45312,-0.78125 -0.85938,-0.78125 -0.85938,-1.98438 0,-0.71875 0.32813,-1.29687 0.32812,-0.59375 0.84375,-0.9375 0.53125,-0.35938 1.1875,-0.54688 0.46875,-0.125 1.45312,-0.25 1.98438,-0.23437 2.92188,-0.5625 0.0156,-0.34375 0.0156,-0.42187 0,-1 -0.46875,-1.42188 -0.625,-0.54687 -1.875,-0.54687 -1.15625,0 -1.70312,0.40625 -0.54688,0.40625 -0.8125,1.42187 l -1.60938,-0.21875 q 0.21875,-1.01562 0.71875,-1.64062 0.5,-0.64063 1.45313,-0.98438 0.95312,-0.34375 2.1875,-0.34375 1.25,0 2.01562,0.29688 0.78125,0.28125 1.14063,0.73437 0.375,0.4375 0.51562,1.10938 0.0781,0.42187 0.0781,1.51562 v 2.1875 q 0,2.28125 0.10937,2.89063 0.10938,0.59375 0.40625,1.15625 h -1.70312 q -0.26563,-0.51563 -0.32813,-1.1875 z m -0.14062,-3.67188 q -0.89063,0.375 -2.67188,0.625 -1.01562,0.14063 -1.4375,0.32813 -0.42187,0.1875 -0.65625,0.53125 -0.21875,0.34375 -0.21875,0.78125 0,0.65625 0.5,1.09375 0.5,0.4375 1.45313,0.4375 0.9375,0 1.67187,-0.40625 0.75,-0.42188 1.09375,-1.14063 0.26563,-0.5625 0.26563,-1.64062 z m 3.89129,5.65625 1.59375,0.23438 q 0.10938,0.75 0.5625,1.07812 0.60938,0.45313 1.67188,0.45313 1.14062,0 1.75,-0.45313 0.625,-0.45312 0.84375,-1.26562 0.125,-0.5 0.10937,-2.10938 -1.0625,1.26563 -2.67187,1.26563 -2,0 -3.09375,-1.4375 -1.09375,-1.4375 -1.09375,-3.45313 0,-1.39062 0.5,-2.5625 0.51562,-1.17187 1.45312,-1.79687 0.95313,-0.64063 2.25,-0.64063 1.70313,0 2.8125,1.375 v -1.15625 h 1.51563 v 8.35938 q 0,2.26562 -0.46875,3.20312 -0.45313,0.9375 -1.45313,1.48438 -0.98437,0.54687 -2.45312,0.54687 -1.71875,0 -2.79688,-0.78125 -1.0625,-0.76562 -1.03125,-2.34375 z m 1.35938,-5.8125 q 0,1.90625 0.75,2.78125 0.76562,0.875 1.90625,0.875 1.125,0 1.89062,-0.85937 0.76563,-0.875 0.76563,-2.73438 0,-1.78125 -0.79688,-2.67187 -0.78125,-0.90625 -1.89062,-0.90625 -1.09375,0 -1.85938,0.89062 -0.76562,0.875 -0.76562,2.625 z"
       fill="#000000" />
    <path
       id="path1750"
       fill-rule="evenodd"
       d="m 492.55775,209.03807 h 256.5039 v 48.06299 h -256.5039 z"
       fill="#fce5cd" />
    <path
       id="path1752"
       fill-rule="evenodd"
       d="m 492.55775,209.03807 h 256.5039 v 48.06299 h -256.5039 z"
       stroke-linecap="butt"
       stroke-linejoin="round"
       stroke-width="1"
       stroke="#000000" />
    <path
       id="path1754"
       fill-rule="nonzero"
       d="m 609.46735,239.98956 v -8.40624 h -1.45313 v -1.26562 h 1.45313 v -1.03125 q 0,-0.96875 0.17187,-1.45313 0.23438,-0.64062 0.82813,-1.03125 0.59375,-0.39062 1.67187,-0.39062 0.6875,0 1.53125,0.15625 l -0.25,1.4375 q -0.5,-0.0937 -0.95312,-0.0937 -0.75,0 -1.0625,0.32812 -0.3125,0.3125 -0.3125,1.1875 v 0.89063 h 1.89062 v 1.26562 h -1.89062 v 8.40624 z m 4.18329,-4.84373 q 0,-2.6875 1.48437,-3.96875 1.25,-1.07813 3.04688,-1.07813 2,0 3.26562,1.3125 1.26563,1.29688 1.26563,3.60938 0,1.85937 -0.5625,2.9375 -0.5625,1.06248 -1.64063,1.65623 -1.0625,0.59375 -2.32812,0.59375 -2.03125,0 -3.28125,-1.29688 -1.25,-1.31248 -1.25,-3.7656 z m 1.6875,0 q 0,1.85937 0.79687,2.79687 0.8125,0.92186 2.04688,0.92186 1.21875,0 2.03125,-0.92186 0.8125,-0.9375 0.8125,-2.84375 0,-1.79687 -0.8125,-2.71875 -0.8125,-0.92187 -2.03125,-0.92187 -1.23438,0 -2.04688,0.92187 -0.79687,0.90625 -0.79687,2.76563 z m 9.29761,8.54686 V 230.3177 h 1.48437 v 1.25 q 0.53125,-0.73437 1.1875,-1.09375 0.67188,-0.375 1.625,-0.375 1.23438,0 2.17188,0.64063 0.95312,0.625 1.4375,1.79687 0.48437,1.15625 0.48437,2.54688 0,1.48437 -0.53125,2.67187 -0.53125,1.18748 -1.54687,1.82811 -1.01563,0.625 -2.14063,0.625 -0.8125,0 -1.46875,-0.34375 -0.65625,-0.34375 -1.0625,-0.875 v 4.70312 z m 1.48437,-8.48436 q 0,1.85937 0.75,2.76562 0.76563,0.89061 1.82813,0.89061 1.09375,0 1.875,-0.92186 0.78125,-0.9375 0.78125,-2.875 0,-1.84375 -0.76563,-2.76562 -0.75,-0.92188 -1.8125,-0.92188 -1.04687,0 -1.85937,0.98438 -0.79688,0.96875 -0.79688,2.84375 z"
       fill="#000000" />
    <path
       id="path1756"
       fill-rule="evenodd"
       d="m 492.55775,276.16929 h 256.5039 v 93.13385 h -256.5039 z"
       fill="#fce5cd" />
    <path
       id="path1758"
       fill-rule="evenodd"
       d="m 492.55775,276.16929 h 256.5039 v 93.13385 h -256.5039 z"
       stroke-linecap="butt"
       stroke-linejoin="round"
       stroke-width="1"
       stroke="#000000" />
    <path
       id="path1760"
       fill-rule="nonzero"
       d="m 612.58275,307.65623 v -8.40625 h -1.45312 v -1.26563 h 1.45312 v -1.03125 q 0,-0.96875 0.17188,-1.45312 0.23437,-0.64063 0.82812,-1.03125 0.59375,-0.39063 1.67188,-0.39063 0.6875,0 1.53125,0.15625 l -0.25,1.4375 q -0.5,-0.0937 -0.95313,-0.0937 -0.75,0 -1.0625,0.32813 -0.3125,0.3125 -0.3125,1.1875 v 0.89062 h 1.89063 v 1.26563 h -1.89063 v 8.40625 z m 4.79266,-11.46875 v -1.89063 h 1.64063 v 1.89063 z m 0,11.46875 v -9.67188 h 1.64063 v 9.67188 z m 4.14484,3.70312 v -13.375 h 1.48438 v 1.25 q 0.53125,-0.73437 1.1875,-1.09375 0.67187,-0.375 1.625,-0.375 1.23437,0 2.17187,0.64063 0.95313,0.625 1.4375,1.79687 0.48438,1.15625 0.48438,2.54688 0,1.48437 -0.53125,2.67187 -0.53125,1.1875 -1.54688,1.82813 -1.01562,0.625 -2.14062,0.625 -0.8125,0 -1.46875,-0.34375 -0.65625,-0.34375 -1.0625,-0.875 v 4.70312 z m 1.48438,-8.48437 q 0,1.85937 0.75,2.76562 0.76562,0.89063 1.82812,0.89063 1.09375,0 1.875,-0.92188 0.78125,-0.9375 0.78125,-2.875 0,-1.84375 -0.76562,-2.76562 -0.75,-0.92188 -1.8125,-0.92188 -1.04688,0 -1.85938,0.98438 -0.79687,0.96875 -0.79687,2.84375 z"
       fill="#000000" />
    <path
       id="path1762"
       fill-rule="evenodd"
       d="m 492.55775,321.08268 h 70.55115 v 48.06299 h -70.55115 z"
       fill="#ffd966" />
    <path
       id="path1764"
       fill-rule="evenodd"
       d="m 492.55775,321.08268 h 70.55115 v 48.06299 h -70.55115 z"
       stroke-linecap="butt"
       stroke-linejoin="round"
       stroke-width="1"
       stroke="#000000" />
    <path
       id="path1766"
       fill-rule="nonzero"
       d="m 509.75445,352.03419 v -8.40625 h -1.45312 v -1.26562 h 1.45312 v -1.03125 q 0,-0.96875 0.17188,-1.45313 0.23437,-0.64062 0.82812,-1.03125 0.59375,-0.39062 1.67188,-0.39062 0.6875,0 1.53125,0.15625 l -0.25,1.4375 q -0.5,-0.0937 -0.95313,-0.0937 -0.75,0 -1.0625,0.32812 -0.3125,0.3125 -0.3125,1.1875 v 0.89063 h 1.89063 v 1.26562 h -1.89063 v 8.40625 z m 4.79272,-11.46875 v -1.89062 h 1.64063 v 1.89062 z m 0,11.46875 v -9.67187 h 1.64063 v 9.67187 z m 3.48853,-2.89062 1.625,-0.25 q 0.125,0.96875 0.75,1.5 0.625,0.51562 1.75,0.51562 1.125,0 1.67188,-0.45312 0.54687,-0.46875 0.54687,-1.09375 0,-0.54688 -0.48437,-0.875 -0.32813,-0.21875 -1.67188,-0.54688 -1.8125,-0.46875 -2.51562,-0.79687 -0.6875,-0.32813 -1.04688,-0.90625 -0.35937,-0.59375 -0.35937,-1.3125 0,-0.64063 0.29687,-1.1875 0.29688,-0.5625 0.8125,-0.92188 0.375,-0.28125 1.03125,-0.46875 0.67188,-0.20312 1.42188,-0.20312 1.14062,0 2,0.32812 0.85937,0.32813 1.26562,0.89063 0.42188,0.5625 0.57813,1.5 l -1.60938,0.21875 q -0.10937,-0.75 -0.64062,-1.17188 -0.51563,-0.42187 -1.46875,-0.42187 -1.14063,0 -1.625,0.375 -0.46875,0.375 -0.46875,0.875 0,0.3125 0.1875,0.57812 0.20312,0.26563 0.64062,0.4375 0.23438,0.0937 1.4375,0.42188 1.75,0.45312 2.4375,0.75 0.6875,0.29687 1.07813,0.85937 0.39062,0.5625 0.39062,1.40625 0,0.82813 -0.48437,1.54688 -0.46875,0.71875 -1.375,1.125 -0.90625,0.39062 -2.04688,0.39062 -1.875,0 -2.875,-0.78125 -0.98437,-0.78125 -1.25,-2.32812 z m 16.60938,-0.21875 1.6875,0.20312 q -0.40625,1.48438 -1.48438,2.3125 -1.07812,0.8125 -2.76562,0.8125 -2.125,0 -3.375,-1.29687 -1.23438,-1.3125 -1.23438,-3.67188 0,-2.45312 1.25,-3.79687 1.26563,-1.34375 3.26563,-1.34375 1.9375,0 3.15625,1.32812 1.23437,1.3125 1.23437,3.70313 0,0.15625 0,0.4375 h -7.21875 q 0.0937,1.59375 0.90625,2.45312 0.8125,0.84375 2.01563,0.84375 0.90625,0 1.54687,-0.46875 0.64063,-0.48437 1.01563,-1.51562 z m -5.39063,-2.65625 h 5.40625 q -0.10937,-1.21875 -0.625,-1.82813 -0.78125,-0.95312 -2.03125,-0.95312 -1.125,0 -1.90625,0.76562 -0.76562,0.75 -0.84375,2.01563 z m 8.82886,6.5625 1.59375,0.23437 q 0.10937,0.75 0.5625,1.07813 0.60937,0.45312 1.67187,0.45312 1.14063,0 1.75,-0.45312 0.625,-0.45313 0.84375,-1.26563 0.125,-0.5 0.10938,-2.10937 -1.0625,1.26562 -2.67188,1.26562 -2,0 -3.09375,-1.4375 -1.09375,-1.4375 -1.09375,-3.45312 0,-1.39063 0.5,-2.5625 0.51563,-1.17188 1.45313,-1.79688 0.95312,-0.64062 2.25,-0.64062 1.70312,0 2.8125,1.375 v -1.15625 h 1.51562 v 8.35937 q 0,2.26563 -0.46875,3.20313 -0.45312,0.9375 -1.45312,1.48437 -0.98438,0.54688 -2.45313,0.54688 -1.71875,0 -2.79687,-0.78125 -1.0625,-0.76563 -1.03125,-2.34375 z m 1.35937,-5.8125 q 0,1.90625 0.75,2.78125 0.76563,0.875 1.90625,0.875 1.125,0 1.89063,-0.85938 0.76562,-0.875 0.76562,-2.73437 0,-1.78125 -0.79687,-2.67188 -0.78125,-0.90625 -1.89063,-0.90625 -1.09375,0 -1.85937,0.89063 -0.76563,0.875 -0.76563,2.625 z"
       fill="#000000" />
    <path
       id="path1768"
       fill-rule="evenodd"
       d="m 563.1089,321.08268 h 185.95276 v 48.06299 H 563.1089 Z"
       fill="#ffd966" />
    <path
       id="path1770"
       fill-rule="evenodd"
       d="m 563.1089,321.08268 h 185.95276 v 48.06299 H 563.1089 Z"
       stroke-linecap="butt"
       stroke-linejoin="round"
       stroke-width="1"
       stroke="#000000" />
    <path
       id="path1772"
       fill-rule="nonzero"
       d="m 642.8437,352.03419 v -8.40625 h -1.45312 v -1.26562 h 1.45312 v -1.03125 q 0,-0.96875 0.17188,-1.45313 0.23437,-0.64062 0.82812,-1.03125 0.59375,-0.39062 1.67188,-0.39062 0.6875,0 1.53125,0.15625 l -0.25,1.4375 q -0.5,-0.0937 -0.95313,-0.0937 -0.75,0 -1.0625,0.32812 -0.3125,0.3125 -0.3125,1.1875 v 0.89063 h 1.89063 v 1.26562 h -1.89063 v 8.40625 z m 4.79266,-11.46875 v -1.89062 h 1.64063 v 1.89062 z m 0,11.46875 v -9.67187 h 1.64063 v 9.67187 z m 3.53547,-4.84375 q 0,-2.6875 1.48437,-3.96875 1.25,-1.07812 3.04688,-1.07812 2,0 3.26562,1.3125 1.26563,1.29687 1.26563,3.60937 0,1.85938 -0.5625,2.9375 -0.5625,1.0625 -1.64063,1.65625 -1.0625,0.59375 -2.32812,0.59375 -2.03125,0 -3.28125,-1.29687 -1.25,-1.3125 -1.25,-3.76563 z m 1.6875,0 q 0,1.85938 0.79687,2.79688 0.8125,0.92187 2.04688,0.92187 1.21875,0 2.03125,-0.92187 0.8125,-0.9375 0.8125,-2.84375 0,-1.79688 -0.8125,-2.71875 -0.8125,-0.92188 -2.03125,-0.92188 -1.23438,0 -2.04688,0.92188 -0.79687,0.90625 -0.79687,2.76562 z m 9.68823,4.84375 v -8.40625 h -1.45313 v -1.26562 h 1.45313 v -1.03125 q 0,-0.96875 0.17187,-1.45313 0.23438,-0.64062 0.82813,-1.03125 0.59375,-0.39062 1.67187,-0.39062 0.6875,0 1.53125,0.15625 l -0.25,1.4375 q -0.5,-0.0937 -0.95312,-0.0937 -0.75,0 -1.0625,0.32812 -0.3125,0.3125 -0.3125,1.1875 v 0.89063 h 1.89062 v 1.26562 h -1.89062 v 8.40625 z m 4.84607,0 v -8.40625 h -1.45313 v -1.26562 h 1.45313 v -1.03125 q 0,-0.96875 0.17187,-1.45313 0.23438,-0.64062 0.82813,-1.03125 0.59375,-0.39062 1.67187,-0.39062 0.6875,0 1.53125,0.15625 l -0.25,1.4375 q -0.5,-0.0937 -0.95312,-0.0937 -0.75,0 -1.0625,0.32812 -0.3125,0.3125 -0.3125,1.1875 v 0.89063 h 1.89062 v 1.26562 h -1.89062 v 8.40625 z"
       fill="#000000" />
    <path
       id="path1774"
       fill-rule="evenodd"
       d="m 492.55775,388.37141 h 256.5039 v 93.13385 h -256.5039 z"
       fill="#fce5cd" />
    <path
       id="path1776"
       fill-rule="evenodd"
       d="m 492.55775,388.37141 h 256.5039 v 93.13385 h -256.5039 z"
       stroke-linecap="butt"
       stroke-linejoin="round"
       stroke-width="1"
       stroke="#000000" />
    <path
       id="path1778"
       fill-rule="nonzero"
       d="m 609.46735,419.85832 v -8.40625 h -1.45313 v -1.26563 h 1.45313 v -1.03125 q 0,-0.96875 0.17187,-1.45312 0.23438,-0.64063 0.82813,-1.03125 0.59375,-0.39063 1.67187,-0.39063 0.6875,0 1.53125,0.15625 l -0.25,1.4375 q -0.5,-0.0937 -0.95312,-0.0937 -0.75,0 -1.0625,0.32813 -0.3125,0.3125 -0.3125,1.1875 v 0.89062 h 1.89062 v 1.26563 h -1.89062 v 8.40625 z m 11.05829,0 v -1.21875 q -0.90625,1.4375 -2.70313,1.4375 -1.15625,0 -2.125,-0.64063 -0.96875,-0.64062 -1.5,-1.78125 -0.53125,-1.14062 -0.53125,-2.625 0,-1.45312 0.48438,-2.625 0.48437,-1.1875 1.4375,-1.8125 0.96875,-0.625 2.17187,-0.625 0.875,0 1.54688,0.375 0.6875,0.35938 1.10937,0.95313 v -4.79688 h 1.64063 v 13.35938 z m -5.17188,-4.82813 q 0,1.85938 0.78125,2.78125 0.78125,0.92188 1.84375,0.92188 1.07813,0 1.82813,-0.875 0.75,-0.89063 0.75,-2.6875 0,-1.98438 -0.76563,-2.90625 -0.76562,-0.9375 -1.89062,-0.9375 -1.07813,0 -1.8125,0.89062 -0.73438,0.89063 -0.73438,2.8125 z m 9.28199,8.53125 v -13.375 h 1.48437 v 1.25 q 0.53125,-0.73437 1.1875,-1.09375 0.67188,-0.375 1.625,-0.375 1.23438,0 2.17188,0.64063 0.95312,0.625 1.4375,1.79687 0.48437,1.15625 0.48437,2.54688 0,1.48437 -0.53125,2.67187 -0.53125,1.1875 -1.54687,1.82813 -1.01563,0.625 -2.14063,0.625 -0.8125,0 -1.46875,-0.34375 -0.65625,-0.34375 -1.0625,-0.875 v 4.70312 z m 1.48437,-8.48437 q 0,1.85937 0.75,2.76562 0.76563,0.89063 1.82813,0.89063 1.09375,0 1.875,-0.92188 0.78125,-0.9375 0.78125,-2.875 0,-1.84375 -0.76563,-2.76562 -0.75,-0.92188 -1.8125,-0.92188 -1.04687,0 -1.85937,0.98438 -0.79688,0.96875 -0.79688,2.84375 z"
       fill="#000000" />
    <path
       id="path1780"
       fill-rule="evenodd"
       d="m 492.55775,433.28476 h 70.55115 v 48.06302 h -70.55115 z"
       fill="#ffd966" />
    <path
       id="path1782"
       fill-rule="evenodd"
       d="m 492.55775,433.28476 h 70.55115 v 48.06302 h -70.55115 z"
       stroke-linecap="butt"
       stroke-linejoin="round"
       stroke-width="1"
       stroke="#000000" />
    <path
       id="path1784"
       fill-rule="nonzero"
       d="m 506.63905,464.23628 v -8.40625 h -1.45313 v -1.26562 h 1.45313 v -1.03125 q 0,-0.96875 0.17187,-1.45313 0.23438,-0.64062 0.82813,-1.03125 0.59375,-0.39062 1.67187,-0.39062 0.6875,0 1.53125,0.15625 l -0.25,1.4375 q -0.5,-0.0937 -0.95312,-0.0937 -0.75,0 -1.0625,0.32812 -0.3125,0.3125 -0.3125,1.1875 v 0.89063 h 1.89062 v 1.26562 h -1.89062 v 8.40625 z m 4.18329,-4.84375 q 0,-2.6875 1.48437,-3.96875 1.25,-1.07812 3.04688,-1.07812 2,0 3.26562,1.3125 1.26563,1.29687 1.26563,3.60937 0,1.85938 -0.5625,2.9375 -0.5625,1.0625 -1.64063,1.65625 -1.0625,0.59375 -2.32812,0.59375 -2.03125,0 -3.28125,-1.29687 -1.25,-1.3125 -1.25,-3.76563 z m 1.6875,0 q 0,1.85938 0.79687,2.79688 0.8125,0.92187 2.04688,0.92187 1.21875,0 2.03125,-0.92187 0.8125,-0.9375 0.8125,-2.84375 0,-1.79688 -0.8125,-2.71875 -0.8125,-0.92188 -2.03125,-0.92188 -1.23438,0 -2.04688,0.92188 -0.79687,0.90625 -0.79687,2.76562 z m 8.64136,1.95313 1.625,-0.25 q 0.125,0.96875 0.75,1.5 0.625,0.51562 1.75,0.51562 1.125,0 1.67187,-0.45312 0.54688,-0.46875 0.54688,-1.09375 0,-0.54688 -0.48438,-0.875 -0.32812,-0.21875 -1.67187,-0.54688 -1.8125,-0.46875 -2.51563,-0.79687 -0.6875,-0.32813 -1.04687,-0.90625 -0.35938,-0.59375 -0.35938,-1.3125 0,-0.64063 0.29688,-1.1875 0.29687,-0.5625 0.8125,-0.92188 0.375,-0.28125 1.03125,-0.46875 0.67187,-0.20312 1.42187,-0.20312 1.14063,0 2,0.32812 0.85938,0.32813 1.26563,0.89063 0.42187,0.5625 0.57812,1.5 l -1.60937,0.21875 q -0.10938,-0.75 -0.64063,-1.17188 -0.51562,-0.42187 -1.46875,-0.42187 -1.14062,0 -1.625,0.375 -0.46875,0.375 -0.46875,0.875 0,0.3125 0.1875,0.57812 0.20313,0.26563 0.64063,0.4375 0.23437,0.0937 1.4375,0.42188 1.75,0.45312 2.4375,0.75 0.6875,0.29687 1.07812,0.85937 0.39063,0.5625 0.39063,1.40625 0,0.82813 -0.48438,1.54688 -0.46875,0.71875 -1.375,1.125 -0.90625,0.39062 -2.04687,0.39062 -1.875,0 -2.875,-0.78125 -0.98438,-0.78125 -1.25,-2.32812 z m 16.60937,-0.21875 1.6875,0.20312 q -0.40625,1.48438 -1.48437,2.3125 -1.07813,0.8125 -2.76563,0.8125 -2.125,0 -3.375,-1.29687 -1.23437,-1.3125 -1.23437,-3.67188 0,-2.45312 1.25,-3.79687 1.26562,-1.34375 3.26562,-1.34375 1.9375,0 3.15625,1.32812 1.23438,1.3125 1.23438,3.70313 0,0.15625 0,0.4375 h -7.21875 q 0.0937,1.59375 0.90625,2.45312 0.8125,0.84375 2.01562,0.84375 0.90625,0 1.54688,-0.46875 0.64062,-0.48437 1.01562,-1.51562 z m -5.39062,-2.65625 h 5.40625 q -0.10938,-1.21875 -0.625,-1.82813 -0.78125,-0.95312 -2.03125,-0.95312 -1.125,0 -1.90625,0.76562 -0.76563,0.75 -0.84375,2.01563 z m 8.82885,6.5625 1.59375,0.23437 q 0.10938,0.75 0.5625,1.07813 0.60938,0.45312 1.67188,0.45312 1.14062,0 1.75,-0.45312 0.625,-0.45313 0.84375,-1.26563 0.125,-0.5 0.10937,-2.10937 -1.0625,1.26562 -2.67187,1.26562 -2,0 -3.09375,-1.4375 -1.09375,-1.4375 -1.09375,-3.45312 0,-1.39063 0.5,-2.5625 0.51562,-1.17188 1.45312,-1.79688 0.95313,-0.64062 2.25,-0.64062 1.70313,0 2.8125,1.375 v -1.15625 h 1.51563 v 8.35937 q 0,2.26563 -0.46875,3.20313 -0.45313,0.9375 -1.45313,1.48437 -0.98437,0.54688 -2.45312,0.54688 -1.71875,0 -2.79688,-0.78125 -1.0625,-0.76563 -1.03125,-2.34375 z m 1.35938,-5.8125 q 0,1.90625 0.75,2.78125 0.76562,0.875 1.90625,0.875 1.125,0 1.89062,-0.85938 0.76563,-0.875 0.76563,-2.73437 0,-1.78125 -0.79688,-2.67188 -0.78125,-0.90625 -1.89062,-0.90625 -1.09375,0 -1.85938,0.89063 -0.76562,0.875 -0.76562,2.625 z"
       fill="#000000" />
    <path
       id="path1786"
       fill-rule="evenodd"
       d="m 563.1089,433.28476 h 185.95276 v 48.06302 H 563.1089 Z"
       fill="#ffd966" />
    <path
       id="path1788"
       fill-rule="evenodd"
       d="m 563.1089,433.28476 h 185.95276 v 48.06302 H 563.1089 Z"
       stroke-linecap="butt"
       stroke-linejoin="round"
       stroke-width="1"
       stroke="#000000" />
    <path
       id="path1790"
       fill-rule="nonzero"
       d="m 639.72825,464.23628 v -8.40625 h -1.45313 v -1.26562 h 1.45313 v -1.03125 q 0,-0.96875 0.17187,-1.45313 0.23438,-0.64062 0.82813,-1.03125 0.59375,-0.39062 1.67187,-0.39062 0.6875,0 1.53125,0.15625 l -0.25,1.4375 q -0.5,-0.0937 -0.95312,-0.0937 -0.75,0 -1.0625,0.32812 -0.3125,0.3125 -0.3125,1.1875 v 0.89063 h 1.89062 v 1.26562 h -1.89062 v 8.40625 z m 4.18335,-4.84375 q 0,-2.6875 1.48437,-3.96875 1.25,-1.07812 3.04688,-1.07812 2,0 3.26562,1.3125 1.26563,1.29687 1.26563,3.60937 0,1.85938 -0.5625,2.9375 -0.5625,1.0625 -1.64063,1.65625 -1.0625,0.59375 -2.32812,0.59375 -2.03125,0 -3.28125,-1.29687 -1.25,-1.3125 -1.25,-3.76563 z m 1.6875,0 q 0,1.85938 0.79687,2.79688 0.8125,0.92187 2.04688,0.92187 1.21875,0 2.03125,-0.92187 0.8125,-0.9375 0.8125,-2.84375 0,-1.79688 -0.8125,-2.71875 -0.8125,-0.92188 -2.03125,-0.92188 -1.23438,0 -2.04688,0.92188 -0.79687,0.90625 -0.79687,2.76562 z m 8.68817,0 q 0,-2.6875 1.48438,-3.96875 1.25,-1.07812 3.04687,-1.07812 2,0 3.26563,1.3125 1.26562,1.29687 1.26562,3.60937 0,1.85938 -0.5625,2.9375 -0.5625,1.0625 -1.64062,1.65625 -1.0625,0.59375 -2.32813,0.59375 -2.03125,0 -3.28125,-1.29687 -1.25,-1.3125 -1.25,-3.76563 z m 1.6875,0 q 0,1.85938 0.79688,2.79688 0.8125,0.92187 2.04687,0.92187 1.21875,0 2.03125,-0.92187 0.8125,-0.9375 0.8125,-2.84375 0,-1.79688 -0.8125,-2.71875 -0.8125,-0.92188 -2.03125,-0.92188 -1.23437,0 -2.04687,0.92188 -0.79688,0.90625 -0.79688,2.76562 z m 9.68823,4.84375 v -8.40625 h -1.45312 v -1.26562 h 1.45312 v -1.03125 q 0,-0.96875 0.17188,-1.45313 0.23437,-0.64062 0.82812,-1.03125 0.59375,-0.39062 1.67188,-0.39062 0.6875,0 1.53125,0.15625 l -0.25,1.4375 q -0.5,-0.0937 -0.95313,-0.0937 -0.75,0 -1.0625,0.32812 -0.3125,0.3125 -0.3125,1.1875 v 0.89063 h 1.89063 v 1.26562 H 667.288 v 8.40625 z m 4.84607,0 v -8.40625 h -1.45312 v -1.26562 h 1.45312 v -1.03125 q 0,-0.96875 0.17188,-1.45313 0.23437,-0.64062 0.82812,-1.03125 0.59375,-0.39062 1.67188,-0.39062 0.6875,0 1.53125,0.15625 l -0.25,1.4375 q -0.5,-0.0937 -0.95313,-0.0937 -0.75,0 -1.0625,0.32812 -0.3125,0.3125 -0.3125,1.1875 v 0.89063 h 1.89063 v 1.26562 h -1.89063 v 8.40625 z"
       fill="#000000" />
    <path
       id="path1792"
       fill-rule="evenodd"
       d="m 477.71785,486.24016 h 271.33856 v 48.06299 H 477.71785 Z"
       fill-opacity="0"
       fill="#000000" />
    <path
       id="path1794"
       fill-rule="nonzero"
       d="m 527.31235,513.16016 v -13.35937 h 9.01563 v 1.57812 h -7.25 v 4.14063 h 6.26562 v 1.57812 h -6.26562 v 6.0625 z m 11.30225,0 v -13.35937 h 5.04687 q 1.32813,0 2.03125,0.125 0.96875,0.17187 1.64063,0.64062 0.67187,0.45313 1.07812,1.28125 0.40625,0.82813 0.40625,1.82813 0,1.70312 -1.09375,2.89062 -1.07812,1.17188 -3.92187,1.17188 h -3.42188 v 5.42187 z m 1.76562,-7 h 3.45313 q 1.71875,0 2.4375,-0.64062 0.71875,-0.64063 0.71875,-1.79688 0,-0.84375 -0.42188,-1.4375 -0.42187,-0.59375 -1.125,-0.78125 -0.4375,-0.125 -1.64062,-0.125 h -3.42188 z m 19.44361,-6.35937 h 1.76562 v 7.71875 q 0,2.01562 -0.45312,3.20312 -0.45313,1.1875 -1.64063,1.9375 -1.1875,0.73438 -3.125,0.73438 -1.875,0 -3.07812,-0.64063 -1.1875,-0.65625 -1.70313,-1.875 -0.5,-1.23437 -0.5,-3.35937 v -7.71875 h 1.76563 v 7.71875 q 0,1.73437 0.3125,2.5625 0.32812,0.8125 1.10937,1.26562 0.79688,0.45313 1.9375,0.45313 1.95313,0 2.78125,-0.89063 0.82813,-0.89062 0.82813,-3.39062 z m 16,9.8125 1.60937,0.21875 q -0.26562,1.65625 -1.35937,2.60937 -1.07813,0.9375 -2.67188,0.9375 -1.98437,0 -3.1875,-1.29687 -1.20312,-1.29688 -1.20312,-3.71875 0,-1.57813 0.51562,-2.75 0.51563,-1.17188 1.57813,-1.75 1.0625,-0.59375 2.3125,-0.59375 1.57812,0 2.57812,0.79687 1,0.79688 1.28125,2.26563 l -1.59375,0.23437 q -0.23437,-0.96875 -0.8125,-1.45312 -0.57812,-0.5 -1.39062,-0.5 -1.23438,0 -2.01563,0.89062 -0.78125,0.89063 -0.78125,2.8125 0,1.95313 0.75,2.84375 0.75,0.875 1.95313,0.875 0.96875,0 1.60937,-0.59375 0.65625,-0.59375 0.82813,-1.82812 z m 2.40625,-1.29688 q 0,-2.6875 1.48437,-3.96875 1.25,-1.07812 3.04688,-1.07812 2,0 3.26562,1.3125 1.26563,1.29687 1.26563,3.60937 0,1.85938 -0.5625,2.9375 -0.5625,1.0625 -1.64063,1.65625 -1.0625,0.59375 -2.32812,0.59375 -2.03125,0 -3.28125,-1.29687 -1.25,-1.3125 -1.25,-3.76563 z m 1.6875,0 q 0,1.85938 0.79687,2.79688 0.8125,0.92187 2.04688,0.92187 1.21875,0 2.03125,-0.92187 0.8125,-0.9375 0.8125,-2.84375 0,-1.79688 -0.8125,-2.71875 -0.8125,-0.92188 -2.03125,-0.92188 -1.23438,0 -2.04688,0.92188 -0.79687,0.90625 -0.79687,2.76562 z m 9.29754,4.84375 v -9.67187 h 1.46875 v 1.375 q 1.0625,-1.59375 3.07813,-1.59375 0.875,0 1.60937,0.3125 0.73438,0.3125 1.09375,0.82812 0.375,0.5 0.51563,1.20313 0.0937,0.45312 0.0937,1.59375 v 5.95312 h -1.64063 v -5.89062 q 0,-1 -0.20312,-1.48438 -0.1875,-0.5 -0.67188,-0.79687 -0.48437,-0.29688 -1.14062,-0.29688 -1.04688,0 -1.8125,0.67188 -0.75,0.65625 -0.75,2.51562 v 5.28125 z m 13.95386,-1.46875 0.23437,1.45313 q -0.6875,0.14062 -1.23437,0.14062 -0.89063,0 -1.39063,-0.28125 -0.48437,-0.28125 -0.6875,-0.73437 -0.20312,-0.46875 -0.20312,-1.9375 v -5.57813 h -1.20313 v -1.26562 h 1.20313 v -2.39063 l 1.625,-0.98437 v 3.375 h 1.65625 v 1.26562 h -1.65625 v 5.67188 q 0,0.6875 0.0781,0.89062 0.0937,0.20313 0.28125,0.32813 0.20313,0.10937 0.57813,0.10937 0.26562,0 0.71875,-0.0625 z m 1.58954,1.46875 v -9.67187 h 1.46875 v 1.46875 q 0.5625,-1.03125 1.03125,-1.35938 0.48437,-0.32812 1.0625,-0.32812 0.82812,0 1.6875,0.53125 l -0.5625,1.51562 q -0.60938,-0.35937 -1.20313,-0.35937 -0.54687,0 -0.96875,0.32812 -0.42187,0.32813 -0.60937,0.89063 -0.28125,0.875 -0.28125,1.92187 v 5.0625 z m 5.61895,-4.84375 q 0,-2.6875 1.48438,-3.96875 1.25,-1.07812 3.04687,-1.07812 2,0 3.26563,1.3125 1.26562,1.29687 1.26562,3.60937 0,1.85938 -0.5625,2.9375 -0.5625,1.0625 -1.64062,1.65625 -1.0625,0.59375 -2.32813,0.59375 -2.03125,0 -3.28125,-1.29687 -1.25,-1.3125 -1.25,-3.76563 z m 1.6875,0 q 0,1.85938 0.79688,2.79688 0.8125,0.92187 2.04687,0.92187 1.21875,0 2.03125,-0.92187 0.8125,-0.9375 0.8125,-2.84375 0,-1.79688 -0.8125,-2.71875 -0.8125,-0.92188 -2.03125,-0.92188 -1.23437,0 -2.04687,0.92188 -0.79688,0.90625 -0.79688,2.76562 z m 9.25068,4.84375 v -13.35937 h 1.64062 v 13.35937 z m 9.35937,0 v -9.67187 h 1.46875 v 1.46875 q 0.5625,-1.03125 1.03125,-1.35938 0.48438,-0.32812 1.0625,-0.32812 0.82813,0 1.6875,0.53125 l -0.5625,1.51562 q -0.60937,-0.35937 -1.20312,-0.35937 -0.54688,0 -0.96875,0.32812 -0.42188,0.32813 -0.60938,0.89063 -0.28125,0.875 -0.28125,1.92187 v 5.0625 z m 12.85333,-3.10937 1.6875,0.20312 q -0.40625,1.48438 -1.48437,2.3125 -1.07813,0.8125 -2.76563,0.8125 -2.125,0 -3.375,-1.29687 -1.23437,-1.3125 -1.23437,-3.67188 0,-2.45312 1.25,-3.79687 1.26562,-1.34375 3.26562,-1.34375 1.9375,0 3.15625,1.32812 1.23438,1.3125 1.23438,3.70313 0,0.15625 0,0.4375 h -7.21875 q 0.0937,1.59375 0.90625,2.45312 0.8125,0.84375 2.01562,0.84375 0.90625,0 1.54688,-0.46875 0.64062,-0.48437 1.01562,-1.51562 z m -5.39062,-2.65625 h 5.40625 q -0.10938,-1.21875 -0.625,-1.82813 -0.78125,-0.95312 -2.03125,-0.95312 -1.125,0 -1.90625,0.76562 -0.76563,0.75 -0.84375,2.01563 z m 8.82885,6.5625 1.59375,0.23437 q 0.10938,0.75 0.5625,1.07813 0.60938,0.45312 1.67188,0.45312 1.14062,0 1.75,-0.45312 0.625,-0.45313 0.84375,-1.26563 0.125,-0.5 0.10937,-2.10937 -1.0625,1.26562 -2.67187,1.26562 -2,0 -3.09375,-1.4375 -1.09375,-1.4375 -1.09375,-3.45312 0,-1.39063 0.5,-2.5625 0.51562,-1.17188 1.45312,-1.79688 0.95313,-0.64062 2.25,-0.64062 1.70313,0 2.8125,1.375 v -1.15625 h 1.51563 v 8.35937 q 0,2.26563 -0.46875,3.20313 -0.45313,0.9375 -1.45313,1.48437 -0.98437,0.54688 -2.45312,0.54688 -1.71875,0 -2.79688,-0.78125 -1.0625,-0.76563 -1.03125,-2.34375 z m 1.35938,-5.8125 q 0,1.90625 0.75,2.78125 0.76562,0.875 1.90625,0.875 1.125,0 1.89062,-0.85938 0.76563,-0.875 0.76563,-2.73437 0,-1.78125 -0.79688,-2.67188 -0.78125,-0.90625 -1.89062,-0.90625 -1.09375,0 -1.85938,0.89063 -0.76562,0.875 -0.76562,2.625 z m 9.3288,-6.45313 v -1.89062 h 1.64062 v 1.89062 z m 0,11.46875 v -9.67187 h 1.64062 v 9.67187 z m 3.48864,-2.89062 1.625,-0.25 q 0.125,0.96875 0.75,1.5 0.625,0.51562 1.75,0.51562 1.125,0 1.67188,-0.45312 0.54687,-0.46875 0.54687,-1.09375 0,-0.54688 -0.48437,-0.875 -0.32813,-0.21875 -1.67188,-0.54688 -1.8125,-0.46875 -2.51562,-0.79687 -0.6875,-0.32813 -1.04688,-0.90625 -0.35937,-0.59375 -0.35937,-1.3125 0,-0.64063 0.29687,-1.1875 0.29688,-0.5625 0.8125,-0.92188 0.375,-0.28125 1.03125,-0.46875 0.67188,-0.20312 1.42188,-0.20312 1.14062,0 2,0.32812 0.85937,0.32813 1.26562,0.89063 0.42188,0.5625 0.57813,1.5 l -1.60938,0.21875 q -0.10937,-0.75 -0.64062,-1.17188 -0.51563,-0.42187 -1.46875,-0.42187 -1.14063,0 -1.625,0.375 -0.46875,0.375 -0.46875,0.875 0,0.3125 0.1875,0.57812 0.20312,0.26563 0.64062,0.4375 0.23438,0.0937 1.4375,0.42188 1.75,0.45312 2.4375,0.75 0.6875,0.29687 1.07813,0.85937 0.39062,0.5625 0.39062,1.40625 0,0.82813 -0.48437,1.54688 -0.46875,0.71875 -1.375,1.125 -0.90625,0.39062 -2.04688,0.39062 -1.875,0 -2.875,-0.78125 -0.98437,-0.78125 -1.25,-2.32812 z m 13.5625,1.42187 0.23438,1.45313 q -0.6875,0.14062 -1.23438,0.14062 -0.89062,0 -1.39062,-0.28125 -0.48438,-0.28125 -0.6875,-0.73437 -0.20313,-0.46875 -0.20313,-1.9375 v -5.57813 h -1.20312 v -1.26562 h 1.20312 v -2.39063 l 1.625,-0.98437 v 3.375 h 1.65625 v 1.26562 h -1.65625 v 5.67188 q 0,0.6875 0.0781,0.89062 0.0937,0.20313 0.28125,0.32813 0.20312,0.10937 0.57812,0.10937 0.26563,0 0.71875,-0.0625 z m 8.23011,-1.64062 1.6875,0.20312 q -0.40625,1.48438 -1.48438,2.3125 -1.07812,0.8125 -2.76562,0.8125 -2.125,0 -3.375,-1.29687 -1.23438,-1.3125 -1.23438,-3.67188 0,-2.45312 1.25,-3.79687 1.26563,-1.34375 3.26563,-1.34375 1.9375,0 3.15625,1.32812 1.23437,1.3125 1.23437,3.70313 0,0.15625 0,0.4375 h -7.21875 q 0.0937,1.59375 0.90625,2.45312 0.8125,0.84375 2.01563,0.84375 0.90625,0 1.54687,-0.46875 0.64063,-0.48437 1.01563,-1.51562 z m -5.39063,-2.65625 h 5.40625 q -0.10937,-1.21875 -0.625,-1.82813 -0.78125,-0.95312 -2.03125,-0.95312 -1.125,0 -1.90625,0.76562 -0.76562,0.75 -0.84375,2.01563 z m 9.12573,5.76562 v -9.67187 h 1.46875 v 1.46875 q 0.5625,-1.03125 1.03125,-1.35938 0.48438,-0.32812 1.0625,-0.32812 0.82813,0 1.6875,0.53125 l -0.5625,1.51562 q -0.60937,-0.35937 -1.20312,-0.35937 -0.54688,0 -0.96875,0.32812 -0.42188,0.32813 -0.60938,0.89063 -0.28125,0.875 -0.28125,1.92187 v 5.0625 z m 5.57209,-2.89062 1.625,-0.25 q 0.125,0.96875 0.75,1.5 0.625,0.51562 1.75,0.51562 1.125,0 1.67187,-0.45312 0.54688,-0.46875 0.54688,-1.09375 0,-0.54688 -0.48438,-0.875 -0.32812,-0.21875 -1.67187,-0.54688 -1.8125,-0.46875 -2.51563,-0.79687 -0.6875,-0.32813 -1.04687,-0.90625 -0.35938,-0.59375 -0.35938,-1.3125 0,-0.64063 0.29688,-1.1875 0.29687,-0.5625 0.8125,-0.92188 0.375,-0.28125 1.03125,-0.46875 0.67187,-0.20312 1.42187,-0.20312 1.14063,0 2,0.32812 0.85938,0.32813 1.26563,0.89063 0.42187,0.5625 0.57812,1.5 l -1.60937,0.21875 q -0.10938,-0.75 -0.64063,-1.17188 -0.51562,-0.42187 -1.46875,-0.42187 -1.14062,0 -1.625,0.375 -0.46875,0.375 -0.46875,0.875 0,0.3125 0.1875,0.57812 0.20313,0.26563 0.64063,0.4375 0.23437,0.0937 1.4375,0.42188 1.75,0.45312 2.4375,0.75 0.6875,0.29687 1.07812,0.85937 0.39063,0.5625 0.39063,1.40625 0,0.82813 -0.48438,1.54688 -0.46875,0.71875 -1.375,1.125 -0.90625,0.39062 -2.04687,0.39062 -1.875,0 -2.875,-0.78125 -0.98438,-0.78125 -1.25,-2.32812 z"
       fill="#000000" />
  </g>
</svg>
